<svg xmlns="http://www.w3.org/2000/svg" viewBox="0 0 124.49 124.49"><defs><style>.cls-1{fill:#fdc84e;}.cls-2{fill:#feecc3;}.cls-3{fill:#fdda88;}.cls-4{fill:#feb800;}.cls-5{fill:#fefefe;}.cls-6{fill:#fcb613;}.cls-7{fill:#fff;}</style></defs><g id="Capa_2" data-name="Capa 2"><g id="Capa_1-2" data-name="Capa 1"><path class="cls-1" d="M.1,0h124c.33,0,.39.07.39.39q0,62,0,124a.17.17,0,0,1-.15,0,.68.68,0,0,1-.11-.42c0-.27,0-.54,0-.81V1.39c0-1.2.07-1.12-1.12-1.12H1.2A2,2,0,0,1,.14.16.12.12,0,0,1,.1,0Z"/><path class="cls-2" d="M.1,0V.1A.55.55,0,0,1,.28.54V123.36a2.43,2.43,0,0,1-.08,1,1.13,1.13,0,0,1-.1.13s-.08,0-.08,0v-.33Q0,62.25,0,.37C0,.25-.07.1.1,0Z"/><path class="cls-3" d="M.1,124.49v-.1a.54.54,0,0,1,.4-.16H123.35c.35,0,.73-.12,1,.16l.09,0s0,.08,0,.08H.1Z"/><path class="cls-4" d="M124.39,124.39H.11c0-.17,0-.35,0-.52V.62C.1.45.11.27.11.1h123.6a2.62,2.62,0,0,0,.28,0c.32,0,.45.09.41.41,0,.1,0,.21,0,.32v123C124.4,124,124.39,124.19,124.39,124.39Z"/><path class="cls-5" d="M62.32,68.05A15.66,15.66,0,1,1,46.66,83.71,15.68,15.68,0,0,1,62.32,68.05Z"/><path class="cls-5" d="M15.57,10.69h5.06c.32,0,.4.1.4.41,0,.78,0,1.56,0,2.35a8.66,8.66,0,0,1-.35,1.74L19.05,21.9c-1,4.1-2,8.19-3,12.29-.06.23-.14.31-.38.31H11.9c-.29,0-.3-.09-.24-.33q.84-3.37,1.66-6.75,1.48-6.08,3-12.14a6.73,6.73,0,0,1,.21-.77c.09-.29,0-.35-.28-.35-1.88,0-3.76,0-5.63,0-.4,0-.5-.1-.49-.49,0-.85,0-1.71,0-2.55,0-.39.12-.47.48-.46C12.25,10.7,13.91,10.69,15.57,10.69Z"/><path class="cls-5" d="M76.55,106a1.36,1.36,0,0,1-.88,1.32,1.27,1.27,0,0,1-1.53-.59q-1.67-2.86-3.31-5.75a1.33,1.33,0,0,1,.43-1.81,1.31,1.31,0,0,1,1.81.52c1.13,1.95,2.24,3.9,3.36,5.85A.86.86,0,0,1,76.55,106Z"/><path class="cls-5" d="M85,84.88c-1.11,0-2.21,0-3.32,0a1.32,1.32,0,0,1-1.35-1.31,1.3,1.3,0,0,1,1.35-1.27h6.59a1.31,1.31,0,0,1,1.35,1.26,1.33,1.33,0,0,1-1.35,1.32C87.13,84.89,86,84.88,85,84.88Z"/><path class="cls-5" d="M39.73,84.88c-1.11,0-2.21,0-3.32,0a1.31,1.31,0,0,1-1.33-1.29A1.29,1.29,0,0,1,36.4,82.3h6.67a1.26,1.26,0,0,1,1.28,1.28A1.29,1.29,0,0,1,43,84.88C41.94,84.89,40.83,84.88,39.73,84.88Z"/><path class="cls-5" d="M49.5,107.4a1.3,1.3,0,0,1-1.22-1.86c.45-.86.95-1.69,1.43-2.53.64-1.12,1.28-2.25,1.94-3.36a1.31,1.31,0,0,1,1.79-.46,1.33,1.33,0,0,1,.43,1.75c-1.1,1.94-2.22,3.88-3.33,5.82A1.2,1.2,0,0,1,49.5,107.4Z"/><path class="cls-5" d="M52.72,68.18a1.3,1.3,0,0,1-1.11-.63c-1.1-1.93-2.22-3.85-3.32-5.78A1.31,1.31,0,0,1,48.77,60a1.28,1.28,0,0,1,1.77.55l3.3,5.74a1.28,1.28,0,0,1-.06,1.38A1.22,1.22,0,0,1,52.72,68.18Z"/><path class="cls-5" d="M38.54,96.43a1.24,1.24,0,0,1,.66-1l5.71-3.28a1.3,1.3,0,1,1,1.27,2.25q-2.86,1.67-5.75,3.3A1.3,1.3,0,0,1,38.54,96.43Z"/><path class="cls-5" d="M63.61,61c0,1.11,0,2.21,0,3.32a1.28,1.28,0,0,1-1.27,1.34,1.26,1.26,0,0,1-1.3-1.3q0-3.33,0-6.64a1.28,1.28,0,0,1,1.29-1.33,1.3,1.3,0,0,1,1.28,1.37C63.62,58.79,63.61,59.87,63.61,61Z"/><path class="cls-5" d="M39.85,69.41a1.22,1.22,0,0,1,.69.22l5.71,3.28a1.3,1.3,0,0,1,.49,1.75,1.32,1.32,0,0,1-1.73.5c-2-1.12-3.93-2.24-5.89-3.38a1.25,1.25,0,0,1-.56-1.47A1.33,1.33,0,0,1,39.85,69.41Z"/><path class="cls-5" d="M63.61,106.23c0,1.08,0,2.16,0,3.24a1.28,1.28,0,0,1-1.25,1.35A1.25,1.25,0,0,1,61,109.5q0-3.3,0-6.6a1.26,1.26,0,0,1,1.31-1.34,1.28,1.28,0,0,1,1.26,1.35C63.62,104,63.61,105.12,63.61,106.23Z"/><path class="cls-5" d="M71.87,68.14a1.27,1.27,0,0,1-1.12-1.87c1.1-2,2.23-3.93,3.37-5.89a1.26,1.26,0,0,1,1.69-.46,1.27,1.27,0,0,1,.54,1.73c-1.1,2-2.22,3.91-3.34,5.86A1.2,1.2,0,0,1,71.87,68.14Z"/><path class="cls-5" d="M86.12,96.5a1.26,1.26,0,0,1-1.87,1.11q-2.91-1.64-5.79-3.3a1.29,1.29,0,1,1,1.28-2.24l5.75,3.29A1.18,1.18,0,0,1,86.12,96.5Z"/><path class="cls-5" d="M86.1,70.63a1.22,1.22,0,0,1-.64,1.13c-1.94,1.12-3.88,2.24-5.82,3.34a1.28,1.28,0,0,1-1.3-2.21c1.36-.8,2.73-1.58,4.09-2.36.59-.34,1.16-.69,1.76-1A1.29,1.29,0,0,1,86.1,70.63Z"/><path class="cls-6" d="M64.73,75.85A6.5,6.5,0,0,1,67.06,77a8,8,0,0,1,3.4,6.78,8.14,8.14,0,1,1-11.89-7.38,8.53,8.53,0,0,1,1.07-.48c.16-.06.25,0,.25.17,0,.86,0,1.73,0,2.59,0,.22-.15.26-.29.35a5.33,5.33,0,1,0,7.56,2.35,4.75,4.75,0,0,0-2.07-2.31.64.64,0,0,1-.37-.67C64.74,77.56,64.73,76.72,64.73,75.85Z"/><path class="cls-6" d="M63.47,76.92v2.55a1.15,1.15,0,0,1-1.16,1.23,1.17,1.17,0,0,1-1.14-1.25q0-2.51,0-5a1.16,1.16,0,1,1,2.3,0Z"/><path class="cls-7" d="M35.44,19.58H33.89l-.27-1.78H31.73l-.26,1.78H30.05l1.57-9.8h2.26Zm-3.51-3.11h1.48l-.74-5Z"/><path class="cls-7" d="M37.7,14.13h2v1.41h-2v4H36.16V9.78h4.07v1.4H37.7Z"/><path class="cls-7" d="M42.51,14.13h2v1.41h-2v4H41V9.78h4.08v1.4H42.51Z"/><path class="cls-7" d="M45.66,12.13a2.34,2.34,0,1,1,4.68,0v5.1a2.34,2.34,0,1,1-4.68,0Zm1.54,5.2c0,.7.31,1,.8,1s.8-.26.8-1V12c0-.7-.31-1-.8-1s-.8.26-.8,1Z"/><path class="cls-7" d="M54.55,19.58a3.05,3.05,0,0,1-.14-1.2V16.84c0-.91-.3-1.25-1-1.25h-.54v4H51.33V9.78h2.33c1.59,0,2.28.74,2.28,2.25v.77a2,2,0,0,1-1,2c.77.32,1,1.07,1,2.09v1.51a2.94,2.94,0,0,0,.16,1.19Zm-1.68-8.4v3h.61c.57,0,.92-.25.92-1v-1c0-.7-.24-1-.78-1Z"/><path class="cls-7" d="M57,9.78H59.4c1.54,0,2.3.85,2.3,2.42v5c0,1.57-.76,2.42-2.3,2.42H57Zm1.54,1.4v7h.87c.49,0,.78-.25.78-.95v-5.1c0-.7-.29-1-.78-1Z"/><path class="cls-7" d="M67.65,19.58H66.09l-.27-1.78H63.93l-.26,1.78H62.25l1.57-9.8h2.26Zm-3.52-3.11h1.48l-.74-5Z"/><path class="cls-7" d="M73,12v.35a1.93,1.93,0,0,1-1,2,2,2,0,0,1,1.15,2.1v.8a2.08,2.08,0,0,1-2.34,2.32H68.36V9.78h2.32C72.28,9.78,73,10.52,73,12Zm-3.07-.85v2.59h.6c.57,0,.92-.25.92-1v-.54c0-.7-.23-1-.78-1Zm0,4v3h.88c.52,0,.8-.24.8-1v-.86c0-.91-.29-1.19-1-1.19Z"/><path class="cls-7" d="M74,9.78h1.54v8.4h2.54v1.4H74Z"/><path class="cls-7" d="M80.33,13.91h2.11v1.4H80.33v2.87H83v1.4h-4.2V9.78H83v1.4H80.33Z"/><path class="cls-7" d="M35.44,34.38H33.89l-.27-1.78H31.73l-.26,1.78H30.05l1.57-9.8h2.26Zm-3.51-3.11h1.48l-.74-5Z"/><path class="cls-7" d="M37.53,27.28v7.1H36.14v-9.8h1.94l1.58,5.87V24.58H41v9.8H39.45Z"/><path class="cls-7" d="M42.13,24.58h2.44c1.54,0,2.3.85,2.3,2.42v5c0,1.57-.76,2.42-2.3,2.42H42.13ZM43.67,26v7h.87c.49,0,.79-.25.79-.95v-5.1c0-.7-.3-.95-.79-.95Z"/><path class="cls-7" d="M54.48,30.73V32c0,1.57-.78,2.47-2.29,2.47s-2.3-.9-2.3-2.47v-5.1c0-1.57.78-2.46,2.3-2.46s2.29.89,2.29,2.46v.95H53V26.83c0-.7-.31-1-.8-1s-.8.26-.8,1v5.3c0,.7.31.95.8.95s.8-.25.8-.95v-1.4Z"/><path class="cls-7" d="M55.42,24.58H57V33H59.5v1.4H55.42Z"/><path class="cls-7" d="M61.71,28.71h2.11v1.4H61.71V33h2.66v1.4h-4.2v-9.8h4.2V26H61.71Z"/><path class="cls-7" d="M70.3,34.38H68.75l-.27-1.78H66.59l-.26,1.78H64.91l1.57-9.8h2.26Zm-3.51-3.11h1.48l-.74-5Z"/><path class="cls-7" d="M72.39,27.28v7.1H71v-9.8h1.94l1.58,5.87V24.58h1.37v9.8H74.31Z"/><path class="cls-7" d="M32,43.51h2.11v1.4H32v2.87h2.66v1.4h-4.2v-9.8h4.2v1.4H32Z"/><path class="cls-7" d="M37,42.08v7.1H35.6v-9.8h1.93l1.58,5.87V39.38h1.37v9.8H38.9Z"/><path class="cls-7" d="M43.13,43.51h2.11v1.4H43.13v2.87h2.66v1.4h-4.2v-9.8h4.2v1.4H43.13Z"/><path class="cls-7" d="M50,49.18a3.05,3.05,0,0,1-.14-1.2V46.44c0-.91-.31-1.25-1-1.25h-.53v4H46.74v-9.8h2.33c1.59,0,2.28.74,2.28,2.25v.77a2,2,0,0,1-1,2c.77.33,1,1.07,1,2.09V48a2.93,2.93,0,0,0,.17,1.19Zm-1.68-8.4v3h.6c.58,0,.93-.25.93-1v-1c0-.7-.24-1-.79-1Z"/><path class="cls-7" d="M54.68,43.72h2.16v3.11c0,1.57-.79,2.47-2.3,2.47s-2.3-.9-2.3-2.47v-5.1a2.31,2.31,0,1,1,4.6,0v1H55.38v-1c0-.7-.31-1-.8-1s-.8.26-.8,1v5.3c0,.7.31,1,.8,1s.8-.25.8-1V45.12h-.7Z"/><path class="cls-7" d="M59.06,45.93l-2-6.55h1.61l1.18,4.47,1.18-4.47h1.47L60.6,45.93v3.25H59.06Z"/></g></g></svg>