<svg xmlns="http://www.w3.org/2000/svg" viewBox="0 0 378.08 212.67"><defs><style>.cls-1{fill:#ffb200;}.cls-2{fill:#fefefe;}.cls-3{fill:#fcb613;}.cls-4{fill:#fff;}</style></defs><g id="Capa_2" data-name="Capa 2"><g id="Capa_1-2" data-name="Capa 1"><rect class="cls-1" width="378.08" height="212.67"/><path class="cls-2" d="M189.11,112.14a15.67,15.67,0,1,1-15.65,15.66A15.68,15.68,0,0,1,189.11,112.14Z"/><path class="cls-2" d="M142.36,54.78c1.69,0,3.38,0,5.06,0,.33,0,.41.1.4.41,0,.78,0,1.56,0,2.35a7.46,7.46,0,0,1-.35,1.74q-.79,3.36-1.61,6.72c-1,4.1-2,8.19-3,12.3a.32.32,0,0,1-.37.3q-1.91,0-3.81,0c-.28,0-.29-.09-.23-.33q.84-3.37,1.66-6.75l3-12.13c.07-.27.13-.53.21-.78s0-.35-.28-.35c-1.87,0-3.75,0-5.62,0-.4,0-.51-.1-.49-.49q0-1.28,0-2.55c0-.39.12-.46.47-.46C139,54.79,140.7,54.78,142.36,54.78Z"/><path class="cls-2" d="M203.35,150.08a1.39,1.39,0,0,1-.89,1.33,1.29,1.29,0,0,1-1.53-.6c-1.1-1.91-2.21-3.83-3.3-5.75a1.34,1.34,0,0,1,.42-1.81,1.32,1.32,0,0,1,1.82.52c1.13,1.95,2.24,3.9,3.36,5.86A.8.8,0,0,1,203.35,150.08Z"/><path class="cls-2" d="M211.75,129h-3.32a1.32,1.32,0,0,1-1.35-1.31,1.29,1.29,0,0,1,1.34-1.27H215a1.31,1.31,0,0,1,1.35,1.26A1.33,1.33,0,0,1,215,129Z"/><path class="cls-2" d="M166.52,129h-3.31a1.33,1.33,0,0,1-1.34-1.29,1.3,1.3,0,0,1,1.32-1.29c2.23,0,4.45,0,6.67,0a1.26,1.26,0,0,1,1.29,1.28,1.29,1.29,0,0,1-1.31,1.3Z"/><path class="cls-2" d="M176.3,151.49a1.3,1.3,0,0,1-1.22-1.85c.45-.86.95-1.7,1.43-2.54.64-1.12,1.28-2.25,1.94-3.36a1.31,1.31,0,0,1,1.79-.46,1.33,1.33,0,0,1,.43,1.75c-1.1,1.94-2.22,3.88-3.33,5.82A1.18,1.18,0,0,1,176.3,151.49Z"/><path class="cls-2" d="M179.51,112.27a1.3,1.3,0,0,1-1.1-.63c-1.1-1.93-2.22-3.85-3.32-5.78a1.29,1.29,0,1,1,2.24-1.27c1.11,1.91,2.2,3.83,3.31,5.74a1.3,1.3,0,0,1-.06,1.38A1.22,1.22,0,0,1,179.51,112.27Z"/><path class="cls-2" d="M165.34,140.52a1.23,1.23,0,0,1,.65-1l5.72-3.28a1.3,1.3,0,1,1,1.27,2.25c-1.92,1.11-3.83,2.21-5.75,3.3A1.3,1.3,0,0,1,165.34,140.52Z"/><path class="cls-2" d="M190.41,105v3.32a1.28,1.28,0,0,1-1.27,1.34,1.27,1.27,0,0,1-1.31-1.3q0-3.33,0-6.64a1.28,1.28,0,0,1,1.28-1.33,1.31,1.31,0,0,1,1.29,1.37Z"/><path class="cls-2" d="M166.65,113.5a1.25,1.25,0,0,1,.69.22l5.71,3.28a1.28,1.28,0,0,1-1.24,2.25c-2-1.12-3.93-2.24-5.89-3.38a1.24,1.24,0,0,1-.56-1.47A1.32,1.32,0,0,1,166.65,113.5Z"/><path class="cls-2" d="M190.41,150.32v3.24a1.28,1.28,0,0,1-1.25,1.35,1.26,1.26,0,0,1-1.33-1.32V147a1.29,1.29,0,1,1,2.58,0Z"/><path class="cls-2" d="M198.66,112.23a1.27,1.27,0,0,1-1.12-1.87c1.11-2,2.24-3.93,3.37-5.89a1.29,1.29,0,0,1,2.24,1.27l-3.34,5.87A1.2,1.2,0,0,1,198.66,112.23Z"/><path class="cls-2" d="M212.92,140.59a1.26,1.26,0,0,1-1.87,1.11q-2.91-1.63-5.8-3.3a1.31,1.31,0,0,1-.53-1.84,1.33,1.33,0,0,1,1.81-.4c1.93,1.09,3.84,2.19,5.76,3.29A1.2,1.2,0,0,1,212.92,140.59Z"/><path class="cls-2" d="M212.9,114.72a1.23,1.23,0,0,1-.65,1.14c-1.93,1.11-3.87,2.23-5.81,3.33a1.28,1.28,0,0,1-1.3-2.21c1.36-.8,2.73-1.58,4.09-2.36.58-.34,1.16-.69,1.75-1A1.29,1.29,0,0,1,212.9,114.72Z"/><path class="cls-3" d="M191.52,119.94a6.55,6.55,0,0,1,2.34,1.14,8,8,0,0,1,3.39,6.78,8.13,8.13,0,1,1-11.88-7.38,7.8,7.8,0,0,1,1.06-.48c.17,0,.25,0,.25.17,0,.86,0,1.73,0,2.59,0,.22-.15.27-.28.35a5.33,5.33,0,1,0,7.56,2.35,4.84,4.84,0,0,0-2.07-2.31.64.64,0,0,1-.37-.67C191.54,121.65,191.52,120.81,191.52,119.94Z"/><path class="cls-3" d="M190.26,121c0,.84,0,1.69,0,2.54a1.14,1.14,0,0,1-1.15,1.23,1.18,1.18,0,0,1-1.15-1.25v-5a1.18,1.18,0,0,1,1.17-1.28,1.16,1.16,0,0,1,1.13,1.26C190.27,119.35,190.26,120.18,190.26,121Z"/><path class="cls-4" d="M164.4,64.43h-1.55l-.27-1.78h-1.89l-.26,1.78H159l1.57-9.81h2.26Zm-3.51-3.11h1.48l-.74-5Z"/><path class="cls-4" d="M166.66,59h2v1.4h-2v4.05h-1.54V54.62h4.07V56h-2.53Z"/><path class="cls-4" d="M171.47,59h2v1.4h-2v4.05h-1.54V54.62H174V56h-2.54Z"/><path class="cls-4" d="M174.62,57a2.34,2.34,0,1,1,4.68,0v5.09a2.34,2.34,0,1,1-4.68,0Zm1.54,5.19c0,.7.31,1,.8,1s.8-.27.8-1V56.88c0-.7-.31-1-.8-1s-.8.27-.8,1Z"/><path class="cls-4" d="M183.51,64.43a3.12,3.12,0,0,1-.14-1.21V61.68c0-.91-.3-1.24-1-1.24h-.54v4h-1.54V54.62h2.33a2,2,0,0,1,2.28,2.26v.77a2,2,0,0,1-1,2c.77.32,1,1.06,1,2.08v1.52a3,3,0,0,0,.17,1.19ZM181.83,56v3h.6c.58,0,.93-.26.93-1V57c0-.7-.24-1-.78-1Z"/><path class="cls-4" d="M185.92,54.62h2.44c1.54,0,2.29.86,2.29,2.43v5c0,1.57-.75,2.43-2.29,2.43h-2.44Zm1.54,1.4v7h.87c.49,0,.78-.26.78-1V57c0-.7-.29-1-.78-1Z"/><path class="cls-4" d="M196.6,64.43h-1.55l-.27-1.78h-1.89l-.26,1.78h-1.42l1.57-9.81H195Zm-3.51-3.11h1.48l-.74-5Z"/><path class="cls-4" d="M201.93,56.88v.35a1.91,1.91,0,0,1-1,2,2,2,0,0,1,1.15,2.1v.8a2.09,2.09,0,0,1-2.34,2.33h-2.42V54.62h2.32C201.24,54.62,201.93,55.37,201.93,56.88ZM198.86,56v2.59h.6c.57,0,.92-.25.92-1V57c0-.7-.23-1-.78-1Zm0,4v3h.88c.52,0,.8-.24.8-1v-.85c0-.91-.3-1.19-1-1.19Z"/><path class="cls-4" d="M203,54.62h1.54V63h2.54v1.4H203Z"/><path class="cls-4" d="M209.29,58.75h2.11v1.41h-2.11V63H212v1.4h-4.2V54.62H212V56h-2.66Z"/><path class="cls-4" d="M220.05,64.43H218.5l-.27-1.78h-1.89l-.26,1.78h-1.42l1.57-9.81h2.26Zm-3.51-3.11H218l-.74-5Z"/><path class="cls-4" d="M222.14,57.33v7.1h-1.39V54.62h1.94l1.58,5.87V54.62h1.37v9.81h-1.58Z"/><path class="cls-4" d="M226.74,54.62h2.44c1.54,0,2.3.86,2.3,2.43v5c0,1.57-.76,2.43-2.3,2.43h-2.44Zm1.55,1.4v7h.86c.49,0,.79-.26.79-1V57c0-.7-.3-1-.79-1Z"/><path class="cls-4" d="M163.89,75.57v1.3c0,1.57-.79,2.47-2.3,2.47s-2.3-.9-2.3-2.47V71.78c0-1.57.79-2.47,2.3-2.47s2.3.9,2.3,2.47v1h-1.46v-1c0-.7-.31-1-.8-1s-.8.27-.8,1V77c0,.7.31,1,.8,1s.8-.25.8-1v-1.4Z"/><path class="cls-4" d="M164.82,69.42h1.54v8.41h2.54v1.4h-4.08Z"/><path class="cls-4" d="M171.11,73.55h2.11V75h-2.11v2.87h2.66v1.4h-4.2V69.42h4.2v1.4h-2.66Z"/><path class="cls-4" d="M179.71,79.23h-1.56l-.26-1.78H176l-.27,1.78h-1.42l1.57-9.81h2.26Zm-3.52-3.11h1.49l-.75-5Z"/><path class="cls-4" d="M181.79,72.13v7.1H180.4V69.42h1.94l1.58,5.87V69.42h1.37v9.81h-1.58Z"/><path class="cls-4" d="M190.11,73.55h2.11V75h-2.11v2.87h2.66v1.4h-4.2V69.42h4.2v1.4h-2.66Z"/><path class="cls-4" d="M195.09,72.13v7.1H193.7V69.42h1.94l1.58,5.87V69.42h1.37v9.81H197Z"/><path class="cls-4" d="M201.24,73.55h2.11V75h-2.11v2.87h2.66v1.4h-4.2V69.42h4.2v1.4h-2.66Z"/><path class="cls-4" d="M208.07,79.23a3.12,3.12,0,0,1-.14-1.21V76.48c0-.91-.31-1.24-1-1.24h-.53v4h-1.54V69.42h2.32c1.6,0,2.29.75,2.29,2.26v.77a2,2,0,0,1-1,2c.77.32,1,1.06,1,2.08V78a3,3,0,0,0,.17,1.19Zm-1.68-8.41v3h.6c.58,0,.93-.26.93-1v-1c0-.7-.24-1-.79-1Z"/><path class="cls-4" d="M212.79,73.76h2.15v3.11c0,1.57-.78,2.47-2.29,2.47s-2.3-.9-2.3-2.47V71.78c0-1.57.79-2.47,2.3-2.47s2.29.9,2.29,2.47v1h-1.45v-1c0-.7-.31-1-.8-1s-.8.27-.8,1V77c0,.7.31,1,.8,1s.8-.25.8-1v-1.8h-.7Z"/><path class="cls-4" d="M217.17,76l-1.95-6.56h1.61L218,73.89l1.18-4.47h1.47L218.71,76v3.25h-1.54Z"/></g></g></svg>