<svg xmlns="http://www.w3.org/2000/svg" viewBox="0 0 378.08 212.67"><defs><style>.cls-1{fill:#00b33e;}.cls-2{fill:#fff;}</style></defs><g id="Capa_2" data-name="Capa 2"><g id="Capa_1-2" data-name="Capa 1"><rect class="cls-1" width="378.08" height="212.67"/><path class="cls-2" d="M184.83,110.7l.46.16a8.18,8.18,0,0,1,6.13,7.14,8.36,8.36,0,0,1-6.75,9.34,10,10,0,0,1-1.73.16q-3.19,0-6.39,0c-1.83,0-3.65,0-5.47-.09a6,6,0,0,1-4.09-9.77c.07-.09.14-.17.2-.26s0,0,0,0a17.11,17.11,0,0,1-1.6-1.58,5.56,5.56,0,0,1,3.53-8.89,5.17,5.17,0,0,1,1-.07c.25,0,.36-.08.39-.34a7.57,7.57,0,0,1,15-.35,7.39,7.39,0,0,1-.45,4C185,110.35,184.91,110.5,184.83,110.7Z"/><path class="cls-2" d="M188.86,147.66h25.59c.66,0,.66,0,.66.65v2.39c0,.47-.07.53-.54.54H163.31c-.7,0-.7,0-.7-.73v-2.3c0-.55,0-.55.54-.55h25.71Z"/><path class="cls-2" d="M188.87,141.34h25.59c.65,0,.65,0,.65.66s0,1.59,0,2.38c0,.35-.1.52-.46.49H163.39c-.78,0-.78,0-.78-.76s0-1.52,0-2.27c0-.39.13-.51.51-.51h25.76Z"/><path class="cls-2" d="M150.17,63.67a4.82,4.82,0,0,1,2.32-1c2.32-.4,4.17.31,5.14,2.6a9.13,9.13,0,0,1,.44,1.34,14.56,14.56,0,0,1,.28,4.7,24.14,24.14,0,0,1-.44,3.07,4.89,4.89,0,0,1-4.63,3.84,10.82,10.82,0,0,1-3-.14,4.41,4.41,0,0,1-3.68-3.9c-.15-.83-.18-1.69-.26-2.53,0-.26.07-.37.34-.36h3.48c.41,0,.37.28.4.52a18,18,0,0,0,.19,1.8A1.62,1.62,0,0,0,152.86,75a1.26,1.26,0,0,0,1-.8,5.71,5.71,0,0,0,.4-1.55,21.49,21.49,0,0,0-.06-4.81,6.11,6.11,0,0,0-.17-.74,1.61,1.61,0,0,0-1.58-1.37,1.81,1.81,0,0,0-1.79,1,1.88,1.88,0,0,0-.24.59c-.07.38-.26.49-.64.48-.92,0-1.84,0-2.75,0-.32,0-.46-.07-.45-.43.06-2.71.11-5.42.17-8.13,0-1.36.1-2.72.13-4.08,0-.33.11-.44.45-.44H157c.32,0,.42.1.41.42,0,.94,0,1.89,0,2.83,0,.35-.11.44-.44.44h-6c-.58,0-.56,0-.59.59-.07,1.26-.15,2.53-.22,3.79C150.16,63.05,150.17,63.3,150.17,63.67Z"/><path class="cls-2" d="M139.32,59.25,136,60.44a3.66,3.66,0,0,1,0-.37c0-.81,0-1.62,0-2.43a.45.45,0,0,1,.31-.49,15.52,15.52,0,0,0,3.89-2.28.64.64,0,0,1,.41-.12c.9,0,1.81,0,2.71,0,.31,0,.39.11.39.4V77.45c0,.33-.11.41-.42.41-1.08,0-2.16,0-3.24,0-.66,0-.66,0-.66-.65V59.88C139.35,59.69,139.33,59.51,139.32,59.25Z"/><path class="cls-2" d="M196.23,121.4a.64.64,0,0,1,.14-.32,5.82,5.82,0,0,1,4.18-1.75,6.9,6.9,0,0,1,3.95,1.38.68.68,0,0,0,1,0,6.85,6.85,0,0,1,3.91-1.38,5.64,5.64,0,0,1,3.7,1.3,5.57,5.57,0,0,1,.58.51.56.56,0,0,1,0,.77c-.2.26-.44.16-.68,0a4.41,4.41,0,0,0-2.78-.47,8.13,8.13,0,0,0-4.79,2.23c-.36.33-.59.31-1,0a8.08,8.08,0,0,0-4.08-2.09,4.9,4.9,0,0,0-3.56.43C196.46,122.21,196.22,122,196.23,121.4Z"/><path class="cls-2" d="M180.36,133.8c0,1.2,0,2.4,0,3.6,0,.35-.12.48-.47.48-.87,0-1.73,0-2.6,0-.32,0-.45-.1-.45-.44,0-2.44,0-4.89,0-7.33,0-.34.13-.44.46-.44.86,0,1.72,0,2.59,0,.35,0,.47.14.47.48C180.35,131.37,180.36,132.58,180.36,133.8Z"/><path class="cls-2" d="M194.59,106.23a6,6,0,0,1,3.06.94.56.56,0,0,0,.77-.06,5.59,5.59,0,0,1,3.69-1.32,5,5,0,0,1,3,1.24.53.53,0,0,1,.14.75c-.19.29-.43.19-.7.06a4,4,0,0,0-2.54-.14,6.47,6.47,0,0,0-3.3,1.84c-.51.5-.61.51-1.15.08a6.54,6.54,0,0,0-3.79-1.45,3.84,3.84,0,0,0-2.33.52.58.58,0,0,1-.56,0,.52.52,0,0,1,0-.76,4.9,4.9,0,0,1,2.6-1.54C193.89,106.29,194.24,106.27,194.59,106.23Z"/><path class="cls-2" d="M203.7,99.78a3.89,3.89,0,0,1,3,1.42,1,1,0,0,0,1.23.35,3.87,3.87,0,0,1,4.49,1.71,1,1,0,0,1,.16.56.39.39,0,0,1-.67.29c-1.38-1.21-2.9-1.08-4.48-.54l-.3.12c-.52.24-.66.2-.95-.28a4.66,4.66,0,0,0-2.77-2.17,3.86,3.86,0,0,0-1.27-.1c-.27,0-.5,0-.6-.23a.48.48,0,0,1,.29-.66c.6-.22,1.22-.39,1.83-.58Z"/><path class="cls-2" d="M202.11,105.79a5,5,0,0,1,3,1.24.53.53,0,0,1,.14.75c-.19.29-.43.19-.7.06a4,4,0,0,0-2.54-.14,6.47,6.47,0,0,0-3.3,1.84c-.51.5-.61.51-1.15.08a6.54,6.54,0,0,0-3.79-1.45,3.84,3.84,0,0,0-2.33.52.58.58,0,0,1-.56,0,.52.52,0,0,1,0-.76,4.9,4.9,0,0,1,2.6-1.54c.34-.07.69-.09,1-.13a6,6,0,0,1,3.06.94.56.56,0,0,0,.77-.06A5.59,5.59,0,0,1,202.11,105.79Zm-.27-5.54c.6-.22,1.22-.39,1.83-.58l0,.11a3.89,3.89,0,0,1,3,1.42,1,1,0,0,0,1.23.35,3.87,3.87,0,0,1,4.49,1.71,1,1,0,0,1,.16.56.39.39,0,0,1-.67.29c-1.38-1.21-2.9-1.08-4.48-.54l-.3.12c-.52.24-.66.2-.95-.28a4.66,4.66,0,0,0-2.77-2.17,3.86,3.86,0,0,0-1.27-.1c-.27,0-.5,0-.6-.23A.48.48,0,0,1,201.84,100.25Zm-5.47,20.83a5.82,5.82,0,0,1,4.18-1.75,6.9,6.9,0,0,1,3.95,1.38.68.68,0,0,0,1,0,6.85,6.85,0,0,1,3.91-1.38,5.64,5.64,0,0,1,3.7,1.3,5.57,5.57,0,0,1,.58.51.56.56,0,0,1,0,.77c-.2.26-.44.16-.68,0a4.41,4.41,0,0,0-2.78-.47,8.13,8.13,0,0,0-4.79,2.23c-.36.33-.59.31-1,0a8.08,8.08,0,0,0-4.08-2.09,4.9,4.9,0,0,0-3.56.43c-.37.22-.61,0-.6-.59A.64.64,0,0,1,196.37,121.08Zm-27.25-14.17a5.17,5.17,0,0,1,1-.07c.25,0,.36-.08.39-.34a7.57,7.57,0,0,1,15-.35,7.39,7.39,0,0,1-.45,4c-.07.15-.12.3-.2.5l.46.16a8.18,8.18,0,0,1,6.13,7.14,8.36,8.36,0,0,1-6.75,9.34,10,10,0,0,1-1.73.16q-3.19,0-6.39,0c-1.83,0-3.65,0-5.47-.09a6,6,0,0,1-4.09-9.77c.07-.09.14-.17.2-.26s0,0,0,0a17.11,17.11,0,0,1-1.6-1.58A5.56,5.56,0,0,1,169.12,106.91Zm7.73,23.2c0-.34.13-.44.46-.44.86,0,1.72,0,2.59,0,.35,0,.47.14.47.48,0,1.22,0,2.43,0,3.65s0,2.4,0,3.6c0,.35-.12.48-.47.48-.87,0-1.73,0-2.6,0-.32,0-.45-.1-.45-.44C176.86,135,176.86,132.55,176.85,130.11Zm-33.6-52.25c-1.08,0-2.16,0-3.24,0-.66,0-.66,0-.66-.65V59.88c0-.19,0-.37,0-.63L136,60.44a3.66,3.66,0,0,1,0-.37c0-.81,0-1.62,0-2.43a.45.45,0,0,1,.31-.49,15.52,15.52,0,0,0,3.89-2.28.64.64,0,0,1,.41-.12c.9,0,1.81,0,2.71,0,.31,0,.39.11.39.4V77.45C143.67,77.78,143.56,77.86,143.25,77.86Zm15.1-6.58a24.14,24.14,0,0,1-.44,3.07,4.89,4.89,0,0,1-4.63,3.84,10.82,10.82,0,0,1-3-.14,4.41,4.41,0,0,1-3.68-3.9c-.15-.83-.18-1.69-.26-2.53,0-.26.07-.37.34-.36h3.48c.41,0,.37.28.4.52a18,18,0,0,0,.19,1.8A1.62,1.62,0,0,0,152.86,75a1.26,1.26,0,0,0,1-.8,5.71,5.71,0,0,0,.4-1.55,21.49,21.49,0,0,0-.06-4.81,6.11,6.11,0,0,0-.17-.74,1.61,1.61,0,0,0-1.58-1.37,1.81,1.81,0,0,0-1.79,1,1.88,1.88,0,0,0-.24.59c-.07.38-.26.49-.64.48-.92,0-1.84,0-2.75,0-.32,0-.46-.07-.45-.43.06-2.71.11-5.42.17-8.13,0-1.36.1-2.72.13-4.08,0-.33.11-.44.45-.44H157c.32,0,.42.1.41.42,0,.94,0,1.89,0,2.83,0,.35-.11.44-.44.44h-6c-.58,0-.56,0-.59.59-.07,1.26-.15,2.53-.22,3.79,0,.25,0,.5,0,.87a4.82,4.82,0,0,1,2.32-1c2.32-.4,4.17.31,5.14,2.6a9.13,9.13,0,0,1,.44,1.34A14.56,14.56,0,0,1,158.35,71.28Zm56.76,79.42c0,.47-.07.53-.54.54H163.31c-.7,0-.7,0-.7-.73v-2.3c0-.55,0-.55.54-.55h51.3c.66,0,.66,0,.66.65Zm-.46-5.83H163.39c-.78,0-.78,0-.78-.76s0-1.52,0-2.27c0-.39.13-.51.51-.51h51.35c.65,0,.65,0,.65.66s0,1.59,0,2.38C215.12,144.73,215,144.9,214.65,144.87Z"/><path class="cls-2" d="M164.53,54.33h4.77v1.4h-1.62v8.4h-1.54v-8.4h-1.61Z"/><path class="cls-2" d="M171.51,58.46h2.11v1.4h-2.11v2.87h2.66v1.4H170v-9.8h4.2v1.4h-2.66Z"/><path class="cls-2" d="M178.34,64.13a2.86,2.86,0,0,1-.14-1.2V61.39c0-.91-.31-1.25-1-1.25h-.53v4h-1.54v-9.8h2.32c1.6,0,2.29.74,2.29,2.25v.77a2,2,0,0,1-1,2c.77.32,1,1.07,1,2.09v1.51a2.77,2.77,0,0,0,.17,1.19Zm-1.68-8.4v3h.6c.57,0,.92-.25.92-1v-1c0-.7-.23-1-.78-1Z"/><path class="cls-2" d="M184,64.13a2.86,2.86,0,0,1-.14-1.2V61.39c0-.91-.31-1.25-1-1.25h-.53v4h-1.55v-9.8h2.33c1.6,0,2.28.74,2.28,2.25v.77a2,2,0,0,1-1,2c.78.32,1,1.07,1,2.09v1.51a2.77,2.77,0,0,0,.17,1.19Zm-1.68-8.4v3h.6c.57,0,.92-.25.92-1v-1c0-.7-.23-1-.78-1Z"/><path class="cls-2" d="M187.91,58.46H190v1.4h-2.12v2.87h2.67v1.4h-4.21v-9.8h4.21v1.4h-2.67Z"/><path class="cls-2" d="M193.6,54.22c1.5,0,2.27.89,2.27,2.46V57h-1.46v-.41c0-.7-.28-1-.77-1s-.77.26-.77,1c0,2,3,2.4,3,5.2,0,1.57-.78,2.46-2.3,2.46s-2.29-.89-2.29-2.46v-.6h1.45v.7c0,.7.31.95.8.95s.8-.25.8-.95c0-2-3-2.4-3-5.2C191.33,55.11,192.1,54.22,193.6,54.22Z"/><path class="cls-2" d="M196.31,54.33h4.77v1.4h-1.61v8.4h-1.55v-8.4h-1.61Z"/><path class="cls-2" d="M205,64.13a2.86,2.86,0,0,1-.14-1.2V61.39c0-.91-.31-1.25-1-1.25h-.53v4h-1.55v-9.8h2.33c1.6,0,2.28.74,2.28,2.25v.77a2,2,0,0,1-1,2c.78.32,1,1.07,1,2.09v1.51a2.77,2.77,0,0,0,.17,1.19Zm-1.68-8.4v3h.6c.57,0,.92-.25.92-1v-1c0-.7-.23-1-.78-1Z"/><path class="cls-2" d="M207.37,54.33h1.54v9.8h-1.54Z"/><path class="cls-2" d="M215,64.13h-1.55l-.27-1.78h-1.89L211,64.13h-1.41l1.57-9.8h2.25ZM211.5,61H213l-.74-5Z"/><path class="cls-2" d="M215.73,54.33h1.54v8.4h2.54v1.4h-4.08Z"/><path class="cls-2" d="M166.52,73.26h2.12v1.4h-2.12v2.87h2.66v1.4H165v-9.8h4.2v1.4h-2.66Z"/><path class="cls-2" d="M174.6,75.28v1.3c0,1.57-.78,2.46-2.29,2.46s-2.3-.89-2.3-2.46v-5.1c0-1.57.78-2.46,2.3-2.46s2.29.89,2.29,2.46v1h-1.45V71.38c0-.7-.31-1-.8-1s-.8.26-.8,1v5.3c0,.7.31.95.8.95s.8-.25.8-.95v-1.4Z"/><path class="cls-2" d="M175.41,71.48a2.34,2.34,0,1,1,4.68,0v5.1a2.34,2.34,0,1,1-4.68,0Zm1.54,5.2c0,.7.31,1,.8,1s.8-.26.8-1v-5.3c0-.7-.31-1-.8-1s-.8.26-.8,1Z"/><path class="cls-2" d="M183.16,69c1.49,0,2.26.89,2.26,2.46v.31H184v-.41c0-.7-.28-1-.77-1s-.77.26-.77,1c0,2,3,2.4,3,5.2a2.31,2.31,0,1,1-4.6,0V76h1.46v.7c0,.7.31.95.8.95s.8-.25.8-.95c0-2-3-2.4-3-5.2C180.89,69.91,181.66,69,183.16,69Z"/><path class="cls-2" d="M187.66,75.68l-1.94-6.55h1.61l1.17,4.47,1.18-4.47h1.47l-2,6.55v3.25h-1.54Z"/><path class="cls-2" d="M193.74,69c1.5,0,2.27.89,2.27,2.46v.31h-1.46v-.41c0-.7-.28-1-.77-1s-.77.26-.77,1c0,2,3,2.4,3,5.2,0,1.57-.78,2.46-2.29,2.46s-2.3-.89-2.3-2.46V76h1.46v.7c0,.7.3.95.79.95s.8-.25.8-.95c0-2-3-2.4-3-5.2C191.47,69.91,192.24,69,193.74,69Z"/><path class="cls-2" d="M196.46,69.13h4.76v1.4h-1.61v8.4h-1.54v-8.4h-1.61Z"/><path class="cls-2" d="M203.43,73.26h2.11v1.4h-2.11v2.87h2.66v1.4h-4.2v-9.8h4.2v1.4h-2.66Z"/><path class="cls-2" d="M210.3,76.09l1-7h2.15v9.8H212v-7l-1.06,7h-1.46L208.37,72v6.93H207v-9.8h2.15Z"/><path class="cls-2" d="M216.78,69.13h1.55v8.4h2.53v1.4h-4.08Z"/><path class="cls-2" d="M221.53,69.13h1.54v9.8h-1.54Z"/><path class="cls-2" d="M225.73,73.48h2v1.4h-2v4.05h-1.54v-9.8h4.08v1.4h-2.54Z"/><path class="cls-2" d="M230.55,73.26h2.11v1.4h-2.11v2.87h2.66v1.4H229v-9.8h4.21v1.4h-2.66Z"/></g></g></svg>