<svg xmlns="http://www.w3.org/2000/svg" viewBox="0 0 124.49 124.49"><defs><style>.cls-1{fill:#00336a;}.cls-2{fill:#fff;}</style></defs><g id="Capa_2" data-name="Capa 2"><g id="Capa_1-2" data-name="Capa 1"><path class="cls-1" d="M124.49,124.49H0V0H124.49Z"/><path class="cls-2" d="M88,81.29a13,13,0,0,1-4.73,9.81.61.61,0,0,0-.22.72,13.13,13.13,0,0,1-10.81,16.12,12.82,12.82,0,0,1-8.87-1.86.53.53,0,0,0-.68,0,13.12,13.12,0,0,1-20-8.74A12.85,12.85,0,0,1,43,91.73a.46.46,0,0,0-.17-.55A12.91,12.91,0,0,1,38,80,13.11,13.11,0,0,1,48.45,68.21,12.47,12.47,0,0,1,50.17,68a.6.6,0,0,0,.61-.45,13,13,0,0,1,6.12-6.85,13.11,13.11,0,0,1,18.2,6.63A.93.93,0,0,0,76,68a13.14,13.14,0,0,1,11.41,9.28A14.34,14.34,0,0,1,88,81.29ZM63,75.47a13.29,13.29,0,0,1,9.57-7.35c-.94-3.33-5.4-6.3-9.49-6.32a10.37,10.37,0,0,0-9.66,6.32A13.33,13.33,0,0,1,63,75.47ZM50,70.66c-3.57-.14-7.85,3.5-9,7.57A10.29,10.29,0,0,0,44.1,88.77a13.3,13.3,0,0,1,10-6.78A13.19,13.19,0,0,1,50,70.66Zm10.93,33.42a13.21,13.21,0,0,1-3.47-11.51,13.27,13.27,0,0,1-12,.33,10.43,10.43,0,0,0,15.49,11.18Zm21-15.31a10.44,10.44,0,0,0-2.09-17A9.79,9.79,0,0,0,76,70.63a13.3,13.3,0,0,1-.69,6.15,13.5,13.5,0,0,1-3.39,5.14A13.29,13.29,0,0,1,81.92,88.77Zm-1.36,4.11a12.92,12.92,0,0,1-6,1.29,13.25,13.25,0,0,1-6-1.63,13.24,13.24,0,0,1-3.34,11.51,10.32,10.32,0,0,0,11.66-.87C79.93,100.73,81.79,95.61,80.56,92.88Zm-15-7.2a10.34,10.34,0,0,0,14.16,4.65A10.34,10.34,0,0,0,65.53,85.68ZM63,87.56a10.33,10.33,0,0,0,.11,14.87A10.4,10.4,0,0,0,63,87.56Zm-2.52-1.81a10.33,10.33,0,0,0-14.1,4.61A10.38,10.38,0,0,0,60.43,85.75Zm4.13-3.12c6.08-.8,9.82-6.9,8.74-11.9A10.36,10.36,0,0,0,64.56,82.63Zm-3.09,0a10.53,10.53,0,0,0-8.81-11.94A10.37,10.37,0,0,0,61.47,82.62Z"/><path class="cls-2" d="M19.08,11.89h.43c3.23,0,6.46,0,9.68,0,.41,0,.45.15.49.51a19.34,19.34,0,0,1-.95,6.28c-1.28,5.34-2.58,10.67-3.85,16-.08.34-.21.43-.54.42-1.14,0-2.27,0-3.4,0l-.45,0c.82-3.31,1.63-6.59,2.43-9.87s1.61-6.57,2.44-9.92H19.08Z"/><path class="cls-2" d="M12,16.5,8.61,17.7V16.4c0-.55,0-1.1,0-1.66a.4.4,0,0,1,.27-.42,15.14,15.14,0,0,0,4-2.32.59.59,0,0,1,.37-.1H16c.3,0,.39.09.39.39,0,1.17,0,2.35,0,3.52V34.54c0,.54,0,.54-.55.54-1.13,0-2.27,0-3.4,0-.38,0-.47-.11-.47-.48q0-8.73,0-17.48Z"/><path class="cls-2" d="M42.64,19.42H41.09l-.27-1.78H38.93l-.27,1.78H37.25l1.57-9.8h2.25Zm-3.51-3.11h1.48l-.74-5Z"/><path class="cls-2" d="M43.35,9.62h1.54V18h2.54v1.4H43.35Z"/><path class="cls-2" d="M48.1,9.62h1.54V18h2.54v1.4H48.1Z"/><path class="cls-2" d="M52.84,9.62h1.55v9.8H52.84Z"/><path class="cls-2" d="M60.49,19.42H58.94l-.27-1.78H56.78l-.27,1.78H55.1l1.57-9.8h2.25ZM57,16.31h1.48l-.74-5Z"/><path class="cls-2" d="M62.58,12.32v7.1H61.19V9.62h1.93l1.59,5.86V9.62h1.37v9.8H64.5Z"/><path class="cls-2" d="M71.65,15.76v1.31a2.31,2.31,0,1,1-4.6,0V12c0-1.57.79-2.47,2.3-2.47s2.3.9,2.3,2.47v.95H70.19V11.87c0-.7-.31-1-.8-1s-.8.27-.8,1v5.3c0,.7.31.95.8.95s.8-.25.8-.95V15.76Z"/><path class="cls-2" d="M74.13,13.75h2.11v1.4H74.13V18h2.66v1.4H72.58V9.62h4.21V11H74.13Z"/><path class="cls-2" d="M79.81,9.5c1.5,0,2.27.9,2.27,2.47v.31H80.62v-.41c0-.7-.28-1-.77-1s-.77.27-.77,1c0,2,3,2.4,3,5.2,0,1.57-.78,2.46-2.29,2.46s-2.3-.89-2.3-2.46v-.6H79v.7c0,.7.3.95.79.95s.8-.25.8-.95c0-2-3-2.4-3-5.2C77.54,10.4,78.31,9.5,79.81,9.5Z"/><path class="cls-2" d="M84.69,9.62h4.77V11H87.85v8.4H86.3V11H84.69Z"/><path class="cls-2" d="M90,12a2.34,2.34,0,1,1,4.68,0v5.1a2.34,2.34,0,1,1-4.68,0Zm1.54,5.2c0,.7.31,1,.8,1s.8-.26.8-1v-5.3c0-.7-.31-1-.8-1s-.8.27-.8,1Z"/><path class="cls-2" d="M42.64,34.22H41.09l-.27-1.78H38.93l-.27,1.78H37.25l1.57-9.8h2.25Zm-3.51-3.11h1.48l-.74-5Z"/><path class="cls-2" d="M47.81,30.56v1.31a2.31,2.31,0,1,1-4.6,0v-5.1c0-1.57.79-2.47,2.3-2.47s2.3.9,2.3,2.47v.95H46.35v-1c0-.7-.31-1-.8-1s-.8.27-.8,1V32c0,.7.31,1,.8,1s.8-.25.8-1V30.56Z"/><path class="cls-2" d="M50.28,34.22H48.74v-9.8h1.54v4.2H52v-4.2H53.6v9.8H52V30H50.28Z"/><path class="cls-2" d="M54.72,24.42h1.54v9.8H54.72Z"/><path class="cls-2" d="M58.92,28.55H61V30H58.92v2.87h2.66v1.4h-4.2v-9.8h4.2v1.4H58.92Z"/><path class="cls-2" d="M64.86,32.41l1.17-8h1.42l-1.51,9.8h-2.3l-1.51-9.8h1.55Z"/><path class="cls-2" d="M69.7,28.55h2.12V30H69.7v2.87h2.66v1.4h-4.2v-9.8h4.2v1.4H69.7Z"/><path class="cls-2" d="M37.53,41.57a2.34,2.34,0,1,1,4.68,0v5.1a2.34,2.34,0,1,1-4.68,0Zm1.54,5.2c0,.7.31,1,.8,1s.8-.26.8-1v-5.3c0-.7-.31-1-.8-1s-.8.26-.8,1Z"/><path class="cls-2" d="M47.81,41.47v.35a1.94,1.94,0,0,1-1,2A2,2,0,0,1,48,45.9v.8A2.08,2.08,0,0,1,45.62,49H43.2v-9.8h2.32C47.12,39.22,47.81,40,47.81,41.47Zm-3.07-.85v2.59h.6c.58,0,.93-.25.93-1v-.54c0-.7-.24-1-.79-1Zm0,4v3h.88c.52,0,.8-.24.8-1V45.8c0-.91-.29-1.19-1-1.19Z"/><path class="cls-2" d="M48.46,47.62a4.78,4.78,0,0,0,.53,0c.49,0,.89-.19.89-.94V39.22h1.54v7.36c0,2-1.05,2.47-2.22,2.47a5.86,5.86,0,0,1-.74,0Z"/><path class="cls-2" d="M54,43.35h2.11v1.4H54v2.87h2.66V49h-4.2v-9.8h4.2v1.4H54Z"/><path class="cls-2" d="M62.09,45.37v1.3a2.31,2.31,0,1,1-4.6,0v-5.1c0-1.57.79-2.47,2.3-2.47s2.3.9,2.3,2.47v1H60.63V41.47c0-.7-.31-1-.8-1s-.8.26-.8,1v5.3c0,.7.31.95.8.95s.8-.25.8-.95v-1.4Z"/><path class="cls-2" d="M62.57,39.22h4.77v1.4H65.72V49H64.18v-8.4H62.57Z"/><path class="cls-2" d="M68,39.22h1.54V49H68Z"/><path class="cls-2" d="M73,47.22l1.18-8h1.41L74.07,49h-2.3l-1.51-9.8h1.55Z"/><path class="cls-2" d="M77.83,43.35H80v1.4H77.83v2.87H80.5V49H76.29v-9.8H80.5v1.4H77.83Z"/><path class="cls-2" d="M83.52,39.1c1.5,0,2.27.9,2.27,2.47v.31H84.33v-.41c0-.7-.28-1-.77-1s-.77.26-.77,1c0,2,3,2.4,3,5.2,0,1.57-.78,2.46-2.3,2.46s-2.29-.89-2.29-2.46v-.6h1.45v.7c0,.7.31.95.8.95s.8-.25.8-.95c0-2-3-2.4-3-5.2C81.25,40,82,39.1,83.52,39.1Z"/></g></g></svg>