<svg xmlns="http://www.w3.org/2000/svg" viewBox="0 0 378.08 212.67"><defs><style>.cls-1{fill:#e3152b;}.cls-2{fill:#fefefe;}.cls-3{fill:#c21f33;}.cls-4{fill:#fff;}</style></defs><g id="Capa_2" data-name="Capa 2"><g id="Capa_1-2" data-name="Capa 1"><rect class="cls-1" width="378.08" height="212.67"/><path class="cls-2" d="M207,98v.56q0,20.28,0,40.57a.66.66,0,0,1-.58.76c-2.34.68-4.67,1.39-7,2.09l-11.8,3.54c-.94.29-1.88.56-2.82.86-.27.09-.32,0-.31-.24,0-.47,0-.94,0-1.42q0-16.63,0-33.27a.71.71,0,0,1,.42-.73c2.68-1.53,5.35-3.08,8-4.62l10.36-6,3.43-2A2.4,2.4,0,0,1,207,98Z"/><path class="cls-2" d="M159.66,97.93,163,99.85l6.08,3.52,10.09,5.82c.85.49,1.69,1,2.55,1.48a.51.51,0,0,1,.3.5q0,17.45,0,34.87c0,.35-.1.36-.39.27l-13.73-4.14c-2.55-.76-5.1-1.55-7.66-2.3a.7.7,0,0,1-.59-.8q0-20.26,0-40.53Z"/><path class="cls-2" d="M157.23,97.89a1,1,0,0,1,.06.54q0,21.51,0,43c0,.35.08.5.44.6,2.7.73,5.4,1.5,8.1,2.25l12.88,3.59a30.4,30.4,0,0,0,3.07.85,6.83,6.83,0,0,0,3.21-.07c3-.95,6.08-1.94,9.11-2.92L205,142.2c1.3-.42,2.61-.86,3.92-1.26.34-.11.41-.27.41-.6q0-20.31,0-40.62V97.85l1.25,1a4.33,4.33,0,0,0,.53.43,1.24,1.24,0,0,1,.64,1.29q0,20.79,0,41.58c0,.23,0,.42-.29.52-3.48,1-6.91,2.15-10.37,3.24l-9.9,3.13-6.2,2a4.2,4.2,0,0,1-.71.11c-2.17.24-4.18-.5-6.21-1.06l-11.38-3.14c-3.83-1.06-7.65-2.13-11.49-3.17-.3-.09-.31-.26-.31-.5,0-4,0-8,0-12q0-15.54,0-31.06a.81.81,0,0,1,.36-.74C155.92,98.94,156.56,98.41,157.23,97.89Z"/><path class="cls-2" d="M221.83,148.18c-.36-1.28-.68-2.44-1-3.61-.5-1.77-1-3.54-1.53-5.32a2,2,0,0,1-.09-.59q0-18.22,0-36.44c0-.37.1-.44.45-.44q2.21,0,4.41,0c.36,0,.44.09.44.45q0,14,0,28.1,0,4,0,8.09a4.8,4.8,0,0,1-.23,1.31L222,147.85C221.92,147.92,221.89,148,221.83,148.18Z"/><path class="cls-2" d="M147.74,62.42q0,3.47,0,6.93c0,.32.09.41.41.4.57,0,1.13,0,1.7,0,.2,0,.28.06.28.28,0,1,0,1.91,0,2.87,0,.24-.09.29-.31.29-.58,0-1.16,0-1.74,0-.27,0-.34.08-.34.34,0,1.61,0,3.21,0,4.82,0,.36-.1.45-.45.44q-1.62,0-3.24,0c-.32,0-.41-.07-.41-.4,0-1.56,0-3.13,0-4.69,0-.39-.06-.52-.49-.52-2.08,0-4.16,0-6.24,0-.33,0-.47-.08-.42-.42a2.26,2.26,0,0,0,0-.37c0-3,0-3,1.23-5.69,1.11-2.51,2.15-5.06,3.22-7.59.53-1.25,1.07-2.49,1.6-3.75a.36.36,0,0,1,.39-.25c1.48,0,3,0,4.45,0,.34,0,.32.17.32.4Z"/><path class="cls-2" d="M221.85,99.74h-2.34c-.25,0-.32-.07-.32-.31,0-.89,0-1.78,0-2.67a2.64,2.64,0,0,1,5.27-.07c0,.93,0,1.86,0,2.79,0,.23-.09.26-.29.26Z"/><path class="cls-3" d="M143.64,59.82c0,.22,0,.32,0,.42,0,3,0,6.07,0,9.11,0,.32-.09.41-.4.4-1,0-1.89,0-2.84,0-.27,0-.35,0-.25-.34q1.66-4.62,3.31-9.24A2.35,2.35,0,0,1,143.64,59.82Z"/><path class="cls-4" d="M160.88,56.45a2.34,2.34,0,1,1,4.67,0v5.1a2.84,2.84,0,0,1-.29,1.37c.07.18.18.21.43.21h.14V64.5h-.21a1.36,1.36,0,0,1-1.33-.67,3.21,3.21,0,0,1-1.08.18,2.17,2.17,0,0,1-2.33-2.46Zm1.54,5.2c0,.7.3,1,.79,1s.8-.26.8-1v-5.3c0-.7-.31-1-.8-1s-.79.27-.79,1Z"/><path class="cls-4" d="M168,54.1v7.56c0,.7.3,1,.79,1s.8-.25.8-1V54.1h1.46v7.46c0,1.57-.78,2.47-2.3,2.47s-2.3-.9-2.3-2.47V54.1Z"/><path class="cls-4" d="M177.1,63.9h-1.55l-.27-1.78h-1.89l-.26,1.78h-1.42l1.57-9.8h2.26Zm-3.51-3.11h1.48l-.74-5Z"/><path class="cls-4" d="M177.82,54.1h1.54v8.4h2.53v1.4h-4.07Z"/><path class="cls-4" d="M182.56,54.1h1.54v9.8h-1.54Z"/><path class="cls-4" d="M184.77,54.1h4.77v1.4h-1.62v8.4h-1.54V55.5h-1.61Z"/><path class="cls-4" d="M191.65,60.65l-2-6.55h1.61l1.18,4.46,1.18-4.46h1.47l-1.95,6.55V63.9h-1.54Z"/><path class="cls-4" d="M162.54,73h2.12v1.4h-2.12V77.3h2.66v1.4H161V68.9h4.2v1.4h-2.66Z"/><path class="cls-4" d="M166.15,68.9h2.44c1.54,0,2.3.85,2.3,2.42v5c0,1.57-.76,2.42-2.3,2.42h-2.44Zm1.54,1.4v7h.87c.49,0,.79-.25.79-1v-5.1c0-.7-.3-1-.79-1Z"/><path class="cls-4" d="M173.34,68.9v7.56c0,.7.3,1,.79,1s.8-.25.8-1V68.9h1.46v7.46c0,1.57-.78,2.47-2.3,2.47s-2.29-.9-2.29-2.47V68.9Z"/><path class="cls-4" d="M181.91,75.05v1.3a2.31,2.31,0,1,1-4.6,0v-5.1c0-1.57.79-2.47,2.3-2.47s2.3.9,2.3,2.47v1h-1.46v-1c0-.7-.31-1-.8-1s-.8.27-.8,1v5.3c0,.7.31,1,.8,1s.8-.25.8-1v-1.4Z"/><path class="cls-4" d="M187.83,78.7h-1.56L186,76.92h-1.89l-.27,1.78h-1.42L184,68.9h2.26Zm-3.52-3.11h1.49l-.75-5Z"/><path class="cls-4" d="M187.56,68.9h4.76v1.4h-1.61v8.4h-1.54V70.3h-1.61Z"/><path class="cls-4" d="M193,68.9h1.54v9.8H193Z"/><path class="cls-4" d="M195.52,71.25a2.34,2.34,0,1,1,4.68,0v5.1a2.34,2.34,0,1,1-4.68,0Zm1.54,5.2c0,.7.31,1,.8,1s.8-.26.8-1v-5.3c0-.7-.31-1-.8-1s-.8.27-.8,1Z"/><path class="cls-4" d="M202.57,71.6v7.1h-1.39V68.9h1.93l1.59,5.86V68.9h1.37v9.8h-1.58Z"/></g></g></svg>