<svg xmlns="http://www.w3.org/2000/svg" viewBox="0 0 124.49 124.49"><defs><style>.cls-1{fill:#fdc84e;}.cls-2{fill:#feecc3;}.cls-3{fill:#fdda88;}.cls-4{fill:#feb800;}.cls-5{fill:#fefefe;}.cls-6{fill:#fcb613;}.cls-7{font-size:12px;fill:#fff;font-family:BebasNeueBold, Bebas Neue;}.cls-8{letter-spacing:-0.05em;}</style></defs><g id="Capa_2" data-name="Capa 2"><g id="Capa_1-2" data-name="Capa 1"><path class="cls-1" d="M.1,0h124c.33,0,.39.07.39.39q0,62,0,124a.17.17,0,0,1-.15,0,.68.68,0,0,1-.11-.42c0-.27,0-.54,0-.81V1.39c0-1.2.07-1.12-1.12-1.12H1.2A2,2,0,0,1,.14.16.12.12,0,0,1,.1,0Z"/><path class="cls-2" d="M.1,0V.1A.55.55,0,0,1,.28.54V123.36a2.43,2.43,0,0,1-.08,1,1.13,1.13,0,0,1-.1.13s-.08,0-.08,0v-.33Q0,62.25,0,.37C0,.25-.07.1.1,0Z"/><path class="cls-3" d="M.1,124.49v-.1a.54.54,0,0,1,.4-.16H123.35c.35,0,.73-.12,1,.16l.09,0s0,.08,0,.08H.1Z"/><path class="cls-4" d="M124.39,124.39H.11c0-.17,0-.35,0-.52V.62C.1.45.11.27.11.1h123.6a2.62,2.62,0,0,0,.28,0c.32,0,.45.09.41.41,0,.1,0,.21,0,.32v123C124.4,124,124.39,124.19,124.39,124.39Z"/><path class="cls-5" d="M62.32,68.05A15.66,15.66,0,1,1,46.66,83.71,15.68,15.68,0,0,1,62.32,68.05Z"/><path class="cls-5" d="M15.57,10.69h5.06c.32,0,.4.1.4.41,0,.78,0,1.56,0,2.35a8.66,8.66,0,0,1-.35,1.74L19.05,21.9c-1,4.1-2,8.19-3,12.29-.06.23-.14.31-.38.31H11.9c-.29,0-.3-.09-.24-.33q.84-3.37,1.66-6.75,1.48-6.08,3-12.14a6.73,6.73,0,0,1,.21-.77c.09-.29,0-.35-.28-.35-1.88,0-3.76,0-5.63,0-.4,0-.5-.1-.49-.49,0-.85,0-1.71,0-2.55,0-.39.12-.47.48-.46C12.25,10.7,13.91,10.69,15.57,10.69Z"/><path class="cls-5" d="M76.55,106a1.36,1.36,0,0,1-.88,1.32,1.27,1.27,0,0,1-1.53-.59q-1.67-2.86-3.31-5.75a1.33,1.33,0,0,1,.43-1.81,1.31,1.31,0,0,1,1.81.52c1.13,1.95,2.24,3.9,3.36,5.85A.86.86,0,0,1,76.55,106Z"/><path class="cls-5" d="M85,84.88c-1.11,0-2.21,0-3.32,0a1.32,1.32,0,0,1-1.35-1.31,1.3,1.3,0,0,1,1.35-1.27h6.59a1.31,1.31,0,0,1,1.35,1.26,1.33,1.33,0,0,1-1.35,1.32C87.13,84.89,86,84.88,85,84.88Z"/><path class="cls-5" d="M39.73,84.88c-1.11,0-2.21,0-3.32,0a1.31,1.31,0,0,1-1.33-1.29A1.29,1.29,0,0,1,36.4,82.3h6.67a1.26,1.26,0,0,1,1.28,1.28A1.29,1.29,0,0,1,43,84.88C41.94,84.89,40.83,84.88,39.73,84.88Z"/><path class="cls-5" d="M49.5,107.4a1.3,1.3,0,0,1-1.22-1.86c.45-.86.95-1.69,1.43-2.53.64-1.12,1.28-2.25,1.94-3.36a1.31,1.31,0,0,1,1.79-.46,1.33,1.33,0,0,1,.43,1.75c-1.1,1.94-2.22,3.88-3.33,5.82A1.2,1.2,0,0,1,49.5,107.4Z"/><path class="cls-5" d="M52.72,68.18a1.3,1.3,0,0,1-1.11-.63c-1.1-1.93-2.22-3.85-3.32-5.78A1.31,1.31,0,0,1,48.77,60a1.28,1.28,0,0,1,1.77.55l3.3,5.74a1.28,1.28,0,0,1-.06,1.38A1.22,1.22,0,0,1,52.72,68.18Z"/><path class="cls-5" d="M38.54,96.43a1.24,1.24,0,0,1,.66-1l5.71-3.28a1.3,1.3,0,1,1,1.27,2.25q-2.86,1.67-5.75,3.3A1.3,1.3,0,0,1,38.54,96.43Z"/><path class="cls-5" d="M63.61,61c0,1.11,0,2.21,0,3.32a1.28,1.28,0,0,1-1.27,1.34,1.26,1.26,0,0,1-1.3-1.3q0-3.33,0-6.64a1.28,1.28,0,0,1,1.29-1.33,1.3,1.3,0,0,1,1.28,1.37C63.62,58.79,63.61,59.87,63.61,61Z"/><path class="cls-5" d="M39.85,69.41a1.22,1.22,0,0,1,.69.22l5.71,3.28a1.3,1.3,0,0,1,.49,1.75,1.32,1.32,0,0,1-1.73.5c-2-1.12-3.93-2.24-5.89-3.38a1.25,1.25,0,0,1-.56-1.47A1.33,1.33,0,0,1,39.85,69.41Z"/><path class="cls-5" d="M63.61,106.23c0,1.08,0,2.16,0,3.24a1.28,1.28,0,0,1-1.25,1.35A1.25,1.25,0,0,1,61,109.5q0-3.3,0-6.6a1.26,1.26,0,0,1,1.31-1.34,1.28,1.28,0,0,1,1.26,1.35C63.62,104,63.61,105.12,63.61,106.23Z"/><path class="cls-5" d="M71.87,68.14a1.27,1.27,0,0,1-1.12-1.87c1.1-2,2.23-3.93,3.37-5.89a1.26,1.26,0,0,1,1.69-.46,1.27,1.27,0,0,1,.54,1.73c-1.1,2-2.22,3.91-3.34,5.86A1.2,1.2,0,0,1,71.87,68.14Z"/><path class="cls-5" d="M86.12,96.5a1.26,1.26,0,0,1-1.87,1.11q-2.91-1.64-5.79-3.3a1.29,1.29,0,1,1,1.28-2.24l5.75,3.29A1.18,1.18,0,0,1,86.12,96.5Z"/><path class="cls-5" d="M86.1,70.63a1.22,1.22,0,0,1-.64,1.13c-1.94,1.12-3.88,2.24-5.82,3.34a1.28,1.28,0,0,1-1.3-2.21c1.36-.8,2.73-1.58,4.09-2.36.59-.34,1.16-.69,1.76-1A1.29,1.29,0,0,1,86.1,70.63Z"/><path class="cls-6" d="M64.73,75.85A6.5,6.5,0,0,1,67.06,77a8,8,0,0,1,3.4,6.78,8.14,8.14,0,1,1-11.89-7.38,8.53,8.53,0,0,1,1.07-.48c.16-.06.25,0,.25.17,0,.86,0,1.73,0,2.59,0,.22-.15.26-.29.35a5.33,5.33,0,1,0,7.56,2.35,4.75,4.75,0,0,0-2.07-2.31.64.64,0,0,1-.37-.67C64.74,77.56,64.73,76.72,64.73,75.85Z"/><path class="cls-6" d="M63.47,76.92v2.55a1.15,1.15,0,0,1-1.16,1.23,1.17,1.17,0,0,1-1.14-1.25q0-2.51,0-5a1.16,1.16,0,1,1,2.3,0Z"/><text class="cls-7" transform="translate(29.9 18.18)">Erschwingliche und <tspan x="0" y="12.8">umwe</tspan><tspan class="cls-8" x="22.44" y="12.8">l</tspan><tspan x="25.91" y="12.8">tfreundliche </tspan><tspan x="0" y="25.6">Energie</tspan></text></g></g></svg>