<svg xmlns="http://www.w3.org/2000/svg" viewBox="0 0 378.08 212.67"><defs><style>.cls-1{fill:#00b33e;}.cls-2{fill:#fff;}</style></defs><g id="Capa_2" data-name="Capa 2"><g id="Capa_1-2" data-name="Capa 1"><rect class="cls-1" width="378.08" height="212.67"/><path class="cls-2" d="M184.83,110.7l.46.16a8.18,8.18,0,0,1,6.13,7.14,8.36,8.36,0,0,1-6.75,9.34,10,10,0,0,1-1.73.16q-3.19,0-6.39,0c-1.83,0-3.65,0-5.47-.09a6,6,0,0,1-4.09-9.77c.07-.09.14-.17.2-.26s0,0,0,0a17.11,17.11,0,0,1-1.6-1.58,5.56,5.56,0,0,1,3.53-8.89,5.17,5.17,0,0,1,1-.07c.25,0,.36-.08.39-.34a7.57,7.57,0,0,1,15-.35,7.39,7.39,0,0,1-.45,4C185,110.35,184.91,110.5,184.83,110.7Z"/><path class="cls-2" d="M188.86,147.66h25.59c.66,0,.66,0,.66.65v2.39c0,.47-.07.53-.54.54H163.31c-.7,0-.7,0-.7-.73v-2.3c0-.55,0-.55.54-.55h25.71Z"/><path class="cls-2" d="M188.87,141.34h25.59c.65,0,.65,0,.65.66s0,1.59,0,2.38c0,.35-.1.52-.46.49H163.39c-.78,0-.78,0-.78-.76s0-1.52,0-2.27c0-.39.13-.51.51-.51h25.76Z"/><path class="cls-2" d="M150.17,63.67a4.82,4.82,0,0,1,2.32-1c2.32-.4,4.17.31,5.14,2.6a9.13,9.13,0,0,1,.44,1.34,14.56,14.56,0,0,1,.28,4.7,24.14,24.14,0,0,1-.44,3.07,4.89,4.89,0,0,1-4.63,3.84,10.82,10.82,0,0,1-3-.14,4.41,4.41,0,0,1-3.68-3.9c-.15-.83-.18-1.69-.26-2.53,0-.26.07-.37.34-.36h3.48c.41,0,.37.28.4.52a18,18,0,0,0,.19,1.8A1.62,1.62,0,0,0,152.86,75a1.26,1.26,0,0,0,1-.8,5.71,5.71,0,0,0,.4-1.55,21.49,21.49,0,0,0-.06-4.81,6.11,6.11,0,0,0-.17-.74,1.61,1.61,0,0,0-1.58-1.37,1.81,1.81,0,0,0-1.79,1,1.88,1.88,0,0,0-.24.59c-.07.38-.26.49-.64.48-.92,0-1.84,0-2.75,0-.32,0-.46-.07-.45-.43.06-2.71.11-5.42.17-8.13,0-1.36.1-2.72.13-4.08,0-.33.11-.44.45-.44H157c.32,0,.42.1.41.42,0,.94,0,1.89,0,2.83,0,.35-.11.44-.44.44h-6c-.58,0-.56,0-.59.59-.07,1.26-.15,2.53-.22,3.79C150.16,63.05,150.17,63.3,150.17,63.67Z"/><path class="cls-2" d="M139.32,59.25,136,60.44a3.66,3.66,0,0,1,0-.37c0-.81,0-1.62,0-2.43a.45.45,0,0,1,.31-.49,15.52,15.52,0,0,0,3.89-2.28.64.64,0,0,1,.41-.12c.9,0,1.81,0,2.71,0,.31,0,.39.11.39.4V77.45c0,.33-.11.41-.42.41-1.08,0-2.16,0-3.24,0-.66,0-.66,0-.66-.65V59.88C139.35,59.69,139.33,59.51,139.32,59.25Z"/><path class="cls-2" d="M196.23,121.4a.64.64,0,0,1,.14-.32,5.82,5.82,0,0,1,4.18-1.75,6.9,6.9,0,0,1,3.95,1.38.68.68,0,0,0,1,0,6.85,6.85,0,0,1,3.91-1.38,5.64,5.64,0,0,1,3.7,1.3,5.57,5.57,0,0,1,.58.51.56.56,0,0,1,0,.77c-.2.26-.44.16-.68,0a4.41,4.41,0,0,0-2.78-.47,8.13,8.13,0,0,0-4.79,2.23c-.36.33-.59.31-1,0a8.08,8.08,0,0,0-4.08-2.09,4.9,4.9,0,0,0-3.56.43C196.46,122.21,196.22,122,196.23,121.4Z"/><path class="cls-2" d="M180.36,133.8c0,1.2,0,2.4,0,3.6,0,.35-.12.48-.47.48-.87,0-1.73,0-2.6,0-.32,0-.45-.1-.45-.44,0-2.44,0-4.89,0-7.33,0-.34.13-.44.46-.44.86,0,1.72,0,2.59,0,.35,0,.47.14.47.48C180.35,131.37,180.36,132.58,180.36,133.8Z"/><path class="cls-2" d="M194.59,106.23a6,6,0,0,1,3.06.94.56.56,0,0,0,.77-.06,5.59,5.59,0,0,1,3.69-1.32,5,5,0,0,1,3,1.24.53.53,0,0,1,.14.75c-.19.29-.43.19-.7.06a4,4,0,0,0-2.54-.14,6.47,6.47,0,0,0-3.3,1.84c-.51.5-.61.51-1.15.08a6.54,6.54,0,0,0-3.79-1.45,3.84,3.84,0,0,0-2.33.52.58.58,0,0,1-.56,0,.52.52,0,0,1,0-.76,4.9,4.9,0,0,1,2.6-1.54C193.89,106.29,194.24,106.27,194.59,106.23Z"/><path class="cls-2" d="M203.7,99.78a3.89,3.89,0,0,1,3,1.42,1,1,0,0,0,1.23.35,3.87,3.87,0,0,1,4.49,1.71,1,1,0,0,1,.16.56.39.39,0,0,1-.67.29c-1.38-1.21-2.9-1.08-4.48-.54l-.3.12c-.52.24-.66.2-.95-.28a4.66,4.66,0,0,0-2.77-2.17,3.86,3.86,0,0,0-1.27-.1c-.27,0-.5,0-.6-.23a.48.48,0,0,1,.29-.66c.6-.22,1.22-.39,1.83-.58Z"/><path class="cls-2" d="M202.11,105.79a5,5,0,0,1,3,1.24.53.53,0,0,1,.14.75c-.19.29-.43.19-.7.06a4,4,0,0,0-2.54-.14,6.47,6.47,0,0,0-3.3,1.84c-.51.5-.61.51-1.15.08a6.54,6.54,0,0,0-3.79-1.45,3.84,3.84,0,0,0-2.33.52.58.58,0,0,1-.56,0,.52.52,0,0,1,0-.76,4.9,4.9,0,0,1,2.6-1.54c.34-.07.69-.09,1-.13a6,6,0,0,1,3.06.94.56.56,0,0,0,.77-.06A5.59,5.59,0,0,1,202.11,105.79Zm-.27-5.54c.6-.22,1.22-.39,1.83-.58l0,.11a3.89,3.89,0,0,1,3,1.42,1,1,0,0,0,1.23.35,3.87,3.87,0,0,1,4.49,1.71,1,1,0,0,1,.16.56.39.39,0,0,1-.67.29c-1.38-1.21-2.9-1.08-4.48-.54l-.3.12c-.52.24-.66.2-.95-.28a4.66,4.66,0,0,0-2.77-2.17,3.86,3.86,0,0,0-1.27-.1c-.27,0-.5,0-.6-.23A.48.48,0,0,1,201.84,100.25Zm-5.47,20.83a5.82,5.82,0,0,1,4.18-1.75,6.9,6.9,0,0,1,3.95,1.38.68.68,0,0,0,1,0,6.85,6.85,0,0,1,3.91-1.38,5.64,5.64,0,0,1,3.7,1.3,5.57,5.57,0,0,1,.58.51.56.56,0,0,1,0,.77c-.2.26-.44.16-.68,0a4.41,4.41,0,0,0-2.78-.47,8.13,8.13,0,0,0-4.79,2.23c-.36.33-.59.31-1,0a8.08,8.08,0,0,0-4.08-2.09,4.9,4.9,0,0,0-3.56.43c-.37.22-.61,0-.6-.59A.64.64,0,0,1,196.37,121.08Zm-27.25-14.17a5.17,5.17,0,0,1,1-.07c.25,0,.36-.08.39-.34a7.57,7.57,0,0,1,15-.35,7.39,7.39,0,0,1-.45,4c-.07.15-.12.3-.2.5l.46.16a8.18,8.18,0,0,1,6.13,7.14,8.36,8.36,0,0,1-6.75,9.34,10,10,0,0,1-1.73.16q-3.19,0-6.39,0c-1.83,0-3.65,0-5.47-.09a6,6,0,0,1-4.09-9.77c.07-.09.14-.17.2-.26s0,0,0,0a17.11,17.11,0,0,1-1.6-1.58A5.56,5.56,0,0,1,169.12,106.91Zm7.73,23.2c0-.34.13-.44.46-.44.86,0,1.72,0,2.59,0,.35,0,.47.14.47.48,0,1.22,0,2.43,0,3.65s0,2.4,0,3.6c0,.35-.12.48-.47.48-.87,0-1.73,0-2.6,0-.32,0-.45-.1-.45-.44C176.86,135,176.86,132.55,176.85,130.11Zm-33.6-52.25c-1.08,0-2.16,0-3.24,0-.66,0-.66,0-.66-.65V59.88c0-.19,0-.37,0-.63L136,60.44a3.66,3.66,0,0,1,0-.37c0-.81,0-1.62,0-2.43a.45.45,0,0,1,.31-.49,15.52,15.52,0,0,0,3.89-2.28.64.64,0,0,1,.41-.12c.9,0,1.81,0,2.71,0,.31,0,.39.11.39.4V77.45C143.67,77.78,143.56,77.86,143.25,77.86Zm15.1-6.58a24.14,24.14,0,0,1-.44,3.07,4.89,4.89,0,0,1-4.63,3.84,10.82,10.82,0,0,1-3-.14,4.41,4.41,0,0,1-3.68-3.9c-.15-.83-.18-1.69-.26-2.53,0-.26.07-.37.34-.36h3.48c.41,0,.37.28.4.52a18,18,0,0,0,.19,1.8A1.62,1.62,0,0,0,152.86,75a1.26,1.26,0,0,0,1-.8,5.71,5.71,0,0,0,.4-1.55,21.49,21.49,0,0,0-.06-4.81,6.11,6.11,0,0,0-.17-.74,1.61,1.61,0,0,0-1.58-1.37,1.81,1.81,0,0,0-1.79,1,1.88,1.88,0,0,0-.24.59c-.07.38-.26.49-.64.48-.92,0-1.84,0-2.75,0-.32,0-.46-.07-.45-.43.06-2.71.11-5.42.17-8.13,0-1.36.1-2.72.13-4.08,0-.33.11-.44.45-.44H157c.32,0,.42.1.41.42,0,.94,0,1.89,0,2.83,0,.35-.11.44-.44.44h-6c-.58,0-.56,0-.59.59-.07,1.26-.15,2.53-.22,3.79,0,.25,0,.5,0,.87a4.82,4.82,0,0,1,2.32-1c2.32-.4,4.17.31,5.14,2.6a9.13,9.13,0,0,1,.44,1.34A14.56,14.56,0,0,1,158.35,71.28Zm56.76,79.42c0,.47-.07.53-.54.54H163.31c-.7,0-.7,0-.7-.73v-2.3c0-.55,0-.55.54-.55h51.3c.66,0,.66,0,.66.65Zm-.46-5.83H163.39c-.78,0-.78,0-.78-.76s0-1.52,0-2.27c0-.39.13-.51.51-.51h51.35c.65,0,.65,0,.65.66s0,1.59,0,2.38C215.12,144.73,215,144.9,214.65,144.87Z"/><path class="cls-2" d="M164.9,54.34h1.32v7.19h2.17v1.2H164.9Z"/><path class="cls-2" d="M170.29,57.88h1.81v1.19h-1.81v2.46h2.28v1.2H169V54.34h3.6v1.2h-2.28Z"/><path class="cls-2" d="M177.33,56.27v.3a1.65,1.65,0,0,1-.85,1.69,1.7,1.7,0,0,1,1,1.8v.68a1.78,1.78,0,0,1-2,2h-2.07V54.34h2C176.74,54.34,177.33,55,177.33,56.27Zm-2.63-.73v2.22h.52c.49,0,.79-.22.79-.89V56.4c0-.6-.2-.86-.67-.86Zm0,3.41v2.58h.76c.44,0,.68-.2.68-.82V60c0-.78-.25-1-.85-1Z"/><path class="cls-2" d="M179.58,57.88h1.81v1.19h-1.81v2.46h2.28v1.2h-3.6V54.34h3.6v1.2h-2.28Z"/><path class="cls-2" d="M183.85,56.65v6.08h-1.19V54.34h1.66l1.35,5v-5h1.18v8.39h-1.36Z"/><path class="cls-2" d="M189.66,54.34H191v8.39h-1.32Z"/><path class="cls-2" d="M193.11,56.65v6.08h-1.18V54.34h1.65l1.36,5v-5h1.17v8.39h-1.35Z"/><path class="cls-2" d="M164.52,67.14h4.08v1.2h-1.38v7.19H165.9V68.34h-1.38Z"/><path class="cls-2" d="M170.49,70.68h1.81v1.19h-1.81v2.46h2.28v1.2h-3.6V67.14h3.6v1.2h-2.28Z"/><path class="cls-2" d="M176.35,75.53a2.38,2.38,0,0,1-.12-1V73.18c0-.78-.27-1.07-.87-1.07h-.45v3.42h-1.32V67.14h2c1.37,0,1.95.63,1.95,1.93v.66a1.67,1.67,0,0,1-.86,1.7c.66.28.88.91.88,1.79v1.29a2.5,2.5,0,0,0,.14,1Zm-1.44-7.19v2.58h.51c.5,0,.8-.22.8-.89V69.2c0-.6-.21-.86-.68-.86Z"/><path class="cls-2" d="M181.17,75.53a2.57,2.57,0,0,1-.12-1V73.18c0-.78-.26-1.07-.86-1.07h-.46v3.42h-1.32V67.14h2c1.37,0,2,.63,2,1.93v.66a1.69,1.69,0,0,1-.86,1.7c.65.28.87.91.87,1.79v1.29a2.5,2.5,0,0,0,.14,1Zm-1.44-7.19v2.58h.52c.49,0,.79-.22.79-.89V69.2c0-.6-.2-.86-.67-.86Z"/><path class="cls-2" d="M184.56,70.68h1.81v1.19h-1.81v2.46h2.28v1.2h-3.6V67.14h3.6v1.2h-2.28Z"/><path class="cls-2" d="M189.43,67c1.28,0,1.94.77,1.94,2.11v.27h-1.25v-.35c0-.6-.24-.83-.66-.83s-.66.23-.66.83c0,1.73,2.58,2.05,2.58,4.45,0,1.34-.67,2.11-2,2.11s-2-.77-2-2.11V73h1.25v.6c0,.6.26.82.68.82s.68-.22.68-.82c0-1.73-2.58-2-2.58-4.45C187.48,67.81,188.14,67,189.43,67Z"/><path class="cls-2" d="M191.76,67.14h4.08v1.2h-1.38v7.19h-1.32V68.34h-1.38Z"/><path class="cls-2" d="M199.17,75.53a2.57,2.57,0,0,1-.12-1V73.18c0-.78-.26-1.07-.86-1.07h-.46v3.42h-1.32V67.14h2c1.37,0,2,.63,2,1.93v.66a1.69,1.69,0,0,1-.86,1.7c.65.28.87.91.87,1.79v1.29a2.5,2.5,0,0,0,.14,1Zm-1.44-7.19v2.58h.52c.49,0,.79-.22.79-.89V69.2c0-.6-.2-.86-.67-.86Z"/><path class="cls-2" d="M201.24,67.14h1.32v8.39h-1.32Z"/><path class="cls-2" d="M205.29,67c1.29,0,1.94.77,1.94,2.11v.27H206v-.35c0-.6-.24-.83-.66-.83s-.66.23-.66.83c0,1.73,2.58,2.05,2.58,4.45,0,1.34-.67,2.11-2,2.11s-2-.77-2-2.11V73h1.25v.6c0,.6.26.82.68.82s.69-.22.69-.82c0-1.73-2.58-2-2.58-4.45C203.35,67.81,204,67,205.29,67Z"/><path class="cls-2" d="M211.83,72.4v1.12c0,1.34-.67,2.11-2,2.11s-2-.77-2-2.11V69.15c0-1.34.67-2.11,2-2.11s2,.77,2,2.11V70h-1.25v-.9c0-.6-.26-.83-.68-.83s-.68.23-.68.83V73.6c0,.6.26.82.68.82s.68-.22.68-.82V72.4Z"/><path class="cls-2" d="M214,75.53h-1.32V67.14H214v3.6h1.5v-3.6h1.34v8.39h-1.34V71.94H214Z"/><path class="cls-2" d="M219.08,70.68h1.81v1.19h-1.81v2.46h2.28v1.2h-3.6V67.14h3.6v1.2h-2.28Z"/><path class="cls-2" d="M223.35,69.45v6.08h-1.18V67.14h1.65l1.36,5v-5h1.17v8.39H225Z"/><path class="cls-2" d="M164.79,82a2,2,0,1,1,4,0v4.37a2,2,0,1,1-4,0Zm1.67-3.61v1.15h-1.15V78.34Zm-.35,8.06c0,.6.27.83.69.83s.68-.23.68-.83V81.87c0-.6-.26-.83-.68-.83s-.69.23-.69.83Zm2.17-8.06v1.15h-1.15V78.34Z"/><path class="cls-2" d="M171.38,85l-.41.76v2.58h-1.32V79.94H171V83.6l1.73-3.66H174l-1.84,3.74L174,88.33h-1.36Z"/><path class="cls-2" d="M174.43,82a2,2,0,1,1,4,0v4.37a2,2,0,1,1-4,0Zm1.32,4.45c0,.6.26.83.68.83s.69-.23.69-.83V81.87c0-.6-.27-.83-.69-.83s-.68.23-.68.83Z"/><path class="cls-2" d="M181.06,79.84c1.29,0,1.95.77,1.95,2.11v.27h-1.25v-.35c0-.6-.24-.83-.66-.83s-.66.23-.66.83c0,1.73,2.58,2,2.58,4.45,0,1.34-.67,2.11-2,2.11a1.84,1.84,0,0,1-2-2.11V85.8h1.25v.6c0,.6.27.82.69.82s.68-.22.68-.82c0-1.73-2.58-2.05-2.58-4.45C179.12,80.61,179.78,79.84,181.06,79.84Z"/><path class="cls-2" d="M184.93,85.55l-1.67-5.61h1.38l1,3.82,1-3.82h1.25l-1.66,5.61v2.78h-1.32Z"/><path class="cls-2" d="M190.14,79.84c1.28,0,1.94.77,1.94,2.11v.27h-1.25v-.35c0-.6-.24-.83-.66-.83s-.66.23-.66.83c0,1.73,2.58,2,2.58,4.45,0,1.34-.67,2.11-2,2.11s-2-.77-2-2.11V85.8h1.24v.6c0,.6.27.82.69.82s.68-.22.68-.82c0-1.73-2.58-2.05-2.58-4.45C188.19,80.61,188.85,79.84,190.14,79.84Z"/><path class="cls-2" d="M192.47,79.94h4.07v1.2h-1.38v7.19h-1.31V81.14h-1.38Z"/><path class="cls-2" d="M198.44,83.48h1.81v1.19h-1.81v2.46h2.28v1.2h-3.6V79.94h3.6v1.2h-2.28Z"/><path class="cls-2" d="M204.33,85.9l.9-6h1.84v8.39h-1.25v-6l-.91,6h-1.25l-1-5.93v5.93h-1.16V79.94h1.84Z"/><path class="cls-2" d="M209.35,83.48h1.81v1.19h-1.81v2.46h2.28v1.2H208V79.94h3.6v1.2h-2.28Z"/><path class="cls-2" d="M213.62,82.25v6.08h-1.19V79.94h1.66l1.35,5v-5h1.18v8.39h-1.36Z"/></g></g></svg>