<svg xmlns="http://www.w3.org/2000/svg" viewBox="0 0 124.49 124.49"><defs><style>.cls-1{fill:#fdc84e;}.cls-2{fill:#feecc3;}.cls-3{fill:#fdda88;}.cls-4{fill:#feb800;}.cls-5{fill:#fefefe;}.cls-6{fill:#fcb613;}.cls-7{fill:#fff;}</style></defs><g id="Capa_2" data-name="Capa 2"><g id="Capa_1-2" data-name="Capa 1"><path class="cls-1" d="M.1,0h124c.33,0,.39.07.39.39q0,62,0,124a.17.17,0,0,1-.15,0,.68.68,0,0,1-.11-.42c0-.27,0-.54,0-.81V1.39c0-1.2.07-1.12-1.12-1.12H1.2A2,2,0,0,1,.14.16.12.12,0,0,1,.1,0Z"/><path class="cls-2" d="M.1,0V.1A.55.55,0,0,1,.28.54V123.36a2.43,2.43,0,0,1-.08,1,1.13,1.13,0,0,1-.1.13s-.08,0-.08,0v-.33Q0,62.25,0,.37C0,.25-.07.1.1,0Z"/><path class="cls-3" d="M.1,124.49v-.1a.54.54,0,0,1,.4-.16H123.35c.35,0,.73-.12,1,.16l.09,0s0,.08,0,.08H.1Z"/><path class="cls-4" d="M124.39,124.39H.11c0-.17,0-.35,0-.52V.62C.1.45.11.27.11.1h123.6a2.62,2.62,0,0,0,.28,0c.32,0,.45.09.41.41,0,.1,0,.21,0,.32v123C124.4,124,124.39,124.19,124.39,124.39Z"/><path class="cls-5" d="M62.32,68.05A15.66,15.66,0,1,1,46.66,83.71,15.68,15.68,0,0,1,62.32,68.05Z"/><path class="cls-5" d="M15.57,10.69h5.06c.32,0,.4.1.4.41,0,.78,0,1.56,0,2.35a8.66,8.66,0,0,1-.35,1.74L19.05,21.9c-1,4.1-2,8.19-3,12.29-.06.23-.14.31-.38.31H11.9c-.29,0-.3-.09-.24-.33q.84-3.37,1.66-6.75,1.48-6.08,3-12.14a6.73,6.73,0,0,1,.21-.77c.09-.29,0-.35-.28-.35-1.88,0-3.76,0-5.63,0-.4,0-.5-.1-.49-.49,0-.85,0-1.71,0-2.55,0-.39.12-.47.48-.46C12.25,10.7,13.91,10.69,15.57,10.69Z"/><path class="cls-5" d="M76.55,106a1.36,1.36,0,0,1-.88,1.32,1.27,1.27,0,0,1-1.53-.59q-1.67-2.86-3.31-5.75a1.33,1.33,0,0,1,.43-1.81,1.31,1.31,0,0,1,1.81.52c1.13,1.95,2.24,3.9,3.36,5.85A.86.86,0,0,1,76.55,106Z"/><path class="cls-5" d="M85,84.88c-1.11,0-2.21,0-3.32,0a1.32,1.32,0,0,1-1.35-1.31,1.3,1.3,0,0,1,1.35-1.27h6.59a1.31,1.31,0,0,1,1.35,1.26,1.33,1.33,0,0,1-1.35,1.32C87.13,84.89,86,84.88,85,84.88Z"/><path class="cls-5" d="M39.73,84.88c-1.11,0-2.21,0-3.32,0a1.31,1.31,0,0,1-1.33-1.29A1.29,1.29,0,0,1,36.4,82.3h6.67a1.26,1.26,0,0,1,1.28,1.28A1.29,1.29,0,0,1,43,84.88C41.94,84.89,40.83,84.88,39.73,84.88Z"/><path class="cls-5" d="M49.5,107.4a1.3,1.3,0,0,1-1.22-1.86c.45-.86.95-1.69,1.43-2.53.64-1.12,1.28-2.25,1.94-3.36a1.31,1.31,0,0,1,1.79-.46,1.33,1.33,0,0,1,.43,1.75c-1.1,1.94-2.22,3.88-3.33,5.82A1.2,1.2,0,0,1,49.5,107.4Z"/><path class="cls-5" d="M52.72,68.18a1.3,1.3,0,0,1-1.11-.63c-1.1-1.93-2.22-3.85-3.32-5.78A1.31,1.31,0,0,1,48.77,60a1.28,1.28,0,0,1,1.77.55l3.3,5.74a1.28,1.28,0,0,1-.06,1.38A1.22,1.22,0,0,1,52.72,68.18Z"/><path class="cls-5" d="M38.54,96.43a1.24,1.24,0,0,1,.66-1l5.71-3.28a1.3,1.3,0,1,1,1.27,2.25q-2.86,1.67-5.75,3.3A1.3,1.3,0,0,1,38.54,96.43Z"/><path class="cls-5" d="M63.61,61c0,1.11,0,2.21,0,3.32a1.28,1.28,0,0,1-1.27,1.34,1.26,1.26,0,0,1-1.3-1.3q0-3.33,0-6.64a1.28,1.28,0,0,1,1.29-1.33,1.3,1.3,0,0,1,1.28,1.37C63.62,58.79,63.61,59.87,63.61,61Z"/><path class="cls-5" d="M39.85,69.41a1.22,1.22,0,0,1,.69.22l5.71,3.28a1.3,1.3,0,0,1,.49,1.75,1.32,1.32,0,0,1-1.73.5c-2-1.12-3.93-2.24-5.89-3.38a1.25,1.25,0,0,1-.56-1.47A1.33,1.33,0,0,1,39.85,69.41Z"/><path class="cls-5" d="M63.61,106.23c0,1.08,0,2.16,0,3.24a1.28,1.28,0,0,1-1.25,1.35A1.25,1.25,0,0,1,61,109.5q0-3.3,0-6.6a1.26,1.26,0,0,1,1.31-1.34,1.28,1.28,0,0,1,1.26,1.35C63.62,104,63.61,105.12,63.61,106.23Z"/><path class="cls-5" d="M71.87,68.14a1.27,1.27,0,0,1-1.12-1.87c1.1-2,2.23-3.93,3.37-5.89a1.26,1.26,0,0,1,1.69-.46,1.27,1.27,0,0,1,.54,1.73c-1.1,2-2.22,3.91-3.34,5.86A1.2,1.2,0,0,1,71.87,68.14Z"/><path class="cls-5" d="M86.12,96.5a1.26,1.26,0,0,1-1.87,1.11q-2.91-1.64-5.79-3.3a1.29,1.29,0,1,1,1.28-2.24l5.75,3.29A1.18,1.18,0,0,1,86.12,96.5Z"/><path class="cls-5" d="M86.1,70.63a1.22,1.22,0,0,1-.64,1.13c-1.94,1.12-3.88,2.24-5.82,3.34a1.28,1.28,0,0,1-1.3-2.21c1.36-.8,2.73-1.58,4.09-2.36.59-.34,1.16-.69,1.76-1A1.29,1.29,0,0,1,86.1,70.63Z"/><path class="cls-6" d="M64.73,75.85A6.5,6.5,0,0,1,67.06,77a8,8,0,0,1,3.4,6.78,8.14,8.14,0,1,1-11.89-7.38,8.53,8.53,0,0,1,1.07-.48c.16-.06.25,0,.25.17,0,.86,0,1.73,0,2.59,0,.22-.15.26-.29.35a5.33,5.33,0,1,0,7.56,2.35,4.75,4.75,0,0,0-2.07-2.31.64.64,0,0,1-.37-.67C64.74,77.56,64.73,76.72,64.73,75.85Z"/><path class="cls-6" d="M63.47,76.92v2.55a1.15,1.15,0,0,1-1.16,1.23,1.17,1.17,0,0,1-1.14-1.25q0-2.51,0-5a1.16,1.16,0,1,1,2.3,0Z"/><path class="cls-7" d="M31.7,13.33h1.81v1.2H31.7V17H34v1.2h-3.6V9.79H34V11H31.7Z"/><path class="cls-7" d="M37.55,18.18a2.57,2.57,0,0,1-.12-1V15.83c0-.78-.26-1.06-.86-1.06h-.46v3.41H34.79V9.79h2c1.37,0,2,.63,2,1.93v.66a1.68,1.68,0,0,1-.86,1.7c.65.28.87.91.87,1.79v1.29a2.5,2.5,0,0,0,.14,1ZM36.11,11v2.58h.52c.49,0,.79-.22.79-.89v-.83c0-.6-.2-.86-.67-.86Z"/><path class="cls-7" d="M41.39,9.69c1.29,0,1.94.77,1.94,2.11v.27H42.09v-.35c0-.6-.24-.83-.66-.83s-.66.23-.66.83c0,1.73,2.58,2,2.58,4.45,0,1.34-.67,2.11-2,2.11s-2-.77-2-2.11v-.52h1.25v.6c0,.6.26.82.68.82s.69-.22.69-.82c0-1.72-2.58-2.05-2.58-4.45C39.45,10.46,40.11,9.69,41.39,9.69Z"/><path class="cls-7" d="M47.93,15.05v1.12c0,1.34-.67,2.11-2,2.11s-2-.77-2-2.11V11.8c0-1.34.67-2.11,2-2.11s2,.77,2,2.11v.82H46.68v-.9c0-.6-.26-.83-.68-.83s-.68.23-.68.83v4.53c0,.6.26.82.68.82s.68-.22.68-.82v-1.2Z"/><path class="cls-7" d="M50.06,18.18H48.74V9.79h1.32v3.6h1.5V9.79H52.9v8.39H51.56V14.59h-1.5Z"/><path class="cls-7" d="M56.79,13.71l-.48,4.47H54.5l-.94-8.39h1.28l.71,6.62.64-6.62h1.27l.66,6.67.68-6.67H60L59,18.18H57.27Z"/><path class="cls-7" d="M60.62,9.79h1.32v8.39H60.62Z"/><path class="cls-7" d="M64.07,12.1v6.08H62.89V9.79h1.65l1.36,5v-5h1.17v8.39H65.72Z"/><path class="cls-7" d="M70,13.51h1.85v2.66c0,1.34-.67,2.11-2,2.11s-2-.77-2-2.11V11.8c0-1.34.67-2.11,2-2.11s2,.77,2,2.11v.82H70.6v-.9c0-.6-.26-.83-.68-.83s-.69.23-.69.83v4.53c0,.6.27.82.69.82s.68-.22.68-.82V14.71H70Z"/><path class="cls-7" d="M72.7,9.79H74V17h2.17v1.2H72.7Z"/><path class="cls-7" d="M76.77,9.79h1.32v8.39H76.77Z"/><path class="cls-7" d="M82.88,15.05v1.12a1.84,1.84,0,0,1-2,2.11c-1.3,0-2-.77-2-2.11V11.8c0-1.34.67-2.11,2-2.11a1.84,1.84,0,0,1,2,2.11v.82H81.63v-.9c0-.6-.27-.83-.69-.83s-.68.23-.68.83v4.53c0,.6.27.82.68.82s.69-.22.69-.82v-1.2Z"/><path class="cls-7" d="M85,18.18H83.68V9.79H85v3.6h1.5V9.79h1.34v8.39H86.5V14.59H85Z"/><path class="cls-7" d="M90.12,13.33h1.82v1.2H90.12V17H92.4v1.2H88.81V9.79H92.4V11H90.12Z"/><path class="cls-7" d="M96.34,9.79v6.47c0,.6.27.82.69.82s.68-.22.68-.82V9.79H99v6.39a1.84,1.84,0,0,1-2,2.11c-1.3,0-2-.77-2-2.11V9.79Z"/><path class="cls-7" d="M101,12.1v6.08H99.85V9.79h1.65l1.36,5v-5H104v8.39h-1.35Z"/><path class="cls-7" d="M105,9.79h2.09c1.32,0,2,.73,2,2.07v4.25c0,1.34-.65,2.07-2,2.07H105ZM106.3,11v6h.75c.41,0,.67-.21.67-.81V11.8c0-.6-.26-.81-.67-.81Z"/><path class="cls-7" d="M31.64,22.59v6.47c0,.6.26.82.68.82s.68-.22.68-.82V22.59h1.25V29c0,1.34-.67,2.11-2,2.11s-2-.77-2-2.11V22.59Z"/><path class="cls-7" d="M38,28.55l.9-6h1.83V31H39.44V25l-.92,6H37.28l-1-5.93V31H35.14V22.59H37Z"/><path class="cls-7" d="M44.57,26.51,44.09,31H42.28l-.93-8.39h1.28l.71,6.62L44,22.59h1.27l.66,6.67.69-6.67h1.15L46.8,31H45.05Z"/><path class="cls-7" d="M49.72,26.13h1.81v1.2H49.72v2.45H52V31H48.4V22.59H52v1.2H49.72Z"/><path class="cls-7" d="M52.82,22.59h1.32v7.19h2.17V31H52.82Z"/><path class="cls-7" d="M55.9,22.59H60v1.2H58.6V31H57.28V23.79H55.9Z"/><path class="cls-7" d="M61.88,26.32h1.7v1.2h-1.7V31H60.56V22.59h3.49v1.2H61.88Z"/><path class="cls-7" d="M67.44,31a2.57,2.57,0,0,1-.12-1V28.63c0-.78-.26-1.06-.86-1.06H66V31H64.68V22.59h2c1.36,0,1.95.63,1.95,1.93v.66a1.68,1.68,0,0,1-.86,1.7c.66.28.87.91.87,1.79V30a2.34,2.34,0,0,0,.15,1ZM66,23.79v2.58h.52c.49,0,.79-.22.79-.89v-.83c0-.6-.2-.86-.67-.86Z"/><path class="cls-7" d="M70.83,26.13h1.81v1.2H70.83v2.45h2.28V31h-3.6V22.59h3.6v1.2H70.83Z"/><path class="cls-7" d="M75.18,22.59v6.47c0,.6.27.82.69.82s.68-.22.68-.82V22.59H77.8V29c0,1.34-.67,2.11-2,2.11a1.84,1.84,0,0,1-2-2.11V22.59Z"/><path class="cls-7" d="M79.88,24.9V31H78.69V22.59h1.65l1.36,5v-5h1.17V31H81.52Z"/><path class="cls-7" d="M83.82,22.59h2.09c1.32,0,2,.73,2,2.07v4.25c0,1.34-.65,2.07-2,2.07H83.82Zm1.32,1.2v6h.75c.42,0,.67-.21.67-.81V24.6c0-.6-.25-.81-.67-.81Z"/><path class="cls-7" d="M88.72,22.59H90v7.19h2.17V31H88.72Z"/><path class="cls-7" d="M92.79,22.59h1.32V31H92.79Z"/><path class="cls-7" d="M98.9,27.85V29a1.84,1.84,0,0,1-2,2.11c-1.3,0-2-.77-2-2.11V24.6c0-1.34.67-2.11,2-2.11a1.84,1.84,0,0,1,2,2.11v.82H97.65v-.9c0-.6-.27-.83-.69-.83s-.68.23-.68.83v4.53c0,.6.26.82.68.82s.69-.22.69-.82v-1.2Z"/><path class="cls-7" d="M101,31H99.7V22.59H101v3.6h1.5v-3.6h1.34V31h-1.34V27.39H101Z"/><path class="cls-7" d="M106.14,26.13H108v1.2h-1.82v2.45h2.28V31h-3.6V22.59h3.6v1.2h-2.28Z"/><path class="cls-7" d="M31.7,38.93h1.81v1.2H31.7v2.45H34v1.2h-3.6V35.39H34v1.2H31.7Z"/><path class="cls-7" d="M36,37.7v6.08H34.78V35.39h1.66l1.35,5v-5H39v8.39H37.61Z"/><path class="cls-7" d="M41.24,38.93h1.81v1.2H41.24v2.45h2.28v1.2h-3.6V35.39h3.6v1.2H41.24Z"/><path class="cls-7" d="M47.09,43.78a2.57,2.57,0,0,1-.12-1V41.43c0-.78-.26-1.06-.86-1.06h-.46v3.41H44.33V35.39h2c1.37,0,2,.63,2,1.93V38a1.68,1.68,0,0,1-.86,1.7c.65.28.87.91.87,1.79v1.29a2.5,2.5,0,0,0,.14,1Zm-1.44-7.19v2.58h.52c.49,0,.79-.22.79-.89v-.83c0-.6-.2-.86-.67-.86Z"/><path class="cls-7" d="M51.14,39.11H53v2.66c0,1.34-.67,2.11-2,2.11s-2-.77-2-2.11V37.4c0-1.34.67-2.11,2-2.11s2,.77,2,2.11v.82H51.74v-.9c0-.6-.27-.83-.69-.83s-.68.23-.68.83v4.53c0,.6.26.82.68.82s.69-.22.69-.82V40.3h-.6Z"/><path class="cls-7" d="M53.84,35.39h1.32v8.39H53.84Z"/><path class="cls-7" d="M57.44,38.93h1.81v1.2H57.44v2.45h2.28v1.2h-3.6V35.39h3.6v1.2H57.44Z"/></g></g></svg>