<svg xmlns="http://www.w3.org/2000/svg" viewBox="0 0 143.9 124.49"><defs><style>.cls-1,.cls-3{fill:#fff;}.cls-2{fill:#00b33e;}.cls-3{font-size:12px;font-family:BebasNeueBold, Bebas Neue;}.cls-4{letter-spacing:-0.01em;}</style></defs><g id="Capa_2" data-name="Capa 2"><g id="Capa_1-2" data-name="Capa 1"><path class="cls-1" d="M57.56,67.88,58,68a8.18,8.18,0,0,1,6.13,7.13,8.36,8.36,0,0,1-6.75,9.35,11.13,11.13,0,0,1-1.73.16H49.28c-1.82,0-3.65,0-5.47-.1a6,6,0,0,1-4.09-9.76c.07-.09.14-.17.2-.26s0,0,0,0A15.89,15.89,0,0,1,38.32,73a5.57,5.57,0,0,1,3.53-8.9,6.19,6.19,0,0,1,1-.06c.25,0,.36-.08.39-.34a7.57,7.57,0,0,1,15-.35,7.39,7.39,0,0,1-.45,4Z"/><path class="cls-1" d="M61.59,104.84H87.18c.66,0,.66,0,.66.64v2.39c0,.48-.06.54-.54.54H36.05c-.71,0-.71,0-.71-.72v-2.31c0-.54,0-.54.54-.54H61.59Z"/><path class="cls-1" d="M61.6,98.52H87.19c.65,0,.65,0,.65.65s0,1.6,0,2.39c0,.34-.11.52-.47.49H36.12c-.78,0-.78,0-.78-.76s0-1.52,0-2.27c0-.4.13-.51.51-.51H61.6Z"/><path class="cls-1" d="M22.9,20.85a4.86,4.86,0,0,1,2.32-1c2.32-.4,4.17.31,5.14,2.6a8.08,8.08,0,0,1,.44,1.34,14.56,14.56,0,0,1,.28,4.7,24.14,24.14,0,0,1-.44,3.07A4.89,4.89,0,0,1,26,35.37a10.82,10.82,0,0,1-3-.14,4.41,4.41,0,0,1-3.68-3.9c-.14-.84-.17-1.69-.26-2.53,0-.26.08-.37.34-.37,1.16,0,2.32,0,3.49,0,.4,0,.36.28.39.53a18,18,0,0,0,.19,1.8,1.62,1.62,0,0,0,2.12,1.42,1.28,1.28,0,0,0,1-.8A6.05,6.05,0,0,0,27,29.82a21.41,21.41,0,0,0-.06-4.8,5.06,5.06,0,0,0-.17-.75,1.62,1.62,0,0,0-1.58-1.37,1.82,1.82,0,0,0-1.79,1,1.79,1.79,0,0,0-.24.59c-.07.38-.26.49-.64.48-.92,0-1.84,0-2.75,0-.32,0-.46-.07-.45-.43.06-2.71.11-5.42.17-8.13,0-1.36.1-2.72.13-4.08,0-.34.11-.44.45-.44h9.72c.32,0,.42.1.41.42,0,.94,0,1.89,0,2.83,0,.34-.11.44-.44.44h-6c-.58,0-.56,0-.59.59-.06,1.26-.15,2.52-.21,3.79C22.89,20.23,22.9,20.48,22.9,20.85Z"/><path class="cls-1" d="M12.05,16.42,8.73,17.61a2.86,2.86,0,0,1,0-.37c0-.81,0-1.61,0-2.42A.45.45,0,0,1,9,14.33,15.09,15.09,0,0,0,12.89,12a.7.7,0,0,1,.41-.11c.91,0,1.81,0,2.71,0,.31,0,.39.11.39.4q0,11.16,0,22.31c0,.32-.12.41-.43.4H12.74c-.66,0-.66,0-.66-.65V17.06C12.08,16.87,12.06,16.69,12.05,16.42Z"/><path class="cls-1" d="M69,78.57a.68.68,0,0,1,.14-.32,5.85,5.85,0,0,1,4.18-1.74,6.83,6.83,0,0,1,4,1.38.69.69,0,0,0,1,0,6.85,6.85,0,0,1,3.91-1.38,6.36,6.36,0,0,1,4.28,1.8.56.56,0,0,1,0,.78c-.2.26-.44.16-.68,0A4.48,4.48,0,0,0,83,78.64a8.13,8.13,0,0,0-4.79,2.23c-.36.33-.59.31-1,0a8.08,8.08,0,0,0-4.08-2.09,4.9,4.9,0,0,0-3.56.43C69.19,79.39,69,79.18,69,78.57Z"/><path class="cls-1" d="M53.09,91c0,1.2,0,2.4,0,3.6,0,.35-.12.48-.47.48-.87,0-1.73,0-2.59,0-.33,0-.46-.1-.46-.44,0-2.44,0-4.89,0-7.33,0-.34.13-.44.46-.44.86,0,1.72,0,2.59,0,.35,0,.47.13.47.48C53.08,88.55,53.09,89.76,53.09,91Z"/><path class="cls-1" d="M67.32,63.41a6,6,0,0,1,3.06.94.56.56,0,0,0,.77-.06A5.59,5.59,0,0,1,74.84,63a5,5,0,0,1,3,1.23A.54.54,0,0,1,78,65c-.19.29-.43.19-.7.06a4,4,0,0,0-2.54-.14,6.47,6.47,0,0,0-3.3,1.84c-.51.5-.61.5-1.15.08a6.52,6.52,0,0,0-3.79-1.45,3.79,3.79,0,0,0-2.32.52.6.6,0,0,1-.57,0,.52.52,0,0,1,0-.76,4.84,4.84,0,0,1,2.6-1.54A9,9,0,0,1,67.32,63.41Z"/><path class="cls-1" d="M76.44,57a3.89,3.89,0,0,1,3,1.42,1,1,0,0,0,1.23.34,3.88,3.88,0,0,1,4.49,1.72,1,1,0,0,1,.16.56.39.39,0,0,1-.67.29c-1.37-1.21-2.9-1.08-4.48-.54a2.52,2.52,0,0,0-.29.12c-.53.23-.66.2-1-.28a4.66,4.66,0,0,0-2.77-2.17,3.86,3.86,0,0,0-1.27-.1c-.26,0-.5,0-.6-.23a.49.49,0,0,1,.29-.67c.6-.21,1.22-.38,1.83-.57Z"/><path class="cls-2" d="M0,0V124.49H124.49V0ZM74.84,63a5,5,0,0,1,3,1.23A.54.54,0,0,1,78,65c-.19.29-.43.19-.7.06a4,4,0,0,0-2.54-.14,6.47,6.47,0,0,0-3.3,1.84c-.51.5-.61.5-1.15.08a6.52,6.52,0,0,0-3.79-1.45,3.79,3.79,0,0,0-2.32.52.6.6,0,0,1-.57,0,.52.52,0,0,1,0-.76,4.84,4.84,0,0,1,2.6-1.54,9,9,0,0,1,1-.13,6,6,0,0,1,3.06.94.56.56,0,0,0,.77-.06A5.59,5.59,0,0,1,74.84,63Zm-.27-5.55c.6-.21,1.22-.38,1.83-.57l0,.11a3.89,3.89,0,0,1,3,1.42,1,1,0,0,0,1.23.34,3.88,3.88,0,0,1,4.49,1.72,1,1,0,0,1,.16.56.39.39,0,0,1-.67.29c-1.37-1.21-2.9-1.08-4.48-.54-.1,0-.2.08-.3.12-.52.23-.65.2-1-.28a4.66,4.66,0,0,0-2.77-2.17,3.86,3.86,0,0,0-1.27-.1c-.26,0-.5,0-.6-.23A.49.49,0,0,1,74.57,57.42ZM69.1,78.25a5.85,5.85,0,0,1,4.18-1.74,6.83,6.83,0,0,1,4,1.38.69.69,0,0,0,1,0,6.85,6.85,0,0,1,3.91-1.38,6.36,6.36,0,0,1,4.28,1.8.56.56,0,0,1,0,.78c-.2.26-.44.16-.68,0A4.48,4.48,0,0,0,83,78.64a8.13,8.13,0,0,0-4.79,2.23c-.36.33-.59.31-1,0a8.08,8.08,0,0,0-4.08-2.09,4.9,4.9,0,0,0-3.56.43c-.37.22-.61,0-.6-.6A.68.68,0,0,1,69.1,78.25ZM41.85,64.08a6.19,6.19,0,0,1,1-.06c.25,0,.36-.08.39-.34a7.57,7.57,0,0,1,15-.35,7.39,7.39,0,0,1-.45,4l-.2.5L58,68a8.18,8.18,0,0,1,6.13,7.13,8.36,8.36,0,0,1-6.75,9.35,11.13,11.13,0,0,1-1.73.16H49.28c-1.82,0-3.65,0-5.47-.1a6,6,0,0,1-4.09-9.76c.07-.09.14-.17.2-.26s0,0,0,0A15.89,15.89,0,0,1,38.32,73,5.57,5.57,0,0,1,41.85,64.08Zm7.73,23.21c0-.34.13-.44.46-.44.86,0,1.72,0,2.59,0,.35,0,.47.13.47.48,0,1.22,0,2.43,0,3.65s0,2.4,0,3.6c0,.35-.12.48-.47.48-.87,0-1.73,0-2.59,0-.33,0-.46-.1-.46-.44C49.59,92.18,49.59,89.73,49.58,87.29ZM16,35H12.74c-.66,0-.66,0-.66-.65V17.06c0-.19,0-.37,0-.64L8.73,17.61a2.86,2.86,0,0,1,0-.37c0-.81,0-1.61,0-2.42A.45.45,0,0,1,9,14.33,15.09,15.09,0,0,0,12.89,12a.7.7,0,0,1,.41-.11c.91,0,1.81,0,2.71,0,.31,0,.39.11.39.4q0,11.16,0,22.31C16.41,35,16.29,35,16,35Zm15.1-6.57a24.14,24.14,0,0,1-.44,3.07A4.89,4.89,0,0,1,26,35.37a10.82,10.82,0,0,1-3-.14,4.41,4.41,0,0,1-3.68-3.9c-.14-.84-.17-1.69-.26-2.53,0-.26.08-.37.34-.37,1.16,0,2.32,0,3.49,0,.4,0,.36.28.39.53a18,18,0,0,0,.19,1.8,1.62,1.62,0,0,0,2.12,1.42,1.28,1.28,0,0,0,1-.8A6.05,6.05,0,0,0,27,29.82a21.41,21.41,0,0,0-.06-4.8,5.06,5.06,0,0,0-.17-.75,1.62,1.62,0,0,0-1.58-1.37,1.82,1.82,0,0,0-1.79,1,1.79,1.79,0,0,0-.24.59c-.07.38-.26.49-.64.48-.92,0-1.84,0-2.75,0-.32,0-.46-.07-.45-.43.06-2.71.11-5.42.17-8.13,0-1.36.1-2.72.13-4.08,0-.34.11-.44.45-.44h9.72c.32,0,.42.1.41.42,0,.94,0,1.89,0,2.83,0,.34-.11.44-.44.44h-6c-.58,0-.56,0-.59.59-.06,1.26-.15,2.52-.21,3.79,0,.25,0,.5,0,.87a4.86,4.86,0,0,1,2.32-1c2.32-.4,4.17.31,5.14,2.6a8.08,8.08,0,0,1,.44,1.34A14.56,14.56,0,0,1,31.08,28.46Zm56.76,79.41c0,.48-.06.54-.54.54H36.05c-.71,0-.71,0-.71-.72v-2.31c0-.54,0-.54.54-.54h51.3c.66,0,.66,0,.66.64Zm-.46-5.82H36.12c-.78,0-.78,0-.78-.76s0-1.52,0-2.27c0-.4.13-.51.51-.51H87.19c.65,0,.65,0,.65.65s0,1.6,0,2.39C87.85,101.9,87.74,102.08,87.38,102.05Z"/><text class="cls-3" transform="translate(37.62 18.02)">Leben in <tspan x="0" y="12.8">terrestrischen </tspan><tspan x="0" y="25.6">Ö</tspan><tspan class="cls-4" x="4.75" y="25.6">k</tspan><tspan x="9.64" y="25.6">o</tspan><tspan class="cls-4" x="14.39" y="25.6">sy</tspan><tspan x="23.46" y="25.6">stemen </tspan></text></g></g></svg>