<svg xmlns="http://www.w3.org/2000/svg" viewBox="0 0 124.49 124.49"><defs><style>.cls-1{fill:#00336a;}.cls-2{fill:#fff;}</style></defs><g id="Capa_2" data-name="Capa 2"><g id="Capa_1-2" data-name="Capa 1"><path class="cls-1" d="M124.49,124.49H0V0H124.49Z"/><path class="cls-2" d="M88,81.29a13,13,0,0,1-4.73,9.81.61.61,0,0,0-.22.72,13.13,13.13,0,0,1-10.81,16.12,12.82,12.82,0,0,1-8.87-1.86.53.53,0,0,0-.68,0,13.12,13.12,0,0,1-20-8.74A12.85,12.85,0,0,1,43,91.73a.46.46,0,0,0-.17-.55A12.91,12.91,0,0,1,38,80,13.11,13.11,0,0,1,48.45,68.21,12.47,12.47,0,0,1,50.17,68a.6.6,0,0,0,.61-.45,13,13,0,0,1,6.12-6.85,13.11,13.11,0,0,1,18.2,6.63A.93.93,0,0,0,76,68a13.14,13.14,0,0,1,11.41,9.28A14.34,14.34,0,0,1,88,81.29ZM63,75.47a13.29,13.29,0,0,1,9.57-7.35c-.94-3.33-5.4-6.3-9.49-6.32a10.37,10.37,0,0,0-9.66,6.32A13.33,13.33,0,0,1,63,75.47ZM50,70.66c-3.57-.14-7.85,3.5-9,7.57A10.29,10.29,0,0,0,44.1,88.77a13.3,13.3,0,0,1,10-6.78A13.19,13.19,0,0,1,50,70.66Zm10.93,33.42a13.21,13.21,0,0,1-3.47-11.51,13.27,13.27,0,0,1-12,.33,10.43,10.43,0,0,0,15.49,11.18Zm21-15.31a10.44,10.44,0,0,0-2.09-17A9.79,9.79,0,0,0,76,70.63a13.3,13.3,0,0,1-.69,6.15,13.5,13.5,0,0,1-3.39,5.14A13.29,13.29,0,0,1,81.92,88.77Zm-1.36,4.11a12.92,12.92,0,0,1-6,1.29,13.25,13.25,0,0,1-6-1.63,13.24,13.24,0,0,1-3.34,11.51,10.32,10.32,0,0,0,11.66-.87C79.93,100.73,81.79,95.61,80.56,92.88Zm-15-7.2a10.34,10.34,0,0,0,14.16,4.65A10.34,10.34,0,0,0,65.53,85.68ZM63,87.56a10.33,10.33,0,0,0,.11,14.87A10.4,10.4,0,0,0,63,87.56Zm-2.52-1.81a10.33,10.33,0,0,0-14.1,4.61A10.38,10.38,0,0,0,60.43,85.75Zm4.13-3.12c6.08-.8,9.82-6.9,8.74-11.9A10.36,10.36,0,0,0,64.56,82.63Zm-3.09,0a10.53,10.53,0,0,0-8.81-11.94A10.37,10.37,0,0,0,61.47,82.62Z"/><path class="cls-2" d="M19.08,11.89h.43c3.23,0,6.46,0,9.68,0,.41,0,.45.15.49.51a19.34,19.34,0,0,1-.95,6.28c-1.28,5.34-2.58,10.67-3.85,16-.08.34-.21.43-.54.42-1.14,0-2.27,0-3.4,0l-.45,0c.82-3.31,1.63-6.59,2.43-9.87s1.61-6.57,2.44-9.92H19.08Z"/><path class="cls-2" d="M12,16.5,8.61,17.7V16.4c0-.55,0-1.1,0-1.66a.4.4,0,0,1,.27-.42,15.14,15.14,0,0,0,4-2.32.59.59,0,0,1,.37-.1H16c.3,0,.39.09.39.39,0,1.17,0,2.35,0,3.52V34.54c0,.54,0,.54-.55.54-1.13,0-2.27,0-3.4,0-.38,0-.47-.11-.47-.48q0-8.73,0-17.48Z"/><path class="cls-2" d="M42.64,19.42H41.09l-.27-1.78H38.93l-.27,1.78H37.25l1.57-9.8h2.25Zm-3.51-3.11h1.48l-.74-5Z"/><path class="cls-2" d="M43.35,9.62h1.54V18h2.54v1.4H43.35Z"/><path class="cls-2" d="M48.1,9.62h1.54V18h2.54v1.4H48.1Z"/><path class="cls-2" d="M52.85,9.62h1.54v9.8H52.85Z"/><path class="cls-2" d="M60.49,19.42H58.94l-.27-1.78H56.78l-.27,1.78H55.1l1.57-9.8h2.25ZM57,16.31h1.48l-.74-5Z"/><path class="cls-2" d="M62.58,12.32v7.1H61.19V9.62h1.93l1.59,5.86V9.62h1.37v9.8H64.5Z"/><path class="cls-2" d="M71.45,9.62V11l-2.92,7h2.92v1.4H66.94V18.05l2.93-7H67.08V9.62Z"/><path class="cls-2" d="M73.9,13.75H76v1.4H73.9V18h2.66v1.4h-4.2V9.62h4.2V11H73.9Z"/><path class="cls-2" d="M78.89,12.32v7.1H77.5V9.62h1.93L81,15.48V9.62h1.37v9.8H80.81Z"/><path class="cls-2" d="M89.93,9.62V11L87,18h2.92v1.4H85.42V18.05l2.93-7H85.56V9.62Z"/><path class="cls-2" d="M92.31,9.62v7.56c0,.7.31.95.8.95s.8-.25.8-.95V9.62h1.45v7.46c0,1.57-.78,2.47-2.29,2.47s-2.3-.9-2.3-2.47V9.62Z"/><path class="cls-2" d="M99.63,19.42a3.09,3.09,0,0,1-.14-1.2V16.68c0-.92-.3-1.25-1-1.25H98v4H96.41V9.62h2.33c1.59,0,2.28.74,2.28,2.25v.77a2,2,0,0,1-1,2c.77.32,1,1.07,1,2.09v1.51a2.93,2.93,0,0,0,.17,1.19ZM98,11v3h.61c.57,0,.92-.25.92-1V12c0-.7-.24-1-.78-1Z"/><path class="cls-2" d="M39.2,28.55h2.11V30H39.2v2.87h2.66v1.4h-4.2v-9.8h4.2v1.4H39.2Z"/><path class="cls-2" d="M46,34.22a3.09,3.09,0,0,1-.14-1.2V31.48c0-.92-.31-1.25-1-1.25h-.53v4H42.81v-9.8h2.32c1.6,0,2.29.74,2.29,2.25v.77a2,2,0,0,1-1,2c.77.32,1,1.07,1,2.09V33a2.77,2.77,0,0,0,.17,1.19Zm-1.68-8.4v3H45c.57,0,.92-.25.92-1v-1c0-.71-.23-1-.78-1Z"/><path class="cls-2" d="M51.66,34.22a2.9,2.9,0,0,1-.14-1.2V31.48c0-.92-.31-1.25-1-1.25H50v4H48.44v-9.8h2.32c1.6,0,2.28.74,2.28,2.25v.77a2,2,0,0,1-1,2c.78.32,1,1.07,1,2.09V33a2.77,2.77,0,0,0,.17,1.19ZM50,25.82v3h.6c.57,0,.92-.25.92-1v-1c0-.71-.24-1-.78-1Z"/><path class="cls-2" d="M55.6,28.55h2.12V30H55.6v2.87h2.67v1.4H54.06v-9.8h4.21v1.4H55.6Z"/><path class="cls-2" d="M59.22,24.42h1.54v9.8H59.22Z"/><path class="cls-2" d="M66.34,30.56v1.31c0,1.57-.78,2.46-2.29,2.46s-2.3-.89-2.3-2.46v-5.1c0-1.57.78-2.47,2.3-2.47s2.29.9,2.29,2.47v.95H64.89v-1c0-.7-.31-1-.8-1s-.8.27-.8,1V32c0,.7.31,1,.8,1s.8-.25.8-1V30.56Z"/><path class="cls-2" d="M68.82,34.22H67.28v-9.8h1.54v4.2h1.75v-4.2h1.57v9.8H70.57V30H68.82Z"/><path class="cls-2" d="M74.73,24.42V32c0,.7.3.95.8.95s.79-.25.79-.95V24.42h1.46v7.46c0,1.57-.78,2.47-2.3,2.47s-2.29-.9-2.29-2.47V24.42Z"/><path class="cls-2" d="M80.2,27.12v7.1H78.81v-9.8h1.94l1.58,5.86V24.42H83.7v9.8H82.12Z"/><path class="cls-2" d="M87.12,28.76h2.15v3.11c0,1.57-.78,2.46-2.29,2.46s-2.3-.89-2.3-2.46v-5.1c0-1.57.78-2.47,2.3-2.47s2.29.9,2.29,2.47v.95H87.82v-1c0-.7-.31-1-.8-1s-.8.27-.8,1V32c0,.7.31,1,.8,1s.8-.25.8-1V30.16h-.7Z"/><path class="cls-2" d="M37.66,39.22h2.43c1.54,0,2.3.85,2.3,2.42v5c0,1.57-.76,2.42-2.3,2.42H37.66Zm1.54,1.4v7h.86c.49,0,.79-.25.79-.95v-5.1c0-.7-.3-1-.79-1Z"/><path class="cls-2" d="M44.91,43.35H47v1.4H44.91v2.87h2.66V49h-4.2v-9.8h4.2v1.4H44.91Z"/><path class="cls-2" d="M51.74,49a3.05,3.05,0,0,1-.14-1.2V46.28c0-.91-.31-1.25-1-1.25h-.53v4H48.52v-9.8h2.32c1.6,0,2.29.74,2.29,2.25v.77a2,2,0,0,1-1,2c.77.32,1,1.07,1,2.09v1.51A2.93,2.93,0,0,0,53.31,49Zm-1.68-8.4v3h.6c.58,0,.93-.25.93-1v-1c0-.71-.24-1-.79-1Z"/><path class="cls-2" d="M60.59,39.22v1.37l-2.93,7h2.93V49H56.08V47.65l2.93-7H56.22v-1.4Z"/><path class="cls-2" d="M61.5,39.22H63V49H61.5Z"/><path class="cls-2" d="M65.7,43.35h2.11v1.4H65.7v2.87h2.66V49h-4.2v-9.8h4.2v1.4H65.7Z"/><path class="cls-2" d="M69.31,39.22h1.54v8.4h2.54V49H69.31Z"/><path class="cls-2" d="M75.6,43.35h2.11v1.4H75.6v2.87h2.66V49h-4.2v-9.8h4.2v1.4H75.6Z"/></g></g></svg>