<svg xmlns="http://www.w3.org/2000/svg" viewBox="0 0 378.08 212.67"><defs><style>.cls-1{fill:#e58f14;}.cls-2{fill:#fff;}</style></defs><g id="Capa_2" data-name="Capa 2"><g id="Capa_1-2" data-name="Capa 1"><rect class="cls-1" width="378.08" height="212.67"/><path class="cls-2" d="M174.73,136c-.27-.21-.44-.33-.6-.47-.68-.6-1.35-1.21-2-1.82-.38-.36-.31-.62.2-.76l10.74-3,.28-.07c.41-.1.6,0,.55.47-.08.75-.21,1.5-.33,2.24-.49,3-1,6-1.49,9.06a.77.77,0,0,1-.3.54c-.1.05-.38-.12-.53-.25-.7-.61-1.39-1.23-2.07-1.87-.26-.25-.44-.23-.72,0a16.76,16.76,0,0,1-6.56,3c-6.72,1.34-12.71-.05-17.63-5a16.18,16.18,0,0,1-4.65-9.51,25.74,25.74,0,0,1,.63-10.66c1.81-6.24,5.94-10.15,12.16-11.88a18.4,18.4,0,0,1,4.55-.67,19.05,19.05,0,0,1,13.82,5.18,36.94,36.94,0,0,1,6.88,8.81c1.32,2.26,2.49,4.6,3.75,6.9a27.14,27.14,0,0,0,5.7,7.5,18.17,18.17,0,0,0,9.11,4.47,11.44,11.44,0,0,0,10.49-3.16,11.57,11.57,0,0,0,3.09-6.17,19.68,19.68,0,0,0-.38-9.76c-1.32-4.24-4.32-6.71-8.53-7.83a13.28,13.28,0,0,0-5-.46,14.47,14.47,0,0,0-5.21,1.67,20.81,20.81,0,0,0-6.23,5.51c-.38.48-.74,1-1.11,1.45s-.58.41-.83,0c-.8-1.38-1.6-2.75-2.36-4.15a.73.73,0,0,1,0-.66c3-3.78,6.54-6.92,11.29-8.39a17.33,17.33,0,0,1,5.88-.94,19.56,19.56,0,0,1,12.27,4.43,16.49,16.49,0,0,1,5.12,8,23.58,23.58,0,0,1,.92,6.14,23,23,0,0,1-1.25,8.75,16.17,16.17,0,0,1-12.8,10.94A19.34,19.34,0,0,1,200,142c-5.72-2.51-9.74-6.81-12.79-12.11-1.18-2-2.2-4.18-3.35-6.24a40.08,40.08,0,0,0-5.58-7.93,15,15,0,0,0-9.42-4.89,13.25,13.25,0,0,0-5.47.62,11.14,11.14,0,0,0-6.58,4.92,13.89,13.89,0,0,0-1.79,5.42,21.55,21.55,0,0,0-.08,5.2,11.57,11.57,0,0,0,7.72,10.16,13.13,13.13,0,0,0,10.34-.22C173.53,136.68,174.05,136.35,174.73,136Z"/><path class="cls-2" d="M149.39,76.39c.25,0,.42,0,.59,0,1.93,0,3.86,0,5.79,0,.41,0,.54.12.52.53,0,.81,0,1.62,0,2.43,0,.3-.1.4-.4.4-3.64,0-7.29,0-10.93,0-.31,0-.39-.12-.39-.4,0-.72,0-1.44,0-2.15a2,2,0,0,1,.27-.93c2.13-3.33,4.3-6.64,6.43-10a7,7,0,0,0,1.34-3.47,6.3,6.3,0,0,0-.15-1.68A1.43,1.43,0,0,0,151.14,60a1.67,1.67,0,0,0-1.9.91,10.78,10.78,0,0,0-.49,2.11,5,5,0,0,0,0,1.09c0,.23-.06.35-.31.35-1.18,0-2.35,0-3.53,0a.44.44,0,0,1-.3-.26,9.47,9.47,0,0,1,.94-5.1,5.12,5.12,0,0,1,4.23-2.67,8.65,8.65,0,0,1,3.32.23,4.88,4.88,0,0,1,3.67,4,8.82,8.82,0,0,1-1.48,6.78c-1.83,2.8-3.7,5.57-5.55,8.36C149.62,76,149.53,76.16,149.39,76.39Z"/><path class="cls-2" d="M137.62,61.18l-3.28,1.17a2.94,2.94,0,0,1,0-.37c0-.77,0-1.54,0-2.31a.58.58,0,0,1,.41-.64,15.38,15.38,0,0,0,3.75-2.2.65.65,0,0,1,.4-.14h2.72c.27,0,.4.09.38.37a1.92,1.92,0,0,0,0,.24V79.16c0,.62,0,.62-.62.62h-3.08c-.58,0-.58,0-.58-.58V61.75C137.67,61.58,137.64,61.41,137.62,61.18Z"/><path class="cls-2" d="M142,57.05a1.92,1.92,0,0,0,0,.24V79.16c0,.62,0,.62-.62.62h-3.08c-.58,0-.58,0-.58-.58V61.75c0-.17,0-.34,0-.57l-3.28,1.17a2.94,2.94,0,0,1,0-.37c0-.77,0-1.54,0-2.31a.58.58,0,0,1,.41-.64,15.38,15.38,0,0,0,3.75-2.2.65.65,0,0,1,.4-.14h2.72C141.84,56.67,142,56.77,142,57.05Zm2.62,22.33c0-.72,0-1.44,0-2.15a2,2,0,0,1,.27-.93c2.13-3.33,4.3-6.64,6.43-10a7,7,0,0,0,1.34-3.47,6.3,6.3,0,0,0-.15-1.68A1.43,1.43,0,0,0,151.14,60a1.67,1.67,0,0,0-1.9.91,10.78,10.78,0,0,0-.49,2.11,5,5,0,0,0,0,1.09c0,.23-.06.35-.31.35-1.18,0-2.35,0-3.53,0a.44.44,0,0,1-.3-.26,9.47,9.47,0,0,1,.94-5.1,5.12,5.12,0,0,1,4.23-2.67,8.65,8.65,0,0,1,3.32.23,4.88,4.88,0,0,1,3.67,4,8.82,8.82,0,0,1-1.48,6.78c-1.83,2.8-3.7,5.57-5.55,8.36-.1.15-.19.31-.33.54.25,0,.42,0,.59,0,1.93,0,3.86,0,5.79,0,.41,0,.54.12.52.53,0,.81,0,1.62,0,2.43,0,.3-.1.4-.4.4-3.64,0-7.29,0-10.93,0C144.65,79.78,144.57,79.66,144.57,79.38Zm79.81,53.28a16.17,16.17,0,0,1-12.8,10.94A19.34,19.34,0,0,1,200,142c-5.72-2.51-9.74-6.81-12.79-12.11-1.18-2-2.2-4.18-3.35-6.24a40.08,40.08,0,0,0-5.58-7.93,15,15,0,0,0-9.42-4.89,13.25,13.25,0,0,0-5.47.62,11.14,11.14,0,0,0-6.58,4.92,13.89,13.89,0,0,0-1.79,5.42,21.55,21.55,0,0,0-.08,5.2,11.57,11.57,0,0,0,7.72,10.16,13.13,13.13,0,0,0,10.34-.22c.57-.25,1.09-.58,1.77-1-.27-.21-.44-.33-.6-.47-.68-.6-1.35-1.21-2-1.82-.38-.36-.31-.62.2-.76l10.74-3,.28-.07c.41-.1.6,0,.55.47-.08.75-.21,1.5-.33,2.24-.49,3-1,6-1.49,9.06a.77.77,0,0,1-.3.54c-.1.05-.38-.12-.53-.25-.7-.61-1.39-1.23-2.07-1.87-.26-.25-.44-.23-.72,0a16.76,16.76,0,0,1-6.56,3c-6.72,1.34-12.71-.05-17.63-5a16.18,16.18,0,0,1-4.65-9.51,25.74,25.74,0,0,1,.63-10.66c1.81-6.24,5.94-10.15,12.16-11.88a18.4,18.4,0,0,1,4.55-.67,19.05,19.05,0,0,1,13.82,5.18,36.94,36.94,0,0,1,6.88,8.81c1.32,2.26,2.49,4.6,3.75,6.9a27.14,27.14,0,0,0,5.7,7.5,18.17,18.17,0,0,0,9.11,4.47,11.44,11.44,0,0,0,10.49-3.16,11.57,11.57,0,0,0,3.09-6.17,19.68,19.68,0,0,0-.38-9.76c-1.32-4.24-4.32-6.71-8.53-7.83a13.28,13.28,0,0,0-5-.46,14.47,14.47,0,0,0-5.21,1.67,20.81,20.81,0,0,0-6.23,5.51c-.38.48-.74,1-1.11,1.45s-.58.41-.83,0c-.8-1.38-1.6-2.75-2.36-4.15a.73.73,0,0,1,0-.66c3-3.78,6.54-6.92,11.29-8.39a17.33,17.33,0,0,1,5.88-.94,19.56,19.56,0,0,1,12.27,4.43,16.49,16.49,0,0,1,5.12,8,23.58,23.58,0,0,1,.92,6.14A23,23,0,0,1,224.38,132.66Z"/><path class="cls-2" d="M167.43,62.39l.84-5.71h1l-1.08,7h-1.64l-1.08-7h1.11Z"/><path class="cls-2" d="M170.89,59.63h1.51v1h-1.51v2h1.9v1h-3v-7h3v1h-1.9Z"/><path class="cls-2" d="M175.77,63.68a2.15,2.15,0,0,1-.1-.86v-1.1c0-.65-.22-.89-.72-.89h-.38v2.85h-1.1v-7h1.66c1.14,0,1.63.53,1.63,1.61v.55a1.4,1.4,0,0,1-.72,1.42c.55.23.73.76.73,1.49v1.08a2.06,2.06,0,0,0,.12.85Zm-1.2-6v2.15H175c.41,0,.66-.18.66-.74V58.4c0-.5-.17-.72-.56-.72Z"/><path class="cls-2" d="M181.05,63.68h-1.11l-.19-1.27H178.4l-.19,1.27h-1l1.12-7h1.61Zm-2.51-2.22h1.06l-.53-3.54Z"/><path class="cls-2" d="M182.54,58.61v5.07h-1v-7h1.38l1.13,4.19V56.68h1v7h-1.13Z"/><path class="cls-2" d="M185.51,56.68h3.4v1h-1.15v6h-1.1v-6h-1.15Z"/><path class="cls-2" d="M191.83,60l-.4,3.73h-1.51l-.78-7h1.07l.59,5.52.53-5.52h1.06l.55,5.56.56-5.56h1l-.78,7h-1.45Z"/><path class="cls-2" d="M194.93,58.36a1.67,1.67,0,1,1,3.34,0V62a1.67,1.67,0,1,1-3.34,0Zm1.1,3.71c0,.5.22.69.57.69s.57-.19.57-.69V58.29c0-.5-.22-.69-.57-.69s-.57.19-.57.69Z"/><path class="cls-2" d="M201.28,63.68a2.15,2.15,0,0,1-.1-.86v-1.1c0-.65-.22-.89-.72-.89h-.38v2.85H199v-7h1.66c1.14,0,1.62.53,1.62,1.61v.55a1.41,1.41,0,0,1-.71,1.42c.55.23.73.76.73,1.49v1.08a1.91,1.91,0,0,0,.12.85Zm-1.2-6v2.15h.43c.41,0,.66-.18.66-.74V58.4c0-.5-.17-.72-.56-.72Z"/><path class="cls-2" d="M202.68,56.68h3.39v1h-1.14v6h-1.1v-6h-1.15Z"/><path class="cls-2" d="M207.61,56.68v5.4c0,.5.21.68.56.68s.57-.18.57-.68v-5.4h1V62c0,1.12-.56,1.76-1.63,1.76s-1.64-.64-1.64-1.76V56.68Z"/><path class="cls-2" d="M211.51,58.61v5.07h-1v-7h1.37L213,60.87V56.68h1v7h-1.13Z"/><path class="cls-2" d="M216.45,59.78H218V62c0,1.12-.56,1.76-1.64,1.76s-1.64-.64-1.64-1.76V58.36c0-1.12.56-1.76,1.64-1.76s1.64.64,1.64,1.76V59h-1v-.75c0-.5-.22-.69-.57-.69s-.57.19-.57.69v3.78c0,.5.22.68.57.68s.57-.18.57-.68V60.78h-.5Z"/><path class="cls-2" d="M220.18,56.6c1.07,0,1.62.64,1.62,1.76v.22h-1v-.29c0-.5-.2-.69-.55-.69s-.55.19-.55.69c0,1.44,2.15,1.71,2.15,3.71,0,1.12-.56,1.76-1.64,1.76A1.54,1.54,0,0,1,218.53,62v-.43h1v.5c0,.5.22.68.57.68s.57-.18.57-.68c0-1.44-2.14-1.71-2.14-3.71C218.57,57.24,219.11,56.6,220.18,56.6Z"/><path class="cls-2" d="M224.09,62.39l.84-5.71h1l-1.08,7h-1.63l-1.08-7h1.11Z"/><path class="cls-2" d="M226.36,58.36a1.67,1.67,0,1,1,3.33,0V62a1.67,1.67,0,1,1-3.33,0Zm1.09,3.71c0,.5.22.69.57.69s.57-.19.57-.69V58.29c0-.5-.22-.69-.57-.69s-.57.19-.57.69Z"/><path class="cls-2" d="M230.4,56.68h1.1v6h1.81v1H230.4Z"/><path class="cls-2" d="M233.79,56.68h1.1v6h1.81v1h-2.91Z"/><path class="cls-2" d="M238.28,59.63h1.51v1h-1.51v2h1.9v1h-3v-7h3v1h-1.9Z"/><path class="cls-2" d="M169,69.21v.91c0,1.12-.54,1.73-1.64,1.73h-.52v2.63h-1.1v-7h1.62C168.49,67.48,169,68.09,169,69.21Zm-2.16-.73v2.37h.52c.35,0,.54-.16.54-.66v-1c0-.5-.19-.66-.54-.66Z"/><path class="cls-2" d="M171.89,74.48a2.15,2.15,0,0,1-.1-.86v-1.1c0-.65-.22-.89-.72-.89h-.38v2.85h-1.1v-7h1.66c1.14,0,1.63.53,1.63,1.61v.55a1.4,1.4,0,0,1-.72,1.42c.55.23.73.76.73,1.49v1.08a2.06,2.06,0,0,0,.12.85Zm-1.2-6v2.15h.43c.41,0,.66-.18.66-.74V69.2c0-.5-.17-.72-.56-.72Z"/><path class="cls-2" d="M173.52,69.16a1.67,1.67,0,1,1,3.34,0V72.8a1.67,1.67,0,1,1-3.34,0Zm1.1,3.71c0,.5.22.69.57.69s.57-.19.57-.69V69.09c0-.5-.22-.69-.57-.69s-.57.19-.57.69Z"/><path class="cls-2" d="M177.57,67.48h1.74c1.1,0,1.64.61,1.64,1.73v3.54c0,1.12-.54,1.73-1.64,1.73h-1.74Zm1.1,1v5h.62c.35,0,.56-.18.56-.68V69.16c0-.5-.21-.68-.56-.68Z"/><path class="cls-2" d="M182.7,67.48v5.4c0,.5.22.68.57.68s.57-.18.57-.68v-5.4h1v5.33c0,1.12-.56,1.76-1.64,1.76s-1.64-.64-1.64-1.76V67.48Z"/><path class="cls-2" d="M187.07,71.69l-.34.64v2.15h-1.1v-7h1.1v3l1.44-3h1.1l-1.53,3.12,1.53,3.88h-1.13Z"/><path class="cls-2" d="M189.45,67.48h3.4v1H191.7v6h-1.1v-6h-1.15Z"/><path class="cls-2" d="M193.33,67.48h1.1v7h-1.1Z"/><path class="cls-2" d="M195.14,69.16a1.67,1.67,0,1,1,3.34,0V72.8a1.67,1.67,0,1,1-3.34,0Zm1.1,3.71c0,.5.22.69.57.69s.57-.19.57-.69V69.09c0-.5-.22-.69-.57-.69s-.57.19-.57.69Z"/><path class="cls-2" d="M200.17,69.41v5.07h-1v-7h1.38l1.13,4.19V67.48h1v7h-1.13Z"/><path class="cls-2" d="M206.06,67.48v5.4c0,.5.22.68.56.68s.57-.18.57-.68v-5.4h1v5.33c0,1.12-.56,1.76-1.63,1.76S205,73.93,205,72.81V67.48Z"/><path class="cls-2" d="M210,69.41v5.07h-1v-7h1.37l1.13,4.19V67.48h1v7h-1.13Z"/><path class="cls-2" d="M213.25,67.48H215c1.1,0,1.64.61,1.64,1.73v3.54c0,1.12-.54,1.73-1.64,1.73h-1.74Zm1.1,1v5H215c.35,0,.56-.18.56-.68V69.16c0-.5-.21-.68-.56-.68Z"/><path class="cls-2" d="M167.43,84l.84-5.71h1l-1.08,7h-1.64l-1.08-7h1.11Z"/><path class="cls-2" d="M170.89,81.23h1.51v1h-1.51v2h1.9v1h-3v-7h3v1h-1.9Z"/><path class="cls-2" d="M175.77,85.28a2.15,2.15,0,0,1-.1-.86v-1.1c0-.65-.22-.89-.72-.89h-.38v2.85h-1.1v-7h1.66c1.14,0,1.63.53,1.63,1.61v.55a1.4,1.4,0,0,1-.72,1.42c.55.23.73.76.73,1.49v1.08a2.06,2.06,0,0,0,.12.85Zm-1.2-6v2.15H175c.41,0,.66-.18.66-.74V80c0-.5-.17-.72-.56-.72Z"/><path class="cls-2" d="M181.05,85.28h-1.11L179.75,84H178.4l-.19,1.27h-1l1.12-7h1.61Zm-2.51-2.22h1.06l-.53-3.54Z"/><path class="cls-2" d="M182.54,80.21v5.07h-1v-7h1.38l1.13,4.19V78.28h1v7h-1.13Z"/><path class="cls-2" d="M185.51,78.28h3.4v1h-1.15v6h-1.1v-6h-1.15Z"/><path class="cls-2" d="M191.83,81.55l-.4,3.73h-1.51l-.78-7h1.07l.59,5.52.53-5.52h1.06l.55,5.56.56-5.56h1l-.78,7h-1.45Z"/><path class="cls-2" d="M194.93,80a1.67,1.67,0,1,1,3.34,0V83.6a1.67,1.67,0,1,1-3.34,0Zm1.1,3.71c0,.5.22.69.57.69s.57-.19.57-.69V79.89c0-.5-.22-.69-.57-.69s-.57.19-.57.69Z"/><path class="cls-2" d="M201.28,85.28a2.15,2.15,0,0,1-.1-.86v-1.1c0-.65-.22-.89-.72-.89h-.38v2.85H199v-7h1.66c1.14,0,1.62.53,1.62,1.61v.55a1.41,1.41,0,0,1-.71,1.42c.55.23.73.76.73,1.49v1.08a1.91,1.91,0,0,0,.12.85Zm-1.2-6v2.15h.43c.41,0,.66-.18.66-.74V80c0-.5-.17-.72-.56-.72Z"/><path class="cls-2" d="M202.68,78.28h3.39v1h-1.14v6h-1.1v-6h-1.15Z"/><path class="cls-2" d="M207.61,78.28v5.4c0,.5.21.68.56.68s.57-.18.57-.68v-5.4h1v5.33c0,1.12-.56,1.76-1.63,1.76s-1.64-.64-1.64-1.76V78.28Z"/><path class="cls-2" d="M211.51,80.21v5.07h-1v-7h1.37L213,82.47V78.28h1v7h-1.13Z"/><path class="cls-2" d="M216.45,81.38H218V83.6c0,1.12-.56,1.76-1.64,1.76s-1.64-.64-1.64-1.76V80c0-1.12.56-1.76,1.64-1.76S218,78.84,218,80v.68h-1v-.75c0-.5-.22-.69-.57-.69s-.57.19-.57.69v3.78c0,.5.22.68.57.68s.57-.18.57-.68V82.38h-.5Z"/><path class="cls-2" d="M220.18,78.2c1.07,0,1.62.64,1.62,1.76v.22h-1v-.29c0-.5-.2-.69-.55-.69s-.55.19-.55.69c0,1.44,2.15,1.71,2.15,3.71,0,1.12-.56,1.76-1.64,1.76a1.54,1.54,0,0,1-1.64-1.76v-.43h1v.5c0,.5.22.68.57.68s.57-.18.57-.68c0-1.44-2.14-1.71-2.14-3.71C218.57,78.84,219.11,78.2,220.18,78.2Z"/><path class="cls-2" d="M224.09,84l.84-5.71h1l-1.08,7h-1.63l-1.08-7h1.11Z"/><path class="cls-2" d="M226.36,80a1.67,1.67,0,1,1,3.33,0V83.6a1.67,1.67,0,1,1-3.33,0Zm1.09,3.71c0,.5.22.69.57.69s.57-.19.57-.69V79.89c0-.5-.22-.69-.57-.69s-.57.19-.57.69Z"/><path class="cls-2" d="M230.4,78.28h1.1v6h1.81v1H230.4Z"/><path class="cls-2" d="M233.79,78.28h1.1v6h1.81v1h-2.91Z"/><path class="cls-2" d="M238.28,81.23h1.51v1h-1.51v2h1.9v1h-3v-7h3v1h-1.9Z"/><path class="cls-2" d="M243.16,85.28a2.15,2.15,0,0,1-.1-.86v-1.1c0-.65-.22-.89-.72-.89H242v2.85h-1.1v-7h1.66c1.14,0,1.63.53,1.63,1.61v.55a1.4,1.4,0,0,1-.72,1.42c.55.23.73.76.73,1.49v1.08a2.06,2.06,0,0,0,.12.85Zm-1.2-6v2.15h.43c.41,0,.66-.18.66-.74V80c0-.5-.17-.72-.56-.72Z"/><path class="cls-2" d="M167.43,94.79l.84-5.71h1l-1.08,7h-1.64l-1.08-7h1.11Z"/><path class="cls-2" d="M170.89,92h1.51v1h-1.51v2h1.9v1h-3v-7h3v1h-1.9Z"/><path class="cls-2" d="M175.77,96.08a2.15,2.15,0,0,1-.1-.86v-1.1c0-.65-.22-.89-.72-.89h-.38v2.85h-1.1v-7h1.66c1.14,0,1.63.53,1.63,1.61v.55a1.4,1.4,0,0,1-.72,1.42c.55.23.73.76.73,1.49v1.08a2.06,2.06,0,0,0,.12.85Zm-1.2-6v2.15H175c.41,0,.66-.18.66-.74V90.8c0-.5-.17-.72-.56-.72Z"/><path class="cls-2" d="M180.78,90.69v.25a1.37,1.37,0,0,1-.71,1.41,1.42,1.42,0,0,1,.82,1.5v.57a1.49,1.49,0,0,1-1.67,1.66h-1.73v-7h1.66C180.29,89.08,180.78,89.61,180.78,90.69Zm-2.19-.61v1.85H179c.41,0,.66-.18.66-.74V90.8c0-.5-.17-.72-.56-.72Zm0,2.85v2.15h.63c.37,0,.57-.17.57-.69v-.61c0-.65-.21-.85-.71-.85Z"/><path class="cls-2" d="M183.85,96.08a2.15,2.15,0,0,1-.1-.86v-1.1c0-.65-.22-.89-.72-.89h-.38v2.85h-1.1v-7h1.66c1.14,0,1.62.53,1.62,1.61v.55a1.39,1.39,0,0,1-.71,1.42c.55.23.73.76.73,1.49v1.08a2.06,2.06,0,0,0,.12.85Zm-1.2-6v2.15h.43c.41,0,.66-.18.66-.74V90.8c0-.5-.17-.72-.56-.72Z"/><path class="cls-2" d="M189.12,96.08H188l-.2-1.27h-1.34l-.19,1.27h-1l1.12-7H188Zm-2.5-2.22h1.06l-.53-3.54Z"/><path class="cls-2" d="M190.69,89.08v5.4c0,.5.22.68.57.68s.57-.18.57-.68v-5.4h1v5.33c0,1.12-.55,1.76-1.63,1.76s-1.64-.64-1.64-1.76V89.08Z"/><path class="cls-2" d="M196.8,93.47v.93c0,1.12-.56,1.76-1.63,1.76s-1.64-.64-1.64-1.76V90.76c0-1.12.56-1.76,1.64-1.76s1.63.64,1.63,1.76v.68h-1v-.75c0-.5-.22-.69-.58-.69s-.56.19-.56.69v3.78c0,.5.22.68.56.68s.58-.18.58-.68v-1Z"/><path class="cls-2" d="M198.57,96.08h-1.09v-7h1.09v3h1.25v-3h1.12v7h-1.12v-3h-1.25Z"/></g></g></svg>