<svg xmlns="http://www.w3.org/2000/svg" viewBox="0 0 123.19 123.19"><defs><style>.cls-1{fill:#f0e1e5;}.cls-2{fill:#aa526a;}.cls-3{fill:#a61236;}.cls-4{fill:#fefefe;}.cls-5{fill:#8e1838;}.cls-6{fill:#fff;}</style></defs><g id="Capa_2" data-name="Capa 2"><g id="Capa_1-2" data-name="Capa 1"><path class="cls-1" d="M123.1,0s.09,0,.09,0,0,.22,0,.32q0,61.22,0,122.42c0,.33-.06.39-.39.39H.37c-.12,0-.27.09-.36-.08L.14,123a2.41,2.41,0,0,1,.8-.07H122.05c1,0,.89.09.89-.89q0-60.48,0-121A2.59,2.59,0,0,1,123,.15Z"/><path class="cls-2" d="M123.1,0V.09a.69.69,0,0,1-.49.16H1.19c-1,0-.94-.11-.94.93V122.1c0,.33.09.68-.15,1H0Q0,61.74,0,.39C0,.07.07,0,.39,0Z"/><path class="cls-3" d="M.1,123.08c0-.18,0-.35,0-.53V.73a2.62,2.62,0,0,0,0-.28C.05.16.18.05.46.09A1.92,1.92,0,0,0,.7.09H123.1c0,.17,0,.33,0,.49v122c0,.53,0,.53-.54.53H.1Z"/><path class="cls-4" d="M82.21,88.33v19.43c0,.77-.15.92-.92.92H70.93c-.69,0-.86-.17-.86-.85q0-13.93,0-27.86a2.32,2.32,0,0,1,.78-1.82c2-1.86,4-3.74,5.93-5.62l4.34-4.13.12-.11c.2-.17.39-.43.69-.3s.29.46.29.74Z"/><path class="cls-4" d="M67.09,95.68v12.1c0,.75-.16.9-.9.9H55.79c-.68,0-.86-.18-.86-.86V84c0-.29-.06-.65.26-.8s.55.14.75.34l4.45,4.53c.38.38.4.38.77,0,1.62-1.63,3.23-3.26,4.85-4.88.22-.23.43-.54.81-.38s.26.52.26.82Q67.1,89.68,67.09,95.68Z"/><path class="cls-4" d="M85.72,55.73c.32,0,.39.22.33.51-.33,1.49-.65,3-1,4.47-.26,1.21-.51,2.42-.77,3.63,0,.16,0,.33-.24.38s-.3,0-.42-.17C83.1,64,82.54,63.44,82,62.88c-.14-.14-.22-.15-.36,0q-2.37,2.4-4.77,4.79L71.4,73.12l-5.34,5.36c-1.65,1.65-3.31,3.3-5,5-.26.27-.44.2-.67,0-1.77-1.79-3.54-3.56-5.31-5.34l-2.8-2.81c-.14-.15-.23-.15-.38,0q-4,4-8,8c-1.69,1.69-3.39,3.37-5.07,5.06-.26.26-.43.27-.69,0-.65-.67-1.31-1.33-2-2-.24-.24-.26-.42,0-.67L42.3,79.6l5.86-5.88L51.86,70c.21-.21.37-.2.58,0l5.29,5.29c1,.94,1.9,1.88,2.83,2.84.21.22.32.16.5,0q4.23-4.25,8.47-8.47,4.66-4.67,9.33-9.32c.27-.26.24-.39,0-.62-.53-.51-1.06-1-1.57-1.57-.27-.28-.2-.51.15-.59l8-1.79Z"/><path class="cls-4" d="M51.71,94.85v12.92c0,.77-.15.91-.92.91H40.47c-.76,0-.91-.15-.91-.89q0-7.35,0-14.69a2.3,2.3,0,0,1,.78-1.82c2.8-2.63,5.58-5.29,8.37-7.93l2-1.94c.2-.19.41-.44.73-.3s.27.44.27.71Z"/><path class="cls-4" d="M19.41,21.75a5.14,5.14,0,0,1,2.53,3.77,10.5,10.5,0,0,1-.14,4.73A5.16,5.16,0,0,1,17,34.41a9.57,9.57,0,0,1-3-.13A4.94,4.94,0,0,1,10.1,31a10,10,0,0,1-.31-5.89,4.87,4.87,0,0,1,2.43-3.33l-.66-.66a5.92,5.92,0,0,1-1.65-3.77,8.69,8.69,0,0,1,.25-3.21,5.12,5.12,0,0,1,4.91-3.81,7.45,7.45,0,0,1,3,.3,4.59,4.59,0,0,1,3.18,3.07,8.29,8.29,0,0,1-.22,6A5.69,5.69,0,0,1,19.41,21.75Z"/><path class="cls-5" d="M13.91,27.44A8,8,0,0,1,14.22,25a1.58,1.58,0,0,1,1.87-1.23A1.49,1.49,0,0,1,17.42,25,8.48,8.48,0,0,1,17.35,30a1.41,1.41,0,0,1-1.59,1.09A1.49,1.49,0,0,1,14.25,30,7.36,7.36,0,0,1,13.91,27.44Z"/><path class="cls-5" d="M14.1,16.75a4.7,4.7,0,0,1,.38-2.22,1.44,1.44,0,0,1,1.39-.86,1.36,1.36,0,0,1,1.29.94,5.94,5.94,0,0,1,.23,3.18,4.25,4.25,0,0,1-.36,1.4,1.29,1.29,0,0,1-1.21.86,1.32,1.32,0,0,1-1.23-.84A5.68,5.68,0,0,1,14.1,16.75Z"/><path class="cls-6" d="M32.52,15.25l.83-5.47H35v7.7H33.89V12l-.84,5.52H31.91L31,12v5.44H30V9.78h1.68Z"/><path class="cls-6" d="M37.12,13h1.66v1.1H37.12v2.25h2.09v1.1h-3.3V9.78h3.3v1.1H37.12Z"/><path class="cls-6" d="M41,11.91v5.57H40V9.78h1.52l1.24,4.61V9.78h1.08v7.7H42.54Z"/><path class="cls-6" d="M46.28,9.69c1.18,0,1.79.71,1.79,1.94v.24H46.92v-.32c0-.55-.22-.76-.6-.76s-.61.21-.61.76c0,1.59,2.37,1.88,2.37,4.08,0,1.24-.62,1.94-1.81,1.94s-1.8-.7-1.8-1.94v-.47h1.14v.55c0,.55.25.75.63.75s.63-.2.63-.75c0-1.58-2.37-1.88-2.37-4.08C44.5,10.4,45.11,9.69,46.28,9.69Z"/><path class="cls-6" d="M52.28,14.61v1c0,1.24-.62,1.94-1.8,1.94s-1.81-.7-1.81-1.94v-4a1.69,1.69,0,0,1,1.81-1.94c1.18,0,1.8.71,1.8,1.94v.75H51.14v-.83c0-.55-.25-.76-.63-.76s-.63.21-.63.76v4.16c0,.55.24.75.63.75s.63-.2.63-.75v-1.1Z"/><path class="cls-6" d="M54.23,17.48H53V9.78h1.21v3.3H55.6V9.78h1.23v7.7H55.6v-3.3H54.23Z"/><path class="cls-6" d="M58.92,13h1.67v1.1H58.92v2.25H61v1.1h-3.3V9.78H61v1.1H58.92Z"/><path class="cls-6" d="M62.84,11.91v5.57H61.75V9.78h1.52l1.24,4.61V9.78h1.08v7.7H64.35Z"/><path class="cls-6" d="M69.14,13.38l-.44,4.1H67l-.86-7.7h1.18L68,15.86l.58-6.08h1.17l.6,6.12L71,9.78h1.06l-.86,7.7H69.58Z"/><path class="cls-6" d="M73.81,9.78v5.94c0,.55.24.75.63.75s.62-.2.62-.75V9.78h1.15v5.87a1.69,1.69,0,0,1-1.81,1.93c-1.19,0-1.8-.7-1.8-1.93V9.78Zm.31-1.46V9.38H73.06V8.32Zm1.67,0V9.38H74.73V8.32Z"/><path class="cls-6" d="M79.56,17.48a2.25,2.25,0,0,1-.11-.94V15.33c0-.72-.24-1-.79-1h-.42v3.13H77V9.78h1.83c1.25,0,1.79.59,1.79,1.77v.61a1.53,1.53,0,0,1-.79,1.56c.6.25.8.84.8,1.64v1.19a2.26,2.26,0,0,0,.13.93Zm-1.32-6.6v2.37h.47c.45,0,.73-.2.73-.82v-.76c0-.55-.19-.79-.62-.79Z"/><path class="cls-6" d="M81.45,9.78h1.92c1.21,0,1.8.67,1.8,1.91v3.89c0,1.23-.59,1.9-1.8,1.9H81.45Zm1.21,1.1v5.5h.68c.39,0,.62-.19.62-.75v-4c0-.55-.23-.75-.62-.75Z"/><path class="cls-6" d="M85.94,9.78h1.21v7.7H85.94Z"/><path class="cls-6" d="M89.85,13.19h1.69v2.44c0,1.24-.62,1.94-1.8,1.94s-1.81-.7-1.81-1.94v-4a1.69,1.69,0,0,1,1.81-1.94c1.18,0,1.8.71,1.8,1.94v.75H90.4v-.83c0-.55-.25-.76-.63-.76s-.63.21-.63.76v4.16c0,.55.24.75.63.75s.63-.2.63-.75V14.29h-.55Z"/><path class="cls-6" d="M93.53,13h1.66v1.1H93.53v2.25h2.09v1.1h-3.3V9.78h3.3v1.1H93.53Z"/><path class="cls-6" d="M33.88,30.28H32.66l-.21-1.39H31l-.21,1.39H29.64l1.23-7.7h1.77Zm-2.76-2.44h1.16L31.7,24Z"/><path class="cls-6" d="M37,30.28a2.29,2.29,0,0,1-.11-.94V28.13c0-.72-.25-1-.8-1h-.41v3.13H34.44v-7.7h1.82c1.26,0,1.8.59,1.8,1.77V25a1.53,1.53,0,0,1-.8,1.56c.61.25.81.84.81,1.64v1.19a2.26,2.26,0,0,0,.13.93Zm-1.32-6.6v2.37h.47c.45,0,.73-.2.73-.82v-.76c0-.55-.19-.79-.62-.79Z"/><path class="cls-6" d="M42.48,24.35v.28a1.51,1.51,0,0,1-.78,1.55,1.56,1.56,0,0,1,.9,1.65v.63a1.63,1.63,0,0,1-1.84,1.82h-1.9v-7.7h1.83C41.94,22.58,42.48,23.17,42.48,24.35Zm-2.41-.67v2h.47c.45,0,.73-.2.73-.82v-.43c0-.55-.19-.79-.62-.79Zm0,3.14v2.36h.69c.41,0,.63-.18.63-.76v-.67c0-.71-.23-.93-.78-.93Z"/><path class="cls-6" d="M44.53,25.83H46.2v1.1H44.53v2.25h2.09v1.1h-3.3v-7.7h3.3v1.1H44.53Z"/><path class="cls-6" d="M47.37,22.58h1.21v7.7H47.37Z"/><path class="cls-6" d="M49.11,22.58h3.74v1.1H51.59v6.6H50.38v-6.6H49.11Z"/><path class="cls-6" d="M56.24,22.58v5.94c0,.55.24.75.63.75s.62-.2.62-.75V22.58h1.15v5.87a1.69,1.69,0,0,1-1.81,1.93c-1.19,0-1.8-.7-1.8-1.93V22.58Z"/><path class="cls-6" d="M60.54,24.71v5.57H59.45v-7.7H61l1.24,4.61V22.58h1.08v7.7H62.05Z"/><path class="cls-6" d="M64.16,22.58h1.91c1.21,0,1.81.67,1.81,1.91v3.89a1.65,1.65,0,0,1-1.81,1.9H64.16Zm1.21,1.1v5.5h.68c.39,0,.62-.19.62-.75v-4c0-.55-.23-.75-.62-.75Z"/><path class="cls-6" d="M32.64,39l-.44,4.1H30.54l-.85-7.7h1.17l.65,6.08.58-6.08h1.17l.61,6.12.62-6.12h1.06l-.86,7.7H33.08Z"/><path class="cls-6" d="M36.15,35.38h1.21v7.7H36.15Z"/><path class="cls-6" d="M40.77,43.08a2.49,2.49,0,0,1-.11-.94V40.93c0-.72-.24-1-.79-1h-.42v3.13H38.24v-7.7h1.83c1.25,0,1.79.58,1.79,1.77v.61a1.53,1.53,0,0,1-.79,1.56c.61.25.8.84.8,1.64v1.19a2.26,2.26,0,0,0,.13.93Zm-1.32-6.6v2.37h.48c.45,0,.72-.2.72-.82v-.76c0-.55-.19-.79-.61-.79Z"/><path class="cls-6" d="M42.31,35.38h3.74v1.1H44.79v6.6H43.58v-6.6H42.31Z"/><path class="cls-6" d="M48.21,35.29c1.18,0,1.78.71,1.78,1.94v.24H48.85v-.32c0-.55-.22-.76-.61-.76s-.6.21-.6.76C47.64,38.74,50,39,50,41.23c0,1.24-.61,1.94-1.8,1.94s-1.81-.7-1.81-1.94v-.47h1.15v.55c0,.55.24.75.62.75s.63-.2.63-.75c0-1.58-2.36-1.88-2.36-4.08C46.43,36,47,35.29,48.21,35.29Z"/><path class="cls-6" d="M54.2,40.21v1c0,1.24-.61,1.94-1.8,1.94s-1.8-.7-1.8-1.94v-4c0-1.23.61-1.94,1.8-1.94s1.8.71,1.8,1.94V38H53.06v-.83c0-.55-.24-.76-.63-.76s-.62.21-.62.76v4.16c0,.55.24.75.62.75s.63-.2.63-.75v-1.1Z"/><path class="cls-6" d="M56.15,43.08H54.94v-7.7h1.21v3.3h1.38v-3.3h1.23v7.7H57.53v-3.3H56.15Z"/><path class="cls-6" d="M63.55,43.08H62.33l-.21-1.39H60.64l-.21,1.39H59.32l1.23-7.7h1.77Zm-2.76-2.44H62l-.58-3.89Z"/><path class="cls-6" d="M65.32,38.8h1.57v1.1H65.32v3.18H64.11v-7.7h3.21v1.1h-2Z"/><path class="cls-6" d="M67.55,35.38h3.74v1.1H70v6.6H68.81v-6.6H67.55Z"/><path class="cls-6" d="M73.44,35.29c1.18,0,1.79.71,1.79,1.94v.24H74.08v-.32c0-.55-.22-.76-.6-.76s-.61.21-.61.76c0,1.59,2.37,1.88,2.37,4.08,0,1.24-.62,1.94-1.81,1.94s-1.8-.7-1.8-1.94v-.47h1.14v.55c0,.55.24.75.63.75s.63-.2.63-.75c0-1.58-2.37-1.88-2.37-4.08C71.66,36,72.27,35.29,73.44,35.29Z"/><path class="cls-6" d="M78.61,39l-.44,4.1H76.51l-.86-7.7h1.18l.65,6.08.58-6.08h1.17l.6,6.12.63-6.12h1.06l-.86,7.7H79.05Z"/><path class="cls-6" d="M85.87,43.08H84.65l-.21-1.39H83l-.21,1.39H81.64l1.23-7.7h1.77Zm-2.76-2.44h1.17l-.59-3.89Z"/><path class="cls-6" d="M89.93,40.21v1c0,1.24-.62,1.94-1.8,1.94s-1.81-.7-1.81-1.94v-4a1.69,1.69,0,0,1,1.81-1.94c1.18,0,1.8.71,1.8,1.94V38H88.79v-.83c0-.55-.24-.76-.63-.76s-.63.21-.63.76v4.16c0,.55.24.75.63.75s.63-.2.63-.75v-1.1Z"/><path class="cls-6" d="M91.88,43.08H90.67v-7.7h1.21v3.3h1.37v-3.3h1.24v7.7H93.25v-3.3H91.88Z"/><path class="cls-6" d="M97,35.29c1.18,0,1.79.71,1.79,1.94v.24H97.63v-.32c0-.55-.22-.76-.6-.76s-.61.21-.61.76c0,1.59,2.37,1.88,2.37,4.08,0,1.24-.62,1.94-1.81,1.94s-1.8-.7-1.8-1.94v-.47h1.14v.55c0,.55.24.75.63.75s.63-.2.63-.75c0-1.58-2.37-1.88-2.37-4.08C95.21,36,95.82,35.29,97,35.29Z"/><path class="cls-6" d="M99.13,35.38h3.74v1.1H101.6v6.6h-1.21v-6.6H99.13Z"/><path class="cls-6" d="M104.55,35.38v5.94c0,.55.24.75.63.75s.63-.2.63-.75V35.38H107v5.87a1.81,1.81,0,1,1-3.61,0V35.38Z"/><path class="cls-6" d="M110.34,40.85l.82-5.47h1.69v7.7H111.7V37.56l-.84,5.52h-1.14l-.9-5.44v5.44h-1.06v-7.7h1.69Z"/></g></g></svg>