<svg xmlns="http://www.w3.org/2000/svg" viewBox="0 0 378.08 212.67"><defs><style>.cls-1{fill:#ffb200;}.cls-2{fill:#fefefe;}.cls-3{fill:#fcb613;}.cls-4{fill:#fff;}</style></defs><g id="Capa_2" data-name="Capa 2"><g id="Capa_1-2" data-name="Capa 1"><rect class="cls-1" width="378.08" height="212.67"/><path class="cls-2" d="M189.11,112.14a15.67,15.67,0,1,1-15.65,15.66A15.68,15.68,0,0,1,189.11,112.14Z"/><path class="cls-2" d="M142.36,54.78c1.69,0,3.38,0,5.06,0,.33,0,.41.1.4.41,0,.78,0,1.56,0,2.35a7.46,7.46,0,0,1-.35,1.74q-.79,3.36-1.61,6.72c-1,4.1-2,8.19-3,12.3a.32.32,0,0,1-.37.3q-1.91,0-3.81,0c-.28,0-.29-.09-.23-.33q.84-3.37,1.66-6.75l3-12.13c.07-.27.13-.53.21-.78s0-.35-.28-.35c-1.87,0-3.75,0-5.62,0-.4,0-.51-.1-.49-.49q0-1.28,0-2.55c0-.39.12-.46.47-.46C139,54.79,140.7,54.78,142.36,54.78Z"/><path class="cls-2" d="M203.35,150.08a1.39,1.39,0,0,1-.89,1.33,1.29,1.29,0,0,1-1.53-.6c-1.1-1.91-2.21-3.83-3.3-5.75a1.34,1.34,0,0,1,.42-1.81,1.32,1.32,0,0,1,1.82.52c1.13,1.95,2.24,3.9,3.36,5.86A.8.8,0,0,1,203.35,150.08Z"/><path class="cls-2" d="M211.75,129h-3.32a1.32,1.32,0,0,1-1.35-1.31,1.29,1.29,0,0,1,1.34-1.27H215a1.31,1.31,0,0,1,1.35,1.26A1.33,1.33,0,0,1,215,129Z"/><path class="cls-2" d="M166.52,129h-3.31a1.33,1.33,0,0,1-1.34-1.29,1.3,1.3,0,0,1,1.32-1.29c2.23,0,4.45,0,6.67,0a1.26,1.26,0,0,1,1.29,1.28,1.29,1.29,0,0,1-1.31,1.3Z"/><path class="cls-2" d="M176.3,151.49a1.3,1.3,0,0,1-1.22-1.85c.45-.86.95-1.7,1.43-2.54.64-1.12,1.28-2.25,1.94-3.36a1.31,1.31,0,0,1,1.79-.46,1.33,1.33,0,0,1,.43,1.75c-1.1,1.94-2.22,3.88-3.33,5.82A1.18,1.18,0,0,1,176.3,151.49Z"/><path class="cls-2" d="M179.51,112.27a1.3,1.3,0,0,1-1.1-.63c-1.1-1.93-2.22-3.85-3.32-5.78a1.29,1.29,0,1,1,2.24-1.27c1.11,1.91,2.2,3.83,3.31,5.74a1.3,1.3,0,0,1-.06,1.38A1.22,1.22,0,0,1,179.51,112.27Z"/><path class="cls-2" d="M165.34,140.52a1.23,1.23,0,0,1,.65-1l5.72-3.28a1.3,1.3,0,1,1,1.27,2.25c-1.92,1.11-3.83,2.21-5.75,3.3A1.3,1.3,0,0,1,165.34,140.52Z"/><path class="cls-2" d="M190.41,105v3.32a1.28,1.28,0,0,1-1.27,1.34,1.27,1.27,0,0,1-1.31-1.3q0-3.33,0-6.64a1.28,1.28,0,0,1,1.28-1.33,1.31,1.31,0,0,1,1.29,1.37Z"/><path class="cls-2" d="M166.65,113.5a1.25,1.25,0,0,1,.69.22l5.71,3.28a1.28,1.28,0,0,1-1.24,2.25c-2-1.12-3.93-2.24-5.89-3.38a1.24,1.24,0,0,1-.56-1.47A1.32,1.32,0,0,1,166.65,113.5Z"/><path class="cls-2" d="M190.41,150.32v3.24a1.28,1.28,0,0,1-1.25,1.35,1.26,1.26,0,0,1-1.33-1.32V147a1.29,1.29,0,1,1,2.58,0Z"/><path class="cls-2" d="M198.66,112.23a1.27,1.27,0,0,1-1.12-1.87c1.11-2,2.24-3.93,3.37-5.89a1.29,1.29,0,0,1,2.24,1.27l-3.34,5.87A1.2,1.2,0,0,1,198.66,112.23Z"/><path class="cls-2" d="M212.92,140.59a1.26,1.26,0,0,1-1.87,1.11q-2.91-1.63-5.8-3.3a1.31,1.31,0,0,1-.53-1.84,1.33,1.33,0,0,1,1.81-.4c1.93,1.09,3.84,2.19,5.76,3.29A1.2,1.2,0,0,1,212.92,140.59Z"/><path class="cls-2" d="M212.9,114.72a1.23,1.23,0,0,1-.65,1.14c-1.93,1.11-3.87,2.23-5.81,3.33a1.28,1.28,0,0,1-1.3-2.21c1.36-.8,2.73-1.58,4.09-2.36.58-.34,1.16-.69,1.75-1A1.29,1.29,0,0,1,212.9,114.72Z"/><path class="cls-3" d="M191.52,119.94a6.55,6.55,0,0,1,2.34,1.14,8,8,0,0,1,3.39,6.78,8.13,8.13,0,1,1-11.88-7.38,7.8,7.8,0,0,1,1.06-.48c.17,0,.25,0,.25.17,0,.86,0,1.73,0,2.59,0,.22-.15.27-.28.35a5.33,5.33,0,1,0,7.56,2.35,4.84,4.84,0,0,0-2.07-2.31.64.64,0,0,1-.37-.67C191.54,121.65,191.52,120.81,191.52,119.94Z"/><path class="cls-3" d="M190.26,121c0,.84,0,1.69,0,2.54a1.14,1.14,0,0,1-1.15,1.23,1.18,1.18,0,0,1-1.15-1.25v-5a1.18,1.18,0,0,1,1.17-1.28,1.16,1.16,0,0,1,1.13,1.26C190.27,119.35,190.26,120.18,190.26,121Z"/><path class="cls-4" d="M160.66,58.17h1.81v1.2h-1.81v2.46h2.28V63h-3.6v-8.4h3.6v1.2h-2.28Z"/><path class="cls-4" d="M166.51,63a2.64,2.64,0,0,1-.12-1V60.68c0-.78-.26-1.07-.86-1.07h-.46V63h-1.32v-8.4h2c1.37,0,2,.64,2,1.93v.66a1.69,1.69,0,0,1-.86,1.71c.65.27.87.91.87,1.78V62a2.5,2.5,0,0,0,.14,1Zm-1.44-7.2v2.58h.52c.49,0,.79-.21.79-.89V56.7c0-.6-.2-.87-.67-.87Z"/><path class="cls-4" d="M170.35,54.54c1.29,0,2,.76,2,2.11v.26h-1.25v-.35c0-.6-.24-.82-.66-.82s-.66.22-.66.82c0,1.73,2.58,2.06,2.58,4.45,0,1.35-.67,2.11-2,2.11a1.84,1.84,0,0,1-2-2.11V60.5h1.25v.6c0,.6.27.81.69.81s.68-.21.68-.81c0-1.73-2.58-2.05-2.58-4.45C168.41,55.3,169.07,54.54,170.35,54.54Z"/><path class="cls-4" d="M176.89,59.9V61c0,1.35-.67,2.11-2,2.11s-2-.76-2-2.11V56.65c0-1.35.67-2.11,2-2.11s2,.76,2,2.11v.81h-1.24v-.9c0-.6-.27-.82-.69-.82s-.68.22-.68.82V61.1c0,.6.26.81.68.81s.69-.21.69-.81V59.9Z"/><path class="cls-4" d="M179,63H177.7v-8.4H179v3.6h1.5v-3.6h1.34V63h-1.34v-3.6H179Z"/><path class="cls-4" d="M185.75,58.55,185.27,63h-1.81l-.94-8.4h1.29l.7,6.62.64-6.62h1.27l.66,6.67.68-6.67h1.15L188,63h-1.75Z"/><path class="cls-4" d="M189.58,54.63h1.32V63h-1.32Z"/><path class="cls-4" d="M193,57V63h-1.18v-8.4h1.65l1.36,5v-5H196V63h-1.35Z"/><path class="cls-4" d="M199,58.35h1.85V61c0,1.35-.67,2.11-2,2.11a1.84,1.84,0,0,1-2-2.11V56.65a1.84,1.84,0,0,1,2-2.11c1.3,0,2,.76,2,2.11v.81h-1.25v-.9c0-.6-.26-.82-.68-.82s-.69.22-.69.82V61.1c0,.6.27.81.69.81s.68-.21.68-.81V59.55H199Z"/><path class="cls-4" d="M201.66,54.63H203v7.2h2.17V63h-3.49Z"/><path class="cls-4" d="M205.73,54.63h1.32V63h-1.32Z"/><path class="cls-4" d="M211.84,59.9V61a1.84,1.84,0,0,1-2,2.11c-1.3,0-2-.76-2-2.11V56.65c0-1.35.67-2.11,2-2.11a1.84,1.84,0,0,1,2,2.11v.81h-1.25v-.9c0-.6-.26-.82-.68-.82s-.69.22-.69.82V61.1c0,.6.27.81.69.81s.68-.21.68-.81V59.9Z"/><path class="cls-4" d="M214,63h-1.32v-8.4H214v3.6h1.5v-3.6h1.34V63h-1.34v-3.6H214Z"/><path class="cls-4" d="M219.08,58.17h1.82v1.2h-1.82v2.46h2.28V63h-3.59v-8.4h3.59v1.2h-2.28Z"/><path class="cls-4" d="M225.3,54.63v6.48c0,.6.27.81.69.81s.68-.21.68-.81V54.63h1.25V61A2,2,0,1,1,224,61v-6.4Z"/><path class="cls-4" d="M230,57V63h-1.18v-8.4h1.65l1.36,5v-5H233V63h-1.35Z"/><path class="cls-4" d="M233.94,54.63H236c1.32,0,2,.73,2,2.08V61c0,1.35-.65,2.08-2,2.08h-2.09Zm1.32,1.2v6H236c.41,0,.67-.22.67-.82V56.65c0-.6-.26-.82-.67-.82Z"/><path class="cls-4" d="M160.6,67.43v6.48c0,.6.26.81.68.81s.68-.21.68-.81V67.43h1.25v6.4c0,1.34-.67,2.11-2,2.11s-2-.77-2-2.11v-6.4Z"/><path class="cls-4" d="M166.91,73.39l.9-6h1.83v8.4H168.4v-6l-.92,6h-1.24l-1-5.94v5.94H164.1v-8.4h1.84Z"/><path class="cls-4" d="M173.53,71.35l-.48,4.48h-1.81l-.93-8.4h1.28l.71,6.62.63-6.62h1.27l.66,6.67.69-6.67h1.15l-.94,8.4H174Z"/><path class="cls-4" d="M178.68,71h1.81v1.2h-1.81v2.46H181v1.2h-3.6v-8.4H181v1.2h-2.28Z"/><path class="cls-4" d="M181.78,67.43h1.32v7.2h2.17v1.2h-3.49Z"/><path class="cls-4" d="M184.86,67.43h4.08v1.2h-1.38v7.2h-1.32v-7.2h-1.38Z"/><path class="cls-4" d="M190.84,71.16h1.7v1.2h-1.7v3.47h-1.32v-8.4H193v1.2h-2.17Z"/><path class="cls-4" d="M196.4,75.83a2.64,2.64,0,0,1-.12-1V73.48c0-.78-.26-1.07-.86-1.07H195v3.42h-1.31v-8.4h2c1.36,0,2,.64,2,1.93V70a1.68,1.68,0,0,1-.86,1.71c.66.27.87.91.87,1.78v1.3a2.34,2.34,0,0,0,.15,1ZM195,68.63v2.58h.52c.49,0,.79-.21.79-.89V69.5c0-.6-.2-.87-.67-.87Z"/><path class="cls-4" d="M199.79,71h1.81v1.2h-1.81v2.46h2.28v1.2h-3.6v-8.4h3.6v1.2h-2.28Z"/><path class="cls-4" d="M204.15,67.43v6.48c0,.6.26.81.68.81s.68-.21.68-.81V67.43h1.25v6.4c0,1.34-.67,2.11-2,2.11s-2-.77-2-2.11v-6.4Z"/><path class="cls-4" d="M208.84,69.75v6.08h-1.19v-8.4h1.66l1.35,5v-5h1.17v8.4h-1.35Z"/><path class="cls-4" d="M212.79,67.43h2.08c1.32,0,2,.73,2,2.08v4.24c0,1.35-.65,2.08-2,2.08h-2.08Zm1.31,1.2v6h.75c.42,0,.67-.22.67-.82V69.45c0-.6-.25-.82-.67-.82Z"/><path class="cls-4" d="M217.68,67.43H219v7.2h2.17v1.2h-3.49Z"/><path class="cls-4" d="M221.75,67.43h1.32v8.4h-1.32Z"/><path class="cls-4" d="M227.86,72.7v1.11a1.84,1.84,0,0,1-2,2.11c-1.3,0-2-.76-2-2.11V69.45c0-1.35.67-2.11,2-2.11a1.84,1.84,0,0,1,2,2.11v.81h-1.25v-.9c0-.6-.27-.82-.69-.82s-.68.22-.68.82V73.9c0,.6.26.81.68.81s.69-.21.69-.81V72.7Z"/><path class="cls-4" d="M230,75.83h-1.32v-8.4H230V71h1.5v-3.6h1.34v8.4h-1.34v-3.6H230Z"/><path class="cls-4" d="M235.1,71h1.82v1.2H235.1v2.46h2.28v1.2h-3.59v-8.4h3.59v1.2H235.1Z"/><path class="cls-4" d="M160.66,83.77h1.81V85h-1.81v2.46h2.28v1.2h-3.6v-8.4h3.6v1.2h-2.28Z"/><path class="cls-4" d="M164.93,82.55v6.08h-1.19v-8.4h1.66l1.35,5v-5h1.18v8.4h-1.36Z"/><path class="cls-4" d="M170.2,83.77H172V85H170.2v2.46h2.28v1.2h-3.6v-8.4h3.6v1.2H170.2Z"/><path class="cls-4" d="M176.05,88.63a2.64,2.64,0,0,1-.12-1V86.28c0-.78-.26-1.07-.86-1.07h-.46v3.42h-1.32v-8.4h2c1.37,0,2,.64,2,1.93v.66a1.69,1.69,0,0,1-.86,1.71c.66.27.87.91.87,1.78v1.3a2.34,2.34,0,0,0,.15,1Zm-1.44-7.2V84h.52c.49,0,.79-.22.79-.89v-.83c0-.59-.2-.86-.67-.86Z"/><path class="cls-4" d="M180.1,84h1.84v2.66c0,1.35-.67,2.11-2,2.11s-2-.76-2-2.11V82.25c0-1.35.67-2.11,2-2.11s2,.76,2,2.11v.81H180.7v-.9c0-.6-.27-.82-.69-.82s-.68.22-.68.82V86.7c0,.6.26.81.68.81s.69-.21.69-.81V85.15h-.6Z"/><path class="cls-4" d="M182.8,80.23h1.32v8.4H182.8Z"/><path class="cls-4" d="M186.4,83.77h1.81V85H186.4v2.46h2.28v1.2h-3.6v-8.4h3.6v1.2H186.4Z"/></g></g></svg>