<svg xmlns="http://www.w3.org/2000/svg" viewBox="0 0 123.59 123.64"><defs><style>.cls-1{fill:#e3152b;}.cls-2{fill:#fefefe;}.cls-3{fill:#c21f33;}.cls-4{fill:#fff;}</style></defs><g id="Capa_2" data-name="Capa 2"><g id="Capa_1-2" data-name="Capa 1"><path class="cls-1" d="M.05,0H123.54a.82.82,0,0,1,0,.44V123.16a1.33,1.33,0,0,1,0,.44.93.93,0,0,1-.44,0H.51c-.55,0-.5.07-.5-.48V.44A.83.83,0,0,1,.05,0Z"/><path class="cls-2" d="M79.72,53.44V54q0,20.28,0,40.56a.67.67,0,0,1-.58.77c-2.34.68-4.67,1.38-7,2.08L60.35,101c-1,.28-1.89.56-2.83.86-.27.08-.32,0-.31-.25,0-.47,0-.94,0-1.41q0-16.64,0-33.28a.71.71,0,0,1,.42-.72c2.68-1.53,5.35-3.08,8-4.62l10.36-6,3.43-2Z"/><path class="cls-2" d="M32.41,53.42l3.34,1.91,6.09,3.52,10.08,5.82,2.55,1.49a.51.51,0,0,1,.3.5q0,17.43,0,34.86c0,.35-.1.36-.38.28-4.58-1.39-9.16-2.76-13.74-4.14-2.55-.77-5.1-1.56-7.66-2.31a.69.69,0,0,1-.59-.8q0-20.26,0-40.53Z"/><path class="cls-2" d="M30,53.37a1,1,0,0,1,.06.55q0,21.49,0,43c0,.36.08.5.44.6,2.71.74,5.4,1.5,8.1,2.26l12.88,3.59c1,.28,2,.66,3.08.84a6.67,6.67,0,0,0,3.2-.07c3-1,6.08-1.94,9.12-2.92l10.91-3.53c1.31-.43,2.61-.87,3.92-1.27.34-.1.41-.27.41-.6q0-20.29,0-40.61V53.33l1.25,1a3.56,3.56,0,0,0,.53.43A1.26,1.26,0,0,1,84.52,56q0,20.79,0,41.59c0,.22,0,.42-.28.51-3.49,1-6.92,2.15-10.38,3.25l-9.9,3.13-6.2,2a2.84,2.84,0,0,1-.71.11c-2.17.25-4.17-.49-6.21-1.06l-11.37-3.13c-3.83-1.06-7.66-2.13-11.49-3.18-.31-.08-.32-.25-.32-.49q0-6,0-12,0-15.52,0-31.06a.79.79,0,0,1,.36-.73C28.67,54.43,29.31,53.9,30,53.37Z"/><path class="cls-2" d="M94.58,103.67c-.36-1.28-.68-2.45-1-3.61-.5-1.78-1-3.55-1.53-5.32a2,2,0,0,1-.08-.6q0-18.21,0-36.44c0-.37.1-.44.45-.43q2.2,0,4.41,0c.36,0,.44.09.44.44q0,14.06,0,28.1c0,2.7,0,5.4,0,8.1a4.39,4.39,0,0,1-.23,1.3l-2.31,8.12C94.68,103.41,94.65,103.48,94.58,103.67Z"/><path class="cls-2" d="M20.49,17.91c0,2.31,0,4.61,0,6.92,0,.32.09.42.41.41.57,0,1.14,0,1.7,0,.21,0,.29.05.28.27,0,1,0,1.92,0,2.87,0,.25-.09.3-.31.29-.58,0-1.16,0-1.74,0-.27,0-.34.09-.33.34,0,1.61,0,3.22,0,4.82,0,.36-.1.45-.45.45-1.08,0-2.16,0-3.24,0-.31,0-.41-.07-.41-.4,0-1.56,0-3.13,0-4.69,0-.39-.06-.52-.49-.51-2.08,0-4.16,0-6.23,0-.34,0-.48-.09-.43-.43a2.17,2.17,0,0,0,0-.36c0-3,0-3,1.23-5.7,1.11-2.51,2.15-5.05,3.22-7.58.53-1.25,1.08-2.5,1.6-3.75a.36.36,0,0,1,.39-.26c1.49,0,3,0,4.45,0,.34,0,.32.17.32.4Z"/><path class="cls-2" d="M94.6,55.22c-.78,0-1.56,0-2.34,0-.25,0-.32-.07-.32-.32,0-.89,0-1.78,0-2.67a2.64,2.64,0,0,1,5.27-.07c0,.93,0,1.86,0,2.79,0,.23-.09.27-.29.27Z"/><path class="cls-3" d="M16.39,15.3c0,.22,0,.32,0,.42q0,4.56,0,9.11c0,.32-.08.41-.4.41-.95,0-1.89,0-2.84,0-.27,0-.35,0-.24-.33l3.3-9.25Z"/><path class="cls-4" d="M32.41,11.64a2,2,0,1,1,4,0V16a2.46,2.46,0,0,1-.25,1.18c.06.15.15.18.37.18h.12v1.17h-.18A1.15,1.15,0,0,1,35.33,18a2.81,2.81,0,0,1-.92.15,1.86,1.86,0,0,1-2-2.11Zm1.31,4.45c0,.6.27.82.69.82s.68-.22.68-.82V11.55c0-.6-.26-.82-.68-.82s-.69.22-.69.82Z"/><path class="cls-4" d="M38.52,9.62V16.1c0,.6.27.81.69.81s.68-.21.68-.81V9.62h1.25V16c0,1.35-.67,2.12-2,2.12s-2-.77-2-2.12V9.62Z"/><path class="cls-4" d="M46.31,18H45l-.23-1.53H43.13L42.9,18H41.69L43,9.62H45Zm-3-2.66h1.27l-.63-4.25Z"/><path class="cls-4" d="M46.93,9.62h1.31v7.2h2.18V18H46.93Z"/><path class="cls-4" d="M51,9.62h1.32V18H51Z"/><path class="cls-4" d="M52.89,9.62H57v1.2H55.59V18H54.27v-7.2H52.89Z"/><path class="cls-4" d="M61.36,18H60l-.23-1.53H58.18L58,18H56.74l1.35-8.4H60Zm-3-2.66h1.27L59,11.11Z"/><path class="cls-4" d="M61.13,9.62h4.08v1.2H63.83V18H62.51v-7.2H61.13Z"/><path class="cls-4" d="M65.79,9.62h1.32V18H65.79Z"/><path class="cls-4" d="M70.06,16.47l1-6.85h1.21L71,18H69l-1.3-8.4h1.33Z"/><path class="cls-4" d="M33.83,30.82H32.51v-8.4h1.32V26h1.5v-3.6h1.35v8.4H35.33v-3.6h-1.5Z"/><path class="cls-4" d="M37.53,24.44a2,2,0,1,1,4,0V28.8a2,2,0,1,1-4,0Zm1.32,4.45c0,.6.26.82.68.82s.69-.22.69-.82V24.35c0-.6-.27-.82-.69-.82s-.68.22-.68.82Z"/><path class="cls-4" d="M46.22,27.69V28.8a1.84,1.84,0,0,1-2,2.11c-1.3,0-2-.76-2-2.11V24.44c0-1.35.67-2.11,2-2.11a1.84,1.84,0,0,1,2,2.11v.81H45v-.9c0-.6-.27-.82-.69-.82s-.68.22-.68.82v4.54c0,.6.26.81.68.81s.69-.21.69-.81v-1.2Z"/><path class="cls-4" d="M48.34,30.82H47v-8.4h1.32V26h1.5v-3.6h1.34v8.4H49.84v-3.6h-1.5Z"/><path class="cls-4" d="M55.07,26.34l-.48,4.48H52.78l-.94-8.4h1.29L53.84,29l.63-6.62h1.27l.66,6.67.69-6.67h1.15l-.94,8.4H55.55Z"/><path class="cls-4" d="M60.22,26H62v1.2H60.22v2.46H62.5v1.2H58.9v-8.4h3.6v1.2H60.22Z"/><path class="cls-4" d="M66.08,30.82a2.45,2.45,0,0,1-.12-1V28.47c0-.78-.27-1.07-.87-1.07h-.45v3.42H63.32v-8.4h2c1.37,0,2,.64,2,1.93V25a1.68,1.68,0,0,1-.86,1.71c.66.27.87.91.87,1.78v1.3a2.49,2.49,0,0,0,.15,1Zm-1.44-7.2V26.2h.51c.49,0,.79-.22.79-.89v-.82c0-.61-.2-.87-.67-.87Z"/><path class="cls-4" d="M67.76,22.42h4.08v1.2H70.46v7.2H69.14v-7.2H67.76Z"/><path class="cls-4" d="M72.41,22.42h1.32v8.4H72.41Z"/><path class="cls-4" d="M76.67,26.14h1.85V28.8c0,1.35-.67,2.11-2,2.11s-2-.76-2-2.11V24.44c0-1.35.67-2.11,2-2.11s2,.76,2,2.11v.81H77.27v-.9c0-.6-.26-.82-.68-.82s-.69.22-.69.82v4.54c0,.6.27.81.69.81s.68-.21.68-.81V27.34h-.6Z"/><path class="cls-4" d="M80.69,26H82.5v1.2H80.69v2.46H83v1.2h-3.6v-8.4H83v1.2H80.69Z"/><path class="cls-4" d="M36.46,37.15v.3a1.63,1.63,0,0,1-.85,1.69,1.71,1.71,0,0,1,1,1.8v.69a1.78,1.78,0,0,1-2,2H32.51v-8.4h2C35.87,35.22,36.46,35.86,36.46,37.15Zm-2.63-.73v2.22h.52c.49,0,.79-.22.79-.89v-.47c0-.6-.2-.86-.67-.86Zm0,3.42v2.58h.76c.44,0,.68-.21.68-.83v-.73c0-.78-.25-1-.85-1Z"/><path class="cls-4" d="M37.39,35.22H38.7v8.4H37.39Z"/><path class="cls-4" d="M39.67,35.22H41v7.2h2.18v1.2H39.67Z"/><path class="cls-4" d="M43.73,35.22h2.09c1.32,0,2,.73,2,2.08v4.24c0,1.35-.65,2.08-2,2.08H43.73Zm1.32,1.2v6h.75c.42,0,.67-.22.67-.82V37.24c0-.6-.25-.82-.67-.82Z"/><path class="cls-4" d="M49.89,35.22V41.7c0,.6.26.81.68.81s.69-.21.69-.81V35.22H52.5v6.39c0,1.35-.67,2.12-2,2.12s-2-.77-2-2.12V35.22Z"/><path class="cls-4" d="M54.58,37.54v6.08H53.39v-8.4h1.66l1.35,5v-5h1.18v8.4H56.22Z"/><path class="cls-4" d="M60.51,38.94h1.85V41.6a1.84,1.84,0,0,1-2,2.11c-1.3,0-2-.76-2-2.11V37.24c0-1.35.67-2.11,2-2.11a1.84,1.84,0,0,1,2,2.11v.81H61.11v-.9c0-.6-.27-.82-.68-.82s-.69.22-.69.82v4.54c0,.6.27.81.69.81s.68-.21.68-.81V40.14h-.6Z"/></g></g></svg>