<svg xmlns="http://www.w3.org/2000/svg" viewBox="0 0 378.08 212.67"><defs><style>.cls-1{fill:#00336a;}.cls-2,.cls-3{fill:#fff;}.cls-3{font-size:14px;font-family:BebasNeueBold, Bebas Neue;}</style></defs><g id="Capa_2" data-name="Capa 2"><g id="Capa_1-2" data-name="Capa 1"><rect class="cls-1" width="378.08" height="212.67"/><path class="cls-2" d="M214.48,125.38a13,13,0,0,1-4.73,9.81.61.61,0,0,0-.22.72A13.12,13.12,0,0,1,198.72,152a12.82,12.82,0,0,1-8.87-1.86.53.53,0,0,0-.68,0,13.12,13.12,0,0,1-20-8.74,12.85,12.85,0,0,1,.23-5.62.43.43,0,0,0-.17-.54,12.89,12.89,0,0,1-4.76-11.17,13.11,13.11,0,0,1,10.43-11.81,12.67,12.67,0,0,1,1.72-.23.59.59,0,0,0,.61-.45,12.89,12.89,0,0,1,6.12-6.84,13.1,13.1,0,0,1,18.2,6.62.93.93,0,0,0,.94.68,13.12,13.12,0,0,1,11.41,9.29A14.22,14.22,0,0,1,214.48,125.38Zm-25-5.82a13.32,13.32,0,0,1,9.57-7.35c-.94-3.33-5.4-6.3-9.49-6.32a10.37,10.37,0,0,0-9.66,6.32A13.33,13.33,0,0,1,189.45,119.56Zm-13-4.81c-3.57-.13-7.85,3.5-9,7.57a10.27,10.27,0,0,0,3.12,10.54,13.28,13.28,0,0,1,10-6.77A13.25,13.25,0,0,1,176.42,114.75Zm10.93,33.42a13.21,13.21,0,0,1-3.47-11.51,13.24,13.24,0,0,1-12,.33,10.43,10.43,0,0,0,15.49,11.18Zm21-15.31a10.44,10.44,0,0,0-2.09-17,9.79,9.79,0,0,0-3.82-1.17,13.17,13.17,0,0,1-.69,6.15,13.5,13.5,0,0,1-3.39,5.14A13.29,13.29,0,0,1,208.38,132.86ZM207,137a13.15,13.15,0,0,1-12-.35,13.24,13.24,0,0,1-3.34,11.51,10.32,10.32,0,0,0,11.66-.87C206.39,144.82,208.25,139.7,207,137Zm-15-7.21a10.34,10.34,0,0,0,14.16,4.65A10.34,10.34,0,0,0,192,129.77Zm-2.58,1.89a10.31,10.31,0,0,0,.11,14.86A10.39,10.39,0,0,0,189.41,131.66Zm-2.52-1.82a10.34,10.34,0,0,0-14.1,4.61A10.37,10.37,0,0,0,186.89,129.84Zm4.13-3.11c6.08-.81,9.82-6.91,8.74-11.91A10.36,10.36,0,0,0,191,126.73Zm-3.09,0a10.26,10.26,0,0,0-2.24-8.17,10.38,10.38,0,0,0-6.57-3.77A10.37,10.37,0,0,0,187.93,126.71Z"/><path class="cls-2" d="M145.54,56H146c3.22,0,6.45,0,9.67,0,.41,0,.46.15.49.51a19.07,19.07,0,0,1-.95,6.28c-1.28,5.34-2.58,10.67-3.85,16-.08.33-.21.42-.54.41-1.13,0-2.27,0-3.4,0H147c.82-3.32,1.63-6.6,2.43-9.88s1.61-6.57,2.44-9.92h-6.28Z"/><path class="cls-2" d="M138.43,60.59l-3.36,1.2v-1.3c0-.55,0-1.1,0-1.65a.4.4,0,0,1,.27-.43,15.36,15.36,0,0,0,4-2.32.56.56,0,0,1,.37-.1c.93,0,1.86,0,2.79,0,.3,0,.39.09.39.39,0,1.17,0,2.35,0,3.52V78.63c0,.54,0,.55-.55.55-1.13,0-2.27,0-3.4,0-.38,0-.47-.11-.47-.47q0-8.74,0-17.49Z"/><text class="cls-3" transform="translate(165.11 64.6)">Allianzen zur <tspan x="0" y="14.8">Erreichung </tspan><tspan x="0" y="29.6">der Ziele</tspan></text></g></g></svg>