<svg xmlns="http://www.w3.org/2000/svg" viewBox="0 0 378.08 212.67"><defs><style>.cls-1{fill:#00336a;}.cls-2{fill:#fff;}</style></defs><g id="Capa_2" data-name="Capa 2"><g id="Capa_1-2" data-name="Capa 1"><rect class="cls-1" width="378.08" height="212.67"/><path class="cls-2" d="M214.48,125.38a13,13,0,0,1-4.73,9.81.61.61,0,0,0-.22.72A13.12,13.12,0,0,1,198.72,152a12.82,12.82,0,0,1-8.87-1.86.53.53,0,0,0-.68,0,13.12,13.12,0,0,1-20-8.74,12.85,12.85,0,0,1,.23-5.62.43.43,0,0,0-.17-.54,12.89,12.89,0,0,1-4.76-11.17,13.11,13.11,0,0,1,10.43-11.81,12.67,12.67,0,0,1,1.72-.23.59.59,0,0,0,.61-.45,12.89,12.89,0,0,1,6.12-6.84,13.1,13.1,0,0,1,18.2,6.62.93.93,0,0,0,.94.68,13.12,13.12,0,0,1,11.41,9.29A14.22,14.22,0,0,1,214.48,125.38Zm-25-5.82a13.32,13.32,0,0,1,9.57-7.35c-.94-3.33-5.4-6.3-9.49-6.32a10.37,10.37,0,0,0-9.66,6.32A13.33,13.33,0,0,1,189.45,119.56Zm-13-4.81c-3.57-.13-7.85,3.5-9,7.57a10.27,10.27,0,0,0,3.12,10.54,13.28,13.28,0,0,1,10-6.77A13.25,13.25,0,0,1,176.42,114.75Zm10.93,33.42a13.21,13.21,0,0,1-3.47-11.51,13.24,13.24,0,0,1-12,.33,10.43,10.43,0,0,0,15.49,11.18Zm21-15.31a10.44,10.44,0,0,0-2.09-17,9.79,9.79,0,0,0-3.82-1.17,13.17,13.17,0,0,1-.69,6.15,13.5,13.5,0,0,1-3.39,5.14A13.29,13.29,0,0,1,208.38,132.86ZM207,137a13.15,13.15,0,0,1-12-.35,13.24,13.24,0,0,1-3.34,11.51,10.32,10.32,0,0,0,11.66-.87C206.39,144.82,208.25,139.7,207,137Zm-15-7.21a10.34,10.34,0,0,0,14.16,4.65A10.34,10.34,0,0,0,192,129.77Zm-2.58,1.89a10.31,10.31,0,0,0,.11,14.86A10.39,10.39,0,0,0,189.41,131.66Zm-2.52-1.82a10.34,10.34,0,0,0-14.1,4.61A10.37,10.37,0,0,0,186.89,129.84Zm4.13-3.11c6.08-.81,9.82-6.91,8.74-11.91A10.36,10.36,0,0,0,191,126.73Zm-3.09,0a10.26,10.26,0,0,0-2.24-8.17,10.38,10.38,0,0,0-6.57-3.77A10.37,10.37,0,0,0,187.93,126.71Z"/><path class="cls-2" d="M145.54,56H146c3.22,0,6.45,0,9.67,0,.41,0,.46.15.49.51a19.07,19.07,0,0,1-.95,6.28c-1.28,5.34-2.58,10.67-3.85,16-.08.33-.21.42-.54.41-1.13,0-2.27,0-3.4,0H147c.82-3.32,1.63-6.6,2.43-9.88s1.61-6.57,2.44-9.92h-6.28Z"/><path class="cls-2" d="M138.43,60.59l-3.36,1.2v-1.3c0-.55,0-1.1,0-1.65a.4.4,0,0,1,.27-.43,15.36,15.36,0,0,0,4-2.32.56.56,0,0,1,.37-.1c.93,0,1.86,0,2.79,0,.3,0,.39.09.39.39,0,1.17,0,2.35,0,3.52V78.63c0,.54,0,.55-.55.55-1.13,0-2.27,0-3.4,0-.38,0-.47-.11-.47-.47q0-8.74,0-17.49Z"/><path class="cls-2" d="M170.66,64.6h-1.55l-.27-1.78H167l-.27,1.78h-1.41l1.57-9.8h2.25Zm-3.51-3.11h1.48l-.74-5Z"/><path class="cls-2" d="M171.37,54.8h1.54v8.4h2.54v1.4h-4.08Z"/><path class="cls-2" d="M176.12,54.8h1.54v8.4h2.54v1.4h-4.08Z"/><path class="cls-2" d="M180.87,54.8h1.54v9.8h-1.54Z"/><path class="cls-2" d="M188.51,64.6H187l-.27-1.78H184.8l-.27,1.78h-1.41l1.57-9.8h2.25ZM185,61.49h1.48l-.74-5Z"/><path class="cls-2" d="M190.6,57.5v7.1h-1.39V54.8h1.93l1.59,5.86V54.8h1.37v9.8h-1.58Z"/><path class="cls-2" d="M199.47,54.8v1.37l-2.92,7h2.92v1.4H195V63.23l2.93-7H195.1V54.8Z"/><path class="cls-2" d="M201.92,58.93H204v1.4h-2.12V63.2h2.66v1.4h-4.2V54.8h4.2v1.4h-2.66Z"/><path class="cls-2" d="M206.91,57.5v7.1h-1.39V54.8h1.93L209,60.66V54.8h1.37v9.8h-1.58Z"/><path class="cls-2" d="M218,54.8v1.37l-2.92,7H218v1.4h-4.51V63.23l2.93-7h-2.79V54.8Z"/><path class="cls-2" d="M220.33,54.8v7.56c0,.7.31,1,.8,1s.8-.25.8-1V54.8h1.45v7.46c0,1.57-.78,2.47-2.29,2.47s-2.3-.9-2.3-2.47V54.8Z"/><path class="cls-2" d="M227.65,64.6a3.09,3.09,0,0,1-.14-1.2V61.86c0-.92-.3-1.25-1-1.25H226v4h-1.54V54.8h2.33c1.59,0,2.28.74,2.28,2.25v.77a2,2,0,0,1-1,2c.77.32,1,1.07,1,2.09v1.51a2.93,2.93,0,0,0,.17,1.19ZM226,56.2v3h.61c.57,0,.92-.25.92-1v-1c0-.7-.24-1-.78-1Z"/><path class="cls-2" d="M167.22,73.73h2.11v1.4h-2.11V78h2.66v1.4h-4.21V69.6h4.21V71h-2.66Z"/><path class="cls-2" d="M174.05,79.4a2.9,2.9,0,0,1-.14-1.2V76.66c0-.92-.31-1.25-1-1.25h-.53v4h-1.54V69.6h2.32c1.6,0,2.29.74,2.29,2.25v.77a2,2,0,0,1-1,2c.77.32,1,1.07,1,2.09v1.51a2.77,2.77,0,0,0,.17,1.19ZM172.37,71v3h.6c.57,0,.92-.25.92-1V72c0-.71-.23-1-.78-1Z"/><path class="cls-2" d="M179.68,79.4a2.9,2.9,0,0,1-.14-1.2V76.66c0-.92-.31-1.25-1-1.25H178v4h-1.54V69.6h2.32c1.6,0,2.28.74,2.28,2.25v.77a2,2,0,0,1-1,2c.78.32,1,1.07,1,2.09v1.51a2.77,2.77,0,0,0,.17,1.19ZM178,71v3h.6c.57,0,.92-.25.92-1V72c0-.71-.24-1-.78-1Z"/><path class="cls-2" d="M183.62,73.73h2.12v1.4h-2.12V78h2.67v1.4h-4.21V69.6h4.21V71h-2.67Z"/><path class="cls-2" d="M187.24,69.6h1.54v9.8h-1.54Z"/><path class="cls-2" d="M194.36,75.74v1.31c0,1.57-.78,2.46-2.29,2.46s-2.3-.89-2.3-2.46V72c0-1.57.78-2.47,2.3-2.47s2.29.9,2.29,2.47v1h-1.45V71.85c0-.7-.31-1-.8-1s-.8.27-.8,1v5.3c0,.7.31.95.8.95s.8-.25.8-.95V75.74Z"/><path class="cls-2" d="M196.84,79.4H195.3V69.6h1.54v4.2h1.75V69.6h1.57v9.8h-1.57V75.2h-1.75Z"/><path class="cls-2" d="M202.75,69.6v7.56c0,.7.31,1,.8,1s.79-.25.79-1V69.6h1.46v7.46c0,1.57-.78,2.47-2.3,2.47s-2.29-.9-2.29-2.47V69.6Z"/><path class="cls-2" d="M208.22,72.3v7.1h-1.39V69.6h1.94l1.58,5.86V69.6h1.37v9.8h-1.58Z"/><path class="cls-2" d="M215.14,73.94h2.15v3.11c0,1.57-.78,2.46-2.29,2.46a2.15,2.15,0,0,1-2.3-2.46V72c0-1.57.79-2.47,2.3-2.47s2.29.9,2.29,2.47v1h-1.45V71.85c0-.7-.31-1-.8-1s-.8.27-.8,1v5.3c0,.7.31.95.8.95s.8-.25.8-.95V75.34h-.7Z"/><path class="cls-2" d="M165.67,84.4h2.44c1.54,0,2.3.85,2.3,2.42v5c0,1.57-.76,2.42-2.3,2.42h-2.44Zm1.55,1.4v7h.86c.49,0,.79-.25.79-1v-5.1c0-.7-.3-1-.79-1Z"/><path class="cls-2" d="M172.93,88.53H175v1.4h-2.11V92.8h2.66v1.4h-4.2V84.4h4.2v1.4h-2.66Z"/><path class="cls-2" d="M179.76,94.2a3.05,3.05,0,0,1-.14-1.2V91.46c0-.91-.31-1.25-1-1.25h-.53v4h-1.54V84.4h2.32c1.6,0,2.29.74,2.29,2.25v.77a2,2,0,0,1-1,2c.77.32,1,1.07,1,2.09V93a2.93,2.93,0,0,0,.17,1.19Zm-1.68-8.4v3h.6c.58,0,.93-.25.93-1v-1c0-.7-.24-1-.79-1Z"/><path class="cls-2" d="M188.61,84.4v1.37l-2.93,7h2.93v1.4H184.1V92.83l2.93-7h-2.79V84.4Z"/><path class="cls-2" d="M189.52,84.4h1.54v9.8h-1.54Z"/><path class="cls-2" d="M193.72,88.53h2.11v1.4h-2.11V92.8h2.66v1.4h-4.2V84.4h4.2v1.4h-2.66Z"/><path class="cls-2" d="M197.33,84.4h1.54v8.4h2.54v1.4h-4.08Z"/><path class="cls-2" d="M203.62,88.53h2.11v1.4h-2.11V92.8h2.66v1.4h-4.2V84.4h4.2v1.4h-2.66Z"/></g></g></svg>