<svg xmlns="http://www.w3.org/2000/svg" viewBox="0 0 124.49 124.49"><defs><style>.cls-1{fill:#fff;}.cls-2{fill:#e58f14;}</style></defs><g id="Capa_2" data-name="Capa 2"><g id="Capa_1-2" data-name="Capa 1"><path class="cls-1" d="M48.89,91.23a7.38,7.38,0,0,1-.6-.46c-.68-.6-1.35-1.21-2-1.82-.38-.36-.31-.62.2-.76l10.74-3,.28-.07c.41-.1.6,0,.55.47-.08.75-.21,1.5-.33,2.24-.49,3-1,6-1.49,9a.77.77,0,0,1-.3.55c-.1,0-.38-.12-.53-.25-.7-.61-1.4-1.23-2.07-1.87a.46.46,0,0,0-.72,0,16.76,16.76,0,0,1-6.56,3c-6.72,1.34-12.71,0-17.63-5a16.06,16.06,0,0,1-4.65-9.5,25.74,25.74,0,0,1,.63-10.66C26.2,66.92,30.32,63,36.55,61.28a18.32,18.32,0,0,1,4.54-.67,19.08,19.08,0,0,1,13.83,5.18A36.94,36.94,0,0,1,61.8,74.6c1.31,2.26,2.49,4.6,3.75,6.9a27,27,0,0,0,5.7,7.5,18.17,18.17,0,0,0,9.11,4.47,11.33,11.33,0,0,0,13.58-9.33,19.8,19.8,0,0,0-.38-9.76c-1.32-4.24-4.32-6.72-8.53-7.83a13.3,13.3,0,0,0-5-.46,14.4,14.4,0,0,0-5.21,1.67,20.81,20.81,0,0,0-6.23,5.51c-.38.48-.74,1-1.11,1.45s-.58.41-.83,0c-.8-1.38-1.6-2.76-2.37-4.15a.76.76,0,0,1,0-.66c3-3.78,6.54-6.92,11.29-8.39a17.23,17.23,0,0,1,5.87-.94A19.56,19.56,0,0,1,93.75,65a16.4,16.4,0,0,1,5.11,8,23.59,23.59,0,0,1,.93,6.14,23.2,23.2,0,0,1-1.25,8.75,16.17,16.17,0,0,1-12.8,10.94,19.42,19.42,0,0,1-11.62-1.6c-5.72-2.51-9.74-6.81-12.79-12.11C60.15,83.1,59.12,81,58,78.9A41.17,41.17,0,0,0,52.4,71,15,15,0,0,0,43,66.09a13.25,13.25,0,0,0-5.47.62,11.11,11.11,0,0,0-6.58,4.92,13.72,13.72,0,0,0-1.79,5.42,21.55,21.55,0,0,0-.08,5.2,11.58,11.58,0,0,0,7.71,10.16,13.11,13.11,0,0,0,10.35-.23C47.68,91.94,48.21,91.6,48.89,91.23Z"/><path class="cls-1" d="M23.55,31.65c.25,0,.42,0,.59,0,1.93,0,3.86,0,5.78,0,.42,0,.55.12.53.53,0,.81,0,1.62,0,2.43,0,.29-.1.4-.4.4H19.12c-.31,0-.4-.12-.39-.41,0-.71,0-1.43,0-2.14a1.93,1.93,0,0,1,.27-.94c2.13-3.32,4.29-6.63,6.43-10a7.06,7.06,0,0,0,1.34-3.47,6.3,6.3,0,0,0-.15-1.68,1.44,1.44,0,0,0-1.34-1.16,1.67,1.67,0,0,0-1.9.91,11.57,11.57,0,0,0-.5,2.11,5.66,5.66,0,0,0,0,1.09c0,.23-.06.35-.32.35-1.17,0-2.34,0-3.52,0-.1,0-.3-.17-.3-.26a9.56,9.56,0,0,1,.93-5.1,5.15,5.15,0,0,1,4.23-2.67,8.7,8.7,0,0,1,3.33.23,4.87,4.87,0,0,1,3.67,4,8.82,8.82,0,0,1-1.48,6.78c-1.84,2.8-3.7,5.57-5.55,8.36C23.78,31.26,23.69,31.42,23.55,31.65Z"/><path class="cls-1" d="M11.77,16.44,8.5,17.61a2.9,2.9,0,0,1,0-.38c0-.76,0-1.53,0-2.3a.58.58,0,0,1,.4-.64,15.26,15.26,0,0,0,3.76-2.2A.65.65,0,0,1,13,12h2.71c.28,0,.41.09.39.37a1.92,1.92,0,0,0,0,.24V34.42c0,.62,0,.62-.62.62H12.41c-.58,0-.58,0-.58-.58V19.72c0-.9,0-1.81,0-2.71A4.4,4.4,0,0,0,11.77,16.44Z"/><path class="cls-2" d="M124.49,0H0V124.49H124.49ZM16.11,12.31a1.92,1.92,0,0,0,0,.24V34.42c0,.62,0,.62-.62.62H12.41c-.58,0-.58,0-.58-.58V19.72c0-.9,0-1.81,0-2.71a4.4,4.4,0,0,0-.05-.57L8.5,17.61a2.9,2.9,0,0,1,0-.38c0-.76,0-1.53,0-2.3a.58.58,0,0,1,.4-.64,15.26,15.26,0,0,0,3.76-2.2A.65.65,0,0,1,13,12h2.71C16,11.93,16.13,12,16.11,12.31Zm2.62,22.32c0-.71,0-1.43,0-2.14a1.93,1.93,0,0,1,.27-.94c2.13-3.32,4.29-6.63,6.43-10a7.06,7.06,0,0,0,1.34-3.47,6.3,6.3,0,0,0-.15-1.68,1.44,1.44,0,0,0-1.34-1.16,1.67,1.67,0,0,0-1.9.91,11.57,11.57,0,0,0-.5,2.11,5.66,5.66,0,0,0,0,1.09c0,.23-.06.35-.32.35-1.17,0-2.34,0-3.52,0-.1,0-.3-.17-.3-.26a9.56,9.56,0,0,1,.93-5.1,5.15,5.15,0,0,1,4.23-2.67,8.7,8.7,0,0,1,3.33.23,4.87,4.87,0,0,1,3.67,4,8.82,8.82,0,0,1-1.48,6.78c-1.84,2.8-3.7,5.57-5.55,8.36-.1.15-.19.31-.33.54.25,0,.42,0,.59,0,1.93,0,3.86,0,5.78,0,.42,0,.55.12.53.53,0,.81,0,1.62,0,2.43,0,.29-.1.4-.4.4H19.12C18.81,35,18.72,34.92,18.73,34.63ZM98.54,87.92a16.17,16.17,0,0,1-12.8,10.94,19.34,19.34,0,0,1-11.62-1.6c-5.72-2.51-9.74-6.81-12.79-12.11C60.15,83.1,59.12,81,58,78.9A41.17,41.17,0,0,0,52.4,71,15,15,0,0,0,43,66.09a13.25,13.25,0,0,0-5.47.62,11.11,11.11,0,0,0-6.58,4.92,13.72,13.72,0,0,0-1.79,5.42,21.55,21.55,0,0,0-.08,5.2,11.58,11.58,0,0,0,7.71,10.16,13.11,13.11,0,0,0,10.35-.23c.56-.24,1.09-.58,1.77-1a7.38,7.38,0,0,1-.6-.46c-.68-.6-1.35-1.21-2-1.82-.38-.36-.31-.62.2-.76l10.74-3,.28-.07c.41-.1.6,0,.55.47-.08.75-.21,1.5-.33,2.24-.49,3-1,6-1.49,9a.77.77,0,0,1-.3.55c-.1,0-.38-.12-.53-.25-.7-.61-1.4-1.23-2.07-1.87a.46.46,0,0,0-.72,0,16.76,16.76,0,0,1-6.56,3c-6.72,1.34-12.71,0-17.63-5a16.06,16.06,0,0,1-4.65-9.5,25.74,25.74,0,0,1,.63-10.66C26.2,66.92,30.32,63,36.55,61.28a18.32,18.32,0,0,1,4.54-.67,19.08,19.08,0,0,1,13.83,5.18A36.94,36.94,0,0,1,61.8,74.6c1.31,2.26,2.49,4.6,3.75,6.9a27,27,0,0,0,5.7,7.5,18.17,18.17,0,0,0,9.11,4.47,11.33,11.33,0,0,0,13.58-9.33,19.8,19.8,0,0,0-.38-9.76c-1.32-4.24-4.32-6.72-8.53-7.83a13.3,13.3,0,0,0-5-.46,14.4,14.4,0,0,0-5.21,1.67,20.81,20.81,0,0,0-6.23,5.51c-.38.48-.74,1-1.11,1.45s-.58.41-.83,0c-.8-1.38-1.6-2.76-2.37-4.15a.76.76,0,0,1,0-.66c3-3.78,6.54-6.92,11.29-8.39a17.23,17.23,0,0,1,5.87-.94A19.56,19.56,0,0,1,93.75,65a16.4,16.4,0,0,1,5.11,8,23.59,23.59,0,0,1,.93,6.14A23.2,23.2,0,0,1,98.54,87.92Z"/><path class="cls-1" d="M36.46,15.33l.83-5.7h1l-1.08,7H35.59l-1.08-7h1.11Z"/><path class="cls-1" d="M39.92,12.57h1.5v1h-1.5v2h1.89v1h-3v-7h3v1H39.92Z"/><path class="cls-1" d="M44.79,16.62a2.15,2.15,0,0,1-.1-.86v-1.1c0-.65-.22-.89-.72-.89h-.38v2.85H42.5v-7h1.65c1.14,0,1.63.52,1.63,1.6v.55a1.4,1.4,0,0,1-.72,1.42c.55.23.73.76.73,1.49v1.08a2.06,2.06,0,0,0,.12.85Zm-1.2-6v2.15H44c.41,0,.66-.18.66-.74v-.69c0-.5-.17-.72-.55-.72Z"/><path class="cls-1" d="M50.07,16.62H49l-.19-1.27H47.42l-.19,1.27h-1l1.11-7H49ZM47.56,14.4h1.06l-.53-3.54Z"/><path class="cls-1" d="M51.56,11.55v5.07h-1v-7H52l1.13,4.18V9.63h1v7H52.93Z"/><path class="cls-1" d="M54.54,9.63h3.39v1H56.78v6h-1.1v-6H54.54Z"/><path class="cls-1" d="M60.85,12.89l-.4,3.73H58.94l-.77-7h1.06l.59,5.51.53-5.51h1.06L62,15.18l.57-5.55h1l-.78,7H61.25Z"/><path class="cls-1" d="M64,11.3a1.67,1.67,0,1,1,3.34,0v3.64a1.67,1.67,0,1,1-3.34,0ZM65.05,15c0,.5.22.69.57.69s.57-.19.57-.69V11.23c0-.5-.22-.69-.57-.69s-.57.19-.57.69Z"/><path class="cls-1" d="M70.3,16.62a2.15,2.15,0,0,1-.1-.86v-1.1c0-.65-.22-.89-.72-.89H69.1v2.85H68v-7h1.66c1.14,0,1.63.52,1.63,1.6v.55a1.4,1.4,0,0,1-.72,1.42c.55.23.73.76.73,1.49v1.08a2.06,2.06,0,0,0,.12.85Zm-1.2-6v2.15h.43c.41,0,.66-.18.66-.74v-.69c0-.5-.17-.72-.56-.72Z"/><path class="cls-1" d="M71.7,9.63h3.4v1H74v6h-1.1v-6H71.7Z"/><path class="cls-1" d="M76.63,9.63V15c0,.5.22.68.57.68s.57-.18.57-.68V9.63h1V15c0,1.12-.56,1.76-1.64,1.76s-1.64-.64-1.64-1.76V9.63Z"/><path class="cls-1" d="M80.54,11.55v5.07h-1v-7h1.38l1.13,4.18V9.63h1v7H81.91Z"/><path class="cls-1" d="M85.48,12.72H87v2.22c0,1.12-.56,1.76-1.64,1.76s-1.64-.64-1.64-1.76V11.3a1.64,1.64,0,1,1,3.28,0V12H86v-.75c0-.5-.22-.69-.57-.69s-.57.19-.57.69V15c0,.5.22.68.57.68S86,15.51,86,15V13.72h-.5Z"/><path class="cls-1" d="M89.21,9.55c1.07,0,1.62.63,1.62,1.75v.22h-1v-.29c0-.5-.2-.69-.55-.69s-.55.19-.55.69c0,1.44,2.15,1.71,2.15,3.71,0,1.12-.56,1.76-1.64,1.76s-1.64-.64-1.64-1.76v-.43h1V15c0,.5.22.68.57.68s.57-.18.57-.68c0-1.44-2.15-1.71-2.15-3.71C87.59,10.18,88.14,9.55,89.21,9.55Z"/><path class="cls-1" d="M93.12,15.33,94,9.63h1l-1.08,7H92.25l-1.08-7h1.11Z"/><path class="cls-1" d="M95.38,11.3a1.67,1.67,0,1,1,3.34,0v3.64a1.67,1.67,0,1,1-3.34,0ZM96.48,15c0,.5.22.69.57.69s.57-.19.57-.69V11.23c0-.5-.22-.69-.57-.69s-.57.19-.57.69Z"/><path class="cls-1" d="M99.43,9.63h1.1v6h1.81v1H99.43Z"/><path class="cls-1" d="M102.82,9.63h1.1v6h1.81v1h-2.91Z"/><path class="cls-1" d="M107.31,12.57h1.51v1h-1.51v2h1.9v1h-3v-7h3v1h-1.9Z"/><path class="cls-1" d="M38.05,22.15v.91c0,1.12-.54,1.73-1.63,1.73H35.9v2.63H34.8v-7h1.62C37.51,20.42,38.05,21,38.05,22.15Zm-2.15-.73v2.37h.52c.35,0,.54-.16.54-.66V22.08c0-.5-.19-.66-.54-.66Z"/><path class="cls-1" d="M40.92,27.42a2.15,2.15,0,0,1-.1-.86v-1.1c0-.65-.22-.89-.72-.89h-.38v2.85h-1.1v-7h1.66c1.14,0,1.62.53,1.62,1.61v.55A1.41,1.41,0,0,1,41.19,24c.54.23.73.76.73,1.49v1.08a1.91,1.91,0,0,0,.12.85Zm-1.2-6v2.15h.43c.41,0,.66-.18.66-.74v-.69c0-.5-.17-.72-.56-.72Z"/><path class="cls-1" d="M42.55,22.1a1.67,1.67,0,1,1,3.33,0v3.64a1.67,1.67,0,1,1-3.33,0Zm1.1,3.71c0,.5.22.69.56.69s.58-.19.58-.69V22c0-.5-.22-.69-.58-.69s-.56.19-.56.69Z"/><path class="cls-1" d="M46.6,20.42h1.74c1.09,0,1.63.61,1.63,1.73v3.54c0,1.12-.54,1.73-1.63,1.73H46.6Zm1.1,1v5h.62c.35,0,.56-.18.56-.68V22.1c0-.5-.21-.68-.56-.68Z"/><path class="cls-1" d="M51.73,20.42v5.4c0,.5.22.68.56.68s.58-.18.58-.68v-5.4h1v5.33c0,1.12-.56,1.76-1.63,1.76s-1.64-.64-1.64-1.76V20.42Z"/><path class="cls-1" d="M56.09,24.63l-.34.64v2.15H54.66v-7h1.09v3l1.44-3h1.1l-1.53,3.12,1.53,3.88H57.16Z"/><path class="cls-1" d="M58.48,20.42h3.39v1H60.72v6H59.63v-6H58.48Z"/><path class="cls-1" d="M62.35,20.42h1.1v7h-1.1Z"/><path class="cls-1" d="M64.16,22.1a1.67,1.67,0,1,1,3.34,0v3.64a1.67,1.67,0,1,1-3.34,0Zm1.1,3.71c0,.5.22.69.57.69s.57-.19.57-.69V22c0-.5-.22-.69-.57-.69s-.57.19-.57.69Z"/><path class="cls-1" d="M69.19,22.35v5.07h-1v-7h1.38l1.13,4.19V20.42h1v7H70.56Z"/><path class="cls-1" d="M75.08,20.42v5.4c0,.5.22.68.57.68s.57-.18.57-.68v-5.4h1v5.33c0,1.12-.56,1.76-1.64,1.76S74,26.87,74,25.75V20.42Z"/><path class="cls-1" d="M79,22.35v5.07H78v-7h1.38l1.13,4.19V20.42h1v7H80.36Z"/><path class="cls-1" d="M82.28,20.42H84c1.1,0,1.64.61,1.64,1.73v3.54c0,1.12-.54,1.73-1.64,1.73H82.28Zm1.1,1v5H84c.35,0,.56-.18.56-.68V22.1c0-.5-.21-.68-.56-.68Z"/><path class="cls-1" d="M36.46,36.93l.83-5.71h1l-1.08,7H35.59l-1.08-7h1.11Z"/><path class="cls-1" d="M39.92,34.17h1.5v1h-1.5v2h1.89v1h-3v-7h3v1H39.92Z"/><path class="cls-1" d="M44.79,38.22a2.15,2.15,0,0,1-.1-.86v-1.1c0-.65-.22-.89-.72-.89h-.38v2.85H42.5v-7h1.65c1.14,0,1.63.53,1.63,1.61v.55a1.4,1.4,0,0,1-.72,1.42c.55.23.73.76.73,1.49v1.08a2.06,2.06,0,0,0,.12.85Zm-1.2-6v2.15H44c.41,0,.66-.18.66-.74v-.69c0-.5-.17-.72-.55-.72Z"/><path class="cls-1" d="M50.07,38.22H49L48.77,37H47.42l-.19,1.27h-1l1.11-7H49ZM47.56,36h1.06l-.53-3.54Z"/><path class="cls-1" d="M51.56,33.15v5.07h-1v-7H52l1.13,4.19V31.22h1v7H52.93Z"/><path class="cls-1" d="M54.54,31.22h3.39v1H56.78v6h-1.1v-6H54.54Z"/><path class="cls-1" d="M60.85,34.49l-.4,3.73H58.94l-.77-7h1.06l.59,5.52.53-5.52h1.06L62,36.78l.57-5.56h1l-.78,7H61.25Z"/><path class="cls-1" d="M64,32.9a1.67,1.67,0,1,1,3.34,0v3.64a1.67,1.67,0,1,1-3.34,0Zm1.1,3.71c0,.5.22.69.57.69s.57-.19.57-.69V32.83c0-.5-.22-.69-.57-.69s-.57.19-.57.69Z"/><path class="cls-1" d="M70.3,38.22a2.15,2.15,0,0,1-.1-.86v-1.1c0-.65-.22-.89-.72-.89H69.1v2.85H68v-7h1.66c1.14,0,1.63.53,1.63,1.61v.55a1.4,1.4,0,0,1-.72,1.42c.55.23.73.76.73,1.49v1.08a2.06,2.06,0,0,0,.12.85Zm-1.2-6v2.15h.43c.41,0,.66-.18.66-.74v-.69c0-.5-.17-.72-.56-.72Z"/><path class="cls-1" d="M71.7,31.22h3.4v1H74v6h-1.1v-6H71.7Z"/><path class="cls-1" d="M76.63,31.22v5.4c0,.5.22.68.57.68s.57-.18.57-.68v-5.4h1v5.33c0,1.12-.56,1.76-1.64,1.76s-1.64-.64-1.64-1.76V31.22Z"/><path class="cls-1" d="M80.54,33.15v5.07h-1v-7h1.38l1.13,4.19V31.22h1v7H81.91Z"/><path class="cls-1" d="M85.48,34.32H87v2.22c0,1.12-.56,1.76-1.64,1.76s-1.64-.64-1.64-1.76V32.9c0-1.12.56-1.76,1.64-1.76S87,31.78,87,32.9v.68H86v-.75c0-.5-.22-.69-.57-.69s-.57.19-.57.69v3.78c0,.5.22.68.57.68s.57-.18.57-.68V35.32h-.5Z"/><path class="cls-1" d="M89.21,31.14c1.07,0,1.62.64,1.62,1.76v.22h-1v-.29c0-.5-.2-.69-.55-.69s-.55.19-.55.69c0,1.44,2.15,1.71,2.15,3.71,0,1.12-.56,1.76-1.64,1.76s-1.64-.64-1.64-1.76v-.43h1v.5c0,.5.22.68.57.68s.57-.18.57-.68c0-1.44-2.15-1.71-2.15-3.71C87.59,31.78,88.14,31.14,89.21,31.14Z"/><path class="cls-1" d="M93.12,36.93,94,31.22h1l-1.08,7H92.25l-1.08-7h1.11Z"/><path class="cls-1" d="M95.38,32.9a1.67,1.67,0,1,1,3.34,0v3.64a1.67,1.67,0,1,1-3.34,0Zm1.1,3.71c0,.5.22.69.57.69s.57-.19.57-.69V32.83c0-.5-.22-.69-.57-.69s-.57.19-.57.69Z"/><path class="cls-1" d="M99.43,31.22h1.1v6h1.81v1H99.43Z"/><path class="cls-1" d="M102.82,31.22h1.1v6h1.81v1h-2.91Z"/><path class="cls-1" d="M107.31,34.17h1.51v1h-1.51v2h1.9v1h-3v-7h3v1h-1.9Z"/><path class="cls-1" d="M112.19,38.22a2.15,2.15,0,0,1-.1-.86v-1.1c0-.65-.22-.89-.72-.89H111v2.85h-1.1v-7h1.66c1.14,0,1.63.53,1.63,1.61v.55a1.4,1.4,0,0,1-.72,1.42c.55.23.73.76.73,1.49v1.08a2.06,2.06,0,0,0,.12.85Zm-1.2-6v2.15h.43c.41,0,.66-.18.66-.74v-.69c0-.5-.17-.72-.56-.72Z"/><path class="cls-1" d="M36.46,47.73l.83-5.7h1l-1.08,7H35.59l-1.08-7h1.11Z"/><path class="cls-1" d="M39.92,45h1.5v1h-1.5V48h1.89v1h-3V42h3v1H39.92Z"/><path class="cls-1" d="M44.79,49a2.15,2.15,0,0,1-.1-.86v-1.1c0-.65-.22-.89-.72-.89h-.38V49H42.5V42h1.65c1.14,0,1.63.52,1.63,1.6v.55a1.4,1.4,0,0,1-.72,1.42c.55.23.73.76.73,1.49v1.08a2.06,2.06,0,0,0,.12.85Zm-1.2-6v2.15H44c.41,0,.66-.18.66-.74v-.69c0-.49-.17-.72-.55-.72Z"/><path class="cls-1" d="M49.8,43.63v.25a1.37,1.37,0,0,1-.71,1.41,1.42,1.42,0,0,1,.82,1.5v.57A1.49,1.49,0,0,1,48.24,49H46.51V42h1.66C49.31,42,49.8,42.55,49.8,43.63ZM47.61,43v1.85H48c.41,0,.66-.18.66-.74v-.39c0-.49-.17-.72-.56-.72Zm0,2.85V48h.63c.37,0,.57-.17.57-.69v-.61c0-.65-.21-.85-.71-.85Z"/><path class="cls-1" d="M52.87,49a2.15,2.15,0,0,1-.1-.86v-1.1c0-.65-.22-.89-.72-.89h-.38V49h-1.1V42h1.66c1.14,0,1.63.52,1.63,1.6v.55a1.4,1.4,0,0,1-.72,1.42c.55.23.73.76.73,1.49v1.08A2.06,2.06,0,0,0,54,49Zm-1.2-6v2.15h.43c.41,0,.66-.18.66-.74v-.69c0-.49-.17-.72-.56-.72Z"/><path class="cls-1" d="M58.15,49H57l-.19-1.27H55.5L55.31,49h-1l1.12-7H57ZM55.64,46.8H56.7l-.53-3.54Z"/><path class="cls-1" d="M59.71,42v5.39c0,.5.22.68.57.68s.57-.18.57-.68V42h1v5.32c0,1.12-.56,1.76-1.64,1.76s-1.64-.64-1.64-1.76V42Z"/><path class="cls-1" d="M65.83,46.41v.93c0,1.12-.56,1.76-1.64,1.76s-1.64-.64-1.64-1.76V43.7a1.64,1.64,0,1,1,3.28,0v.68h-1v-.75c0-.5-.22-.69-.57-.69s-.57.19-.57.69v3.78c0,.5.22.68.57.68s.57-.18.57-.68v-1Z"/><path class="cls-1" d="M67.6,49H66.5V42h1.1v3h1.25V42H70v7H68.85V46H67.6Z"/></g></g></svg>