<svg xmlns="http://www.w3.org/2000/svg" viewBox="0 0 378.08 212.67"><defs><style>.cls-1{fill:#9b1135;}.cls-2{fill:#fefefe;}.cls-3{fill:#8e1838;}.cls-4{fill:#fff;}</style></defs><g id="Capa_2" data-name="Capa 2"><g id="Capa_1-2" data-name="Capa 1"><rect class="cls-1" width="378.08" height="212.67"/><path class="cls-2" d="M214.78,138.93v19.44c0,.77-.15.92-.91.92H203.5c-.69,0-.86-.17-.86-.86q0-13.92,0-27.85a2.33,2.33,0,0,1,.79-1.82l5.93-5.62,4.34-4.13.11-.11c.21-.17.4-.43.7-.3s.28.46.28.74Z"/><path class="cls-2" d="M199.66,146.29v12.1c0,.74-.16.9-.9.9h-10.4c-.68,0-.86-.18-.86-.87v-23.8c0-.29-.06-.65.26-.79s.55.14.76.34L193,138.7c.37.38.39.38.76,0,1.62-1.62,3.23-3.25,4.85-4.88.22-.22.44-.54.81-.38s.27.53.27.83Z"/><path class="cls-2" d="M218.29,106.34c.33,0,.4.22.33.51l-1,4.46c-.26,1.21-.52,2.43-.77,3.64,0,.16,0,.33-.25.38a.43.43,0,0,1-.42-.17l-1.65-1.67c-.13-.14-.21-.15-.35,0l-4.77,4.79c-1.82,1.82-3.65,3.63-5.47,5.46l-5.35,5.35-4.95,5c-.26.26-.44.2-.67,0l-5.3-5.34c-.94-.93-1.87-1.86-2.8-2.8-.15-.15-.23-.16-.38,0l-8,8c-1.69,1.69-3.4,3.36-5.08,5.05-.26.27-.43.28-.69,0-.64-.67-1.3-1.33-2-2-.25-.24-.26-.42,0-.67,2-2,4.07-4.06,6.1-6.09l5.85-5.87c1.23-1.23,2.47-2.45,3.7-3.69.21-.21.37-.19.58,0l5.29,5.29c.95,1,1.9,1.89,2.83,2.85.22.22.32.15.51,0,2.81-2.83,5.64-5.65,8.46-8.47,3.11-3.11,6.22-6.23,9.34-9.32.26-.27.23-.4,0-.62-.54-.52-1.06-1-1.58-1.58-.26-.27-.2-.5.15-.58l8.05-1.8Z"/><path class="cls-2" d="M184.28,145.46v12.91c0,.77-.14.92-.92.92H173c-.75,0-.91-.16-.91-.89,0-4.9,0-9.8,0-14.7a2.37,2.37,0,0,1,.78-1.82c2.81-2.63,5.59-5.28,8.37-7.93l2-1.93c.2-.19.41-.45.73-.31s.26.45.26.71Z"/><path class="cls-2" d="M152,72.36a5.1,5.1,0,0,1,2.53,3.77,10.23,10.23,0,0,1-.14,4.73A5.15,5.15,0,0,1,149.52,85a9.57,9.57,0,0,1-3-.13,4.93,4.93,0,0,1-3.83-3.29,10,10,0,0,1-.31-5.89,4.88,4.88,0,0,1,2.43-3.33l-.65-.66a5.92,5.92,0,0,1-1.66-3.77,8.91,8.91,0,0,1,.25-3.21,5.13,5.13,0,0,1,4.92-3.82,7.78,7.78,0,0,1,3,.3,4.65,4.65,0,0,1,3.19,3.08,8.29,8.29,0,0,1-.23,6A5.77,5.77,0,0,1,152,72.36Z"/><path class="cls-3" d="M146.49,78a7.61,7.61,0,0,1,.3-2.47,1.58,1.58,0,0,1,1.87-1.23A1.47,1.47,0,0,1,150,75.57a8.37,8.37,0,0,1-.07,5.05,1.4,1.4,0,0,1-1.58,1.1,1.5,1.5,0,0,1-1.52-1.16A7.17,7.17,0,0,1,146.49,78Z"/><path class="cls-3" d="M146.68,67.35a4.42,4.42,0,0,1,.38-2.21,1.42,1.42,0,0,1,1.39-.86,1.31,1.31,0,0,1,1.28.93A6.08,6.08,0,0,1,150,68.4a4.53,4.53,0,0,1-.37,1.4,1.31,1.31,0,0,1-1.21.86,1.34,1.34,0,0,1-1.23-.84A5.68,5.68,0,0,1,146.68,67.35Z"/><path class="cls-4" d="M167,67.15l.82-5.47h1.69v7.71h-1.15V63.86l-.83,5.53h-1.15l-.9-5.45v5.45h-1.05V61.68h1.68Z"/><path class="cls-4" d="M171.56,64.93h1.66V66h-1.66v2.26h2.09v1.1h-3.3V61.68h3.3v1.11h-2.09Z"/><path class="cls-4" d="M175.47,63.81v5.58h-1.09V61.68h1.52l1.25,4.61V61.68h1.07v7.71H177Z"/><path class="cls-4" d="M180.72,61.6c1.18,0,1.78.7,1.78,1.93v.25h-1.14v-.32c0-.55-.22-.76-.61-.76s-.6.21-.6.76c0,1.58,2.36,1.88,2.36,4.08,0,1.23-.61,1.93-1.8,1.93s-1.8-.7-1.8-1.93v-.48h1.14v.55c0,.55.24.75.63.75s.62-.2.62-.75c0-1.58-2.36-1.88-2.36-4.08C178.94,62.3,179.54,61.6,180.72,61.6Z"/><path class="cls-4" d="M186.72,66.51v1a1.69,1.69,0,0,1-1.81,1.93c-1.19,0-1.8-.7-1.8-1.93v-4c0-1.23.61-1.93,1.8-1.93a1.69,1.69,0,0,1,1.81,1.93v.75h-1.15v-.82c0-.55-.24-.76-.62-.76s-.63.21-.63.76v4.15c0,.55.24.75.63.75s.62-.2.62-.75v-1.1Z"/><path class="cls-4" d="M188.66,69.39h-1.21V61.68h1.21V65H190V61.68h1.23v7.71H190V66.08h-1.38Z"/><path class="cls-4" d="M193.36,64.93H195V66h-1.66v2.26h2.09v1.1h-3.3V61.68h3.3v1.11h-2.09Z"/><path class="cls-4" d="M197.28,63.81v5.58h-1.09V61.68h1.52L199,66.29V61.68H200v7.71h-1.25Z"/><path class="cls-4" d="M203.58,65.28l-.44,4.11h-1.66l-.86-7.71h1.18l.65,6.08.58-6.08h1.17l.6,6.12.63-6.12h1.06l-.86,7.71H204Z"/><path class="cls-4" d="M208.24,61.68v5.95c0,.55.25.74.63.74s.63-.19.63-.74V61.68h1.14v5.87c0,1.23-.61,1.93-1.8,1.93A1.69,1.69,0,0,1,207,67.55V61.68Zm.31-1.46v1.06h-1.06V60.22Zm1.67,0v1.06h-1.05V60.22Z"/><path class="cls-4" d="M214,69.39a2.31,2.31,0,0,1-.11-1V67.23c0-.72-.25-1-.8-1h-.41v3.14h-1.21V61.68h1.82c1.26,0,1.8.59,1.8,1.78v.6a1.53,1.53,0,0,1-.8,1.56c.61.26.81.84.81,1.64v1.19a2.33,2.33,0,0,0,.13.94Zm-1.32-6.6v2.36h.47c.45,0,.73-.2.73-.81v-.76c0-.55-.19-.79-.62-.79Z"/><path class="cls-4" d="M215.89,61.68h1.91c1.21,0,1.81.68,1.81,1.91v3.89c0,1.23-.6,1.91-1.81,1.91h-1.91Zm1.21,1.11v5.5h.68c.39,0,.62-.2.62-.75v-4c0-.55-.23-.74-.62-.74Z"/><path class="cls-4" d="M220.38,61.68h1.21v7.71h-1.21Z"/><path class="cls-4" d="M224.28,65.09H226v2.45a1.69,1.69,0,0,1-1.81,1.93c-1.19,0-1.8-.7-1.8-1.93v-4c0-1.23.61-1.93,1.8-1.93A1.69,1.69,0,0,1,226,63.53v.75h-1.15v-.82c0-.55-.24-.76-.63-.76s-.62.21-.62.76v4.15c0,.55.24.75.62.75s.63-.2.63-.75V66.2h-.55Z"/><path class="cls-4" d="M228,64.93h1.66V66H228v2.26h2.09v1.1h-3.3V61.68h3.3v1.11H228Z"/><path class="cls-4" d="M168.31,82.19h-1.22l-.21-1.4H165.4l-.21,1.4h-1.11l1.23-7.71h1.77Zm-2.76-2.45h1.17l-.58-3.89Z"/><path class="cls-4" d="M171.4,82.19a2.52,2.52,0,0,1-.11-1V80c0-.72-.24-1-.79-1h-.42v3.14h-1.21V74.48h1.83a1.55,1.55,0,0,1,1.79,1.78v.6a1.53,1.53,0,0,1-.79,1.56c.61.26.8.84.8,1.64v1.19a2.33,2.33,0,0,0,.14.94Zm-1.32-6.61V78h.48c.45,0,.72-.2.72-.81v-.76c0-.55-.18-.8-.61-.8Z"/><path class="cls-4" d="M176.91,76.26v.27a1.51,1.51,0,0,1-.78,1.55,1.56,1.56,0,0,1,.91,1.65v.63a1.64,1.64,0,0,1-1.84,1.83h-1.9V74.48h1.82C176.38,74.48,176.91,75.07,176.91,76.26Zm-2.4-.68v2H175c.45,0,.72-.2.72-.81v-.43c0-.55-.18-.8-.61-.8Zm0,3.14v2.36h.69c.41,0,.63-.18.63-.75v-.67c0-.72-.24-.94-.79-.94Z"/><path class="cls-4" d="M179,77.73h1.66v1.1H179v2.25h2.09v1.11h-3.3V74.48h3.3v1.1H179Z"/><path class="cls-4" d="M181.81,74.48H183v7.71h-1.21Z"/><path class="cls-4" d="M183.55,74.48h3.74v1.1H186v6.61h-1.21V75.58h-1.26Z"/><path class="cls-4" d="M190.68,74.48v5.94c0,.56.24.75.62.75s.63-.19.63-.75V74.48h1.14v5.87c0,1.23-.61,1.93-1.8,1.93a1.69,1.69,0,0,1-1.81-1.93V74.48Z"/><path class="cls-4" d="M195,76.61v5.58h-1.09V74.48h1.52l1.24,4.61V74.48h1.08v7.71h-1.25Z"/><path class="cls-4" d="M198.6,74.48h1.91c1.21,0,1.8.68,1.8,1.91v3.89c0,1.23-.59,1.91-1.8,1.91H198.6Zm1.21,1.1v5.5h.68c.38,0,.61-.19.61-.74v-4c0-.55-.23-.75-.61-.75Z"/><path class="cls-4" d="M167.08,90.88,166.64,95H165l-.86-7.71h1.18l.65,6.08.58-6.08h1.17l.6,6.12.63-6.12H170L169.13,95h-1.61Z"/><path class="cls-4" d="M170.59,87.28h1.21V95h-1.21Z"/><path class="cls-4" d="M175.21,95a2.31,2.31,0,0,1-.11-.95V92.83c0-.72-.24-1-.79-1h-.42V95h-1.21V87.28h1.83a1.55,1.55,0,0,1,1.79,1.78v.6a1.53,1.53,0,0,1-.79,1.56c.6.26.8.84.8,1.64v1.19a2.33,2.33,0,0,0,.13.94Zm-1.32-6.61v2.37h.47c.45,0,.73-.2.73-.81v-.76c0-.55-.19-.8-.62-.8Z"/><path class="cls-4" d="M176.75,87.28h3.74v1.1h-1.26V95H178V88.38h-1.27Z"/><path class="cls-4" d="M182.65,87.2c1.17,0,1.78.7,1.78,1.93v.24h-1.15v-.31c0-.55-.22-.76-.6-.76s-.61.21-.61.76c0,1.58,2.37,1.88,2.37,4.08a1.81,1.81,0,1,1-3.61,0v-.48H182v.55c0,.55.24.75.62.75s.63-.2.63-.75c0-1.58-2.37-1.88-2.37-4.08C180.86,87.9,181.47,87.2,182.65,87.2Z"/><path class="cls-4" d="M188.64,92.11v1c0,1.23-.61,1.93-1.8,1.93A1.69,1.69,0,0,1,185,93.14v-4a1.69,1.69,0,0,1,1.81-1.93c1.19,0,1.8.7,1.8,1.93v.75H187.5v-.82c0-.55-.24-.76-.63-.76s-.63.21-.63.76v4.15c0,.55.25.75.63.75s.63-.2.63-.75v-1.1Z"/><path class="cls-4" d="M190.59,95h-1.21V87.28h1.21v3.3H192v-3.3h1.24V95H192V91.68h-1.37Z"/><path class="cls-4" d="M198,95h-1.22l-.21-1.4h-1.48l-.21,1.4h-1.11L195,87.28h1.77Zm-2.76-2.45h1.17l-.59-3.89Z"/><path class="cls-4" d="M199.76,90.71h1.57v1.1h-1.57V95h-1.21V87.28h3.2v1.1h-2Z"/><path class="cls-4" d="M202,87.28h3.74v1.1h-1.26V95h-1.21V88.38H202Z"/><path class="cls-4" d="M207.88,87.2c1.18,0,1.78.7,1.78,1.93v.24h-1.14v-.31c0-.55-.22-.76-.61-.76s-.6.21-.6.76c0,1.58,2.36,1.88,2.36,4.08,0,1.23-.61,1.93-1.8,1.93s-1.8-.7-1.8-1.93v-.48h1.14v.55c0,.55.24.75.63.75s.62-.2.62-.75c0-1.58-2.36-1.88-2.36-4.08C206.1,87.9,206.7,87.2,207.88,87.2Z"/><path class="cls-4" d="M213.05,90.88,212.61,95H211l-.86-7.71h1.18l.65,6.08.58-6.08h1.17l.6,6.12.63-6.12H216L215.1,95h-1.61Z"/><path class="cls-4" d="M220.31,95h-1.22l-.21-1.4H217.4l-.21,1.4h-1.11l1.23-7.71h1.77Zm-2.76-2.45h1.17l-.59-3.89Z"/><path class="cls-4" d="M224.37,92.11v1a1.81,1.81,0,1,1-3.61,0v-4a1.81,1.81,0,1,1,3.61,0v.75h-1.14v-.82c0-.55-.25-.76-.63-.76s-.63.21-.63.76v4.15c0,.55.24.75.63.75s.63-.2.63-.75v-1.1Z"/><path class="cls-4" d="M226.32,95h-1.21V87.28h1.21v3.3h1.37v-3.3h1.23V95h-1.23V91.68h-1.37Z"/><path class="cls-4" d="M231.43,87.2c1.18,0,1.78.7,1.78,1.93v.24h-1.14v-.31c0-.55-.22-.76-.61-.76s-.6.21-.6.76c0,1.58,2.36,1.88,2.36,4.08,0,1.23-.61,1.93-1.8,1.93s-1.8-.7-1.8-1.93v-.48h1.14v.55c0,.55.24.75.63.75s.62-.2.62-.75c0-1.58-2.36-1.88-2.36-4.08C229.65,87.9,230.25,87.2,231.43,87.2Z"/><path class="cls-4" d="M233.57,87.28h3.74v1.1H236V95h-1.21V88.38h-1.26Z"/><path class="cls-4" d="M239,87.28v6c0,.55.24.74.63.74s.62-.19.62-.74v-6h1.15v5.87a1.69,1.69,0,0,1-1.81,1.93c-1.19,0-1.8-.7-1.8-1.93V87.28Z"/><path class="cls-4" d="M244.78,92.75l.82-5.47h1.68V95h-1.14V89.46L245.3,95h-1.14l-.9-5.45V95H242.2V87.28h1.68Z"/></g></g></svg>