<svg xmlns="http://www.w3.org/2000/svg" viewBox="0 0 378.08 212.67"><defs><style>.cls-1{fill:#e3152b;}.cls-2{fill:#fefefe;}.cls-3{fill:#c21f33;}.cls-4{fill:#fff;}</style></defs><g id="Capa_2" data-name="Capa 2"><g id="Capa_1-2" data-name="Capa 1"><rect class="cls-1" width="378.08" height="212.67"/><path class="cls-2" d="M207,98v.56q0,20.28,0,40.57a.66.66,0,0,1-.58.76c-2.34.68-4.67,1.39-7,2.09l-11.8,3.54c-.94.29-1.88.56-2.82.86-.27.09-.32,0-.31-.24,0-.47,0-.94,0-1.42q0-16.63,0-33.27a.71.71,0,0,1,.42-.73c2.68-1.53,5.35-3.08,8-4.62l10.36-6,3.43-2A2.4,2.4,0,0,1,207,98Z"/><path class="cls-2" d="M159.66,97.93,163,99.85l6.08,3.52,10.09,5.82c.85.49,1.69,1,2.55,1.48a.51.51,0,0,1,.3.5q0,17.45,0,34.87c0,.35-.1.36-.39.27l-13.73-4.14c-2.55-.76-5.1-1.55-7.66-2.3a.7.7,0,0,1-.59-.8q0-20.26,0-40.53Z"/><path class="cls-2" d="M157.23,97.89a1,1,0,0,1,.06.54q0,21.51,0,43c0,.35.08.5.44.6,2.7.73,5.4,1.5,8.1,2.25l12.88,3.59a30.4,30.4,0,0,0,3.07.85,6.83,6.83,0,0,0,3.21-.07c3-.95,6.08-1.94,9.11-2.92L205,142.2c1.3-.42,2.61-.86,3.92-1.26.34-.11.41-.27.41-.6q0-20.31,0-40.62V97.85l1.25,1a4.33,4.33,0,0,0,.53.43,1.24,1.24,0,0,1,.64,1.29q0,20.79,0,41.58c0,.23,0,.42-.29.52-3.48,1-6.91,2.15-10.37,3.24l-9.9,3.13-6.2,2a4.2,4.2,0,0,1-.71.11c-2.17.24-4.18-.5-6.21-1.06l-11.38-3.14c-3.83-1.06-7.65-2.13-11.49-3.17-.3-.09-.31-.26-.31-.5,0-4,0-8,0-12q0-15.54,0-31.06a.81.81,0,0,1,.36-.74C155.92,98.94,156.56,98.41,157.23,97.89Z"/><path class="cls-2" d="M221.83,148.18c-.36-1.28-.68-2.44-1-3.61-.5-1.77-1-3.54-1.53-5.32a2,2,0,0,1-.09-.59q0-18.22,0-36.44c0-.37.1-.44.45-.44q2.21,0,4.41,0c.36,0,.44.09.44.45q0,14,0,28.1,0,4,0,8.09a4.8,4.8,0,0,1-.23,1.31L222,147.85C221.92,147.92,221.89,148,221.83,148.18Z"/><path class="cls-2" d="M147.74,62.42q0,3.47,0,6.93c0,.32.09.41.41.4.57,0,1.13,0,1.7,0,.2,0,.28.06.28.28,0,1,0,1.91,0,2.87,0,.24-.09.29-.31.29-.58,0-1.16,0-1.74,0-.27,0-.34.08-.34.34,0,1.61,0,3.21,0,4.82,0,.36-.1.45-.45.44q-1.62,0-3.24,0c-.32,0-.41-.07-.41-.4,0-1.56,0-3.13,0-4.69,0-.39-.06-.52-.49-.52-2.08,0-4.16,0-6.24,0-.33,0-.47-.08-.42-.42a2.26,2.26,0,0,0,0-.37c0-3,0-3,1.23-5.69,1.11-2.51,2.15-5.06,3.22-7.59.53-1.25,1.07-2.49,1.6-3.75a.36.36,0,0,1,.39-.25c1.48,0,3,0,4.45,0,.34,0,.32.17.32.4Z"/><path class="cls-2" d="M221.85,99.74h-2.34c-.25,0-.32-.07-.32-.31,0-.89,0-1.78,0-2.67a2.64,2.64,0,0,1,5.27-.07c0,.93,0,1.86,0,2.79,0,.23-.09.26-.29.26Z"/><path class="cls-3" d="M143.64,59.82c0,.22,0,.32,0,.42,0,3,0,6.07,0,9.11,0,.32-.09.41-.4.4-1,0-1.89,0-2.84,0-.27,0-.35,0-.25-.34q1.66-4.62,3.31-9.24A2.35,2.35,0,0,1,143.64,59.82Z"/><path class="cls-4" d="M160.81,56.12a2,2,0,1,1,4,0v4.37a2.41,2.41,0,0,1-.25,1.17c.06.16.15.18.37.18h.12V63h-.18a1.16,1.16,0,0,1-1.14-.58,2.6,2.6,0,0,1-.92.16,1.87,1.87,0,0,1-2-2.11Zm1.32,4.45c0,.6.27.83.69.83s.68-.23.68-.83V56c0-.6-.26-.83-.68-.83s-.69.23-.69.83Z"/><path class="cls-4" d="M166.93,54.11v6.47c0,.6.27.82.69.82s.68-.22.68-.82V54.11h1.25V60.5a1.84,1.84,0,0,1-2,2.11c-1.3,0-2-.77-2-2.11V54.11Z"/><path class="cls-4" d="M174.72,62.5h-1.33L173.16,61h-1.62l-.23,1.52H170.1l1.34-8.39h1.94Zm-3-2.66H173l-.64-4.25Z"/><path class="cls-4" d="M175.33,54.11h1.32V61.3h2.17v1.2h-3.49Z"/><path class="cls-4" d="M179.4,54.11h1.32V62.5H179.4Z"/><path class="cls-4" d="M181.3,54.11h4.08v1.2H184V62.5h-1.32V55.31H181.3Z"/><path class="cls-4" d="M189.77,62.5h-1.33L188.21,61h-1.62l-.23,1.52h-1.21l1.34-8.39h1.93Zm-3-2.66H188l-.64-4.25Z"/><path class="cls-4" d="M189.54,54.11h4.08v1.2h-1.38V62.5h-1.32V55.31h-1.38Z"/><path class="cls-4" d="M194.2,54.11h1.32V62.5H194.2Z"/><path class="cls-4" d="M198.47,61l1-6.85h1.21l-1.3,8.39h-2l-1.29-8.39h1.33Z"/><path class="cls-4" d="M162.24,75.3h-1.32V66.91h1.32V70.5h1.5V66.91h1.34V75.3h-1.34V71.71h-1.5Z"/><path class="cls-4" d="M165.94,68.92a2,2,0,1,1,4,0v4.37a2,2,0,1,1-4,0Zm1.32,4.45c0,.6.26.83.68.83s.68-.23.68-.83V68.84c0-.6-.26-.83-.68-.83s-.68.23-.68.83Z"/><path class="cls-4" d="M174.62,72.17v1.12c0,1.34-.67,2.11-2,2.11s-2-.77-2-2.11V68.92c0-1.34.67-2.11,2-2.11s2,.77,2,2.11v.82h-1.24v-.9c0-.6-.27-.83-.69-.83s-.68.23-.68.83v4.53c0,.6.26.82.68.82s.69-.22.69-.82v-1.2Z"/><path class="cls-4" d="M176.75,75.3h-1.32V66.91h1.32V70.5h1.5V66.91h1.34V75.3h-1.34V71.71h-1.5Z"/><path class="cls-4" d="M183.48,70.83,183,75.3h-1.81l-.94-8.39h1.29l.7,6.62.64-6.62h1.27l.66,6.67.68-6.67h1.16l-.94,8.39H184Z"/><path class="cls-4" d="M188.63,70.45h1.81v1.2h-1.81V74.1h2.28v1.2h-3.6V66.91h3.6v1.2h-2.28Z"/><path class="cls-4" d="M194.48,75.3a2.57,2.57,0,0,1-.12-1V73c0-.78-.26-1.06-.86-1.06H193V75.3h-1.32V66.91h2c1.36,0,1.95.63,1.95,1.93v.66a1.69,1.69,0,0,1-.86,1.7c.66.28.87.91.87,1.79v1.29a2.34,2.34,0,0,0,.15,1ZM193,68.11v2.58h.52c.49,0,.79-.22.79-.89V69c0-.6-.2-.86-.67-.86Z"/><path class="cls-4" d="M196.16,66.91h4.08v1.2h-1.38V75.3h-1.32V68.11h-1.38Z"/><path class="cls-4" d="M200.82,66.91h1.32V75.3h-1.32Z"/><path class="cls-4" d="M205.08,70.63h1.85v2.66a1.84,1.84,0,0,1-2,2.11c-1.3,0-2-.77-2-2.11V68.92c0-1.34.67-2.11,2-2.11a1.84,1.84,0,0,1,2,2.11v.82h-1.25v-.9c0-.6-.26-.83-.68-.83s-.69.23-.69.83v4.53c0,.6.27.82.69.82s.68-.22.68-.82V71.83h-.6Z"/><path class="cls-4" d="M209.1,70.45h1.81v1.2H209.1V74.1h2.28v1.2h-3.6V66.91h3.6v1.2H209.1Z"/><path class="cls-4" d="M164.87,81.64v.3a1.66,1.66,0,0,1-.85,1.69,1.71,1.71,0,0,1,1,1.8v.68a1.78,1.78,0,0,1-2,2h-2.08V79.71h2C164.28,79.71,164.87,80.34,164.87,81.64Zm-2.63-.73v2.22h.52c.49,0,.79-.22.79-.89v-.47c0-.6-.21-.86-.67-.86Zm0,3.42V86.9H163c.44,0,.68-.2.68-.82v-.74c0-.77-.25-1-.85-1Z"/><path class="cls-4" d="M165.79,79.71h1.32V88.1h-1.32Z"/><path class="cls-4" d="M168.07,79.71h1.32V86.9h2.17v1.2h-3.49Z"/><path class="cls-4" d="M172.14,79.71h2.09c1.32,0,2,.73,2,2.07V86c0,1.34-.64,2.07-2,2.07h-2.09Zm1.32,1.2v6h.74c.42,0,.68-.21.68-.81V81.72c0-.6-.26-.81-.68-.81Z"/><path class="cls-4" d="M178.3,79.71v6.47c0,.6.26.82.68.82s.68-.22.68-.82V79.71h1.25V86.1c0,1.34-.67,2.11-2,2.11s-2-.77-2-2.11V79.71Z"/><path class="cls-4" d="M183,82V88.1H181.8V79.71h1.66l1.35,5v-5H186V88.1h-1.36Z"/><path class="cls-4" d="M188.92,83.42h1.84v2.67c0,1.34-.67,2.11-2,2.11s-2-.77-2-2.11V81.72c0-1.34.67-2.11,2-2.11s2,.77,2,2.11v.82h-1.24v-.9c0-.6-.27-.83-.69-.83s-.68.23-.68.83v4.53c0,.6.26.82.68.82s.69-.22.69-.82V84.62h-.6Z"/></g></g></svg>