<svg xmlns="http://www.w3.org/2000/svg" viewBox="0 0 156.69 157.3"><defs><style>.cls-1{fill:none;stroke:#7f7f7f;stroke-linecap:round;stroke-linejoin:round;stroke-width:3.26px;}</style></defs><g id="Capa_2" data-name="Capa 2"><g id="Capa_1-2" data-name="Capa 1"><path class="cls-1" d="M114.53,91.35a5.47,5.47,0,0,0-6.1,0l-28.9,19.51-2.37,1.59v43.23h24.55V127.39h19.54v28.29H145.8V112.45Zm-3,21.9a1.16,1.16,0,1,1,1.16-1.16A1.16,1.16,0,0,1,111.48,113.25Z"/><line class="cls-1" x1="111.48" y1="155.68" x2="101.71" y2="155.68"/><line class="cls-1" x1="121.25" y1="155.68" x2="111.48" y2="155.68"/><path class="cls-1" d="M112.64,112.09a1.16,1.16,0,1,1-1.16-1.16A1.16,1.16,0,0,1,112.64,112.09Z"/><path class="cls-1" d="M154.13,35.84l-.7,1a5.44,5.44,0,0,1-7.57,1.47l-.06,0L114.53,17.22a5.47,5.47,0,0,0-6.1,0L77.16,38.31l-.06,0a5.45,5.45,0,0,1-7.57-1.47l-.7-1a5.46,5.46,0,0,1,1.47-7.57L108.43,2.56a5.47,5.47,0,0,1,6.1,0l38.13,25.71A5.46,5.46,0,0,1,154.13,35.84Z"/><path class="cls-1" d="M154.13,110l-.7,1a5.46,5.46,0,0,1-7.57,1.47l-.06,0-31.27-21.1a5.47,5.47,0,0,0-6.1,0l-28.9,19.51-2.37,1.59-.06,0A5.46,5.46,0,0,1,69.53,111l-.7-1a5.46,5.46,0,0,1,1.47-7.57l9.23-6.22,21.71-14.65.47-.31,6.72-4.54a5.47,5.47,0,0,1,6.1,0l6.72,4.54.47.31,30.94,20.87A5.46,5.46,0,0,1,154.13,110Z"/><path class="cls-1" d="M112.64,38a1.16,1.16,0,1,1-1.16-1.16A1.16,1.16,0,0,1,112.64,38Z"/><path class="cls-1" d="M111.48,39.12A1.16,1.16,0,1,1,112.64,38,1.16,1.16,0,0,1,111.48,39.12ZM77.16,73.82l2.43,1.63A5.43,5.43,0,0,0,87.15,74l.71-1a5.44,5.44,0,0,0-1.48-7.56l-9.22-6.22V38.31l31.27-21.09a5.47,5.47,0,0,1,6.1,0L145.8,38.31V81.54H121.72l-.47-.31v-28H101.71v28l-.47.31H79.53"/><path class="cls-1" d="M87.86,72.94l-.71,1a5.43,5.43,0,0,1-7.56,1.47l-2.43-1.63-28.9-19.5a5.47,5.47,0,0,0-6.1,0L10.83,75.45A5.44,5.44,0,0,1,3.26,74l-.7-1A5.44,5.44,0,0,1,4,65.38L42.16,39.66a5.47,5.47,0,0,1,6.1,0l28.9,19.5,9.22,6.22A5.44,5.44,0,0,1,87.86,72.94Z"/><path class="cls-1" d="M45.21,118.64H10.89V75.42"/><path class="cls-1" d="M35.43,118.64V90.35h9.78"/><polyline class="cls-1" points="77.16 118.65 54.98 118.65 45.21 118.65"/><path class="cls-1" d="M79.53,96.19V75.42"/><path class="cls-1" d="M45.21,90.35H55v28.29"/><circle class="cls-1" cx="45.21" cy="75.06" r="1.16"/></g></g></svg>