<svg xmlns="http://www.w3.org/2000/svg" viewBox="0 0 122.25 152.11"><defs><style>.cls-1{fill:#7f7f7f;}</style></defs><g id="Capa_2" data-name="Capa 2"><g id="Capa_1-2" data-name="Capa 1"><path class="cls-1" d="M115.58,43.09a6.68,6.68,0,0,0,6.67-6.68V6.68A6.68,6.68,0,0,0,115.58,0H80.93a6.69,6.69,0,0,0-6.68,6.68v5.71H73.5a9.16,9.16,0,0,0,0,18.32h.75V43.09h18.3v-4.2a5.71,5.71,0,1,1,11.41,0v4.2ZM98.25,29.73a9.17,9.17,0,0,0-9.15,9.16v.75H77.7V27.25H73.5a5.71,5.71,0,0,1,0-11.41h4.2V6.68a3.23,3.23,0,0,1,3.23-3.23h34.65a3.23,3.23,0,0,1,3.23,3.23V36.41a3.23,3.23,0,0,1-3.23,3.23H107.4v-.75a9.16,9.16,0,0,0-9.15-9.16"/><path class="cls-1" d="M97.5,62V59.46H82.65v-.75a9.15,9.15,0,1,0-18.3,0v.75H53V47.07h-4.2a5.71,5.71,0,0,1,0-11.41H53V14.87H47.07A47.12,47.12,0,0,0,17.26,98.44l10,8.16v7.61l-.5.17a6.64,6.64,0,0,0,.49,12.69l.81.22-.31.79a6.52,6.52,0,0,0-.49,2.48,6.67,6.67,0,0,0,4.57,6.31l.45.15.06.47a16.56,16.56,0,0,0,32.89,0l0-.47.45-.15a6.61,6.61,0,0,0,4.09-8.79l-.32-.79.82-.22a6.64,6.64,0,0,0,.49-12.69l-.5-.18v-7.6l10-8.16A46.94,46.94,0,0,0,97.5,62M3.57,58.65a43.82,43.82,0,0,1,43.5-40.33H49.5V32.21h-.75a9.16,9.16,0,0,0,0,18.32h.75v8.93H38.1v-.75a9.15,9.15,0,1,0-18.3,0v.75H3.51ZM19.45,95.77a43.65,43.65,0,0,1-16-32.08l0-.78h19.8v-4.2a5.7,5.7,0,1,1,11.4,0v4.2H49.5V74.33h-.75a9.16,9.16,0,0,0,0,18.32h.75V114H30.67v-9Zm42.16,42.37a13.12,13.12,0,0,1-25.72,0l-.18-.9H61.8Zm2-4.35H33.9a3.23,3.23,0,0,1,0-6.46H63.6a3.23,3.23,0,0,1,0,6.46m8.18-13.14a3.23,3.23,0,0,1-3.23,3.23H29a3.23,3.23,0,0,1,0-6.46h39.6a3.23,3.23,0,0,1,3.23,3.23m6.28-24.88L66.83,105v9H53V89.19h-4.2a5.71,5.71,0,0,1,0-11.41H53V62.91H67.8v-4.2a5.7,5.7,0,1,1,11.4,0v4.2H94.05l0,.78a43.67,43.67,0,0,1-16,32.08"/></g></g></svg>