<svg xmlns="http://www.w3.org/2000/svg" viewBox="0 0 134.48 134.48"><defs><style>.cls-1{fill:#7f7f7f;}</style></defs><g id="Capa_2" data-name="Capa 2"><g id="Capa_1-2" data-name="Capa 1"><path class="cls-1" d="M132.23,63.78l2.25-3.12V59.9l-.26-.31a7.64,7.64,0,0,0-1.06-1.17q-2.39-2.06-4.79-4.08c-2.12-1.79-4.24-3.58-6.34-5.4a3.41,3.41,0,0,1-1.09-2.79c.59-4.4,1.27-8.87,1.92-13.2l.27-1.72c.23-1.55-.12-2.1-1.55-2.42-5.83-1.31-10.29-2.29-14.47-3.18a3.25,3.25,0,0,1-2.65-2.35c-1.2-3.64-2.48-7.33-3.72-10.89l-1-2.94c-.62-1.79-1-2-2.89-1.51l-2.64.73q-5.76,1.59-11.5,3.2a2.94,2.94,0,0,1-3.07-.77C76.75,8.36,73.8,5.6,71,2.93L68.78.9C67.49-.3,67-.3,65.71.91L63.06,3.39c-2.69,2.51-5.48,5.12-8.19,7.71a2.91,2.91,0,0,1-3.07.75q-5.61-1.57-11.22-3.1l-2.93-.81c-1.87-.51-2.24-.31-2.88,1.52l-1.09,3.13c-1.21,3.5-2.47,7.12-3.66,10.7a3.24,3.24,0,0,1-2.65,2.36c-5.29,1.11-10.58,2.28-14.59,3.18-1.25.28-1.66.87-1.47,2.12l.53,3.52c.57,3.84,1.14,7.67,1.74,11.5a3.11,3.11,0,0,1-1.19,3.11c-2.65,2.19-5.31,4.45-7.89,6.63L1.22,58.49C-.31,59.78-.36,60.16.84,61.83l1.82,2.52c2.15,3,4.38,6.09,6.61,9.1a3.41,3.41,0,0,1,.46,3.66C8.32,80.46,6.94,83.88,5.6,87.19L4.29,90.4c-.79,2-.66,2.33,1.21,3.25l3.41,1.69q4.88,2.41,9.77,4.81a2.81,2.81,0,0,1,1.72,2.53c.44,5.28.9,10.18,1.39,15,.17,1.73.46,2,2.21,1.95l1.71,0c4.17-.09,8.48-.19,12.7-.35h.25A3.48,3.48,0,0,1,41.89,121c2,3.17,4.06,6.36,6.07,9.44l1.78,2.73c1,1.48,1.43,1.6,2.95.74L54,133.2c3.77-2.11,7.67-4.3,11.47-6.49a3.1,3.1,0,0,1,3.42,0c3,1.75,6.13,3.49,9.13,5.18l3.43,1.93c1.75,1,2.25.86,3.37-.86l1.81-2.79c1.95-3,4-6.09,5.91-9.16a3.4,3.4,0,0,1,3.33-1.79c4.71.2,9.51.3,14.15.4h.66c1.35,0,1.76-.34,1.9-1.7l.08-.84c.48-4.68,1-9.52,1.39-14.28a3,3,0,0,1,1.87-2.71c3.44-1.67,6.92-3.4,10.29-5.08L129,93.66c1.87-.93,2-1.29,1.21-3.26l-1.34-3.3c-1.31-3.24-2.67-6.59-4.06-9.85a3.57,3.57,0,0,1,.5-3.9c2.34-3.17,4.67-6.42,6.93-9.57m-11,12.5c1.29,3,2.54,6.13,3.75,9.13l1.35,3.32c.12.29.22.58.34.91l.57,1.54-3.08,1.53-6.23,3.1-1.3.66c-1.16.59-2.35,1.2-3.59,1.71a2.48,2.48,0,0,0-1.73,2.5c-.24,3.17-.55,6.37-.84,9.48l-.3,3.15c0,.46-.11.93-.17,1.41l-.23,1.77h-2.11c-.73,0-1.43,0-2.13,0l-2.78-.06c-2.91-.06-5.91-.12-8.87-.25a2.59,2.59,0,0,0-2.63,1.45c-1.72,2.77-3.52,5.55-5.27,8.23-.64,1-1.29,2-1.93,3-.16.26-.34.51-.54.79L82.6,131l-4.44-2.47-7.55-4.23-.88-.5a6.61,6.61,0,0,0-2.47-1.13A9.46,9.46,0,0,0,64.38,124l-.41.23c-2.49,1.41-5,2.8-7.53,4.22L51.9,131,51,129.64c-.21-.28-.4-.56-.59-.85l-1.92-3c-1.74-2.69-3.55-5.47-5.28-8.24a2.64,2.64,0,0,0-2.67-1.41c-3.48.06-6.9,0-10.52,0H24.62l-1.05-10.8c-.18-1.76-.35-3.53-.49-5.29a2,2,0,0,0-1.28-1.76c-3.08-1.5-6.15-3-9.22-4.55L9.69,92.37l-.95-.49L7.27,91.1,11.6,80.31c.15-.38.3-.76.44-1.14a30.38,30.38,0,0,1,1.18-2.8,2.62,2.62,0,0,0-.45-3.15c-2.08-2.77-4.15-5.64-6.15-8.41Q5.4,63.1,4.16,61.39l-.69-.94L5.7,58.54,8.64,56l1.88-1.61c1.7-1.45,3.45-3,5.21-4.38a2.5,2.5,0,0,0,1-2.73c-.55-3.46-1.06-7-1.55-10.38l-.44-3.07a7.34,7.34,0,0,1-.07-1c0-.13,0-.28,0-.42l-.06-1.07,14.15-3.15c.45-.1.9-.2,1.36-.27a2.35,2.35,0,0,0,2.08-1.9c1-3.12,2.13-6.26,3.2-9.3l1.2-3.42c.1-.29.21-.58.34-.9l.59-1.53,9.62,2.63,1.7.46c1.39.37,2.84.76,4.25,1.2a2.1,2.1,0,0,0,2.33-.57c2.48-2.37,5-4.71,7.5-7.06l2.47-2.32c.23-.21.45-.41.71-.63l1.22-1.09,3.51,3.3,6.14,5.74,1.13,1.07a7.58,7.58,0,0,0,2.09,1.71,7.21,7.21,0,0,0,2.52-.5l1.73-.48c2.62-.7,5.24-1.43,7.9-2.16l4.76-1.31,3.69,10.55.46,1.3c.41,1.12.83,2.28,1.17,3.47.29,1,.89,1.52,2.21,1.79,3.36.7,6.76,1.46,10.05,2.19l3.53.78.56.16,1.32.41-.44,3.17c-.23,1.61-.45,3.21-.69,4.81-.39,2.71-.78,5.42-1.2,8.13a2.1,2.1,0,0,0,.83,2.17c2.78,2.32,5.54,4.67,8.34,7.06L131,60.43l-.68.94-2.46,3.41c-2,2.85-4.17,5.79-6.29,8.64a2.49,2.49,0,0,0-.35,2.86"/><path class="cls-1" d="M35.89,99.49A44,44,0,0,0,67.14,112.7h.37c23.92,0,43.51-19.68,43.75-44A44.15,44.15,0,0,0,67.62,24h-.43a43.47,43.47,0,0,0-30.81,12.7,44.62,44.62,0,0,0-.49,62.77M67.21,27h.09a41.37,41.37,0,0,1,0,82.73h-.07a40.67,40.67,0,0,1-29-12.2A41.39,41.39,0,0,1,67.21,27"/><path class="cls-1" d="M39.52,70l.34.36.16.15,16.9,17.07c.81.82,1.43,1.21,1.88,1.21s1-.45,1.76-1.29L84.54,60l.87-1c1.13-1.29,2.3-2.63,3.41-4a1.37,1.37,0,0,0,.11-1.85,1.23,1.23,0,0,0-1.53-.55,3.18,3.18,0,0,0-1.23,1q-6.65,7.57-13.25,15.19L58.75,85l-1.27-1.18-.64-.59L43.44,69.7c-.18-.19-.36-.38-.55-.56-.44-.46-.86-.89-1.3-1.29a1.65,1.65,0,0,0-1.11-.48,1.45,1.45,0,0,0-1,.46A1.52,1.52,0,0,0,39.52,70"/></g></g></svg>