<svg xmlns="http://www.w3.org/2000/svg" viewBox="0 0 374.95 332.12"><defs><style>.cls-1{fill:#ffd100;}</style></defs><g id="Capa_2" data-name="Capa 2"><g id="Capa_1-2" data-name="Capa 1"><path class="cls-1" d="M375,162.43c-1,7-1.74,14-3,20.93a178,178,0,0,1-27.15,67.34c-2.75,4.16-7.07,5.26-10.67,2.85s-4.32-6.67-1.5-11a163.88,163.88,0,0,0,25.08-62.69c3.18-18.54,4.2-37.09-1-55.51-3.09-11-8.42-20.74-16.82-28.66-2.12-2-4.23-4-5.56-5.29.77,6.68,2.42,14.29,2.38,21.89-.12,22.8-6,44.49-15.79,64.87-28,58.19-74.36,92.41-137.74,103.48-10.37,1.82-21.27,2.73-31.68,1.67-10-1-17,10.21-13.19,19.32a15.8,15.8,0,0,0,10.73,9.67,166.18,166.18,0,0,0,137.79-22.51c4.49-3,8.7-2.46,11.22,1.31S299.49,298,295,301q-69.55,45.66-150,24.37c-18.58-4.9-27.46-25.24-19.14-42.6.31-.65.58-1.31.82-1.84-8.88-2.39-17.74-4.51-26.43-7.16C86.48,269.6,73.88,263,61.38,256.05c-18.19-10.13-22.23-31.93-9.81-47.51-1.19-.8-2.35-1.61-3.53-2.37a187.28,187.28,0,0,1-39-33.5,42.81,42.81,0,0,1-9-16.83v-9.52a17.19,17.19,0,0,0,.73-2c4.89-20.24,26.34-29.59,44.2-18.92,17.28,10.31,35.63,17.51,55.56,20.35,50.24,7.17,94.12-6.68,131.58-40.66,19.22-17.45,32.85-38.8,41.53-63.27a23.15,23.15,0,0,0,1.18-7.12c.16-6.83,0-13.66.07-20.5C274.94,5.36,280.21.1,289,.05c9.64,0,19.28-.08,28.92,0,10.78.1,16.6,8.84,12.6,18.85-1.89,4.75-4,9.41-5.79,14.21a7.63,7.63,0,0,0-.09,4.77c2.62,7.34,5.46,14.6,8.29,21.86a66.39,66.39,0,0,0,16.48,24.77c15.4,14.43,22.4,32.7,24.79,53.17.14,1.18.47,2.33.72,3.5ZM290.4,47.56c-.18,3.93-.25,7.69-.55,11.44s-.71,7.53-1.28,11.27c-7.41,48.42-30.33,87.84-70.14,116.42C176.09,217.09,129,226.34,78.09,214c-8.33-2-15.78,1.78-18.28,9.28-2.39,7.18.32,14.68,7.32,18.9,50.86,30.65,104,35.14,158.07,10.56,52.69-24,84-65.83,95.42-122.57,2.87-14.28,2.41-28.12-3.28-42-3.62-8.82-5.33-18.45-7.61-27.78-1-4.22-1.38-8.6-2-12.91ZM272.16,81.08l-1-.29c-.41.59-.83,1.16-1.21,1.76a170.25,170.25,0,0,1-45.73,47.87c-37,25.87-77.94,36.13-122.72,30.35a163.18,163.18,0,0,1-63-22.12,20.66,20.66,0,0,0-10.63-2.76c-5.83.17-9.87,3.83-12,9.33-2.29,6-1.1,11.55,3,16.38a164.07,164.07,0,0,0,45,37,8.84,8.84,0,0,0,3.71.78c5,.29,10.1-.33,14.83.82,19.72,4.76,39.57,6.14,59.53,2.6,61-10.84,102.46-45.45,124.57-103.24,2.29-6,3.77-12.28,5.62-18.43M316.31,15H289.72V32.71c6.06,0,11.89,0,17.71-.07a2.9,2.9,0,0,0,2.14-1.45C311.85,26,314,20.66,316.31,15"/></g></g></svg>