<svg xmlns="http://www.w3.org/2000/svg" viewBox="0 0 44.03 44.03"><defs><style>.cls-1{fill:#175158;}.cls-2{fill:#fbfbfb;}.cls-3{fill:#175259;}.cls-4{fill:#19535a;}.cls-5{fill:#185259;}.cls-6{fill:#185359;}.cls-7{fill:#18535a;}.cls-8{fill:#19545a;}.cls-9{fill:#1a545b;}.cls-10{fill:#19535b;}.cls-11{fill:#1c565c;}.cls-12{fill:#1f585f;}.cls-13{fill:#275d64;}.cls-14{fill:#1d565d;}.cls-15{fill:#e7eced;}.cls-16{fill:#dee6e6;}.cls-17{fill:#d7e0e1;}.cls-18{fill:#f6f7f7;}.cls-19{fill:#f1f3f4;}.cls-20{fill:#f7f8f8;}.cls-21{fill:#d6e0e1;}.cls-22{fill:#dee5e6;}.cls-23{fill:#dae2e3;}.cls-24{fill:#e2e8e9;}.cls-25{fill:#bacacc;}.cls-26{fill:#e8eced;}.cls-27{fill:#e7ecec;}.cls-28{fill:#d3ddde;}.cls-29{fill:#e0e7e8;}.cls-30{fill:#d9e2e3;}.cls-31{fill:#1a545a;}</style></defs><g id="Capa_2" data-name="Capa 2"><g id="Capa_1-2" data-name="Capa 1"><path class="cls-1" d="M5,35.12c0-1.12-.06-1.24-1.13-1.59S2.76,33,3,32c.23-1.2.21-1.24-.85-1.81-.89-.49-1-.71-.62-1.62C2,27.4,2,27.39,1,26.6.19,26,.15,25.75.68,24.89c.64-1,.64-1.07-.16-2s-.69-1,0-1.79.8-.94.16-2C.15,18.28.19,18,1,17.42c1-.78,1-.8.52-2-.35-.9-.27-1.14.57-1.6,1.13-.62,1.13-.62.89-1.89-.19-.94-.07-1.15.85-1.45C5,10.12,5,10.07,5,8.84c0-1,.08-1.14,1.12-1.31s1.23-.25,1.42-1.42S7.8,5,8.9,5s1.24-.06,1.6-1.13S11,2.76,12,3c1.2.23,1.24.21,1.81-.85.48-.89.71-1,1.62-.62,1.17.46,1.19.46,2-.52.62-.78.85-.82,1.71-.29,1,.64,1.08.64,2-.16s1-.69,1.79,0,.94.8,2,.16C25.75.15,26,.19,26.61,1c.78,1,.8,1,2,.52.89-.35,1.13-.27,1.59.56.62,1.14.62,1.14,1.9.89.94-.18,1.14-.06,1.44.86C33.91,5,34,5,35.2,5c1,0,1.13.08,1.3,1.12s.25,1.23,1.42,1.42S39.07,7.8,39,8.9s.06,1.24,1.13,1.6,1.11.49.91,1.52c-.24,1.21-.23,1.22.9,1.84.83.45.91.69.56,1.59-.46,1.17-.46,1.19.52,2,.78.63.82.86.29,1.72-.64,1-.63,1.07.16,2s.7,1,0,1.79-.8.94-.16,2c.53.86.49,1.09-.29,1.71-1,.79-1,.8-.52,2,.35.9.27,1.14-.56,1.59-1.13.62-1.14.63-.9,1.84.2,1,.1,1.19-.91,1.52S39,34,39,35.13s0,1.19-1.18,1.38-1.16.25-1.35,1.34-.26,1.21-1.44,1.18-1.19.09-1.52,1.07-.49,1.18-1.6,1-1.18-.19-1.75.86-.69,1-1.67.59-1.17-.41-1.88.49-.88.89-1.81.31-1.05-.58-1.88.15-1,.76-1.89,0-.92-.74-1.88-.15-1.13.54-1.8-.31-.81-.92-1.88-.49-1.19.32-1.68-.6-.61-1.07-1.81-.84c-1,.2-1.19.11-1.52-.91S10,39,8.9,39s-1.19,0-1.38-1.19-.25-1.16-1.35-1.34S5,36.24,5,35.12Z"/><path class="cls-2" d="M22,41.62a19.61,19.61,0,1,1,19.6-19.56A19.59,19.59,0,0,1,22,41.62Z"/><path class="cls-1" d="M17.16,23.78a9.59,9.59,0,0,1,4.91,2.13c1.06.91,1,1.61-.27,2.22a16.35,16.35,0,0,1-4,1.3l-.58.13a3.76,3.76,0,0,0,3.59.27c.29-.13.57-.29.87-.4a.74.74,0,0,1,.91.26.82.82,0,0,1,0,.91.74.74,0,0,1-.88.36,5.16,5.16,0,0,0-1.24-.26c-.26,0-.55,0-.65.29s.13.47.33.63a5.2,5.2,0,0,0,2,1,.83.83,0,0,1,.64,1.21.77.77,0,0,1-1.39,0,6.17,6.17,0,0,0-1.5-1.64c-.2-.15-.42-.33-.69-.15s-.21.49-.13.75a2.3,2.3,0,0,0,.6.9.88.88,0,0,1,.13,1.21.69.69,0,0,1-.92.22A.88.88,0,0,1,18.5,34a2.71,2.71,0,0,0-1.25-2.86,6.58,6.58,0,0,0-2.61-1,4.35,4.35,0,0,1-1.22-.34c-.51-.27-.56-.7-.09-1a2.57,2.57,0,0,1,.74-.37,24.65,24.65,0,0,1,5.08-1.18c.17,0,.41,0,.38-.21s-.28-.13-.46-.09a12.11,12.11,0,0,1-6-.25,4.18,4.18,0,0,1-.76-.31,1.44,1.44,0,0,1-.8-2.15,7.56,7.56,0,0,1,1.88-2.56,28,28,0,0,1,15.91-7.88l.06-.05c-.26-.18-.57,0-.83-.11a1.42,1.42,0,0,1,1.29-1.19,1.45,1.45,0,0,1,1.52.95,1.19,1.19,0,0,0,.85.82,4.21,4.21,0,0,1,1.28.7,1,1,0,0,1,0,1.82,16,16,0,0,1-5.42,3.18,2.15,2.15,0,0,0-1.2,1,7.19,7.19,0,0,0-1,2.27c-.11.54.08.75.63.75a2.94,2.94,0,0,0,2.62-1.74,4.62,4.62,0,0,1,.19-.47.69.69,0,0,1,1.32.14.69.69,0,0,1-.33.77c-.31.19-.65.32-1,.5s-.45.31-.36.61.39.28.65.26a4.42,4.42,0,0,0,1.78-.45.72.72,0,0,1,1,.09.69.69,0,0,1,0,.89.73.73,0,0,1-1,.23,4.31,4.31,0,0,0-1.71-.18c-.28,0-.58,0-.64.39s.22.47.46.61a4.26,4.26,0,0,0,1,.21.71.71,0,0,1,.57.69.68.68,0,0,1-.46.7.62.62,0,0,1-.82-.29c-.68-1.32-2-1.52-3.22-1.78A7,7,0,0,0,25.06,25c-.76,0-1-.3-.94-1.07s.19-1.26.26-1.9a1.18,1.18,0,0,0-.13-.9,6.39,6.39,0,0,1-1.66,3.13c-.46.44-.85.67-1.53.24a5.85,5.85,0,0,0-2.86-.8,2.67,2.67,0,0,0-1.16,0s-.11,0,0,0Z"/><path class="cls-3" d="M8.44,23.07c0-7.91,5.05-13.68,11.86-14.53.24,0,.47-.08.66.11a.38.38,0,0,1,.09.41c-.09.24-.27.29-.5.32a11.93,11.93,0,0,0-4.14,1.22c-4.63,2.45-7.12,6.3-7.07,11.53S12,31.27,16.79,33.62c.32.16.88.2.66.74s-.7.2-1,0C11.27,31.89,8.68,27.72,8.44,23.07Z"/><path class="cls-3" d="M34.74,22a13.07,13.07,0,0,0-.57-3.78c-.1-.31-.31-.7.16-.86s.57.31.68.64a13.65,13.65,0,0,1-8,16.65,12,12,0,0,1-2.89.78c-.33,0-.8.23-.88-.31s.42-.5.75-.55a12.33,12.33,0,0,0,7.17-3.75A12.53,12.53,0,0,0,34.74,22Z"/><path class="cls-3" d="M22.88,14.91c-.7.32-1.36.64-2,.92-.35.15-.61-.1-.85-.31a.53.53,0,0,1,0-.75c.13-.19.29-.37.44-.55a8.53,8.53,0,0,0,1.68-2.69,2.91,2.91,0,0,0,.1-1.93,1,1,0,0,1,0-.69A.65.65,0,0,1,23,8.49a.72.72,0,0,1,.35,1.06,3.35,3.35,0,0,0-.51,1.08c0,.25,0,.49.21.61s.41,0,.57-.18A4.67,4.67,0,0,0,24.72,9.5c.14-.36.36-.66.79-.62a.66.66,0,0,1,.61.57.77.77,0,0,1-.54.9A4.63,4.63,0,0,0,24,11.57a.48.48,0,0,0-.13.58c.12.24.37.19.57.13a5.5,5.5,0,0,0,.87-.36.72.72,0,0,1,1,1,.71.71,0,0,1-1,.26,2.62,2.62,0,0,0-2.81.4c-.32.25-.75.56-.67.95S22.51,14.73,22.88,14.91Z"/><path class="cls-3" d="M14.57,20a4.27,4.27,0,0,0-1.21-2.87.84.84,0,0,1,1-1.28.79.79,0,0,1,.46,1,3.48,3.48,0,0,0,0,1.4c.05.26.15.49.46.52s.46-.17.56-.42a7.29,7.29,0,0,0,.56-2.42.85.85,0,0,1,.65-.9.76.76,0,0,1,.88.37.85.85,0,0,1-.13,1.11,11.15,11.15,0,0,0-1.35,1.93C16,19,15.21,19.31,14.57,20Z"/><path class="cls-4" d="M10.27,35.32a1.58,1.58,0,0,1-1.53-1.57,1.74,1.74,0,0,1,1.62-1.6,1.6,1.6,0,0,1,1.55,1.55A1.68,1.68,0,0,1,10.27,35.32Z"/><path class="cls-5" d="M37.29,15.63c.47-.2.78-.33,1.08-.48s.37-.11.5.15.08.42-.2.54c-.68.29-1.35.62-2,.91-.13.06-.29.25-.45.07a.5.5,0,0,1-.09-.59c.23-.49.45-1,.75-1.65-.47.21-.78.33-1.07.49s-.4.06-.52-.21,0-.37.21-.47c.68-.31,1.35-.63,2-.92.14-.06.32-.29.49,0A.53.53,0,0,1,38,14C37.79,14.5,37.58,15,37.29,15.63Z"/><path class="cls-6" d="M8,13.1a2.51,2.51,0,0,0-.83-.58c-.25-.15-.41-.25-.2-.58s.34-.2.55-.08c.64.39,1.29.76,1.92,1.15.12.07.37.09.27.34a.48.48,0,0,1-.4.36c-.54.09-1.08.2-1.81.34l.91.55c.21.13.48.19.26.56s-.37.23-.6.09c-.62-.38-1.25-.73-1.87-1.11-.13-.08-.37-.1-.3-.33a.48.48,0,0,1,.44-.39C6.83,13.33,7.36,13.21,8,13.1Z"/><path class="cls-5" d="M26,38.18a2.46,2.46,0,0,0,.21,1c.09.29,0,.39-.3.48s-.37-.08-.43-.29c-.19-.71-.39-1.43-.59-2.14,0-.16-.16-.33,0-.47a.48.48,0,0,1,.59,0l1.41.94a2.68,2.68,0,0,0-.22-1.11c-.09-.28,0-.38.25-.44s.39,0,.47.25c.17.72.4,1.42.59,2.14,0,.16.21.38,0,.51a.55.55,0,0,1-.6,0C26.94,38.77,26.49,38.49,26,38.18Z"/><path class="cls-5" d="M11.92,7.29A1.64,1.64,0,0,1,13.47,9a1.57,1.57,0,0,1-1.53,1.48,1.67,1.67,0,0,1-1.59-1.67A1.55,1.55,0,0,1,11.92,7.29Z"/><path class="cls-6" d="M23.37,40.07a12.43,12.43,0,0,0-1.83,0,.75.75,0,0,1-.69-1.21.68.68,0,0,0,.08-.78.78.78,0,0,1,.4-1,.9.9,0,0,1,1.21.2.77.77,0,0,1-.08,1.08c-.09.1-.31.19-.13.35s.26-.07.35-.17.31-.25.53,0,.1.37-.07.51C22.57,39.51,23.35,39.66,23.37,40.07Z"/><path class="cls-6" d="M18.6,37.49c-.25-.08-.49-.16-.74-.22s-.35-.16-.43.08.14.25.3.3l.43.11c.23.06.32.18.22.42s-.09.33-.38.27-.73-.42-.82-.05.49.3.77.42.45.17.35.52-.27.35-.57.27c-1.61-.4-1.62-.4-1.18-1.94s.42-1.52,2-1.05c.49.15.39.39.27.71C18.79,37.45,18.73,37.51,18.6,37.49Z"/><path class="cls-7" d="M18,4.35c.31,0,.3.19.35.35s.08.38-.2.44-.49.13-.73.2-.29.11-.21.31.2.1.32.07L18,5.56c.29-.1.3.13.37.3s0,.32-.19.37l-.07,0c-.23.16-.81,0-.66.42s.55,0,.84-.08.5-.09.61.29-.12.41-.38.49c-1.57.49-1.57.49-2-1.07s-.41-1.45,1.05-1.86Z"/><path class="cls-7" d="M36.85,27.58c-.1.21-.21.47-.32.72s-.17.33.06.43.23-.13.29-.25a.33.33,0,0,1,0-.06c.21-.18.05-.8.63-.53s0,.53,0,.79-.26.37,0,.47.25-.16.32-.3a5,5,0,0,0,.23-.53c.09-.3.25-.32.52-.19s.4.23.23.51a1,1,0,0,0-.11.23c-.6,1.37-.6,1.37-2,.76S35.32,29,36,27.49c.2-.44.42-.38.73-.2A.23.23,0,0,1,36.85,27.58Z"/><path class="cls-7" d="M7.6,32.86c-.18,0-.21-.16-.28-.26-.25-.37-.49-.75-.75-1.11s-.18-.38.1-.55c.64-.4,1.28-.83,1.9-1.27.29-.2.43-.13.59.14s.44.68.67,1,.24.44-.09.66-.44,0-.58-.21-.24-.35-.35-.53-.17-.2-.31-.11-.1.21,0,.32.18.29.28.43.23.33,0,.5-.34.14-.52-.08-.27-.75-.55-.54.21.53.29.82.33.28.12.48A2.58,2.58,0,0,1,7.6,32.86Z"/><path class="cls-7" d="M38.59,20.71c1.52,0,1.52,0,1.54,1.51,0,.29.09.59-.41.59s-.36-.32-.42-.6.19-.74-.19-.74-.16.48-.18.74-.08.39-.36.4-.3-.19-.33-.41.16-.71-.19-.69-.16.47-.19.73.09.59-.41.59-.39-.26-.4-.53C37,20.74,37,20.74,38.59,20.71Z"/><path class="cls-7" d="M38.41,17a1.39,1.39,0,0,1,1.19.78,1.5,1.5,0,0,1,0,1.58c-.1.16-.22.45-.46.29s-.48-.33-.25-.68a.76.76,0,0,0-1.17-1,.74.74,0,0,0-.06,1c.07.1.21.15.29.24s0,.46-.07.65-.31,0-.44,0a1.58,1.58,0,0,1-.75-1.68A1.66,1.66,0,0,1,38.41,17Z"/><path class="cls-4" d="M29.05,38.72c-.12-1-.24-2-.37-2.94,0-.27.12-.36.31-.48a.42.42,0,0,1,.56.09c.58.53,1.18,1,1.76,1.57.12.12.43.22.28.4a.63.63,0,0,1-.71.28c-.65-.22-.9-.09-1.09.57C29.69,38.56,29.35,38.55,29.05,38.72Z"/><path class="cls-6" d="M34.88,14.08c-.23-.35-.57-.5-.38-1a.62.62,0,0,0-.59-.79c-.52,0-.59-.31-.89-.62,1-.32,2-.63,3-.89.31-.08.63.41.46.69C36,12.34,35.44,13.18,34.88,14.08Z"/><path class="cls-4" d="M7.52,17.88c-.12.2,0,.48-.36.59A.68.68,0,0,0,7,19.59a.6.6,0,0,1,0,.81c-.17.22-.37-.08-.53-.18-.64-.38-1.26-.79-1.89-1.17a.52.52,0,0,1-.3-.62c.06-.3.26-.34.51-.38.8-.13,1.59-.27,2.39-.39C7.31,17.63,7.56,17.52,7.52,17.88Z"/><path class="cls-4" d="M28.3,8.24c-.31-.06-.68,0-.76-.58-.05-.31-.76-.51-1-.28s-.39.14-.62.08-.36-.21-.14-.47c.56-.63,1.1-1.28,1.64-1.94A.44.44,0,0,1,28,4.91c.19.07.33.15.32.39C28.29,6.27,28.3,7.24,28.3,8.24Z"/><path class="cls-4" d="M35.45,33.84a1,1,0,0,1-1.61.86,17.91,17.91,0,0,1-1.53-1.36c-.23-.21,0-.33.09-.46s.25-.3.46-.08.6.6.92.88.42.58.72.23-.11-.52-.3-.71a10.45,10.45,0,0,0-.83-.8c-.25-.2-.2-.35,0-.56s.32-.21.51,0c.39.39.81.76,1.19,1.16A1.09,1.09,0,0,1,35.45,33.84Z"/><path class="cls-4" d="M36.13,31.58c.18.11.34.24.52.35s.37.25.16.53-.3.29-.56.11c-.64-.46-1.3-.88-2-1.32-.14-.1-.27-.16-.15-.39.67-1.25,1.52-1.15,2.05-.31.22.35.69.28,1,.46.12.07.49,0,.33.31s-.19.51-.55.4l-.83-.28Z"/><path class="cls-4" d="M16.3,8c-.64.76-.92-.11-1.36-.35a.84.84,0,0,0,.18.59c.14.23.13.35-.13.48s-.4.11-.53-.18c-.32-.71-.67-1.41-1-2.11-.14-.25-.06-.35.17-.48,1-.57,1.56-.34,1.8.8C15.52,7.3,16.1,7.53,16.3,8Z"/><path class="cls-4" d="M20.6,5.94c-.9-.17-1.25-.58-1.1-1.28a.8.8,0,0,1,.72-.7.86.86,0,0,1,1,.42c.08.16.21.37.05.52a.51.51,0,0,1-.6,0c-.11-.07-.16-.27-.34-.15a.19.19,0,0,0-.07.16c.06.23.26.15.42.19a1,1,0,0,1,.81,1.21.93.93,0,0,1-1.18.7.88.88,0,0,1-.39-.18c-.21-.2-.4-.5-.25-.73a.48.48,0,0,1,.72,0,.16.16,0,0,0,.27,0A.13.13,0,0,0,20.6,5.94Z"/><path class="cls-5" d="M6,22.12c.23,0,.46,0,.69,0s.32.13.31.36,0,.37-.3.37c-.83,0-1.66,0-2.49,0-.11,0-.25,0-.27-.13a2,2,0,0,1,.17-1.24.77.77,0,0,1,1-.34A2.15,2.15,0,0,0,6.51,21c.14,0,.4-.24.45.1s.12.53-.26.62-.51.14-.77.21Z"/><path class="cls-6" d="M13.36,36.47a.39.39,0,0,1-.19,0c-.53-.34-.94-.31-1.2.35-.1.26-.28.08-.41,0s-.38-.15-.2-.42L12.8,34.2a.34.34,0,0,1,.2-.13,3.34,3.34,0,0,1,1.28,1.08,1,1,0,0,1-.36,1.08A.68.68,0,0,1,13.36,36.47Z"/><path class="cls-7" d="M7.3,29.5A.78.78,0,0,1,6.53,29c-.17-.44-.41-.46-.77-.24s-.47.23-.63-.17.1-.42.33-.51c.66-.29,1.33-.56,2-.87.3-.14.46-.1.56.23s.22.46.29.7A1,1,0,0,1,7.3,29.5Z"/><path class="cls-8" d="M9.43,10.78c.06-.11.13-.22.2-.33s.27-.15.41,0,.39.25.18.45c-.42.39-.08.57.17.78s.45.3.14.65-.46.08-.65-.09c-.53-.46-1-.94-1.58-1.38-.29-.23-.3-.41,0-.65a5,5,0,0,0,.42-.48c.17-.22.31-.36.61-.1s.3.41,0,.65c-.08.08-.21.17-.14.32A2.69,2.69,0,0,0,9.43,10.78Z"/><path class="cls-4" d="M31.15,35c-.18.13-.34.3-.56,0s-.31-.48.07-.7.47-.36.72-.52.3-.41.51-.1.54.39.09.7c-.23.15,0,.29.08.41.26.36.54.71.8,1.08.12.17.43.31.07.6s-.51,0-.68-.19-.53-.72-.81-1.07C31.37,35.09,31.32,35,31.15,35Z"/><path class="cls-9" d="M22.63,3.9l1,.08c.2,0,.48-.07.43.28s.12.55-.32.55-.27.27-.28.46c0,.47-.06.93-.08,1.4,0,.25-.1.38-.39.35s-.38-.11-.35-.39c0-.44.06-.89.09-1.33,0-.26.13-.53-.32-.6s-.14-.38-.14-.59S22.52,3.9,22.63,3.9Z"/><path class="cls-9" d="M30.87,6.38c-.26.45-.5.9-.75,1.34-.12.22-.29.39.05.63S30.1,8.78,30,9s-.26.15-.41.06a2.85,2.85,0,0,0-.45-.25c-.37-.14-.39-.33-.18-.66.4-.65.74-1.33,1.11-2,.09-.17.19-.28.39-.13S30.86,6.13,30.87,6.38Z"/><path class="cls-4" d="M15.85,35.82c-.21.46-.42.9-.62,1.35-.1.24-.35.46.08.72.27.17-.06.45-.14.67s-.28.09-.42,0l-.52-.23c-.23-.1-.32-.21-.19-.48.36-.72.68-1.46,1-2.19.08-.17.15-.31.37-.18S15.79,35.62,15.85,35.82Z"/><path class="cls-10" d="M32.9,7.58l-.23.33L31.88,9c-.09.12-.29.27-.09.43.46.36,0,.56-.15.75s-.38-.06-.57-.15c-.52-.26-.62-.55-.18-1s.81-1.08,1.22-1.62c.08-.11.16-.28.35-.15A4.64,4.64,0,0,1,32.9,7.58Z"/><path class="cls-9" d="M34.18,8.61a5.63,5.63,0,0,1,.43.4c.15.16,0,.27-.1.37-.55.59-1.12,1.16-1.66,1.76-.22.25-.35.1-.52-.05s-.3-.28-.07-.51c.58-.59,1.14-1.2,1.71-1.8A1.39,1.39,0,0,1,34.18,8.61Z"/><path class="cls-9" d="M8.06,16.41c-.12.29-.12.7-.65.46S6,16.32,5.33,16.06c-.27-.09-.38-.2-.24-.5s.18-.41.5-.27c.72.29,1.46.56,2.19.84C7.91,16.19,8.08,16.21,8.06,16.41Z"/><path class="cls-11" d="M5.73,26.19a.86.86,0,0,1,.11-1.71.89.89,0,0,1,.8.91A.88.88,0,0,1,5.73,26.19Z"/><path class="cls-7" d="M38.16,24.48a.86.86,0,0,1,0,1.71.86.86,0,0,1,0-1.71Z"/><path class="cls-12" d="M27.93,27.15s0,.1,0,.12c-.2.19-.13.63-.45.63s-.24-.45-.47-.63c-.13,0-.06.11-.08.17s.12.46-.17.45-.14-.33-.12-.48c.05-.31-.24-.78.19-.88s.36.48.55.72a.75.75,0,0,1,.07.12c.22-.05.17-.32.32-.42A.24.24,0,0,1,27.93,27.15Z"/><path class="cls-13" d="M25.86,26.48c.16,0,.41,0,.48.08s-.16.22-.24.34,0,.49-.07.74,0,.28-.18.27-.15-.12-.16-.23c0-.34.07-.67-.31-1C25.19,26.52,25.69,26.59,25.86,26.48Z"/><path class="cls-14" d="M27.93,27.15l-.19-.2c.05-.24.09-.51.42-.43s.1.32.15.49v.06c-.06.27.14.77-.13.79S28.13,27.37,27.93,27.15Z"/><path class="cls-15" d="M16.91,23.57a2.83,2.83,0,0,1,1.29.1h-1C17,23.76,16.91,23.79,16.91,23.57Z"/><path class="cls-16" d="M16.91,23.57l.25.11v.1l-.8-.05C16.55,23.47,16.74,23.57,16.91,23.57Z"/><path class="cls-17" d="M20.6,5.94c.16.07.16.18,0,.29s-.22.1-.28-.08A.19.19,0,0,0,20.6,5.94Z"/><path class="cls-18" d="M29.56,17.28A1.17,1.17,0,0,1,28,17a1.37,1.37,0,0,1-.08-1.71,1.17,1.17,0,0,1,1.49-.5c0,.11,0,.17-.1.23-.8.66-.7,1.49.24,2.15A.12.12,0,0,1,29.56,17.28Z"/><path class="cls-19" d="M29.56,17.28v-.17a3,3,0,0,0-.28-2.24l.16-.13A1.22,1.22,0,0,1,30.35,16,1.2,1.2,0,0,1,29.56,17.28Z"/><path class="cls-20" d="M10.42,33a.72.72,0,0,1,.68.73.79.79,0,0,1-.83.79.72.72,0,0,1-.69-.77A.77.77,0,0,1,10.42,33Z"/><path class="cls-20" d="M11.91,9.63a.74.74,0,0,1-.75-.79A.69.69,0,0,1,12,8.11a.72.72,0,0,1,.72.81A.71.71,0,0,1,11.91,9.63Z"/><path class="cls-21" d="M21.83,37.7c.12,0,.19.1.17.22a.2.2,0,0,1-.21.19c-.12,0-.17-.11-.16-.23S21.71,37.7,21.83,37.7Z"/><path class="cls-22" d="M21.6,39.09a.29.29,0,0,1,.27.24c0,.08-.07.15-.15.15a.21.21,0,0,1-.24-.22C21.48,39.18,21.51,39.09,21.6,39.09Z"/><path class="cls-17" d="M29.55,36.47c.27.09.46.2.46.43,0,.06-.22.19-.3.17C29.44,37,29.57,36.73,29.55,36.47Z"/><path class="cls-23" d="M35.37,11.83c-.09.22-.11.46-.39.45-.06,0-.18-.17-.17-.23C34.91,11.79,35.12,11.78,35.37,11.83Z"/><path class="cls-24" d="M5.52,18.74c.24-.14.43-.26.61-.09a.24.24,0,0,1,0,.34C5.85,19.11,5.72,18.89,5.52,18.74Z"/><path class="cls-25" d="M27.38,6.28c.05-.11.17-.16.22,0a.45.45,0,0,1,0,.52c-.09.1-.23,0-.32-.08A.5.5,0,0,0,27.38,6.28Z"/><path class="cls-26" d="M27.38,6.28c.25.22.16.34-.12.39C27,6.46,27.32,6.41,27.38,6.28Z"/><path class="cls-27" d="M35.55,31c0,.11-.13.17-.24.12s-.25-.1-.21-.26a.2.2,0,0,1,.25-.13A.23.23,0,0,1,35.55,31Z"/><path class="cls-28" d="M14.51,6.41a.25.25,0,0,1,.2.24c0,.14-.08.24-.22.23s-.19-.16-.21-.28S14.35,6.42,14.51,6.41Z"/><path class="cls-29" d="M5.13,22c0,.16-.16.14-.28.13s-.22,0-.18-.19A.24.24,0,0,1,5,21.78.23.23,0,0,1,5.13,22Z"/><path class="cls-30" d="M13.14,35.08c.19.12.41.18.37.42a.2.2,0,0,1-.28.16c-.14-.07-.34-.11-.31-.34S13.05,35.13,13.14,35.08Z"/><path class="cls-15" d="M7.56,28.43c0,.17-.06.26-.21.25s-.27-.19-.29-.36.11-.22.23-.23S7.51,28.3,7.56,28.43Z"/><path class="cls-31" d="M29.27,14.87a1.67,1.67,0,0,1,.28,2.24c-.63.1-.75-.37-.86-.8A1.1,1.1,0,0,1,29.27,14.87Z"/></g></g></svg>