<svg xmlns="http://www.w3.org/2000/svg" viewBox="0 0 117.29 54.79"><defs><style>.cls-1,.cls-2{fill:#7f7f7f;}.cls-2{fill-rule:evenodd;}</style></defs><g id="Capa_2" data-name="Capa 2"><g id="Capa_1-2" data-name="Capa 1"><path class="cls-1" d="M43.25,15.4a.73.73,0,0,0-.67-.42h-.16a.74.74,0,0,0-.55.89.6.6,0,0,0,.08.21c-.5.15-.9.15-1-.05s.22-.67.79-1c0-.12.08-.28.26-.38s.4-.11.48,0c.62-.25,1.15-.28,1.27,0s-.1.51-.49.83"/><path class="cls-1" d="M43.25,15.4a.73.73,0,0,0-.67-.42h-.16a.74.74,0,0,0-.55.89.6.6,0,0,0,.08.21c-.5.15-.9.15-1-.05s.22-.67.79-1c0-.12.08-.28.26-.38s.4-.11.48,0c.62-.25,1.15-.28,1.27,0s-.1.51-.49.83"/><path class="cls-1" d="M42.74,16.37a.67.67,0,0,1-.73-.3.67.67,0,0,1-.09-.21.68.68,0,0,1,1.28-.43.5.5,0,0,1,0,.13.68.68,0,0,1-.5.81"/><path class="cls-1" d="M42.74,16.37a.67.67,0,0,1-.73-.3.67.67,0,0,1-.09-.21.68.68,0,0,1,1.28-.43.5.5,0,0,1,0,.13.68.68,0,0,1-.5.81"/><path class="cls-1" d="M42.81,21.69l-.08,0a.32.32,0,0,1-.09-.24v-.25h0s.06,0,.08,0l.07.08a.94.94,0,0,1,0,.35"/><path class="cls-1" d="M42.81,21.69l-.08,0a.32.32,0,0,1-.09-.24v-.25h0s.06,0,.08,0l.07.08a.94.94,0,0,1,0,.35"/><path class="cls-1" d="M44.15,18.28a2.74,2.74,0,0,1,0,.48.25.25,0,0,1-.17.19h-.11a.24.24,0,0,1-.19-.28,3,3,0,0,0,0-.4,1.51,1.51,0,0,0-.3-1v.88a.11.11,0,0,1,0,0v1.43a.92.92,0,0,1-.4-.12,2.25,2.25,0,0,0-.31-.26l0,0V19h-.15v.11l0-.06a.58.58,0,0,0-.22-.18.4.4,0,0,0-.12,0s-.1,0-.12.11a.18.18,0,0,0-.07.05,1.2,1.2,0,0,0,0,.44.22.22,0,0,0,0,.14.21.21,0,0,0,0,.12.23.23,0,0,0,.12.12.39.39,0,0,0,.13.24,1.1,1.1,0,0,0,.13.86.63.63,0,0,0,.2.22v.31a.36.36,0,0,1-.37.37.37.37,0,0,1-.37-.37V17.14h0a1.22,1.22,0,0,0-.29.9,3.9,3.9,0,0,0,.15,1,.24.24,0,0,1-.17.29h-.06a.25.25,0,0,1-.24-.18A4.7,4.7,0,0,1,41,18.05a1.67,1.67,0,0,1,.44-1.24.86.86,0,0,1,.48-.27h1.25l.1,0h0a1.87,1.87,0,0,1,.45.41,2.08,2.08,0,0,1,.43,1.31"/><path class="cls-1" d="M44.15,18.28a2.74,2.74,0,0,1,0,.48.25.25,0,0,1-.17.19h-.11a.24.24,0,0,1-.19-.28,3,3,0,0,0,0-.4,1.51,1.51,0,0,0-.3-1v.88a.11.11,0,0,1,0,0v1.43a.92.92,0,0,1-.4-.12,2.25,2.25,0,0,0-.31-.26l0,0V19h-.15v.11l0-.06a.58.58,0,0,0-.22-.18.4.4,0,0,0-.12,0s-.1,0-.12.11a.18.18,0,0,0-.07.05,1.2,1.2,0,0,0,0,.44.22.22,0,0,0,0,.14.21.21,0,0,0,0,.12.23.23,0,0,0,.12.12.39.39,0,0,0,.13.24,1.1,1.1,0,0,0,.13.86.63.63,0,0,0,.2.22v.31a.36.36,0,0,1-.37.37.37.37,0,0,1-.37-.37V17.14h0a1.22,1.22,0,0,0-.29.9,3.9,3.9,0,0,0,.15,1,.24.24,0,0,1-.17.29h-.06a.25.25,0,0,1-.24-.18A4.7,4.7,0,0,1,41,18.05a1.67,1.67,0,0,1,.44-1.24.86.86,0,0,1,.48-.27h1.25l.1,0h0a1.87,1.87,0,0,1,.45.41,2.08,2.08,0,0,1,.43,1.31"/><path class="cls-1" d="M43.38,21.41v.07a.41.41,0,0,1-.07.22l0,0s0,0,0,0a1.31,1.31,0,0,0-.22-.05.46.46,0,0,1,0-.3h0a.21.21,0,0,0,.19-.1h.05a.27.27,0,0,1,.07.08"/><path class="cls-1" d="M43.38,21.41v.07a.41.41,0,0,1-.07.22l0,0s0,0,0,0a1.31,1.31,0,0,0-.22-.05.46.46,0,0,1,0-.3h0a.21.21,0,0,0,.19-.1h.05a.27.27,0,0,1,.07.08"/><path class="cls-1" d="M44.68,19.1s0,0-.11,0h0a.05.05,0,0,0,0,.05s0,0,0,0a.14.14,0,0,1,0,.1.14.14,0,0,1-.11,0h0v0a.83.83,0,0,0,.07.52.82.82,0,0,1-.33,1,1,1,0,0,1-.51.2h0l-.13.24h0a1.69,1.69,0,0,0,.19.33h0l.08,0a.19.19,0,0,1,.1,0l0,0h0v0s0,0,0,0l.21,0h0a.23.23,0,0,1,.07.07h0a.14.14,0,0,1-.09,0h0a.85.85,0,0,0-.22,0h-.07v0a.11.11,0,0,1,0,.06h-.08a.52.52,0,0,1-.13-.12v0h0a.16.16,0,0,1-.11,0h-.06s.07,0,.14-.06h0a.51.51,0,0,0-.16-.36l-.1,0v0a.17.17,0,0,1-.16.09H43v0a.57.57,0,0,0,0,.34h0a.76.76,0,0,1,.38.12h0a1.23,1.23,0,0,1-.31-.06l0,0s.08.06.07.12L43,22s0-.08,0-.08h0a.59.59,0,0,1-.11-.09v0l0,0a.24.24,0,0,1-.2,0h0s0,0,.17-.11h0a1.18,1.18,0,0,0,0-.38h0a.3.3,0,0,1-.07-.08h0l-.1,0a.45.45,0,0,1-.35-.26,1,1,0,0,1-.12-.84h0s-.14-.11-.13-.23h0c-.06,0-.1-.06-.11-.11a.08.08,0,0,1,0-.08h0a.32.32,0,0,1,0-.13h0a.34.34,0,0,1,0-.18h0a.36.36,0,0,1,0-.22.1.1,0,0,1,0,0h0c0-.09.06-.09.08-.09a.25.25,0,0,1,.1,0h0a.39.39,0,0,1,.2.16h0a.7.7,0,0,0,.24.21,1.78,1.78,0,0,1,.3.26h0a.89.89,0,0,0,.42.13.66.66,0,0,0,.36-.11.8.8,0,0,0,.15-.35.48.48,0,0,1,.23-.29h0a.06.06,0,0,1,0,0h0v0h.07v0a0,0,0,0,1,0,0h.09a0,0,0,0,1,0,0h.07s0,0,0,0v0h0a.14.14,0,0,1,.08.08V19h0s.09.06.09.08"/><path class="cls-1" d="M44.68,19.1s0,0-.11,0h0a.05.05,0,0,0,0,.05s0,0,0,0a.14.14,0,0,1,0,.1.14.14,0,0,1-.11,0h0v0a.83.83,0,0,0,.07.52.82.82,0,0,1-.33,1,1,1,0,0,1-.51.2h0l-.13.24h0a1.69,1.69,0,0,0,.19.33h0l.08,0a.19.19,0,0,1,.1,0l0,0h0v0s0,0,0,0l.21,0h0a.23.23,0,0,1,.07.07h0a.14.14,0,0,1-.09,0h0a.85.85,0,0,0-.22,0h-.07v0a.11.11,0,0,1,0,.06h-.08a.52.52,0,0,1-.13-.12v0h0a.16.16,0,0,1-.11,0h-.06s.07,0,.14-.06h0a.51.51,0,0,0-.16-.36l-.1,0v0a.17.17,0,0,1-.16.09H43v0a.57.57,0,0,0,0,.34h0a.76.76,0,0,1,.38.12h0a1.23,1.23,0,0,1-.31-.06l0,0s.08.06.07.12L43,22s0-.08,0-.08h0a.59.59,0,0,1-.11-.09v0l0,0a.24.24,0,0,1-.2,0h0s0,0,.17-.11h0a1.18,1.18,0,0,0,0-.38h0a.3.3,0,0,1-.07-.08h0l-.1,0a.45.45,0,0,1-.35-.26,1,1,0,0,1-.12-.84h0s-.14-.11-.13-.23h0c-.06,0-.1-.06-.11-.11a.08.08,0,0,1,0-.08h0a.32.32,0,0,1,0-.13h0a.34.34,0,0,1,0-.18h0a.36.36,0,0,1,0-.22.1.1,0,0,1,0,0h0c0-.09.06-.09.08-.09a.25.25,0,0,1,.1,0h0a.39.39,0,0,1,.2.16h0a.7.7,0,0,0,.24.21,1.78,1.78,0,0,1,.3.26h0a.89.89,0,0,0,.42.13.66.66,0,0,0,.36-.11.8.8,0,0,0,.15-.35.48.48,0,0,1,.23-.29h0a.06.06,0,0,1,0,0h0v0h.07v0a0,0,0,0,1,0,0h.09a0,0,0,0,1,0,0h.07s0,0,0,0v0h0a.14.14,0,0,1,.08.08V19h0s.09.06.09.08"/><path class="cls-1" d="M75.41,23.49a.37.37,0,0,1-.73,0l-.09-2.39h-.14l.09,2.38a.36.36,0,0,1-.34.38.37.37,0,0,1-.38-.35l-.06-1.63a.8.8,0,0,0,.16-.16,1.8,1.8,0,0,0,.12-.25.63.63,0,0,1,.31-.37l.1-.05.09-.05,0,0,.06,0-.06,0,0,0-.09,0a2.07,2.07,0,0,0-.53-.05l-.19,0h0l0-.5v-.2l0,0,.69.36.15.07.7.37,0,0Z"/><path class="cls-1" d="M75.41,23.49a.37.37,0,0,1-.73,0l-.09-2.39h-.14l.09,2.38a.36.36,0,0,1-.34.38.37.37,0,0,1-.38-.35l-.06-1.63a.8.8,0,0,0,.16-.16,1.8,1.8,0,0,0,.12-.25.63.63,0,0,1,.31-.37l.1-.05.09-.05,0,0,.06,0-.06,0,0,0-.09,0a2.07,2.07,0,0,0-.53-.05l-.19,0h0l0-.5v-.2l0,0,.69.36.15.07.7.37,0,0Z"/><path class="cls-1" d="M72.88,19.74a1.66,1.66,0,0,1-.83-.29.23.23,0,0,1-.12-.2Z"/><path class="cls-1" d="M72.88,19.74a1.66,1.66,0,0,1-.83-.29.23.23,0,0,1-.12-.2Z"/><path class="cls-1" d="M75.69,17.28c0,.19-.22.37-.58.48a.59.59,0,0,0-.12-.31.69.69,0,0,0-.45-.31h-.16a.71.71,0,0,0-.68.58s0,.07,0,.1c-.36-.08-.6-.24-.61-.43s.39-.48,1-.56c0-.13.14-.24.33-.25a.3.3,0,0,1,.34.22c.56,0,1,.24,1,.49"/><path class="cls-1" d="M75.69,17.28c0,.19-.22.37-.58.48a.59.59,0,0,0-.12-.31.69.69,0,0,0-.45-.31h-.16a.71.71,0,0,0-.68.58s0,.07,0,.1c-.36-.08-.6-.24-.61-.43s.39-.48,1-.56c0-.13.14-.24.33-.25a.3.3,0,0,1,.34.22c.56,0,1,.24,1,.49"/><path class="cls-1" d="M75.05,18a.65.65,0,0,1-.77.52.66.66,0,0,1-.54-.68s0-.06,0-.1a.66.66,0,0,1,1.3.05.74.74,0,0,1,0,.21"/><path class="cls-1" d="M75.05,18a.65.65,0,0,1-.77.52.66.66,0,0,1-.54-.68s0-.06,0-.1a.66.66,0,0,1,1.3.05.74.74,0,0,1,0,.21"/><path class="cls-1" d="M74.54,21l-.07,0a1.3,1.3,0,0,0-.21.12c-.27.19-.21.33-.37.58l-.11.12c-.27.24-.8.48-1,.16a1.82,1.82,0,0,0-.18.37,1.32,1.32,0,0,0-.09.3,3,3,0,0,0-.08.56,1,1,0,0,1,.94.61l-2,.07s.39-.62.88-.68a3.32,3.32,0,0,1,.19-.86,2.41,2.41,0,0,0-.22-.64c-.21.37-.89-.08-1-.35s0-.46-.6-.78c.31-.12,1.71,0,1.71.82a1.11,1.11,0,0,1,0,.19,2.13,2.13,0,0,1,.25.57,2.32,2.32,0,0,1,.19-.31,1.15,1.15,0,0,1,0-.19c0-.49.52-.69,1-.75h0a2,2,0,0,1,.72,0l.07,0"/><path class="cls-1" d="M74.54,21l-.07,0a1.3,1.3,0,0,0-.21.12c-.27.19-.21.33-.37.58l-.11.12c-.27.24-.8.48-1,.16a1.82,1.82,0,0,0-.18.37,1.32,1.32,0,0,0-.09.3,3,3,0,0,0-.08.56,1,1,0,0,1,.94.61l-2,.07s.39-.62.88-.68a3.32,3.32,0,0,1,.19-.86,2.41,2.41,0,0,0-.22-.64c-.21.37-.89-.08-1-.35s0-.46-.6-.78c.31-.12,1.71,0,1.71.82a1.11,1.11,0,0,1,0,.19,2.13,2.13,0,0,1,.25.57,2.32,2.32,0,0,1,.19-.31,1.15,1.15,0,0,1,0-.19c0-.49.52-.69,1-.75h0a2,2,0,0,1,.72,0l.07,0"/><path class="cls-1" d="M75.47,20.81c0,.07,0,.15,0,.22L75.31,21h0l-.72-.38-.14-.08-.65-.34-.08,0L73,19.74l-1-.55-.89-.46-.81,1.33-.06,0,.73-1.37-.07,0,.17-.32.07,0,0-.07.16.09,0,.07,1.43.81.74.42.29.16.38.21.29.17.2.11.73.41Z"/><path class="cls-1" d="M75.47,20.81c0,.07,0,.15,0,.22L75.31,21h0l-.72-.38-.14-.08-.65-.34-.08,0L73,19.74l-1-.55-.89-.46-.81,1.33-.06,0,.73-1.37-.07,0,.17-.32.07,0,0-.07.16.09,0,.07,1.43.81.74.42.29.16.38.21.29.17.2.11.73.41Z"/><path class="cls-1" d="M76.29,21.25l-.1.19-.26-.14a.14.14,0,0,0,0-.06,1.24,1.24,0,0,0,0-.16Z"/><path class="cls-1" d="M76.29,21.25l-.1.19-.26-.14a.14.14,0,0,0,0-.06,1.24,1.24,0,0,0,0-.16Z"/><path class="cls-1" d="M76,20.39A5.34,5.34,0,0,1,76,21a.13.13,0,0,0,0,.06.94.94,0,0,1,0,.16s0,0,0,.05l0,0a.24.24,0,0,1-.18.09h-.06a.24.24,0,0,1-.18-.28h0v-.06a2.23,2.23,0,0,0,0-.23.13.13,0,0,0,0-.06c0-.13,0-.26,0-.37v-.26a1.16,1.16,0,0,0-.31-.87h0l0,1.08v.3l-.72-.4-.9-.5v-.25l-.21.12-.64-.35h.12a.87.87,0,0,0,.54-.23.92.92,0,0,0,.14-.15l0,0h0a.18.18,0,0,1,.11-.1.16.16,0,0,1,.09,0l1.14,0h.09a.89.89,0,0,1,.48.24A1.61,1.61,0,0,1,76,20.13v.26"/><path class="cls-1" d="M76,20.39A5.34,5.34,0,0,1,76,21a.13.13,0,0,0,0,.06.94.94,0,0,1,0,.16s0,0,0,.05l0,0a.24.24,0,0,1-.18.09h-.06a.24.24,0,0,1-.18-.28h0v-.06a2.23,2.23,0,0,0,0-.23.13.13,0,0,0,0-.06c0-.13,0-.26,0-.37v-.26a1.16,1.16,0,0,0-.31-.87h0l0,1.08v.3l-.72-.4-.9-.5v-.25l-.21.12-.64-.35h.12a.87.87,0,0,0,.54-.23.92.92,0,0,0,.14-.15l0,0h0a.18.18,0,0,1,.11-.1.16.16,0,0,1,.09,0l1.14,0h.09a.89.89,0,0,1,.48.24A1.61,1.61,0,0,1,76,20.13v.26"/><path class="cls-1" d="M70.91,6c0,.16-.2.3-.49.38a.62.62,0,0,0-.09-.26A.57.57,0,0,0,70,5.83h-.13a.58.58,0,0,0-.57.46s0,0,0,.08c-.29-.08-.49-.22-.49-.38s.34-.37.8-.42a.3.3,0,0,1,.56,0c.46.05.8.22.8.42"/><path class="cls-1" d="M70.91,6c0,.16-.2.3-.49.38a.62.62,0,0,0-.09-.26A.57.57,0,0,0,70,5.83h-.13a.58.58,0,0,0-.57.46s0,0,0,.08c-.29-.08-.49-.22-.49-.38s.34-.37.8-.42a.3.3,0,0,1,.56,0c.46.05.8.22.8.42"/><path class="cls-1" d="M70.36,6.53a.54.54,0,0,1-1.07-.16s0-.06,0-.08A.54.54,0,0,1,70,5.88a.55.55,0,0,1,.42.49.86.86,0,0,1,0,.16"/><path class="cls-1" d="M70.36,6.53a.54.54,0,0,1-1.07-.16s0-.06,0-.08A.54.54,0,0,1,70,5.88a.55.55,0,0,1,.42.49.86.86,0,0,1,0,.16"/><path class="cls-1" d="M71.2,9.08l0,0a.12.12,0,0,1-.17,0h0v0l.1-.25.08.06a.12.12,0,0,1,0,.17"/><path class="cls-1" d="M71.2,9.08l0,0a.12.12,0,0,1-.17,0h0v0l.1-.25.08.06a.12.12,0,0,1,0,.17"/><path class="cls-1" d="M71.17,8.28a1.85,1.85,0,0,1-.08.49l0,0a1.48,1.48,0,0,1-.1.27h0l0,0a.18.18,0,0,1-.15.07l-.08,0a.2.2,0,0,1-.09-.26l0,0,0,0a2.22,2.22,0,0,0,.09-.28s0,0,0-.06a1.5,1.5,0,0,0,0-.2,1.06,1.06,0,0,0-.08-.35.88.88,0,0,0-.19-.26s0,0,0,0V8h-.06a.12.12,0,0,0-.1,0,.13.13,0,0,0,0,.15l-.84-.71-.26-.23-.07-.06.1,0h1.11l.06,0a1,1,0,0,1,.39.25,1.19,1.19,0,0,1,.33.54,1.23,1.23,0,0,1,0,.35"/><path class="cls-1" d="M71.17,8.28a1.85,1.85,0,0,1-.08.49l0,0a1.48,1.48,0,0,1-.1.27h0l0,0a.18.18,0,0,1-.15.07l-.08,0a.2.2,0,0,1-.09-.26l0,0,0,0a2.22,2.22,0,0,0,.09-.28s0,0,0-.06a1.5,1.5,0,0,0,0-.2,1.06,1.06,0,0,0-.08-.35.88.88,0,0,0-.19-.26s0,0,0,0V8h-.06a.12.12,0,0,0-.1,0,.13.13,0,0,0,0,.15l-.84-.71-.26-.23-.07-.06.1,0h1.11l.06,0a1,1,0,0,1,.39.25,1.19,1.19,0,0,1,.33.54,1.23,1.23,0,0,1,0,.35"/><path class="cls-1" d="M68.5,8.87a3.69,3.69,0,0,1-.25,1.89s-.13.36-.3.2a1.34,1.34,0,0,1-.39-.73c-.07-.36-.1-.68-.12-.88s0-.41,0-.41l0,.12a3.25,3.25,0,0,0,0-.41c0-.2,0-.52,0-.6s.12.17.14.08.29-.73.32-.84-.13-.36-.28-.65-.23-.42-.17-.44.39.38.5.44.34-.25.41-.32.14-.06.14,0-.36.76-.4.89.19.52.24.93a1.24,1.24,0,0,0,.06.25s.1-.11.14-.11-.06.51-.07.62"/><path class="cls-1" d="M67.9,7.28a.93.93,0,0,1,0,.1l-.09,0,0,0,0,0a.14.14,0,0,1-.07-.06l0,0a.11.11,0,0,1,0-.08.14.14,0,0,1,0-.07V7l0,0,.1,0c.08.15.15.28.13.34"/><path class="cls-1" d="M70.48,8.72v2.39a.3.3,0,1,1-.59,0v-2h-.12v2a.3.3,0,1,1-.59,0V7.56a2.22,2.22,0,0,1-.44.06l-.17,0a1.41,1.41,0,0,1-.27,0l-.08,0a.47.47,0,0,1-.06-.33.46.46,0,0,0,0-.09l.16.06.11,0a.89.89,0,0,0,.28,0h.15l.29.26.08.07.78.7.42.36a.17.17,0,0,0,0,.12"/><path class="cls-1" d="M67.42,6.09A6.41,6.41,0,0,0,67,8.45a4.5,4.5,0,0,0,.92,2.8h0a0,0,0,0,1,0,0H68a.13.13,0,0,0,.11-.12,0,0,0,0,1,0,0,.13.13,0,0,1-.1.15.12.12,0,0,1-.12,0h0a0,0,0,0,1,0-.05v0a4.53,4.53,0,0,1-.93-2.82,6.52,6.52,0,0,1,.56-2.57l0,0,0,0,.74.64,0,0-.67-.6s0,.09-.08.18"/><path class="cls-1" d="M70.71,8.5a1.9,1.9,0,0,1-.09.29l-.08-.07a.13.13,0,0,1,0-.13l0,0-.39-.34-.78-.7-.13-.11L69,7.2l-.57-.5,0-.07.65.55.11.1.24.21.86.73.11.09h0l0,0c-.08-.08-.11-.17-.07-.22a.12.12,0,0,1,.13,0,.42.42,0,0,1,.13.07c.09.09.13.2.09.25s-.13,0-.22,0h0l0,0h0l0,0,.12.1a.14.14,0,0,1,.11,0"/><path class="cls-2" d="M73.39,28.94c-.08.06-.16,0-.24-.05-.3-.26-.92-.08-1.27,0a.49.49,0,0,1-.37-.06l-.19-.13h0L71,28.43a4.51,4.51,0,0,1-.55-.52c-.06-.07-.42-.4-.32-.53s.32.05.41,0,.22.07.31.15l.26.24-.15,0c-.29.11,0,.4.14.41l.59,0,.33,0,.12,0a.21.21,0,0,0,.11,0c.1,0,.1-.05,0-.09h0a2,2,0,0,0-.54-.08h-.14a1.31,1.31,0,0,1-.56-.05c-.15-.07-.14-.19,0-.25a.53.53,0,0,1,.12,0h.93l.23,0,.06,0,.25,0a1.07,1.07,0,0,1,.25,0,.89.89,0,0,1,.29.15,3.47,3.47,0,0,0,.64.44c.13.06-.36.51-.39.54"/><path class="cls-2" d="M74.24,27.7s-.27.65-.37.55a4.09,4.09,0,0,0-.64-.45,1,1,0,0,1-.23-.22.84.84,0,0,1-.12-.23.6.6,0,0,1,0-.24s0,0,0-.06a2,2,0,0,0,0-.24,1.54,1.54,0,0,0,0-.17c0-.1-.08-.21-.11-.31a.49.49,0,0,1,0-.11.14.14,0,0,1,0-.06.14.14,0,0,1,0-.06l-.06-.17a.5.5,0,0,1,0-.12c0-.15.12-.21.23-.09a1.41,1.41,0,0,1,.24.51.69.69,0,0,1,0,.13,2,2,0,0,0,.26.48h0c.06.08.1.06.08,0a.41.41,0,0,0,0-.09.76.76,0,0,1-.08-.11,2.59,2.59,0,0,1-.14-.29c-.09-.18-.17-.37-.24-.55s-.42-.3-.43,0a.62.62,0,0,0,0,.16,3.27,3.27,0,0,0-.31-.17c-.11-.06-.22-.1-.25-.24s-.26-.24-.18-.37.53.08.62.12a6,6,0,0,1,.67.34,2.5,2.5,0,0,1,.35.21h0l.18.13a.49.49,0,0,1,.19.33c0,.35.07,1,.42,1.2.09.05.16.11.13.2"/><path class="cls-2" d="M72.53,27.7l-.25,0h-.06a.9.9,0,0,0-.12-.6A.41.41,0,0,0,72,27l0,0a.76.76,0,0,1,.12.61s-.65-.3-.68-.49a.22.22,0,0,1,0-.12.28.28,0,0,0-.06.18c0,.17.35.42.58.57h-.7a1,1,0,0,1-.18-.74.43.43,0,0,1-.2-.24H70.6l.2-.14-.29-.2h.41a.45.45,0,0,1,.43-.28.47.47,0,0,1,.47.46.13.13,0,0,1,0,.06,1.18,1.18,0,0,1,.59.26.52.52,0,0,1,.13.71"/><path class="cls-1" d="M72.47,30.54s0,.05,0,.08-.15.25-1,.44a14.63,14.63,0,0,1-2.9,0,8.89,8.89,0,0,1-1.29.13c-.13,0,.37-.28.22-.3a6.39,6.39,0,0,1-1.14-.28c-.33-.12-.54-.29-.9-.2a5.32,5.32,0,0,0-.55.34l-.82.47a1.35,1.35,0,0,1-.24.08s0-.07.07-.17.63-.51.69-1-.47-1.07-.33-1.05.65.52,1,.74.43.33.72.23.48-.2.82-.3.56-.12.7-.17c.33-.14-.13-.3,0-.29a8.83,8.83,0,0,1,.92.15s.28,0,.76-.06c.17,0,.07-.16.13-.19a.85.85,0,0,1,.29.06,3,3,0,0,0,.6.16,8.77,8.77,0,0,1,1.08.17,2.73,2.73,0,0,1,1.32.84c.06.12-.06.08-.11.12"/><path class="cls-1" d="M70.06,26.17l-.44-2s0,0,0,0l0,0a1.33,1.33,0,0,0,.7-.16s0,0,0,0l0,0,.44,2a0,0,0,0,1,0,.05,0,0,0,0,1,0,0l-.42-.31-.23.45a.05.05,0,0,1-.05,0h0l0,0"/><path class="cls-1" d="M69,23.9a1,1,0,0,0,.32.15,0,0,0,0,1,0,0,0,0,0,0,1,0,0l-1.1,1.71a0,0,0,0,1,0,0,0,0,0,0,1,0,0l-.08-.51-.48.15h0s0,0,0-.05l1.1-1.71,0,0s0,0,0,0a1.64,1.64,0,0,0,.28.23"/><path class="cls-1" d="M68.78,22.11a1.1,1.1,0,0,0,.33,1.54,1.12,1.12,0,1,0,1.21-1.88,1.11,1.11,0,0,0-1.54.34m-.16-.1a1.3,1.3,0,1,1,.39,1.8,1.3,1.3,0,0,1-.39-1.8"/><path class="cls-1" d="M70.18,22a.85.85,0,1,0,.26,1.18A.85.85,0,0,0,70.18,22m0,.81L70,22.71a.19.19,0,0,0,0-.13.24.24,0,0,0-.06-.11.14.14,0,0,0-.1,0h-.1l-.1,0a.27.27,0,0,0-.08.07.24.24,0,0,0-.06.09.19.19,0,0,0,0,.1.16.16,0,0,0,0,.1.15.15,0,0,0,.06.09.18.18,0,0,0,.13.06.18.18,0,0,0,.13,0l-.15-.14.13-.14.35.33a.46.46,0,0,1-.07.07L70,23.1l-.08,0-.1,0a.42.42,0,0,1-.22,0,.62.62,0,0,1-.19-.11.61.61,0,0,1-.12-.16.59.59,0,0,1,0-.19.57.57,0,0,1,0-.18.62.62,0,0,1,.11-.17.52.52,0,0,1,.17-.13.61.61,0,0,1,.18,0,.41.41,0,0,1,.19,0,.58.58,0,0,1,.18.11.48.48,0,0,1,.14.22.46.46,0,0,1,0,.26"/><path class="cls-2" d="M48.55,15.43c-.09.06-.18,0-.26-.07-.32-.31-1-.13-1.41-.06a.52.52,0,0,1-.4-.09,4.22,4.22,0,0,1-.56-.47,6.55,6.55,0,0,1-.58-.6c-.07-.08-.44-.47-.33-.61s.35.07.45.06.24.09.33.19l.29.27-.17,0c-.33.12-.08.44.13.46s.68.07,1,.13c.08,0,.16.08.25.07s.11-.06,0-.1a2.75,2.75,0,0,0-.76-.13,1.61,1.61,0,0,1-.62-.08c-.16-.08-.14-.22,0-.28l.13,0h.46l.37,0a1.57,1.57,0,0,0,.53-.05,1,1,0,0,1,.55,0,1.14,1.14,0,0,1,.32.18,3.83,3.83,0,0,0,.68.52c.14.07-.42.55-.46.58"/><path class="cls-1" d="M47.25,13.44a.43.43,0,0,1-.45.41.42.42,0,0,1-.4-.45,3.39,3.39,0,0,1,.47-.91,3.47,3.47,0,0,1,.38.95"/><path class="cls-1" d="M48.51,6.79c-.1.18-.46.19-.91,0a.62.62,0,0,0,.07-.19.65.65,0,0,0-.49-.8l-.15,0a.66.66,0,0,0-.6.38c-.35-.28-.53-.57-.44-.75s.59-.18,1.14,0a.35.35,0,0,1,.43,0,.38.38,0,0,1,.24.35c.51.34.82.73.71.94"/><path class="cls-1" d="M47.76,11.1v.66a.34.34,0,1,1-.67,0V10.61l.15.1V11h0a.15.15,0,0,0,.15.15h.38Z"/><path class="cls-1" d="M47,10.53v1.23a.33.33,0,1,1-.66,0V10.1Z"/><path class="cls-1" d="M47.62,6.63a.41.41,0,0,1-.08.19.59.59,0,0,1-.65.27.61.61,0,0,1-.45-.73.36.36,0,0,1,0-.11.6.6,0,0,1,1.14.38"/><path class="cls-1" d="M49.09,9.73a.54.54,0,0,0-.35-.09h-.1c0-.05,0-.08-.07-.08h-.15a.86.86,0,0,0-.1-.16l0-.05v0a.23.23,0,0,1-.07.1l0,0,0,.06h-.5v0l0,0,0,0a.13.13,0,0,1-.06-.07h0l0,0-.06.07a.42.42,0,0,0-.09.14v0h-.15s-.08.07-.08.16l0,.31L47.09,10,47,10l-.66-.19h0s0-.1-.13-.13l-.2-.14h0a.08.08,0,0,0,0-.11l0,0a.08.08,0,0,0-.11.05l-.18.45a.1.1,0,0,0,.05.11h0a.08.08,0,0,0,.11,0h0L46,10c.09,0,.17,0,.19,0l.12.08.66.42.13.09.21.13V11a.09.09,0,0,0,.09.1h.38l.9,0a.09.09,0,0,0,.09-.1v-.08a1.52,1.52,0,0,0,.43-.37.58.58,0,0,0,.1-.32.52.52,0,0,0-.19-.43m-.07.62a.52.52,0,0,1-.15.18l-.14.1-.07-.79h.08a.44.44,0,0,1,.23.06c.06,0,.11.11.12.28a.34.34,0,0,1-.07.18"/><path class="cls-1" d="M48.42,8.37c0,.09,0,.19,0,.3a3.7,3.7,0,0,1-.16.61l0,.05v0a.24.24,0,0,1-.06.09l0,0-.09,0h-.1l0,0a.21.21,0,0,1-.07-.13V9.26a.08.08,0,0,0,0,0A3.47,3.47,0,0,0,48,8.67a1.89,1.89,0,0,0,0-.3A.83.83,0,0,0,47.92,8a.52.52,0,0,0-.16-.19V9.2a.28.28,0,0,0,0,.09l-.11.09a1,1,0,0,0-.08.14h-.12a.09.09,0,0,0-.07,0l0,0a.32.32,0,0,0,0,.14l0,.24-.19-.05V9.56H47v.33l-.65-.19V8.1a2,2,0,0,1-1.23.46h0a.21.21,0,0,1-.16-.08c.1-.12.17-.26.12-.35h0a1.54,1.54,0,0,0,1-.37c.09-.09.16-.18.21-.24l0-.07v0h0l0-.06a.21.21,0,0,1,.17-.08h1.11a.4.4,0,0,1,.14,0,1,1,0,0,1,.27.14,1,1,0,0,1,.27.34,1.16,1.16,0,0,1,.12.56"/><path class="cls-1" d="M44.5,8.81a.2.2,0,1,1-.4,0,.2.2,0,0,1,.4,0"/><path class="cls-1" d="M44.43,8.19c0,.17-.06.32-.13.32s-.13-.15-.13-.32.06-.32.13-.32.13.14.13.32"/><path class="cls-1" d="M44.43,9.44c0,.18-.06.32-.13.32s-.13-.14-.13-.32.06-.32.13-.32.13.14.13.32"/><path class="cls-1" d="M44.87,8.43l0,0c-.13.12-.27.18-.33.13s0-.2.14-.32.26-.19.32-.14h0s0,.17-.1.28"/><path class="cls-1" d="M44,9.35c-.13.13-.27.19-.33.13s0-.19.13-.32S44,9,44.09,9s0,.2-.13.32"/><path class="cls-1" d="M45.24,8.81c0,.08-.14.14-.32.14s-.32-.06-.32-.14.15-.13.32-.13.32.06.32.13"/><path class="cls-1" d="M44,8.81c0,.08-.15.14-.32.14s-.32-.06-.32-.14.14-.13.32-.13.32.06.32.13"/><path class="cls-1" d="M45,9.48c-.06.06-.2,0-.32-.13s-.19-.27-.14-.32.2,0,.33.13.18.27.13.32"/><path class="cls-1" d="M44.09,8.6c-.06.05-.2,0-.33-.13s-.18-.27-.13-.33.2,0,.33.14.18.27.13.32"/><path class="cls-1" d="M44.7,10.43c0,.08-.11.12-.35,0s-.55-.25-.52-.33.38,0,.62.06.28.17.25.24"/><path class="cls-1" d="M45.31,10.14c-.09.23-.17.27-.24.24s-.1-.11,0-.34.26-.53.33-.5,0,.37-.08.6"/><path class="cls-1" d="M45.48,10.93a.12.12,0,0,1-.11.11l-.19,1h-.7l-.19-1a.12.12,0,0,1-.11-.11.12.12,0,0,1,.12-.12h.5v0a3.07,3.07,0,0,0-.12-.84L44.6,9.7l0-.07v0a.07.07,0,1,1,.12-.06,1.81,1.81,0,0,1,.13.35,3.35,3.35,0,0,1,.13.88v0h.42a.12.12,0,0,1,.12.12"/><path class="cls-1" d="M49.41,24.53v2.69a.39.39,0,0,1-.39.39.38.38,0,0,1-.39-.39V25.44a1.21,1.21,0,0,0,.23-.22.8.8,0,0,0,.18-.41,4,4,0,0,0,.37-.28"/><path class="cls-1" d="M48.47,25.53v1.69a.39.39,0,1,1-.77,0V26.08a1.26,1.26,0,0,0,.47-.42,1.14,1.14,0,0,0,.3-.13"/><path class="cls-1" d="M46.37,23.51l-.14.06a.25.25,0,0,1-.16-.22v0a1.54,1.54,0,0,1,.3.2"/><path class="cls-1" d="M46.61,23a.88.88,0,0,0,0,.17l-.22-.13a.93.93,0,0,0,.24,0"/><path class="cls-1" d="M50,20.39c0,.21-.26.39-.65.5a.89.89,0,0,0-.11-.35.81.81,0,0,0-.48-.35l-.18,0a.77.77,0,0,0-.75.61s0,.07,0,.11c-.38-.11-.64-.29-.64-.5s.44-.5,1-.57c0-.14.16-.25.36-.25s.36.11.37.25c.6.07,1,.3,1,.57"/><path class="cls-1" d="M49.24,21.12a.71.71,0,0,1-.85.55.74.74,0,0,1-.54-.77.34.34,0,0,1,0-.1.71.71,0,0,1,1.4.1.53.53,0,0,1,0,.22"/><path class="cls-1" d="M48.85,24.89h0a.38.38,0,0,1-.16,0s0,.07,0,.11l0,.13a.82.82,0,0,1-.16.25.41.41,0,0,1-.29.12.6.6,0,0,0-.31.15.81.81,0,0,1-.17.3.25.25,0,0,1-.12,0,1,1,0,0,1-.42-.12,2.87,2.87,0,0,1-.65-.51,1.59,1.59,0,0,1-.52-.78A.85.85,0,0,1,46.1,24c.12-.23.23-.35.49-.32a.11.11,0,0,0,.08,0l.18.18c0,.05.24-.08.21-.11l-.09-.1a1.28,1.28,0,0,0,.35-.38l.06-.07,0,0h0a1.34,1.34,0,0,1,.27.07l.12.06.12.08a1.72,1.72,0,0,1,.53.64h0a1.64,1.64,0,0,1,.14.33l0,0a0,0,0,0,1,0,0l.12-.09.13-.1a1.64,1.64,0,0,0-.19-.4l-.07-.09A1.39,1.39,0,0,0,47.7,23h-.14a.68.68,0,0,0,.14-.25h0c.07-.2.08-.52.22-.68,0,0,0,0,0-.05l-.12,0h0a.8.8,0,0,0-.9.46,3.08,3.08,0,0,0-.21.59,2.16,2.16,0,0,0,0,.35,1.34,1.34,0,0,0-.43-.25.71.71,0,0,0-.67.08c-.1.08,0,.05.11,0h0a.4.4,0,0,1,.39,0,3.46,3.46,0,0,1,.37.24l.08.06,0,0,0,0,0,0h0l0,0H46.6l-.09,0,0,0-.09,0a1.16,1.16,0,0,0-.63.62c-.22.56.13,1,.51,1.33s.67.61,1.06.57A1.21,1.21,0,0,0,47.7,26a1.15,1.15,0,0,0,.42-.4,1.19,1.19,0,0,0,.35-.15l.16-.1c.06-.06.12-.11.17-.17a.85.85,0,0,0,.15-.3l-.1,0m-1.91-2a.06.06,0,0,1,0,0,1.14,1.14,0,0,1,.38-.75,2,2,0,0,1,.35,0h0a.39.39,0,0,0-.06.11,3.31,3.31,0,0,0-.12.45,1,1,0,0,1-.19.38l-.11.12a.46.46,0,0,1-.07.07l-.12.13,0,.07s0,.06-.07,0l0,0a0,0,0,0,1,0,0,.47.47,0,0,1,0-.17,2.08,2.08,0,0,1,.06-.36"/><path class="cls-1" d="M47.36,23.59a.69.69,0,0,1-.76.49c-.14,0,0-.18.1-.17s.36-.1.44-.3.26-.14.22,0"/><path class="cls-1" d="M50.2,23.09a1.39,1.39,0,0,1-.28.8,1.24,1.24,0,0,1-.18.22,3.44,3.44,0,0,1-.33.34l0,0-.15.12-.17.14-.08.05h0l-.11,0h0a.23.23,0,0,1-.16-.06s0,0,0-.05h0a.15.15,0,0,1,0-.11.21.21,0,0,1,0-.17h0l.06-.07.1-.08.14-.1.06-.05a3.15,3.15,0,0,0,.41-.4h0a1.47,1.47,0,0,0,.1-.13l0,0a.87.87,0,0,0,.16-.46.5.5,0,0,0-.08-.27,1,1,0,0,0-.21-.24v1l0,0a3.35,3.35,0,0,1-.42.43,1.66,1.66,0,0,0-.2-.4l-.09-.13a1.52,1.52,0,0,0-1-.63h0a.77.77,0,0,0,.07-.16,1.32,1.32,0,0,0,0-.23A.9.9,0,0,1,48,22.1.19.19,0,0,0,48,22s0-.05,0-.06h1.26l.09,0,.14.07a1.7,1.7,0,0,1,.29.2,1.52,1.52,0,0,1,.31.35,1.06,1.06,0,0,1,.15.54"/><path class="cls-1" d="M64.22,19.92a1.59,1.59,0,0,1-.07.5c-.09-.11,0-.26,0-.39a.19.19,0,0,0-.17-.21,1.24,1.24,0,0,1-.36-.11,1.26,1.26,0,0,1-.56-.5c-.16-.26-.3-.51-.68-.53a3,3,0,0,1,.91.05,1.36,1.36,0,0,1,.6.3,1.23,1.23,0,0,1,.36.89"/><path class="cls-1" d="M66.83,19.26a1.82,1.82,0,0,1-1.24.59c-.45,0-.86-.22-1.06.24,0,.13-.06.25-.12.38a.3.3,0,0,1-.24.15,1.81,1.81,0,0,0,.15-.74,1.73,1.73,0,0,0-.36-1,8.74,8.74,0,0,1-.73-.88A1.73,1.73,0,0,1,63,16.9c0,.29.32.62.54.76a1.61,1.61,0,0,1,.62.48.55.55,0,0,1,.1.41c0,.13-.08.22-.09.35a.25.25,0,0,0,.1.27,2,2,0,0,1,.07-.34,1.13,1.13,0,0,1,.11-.22.2.2,0,0,1,.07.16,1.88,1.88,0,0,1,0,.33,1,1,0,0,0,0,.34,1.55,1.55,0,0,1,0,.34.41.41,0,0,0,.22-.23A1.12,1.12,0,0,1,65,19.2c.26-.22.7-.09,1,0s.63.22.83.05"/><path class="cls-1" d="M66.71,18.89c-.1,0-.19.11-.4.1a.59.59,0,0,1-.53-.23.8.8,0,0,0-.72-.21c-.1,0-.14.1-.22.16a.42.42,0,0,1-.21.09.34.34,0,0,0-.11-.29c0-.17.06-.26,0-.37-.13-.38-.4-.41-.63-.7a1.06,1.06,0,0,1-.25-.64.63.63,0,0,0,.39,0c.22,0,.32,0,.46.22a1,1,0,0,1,.09.53c.2-.32.66-.17.91-.18,0,.27.24.44.07.87a.73.73,0,0,1,.64-.06.42.42,0,0,1,.28.27c.06.11.08.34.21.4"/><path class="cls-1" d="M65.58,17.3a1.07,1.07,0,0,1-.47-.22,2.87,2.87,0,0,1-.43.25c-.1-.28-.09-.48.06-.62s.24-.1.43-.28c.29.25.66.37.41.87"/><path class="cls-1" d="M66.76,17.37c-.14.24,0,.65-.38.82a.88.88,0,0,0-.56-.08c0-.13,0-.31.13-.45-.08,0-.26-.13-.32-.32a.46.46,0,0,1,.48-.13c.29,0,.38.22.65.16"/><path class="cls-2" d="M62.1,20.13c-.07.05-.14,0-.21-.05-.28-.23-.84-.06-1.15,0a.45.45,0,0,1-.34-.05l-.17-.12h0l-.29-.23a4.42,4.42,0,0,1-.5-.47c-.06-.06-.38-.36-.3-.48s.29,0,.38,0a.35.35,0,0,1,.28.14,1.64,1.64,0,0,0,.24.21l-.14,0c-.26.11,0,.36.13.37l.38,0h.16l.3,0a.45.45,0,0,1,.11,0,.16.16,0,0,0,.1,0c.08,0,.09-.05,0-.08h0a1.92,1.92,0,0,0-.48-.07h-.23a.8.8,0,0,1-.41,0c-.14-.06-.13-.17,0-.23l.1,0h.85l.21,0,0,0,.22,0a.85.85,0,0,1,.23,0,.76.76,0,0,1,.26.12h0a3.5,3.5,0,0,0,.58.4c.12.05-.32.46-.35.49"/><path class="cls-2" d="M62,17.41a1.22,1.22,0,0,1-.49.34.55.55,0,0,1-.4-.08,1,1,0,0,1,.55-.26,2.06,2.06,0,0,0-.52.08l-.07,0a.61.61,0,0,1,.29-.31c.23-.09.64.2.64.2"/><path class="cls-2" d="M62.46,16.89c0,.14-.27.12-.33.17a.31.31,0,0,1-.31,0L61.5,17l.1-.1c.16-.23-.16-.33-.31-.25l-.47.26-.27.14-.11,0-.09,0c-.06.06-.05.09,0,.07h0a1.82,1.82,0,0,0,.45-.2L61,17a1.4,1.4,0,0,1,.45-.24c.15,0,.2.09.11.2a.27.27,0,0,1-.07.08l-.13.08,0,0-.05,0-.09.06h0l.08.05a.47.47,0,0,0-.13.57H61l-.07,0a.82.82,0,0,1-.08-.45l-.11.08-.16.15,0,0a.84.84,0,0,1-.18.15.72.72,0,0,1-.2.09.77.77,0,0,1-.3,0,4.1,4.1,0,0,0-.7,0c-.13,0,0-.56,0-.6s.12-.08.21-.07c.36.05.74-.39,1-.63a.44.44,0,0,1,.31-.13h.23l.37,0a5.13,5.13,0,0,1,.66.13c.09,0,.52.11.51.25"/><path class="cls-2" d="M62.06,18.57a1.23,1.23,0,0,1-.14.46l-.06.12A.76.76,0,0,0,61.6,19a.85.85,0,0,0-.23,0l-.22,0,0,0-.21,0h-.73l0-.08a1.23,1.23,0,0,1-.14-.46.6.6,0,0,1,.18-.47.71.71,0,0,1,.39-.18,5.53,5.53,0,0,0,.94,0,.65.65,0,0,1,.38.18.58.58,0,0,1,.19.47"/><path class="cls-1" d="M47.31,31.08l0,0a4.31,4.31,0,0,1-.6.22.83.83,0,0,1-.83-.32.77.77,0,0,0,.4.26.53.53,0,0,0,.33,0,.74.74,0,0,0,.28-.14c.06-.05.24-.22.36-.35a.88.88,0,0,0,.1.3"/><path class="cls-1" d="M51.63,28.46a.08.08,0,0,1,0,0,1.38,1.38,0,0,1-.3.14c-.11.06-.2.12-.31.17L50.7,29c-.08,0-.23.12-.32.1.39.5-1.13,1-1.44,1.15h0l-.08-.09-.1-.11a1.84,1.84,0,0,1-.1-.16l0-.08a.36.36,0,0,1,0-.21l.14-.09c.25-.15.36-.31.6-.47s.58-.46.89-.1a2.23,2.23,0,0,0,.48-.49l.24-.28.26-.25,0,.05a1.47,1.47,0,0,0-.32.34l-.3.32a2.82,2.82,0,0,0,.63-.61l.07.06a3.28,3.28,0,0,0-.34.31,1.88,1.88,0,0,0-.32.31,1.18,1.18,0,0,0,.41-.29,2.82,2.82,0,0,0,.36-.33l0,0c0,.07-.11.11-.16.18a1.11,1.11,0,0,0,.24-.16l.06.05a1.17,1.17,0,0,1-.28.17c.09,0,.39-.14.45,0a1.65,1.65,0,0,0-.71.23l-.33.21c-.08.06-.27.15-.3.24a6.61,6.61,0,0,0,1.22-.49"/><path class="cls-1" d="M49,30.72a1,1,0,0,1-.44.69,1.08,1.08,0,0,1-.58,0,.49.49,0,0,0-.21,0,1.11,1.11,0,0,1-.26-.07.39.39,0,0,1-.19-.19.82.82,0,0,1-.11-.31,1.23,1.23,0,0,1,0-.26,1.16,1.16,0,0,1,.1-.49.65.65,0,0,1,.13-.16.42.42,0,0,0,.16-.27,1,1,0,0,0,0-.24c0-.18,0-.38.06-.46a.15.15,0,0,1,.1,0l.14,0,0,0,0,0a.38.38,0,0,1,0-.2.31.31,0,0,0-.08-.24.5.5,0,0,0-.12-.08.44.44,0,0,1-.21-.23c.15,0,.36,0,.38.19h0s0,0,0-.11a1,1,0,0,1,.16-.38h0A1.51,1.51,0,0,0,48,28.89h0a.49.49,0,0,1,.48,0,.35.35,0,0,1,.1.33s0,.07,0,.11a1.55,1.55,0,0,0,0,.21.45.45,0,0,0,0,.2.3.3,0,0,1,0,.08,1,1,0,0,0,.1.16l.1.11.07.09a.5.5,0,0,1,.14.5"/><path class="cls-1" d="M59.54,33s.32,0,.17-.18a1.51,1.51,0,0,0-1.11,0c-.06,0-.47.21-1,1.21-.14,0-.2-.16-.2-.16s-.09-.37-.19-.72a1,1,0,0,0-.45-.55.13.13,0,0,1,0-.07s.18-.09,0-.21c0-.1-.09,0-.09,0s0-.17-.11-.08c-.08-.14-.16,0-.16,0s-.09-.18-.12,0c-.1-.05-.09,0-.09,0s-.09.08-.07.15,0,.18,0,.18c-.18.3,0,.19,0,.19l.1,0a.12.12,0,0,1,0,.14.31.31,0,0,0,0,.27s-.14.17-.12.26a1.21,1.21,0,0,0-.27.94s0,.24.46.68c.24.38.42.34.42.34a.16.16,0,0,0,.08.11.17.17,0,0,1,.15.11s.08.13.34.09c.07.07,0,.12,0,.12l-.31.31s-.51.06-.49.14.12,0,.12,0,0,.05,0,.06a1.51,1.51,0,0,1,.36,0h.31s0,.14.08.11.34-.08.34-.08h0s-.11-.11-.09-.19.24-.26.24-.26a.78.78,0,0,0,.14-.2c.1-.06,0-.32,0-.32s.21,0,.14-.22a2.3,2.3,0,0,1,0-.36.4.4,0,0,0,.3.15.71.71,0,0,0-.13-.58c.09,0,.25.28.25.28s0,.25.17.27,0-.38,0-.38,0,0,.17,0c.38,0,.24-.26.24-.26a.22.22,0,0,0,0-.19c.31,0,.17-.28.17-.28s.33,0,.1-.18a.23.23,0,0,0,.1-.25s.09.2.22.15c.16-.24-.15-.49-.15-.49m-2.12,3.08s-.13.06-.13.1-.14,0-.14,0a.41.41,0,0,1,.17-.24l.16-.17s.09-.25.15,0c-.1.28-.21.27-.21.27"/><path class="cls-1" d="M72.61,16.68,71,16.6l0-.14-.3,0a.09.09,0,0,0-.09-.06.1.1,0,0,0-.1.09.1.1,0,0,0,.1.1.11.11,0,0,0,.09,0l.25,0,0,.11h0l.26.73h0l.17.51h1.06a0,0,0,1,0,0-.08h-1l-.14-.4h1.25Zm-.38.06h.29l0,.16h-.28Zm-.48.36h-.37l0-.2.4,0Zm0-.39v.17l-.4,0,0-.17Zm-.75,0h.29l0,.17-.27,0Zm.14.42-.07-.22.25,0,0,.2Zm.08.23-.06-.19h.21l0,.19Zm.22,0,0-.19h.36v.19Zm.35-.61.42,0,0,.16-.39,0Zm.34.61H71.8v-.19h.35Zm-.32-.23v-.18l.38,0,0,.16Zm.62.23h-.26l0-.19h.27Zm-.23-.23,0-.16h.28l0,.15Z"/><path class="cls-1" d="M71.45,17.94a.17.17,0,1,0,0,.34.17.17,0,1,0,0-.34m0,.26a.09.09,0,1,1,0-.18.09.09,0,0,1,0,.18"/><path class="cls-1" d="M72.2,17.94a.17.17,0,1,0,0,.34.17.17,0,1,0,0-.34m0,.26a.09.09,0,1,1,0-.18.09.09,0,0,1,0,.18"/><path class="cls-1" d="M51.61,7.85l-2.13-.1-.06-.18-.38,0a.14.14,0,0,0-.12-.09.13.13,0,0,0-.13.13.12.12,0,0,0,.13.12A.11.11,0,0,0,49,7.64l.32,0,0,.14h0l.32.94h0l.22.64H51.3a.05.05,0,0,0,.05-.05.06.06,0,0,0-.05,0H50l-.18-.51h1.6Zm-.49.08.37,0,0,.2-.36,0Zm-.62.46H50l0-.26.5,0Zm0-.49v.21l-.51,0,0-.21Zm-1-.05.37,0,0,.21-.34,0Zm.18.54-.09-.28.32,0,0,.26Zm.1.3-.08-.25H50l0,.25Zm.29,0L50,8.44h.47v.25Zm.44-.79.54,0,0,.21-.5,0Zm.44.79h-.4V8.44H51Zm-.42-.3V8.16l.49,0,0,.21Zm.8.3H51l0-.25h.35Zm-.29-.3,0-.21.35,0,0,.19Z"/><path class="cls-1" d="M50.12,9.47a.22.22,0,0,0-.23.22.22.22,0,0,0,.23.21.21.21,0,0,0,.22-.21.22.22,0,0,0-.22-.22m0,.33A.11.11,0,0,1,50,9.69a.12.12,0,0,1,.12-.12.12.12,0,0,1,.12.12.12.12,0,0,1-.12.11"/><path class="cls-1" d="M51.08,9.47a.22.22,0,0,0-.22.22.22.22,0,0,0,.44,0,.22.22,0,0,0-.22-.22m0,.33A.11.11,0,0,1,51,9.69a.12.12,0,0,1,.24,0,.11.11,0,0,1-.12.11"/><path class="cls-1" d="M74.38,9.46l-.73-.73h0a.67.67,0,0,0-.11-.81A.67.67,0,1,0,73.39,9h0l.73.73a.18.18,0,0,0,.25-.25m-1-.74a.46.46,0,0,1-.67,0,.47.47,0,1,1,.67,0"/><path class="cls-1" d="M73.36,8.08a.42.42,0,0,0-.3-.12.41.41,0,0,0-.43.43.42.42,0,0,0,.12.3.43.43,0,0,0,.31.12.41.41,0,0,0,.42-.42.43.43,0,0,0-.12-.31m0,.32a191366186511.41,191366186511.41,0,0,1,0,.1l0,.05a.16.16,0,0,1-.09.07.2.2,0,0,1-.11,0l-.11,0a.24.24,0,0,1-.08-.06.16.16,0,0,1-.06-.08.36.36,0,0,1,0-.11.43.43,0,0,1,0-.11.16.16,0,0,1,.06-.08L73,8.13h.11a.32.32,0,0,1,.14,0,.29.29,0,0,1,.09.1l-.13.06a.07.07,0,0,0,0-.06l-.06,0H73a.08.08,0,0,0,0,0l0,.05v.05a.13.13,0,0,0,0,.06.08.08,0,0,0,0,.05l0,0h.06l.07,0a.09.09,0,0,0,0-.07h-.1v-.1h.25V8.4"/><path class="cls-1" d="M73.67,7.79A.56.56,0,0,0,73,7.44l-.13,0c.12-.25.23-.3.57-.35h0c-.36,0-.59,0-.73.2l0-.16H72.5v.14c-.16-.19-.39-.19-.73-.12.34,0,.45.06.59.29l-.08,0c-.68-.19-1,.64-.66,1.17a1.15,1.15,0,0,0,1.56.47h-.11a.76.76,0,0,1-.52-.21.72.72,0,1,1,1-1,.71.71,0,0,1,.19.35.89.89,0,0,0-.09-.44m-1.83.58H72a.55.55,0,0,0,0,.18.33.33,0,0,1-.17-.18m.18-.1h-.21a1.09,1.09,0,0,1,.06-.53l.31.12a2,2,0,0,0-.16.41"/><path class="cls-1" d="M54.2,29.86a1.09,1.09,0,0,0-.62,0,2,2,0,0,1-.59.08h-.43v-.21h0a.64.64,0,0,0-.14.2H52a.88.88,0,0,1,.5-.63l.13,0h.94l.07,0h0a1.33,1.33,0,0,1,.33.31,1.2,1.2,0,0,1,.16.25"/><path class="cls-1" d="M53.69,28.42a.54.54,0,0,0-.5-.31h-.13a.56.56,0,0,0-.41.67.94.94,0,0,0,.06.15c-.37.12-.68.12-.75,0s.16-.51.59-.79c0-.09.06-.21.19-.29s.31-.08.36,0c.47-.18.86-.2,1,0s-.08.39-.37.62"/><path class="cls-1" d="M53.3,29.13a.47.47,0,0,1-.58-.36.48.48,0,0,1,.91-.31l0,.09a.48.48,0,0,1-.36.58"/><path class="cls-2" d="M54.88,31.34c-.1.07-.2,0-.29-.06-.39-.33-1.17-.1-1.6,0l-.12,0a.56.56,0,0,1-.35-.09l-.17-.12c-.17-.12-.33-.25-.49-.38a7.06,7.06,0,0,1-.68-.66c-.08-.08-.52-.5-.4-.67s.39.06.51.05a.43.43,0,0,1,.38.2l.34.29-.19,0c-.37.15-.06.5.17.51.39,0,.78.05,1.16.1.1,0,.19.08.29.06s.13-.07,0-.11a3.19,3.19,0,0,0-.87-.11,1.63,1.63,0,0,1-.7-.06c-.19-.08-.17-.24,0-.31A.4.4,0,0,1,52,30h1a1.73,1.73,0,0,0,.59-.09,1.18,1.18,0,0,1,.62,0,1.15,1.15,0,0,1,.37.18,4.58,4.58,0,0,0,.8.56c.16.07-.45.64-.49.67"/><path class="cls-1" d="M64.06,21.08s0,.06,0,0l-.09,0,0,.07s0,.12,0,.13,0,.07,0,.07,0,0,0,0a.09.09,0,0,1-.11,0s-.1,0-.1-.06-.2-.15-.2-.15a.13.13,0,0,1-.12,0,.45.45,0,0,0,0,.28s.06.12,0,.13-.13,0-.13,0l0,0s-.09,0-.11,0,0-.17,0-.17,0-.24,0-.27A1.92,1.92,0,0,0,62.4,21a.68.68,0,0,1-.08.25l0,.23s.05.07,0,.1-.14,0-.14,0,0,0,0-.15-.09-.16-.09-.16l0-.09-.08.12,0,.2s.07.1,0,.12a.16.16,0,0,1-.18-.05s0-.31,0-.32-.08-.06,0-.15,0-.11,0-.11a.3.3,0,0,1,0-.29.26.26,0,0,1,.09-.13s-.23,0-.24.18h0s-.08-.15.3-.22a1.52,1.52,0,0,1,1.69.11c.17.11.17.17.17.17s0,.1.08.11a0,0,0,0,1,0,0,.25.25,0,0,0,.09.07s0,.09,0,.09"/><path class="cls-1" d="M52.2,3.61s0,.09-.05.06L52,3.61,52,3.7s0,.18,0,.2S52,4,52,4s.06,0,0,.08a.14.14,0,0,1-.16,0s-.15,0-.15-.09-.28-.22-.28-.22a.19.19,0,0,1-.18,0,.66.66,0,0,0,0,.4s.1.17.07.19-.2,0-.2,0l0-.06s-.13,0-.16,0a.72.72,0,0,1,0-.25s0-.35-.06-.38a2.6,2.6,0,0,0-1-.16,1,1,0,0,1-.11.36l.06.33s.08.1.06.14-.19,0-.19,0-.06-.06,0-.22-.14-.23-.14-.23l0-.14-.12.18,0,.29s.1.14.06.16-.26-.06-.26-.06a3.71,3.71,0,0,1,.06-.45s-.11-.1,0-.23,0-.15,0-.15a.46.46,0,0,1,0-.42.42.42,0,0,1,.13-.19s-.32,0-.33.26h0s-.11-.21.43-.32a2.18,2.18,0,0,1,2.42.16c.24.16.24.25.24.25s.07.14.11.15,0,.06,0,.06a.4.4,0,0,0,.13.1c.07,0,0,.13,0,.13"/><path class="cls-1" d="M74.91,25.35c-.1.32-.44.49-.56.44s0-.26,0-.36a1.58,1.58,0,0,0,.14-.45c0-.13.11-.3.11-.37s.07-.14.11-.11c.2.07.27.54.17.85"/><path class="cls-1" d="M74.58,24.59a2.45,2.45,0,0,0-.11.37,1.59,1.59,0,0,0-.15.45c0,.13,0,.36-.17.32a.66.66,0,0,1-.21-.71c.1-.31.42-.65.61-.58s.1,0,0,.15"/><rect class="cls-1" x="43.31" y="13.69" width="0.55" height="0.13" transform="translate(-0.85 24.42) rotate(-31.01)"/><path class="cls-1" d="M43.75,13.55l-.41.24s0-.13-.13-.15l-.49-.09a.51.51,0,0,1-.18-.07l-.41-.26-.33-.37s-.08-.07,0-.13a.09.09,0,0,1,.09,0l.17.13a.09.09,0,0,0-.08.08A.1.1,0,0,0,42,13l.3.2.27.11,0,0-.28-.12L42.06,13s-.09-.09,0-.11a.18.18,0,0,1,.14,0l.21.13.23.08.55,0a.4.4,0,0,1,.25.1h0c-.06-.12-.32-.12-.32-.12h-.39a.06.06,0,0,1,0-.06.12.12,0,0,1,.15-.09l.23.12h0a.67.67,0,0,1,.27,0,.3.3,0,0,1,.21.28Z"/><path class="cls-1" d="M42.93,12.35v0h0v0h0"/><path class="cls-1" d="M42.93,12.44v.05h0v-.05h0"/><path class="cls-1" d="M42.93,12.54v.06h0v-.06h0"/><path class="cls-1" d="M42.93,12.65v.06h0v-.06h0"/><path class="cls-1" d="M42.93,12.76v.05h0v-.05h0"/><path class="cls-1" d="M42.76,12.36l0,0h0v0h0"/><path class="cls-1" d="M42.72,12.44l0,.05h0l0-.05h0"/><path class="cls-1" d="M42.67,12.54l0,.05h0l0-.05h0"/><path class="cls-1" d="M42.61,12.64l0,0h0l0-.05h0"/><path class="cls-1" d="M43.12,12.37h0v0h0Z"/><path class="cls-1" d="M43.17,12.47h0l0-.05h0Z"/><path class="cls-1" d="M43.23,12.57h0l0-.05h0Z"/><path class="cls-1" d="M43.28,12.67h0l0,0h0Z"/><path class="cls-1" d="M44,11.42v.43h-.53l-.08,0a.28.28,0,0,0-.15.08.42.42,0,0,0-.09.14l0,.08v.09s-.1,0-.21,0-.22,0-.22,0v0h0v0s0-.06,0-.09a1.36,1.36,0,0,1,0-.17,1.1,1.1,0,0,1,.2-.28.92.92,0,0,1,.3-.18l.17,0H44Z"/><rect class="cls-1" x="44.06" y="11.37" width="0.13" height="0.53"/><rect class="cls-1" x="65.86" y="10.61" width="0.6" height="0.14" transform="translate(3.95 35.6) rotate(-31)"/><path class="cls-1" d="M66.34,10.46l-.45.26s0-.14-.13-.16l-.54-.1a.45.45,0,0,1-.19-.08l-.45-.27-.35-.41a.08.08,0,0,1,0-.14.09.09,0,0,1,.09,0l.19.15a.08.08,0,0,0-.09.08.1.1,0,0,0,0,.1l.33.22.3.12v0l-.3-.13s-.26-.18-.31-.2-.09-.1,0-.13a.18.18,0,0,1,.15,0l.23.14.25.09h.59a.49.49,0,0,1,.28.12h0c-.06-.14-.35-.13-.35-.13h-.42a.08.08,0,0,1,0-.07.12.12,0,0,1,.17-.09,2,2,0,0,1,.24.13h0a.6.6,0,0,1,.3,0,.35.35,0,0,1,.23.3Z"/><path class="cls-1" d="M65.45,9.16v0h0v0h0"/><path class="cls-1" d="M65.45,9.25v.06h0V9.25h0"/><path class="cls-1" d="M65.45,9.37v.06h0V9.37h0"/><path class="cls-1" d="M65.45,9.49v.06h0V9.49h0"/><path class="cls-1" d="M65.45,9.61v.05h0V9.61h0"/><path class="cls-1" d="M65.26,9.17v0h0v0h0"/><path class="cls-1" d="M65.22,9.26l0,.05h0l0,0h0l0,0"/><path class="cls-1" d="M65.16,9.37l0,.05h0l0-.06h0l0,0"/><path class="cls-1" d="M65.11,9.47l0,.06h0l0-.06h0"/><path class="cls-1" d="M65.66,9.18h0l0,0h0Z"/><path class="cls-1" d="M65.71,9.29h0l0-.05h0Z"/><path class="cls-1" d="M65.77,9.4h0l0-.05,0,0h0Z"/><path class="cls-1" d="M65.82,9.51h0l0-.06h0Z"/><path class="cls-1" d="M66.63,8.15v.46h-.58l-.08,0a.51.51,0,0,0-.16.09.4.4,0,0,0-.1.15l0,.08v.1s-.11,0-.24,0-.23,0-.23,0V9h0V9a.31.31,0,0,1,0-.1,1.21,1.21,0,0,1,0-.18.84.84,0,0,1,.22-.31.94.94,0,0,1,.32-.19.58.58,0,0,1,.18,0h.63Z"/><rect class="cls-1" x="66.67" y="8.1" width="0.14" height="0.57"/><path class="cls-1" d="M51,12.33s0,0,0,.08a.79.79,0,0,0-.08.22,7.26,7.26,0,0,0,0,.94,1.3,1.3,0,0,1-.13.46.65.65,0,0,1-.4.33h-.1v.12q0,.21-.09.36s0,0,0,0A.25.25,0,0,0,50,15c0,.07,0,.16.06.23a0,0,0,0,1-.08,0,1.49,1.49,0,0,1,0-.18.38.38,0,0,0-.09-.18c-.05-.07-.1-.16-.14-.23a1.74,1.74,0,0,1-.11-.18h0a.57.57,0,0,1-.57-.06,1.35,1.35,0,0,1-.35-.29,1.4,1.4,0,0,0-.52-.41,1.31,1.31,0,0,0-.22-.05h0a1.83,1.83,0,0,1,.5-.26,1,1,0,0,1,.66,0,1.07,1.07,0,0,1,.38.29,1.25,1.25,0,0,1,.21.4.49.49,0,0,1,0,.21v0a.14.14,0,0,1,0,.06s0,0,0,0l.21.33c0,.06.06.08,0,0s0-.07,0-.11a8.89,8.89,0,0,0-.26-1.11.91.91,0,0,0-.07-.14s0,0,0,0a1.37,1.37,0,0,1-.49-.2,1.71,1.71,0,0,1-.21-.19,3,3,0,0,1-.33-.58,2.53,2.53,0,0,1-.12-.3l.09,0,.22.07a2.52,2.52,0,0,1,.34.15,1.11,1.11,0,0,1,.48.5.73.73,0,0,1,.1.5s0,0,0,0l0,.05,0,0s0,0,0,0a2.91,2.91,0,0,1,0-.31V13a.58.58,0,0,1-.1-.3,3.9,3.9,0,0,1,0-.69,1.64,1.64,0,0,0,0-.23c0-.09,0-.12,0,0a2.08,2.08,0,0,1,.26.72,1,1,0,0,1,0,.37.27.27,0,0,1-.11.17h0s0,.07,0,.1,0,.14,0,.2a1.34,1.34,0,0,0,0,.2l0,.14c0,.22.11.44.16.66a3.49,3.49,0,0,1,.07.43s0,0,0,0,.05-.18.09-.34l0-.08a.06.06,0,0,0,0-.05.17.17,0,0,1-.06-.06.41.41,0,0,1-.08-.13,1.25,1.25,0,0,1,.07-1,2,2,0,0,1,.52-.6,1.78,1.78,0,0,1,.36-.25s0,0,0,0"/><path class="cls-1" d="M51.87,31.79a.27.27,0,0,1,0,.08,1.13,1.13,0,0,0-.08.22,5.87,5.87,0,0,0,0,.94,1.31,1.31,0,0,1-.14.46.62.62,0,0,1-.39.34h-.08s0,0,0,0a.1.1,0,0,0,0,0l0,.08a1.45,1.45,0,0,1-.09.36s0,0,0,0a.17.17,0,0,0,0,.12c0,.08,0,.16,0,.23a0,0,0,1,1-.08,0,1.55,1.55,0,0,1,0-.17.65.65,0,0,0-.09-.19c0-.07-.1-.16-.14-.23L50.54,34h0a.57.57,0,0,1-.57-.05,1.38,1.38,0,0,1-.35-.3,1.48,1.48,0,0,0-.52-.41,1.31,1.31,0,0,0-.22,0l0,0a1.82,1.82,0,0,1,.5-.26,1,1,0,0,1,.66,0,1.14,1.14,0,0,1,.38.28,1.49,1.49,0,0,1,.21.4.51.51,0,0,1,0,.21v0s0,0,0,.06,0,0,0,0a3,3,0,0,1,.21.33c0,.06.07.08,0,0a.44.44,0,0,0,0-.1A11.28,11.28,0,0,0,50.56,33s-.05-.09-.07-.14,0,0-.05,0a1.24,1.24,0,0,1-.49-.2.84.84,0,0,1-.21-.18,3.12,3.12,0,0,1-.34-.59c-.06-.13-.11-.26-.12-.29s.08,0,.1,0l.22.07a2.52,2.52,0,0,1,.34.15,1.13,1.13,0,0,1,.48.51.74.74,0,0,1,.09.49v0l0,.06v0s0,0,0,0l0-.31v0s0,0,0,0a.58.58,0,0,1-.11-.31,3.9,3.9,0,0,1,0-.69,1.77,1.77,0,0,0,0-.23c0-.09,0-.11,0,0a2.27,2.27,0,0,1,.26.73,1,1,0,0,1,0,.36.32.32,0,0,1-.11.17l0,0s0,.06,0,.09,0,.14,0,.21a1.21,1.21,0,0,0,0,.19.68.68,0,0,0,0,.14c.06.22.12.44.17.67a3.07,3.07,0,0,1,.07.42s0,0,0,0a3.39,3.39,0,0,0,.09-.34l0-.07s0,0,0-.06a.18.18,0,0,1-.07,0,.83.83,0,0,1-.07-.13,1.23,1.23,0,0,1,.07-1,2,2,0,0,1,.51-.6,3,3,0,0,1,.37-.25h0"/><path class="cls-1" d="M60.21,31.07l-.08,0a1,1,0,0,0-.2.13,8.73,8.73,0,0,0-.61.73,1.2,1.2,0,0,1-.4.29.59.59,0,0,1-.52,0,.09.09,0,0,1-.06,0h0s0,0,0,0l-.07.06c-.1.09-.21.17-.29.23l0,0a.24.24,0,0,0-.09.08c0,.07-.06.16-.1.22s-.09,0-.07,0a.84.84,0,0,1,.07-.16.43.43,0,0,0,.05-.21,2.48,2.48,0,0,1,0-.27c0-.07,0-.14,0-.21s0,0,0,0c-.17,0-.33-.19-.43-.4a1.27,1.27,0,0,1-.09-.46,1.53,1.53,0,0,0-.17-.65.9.9,0,0,0-.14-.17s0,0,0,0a1.62,1.62,0,0,1,.56.1,1,1,0,0,1,.51.43,1.09,1.09,0,0,1,.12.47,1.36,1.36,0,0,1-.07.46.67.67,0,0,1-.11.18v0l-.06,0s0,0,0,0,0,.26,0,.39,0,.11.06,0l.06-.1a9.19,9.19,0,0,0,.48-1.06.83.83,0,0,0,0-.15s0,0,0,0a1.47,1.47,0,0,1-.27-.47,1.08,1.08,0,0,1,0-.28,2.65,2.65,0,0,1,.09-.68,2.25,2.25,0,0,1,.09-.31s0,0,.06.07a1.17,1.17,0,0,1,.14.19,3.41,3.41,0,0,1,.17.33,1,1,0,0,1,.08.7.75.75,0,0,1-.23.46l0,0v.1c0,.05,0,0,0,0l.22-.23,0,0h0a.53.53,0,0,1,.1-.32,4,4,0,0,1,.46-.53l.13-.2c0-.07.06-.1,0,0a2,2,0,0,1-.25.74.82.82,0,0,1-.26.27.25.25,0,0,1-.19.07h0a.46.46,0,0,0-.07.07l-.14.16a.91.91,0,0,0-.11.16l-.06.13-.29.63a2.42,2.42,0,0,1-.21.39s0,0,0,0l.28-.22.07,0s0,0,0-.06a.19.19,0,0,1,0-.08.77.77,0,0,1,0-.15,1.22,1.22,0,0,1,.65-.72,1.93,1.93,0,0,1,.79-.17,3.15,3.15,0,0,1,.44,0s.05,0,.05,0"/><path class="cls-1" d="M61,6h0a0,0,0,0,0,0,0s0,0,0,0a.19.19,0,0,1,0,.08h-.06l0,0h0a0,0,0,0,0,0,0h-.1l-.09,0h0l0,0a.17.17,0,0,0,0,.06h0l0,0h0s0,0,0,0,0,0,0,0v0s0,0,0,.06v.12a0,0,0,0,0,0,0v.11a.11.11,0,0,0,0,0v0h0l0,0s0-.07,0-.07h0l.05.13v0a1.83,1.83,0,0,1-.05.19,1.37,1.37,0,0,1-.09.2l-.05.1,0,0s0,.06-.05.06-.07,0-.09,0,0-.07.06-.17a1.23,1.23,0,0,0,0-.21c0-.07,0-.11,0-.19l0-.11h0s-.05,0-.11,0-.09,0-.17,0a.2.2,0,0,0-.12,0,.38.38,0,0,1,0,.13.56.56,0,0,0-.06.22c0,.06,0,.1-.06.16a1.92,1.92,0,0,0,0,.2s0,0,0,0,0,.06-.09,0,0,0,0-.06,0-.13,0-.2,0-.07,0-.15a.47.47,0,0,1,.07-.25.5.5,0,0,0,0-.19l-.09,0-.1,0a2.1,2.1,0,0,1,0,.21v.15c0,.05,0,.07,0,.12s0,.08,0,.13a.61.61,0,0,0,0,.14s0,.06-.09,0-.05,0,0,0,0-.08,0-.15a.2.2,0,0,0-.06-.15s-.05-.08,0-.11,0-.06,0-.16a.64.64,0,0,0-.06-.24C59,6.6,59,6.53,59,6.46s-.08-.12-.1-.18a.22.22,0,0,1,0-.18.41.41,0,0,0,0-.16L59,5.8s0-.09,0-.14a.56.56,0,0,0,0-.13s0,0,0,0h0s0,0,0,0h-.08c-.05,0-.13-.09-.16-.14s0-.09.12-.08a.14.14,0,0,1,.14.09L59,5.27a.1.1,0,0,0,0,0h0s0,0,.06-.06a.22.22,0,0,1,.22,0,.18.18,0,0,0,.09.08l.07,0h0s0,.06.07,0,0,0,.09-.06.15,0,.19,0-.08.12-.08.12h.08l.15,0a1.66,1.66,0,0,0,.22,0,.71.71,0,0,0,.17,0s.07,0,.13,0a.29.29,0,0,1,.14,0,.18.18,0,0,0,.14,0,.18.18,0,0,1,.17.15.09.09,0,0,0,0,0,.7.7,0,0,1,.05.13A.44.44,0,0,1,61,6"/><path class="cls-1" d="M60.89,7a.06.06,0,0,0,0,.06V7.2h0s0,.06,0,.1,0,0,0,.06h0s0,0,0,0v0h0s0,0,0,0-.09,0-.1,0,0-.07,0-.13,0-.11,0-.17a.58.58,0,0,0-.05-.21h0s0,0,0,0h0v0h0s0,0,0,0h.08V7"/><path class="cls-1" d="M61.76,6.49h0a.06.06,0,0,0,0,0v0h0l0,0,0,0h0l0,0h0s0,0,0,0h0v0h0l0,0,0,0h0l0,0,0,0h0l0,0h0l0,0V6h0l0,0h0a0,0,0,0,1,0,0V6h0a.09.09,0,0,1,.06,0s0,0,.08-.06l0,0h-.1l-.06,0h0v0a.11.11,0,0,0-.09-.05c-.07,0-.14,0-.18.06h-.06s0,0-.06,0H61.1l0,0,.07,0h.07V6s0,0,0,0h0l0,0,0,0H61a.05.05,0,0,1,0,0h-.09l0,0h0s0,0,0,0h-.07l-.09,0h-.05a.11.11,0,0,0,0,0h0l0,0s0,0,0,0v0h0v.07s0,0,0,.07v0a.13.13,0,0,1,0,.06v.12h0s0,0,0,0,0,0,0,0v0h0v0h0s0,0,0,0v0a0,0,0,0,1,0,0h0l0,0h0V7s0,0,0,.06v0s0,0,0,0v.19a.65.65,0,0,1,0,.1v0h0a0,0,0,0,0,0,0h0v-.1a.41.41,0,0,1,0-.11.84.84,0,0,0,0-.1h0l0,0V7.05l0,0V7h0V6.92l0,0V6.88h0v0l0,0h0s0,0,0,0,0,0,0,0h0v0h0s0,0,0,0l0,0h0l.06,0h0v0h0l0,0h0l0,0,0,0h0s0,0,0,0V7.1h0v.08a.41.41,0,0,1,0,.1v0a.13.13,0,0,1,0,.06h0v0h0v0H61v0s0,0,0,0a.15.15,0,0,0,0-.06V7.23a.42.42,0,0,1,0-.13V7s0,0,0,0h0s0,0,0,0h0a0,0,0,0,0,0,0l0,0v0a0,0,0,0,0,0,0s0,0,0,0h0l0,0v0l0,0h0v.07s0,0,0,0,0,0,0,.06a.06.06,0,0,1,0,0,.25.25,0,0,1,0,.08v0a.06.06,0,0,0,0,0v0a0,0,0,0,1,0,0s0,0,0,0h.07a0,0,0,0,0,0,0h0v0a.06.06,0,0,0,0,0V7.42a.15.15,0,0,1,0-.06.45.45,0,0,1,0-.11v0s0,0,0-.05V7.07l0,0V7h0l0,0h0v0s0,0,0,0l0,0h0l0,0v0a0,0,0,0,1,0,0h0s0,0,0,0h0l0,0,0,0h0v0h0a0,0,0,0,1,0,0h0l0-.08h0v0l0,0h0m-.35.45h0l0,0h0V7h0s0,0,0,0v.11l0,0v0l0-.05s0,0,0,0V7h0v0h0l0,0h0v0h0Z"/><path class="cls-1" d="M56.3,5.12a1.23,1.23,0,0,0,0-.27,1.23,1.23,0,0,0,0-.27l.48.27Z"/><path class="cls-1" d="M56.47,3.71l-.27.47a1.72,1.72,0,0,0-.28-.47Z"/><path class="cls-1" d="M55.64,2.87v.55a1.9,1.9,0,0,0-.48-.27Z"/><path class="cls-1" d="M54.77,3l-.28,0-.27,0,.27-.48Z"/><path class="cls-1" d="M53.06,3.71a2,2,0,0,0-.27.47l-.28-.47Z"/><path class="cls-1" d="M53.06,6h-.55l.28-.47a2,2,0,0,0,.27.47"/><path class="cls-1" d="M55.64,6.83l-.48-.27a2.31,2.31,0,0,0,.48-.28Z"/><path class="cls-1" d="M53.83,3.15a1.61,1.61,0,0,0-.48.27V2.87Z"/><path class="cls-1" d="M52.66,4.85a2.28,2.28,0,0,0,0,.27l-.47-.27.47-.27a2.45,2.45,0,0,0,0,.27"/><path class="cls-1" d="M53.83,6.56l-.48.27V6.28a1.89,1.89,0,0,0,.48.28"/><path class="cls-1" d="M54.77,6.66l-.28.48-.27-.48.27,0,.28,0"/><path class="cls-1" d="M56.47,6h-.55a1.72,1.72,0,0,0,.28-.47Z"/><path class="cls-1" d="M56.18,4.85a1.5,1.5,0,0,1,0,.37.5.5,0,0,1,0,.13,1.58,1.58,0,0,1-.37.64l-.09.1a1.65,1.65,0,0,1-.64.37l-.14,0a2.21,2.21,0,0,1-.37,0,2.33,2.33,0,0,1-.37,0l-.13,0a1.58,1.58,0,0,1-.64-.37l-.1-.1a1.85,1.85,0,0,1-.37-.64l0-.13a1.5,1.5,0,0,1,0-.37,1.5,1.5,0,0,1,0-.37l0-.13a1.85,1.85,0,0,1,.37-.64l.1-.1A1.71,1.71,0,0,1,54,3.24l.13,0a2.33,2.33,0,0,1,.37,0,2.21,2.21,0,0,1,.37,0l.14,0a1.79,1.79,0,0,1,.64.37l.09.1a1.58,1.58,0,0,1,.37.64.65.65,0,0,1,0,.13,1.5,1.5,0,0,1,0,.37"/><path class="cls-1" d="M61.52,22a1.45,1.45,0,0,0,0-.34l.3.17Z"/><path class="cls-1" d="M61.63,21.14l-.18.3a1.11,1.11,0,0,0-.17-.3Z"/><path class="cls-1" d="M61.1,20.61V21a1.11,1.11,0,0,0-.3-.17Z"/><path class="cls-1" d="M60.55,20.72h-.34l.17-.3Z"/><path class="cls-1" d="M59.48,21.14a1.11,1.11,0,0,0-.17.3l-.17-.3Z"/><path class="cls-1" d="M59.48,22.58h-.34l.17-.3a1.11,1.11,0,0,0,.17.3"/><path class="cls-1" d="M61.1,23.1l-.3-.17a1.11,1.11,0,0,0,.3-.17Z"/><path class="cls-1" d="M60,20.79a1.11,1.11,0,0,0-.3.17v-.35Z"/><path class="cls-1" d="M59.23,21.86c0,.06,0,.12,0,.17l-.3-.17.3-.17s0,.11,0,.17"/><path class="cls-1" d="M60,22.93l-.3.17v-.34a1.11,1.11,0,0,0,.3.17"/><path class="cls-1" d="M60.55,23l-.17.3-.17-.3h.34"/><path class="cls-1" d="M61.63,22.58h-.35a1.11,1.11,0,0,0,.17-.3Z"/><path class="cls-1" d="M61.44,21.86a1.64,1.64,0,0,1,0,.23l0,.09a1,1,0,0,1-.23.4l-.06.06a1.13,1.13,0,0,1-.4.23l-.09,0a.9.9,0,0,1-.46,0l-.09,0a1.23,1.23,0,0,1-.4-.23l-.06-.06a1.23,1.23,0,0,1-.23-.4.29.29,0,0,1,0-.09.9.9,0,0,1,0-.46.29.29,0,0,1,0-.09,1.23,1.23,0,0,1,.23-.4l.06-.06a1.07,1.07,0,0,1,.4-.23l.09,0,.23,0,.23,0,.09,0a1,1,0,0,1,.4.23l.06.06a1,1,0,0,1,.23.4l0,.09a1.64,1.64,0,0,1,0,.23"/><path class="cls-1" d="M68.11,33.38l-.37.77a3.17,3.17,0,0,0-.48-.71Z"/><path class="cls-1" d="M66.72,32.17l.06.85a2.61,2.61,0,0,0-.77-.37Z"/><path class="cls-1" d="M65.39,32.52a3.09,3.09,0,0,0-.43,0,3,3,0,0,0-.43.06l.38-.77Z"/><path class="cls-1" d="M62.81,33.75a2.64,2.64,0,0,0-.38.77L62,33.8Z"/><path class="cls-1" d="M63.93,32.79a2.86,2.86,0,0,0-.71.48l-.06-.86Z"/><path class="cls-1" d="M62.3,35.57a1.94,1.94,0,0,0,.07.42l-.78-.37.72-.48a2,2,0,0,0,0,.43"/><path class="cls-1" d="M67.68,34.64,67,35a18.83,18.83,0,0,1-4.31,1.28.93.93,0,0,0,0-.13,2.61,2.61,0,0,1-.1-.57,2.26,2.26,0,0,1,0-.58c0-.07,0-.14,0-.21a2.62,2.62,0,0,1,.51-1l.14-.17a2.74,2.74,0,0,1,1-.64l.2-.07a2.74,2.74,0,0,1,.57-.11,2.79,2.79,0,0,1,.58,0l.22,0a2.62,2.62,0,0,1,1,.51,1.07,1.07,0,0,1,.16.14,2.73,2.73,0,0,1,.65.95c0,.07,0,.14.07.21v0"/><path class="cls-1" d="M57.23,6.47v.75a.11.11,0,0,1-.11.11h-.88a.11.11,0,0,1-.11-.11v0h.6a.06.06,0,1,0,0-.12h-.6V6.9h.6a.06.06,0,0,0,.06-.06.06.06,0,0,0-.06-.06h-.6V6.62h.6a.07.07,0,0,0,.06-.07.06.06,0,0,0-.06-.06h-.6v0a.11.11,0,0,1,.11-.11h.88a.11.11,0,0,1,.11.11"/><rect class="cls-1" x="57.29" y="6.74" width="0.34" height="0.21"/><path class="cls-1" d="M58.36,6.67h-.67V7h.67a.16.16,0,0,0,.16-.16v0a.16.16,0,0,0-.16-.15m0,.27a.1.1,0,0,1-.09-.1.09.09,0,1,1,.18,0,.1.1,0,0,1-.09.1"/><path class="cls-2" d="M48.59,16.22a.31.31,0,0,0-.22.08.32.32,0,0,0-.12.2h.67a.33.33,0,0,0-.33-.28m-.34.36v.12l.32.2v.3h-.15v.51h.5V16.58ZM49.32,16a.38.38,0,0,0-.27-.1.41.41,0,0,0-.37.24.31.31,0,0,1,.2.11h.57a.38.38,0,0,0-.13-.25m-.37.33a.44.44,0,0,1,.06.16v1.22h.45V16.33Zm-.75.44-.57-.36-.57.36-.29.18v.17h.17v.59h.39V17.3h.26v.41h.06V17.3h.27v.41h.42v-.59h.15V17Z"/><path class="cls-1" d="M43.72,25.15a.69.69,0,0,1-.29.49.29.29,0,0,1-.36,0,.47.47,0,0,0,.15-.06.75.75,0,0,0,.25-.2,1.61,1.61,0,0,1-.26.16l-.16.08h0v.85s0,0-.09,0-.1,0-.1,0v-.49l-.14-.08a3.09,3.09,0,0,1-.27-.16,1.11,1.11,0,0,0,.25.2l.16.06a.29.29,0,0,1-.36,0,.67.67,0,0,1-.29-.49,2.37,2.37,0,0,1,.5.08.34.34,0,0,1,.15.17V24.42c-.83-.07-1.11-1-1-2l.47.84.59-.84.61.84.47-.84c.15,1.07-.11,2-1,2v1a.3.3,0,0,1,.16-.22,2.34,2.34,0,0,1,.51-.08"/><path class="cls-2" d="M60.47,3.46h0A1.37,1.37,0,0,1,60.2,4c.5.12.69-.18.83-.64a.65.65,0,0,0-.56.07m.26-.4a.32.32,0,0,0-.33.06.83.83,0,0,1,.08.28l.16-.06a.3.3,0,0,0,.09-.28m-.56,1.47a2.26,2.26,0,0,0,0,.58h.14a1.38,1.38,0,0,0,.36-.89.75.75,0,0,0-.47.31m0-1.55c-.37.29-.59.6-.26,1a2.25,2.25,0,0,0-.11.68A.9.9,0,0,0,59.27,4a1.5,1.5,0,0,0,.3,1.08h.49a2.23,2.23,0,0,1,.15-1.23,1,1,0,0,0,.18-.4.55.55,0,0,0-.17-.5"/><path class="cls-1" d="M52.18,10.35c-.16.83-.65,1.56-1.48,1.22-.09,0-.17-.14-.26-.15s-.44.23-.57,0c.09-.12.3-.07.45-.09a3.11,3.11,0,0,0,1.25-.43s0,0,0,0a3.08,3.08,0,0,1-1.2.31.86.86,0,0,1,.46-.74c.4-.18.92.06,1.32-.08"/><path class="cls-1" d="M62,33.55c-.81.25-1.69.16-1.78-.72,0-.1,0-.22,0-.31s-.4-.28-.26-.51c.15,0,.21.24.29.36a3.33,3.33,0,0,0,1,.9h0a2.81,2.81,0,0,1-.83-.91.82.82,0,0,1,.86.06c.35.26.39.83.7,1.12"/><path class="cls-1" d="M56.85,29.34c-.59.61-1.41.95-1.9.21-.06-.08-.08-.21-.14-.28s-.49-.05-.47-.32c.14-.05.29.11.42.18a3.2,3.2,0,0,0,1.29.33h0A2.74,2.74,0,0,1,54.92,29a.82.82,0,0,1,.78-.35c.44.07.74.55,1.15.65"/><path class="cls-1" d="M56.31,36c-.81.23-1.68.11-1.74-.78,0-.09,0-.21,0-.3s-.39-.29-.24-.52c.15,0,.2.24.27.37a3.36,3.36,0,0,0,1,.93h0a2.77,2.77,0,0,1-.81-.94.85.85,0,0,1,.86.09c.35.28.36.85.66,1.14"/><path class="cls-1" d="M45,23.85c.54.65.78,1.5,0,1.91-.09,0-.22,0-.3.11s-.1.48-.37.44c0-.16.15-.29.23-.41A3.07,3.07,0,0,0,45,24.66s0,0,0,0a3,3,0,0,1-.53,1.12.84.84,0,0,1-.27-.82c.12-.43.63-.68.78-1.07"/><path class="cls-1" d="M73,9.45c-.16.83-.65,1.56-1.47,1.22-.09,0-.18-.13-.27-.15s-.43.23-.57,0c.1-.12.31-.07.45-.08A3.27,3.27,0,0,0,72.35,10s0,0,0,0a2.81,2.81,0,0,1-1.2.31.8.8,0,0,1,.45-.73c.41-.19.92.05,1.32-.09"/><path class="cls-1" d="M67.81,12.46c-.78.34-1.66.34-1.84-.53,0-.09,0-.22,0-.3s-.43-.23-.31-.48c.15,0,.23.21.32.32a3.34,3.34,0,0,0,1.07.8h0a2.87,2.87,0,0,1-.93-.82.85.85,0,0,1,.86,0c.38.23.48.79.82,1"/><path class="cls-1" d="M69.06,11.21c0,.53-.29,1-.82.86a1.42,1.42,0,0,0-.18-.08c-.11,0-.26.18-.36,0S67.89,12,68,12a2.36,2.36,0,0,0,.75-.36v0a1.83,1.83,0,0,1-.72.27.49.49,0,0,1,.23-.48c.24-.15.58,0,.81-.15"/><path class="cls-1" d="M67.13,20.1c.15,1.34-.25,2.7-1.67,2.57-.15,0-.33-.13-.48-.11s-.56.55-.88.26c.09-.23.44-.26.65-.34a5.27,5.27,0,0,0,1.72-1.27s0,0,0-.06a4.35,4.35,0,0,1-1.68,1,1.31,1.31,0,0,1,.35-1.33c.53-.48,1.43-.36,2-.76"/><path class="cls-1" d="M51,24.06c1,.94,1.51,2.25.33,3-.13.09-.34.12-.45.23s-.07.78-.51.75c-.08-.23.18-.47.28-.67a5,5,0,0,0,.53-2.07s0,0,0-.06a4.65,4.65,0,0,1-.65,1.87,1.32,1.32,0,0,1-.57-1.26c.11-.7.88-1.18,1.05-1.83"/><path class="cls-1" d="M68.2,26.75c-.11,1.34-.77,2.59-2.14,2.19-.15-.05-.3-.19-.45-.2s-.65.44-.91.09c.13-.22.48-.17.7-.22a5,5,0,0,0,1.93-.9s0,0,0-.05a4.61,4.61,0,0,1-1.86.69,1.32,1.32,0,0,1,.61-1.24c.61-.37,1.47-.08,2.08-.36"/><path class="cls-1" d="M71,31.33c0,.61-.23,1.19-.86,1.07-.06,0-.14-.07-.21-.07s-.27.23-.4.08c0-.1.21-.09.31-.12a2.36,2.36,0,0,0,.82-.49s0,0,0,0a1.93,1.93,0,0,1-.8.39.61.61,0,0,1,.22-.58c.26-.19.65-.09.91-.25"/><path class="cls-1" d="M65.45,32.28c-.19-.58-.14-1.21.5-1.28a1.61,1.61,0,0,0,.22,0c.12,0,.19-.3.36-.2,0,.11-.17.16-.26.21a2.41,2.41,0,0,0-.63.72s0,0,0,0a2,2,0,0,1,.65-.62.6.6,0,0,1,0,.62c-.19.26-.6.29-.8.52"/><path class="cls-1" d="M76.49,17.57c0,.38-.14.75-.53.67a.74.74,0,0,0-.14,0c-.08,0-.17.14-.25.05s.13-.06.19-.08a1.53,1.53,0,0,0,.52-.31h0a1.29,1.29,0,0,1-.5.24.36.36,0,0,1,.13-.36c.16-.12.41-.06.57-.16"/><path class="cls-1" d="M55.86,7.4c0,.38-.15.75-.54.67a.65.65,0,0,0-.13,0c-.08,0-.17.14-.25.05s.13-.06.19-.08a1.4,1.4,0,0,0,.51-.31,0,0,0,0,0,0,0,1.17,1.17,0,0,1-.5.24.36.36,0,0,1,.14-.36c.16-.12.41-.06.57-.16"/><path class="cls-1" d="M44.64,21.37c0,.37-.15.74-.54.66,0,0-.09,0-.13,0s-.17.14-.25.05.13-.06.19-.08a1.38,1.38,0,0,0,.51-.3v0a1.17,1.17,0,0,1-.5.24.37.37,0,0,1,.14-.36c.16-.12.41-.06.57-.15"/><path class="cls-1" d="M74.89,26.12c0,.38-.14.74-.53.67,0,0-.09-.05-.14-.05s-.17.14-.25.05.13-.06.19-.08a1.36,1.36,0,0,0,.52-.3s0,0,0,0a1.47,1.47,0,0,1-.5.25.39.39,0,0,1,.13-.37c.16-.11.41-.06.57-.15"/><path class="cls-1" d="M65,8.16c0,.37-.14.74-.53.66,0,0-.09,0-.14,0s-.17.14-.25.05.13-.06.19-.08a1.51,1.51,0,0,0,.52-.3v0a1.29,1.29,0,0,1-.5.24.37.37,0,0,1,.13-.36c.16-.11.41-.06.57-.15"/><path class="cls-1" d="M51.39,2.12c.34-.17.73-.2.84.18a.68.68,0,0,0,0,.14c0,.07.2.09.16.2s-.11-.09-.16-.14a1.38,1.38,0,0,0-.5-.32h0a1.31,1.31,0,0,1,.45.34.38.38,0,0,1-.39,0c-.18-.09-.24-.34-.4-.44"/><path class="cls-1" d="M58.37,4.2c-.08-.37,0-.76.39-.77,0,0,.09,0,.14,0s.13-.17.23-.1-.11.08-.17.11a1.56,1.56,0,0,0-.44.41s0,0,0,0A1.2,1.2,0,0,1,59,3.55a.37.37,0,0,1-.05.38c-.14.15-.39.14-.53.27"/><path class="cls-1" d="M52.07,7.5c-.09-.37,0-.76.38-.76,0,0,.1,0,.14,0s.14-.17.23-.1-.11.08-.16.12a1.31,1.31,0,0,0-.44.4s0,0,0,0a1.16,1.16,0,0,1,.44-.34.35.35,0,0,1-.06.38c-.13.15-.38.14-.52.27"/><path class="cls-1" d="M50.8,30c0,.37-.15.74-.54.66,0,0-.09,0-.13,0s-.17.14-.25.05.13-.06.19-.08a1.38,1.38,0,0,0,.51-.3v0a1.17,1.17,0,0,1-.5.24.37.37,0,0,1,.14-.36c.16-.11.41-.06.57-.15"/><path class="cls-1" d="M52.51,32.64c-.13-.35-.12-.75.28-.81,0,0,.1,0,.14,0s.11-.19.22-.13-.1.1-.16.14a1.5,1.5,0,0,0-.37.46s0,0,0,0a1.35,1.35,0,0,1,.39-.4.38.38,0,0,1,0,.39c-.11.16-.37.19-.49.34"/><path class="cls-1" d="M69.7,33c-.64.46-1.45.65-1.79-.11a1.15,1.15,0,0,0-.08-.28c-.1-.14-.44-.12-.39-.37.15,0,.26.15.37.23a3,3,0,0,0,1.13.51h0a2.74,2.74,0,0,1-1-.56.76.76,0,0,1,.78-.21c.39.14.59.63,1,.79"/><path class="cls-2" d="M64.42,3a1.58,1.58,0,0,0-.3-.28,2.11,2.11,0,0,0-1.06-.34c-.3,0-.93,0-1.23,0l.32-1.17h-.09V1A.14.14,0,0,1,62.2.87h2.5a.15.15,0,0,1,.15.14v.14h0L65,2.41c.33,0,.59,0,.87.06v.26a0,0,0,1,0,0,0V2.36h-.06V1.85H66s0-.05,0-.05h-.1V1.56a.21.21,0,0,1,.21-.23h.11v.24h-.09v.28h.06v.51h0V2.5l.44.08a.87.87,0,0,1,.68.45l-.45,0c-.09,0,0,.21.09.2l.41,0a1.46,1.46,0,0,1,0,.22v.24a1.15,1.15,0,0,0-.66-.21,1.1,1.1,0,0,0-1,.64,1.12,1.12,0,0,0-.11.47,1.23,1.23,0,0,0,0,.2H64.42a1.42,1.42,0,0,0,.12-.54h.3V4.13A2,2,0,0,0,64.42,3M62.6,1.16v.78a.13.13,0,0,0,.13.16A2.4,2.4,0,0,1,64.54,3s0,.07.09.07h.13s0,0,0,0V2.64l-.19-1.48Zm-.82,1.57V2.55h-.22V2.38a7.82,7.82,0,0,1,2.15.17,1.64,1.64,0,0,1,.66.46,1.94,1.94,0,0,1,.41,1.12h-.23A1.51,1.51,0,0,0,62,3Zm1.25,0a1.39,1.39,0,1,1-1.39,1.39A1.39,1.39,0,0,1,63,2.73m0,.82a.58.58,0,0,1,.57.57.57.57,0,0,1-.57.57.56.56,0,0,1-.57-.57A.57.57,0,0,1,63,3.55m3.64,0a1,1,0,1,1-1,1,1,1,0,0,1,1-1m0,.58a.41.41,0,1,1-.4.4.4.4,0,0,1,.4-.4m-5-.57h-.25v.19h-.13v0H61V4h.33v0h.13v.11h.13a1.36,1.36,0,0,1,.12-.5"/><path class="cls-1" d="M47.87,18.44c-.07.69-.41,1.33-1.12,1.11-.07,0-.15-.09-.23-.1s-.34.22-.47,0c.07-.11.25-.08.36-.11a2.53,2.53,0,0,0,1-.45s0,0,0,0a2.25,2.25,0,0,1-1,.35.69.69,0,0,1,.32-.64c.32-.19.76,0,1.08-.17"/><path class="cls-1" d="M69.62,4.23c.55-.17,1.15-.1,1.2.51,0,.06,0,.15,0,.21s.28.19.18.35c-.11,0-.14-.17-.2-.25a2.29,2.29,0,0,0-.65-.63h0a1.81,1.81,0,0,1,.56.63.59.59,0,0,1-.59,0c-.23-.19-.25-.57-.46-.77"/><path class="cls-1" d="M63.79,22.61c-.5.48-1.19.73-1.58.1,0-.06-.05-.17-.1-.23s-.4-.06-.38-.28c.12,0,.24.1.34.16a2.66,2.66,0,0,0,1.06.32h0a2.38,2.38,0,0,1-.95-.37.67.67,0,0,1,.66-.27c.36.07.59.48.92.58"/><path class="cls-1" d="M67.83,26.27c-.62.31-1.35.34-1.53-.37a1.9,1.9,0,0,0,0-.25c-.06-.14-.37-.18-.28-.39.13,0,.2.17.28.26a2.68,2.68,0,0,0,.91.62h0a2.28,2.28,0,0,1-.79-.64.67.67,0,0,1,.71-.06c.32.18.42.64.7.83"/><path class="cls-1" d="M46.12,12.18c-.08.42-.34.8-.76.62,0,0-.09-.07-.14-.08s-.23.11-.3,0,.16,0,.24,0a1.67,1.67,0,0,0,.65-.22h0a1.53,1.53,0,0,1-.62.15.44.44,0,0,1,.24-.38c.21-.09.48,0,.68,0"/><path class="cls-1" d="M42.54,11.26c-.14-.41-.11-.86.34-.92,0,0,.12,0,.16,0s.14-.21.26-.14-.12.11-.18.15a1.65,1.65,0,0,0-.45.53v0a1.38,1.38,0,0,1,.45-.45.42.42,0,0,1,0,.44c-.13.19-.42.22-.57.38"/><path class="cls-1" d="M44,13.39c-.15-.41-.12-.87.33-.93.05,0,.12,0,.16,0s.14-.21.26-.15-.12.12-.18.16a1.73,1.73,0,0,0-.45.52v0a1.61,1.61,0,0,1,.45-.45.44.44,0,0,1,0,.45c-.13.19-.42.21-.56.38"/><path class="cls-1" d="M46,6.68c-.09.42-.35.8-.77.62,0,0-.09-.07-.14-.08s-.23.11-.29,0,.15,0,.23,0A1.67,1.67,0,0,0,45.64,7h0a1.53,1.53,0,0,1-.62.15.44.44,0,0,1,.24-.38c.21-.09.48,0,.69,0"/><path class="cls-1" d="M61.08.29C61,1,60.67,1.63,60,1.41c-.08,0-.16-.1-.24-.11s-.33.23-.47,0c.07-.11.25-.08.37-.1a2.85,2.85,0,0,0,1-.46s0,0,0,0a2.5,2.5,0,0,1-1,.34A.67.67,0,0,1,60,.46c.31-.18.76,0,1.07-.17"/><path class="cls-1" d="M44.37,15c1-.08,2,.25,1.82,1.28,0,.11-.1.24-.09.35s.39.42.17.64c-.17-.07-.18-.32-.24-.48a3.64,3.64,0,0,0-.87-1.28s0,0,0,0a3.35,3.35,0,0,1,.71,1.25.94.94,0,0,1-1-.29c-.33-.4-.22-1.05-.5-1.45"/><path class="cls-1" d="M44.76,17.32c0,.7.35,1.36,1.06,1.18.08,0,.16-.09.24-.1s.33.24.47.07c-.07-.12-.24-.1-.36-.13a2.76,2.76,0,0,1-1-.5s0,0,0,0a2.51,2.51,0,0,0,.95.39.68.68,0,0,0-.29-.65c-.31-.2-.76-.07-1.07-.23"/><path class="cls-1" d="M68.12,2.15c-.57,1-.72,2.15.41,2.52a2.48,2.48,0,0,1,.41.08c.21.12.24.61.58.5,0-.21-.25-.35-.38-.48a4.54,4.54,0,0,1-.89-1.55s0,0,0-.05a3.74,3.74,0,0,0,1,1.36,1.11,1.11,0,0,0,.17-1.14c-.24-.54-1-.75-1.25-1.24"/><path class="cls-1" d="M69.31,25.23c-.58.38-1,1-.47,1.51.06.06.16.09.2.16s0,.4.18.43,0-.25-.07-.37a2.52,2.52,0,0,1-.06-1.09s0,0,0,0a2.4,2.4,0,0,0,.14,1,.69.69,0,0,0,.42-.58c0-.37-.33-.69-.35-1"/><path class="cls-1" d="M64.83,28c-.65-.25-1.38-.24-1.51.49,0,.08,0,.18,0,.25s-.35.21-.25.4c.13,0,.19-.18.26-.27a2.73,2.73,0,0,1,.86-.69s0,0,0,0a2.45,2.45,0,0,0-.74.7.68.68,0,0,0,.71,0c.31-.2.37-.66.65-.88"/><path class="cls-1" d="M54.7,8c-1.05-.41-2.23-.37-2.44.8a2.77,2.77,0,0,1,0,.41c-.09.22-.57.33-.4.65.2,0,.3-.29.41-.45a4.52,4.52,0,0,1,1.39-1.11h.06a3.71,3.71,0,0,0-1.2,1.14,1.09,1.09,0,0,0,1.15,0c.5-.32.6-1.07,1-1.43"/><path class="cls-1" d="M68,28.85c.63.24,1.34.22,1.46-.49,0-.08,0-.18,0-.25s.34-.2.23-.39c-.12,0-.18.18-.25.27a2.69,2.69,0,0,1-.82.68s0,0,0,0a2.15,2.15,0,0,0,.72-.69.67.67,0,0,0-.69,0c-.3.19-.36.65-.62.86"/><path class="cls-1" d="M47,31.71c0,.7.35,1.35,1.06,1.17.08,0,.16-.09.24-.09s.33.24.47.06c-.07-.11-.25-.09-.36-.12a2.63,2.63,0,0,1-1-.51l0,0a2.45,2.45,0,0,0,1,.39.67.67,0,0,0-.29-.65c-.31-.2-.76-.07-1.07-.23"/><path class="cls-1" d="M51.91,34.16c0,.69.34,1.35,1.06,1.17.07,0,.16-.09.23-.09s.33.24.47.06c-.06-.11-.24-.1-.36-.12a2.66,2.66,0,0,1-1-.51s0,0,0,0a2.27,2.27,0,0,0,.94.4.69.69,0,0,0-.29-.66c-.31-.19-.76-.06-1.06-.22"/><path class="cls-1" d="M43.83,26.28c-.59.36-1,.95-.53,1.49.06.06.16.1.2.17s-.06.4.16.44,0-.26-.06-.37a2.72,2.72,0,0,1,0-1.1,0,0,0,0,1,0,0,2.36,2.36,0,0,0,.1,1,.68.68,0,0,0,.44-.56c0-.36-.3-.7-.31-1"/><path class="cls-2" d="M45.18,26.92a2.21,2.21,0,0,0,.14.24l.14.23s.06,0,.09,0,.14-.22.19-.3a.78.78,0,0,0,.15-.53,1,1,0,0,0-.23-.44,1.4,1.4,0,0,0-.16-.2h0s0,0,0,0h0c-.21.38-.47.52-.26,1m.24,1.38a1.26,1.26,0,0,0-.16-.94,1,1,0,0,0-.38-.26.73.73,0,0,1-.35-.25s0,0,0,0a1.11,1.11,0,0,0,0,.74.75.75,0,0,0,.41.43,1.58,1.58,0,0,1,.48.28h0m0,1a1.23,1.23,0,0,0-.16-.93.81.81,0,0,0-.38-.26.81.81,0,0,1-.35-.25s0,0,0,0a1.11,1.11,0,0,0,0,.74.78.78,0,0,0,.41.43,1.37,1.37,0,0,1,.48.27s0,0,0,0m0,1a1.26,1.26,0,0,0-.16-.94,1,1,0,0,0-.38-.26.67.67,0,0,1-.35-.25s0,0,0,0a1.11,1.11,0,0,0,0,.74.75.75,0,0,0,.41.43,1.58,1.58,0,0,1,.48.28h0m.17-2.07a1.26,1.26,0,0,1,.16-.94,1,1,0,0,1,.38-.26.73.73,0,0,0,.35-.25s0,0,0,0a1.11,1.11,0,0,1,0,.74.75.75,0,0,1-.41.43,1.58,1.58,0,0,0-.48.28h0m0,1a1.23,1.23,0,0,1,.16-.93.81.81,0,0,1,.38-.26.81.81,0,0,0,.35-.25s0,0,0,0a1.11,1.11,0,0,1,0,.74.78.78,0,0,1-.41.43,1.37,1.37,0,0,0-.48.27s0,0,0,0m0,1a1.26,1.26,0,0,1,.16-.94,1,1,0,0,1,.38-.26.67.67,0,0,0,.35-.25s0,0,0,0a1.11,1.11,0,0,1,0,.74.75.75,0,0,1-.41.43,1.58,1.58,0,0,0-.48.28h0"/><path class="cls-2" d="M66.91,23.23l.06.12.07.1a0,0,0,0,0,0,0l.09-.14a.34.34,0,0,0,.07-.25.83.83,0,0,0-.1-.21l-.08-.09h0a0,0,0,0,0,0,0h0c-.1.18-.22.24-.12.47m.11.65a.58.58,0,0,0-.08-.44.38.38,0,0,0-.18-.12c-.05,0-.13-.06-.16-.12s0,0,0,0a.6.6,0,0,0,0,.35.37.37,0,0,0,.19.2.76.76,0,0,1,.23.13s0,0,0,0m0,.49a.58.58,0,0,0-.08-.44.38.38,0,0,0-.18-.12c-.05,0-.13-.06-.16-.12s0,0,0,0a.6.6,0,0,0,0,.35.37.37,0,0,0,.19.2.59.59,0,0,1,.23.13h0m0,.49a.58.58,0,0,0-.08-.44.38.38,0,0,0-.18-.12c-.05,0-.13-.06-.16-.12s0,0,0,0a.6.6,0,0,0,0,.35.37.37,0,0,0,.19.2.59.59,0,0,1,.23.13s0,0,0,0m.08-1a.58.58,0,0,1,.08-.44.38.38,0,0,1,.18-.12s.13-.06.16-.12,0,0,0,0a.53.53,0,0,1,0,.35.34.34,0,0,1-.19.2.76.76,0,0,0-.23.13s0,0,0,0m0,.49a.58.58,0,0,1,.08-.44.38.38,0,0,1,.18-.12s.13-.06.16-.12,0,0,0,0a.53.53,0,0,1,0,.35.34.34,0,0,1-.19.2.59.59,0,0,0-.23.13h0m0,.49a.58.58,0,0,1,.08-.44.38.38,0,0,1,.18-.12s.13-.06.16-.12,0,0,0,0a.53.53,0,0,1,0,.35.34.34,0,0,1-.19.2.59.59,0,0,0-.23.13s0,0,0,0"/><path class="cls-1" d="M63.72,6.77a.41.41,0,0,0-.29.16,1.54,1.54,0,0,1,.21.77,1.08,1.08,0,0,1-.18.64.55.55,0,0,0,.26.06c.31,0,.56-.21.56-.71s-.3-.92-.56-.92m.39.83a0,0,0,0,1,0,0A1,1,0,0,0,63.89,7s0,0,0,0,0,0,0,0a1.12,1.12,0,0,1,.2.59s0,.06,0,.06"/><path class="cls-1" d="M63.37,7a.58.58,0,0,0-.44-.33c-.29,0-.63.46-.63,1s.28.81.63.81a.55.55,0,0,0,.46-.21.91.91,0,0,0,.17-.6A1.34,1.34,0,0,0,63.37,7m0,.61h0s0,0,0,0a1,1,0,0,0-.07-.36.92.92,0,0,0-.14-.28,0,0,0,0,1,0-.06h0l0,0a1.71,1.71,0,0,1,.13.23,1.23,1.23,0,0,1,.09.44s0,.06,0,.06"/><path class="cls-2" d="M70,17.77v1.15h-.53V18H68.35v.95h-.56V17.77l.11-.36.11-.36.43-.16.44-.16.44.16.44.16.11.36Zm-2.44-.07.16.05.25-.79,1-.33.94.33.26.79.15-.05L70,16.88v0h0l-1-.36-1,.36h0v0Zm1.15-.24h.38v-.38h-.38Zm.68.68-.16.29.16.29Zm0,.73-.19-.36-.2.36Zm-.42-.11.18-.33-.18-.32ZM69,18l.18.31.17-.31Zm-.13.08-.17.31.17.32Zm0,.75-.19-.36-.2.36Zm-.41-.13.17-.31-.17-.3Zm0-.7.17.31.17-.31Z"/><path class="cls-1" d="M69,20.63l0,.1a.67.67,0,0,1,0,.16l0,0s0,0,0-.11v-.11m-1.2-.7s0,0,0,.13,0,.23,0,.32a.39.39,0,0,1,0,.15.26.26,0,0,0,0,.12s0,0,0,0,0,0,0,.05l0,0a.26.26,0,0,1,0-.09.26.26,0,0,0,0-.14c0-.06,0-.12,0-.17s0-.16,0-.24a.52.52,0,0,1,0-.17s0,0,0,0a.53.53,0,0,0,0,.2.49.49,0,0,1,0,.15.13.13,0,0,0,0,.06l0,.11,0,.07a.16.16,0,0,0,0,.09.38.38,0,0,1,0,.11.27.27,0,0,1,0,.11s0,.05,0,.07l0,0s0,0,0,.05a.1.1,0,0,0,.07,0S68,21,68,21s0,0,0,0,0,0,0,0a.15.15,0,0,1,0-.1.32.32,0,0,1,0-.14.36.36,0,0,0,0-.09l.06-.07h0s0,0,0,0a.07.07,0,0,0,0,.06,1.17,1.17,0,0,1,0,.11.7.7,0,0,1,0,.14s0,0,0,0,0,0,0,0l0,.05h.08s0,0,0,0l0-.05-.06-.05a.39.39,0,0,1-.05-.13s0-.06,0-.09v-.05h0v0s0,0,0,0,0,0,0,0v0h0a0,0,0,0,0,0,0s0,0,0,0l0,0,0,0,0,0h.07s.06,0,.09,0l.15,0a.74.74,0,0,0,.14,0h.09v.13a1,1,0,0,1,0,.17s0,.1,0,.12v0h0a.07.07,0,0,1,0,0s0,0,0,0H69s0,0,0,0a.14.14,0,0,0,.09,0l0,0s-.06,0-.06-.07a.49.49,0,0,1,0-.11V20.7l0-.06s0-.07,0-.08l0-.06a.08.08,0,0,0,.06,0,.34.34,0,0,0,.09-.12s0-.09,0-.12l.11-.15.07-.11h.28s.07,0,.08,0,0-.06,0-.07l-.06,0a.86.86,0,0,1-.07-.1l0-.06a.12.12,0,0,0,.07,0l0,0,0,0h0a.15.15,0,0,0-.08-.05h-.13l-.06,0h0s0,0,0,0v0a.32.32,0,0,1-.11.06l-.17.06-.05,0a.64.64,0,0,0-.2,0,1.21,1.21,0,0,1-.3,0h-.55a.53.53,0,0,0-.18,0s0,0-.05.06Z"/><path class="cls-2" d="M62.91,29.61a.17.17,0,0,1,.23.08.18.18,0,0,1-.08.23,1.77,1.77,0,0,1-1.07.29c-.05,0-.05.08,0,.08A2.31,2.31,0,0,0,63.15,30a.18.18,0,0,1,.23.11.17.17,0,0,1-.11.22,2.59,2.59,0,0,1-1.22.28s0,.07,0,.06a2.24,2.24,0,0,0,1-.16.19.19,0,0,1,.22.12.17.17,0,0,1-.12.22,2.47,2.47,0,0,1-1.14.18s0,.05,0,.05a2.66,2.66,0,0,0,.89-.06.17.17,0,0,1,.2.14.17.17,0,0,1-.14.21,8.77,8.77,0,0,1-1.55.11c-.56,0-1-.08-1-.8v-.2a1,1,0,0,1,.65-.86l.28-.11c.16-.06.17-.13.29-.24a.7.7,0,0,1,.28-.19.12.12,0,0,1,.13,0c.08.08.05.26,0,.38a2.29,2.29,0,0,1-.27.27s0,0,0,0a1.59,1.59,0,0,0,1.15-.23M61.21,31s0,.07,0,.09.09.06.16.06a.2.2,0,0,0,.22-.11,1.22,1.22,0,0,0,.07-.17s0,0,0,0-.21-.05-.29,0a.3.3,0,0,0-.14.17m.48,1.4a.09.09,0,0,0,.06.07.21.21,0,0,0,.16-.07.19.19,0,0,0,.07-.23L61.91,32h0c-.09.07-.18.11-.22.2a.3.3,0,0,0,0,.21m-.28-.29s.07,0,.09,0a.18.18,0,0,0,0-.18c0-.11-.06-.15-.16-.17a.68.68,0,0,0-.19,0s0,0,0,0,0,.22.07.29a.31.31,0,0,0,.19.09"/><path class="cls-2" d="M51.84,5a.15.15,0,0,1,.21.06.17.17,0,0,1-.08.21,1.63,1.63,0,0,1-.93.26s0,.07,0,.06a2.21,2.21,0,0,0,1-.22.14.14,0,0,1,.19.09.16.16,0,0,1-.09.2,2.31,2.31,0,0,1-1.07.24,0,0,0,0,0,0,.06A2.05,2.05,0,0,0,52,5.85a.16.16,0,0,1,.19.11.15.15,0,0,1-.1.19,2.19,2.19,0,0,1-1,.15s0,0,0,0a2.25,2.25,0,0,0,.78,0,.15.15,0,0,1,.06.3,6.81,6.81,0,0,1-1.36.1c-.5,0-.87-.06-.87-.7V5.82a.92.92,0,0,1,.57-.75c.08,0,.18-.06.25-.09s.14-.12.25-.22A.56.56,0,0,1,51,4.6a.12.12,0,0,1,.12,0A.29.29,0,0,1,51,5a1.75,1.75,0,0,1-.23.24s0,0,0,0a1.48,1.48,0,0,0,1-.2m-1.49,1.2s0,.06,0,.08a.18.18,0,0,0,.14,0c.1,0,.14,0,.19-.1a.47.47,0,0,0,.06-.15s0,0,0,0a.58.58,0,0,0-.26,0,.26.26,0,0,0-.12.15m.42,1.23a.1.1,0,0,0,0,.06.23.23,0,0,0,.2-.27A.67.67,0,0,0,51,7.11h0c-.08.07-.17.11-.19.18a.25.25,0,0,0,0,.19m-.24-.26a.11.11,0,0,0,.08,0,.15.15,0,0,0,0-.15.17.17,0,0,0-.14-.16l-.17,0s0,0,0,0,0,.19.06.25a.27.27,0,0,0,.17.08"/><rect class="cls-1" x="54.11" y="32.13" width="1.88" height="0.25" transform="translate(-6.68 48.38) rotate(-45)"/><path class="cls-1" d="M54.54,33.15l-.1-.11-.18-.17-.11-.11a.5.5,0,0,0-.7,0l-.74.75,1.06,1.06.75-.75a.49.49,0,0,0,0-.7"/><path class="cls-1" d="M55.89,30.61l-.26.26,0,.5.09.08.17.18.08.07.5,0,.25-.26Zm.44.85-.32,0-.19-.19,0-.32,0,0,.49.49Z"/><rect class="cls-1" x="53.96" y="1.64" width="1.31" height="0.17"/><path class="cls-1" d="M53.91,1.92V1.54a.34.34,0,0,0-.36-.33h-.73v1h.73a.34.34,0,0,0,.36-.33"/><path class="cls-1" d="M55.82,1.34h-.25l-.26.22v.33l.26.23h.25ZM55.63,2l-.17-.15V1.63l.17-.14h0V2Z"/><path class="cls-1" d="M48.91,5.68h0m-.25.15h0m.26-.73h0s0,0,0,0l0,0s-.06,0-.09,0,0,0,0,0l-.09.09s0,0-.06,0,0,.05,0,.05,0,.07,0,.09,0,0,0,0,0,0,0,0,0,0,0,0l.1,0s0,0,0,0a.3.3,0,0,0,.1-.07s.06,0,0,0,0,0,0,0,.05-.06,0-.06h0s0,0,0,0h0s0,0,0,0,0,0,0,0a0,0,0,0,0,0,0h0m-.18.8h0m-.08-.34,0,0s0,0,0,0h0l0,0-.07,0s0,0,0,0,0,0,0,0v0l0,0h0l0,0h0s0,0,0,0h0l0,0a0,0,0,0,0,0-.05s0,0,0,0,0,0,0,0l-.06.06,0,0h0l0,0h0l0,0,0,0h0l.07-.07s.07,0,0,0v0h0l0,0s0,0,0,0h0s0,0,0,0h0v0h0l0,0,0,0s0,0,0,0,0,0,0,0,0,0,0,0h0s0,0-.08,0,0,.07-.08.1-.08,0-.12-.06-.08,0-.08,0,0-.05-.06-.06,0,0,0,0-.06-.1-.08-.1-.07.07,0,.11a2.13,2.13,0,0,1,.22.18s.1,0,.09.08a.15.15,0,0,0,0,.07s0,0,.06.07.09.11.12.16l0,0s0,0,0,0,.12.11.12.06-.05,0-.06,0,0,0,0,0h0s0,0-.06,0h0s.07,0,.07,0,0,0,0,0,0,0,0,0,0,0,0,0,0,0,0,0h0s0,0,0,0l0,0s0,0,0,0l-.08,0s.1,0,.09,0h0s0,0,0,0,0,0,0,0h0s0,0,0,0h0s0,0,0,0h0s0,0,0,0h0a0,0,0,0,1,0,0s0,0,0,0,0,0,0,0,0,0,0,0-.06,0-.08.07,0,0,.05-.07h0l0,0s-.06,0-.09.06l0,0,0,0s.07,0,0,0l0,0s0,0,0,0h0s0,0,0,0h0l0,0h0c.05,0,0,0,0,0s0,0,0,0,0,0,0,0l0,0h0l0,0h0s0,0,0,0l0,0s0,0,0,0a0,0,0,0,0,0,0h0s0,0,0,0h0v0h0a.05.05,0,0,1,0,0l0,0,0,0,0,0s0,0,0,0l0,0,0,0,0,0h0m0,.28s0,0,0,0h0m.24-.15s0,0,0,0,0,0,0,0h0m-.2.06h0m.18-.3s0,0,0,0h0s0,0,0,0v.09a.75.75,0,0,0,0-.15s0,0,0,0,0,.05,0,.05,0,0,0,0,0,0,0,0h0l0,0h0a0,0,0,0,0,0,0h0s0,0,0,0h0s0,0,0,0,0,0,0,0,0,0,0,0h0s0,0,0,0,0,.06,0,0h0s0,0,0,0,0,0,0-.05l0,0s0,0,0,0h0v0h0v0h0s0,0,0,0,0,.09,0,.08,0,0,0,0h0s0,0,0,0,0,0,0,0,0,0,0,0h0s0,0,0,0,.09-.13.12-.13h0a1.27,1.27,0,0,1,.13-.11s.06,0,.07,0,0,0,0,0,0,0,0,0h0s.05-.15,0-.06-.14,0-.2,0h0s-.06,0-.06,0,0,0,0,0v0h0v0h0c0-.06-.09.06-.09.06h0v0h0v0s0,0,0,0l0,0h0l0,0h0s0,0,0,0h0m.51-.25,0,0s0,0,0,0,.07,0,.08-.06a.36.36,0,0,1,0-.11s0-.07,0-.07a0,0,0,0,0,0,0s0,0,0,0-.11.06-.11.08,0,0,0,.06,0,0,0,.07,0,0,0,0a.25.25,0,0,0-.06.15s0,0,0,0,0-.07,0-.06h0s0,0,0,0,0,0,0,0,0,0,0,0,0,0,0,0h0m-.7.55h0s0,0,0,0,0,0,0,0h0m.2-.15s0,0,0,0,0,0,0,0h0m0-.13s0,0,0,0h0v0s0,0,0,0h0m-.32.08a0,0,0,0,0,0,0l0,0,0,0s.05,0,0,0h0m.33,0s0,0,0,0h0v0s0-.05,0,0v0h0m0-.23s0,0,0-.05,0,.05,0,.05h0m-.16.38s0,0,0,0,0,0,.06,0h0m-.1-.16h0s0,0,0,0h0s-.07,0-.06,0l.06,0s0,0,0,0m-.15-1c-.07-.07-.12,0-.1.11s.08.09.11.15,0,.08,0,.07,0,0,0-.05,0,0,0-.07l0,0a.19.19,0,0,0,0-.16h0m.37-.11c-.09-.09-.11.11-.09.16l.05.06s0,.12,0,.12,0,0,0-.07,0-.07,0-.07,0-.16,0-.2h0m-.67.4c-.07-.07-.13,0-.08.11s.07.07.09.07,0,0,0,0,.11.11.08,0l0,0,0,0a0,0,0,0,0,0,0s0,0,0,0,0-.1-.06-.12,0,0,0,0m.66.13s0,.09.06.06,0-.07,0-.08,0-.13,0-.11h0s0,0,0,0a.11.11,0,0,0,0,.08h0m-.24.11s0-.11,0-.15-.06,0-.08,0,0,.1.07.12h0m-.16.14s0-.1-.1,0,.16.11.1,0h0m.08.13a.14.14,0,0,0,0-.06s0,0,0,0a0,0,0,0,1,0,0h0m0-.47a0,0,0,0,0,0,0s.05,0,0,0h0m.33.93h0s0,0,0,0h0s0,0,0,0h0m-.26-.34s0,0,0,0,0,0,0,0h0m.27.31s0,0,0,0l0,0h0m0,0s0,0,0,0,0,0,0,0,0,0,0,0h0m-.26.14h0s0,0,0,0h0m.25-.27v0s0,0,0,0h0m0-.09s0,0,0,0,0,0,0,0h0m-.23.16h0m0-.13s0,0,0,0h0m0,.33h0m.22-.28s0,0,0,0h0m-.08.19h0M49,5.53s0,0,0,0h0m-.3.1,0,0s0,0,0,0h0M49,5.56s0,0,0,0h0m0,.13s0,0,0,0v0h0m-.06,0s0,0,0,0h0m.05-.23v0a0,0,0,0,0,0,0h0m-.23.14h0m.22-.08s0,0,0,0h0m0,0s0,0,0,0a0,0,0,0,0,0,0h0m0,.1s0,0,0,0h0m-.32-.16s0,0,0,0h0m0-.17h0m.29.35s0,0,0,0v0h0m0,0h0m.24-.12s0,0,0,0h0m-.17.13h0m0-.38s0,0,0,0h0M49,5.7h0m-.48-.35h0m.24.42v0s0,0,0,0h0m-.11-.24s0,0,0,0h0m.27.24s0,0,0,0h0m-.2-.08s0,0,0,0a0,0,0,0,0,0,0h0m-.07,0h0s0,0,0,0h0m.11.06s0,0,0,0h0m-.11-.19s0,0,0,0h0m.24,0h0s0,0,0,0h0m0,.26h0m-.26-.23h0m0-.14s0,0,0,0h0m0,.17h0m.19.17s0,0,0,0h0m0,0s0,0,0,0h0m-.2,0s0,0,0,0h0M49,5.54s0,0,0,0h0m.41-.3h0m-.46.44s0,0,0,0h0m0,.12h0m0-.15s0,0,0,0h0m-.15.18h0m.28,0h0m-.17,0s0,0,0,0h0m-.26-.24s0,0,0,0h0m0,0s0,0,0,0h0m.05.12s0,0,0,0h0m.22.07h0m0,0h0m.08.1h0m-.14-.12s0,0,0,0h0m.41-.38s0,0,0,0h0m-.61.44s0,0,0,0h0m-.09-.24h0m.28.15s0,0,0,0h0m-.19.1s0,0,0,0h0m-.08-.22s0,0,0,0h0m0,.25h0m.19,0s0,0,0,0h0m-.23.06s0,0,0,0h0m.27-.59h0m0-.1h0m0,.45s0,0,0,0h0m.43-.34s0,0,0,0h0m-.51.45s0,0,0,0h0m0,0s0,0,0,0h0m0,0s0,0,0,0h0m-.13-.3h0m-.1.16h0m.2.19h0m-.15.16s0,0,0,0h0m.19-.07s0,0,0,0h0m-.17-.07s0,0,0,0h0m0,0h0m-.05.06h0m.27-.18s0,0,0,0h0m-.31-.19h0m0,.06h0m.06.25s0,0,0,0h0m0,0h0m.05.1h0m.2-.74s0,0,0,0h0m-.15.56s0,0,0,0h0m.12-.09s0,0,0,0h0m.12.21h0m-.13-.08h0m0-.06h0m-.13.06h0m-.17-.3h0m.11.22h0m0,.23h0m.2-.2h0m.44-.47h0m-.43.51h0m.45-.52h0m-.65.47h0m.17.12h0m-.19-.07h0M49,5.28h0m-.24.46s0,0,0,0h0m-.07-.2h0m-.1,0s0,0,0,0h0m.4.12h0m-.34-.26h0m0,0h0m0,0h0m.3-.32s0,0,0,0h0m.33.45h0m-.49.18h0M49,5.56s0,0,0,0h0m-.25.22h0m.07,0h0m-.13-.08h0m.11.07h0m0,.1h0M49,5.28h0m-.24.4h0m0,0h0m.12,0h0m-.18-.23h0m0,0h0m.32-.32h0m-.18.49h0m-.13-.26h0"/><path class="cls-2" d="M48.57,5.61s0,0,0,0,0,0,0,0l0,0h0l0,0s0,0,0,0h0l0,0s0,0,0,0l.07,0,0,0h0s0,0,0,0l0,0h0l0,0,0,0,0,0s0,0,0,0l0,0,0,0,0,0a.05.05,0,0,0,0,0h0l0,0s0,0,0,0,0,0,0,0,0,0,0,0a0,0,0,0,1,0,0,0,0,0,0,1,0,0s0,0,0,0l0,0s0,0,0,0,0,0,0,0h0s0,0,0,0,.06,0,0,0h0a0,0,0,0,0,0,0s0,0,.07,0-.08,0-.08.07.06-.06.07,0l-.06,0,0,0,0,0s.08-.07.09,0h0s0,0-.05.07l.08-.06s0,0,0,0,0,0,0,0,0,0,0,0h0s0,0,0,0h0s0,0-.05,0,0,0,0,0,0,0,0,0,0,0,0,0h0s0,0,0,0,0,0,0,0-.08,0-.09,0l.08,0s0,0,0,0l0,0s0,0,0,0l0,0s0,0,0,0,0,0,0,0-.07,0-.07,0h0s.05,0,.06,0h0v0s.07,0,.06,0-.2,0-.12-.06,0,0,0,0,0,0,0,0a1.49,1.49,0,0,1-.12-.14l-.09-.13s0,0,0-.06a.18.18,0,0,0-.07,0l-.08-.07-.13-.1s-.09-.12,0-.13.13.07.1.1,0,0,0,0,.06,0,.06.06.06,0,.08,0,.07.09.12.06,0-.1.08-.1.07,0,.08,0h0s0,0,0,0,0,0,0,0,0,0,0,0l0,0,0,0s0,0,0,0a0,0,0,0,1,0,0s0,0,0,0h0s0,0,0,0h0s0,0,0,0h0s0,0,0,0l0,0s0,.06,0,0l0,0s-.08,0,0,0l0,0a0,0,0,0,0,0,0l-.07.07h0l0,0,0,0,0,0h0l0,0,.06-.06s0,0,0,0,0,0,0,0,0,0,0,0h0m0,0h0s0,0,0,0l0,0,0,0,0,0s0,0,0,0l0,0s0,0,0,0h0m.07.08a.1.1,0,0,0,0,0s0,0,0,0h0v0l0,0v0h0s0,0,0,0m-.13-.09h0s0,0,0,0h0s0,0,0,0h0m0,0h0s0,0,0,0h0s0,0,0,0h0m0,0h0l0,0h0m0,0v0l0,0h0s0,0,0,0m0,0s0,0,0,0h0m0-.17h0m.08.25h0m0-.15a0,0,0,0,0,0,0l0,0h0m0,0,0,0,0,0s0,0,0,0m.13.11h0m0,0h0m-.11,0h0s0,0,0,0h0m.09.07s0,0,0,0l0,0h0m0,0h0s0,0,0,0h0m-.1-.07,0,0,0,0m0-.1,0,0,0,0m0,0h0m.11.18h0m-.08-.19h0m0,0h0m0,.09v0h0m0-.08h0s0,0,0,0h0m0,.09h0m0,0s0,0,0,0h0m.06.12h0m0,0h0m0,.06s0,0,0,0h0m-.11-.1s0,0,0,0h0m.1.08h0m0-.05h0m0-.06h0m-.06,0h0m.13.08h0m-.11-.1h0m0-.21h0m0,.22s0,0,0,0h0m0-.12h0m0,.14h0m0-.12s0,0,0,0h0m0,0h0m0,0h0m.11.3h0m0-.12h0m-.12,0h0m0,0h0m.13.13h0m0,0h0"/><path class="cls-2" d="M49,5.33s0,0,0,0,0,0,.06,0h0s0,0,.06,0l.05,0,.08,0s0-.05.06,0,0,0,0,0l0,0h0s0,0,0,0h0s-.06,0-.07,0a1.27,1.27,0,0,0-.13.11h0S49,5.7,49,5.69s0,0,0,0,0,0,0,0,0,0,0,0,0,0,0,0,0,0,0,0,0,0,0,0h0s0-.08,0-.08,0,.06,0,.06,0,0,0,0h0l0-.06h0s0,0,0,0,0,0,0,0,0,0,0,0h0v0s0,0,0,0h0s0,0,0,0,0,0,0,0h0l0,0h0a0,0,0,0,1,0,0h0c-.06,0,0,0,0,0h0s0,0,0,0,0,0,0,0l0,0h0s0-.06,0-.07,0,0,0,0,0,0,0,0v.06s0,0,0,0h0s0,0,0,0l0,0s0,0,0,0,0,0,0,0,0,0,0,0v0s0,0,0,0v0h0s.06-.12.09-.06h0v0h0v0h0m0,.11h0m0,.08h0m0,0h0m0,.19h0s0,0,0,0,0,0,0,0l0,0h0m0,0s0,0,0,0v0h0m0-.17s0,0,0,0h0m0,0h0m-.1-.07h0m.05.31h0m0,0h0M49,5.44s0,0,0,0h0m-.08-.05h0m0,.21h0m.34-.17s0,0,0,0h0"/><path class="cls-2" d="M48.89,5.06s0,0,0,0l0,0h0s.07,0,0,0,0,0,0,0h0v0h0s0,.06,0,.07h0s-.12.14-.15.15,0,0,0,0l-.1,0s0,0,0,0h0s0,0,0,0,0-.13,0-.09,0-.05,0-.05.06,0,.06,0l.11-.11a0,0,0,0,0,0,0h.06m-.23.28s0,0,0,0h0m.27-.16s0,0,0,0h0m-.25.16h0"/><path class="cls-2" d="M48.48,4.53a.17.17,0,0,1,.05.15s0,.07,0,.1,0,.06,0,.07-.05,0-.06,0-.07-.1-.1-.16,0-.22.08-.13h0"/><path class="cls-2" d="M49.36,5.24s0,0,0,0,0,.06,0,.06,0,0,0,0,0,0,0,0a.21.21,0,0,1,0-.12s0,0,0,0,0,0,0,0,0,0,0-.09.09-.1.11-.08,0,0,0,0,0,0,0,0,0,.07,0,.07,0,.08,0,.11-.05.05-.08.07h0s0,0,0,0h0s0,0,0,0,0,0,0,0,0,0,0,0"/><path class="cls-2" d="M48.85,4.42c.06,0,0,.15,0,.2s0,0,0,.07,0,.07,0,.07,0-.1,0-.12l-.05-.06s0-.25.09-.16h0"/><path class="cls-2" d="M48.18,4.82s.07.09.06.12,0,0,0,0h0s0,0,0,0l0,0s0,0,0,0S48.24,5,48.24,5L48.12,5c-.08-.06,0-.21.06-.13s0,0,0,0"/><path class="cls-2" d="M48.84,5s0-.14,0-.13.06,0,0,0,0,.06,0,.06,0,.07,0,.08,0,0-.06-.06h0"/><path class="cls-2" d="M48.6,5.06s-.07,0-.07-.11,0,0,0,0,0,0,0,0,0,.17,0,.15h0"/><path class="cls-2" d="M48.44,5.2s0,0,0,0-.06,0-.06,0,0,0,0,0,0,0,0,0l0,0h0"/><path class="cls-2" d="M48.52,5.33h0v0s0-.08,0-.06a.19.19,0,0,1,0,.07h0"/><path class="cls-2" d="M49,5.48c-.05,0,0-.08,0-.05s0,0,0,0,0,0,0,0l0,0v0h0"/><path class="cls-2" d="M48.61,5.54h0l-.06,0,0,0"/><path class="cls-2" d="M48.57,4.86s0,0,0,0a0,0,0,0,1,0,0h0"/><path class="cls-2" d="M48.73,5.7h0s-.1,0,0,0h0"/><path class="cls-2" d="M48.89,5.32s0-.05,0-.05,0,0,0,.05"/><path class="cls-2" d="M48.92,5.46s0,.07,0,.07V5.46h0"/><path class="cls-2" d="M48.9,5.79s0,0,0,0h0s0,0,0,0h0"/><path class="cls-2" d="M48.94,5.59v0h0s0,.05,0,.05h0s0,0,0,0h0"/><path class="cls-2" d="M48.94,5.57h0s0,0,0,0,0,0,0,0h0"/><path class="cls-2" d="M48.64,5.45s0,0,0,0,0,0,0,0h0"/><path class="cls-2" d="M48.6,5.48h0s0,0,0,0,0,0,0,0m0,0h0"/><path class="cls-2" d="M48.66,5.63h0s0,0,0,0h0"/><path class="cls-2" d="M48.91,5.53s0,0,0,0v0"/><path class="cls-2" d="M48.6,5.66h0s0,0,0,0"/><path class="cls-2" d="M48.69,5.69h0s0,0,0,0v0h0"/><path class="cls-2" d="M48.91,5.76l0,0s0,0,0,0h0"/><path class="cls-2" d="M48.59,5.55s0,0,0,0,.05,0,0,0"/><path class="cls-2" d="M48.94,5.73s0,0,0,0,0,0,0,0,0,0,0,0h0"/><path class="cls-2" d="M48.93,5.64s0,0,0,0v0"/><path class="cls-2" d="M48.68,5.87s0,0,0,0h0"/><path class="cls-2" d="M48.6,5.62h0s0,0,0,0"/><path class="cls-2" d="M48.93,5.6s0,0,0,0v0h0"/><path class="cls-2" d="M48.66,5.67s0,0,0,0h0"/><path class="cls-2" d="M48.63,5.83s0,0,0,0h0"/><path class="cls-2" d="M49,5.53s0,0,0,0,0,0,0,0h0"/><path class="cls-2" d="M48.92,5.51s0,0,0,0,0,0,0,0h0"/><path class="cls-2" d="M48.93,5.53s0,0,0,0,0,0,0,0"/><path class="cls-2" d="M48.91,5.47s0,0,0,0v0"/><path class="cls-2" d="M48.69,5.67h0"/><path class="cls-2" d="M48.67,5.54h0s0,0,0,0h0"/><path class="cls-2" d="M48.67,5.64h0"/><path class="cls-2" d="M48.58,5.46v0h0"/><path class="cls-2" d="M48.66,5.59s0,0,0,0l0,0"/><path class="cls-2" d="M48.69,5.87h0"/><path class="cls-2" d="M48.91,5.59h0s0,0,0,0h0"/><path class="cls-2" d="M48.59,5.55l0,0s0,0,0,0"/><path class="cls-2" d="M48.83,5.78h0"/><polyline class="cls-2" points="48.95 5.68 48.95 5.69 48.94 5.67 48.95 5.68 48.95 5.68"/><path class="cls-2" d="M49,5.53h0s0,0,0,0h0"/><path class="cls-2" d="M48.68,5.84h0"/><path class="cls-2" d="M48.65,5.63s0,0,0,0l0,0h0"/><path class="cls-2" d="M48.91,5.6a0,0,0,0,1,0,0s0,0,0,0"/><path class="cls-2" d="M49,5.56h0s0,0,0,0h0"/><path class="cls-2" d="M48.63,5.54h0"/><path class="cls-2" d="M48.93,5.69v0s0,0,0,0h0"/><path class="cls-2" d="M48.71,5.75s0,0,0,0l0,0"/><path class="cls-2" d="M48.64,5.65h0"/><path class="cls-2" d="M48.87,5.74h0s0,0,0,0h0"/><path class="cls-2" d="M48.92,5.51a0,0,0,0,1,0,0v0h0"/><path class="cls-2" d="M48.94,5.65h0s0,0,0,0"/><path class="cls-2" d="M48.69,5.65h0"/><path class="cls-2" d="M48.91,5.57h0s0,0,0,0h0"/><path class="cls-2" d="M48.92,5.62a0,0,0,0,1,0,0s0,0,0,0h0"/><path class="cls-2" d="M49,5.72h0s0,0,0,0h0"/><path class="cls-2" d="M48.63,5.56h0s0,0,0,0h0"/><path class="cls-2" d="M48.61,5.54s0,0,0,0,0,0,0,0"/><path class="cls-2" d="M48.59,5.39h0"/><path class="cls-2" d="M49.41,5.2h0"/><path class="cls-2" d="M48.9,5.45s0,0,0,0h0"/><path class="cls-2" d="M48.88,5.74v0s0,0,0,0h0"/><path class="cls-2" d="M48.53,5.58l0,0s0,0,0,0h0"/><path class="cls-2" d="M48.55,5.59h0"/><path class="cls-2" d="M48.86,5.73s0,0,0,0h0"/><path class="cls-2" d="M49.1,5.61h0"/><path class="cls-2" d="M48.93,5.74h0"/><path class="cls-2" d="M48.88,5.36s0,0,0,0h0"/><path class="cls-2" d="M49,5.7s0,0,0,0h0"/><path class="cls-2" d="M48.54,5.35h0"/><path class="cls-2" d="M48.78,5.77s0,0,0,0v0h0"/><path class="cls-2" d="M48.67,5.53s0,0,0,0h0"/><path class="cls-2" d="M48.94,5.77s0,0,0,0h0"/><path class="cls-2" d="M48.74,5.69a0,0,0,0,1,0,0s0,0,0,0h0"/><path class="cls-2" d="M48.67,5.65s0,0,0,0h0"/><path class="cls-2" d="M48.92,5.55s0,0,0,0h0"/><path class="cls-2" d="M48.78,5.71h0"/><path class="cls-2" d="M48.67,5.52s0,0,0,0h0"/><path class="cls-2" d="M48.91,5.49s0,0,0,0h0"/><path class="cls-2" d="M48.72,5.75h0"/><path class="cls-2" d="M48.94,5.75h0"/><path class="cls-2" d="M48.68,5.52s0,0,0,0h0"/><path class="cls-2" d="M48.91,5.47s0,0,0,0h0"/><path class="cls-2" d="M48.65,5.38h0"/><path class="cls-2" d="M48.92,5.69v0s0,0,0,0"/><path class="cls-2" d="M48.67,5.55h0"/><path class="cls-2" d="M48.93,5.64h0"/><path class="cls-2" d="M48.86,5.72s0,0,0,0h0"/><path class="cls-2" d="M49.36,5.24h0"/><path class="cls-2" d="M48.66,5.59h0"/><path class="cls-2" d="M48.91,5.68s0,0,0,0h0"/><path class="cls-2" d="M48.71,5.72s0,0,0,0h0"/><path class="cls-2" d="M49,5.54h0"/><path class="cls-2" d="M48.68,5.84s0,0,0,0h0"/><path class="cls-2" d="M49.38,5.24h0"/><path class="cls-2" d="M48.92,5.68s0,0,0,0h0"/><path class="cls-2" d="M48.6,5.67s0,0,0,0h0"/><path class="cls-2" d="M48.93,5.6s0,0,0,0h0"/><path class="cls-2" d="M48.71,5.75h0s0,0,0,0"/><path class="cls-2" d="M48.9,5.8h0"/><path class="cls-2" d="M48.94,5.69s0,0,0,0h0"/><path class="cls-2" d="M49.41,5.19h0"/><path class="cls-2" d="M48.92,5.65s0,0,0,0h0"/><path class="cls-2" d="M48.65,5.57h0"/><path class="cls-2" d="M48.77,5.83s0,0,0,0h0"/><path class="cls-2" d="M49.05,5.83s0,0,0,0h0"/><path class="cls-2" d="M48.88,5.8h0"/><path class="cls-2" d="M48.62,5.56h0"/><path class="cls-2" d="M48.66,5.55h0"/><path class="cls-2" d="M48.69,5.63h0"/><path class="cls-2" d="M48.68,5.84s0,0,0,0h0"/><path class="cls-2" d="M48.71,5.67h0"/><path class="cls-2" d="M48.9,5.45h0"/><path class="cls-2" d="M48.72,5.75h0"/><path class="cls-2" d="M48.92,5.69h0"/><path class="cls-2" d="M48.93,5.74s0,0,0,0h0"/><path class="cls-2" d="M49,5.62s0,0,0,0h0"/><path class="cls-2" d="M49,5.72h0"/><path class="cls-2" d="M48.65,5.85h0"/><path class="cls-2" d="M49.06,5.82h0"/><path class="cls-2" d="M48.92,5.7s0,0,0,0h0"/><path class="cls-2" d="M49.33,5.32h0"/><path class="cls-2" d="M48.72,5.76h0"/><path class="cls-2" d="M48.63,5.52h0"/><path class="cls-2" d="M48.68,5.78h0"/><path class="cls-2" d="M48.91,5.6h0"/><path class="cls-2" d="M48.9,5.43s0,0,0,0h0"/><path class="cls-2" d="M48.7,5.85s0,0,0,0h0"/><path class="cls-2" d="M48.62,5.66h0"/><path class="cls-2" d="M48.91,5.67h0"/><path class="cls-2" d="M48.72,5.77s0,0,0,0h0"/><path class="cls-2" d="M48.64,5.55h0"/><path class="cls-2" d="M48.69,5.8h0"/><path class="cls-2" d="M48.73,5.7h0"/><path class="cls-2" d="M48.88,5.77s0,0,0,0h0"/><path class="cls-2" d="M48.65,5.83h0"/><path class="cls-2" d="M48.92,5.24h0"/><path class="cls-2" d="M48.94,5.14h0"/><path class="cls-2" d="M48.74,5.9s0,0,0,0h0"/><path class="cls-2" d="M48.92,5.11s0,0,0,0h0"/><path class="cls-2" d="M48.89,5.06s0,0,0,0h0"/><path class="cls-2" d="M48.94,5.59h0"/><path class="cls-2" d="M48.92,5.1h0"/><path class="cls-2" d="M49.37,5.25h0"/><path class="cls-2" d="M48.86,5.7h0"/><path class="cls-2" d="M48.91,5.65s0,0,0,0h0"/><path class="cls-2" d="M48.91,5.67h0"/><path class="cls-2" d="M48.78,5.37h0"/><path class="cls-2" d="M48.68,5.53h0"/><path class="cls-2" d="M48.88,5.72h0"/><path class="cls-2" d="M48.73,5.88h0"/><path class="cls-2" d="M48.92,5.81s0,0,0,0h0"/><path class="cls-2" d="M48.66,5.83h0"/><path class="cls-2" d="M48.75,5.74h0"/><polyline class="cls-2" points="48.7 5.78 48.71 5.78 48.7 5.78"/><path class="cls-2" d="M48.65,5.84h0"/><path class="cls-2" d="M48.91,5.68h0"/><path class="cls-2" d="M48.92,5.66h0"/><path class="cls-2" d="M48.61,5.47h0"/><path class="cls-2" d="M48.65,5.53h0"/><path class="cls-2" d="M48.7,5.78h0"/><path class="cls-2" d="M48.69,5.79h0"/><path class="cls-2" d="M48.74,5.89s0,0,0,0h0"/><path class="cls-2" d="M48.74,5.9s0,0,0,0h0"/><path class="cls-2" d="M48.91,5.53h0"/><path class="cls-2" d="M48.94,5.15h0"/><path class="cls-2" d="M48.79,5.71h0"/><path class="cls-2" d="M48.69,5.76h0"/><path class="cls-2" d="M48.61,5.66h0"/><path class="cls-2" d="M48.91,5.62h0"/><path class="cls-2" d="M49,5.83s0,0,0,0h0"/><path class="cls-2" d="M48.9,5.75h0"/><path class="cls-2" d="M48.9,5.69h0"/><path class="cls-2" d="M48.77,5.75s0,0,0,0h0"/><path class="cls-2" d="M48.6,5.45s0,0,0,0h0"/><path class="cls-2" d="M48.71,5.67h0"/><path class="cls-2" d="M48.73,5.9s0,0,0,0h0"/><path class="cls-2" d="M48.64,5.83h0"/><path class="cls-2" d="M48.93,5.7s0,0,0,0h0"/><path class="cls-2" d="M49.37,5.23h0"/><path class="cls-2" d="M48.94,5.74h0"/><path class="cls-2" d="M48.67,5.75s0,0,0,0h0"/><path class="cls-2" d="M49.39,5.22h0"/><path class="cls-2" d="M48.74,5.69h0"/><path class="cls-2" d="M48.91,5.81s0,0,0,0h0"/><path class="cls-2" d="M48.72,5.74h0"/><path class="cls-2" d="M49,5.28h0"/><path class="cls-2" d="M48.89,5.32s0,0,0,0h0"/><path class="cls-2" d="M48.71,5.74h0"/><path class="cls-2" d="M48.66,5.56h0"/><path class="cls-2" d="M49,5.57h0"/><path class="cls-2" d="M48.93,5.16h0"/><path class="cls-2" d="M48.66,5.83s0,0,0,0h0"/><path class="cls-2" d="M48.64,5.55h0"/><path class="cls-2" d="M48.54,5.59h0"/><path class="cls-2" d="M48.94,5.71h0"/><path class="cls-2" d="M48.6,5.45h0"/><polyline class="cls-2" points="48.62 5.46 48.62 5.46 48.62 5.46"/><polyline class="cls-2" points="48.64 5.42 48.64 5.42 48.64 5.42"/><path class="cls-2" d="M48.94,5.1s0,0,0,0h0"/><path class="cls-2" d="M49,5.69h0"/><path class="cls-2" d="M49,5.69h0"/><polyline class="cls-2" points="49.27 5.55 49.27 5.55 49.27 5.55"/><polyline class="cls-2" points="48.78 5.73 48.78 5.73 48.78 5.73"/><path class="cls-2" d="M49,5.56s0,0,0,0h0"/><path class="cls-2" d="M48.71,5.78s0,0,0,0h0"/><path class="cls-2" d="M48.78,5.75h0"/><polyline class="cls-2" points="48.65 5.67 48.65 5.67 48.65 5.67"/><path class="cls-2" d="M48.76,5.74h0"/><path class="cls-2" d="M48.71,5.84h0"/><polyline class="cls-2" points="48.97 5.28 48.97 5.28 48.97 5.28"/><path class="cls-2" d="M48.73,5.68h0"/><path class="cls-2" d="M48.71,5.71h0"/><path class="cls-2" d="M48.91,5.68h0"/><path class="cls-2" d="M48.83,5.76h0"/><path class="cls-2" d="M48.65,5.53h0"/><path class="cls-2" d="M48.6,5.57h0"/><path class="cls-2" d="M48.92,5.25h0"/><path class="cls-2" d="M48.74,5.74s0,0,0,0h0"/><polyline class="cls-2" points="48.61 5.47 48.61 5.47 48.61 5.47"/><path class="cls-2" d="M48.67,5.73s0,0,0,0,0,0,0,0h0v0l0,0v0h0s0,0,0,0,0,0,0,0h0m0,0h0"/><path class="cls-2" d="M48.57,5.67l0,0h0s0,0,0,0l0,0s0,0,0,0l0,0h0"/><path class="cls-2" d="M48.54,5.64s0,0,0,0h0s0,0,0,0h0m0,0s0,0,0,0h0"/><path class="cls-2" d="M48.58,5.65s0,0,0,0h0s0,0,0,0h0"/><path class="cls-2" d="M48.6,5.47s0,0,0,0l0,0a0,0,0,0,1,0,0s0,0,0,0"/><path class="cls-2" d="M48.64,5.67l-.06,0s0,0,.06,0"/><path class="cls-2" d="M48.6,5.67h0s0,0,0,0,0,0,0,0h0"/><path class="cls-2" d="M48.65,5.6h0s0,0,0,0,0,0,0,0h0"/><path class="cls-2" d="M48.57,5.67h0l0,0h0m0,0h0"/><path class="cls-2" d="M48.62,5.72h0l0,0v0s0,0,0,0"/><path class="cls-2" d="M48.59,5.7h0s0,0,0,0,0,0,0,0h0"/><path class="cls-2" d="M48.55,5.53h0"/><path class="cls-2" d="M48.63,5.78h0"/><path class="cls-2" d="M48.59,5.63l0,0a0,0,0,0,1,0,0h0"/><path class="cls-2" d="M48.56,5.63l0,0,0,0h0"/><path class="cls-2" d="M48.64,5.83s0,0,0,0h0"/><path class="cls-2" d="M48.69,5.74h0"/><path class="cls-2" d="M48.65,5.71h0"/><path class="cls-2" d="M48.54,5.67s0,0,0,0h0"/><path class="cls-2" d="M48.6,5.51a0,0,0,0,1,0,0l0,0"/><path class="cls-2" d="M48.63,5.74l0,0s0,0,0,0h0"/><path class="cls-2" d="M48.64,5.73s0,0,0,0h0"/><path class="cls-2" d="M48.54,5.66l0,0,0,0"/><path class="cls-2" d="M48.53,5.56l0,0,0,0"/><path class="cls-2" d="M48.55,5.56l0,0,0,0h0"/><path class="cls-2" d="M48.54,5.54h0"/><path class="cls-2" d="M48.65,5.72h0"/><path class="cls-2" d="M48.59,5.59h0"/><path class="cls-2" d="M48.58,5.43v0s0,0,0,0"/><path class="cls-2" d="M48.6,5.65h0s0,0,0,0"/><path class="cls-2" d="M48.57,5.67a0,0,0,0,1,0,0s0,0,0,0"/><path class="cls-2" d="M48.57,5.53h0"/><path class="cls-2" d="M48.54,5.55h0"/><path class="cls-2" d="M48.51,5.64v0h0"/><path class="cls-2" d="M48.54,5.56s0,0,0,0h0"/><path class="cls-2" d="M48.57,5.65h0"/><path class="cls-2" d="M48.55,5.62h0s0,0,0,0h0"/><path class="cls-2" d="M48.61,5.74h0s0,0,0,0h0"/><path class="cls-2" d="M48.7,5.7h0"/><path class="cls-2" d="M48.65,5.69h0"/><path class="cls-2" d="M48.62,5.75h0"/><path class="cls-2" d="M48.67,5.69h0"/><path class="cls-2" d="M48.66,5.67h0"/><path class="cls-2" d="M48.51,5.65s0,0,0,0h0"/><polyline class="cls-2" points="48.61 5.74 48.6 5.74 48.61 5.74"/><polyline class="cls-2" points="48.64 5.68 48.64 5.69 48.64 5.68"/><path class="cls-2" d="M48.66,5.59h0"/><path class="cls-2" d="M48.6,5.62h0"/><path class="cls-2" d="M48.65,5.77s0,0,0,0h0"/><path class="cls-2" d="M48.71,5.72v0"/><path class="cls-2" d="M48.7,5.7h0"/><path class="cls-2" d="M48.66,5.76h0"/><polyline class="cls-2" points="48.54 5.65 48.54 5.65 48.54 5.65"/><path class="cls-2" d="M48.57,5.61s0,0,0,0h0"/><path class="cls-2" d="M48.67,5.72s0,0,0,0h0"/><polyline class="cls-2" points="48.56 5.63 48.56 5.63 48.56 5.63"/><path class="cls-2" d="M48.57,5.42h0"/><path class="cls-2" d="M48.6,5.64s0,0,0,0h0"/><path class="cls-2" d="M48.56,5.52h0"/><path class="cls-2" d="M48.68,5.74h0"/><polyline class="cls-2" points="48.56 5.66 48.56 5.66 48.56 5.66"/><path class="cls-2" d="M48.71,5.88h0"/><path class="cls-2" d="M48.54,5.54h0"/><path class="cls-2" d="M48.52,5.53s0,0,0,0h0"/><path class="cls-2" d="M48.53,5.51h0"/><path class="cls-2" d="M48.64,5.81h0"/><path class="cls-2" d="M48.69,5.69h0"/><path class="cls-2" d="M48.57,5.67h0"/><path class="cls-2" d="M48.53,5.66s0,0,0,0h0"/><path class="cls-2" d="M48.57,5.61s0,0,0,0h0"/><path class="cls-2" d="M48.57,5.61h0"/><path class="cls-2" d="M48.66,5.79h0"/><path class="cls-2" d="M48.67,5.78h0"/><path class="cls-2" d="M49,5.48s0-.07,0-.08,0,.06,0,.06l0,0s0,0,0,0,0,0,0,0,0,0,0,0h0"/><path class="cls-2" d="M49,5.68h0s0,0,0,0h0l0,0a.06.06,0,0,1,0,0h0"/><path class="cls-2" d="M49,5.46s0,0,0,0l0,0"/><path class="cls-2" d="M49,5.66v0s0,0,0,0h0"/><path class="cls-2" d="M49,5.7h0s0,0,0,0,0,0,0,0"/><path class="cls-2" d="M49,5.46s0,0,0,0h0"/><path class="cls-2" d="M48.94,5.51h0"/><path class="cls-2" d="M49,5.62s0,0,0,0,0,0,0,0h0"/><path class="cls-2" d="M49,5.53s0,0,0,0h0"/><path class="cls-2" d="M48.91,5.45h0"/><path class="cls-2" d="M49,5.49h0s0,0,0,0h0"/><path class="cls-2" d="M49,5.5h0"/><path class="cls-2" d="M49,5.45h0"/><path class="cls-2" d="M49,5.69h0"/><path class="cls-2" d="M49,5.63h0"/><path class="cls-2" d="M49,5.52h0"/><path class="cls-2" d="M49,5.63v0s0,0,0,0"/><path class="cls-2" d="M49,5.68h0"/><path class="cls-2" d="M49,5.44h0"/><path class="cls-2" d="M49,5.33h0"/><path class="cls-2" d="M48.91,5.38h0"/><path class="cls-2" d="M49,5.52h0"/><path class="cls-2" d="M49,5.69h0"/><path class="cls-2" d="M48.94,5.66h0"/><path class="cls-2" d="M49,5.44s0,0,0,0h0"/><path class="cls-2" d="M48.91,5.39h0"/><path class="cls-2" d="M49,5.44h0"/><path class="cls-2" d="M49,5.5h0"/><path class="cls-2" d="M49,5.6h0"/><path class="cls-2" d="M49,5.72h0"/><path class="cls-2" d="M49.29,5.43s0,0,0,0h0"/><path class="cls-2" d="M49,5.5h0"/><path class="cls-2" d="M48.66,5.34s0,0,0,0h0"/><path class="cls-2" d="M48.93,5.18s0,0,0,0h0"/><path class="cls-2" d="M48.91,5.23h0"/><path class="cls-2" d="M48.68,5.34h0"/><path class="cls-2" d="M48.9,5.1h0"/><path class="cls-2" d="M48.93,5.15s0,0,0,0h0"/><path class="cls-2" d="M49.39,5.21h0"/><path class="cls-2" d="M49.37,5.27h0"/><path class="cls-2" d="M49,5.46v0s0,0,0,0"/><path class="cls-2" d="M49,5.46h0"/><path class="cls-2" d="M49,5.43h0"/><polyline class="cls-2" points="48.59 5.49 48.59 5.5 48.59 5.49"/><path class="cls-2" d="M48.67,5.73h0"/><path class="cls-2" d="M48.68,5.74h0"/><path class="cls-2" d="M48.65,5.74h0"/><path class="cls-2" d="M48.54,5.64h0"/><path class="cls-2" d="M48.56,5.67h0"/><path class="cls-2" d="M49,5.46h0l0,0s0,0,0,0h0"/><path class="cls-2" d="M49,5.48h0"/><path class="cls-2" d="M49,5.69s0,0,0,0h0"/><path class="cls-1" d="M64.74,6.26s-.37,0-.29,0l.31-.07s0,0,0,0a.27.27,0,0,0,.11,0v0l.09,0a0,0,0,0,0,0,0l.08,0s0,0,0,0l0,0,.59,0a.35.35,0,0,0,0,.12s.3.33-.12.39-.3-.2-1.08-.24l.56,0a7.09,7.09,0,0,1-.77-.05Z"/><path class="cls-1" d="M65,6.48a1,1,0,0,1-.91.1c-.43-.17-.34-.86.33-1A13.22,13.22,0,0,1,67,5.86a19.36,19.36,0,0,0-2.54-.22c-.58.07-.8.68-.36.89a1,1,0,0,0,.9-.09Z"/><path class="cls-1" d="M64,5.78c-.39.2-.4.67-.05.8l.15,0h.14l-.14,0-.16,0c-.33-.16-.27-.53,0-.72Z"/><path class="cls-1" d="M64.31,5.7a13,13,0,0,1,2.48.21,17.62,17.62,0,0,0-2.46-.19.38.38,0,0,0-.16,0l.14,0"/><path class="cls-1" d="M64.74,6.56a.35.35,0,0,0,.13-.07l0,0a1.08,1.08,0,0,1-.34.13,1,1,0,0,0,.23,0"/><path class="cls-1" d="M65.69,6.17a.16.16,0,0,0,0,.1c0,.05.11.12.13.18a.25.25,0,0,1-.1.21l.31,0s.12,0,.12-.14-.06-.34-.06-.34Z"/><path class="cls-1" d="M66,6.72a1.81,1.81,0,0,0,.25,0c.08,0,.1-.45.1-.45l-.28-.06a1.76,1.76,0,0,1,.07.43,1.11,1.11,0,0,1-.14.13"/><path class="cls-1" d="M66.17,6.72s0,.08,0,.09a.49.49,0,0,0,.17,0s.11-.24.24-.24a.3.3,0,0,0-.07-.16l-.15-.14s0,.36-.08.45-.14,0-.14,0"/><path class="cls-1" d="M66.23,6.84s-.07.1,0,.11.21-.07.28-.07.15,0,.15,0,0-.35,0-.35a.38.38,0,0,0-.17.18.24.24,0,0,1-.21.14"/><path class="cls-1" d="M66.15,7.13s.29,0,.37,0l.14-.29-.15,0-.3.09s-.07,0-.06.14"/><path class="cls-1" d="M66.14,7.15s.35-.08.37,0-.22.37-.32.38,0-.1-.09-.07,0-.11,0-.1,0-.19.09-.25"/><path class="cls-1" d="M66.05,7.4s-.46.12-.54.33c0,0,.31-.21.43-.2Z"/><path class="cls-1" d="M65.53,7.78s.22-.23.4-.23c0,0,.12-.14.14-.14s0,.09,0,.09.08,0,.07.08-.42.29-.55.26.09-.1.13-.11a1,1,0,0,0-.15.1s-.1,0-.07,0"/><path class="cls-1" d="M64.9,6.28a.06.06,0,0,1-.05.06.06.06,0,1,1,0-.11.05.05,0,0,1,.05,0"/><polygon class="cls-1" points="65.22 6.64 65.04 6.74 65.06 6.78 65.24 6.66 65.22 6.64"/><polygon class="cls-1" points="65.06 6.78 65.02 6.75 64.81 6.95 64.84 6.98 65.06 6.78"/><polygon class="cls-1" points="64.85 7.14 64.84 6.98 64.81 6.97 64.85 7.14"/><polygon class="cls-1" points="65.23 6.77 65.16 6.97 65.19 6.99 65.26 6.78 65.23 6.77"/><polygon class="cls-1" points="65.15 6.99 65.11 7.28 65.15 7.28 65.19 6.99 65.15 6.99"/><polygon class="cls-1" points="65.13 7.29 65.15 7.28 65.26 7.4 65.13 7.29"/><polygon class="cls-1" points="65.26 6.78 65.39 6.7 65.33 6.68 65.25 6.75 65.26 6.78"/><polygon class="cls-1" points="65.33 7.05 65.37 7.07 65.4 6.81 65.37 6.81 65.33 7.05"/><polygon class="cls-1" points="65.33 7.08 65.35 7.43 65.39 7.42 65.38 7.07 65.33 7.08"/><polygon class="cls-1" points="65.37 7.44 65.39 7.42 65.52 7.55 65.37 7.44"/><polygon class="cls-1" points="65.4 6.81 65.51 6.7 65.45 6.68 65.39 6.78 65.4 6.81"/><polygon class="cls-1" points="65.01 6.61 65.02 6.64 65.15 6.61 65.15 6.59 65.01 6.61"/><polygon class="cls-1" points="65.02 6.64 65 6.61 64.83 6.7 64.84 6.72 65.02 6.64"/><polygon class="cls-1" points="64.8 6.82 64.84 6.72 64.82 6.71 64.8 6.82"/><path class="cls-1" d="M65.89,6.67a.52.52,0,0,0-.11.2c0,.1,0,.11,0,0s.12-.2.07-.25"/><path class="cls-1" d="M66,6.73a.52.52,0,0,0-.11.2c0,.1,0,.11,0,.05s.11-.2.07-.25"/><path class="cls-1" d="M66.12,6.79A.42.42,0,0,0,66,7c0,.1,0,.11,0,0s.11-.21.07-.25"/><path class="cls-1" d="M58.36.74A.6.6,0,0,1,57.19.46.63.63,0,0,1,57.55,0a.63.63,0,0,1,.36,0h0a.6.6,0,0,1,.42.72"/><path class="cls-1" d="M57.44,1.44a.68.68,0,0,0-.25.35,2.82,2.82,0,0,0-.18.85V2.8a4.09,4.09,0,0,0,0,.47.51.51,0,0,0,.28.42V5.75a.34.34,0,0,0,.67,0V3.34a2.81,2.81,0,0,1,0-.58l-.05,0a.82.82,0,0,1-.32-.26,1,1,0,0,1-.19-.58,1.41,1.41,0,0,1,0-.22.25.25,0,0,1,.16-.2h.15a.27.27,0,0,1,.21.28v0h0V1.9a.42.42,0,0,0,0,.2.28.28,0,0,0,.08.11c0-.09,0-.16,0-.24a.5.5,0,0,0-.25-.64.53.53,0,0,0-.25,0,.58.58,0,0,0-.19.1"/><path class="cls-1" d="M60.09,2.1s0,0,0,0l-1-.25s0,0,0,0,0,0,0,0l-.11.4a.21.21,0,0,1,.13,0l.61.16v0l-.54-.14a.11.11,0,0,1,0,.08h0a.34.34,0,0,1,0,.1l.46.12v.06l-.46-.13a.29.29,0,0,1-.13.14l.54.14v0l-.62-.16h0l-.09,0-.06.2V3l0,0,.75.2,0-.16c0-.06.06,0,.15,0a.25.25,0,0,0,.12,0,.16.16,0,0,1-.12,0s-.06,0-.08,0,0,.16-.06.17l.26-.19h0l.26-1a0,0,0,0,0,0,0m-.91,0h0l0,0a0,0,0,0,1,0,0h0l0,.05h0l0,0,0,0s0,0,0,0V2l0,0,0,0h.1V2a0,0,0,0,1,0,0h-.07s0,0,0,0v0m.22,0a0,0,0,0,1,0,0h0l0,.05h0l0-.17.07,0h0l0,0v0s0,0,0,0,0,0,0,0m.15,0h-.06a0,0,0,0,0,0,0s0,0,0,0v0h0s0,0,0,0h0s0,0,0,0h0l0,.05h0l0,0,0,0a.08.08,0,0,1,0,0s0,0,0,0,0,0,0,0l0,0h.11l0,0v0m.13.17h0l0,0,0,0V2.14l0,0,0,0h.11v0s0,0,0,0h-.06s0,0,0,0v0h0s0,0,0,0h0s0,0,0,0h0Zm.14.62h0s0,0,0,0h0L59.72,3l0,0h0a0,0,0,0,1,0,0v0a0,0,0,0,1,0,0s0,0,0,0h0s0,0,0,0h0v0h0l.09,0h0m.06-.21h0v0h0l-.09,0,0,0h0v0s0,0,0,0l0,0h0v0h0v0h0l.08-.05h0m.06-.22h0s0,0,0,0h0l-.09,0,0,0h0v0a0,0,0,0,0,0,0,0,0,0,0,1,0,0s0,0,0,0,0,0,0,0h0a0,0,0,0,0,0,0h0l.08-.05h0"/><path class="cls-1" d="M59.37,2.07h0l0,0h0"/><path class="cls-1" d="M59,2.71l-.07,0-.16,0-.28,0A1.15,1.15,0,0,1,58,2.7h0a.7.7,0,0,1-.31-.24.87.87,0,0,1-.17-.55,1.21,1.21,0,0,1,0-.21.22.22,0,0,1,.19-.17h.06a.23.23,0,0,1,.17.22v0h0V1.9a.66.66,0,0,0,0,.23.28.28,0,0,0,.11.13l.07,0a.71.71,0,0,0,.3.05,1.81,1.81,0,0,0,.42-.05.19.19,0,0,1,.18,0,.19.19,0,0,1,.07.12h0a.2.2,0,0,1-.16.25"/><path class="cls-1" d="M60.1,36v.22h.57V36h-.18v.11a0,0,0,0,1,0,0h-.13a0,0,0,0,1,0,0V36Z"/><path class="cls-1" d="M61.33,35.62a.2.2,0,0,1-.2.21h-1.5a.2.2,0,0,1-.2-.21v-1a.2.2,0,0,1,.2-.21h1.5a.2.2,0,0,1,.2.21Zm-.2-1.37h-1.5a.32.32,0,0,0-.32.33v1a.32.32,0,0,0,.32.33h1.5a.32.32,0,0,0,.32-.33v-1a.32.32,0,0,0-.32-.33"/><path class="cls-1" d="M61.13,36h-1.5a.33.33,0,0,1-.33-.33v-1a.33.33,0,0,1,.33-.33h1.5a.33.33,0,0,1,.33.33v1a.33.33,0,0,1-.33.33m-1.5-1.57a.19.19,0,0,0-.19.2v1a.19.19,0,0,0,.19.2h1.5a.2.2,0,0,0,.2-.2v-1a.2.2,0,0,0-.2-.2Z"/><path class="cls-1" d="M61.13,34.41h-1.5a.16.16,0,0,0-.16.17v1a.16.16,0,0,0,.16.17h1.5a.17.17,0,0,0,.17-.17v-1a.17.17,0,0,0-.17-.17m-1,.64s0,0,0,0a.06.06,0,0,1,0,0l0,0a.13.13,0,0,1-.07.06l-.08,0-.09,0-.06,0a.21.21,0,0,1,0-.06.24.24,0,0,1,0-.08.19.19,0,0,1,0-.08.16.16,0,0,1,0-.07l.07,0H60a.16.16,0,0,1,.1,0,.27.27,0,0,1,.07.08l-.09,0,0,0,0,0h0l0,0,0,0v.08l0,0,0,0h0l.05,0a.08.08,0,0,0,0,0H60V35h.2v0m.42,0s0,0,0,0a.06.06,0,0,1,0,0l0,0a.13.13,0,0,1-.07.06l-.08,0-.09,0-.06,0a.21.21,0,0,1,0-.06.24.24,0,0,1,0-.08.19.19,0,0,1,0-.08.16.16,0,0,1,0-.07l.07,0h.08a.16.16,0,0,1,.1,0,.27.27,0,0,1,.07.08l-.09,0,0,0,0,0h0l0,0s0,0,0,0v.08s0,0,0,0l0,0h0l0,0a.08.08,0,0,0,0,0h-.08V35h.2v0m.42.17h-.1L60.72,35h0v.23h-.1v-.37h.1l.18.23h0v-.23H61Z"/><path class="cls-1" d="M61,36.35a.08.08,0,0,0-.06,0H59.81a.08.08,0,0,0-.06,0l0,.09s0,0,0,0H61s0,0,0,0Z"/><path class="cls-1" d="M46.94,21.64l-.42-1.7a.18.18,0,0,0-.22-.12L45,20.14a.19.19,0,0,0-.13.22l0,0,.24-.06a.15.15,0,0,1,.18.1l0,.1a.14.14,0,0,1-.11.17l-.24.06L45,21l.24-.06a.15.15,0,0,1,.18.1l0,.09a.15.15,0,0,1-.1.18l-.25.06.06.25.25-.06a.13.13,0,0,1,.17.1l0,.09a.15.15,0,0,1-.11.17l-.25.06,0,.05a.17.17,0,0,0,.21.13l1.31-.33a.18.18,0,0,0,.13-.21M46,20.12h.07l0,0,0,0v0a0,0,0,0,1,0,0,0,0,0,0,1,0,0l0,0,.12.09-.09,0L46,20.3h0l0,.11-.07,0-.07-.28Zm-.28.37-.06,0s0,0,0,0a.14.14,0,0,1,0-.06.13.13,0,0,1,0-.06.14.14,0,0,1,0-.06l0,0,.06,0h.08a.18.18,0,0,1,.07.05l-.07.05s0,0,0,0,0,0,0,0h0l0,0v.09l0,0s0,0,0,0h0s0,0,0,0,0,0,0,0h-.06v-.05l.15,0v.09a0,0,0,0,1,0,0,.07.07,0,0,1,0,.05.06.06,0,0,1-.06,0h-.06m.66,1a.14.14,0,0,1,0,.07l0,.06-.08,0h-.08a.09.09,0,0,1-.07,0A.1.1,0,0,1,46,21.6a.19.19,0,0,1,0-.09l.09,0a.13.13,0,0,0,0,.09.1.1,0,0,0,.09,0s.06,0,.07-.05,0-.05,0-.09,0,0,0-.05l0,0,0,0h-.05l-.07,0-.06,0a.18.18,0,0,1-.07-.05s0-.05,0-.08a.24.24,0,0,1,0-.12A.21.21,0,0,1,46,21a.12.12,0,0,1-.08,0,.2.2,0,0,1,0-.09.28.28,0,0,1,0-.09l0-.07.05-.06.07,0a.14.14,0,0,1,.09,0,.2.2,0,0,1,.08,0l.05.07a.19.19,0,0,1,0,.07l-.08,0a.19.19,0,0,0,0-.09.09.09,0,0,0-.09,0,.12.12,0,0,0-.07.05.28.28,0,0,0,0,.09l0,.05a.05.05,0,0,0,0,0l.06,0h.06l.06,0,.06,0,0,.05a.2.2,0,0,1,0,.08.24.24,0,0,1,0,.12l-.07.09a.2.2,0,0,1,.14.15s0,.06,0,.08"/><path class="cls-1" d="M45.66,22.32s0,0,0,0,0,0,0,0l1.3-.32a.19.19,0,0,0,.13-.22l-.45-1.78s0,0,0,0,0,0,.05,0l.44,1.78A.26.26,0,0,1,47,22Z"/><path class="cls-1" d="M45.12,20.34h0l-.06-.22-.08,0a.19.19,0,0,0-.13.22l0,0Z"/><polygon class="cls-1" points="45.27 20.96 45.28 20.96 45.22 20.71 45.21 20.71 44.97 20.77 45.03 21.02 45.27 20.96"/><polyline class="cls-1" points="45.37 21.32 45.12 21.39 45.18 21.64 45.43 21.58 45.44 21.58 45.37 21.32 45.37 21.32"/><path class="cls-1" d="M45.52,21.94l-.24.06v.05a.17.17,0,0,0,.21.13l.08,0,0-.22h0"/><path class="cls-1" d="M44.77,20.67a.08.08,0,0,0,.1.06l.33-.08a.08.08,0,0,0,.06-.1l0-.09a.08.08,0,0,0-.09-.06l-.33.08a.08.08,0,0,0-.06.1Z"/><path class="cls-1" d="M44.92,21.29a.1.1,0,0,0,.1.06l.33-.08a.09.09,0,0,0,.06-.1l0-.09a.08.08,0,0,0-.1-.06L45,21.1a.08.08,0,0,0-.06.1Z"/><path class="cls-1" d="M45.08,21.91a.07.07,0,0,0,.1.05l.32-.08a.08.08,0,0,0,.07-.09l0-.1a.07.07,0,0,0-.1-.05l-.32.08a.07.07,0,0,0-.06.09Z"/><path class="cls-1" d="M46.23,21.16a.09.09,0,0,1,0,.05l0,0,0,0h-.09s0,0,0,0,0,0,0-.05v-.09l0,0,0,0h.05l0,0,0,0s0,0,0,.05,0,0,0,.05"/><path class="cls-1" d="M46.05,20.23h0l0-.07H46s0,0,0,0v0"/><path class="cls-1" d="M7,49.49v-2.8h7.21a2.81,2.81,0,0,1,0,.3c0,.11,0,.27,0,.48a7.48,7.48,0,0,1-1.83,5.38,6.82,6.82,0,0,1-5.16,1.91,8.22,8.22,0,0,1-2.91-.49A6.5,6.5,0,0,1,2,52.76,6.66,6.66,0,0,1,.53,50.48,7.61,7.61,0,0,1,.51,45a6.87,6.87,0,0,1,1.54-2.27,6.69,6.69,0,0,1,2.32-1.49,7.68,7.68,0,0,1,2.82-.51,7.51,7.51,0,0,1,3.49.78,6.86,6.86,0,0,1,2.56,2.33l-3.18,1.56a4,4,0,0,0-1.28-1.19,3.3,3.3,0,0,0-1.6-.39,3.23,3.23,0,0,0-2.58,1.1,4.38,4.38,0,0,0-.95,3,4.43,4.43,0,0,0,.95,3A3.21,3.21,0,0,0,7.18,52a3.87,3.87,0,0,0,2.33-.68,2.61,2.61,0,0,0,1.09-1.82Z"/><polygon class="cls-1" points="15.66 54.44 15.66 41 19.31 41 19.31 51.28 23.88 51.28 23.88 54.44 15.66 54.44"/><path class="cls-1" d="M38.38,47.74a6.9,6.9,0,0,1-2.09,5,7.39,7.39,0,0,1-7.87,1.53,7.1,7.1,0,0,1-2.32-1.53,6.93,6.93,0,0,1-1.58-2.28,7.22,7.22,0,0,1,0-5.43,7,7,0,0,1,1.58-2.27,7.1,7.1,0,0,1,2.32-1.53,7.33,7.33,0,0,1,7.87,1.53A7,7,0,0,1,37.84,45a6.91,6.91,0,0,1,.54,2.72m-7.18,4a3.24,3.24,0,0,0,2.53-1.12,4.15,4.15,0,0,0,1-2.84,4.07,4.07,0,0,0-1-2.83,3.21,3.21,0,0,0-2.51-1.14,3.25,3.25,0,0,0-2.53,1.13,4.56,4.56,0,0,0,0,5.69A3.23,3.23,0,0,0,31.2,51.7"/><path class="cls-1" d="M39.52,54.44V41h3.69a22.69,22.69,0,0,1,3.19.15,4.55,4.55,0,0,1,1.56.5,2.84,2.84,0,0,1,1.14,1.11,3.19,3.19,0,0,1,.39,1.6,2.69,2.69,0,0,1-.58,1.82,3.65,3.65,0,0,1-1.87,1,3.18,3.18,0,0,1,2.24,1,3.43,3.43,0,0,1,.81,2.39,3.83,3.83,0,0,1-.46,1.89,3.12,3.12,0,0,1-1.3,1.27,5.4,5.4,0,0,1-1.7.53,25.4,25.4,0,0,1-3.31.15Zm3.41-8.07h.74a4,4,0,0,0,1.87-.3,1.09,1.09,0,0,0,.51-1A1.18,1.18,0,0,0,45.57,44a3.82,3.82,0,0,0-1.85-.3h-.79Zm0,5.33h1.29a3.8,3.8,0,0,0,1.85-.32,1.19,1.19,0,0,0,.54-1.1,1.32,1.32,0,0,0-.5-1.19,3.56,3.56,0,0,0-1.83-.33H42.93Z"/><path class="cls-1" d="M50,54.44,54.58,41h4.59l4.64,13.44H60.17l-.68-2.38H54.28l-.69,2.38Zm5.12-5h3.65L57.35,45c0-.14-.1-.36-.17-.66s-.17-.68-.29-1.15c-.08.33-.16.64-.23.94s-.16.59-.24.87Z"/><polygon class="cls-1" points="64.55 54.44 64.55 41 68.2 41 68.2 51.28 72.76 51.28 72.76 54.44 64.55 54.44"/><path class="cls-1" d="M81,47.49h5.55v.45a6.88,6.88,0,0,1-1.8,5,6.58,6.58,0,0,1-4.91,1.83,7.53,7.53,0,0,1-1.8-.2A6.29,6.29,0,0,1,76.46,54a6.35,6.35,0,0,1-2.55-2.51,7.3,7.3,0,0,1-.9-3.64,8.19,8.19,0,0,1,.54-3,6.64,6.64,0,0,1,1.62-2.38,6.05,6.05,0,0,1,2.11-1.31,7.77,7.77,0,0,1,2.66-.44,7.5,7.5,0,0,1,3.36.71,5.93,5.93,0,0,1,2.35,2.11l-1.34,1.08a4.92,4.92,0,0,0-1.81-1.84A5,5,0,0,0,80,42.12a4.91,4.91,0,0,0-3.8,1.59,5.86,5.86,0,0,0-1.46,4.14,5.52,5.52,0,0,0,1.48,4A5,5,0,0,0,80,53.35a4.79,4.79,0,0,0,3.36-1.22,4.63,4.63,0,0,0,1.49-3.2H81Z"/><path class="cls-1" d="M97.4,40.47l6.11,14h-1.74L100,50.3H94.78L93,54.44H91.29Zm0,3.53-2.14,4.93h4.28Z"/><path class="cls-1" d="M111.29,48.4v6h-1.58V41h2.83a10.3,10.3,0,0,1,2.17.16,3.23,3.23,0,0,1,1.21.51,3.11,3.11,0,0,1,1,1.26,4.53,4.53,0,0,1,0,3.54,3.18,3.18,0,0,1-1,1.26,3.27,3.27,0,0,1-1.2.52,11.34,11.34,0,0,1-2.18.15h-1.25Zm0-1.43h.8a5.46,5.46,0,0,0,2.77-.48,1.92,1.92,0,0,0,.71-1.69,2.07,2.07,0,0,0-.73-1.8,5,5,0,0,0-2.75-.53h-.8Z"/><path class="cls-1" d="M115.67,53.78a.79.79,0,0,1,.78-.79.77.77,0,0,1,.56.23.77.77,0,0,1,0,1.11.85.85,0,0,1-.57.22.8.8,0,0,1-.56-.22.74.74,0,0,1-.22-.55"/><path class="cls-1" d="M105.83,53.78a.79.79,0,0,1,.78-.79.77.77,0,0,1,.56.23.77.77,0,0,1,0,1.11.85.85,0,0,1-.57.22.8.8,0,0,1-.56-.22.74.74,0,0,1-.22-.55"/><path class="cls-1" d="M87.4,53.78a.79.79,0,0,1,.23-.56.76.76,0,0,1,.55-.23.81.81,0,0,1,.57.23.77.77,0,0,1,.23.56.75.75,0,0,1-.23.55.81.81,0,0,1-.57.22.78.78,0,0,1-.55-.22.75.75,0,0,1-.23-.55"/></g></g></svg>