<svg xmlns="http://www.w3.org/2000/svg" viewBox="0 0 254.31 56.36"><defs><style>.cls-1{fill:#b1cf44;}.cls-2{fill:#7f7f7f;}</style></defs><g id="Capa_2" data-name="Capa 2"><g id="Capa_1-2" data-name="Capa 1"><path class="cls-1" d="M154,35.73h-1.23a.53.53,0,0,1-.58-.41,6,6,0,0,0-3.38-3.69,6.54,6.54,0,0,0-6.19.28,7,7,0,0,0-3.58,7.38,6.66,6.66,0,0,0,4.49,5.77,6.52,6.52,0,0,0,7.08-1.4,7.58,7.58,0,0,0,1.79-2.72c.12-.27.26-.4.54-.39h2.51c.46,0,.59.21.46.63a11,11,0,0,1-3.35,5.43,10.5,10.5,0,0,1-4.53,2.24,9.27,9.27,0,0,1-4.62-.07,10.27,10.27,0,0,1-4.4-2.37A11.24,11.24,0,0,1,135.81,41a10.11,10.11,0,0,1-.13-4.8,11.33,11.33,0,0,1,3.35-6,9.8,9.8,0,0,1,3.19-2,10,10,0,0,1,6.25-.41,9.77,9.77,0,0,1,5.36,3.43,10.74,10.74,0,0,1,1.91,3.73c.19.62,0,.8-.62.8C154.76,35.74,154.4,35.73,154,35.73Z"/><path class="cls-2" d="M139.08,20.85a41.38,41.38,0,0,0-.25-5.1,7.11,7.11,0,0,1,.27-3.54,1.86,1.86,0,0,1,2.29-1.27,1.64,1.64,0,0,1,1.21,1.3,30.48,30.48,0,0,1,.7,3.42,3.89,3.89,0,0,1-.29,1.78,7.55,7.55,0,0,0-.31,2.95c.06,1.24.15,2.48.23,3.72a.76.76,0,0,1-.38.8,3.81,3.81,0,0,0-1.16,1.17,2.29,2.29,0,0,1-1.14.82.9.9,0,0,1-1.27-.81,8.71,8.71,0,0,1,0-1.91C139.08,23.07,139.06,22,139.08,20.85Z"/><path class="cls-2" d="M149.32,13.1c-.12,1.43-.11,2.88-.11,4.32a2.63,2.63,0,0,0,.13.92,9.27,9.27,0,0,1,0,5.22,2.23,2.23,0,0,1-1.18,1.6c-.73.39-2.23-.45-2.43-1.3a6.15,6.15,0,0,1-.09-1.91,14,14,0,0,0-.29-4.82,11.28,11.28,0,0,1-.07-3.67,7,7,0,0,1,.43-2.35c.28-.69.64-1.32,1.45-1.37a1.86,1.86,0,0,1,1.73,1.16A4.27,4.27,0,0,1,149.32,13.1Z"/><path class="cls-2" d="M127.26,26.68A4.58,4.58,0,0,1,131.72,29c.78,1.28,1.47,2.62,2.17,4,.17.32.42.76.18,1s-.71,0-1,0a9.49,9.49,0,0,0-2.89-.5,2.49,2.49,0,0,1-2.3-1.36c-.52-.9-1.31-1.58-1.83-2.48-.16-.29-.33-.57-.47-.86a1.35,1.35,0,0,1,1.14-2.06A4.08,4.08,0,0,1,127.26,26.68Z"/><path class="cls-2" d="M156.3,31.76A3.69,3.69,0,0,1,157,30c.88-1.43,1.47-3,2.26-4.46a6.6,6.6,0,0,1,1.82-2.4,1.63,1.63,0,0,1,2.51.18,1,1,0,0,1,.25,1,10.11,10.11,0,0,1-1.46,3.14c-.67,1.06-1.34,2.12-1.91,3.25A5,5,0,0,1,157.72,33C157,33.27,156.26,32.75,156.3,31.76Z"/><path class="cls-2" d="M141.55,38.16a4.36,4.36,0,0,0,3.31,4.36c.36.09.5,0,.54-.36s.14-.52.58-.26l1.7,1c.32.18.39.34,0,.55-.62.34-1.22.71-1.83,1-.29.15-.52.1-.44-.28s-.22-.6-.57-.66a5.24,5.24,0,0,1-3.16-1.93A5.37,5.37,0,0,1,143,33.69a5.59,5.59,0,0,1,7.82,2,.83.83,0,0,0,.85.5c1.13,0,2.26,0,3.39,0,.34,0,.73,0,.74.47s-.42.54-.76.5a25,25,0,0,0-3.67,0,1.25,1.25,0,0,1-1.34-.79,4.38,4.38,0,0,0-4.21-2.53,4.24,4.24,0,0,0-3.94,2.55A3.29,3.29,0,0,0,141.55,38.16Z"/><path class="cls-2" d="M156,13.52a1.05,1.05,0,0,1-.1.63,1.9,1.9,0,0,0-.23,1.54,2.24,2.24,0,0,1-.14,1.25,12.76,12.76,0,0,1-2.07,3.55c-.23.28-.37.23-.54-.06a4.47,4.47,0,0,1-.64-3.14,14.32,14.32,0,0,0,0-2.54,4.18,4.18,0,0,1,.39-1.81,1.39,1.39,0,0,1,2-.81,3,3,0,0,1,.73.39A1.11,1.11,0,0,1,156,13.52Z"/><path class="cls-2" d="M151.37,24.5a3.55,3.55,0,0,1,1.19-2.78.59.59,0,0,1,.93.06c.38.43.78.84,1.18,1.26a.87.87,0,0,1,.12,1.16,5.24,5.24,0,0,1-1.14,1.34c-.62.54-1.19.13-1.76-.12A.84.84,0,0,1,151.37,24.5Z"/><path class="cls-2" d="M173,21.39a2.29,2.29,0,0,0-1.8.71,3,3,0,0,0-.62,2,2.83,2.83,0,0,0,.69,2,2.48,2.48,0,0,0,1.87.72,3,3,0,0,0,1.06-.17,7.81,7.81,0,0,0,.83-.38,1.51,1.51,0,0,1,.55,1.2,1.24,1.24,0,0,1-.7,1.06,4,4,0,0,1-2.11.44,6.33,6.33,0,0,1-1.92-.29,4.28,4.28,0,0,1-1.57-.89,4.15,4.15,0,0,1-1.06-1.53,5.62,5.62,0,0,1-.39-2.2,5.5,5.5,0,0,1,.38-2.1,4.56,4.56,0,0,1,1-1.53,4.32,4.32,0,0,1,1.52-.94,5.1,5.1,0,0,1,1.85-.32,4.26,4.26,0,0,1,2.18.46,1.34,1.34,0,0,1,.77,1.17,1.19,1.19,0,0,1-.2.68,1.55,1.55,0,0,1-.46.46,4.87,4.87,0,0,0-.85-.44A2.76,2.76,0,0,0,173,21.39Z"/><path class="cls-2" d="M178.54,19.8a3.14,3.14,0,0,1,.78-.29,4.27,4.27,0,0,1,1.06-.13,3.75,3.75,0,0,1,1.35.22,1.17,1.17,0,0,1,.76.69c.18.53.38,1.14.59,1.84s.43,1.43.64,2.18.42,1.48.62,2.21.39,1.36.54,1.92a1.25,1.25,0,0,1-.55.35,2.75,2.75,0,0,1-.87.13,2.25,2.25,0,0,1-.62-.07,1.19,1.19,0,0,1-.41-.18,1,1,0,0,1-.26-.32,3,3,0,0,1-.17-.46l-.28-1.05H179c-.08.31-.16.62-.24.95s-.16.64-.24.94a3.33,3.33,0,0,1-.45.13,2.37,2.37,0,0,1-.57.06,2,2,0,0,1-1.15-.27.87.87,0,0,1-.38-.74,1.65,1.65,0,0,1,.06-.43c0-.14.09-.31.14-.5s.17-.61.3-1,.26-.85.42-1.32.31-1,.48-1.45.34-1,.49-1.41.29-.84.42-1.19Zm1.83,2c-.15.42-.31.9-.48,1.42s-.34,1.06-.48,1.6h1.89c-.15-.55-.29-1.09-.44-1.61s-.28-1-.4-1.41Z"/><path class="cls-2" d="M188.17,25.78V28.7a4.29,4.29,0,0,1-.53.09,5.49,5.49,0,0,1-.7.05,3.7,3.7,0,0,1-.62-.05,1,1,0,0,1-.44-.19.86.86,0,0,1-.27-.39,1.85,1.85,0,0,1-.09-.64V20.4a.7.7,0,0,1,.17-.5,1.24,1.24,0,0,1,.48-.28,6.2,6.2,0,0,1,1.21-.27,13.25,13.25,0,0,1,1.46-.08,4.87,4.87,0,0,1,3.17.88,3,3,0,0,1,1.07,2.4,2.7,2.7,0,0,1-.49,1.61,3.57,3.57,0,0,1-1.16,1c.37.49.73,1,1.08,1.4a8.32,8.32,0,0,1,.84,1.19,1.44,1.44,0,0,1-.55.81,1.56,1.56,0,0,1-.91.29,2,2,0,0,1-.58-.08,1.44,1.44,0,0,1-.43-.21,2.13,2.13,0,0,1-.33-.34,3.58,3.58,0,0,1-.29-.43l-1.28-2Zm1-2a1.3,1.3,0,0,0,.91-.3,1.09,1.09,0,0,0,.34-.87,1.05,1.05,0,0,0-.37-.88,1.9,1.9,0,0,0-1.18-.3l-.37,0-.3,0v2.29Z"/><path class="cls-2" d="M197.77,29l-.61,0-.72-.06-.74-.11a4.07,4.07,0,0,1-.67-.19,1.15,1.15,0,0,1-.84-1.12V20.4a.67.67,0,0,1,.18-.5,1.11,1.11,0,0,1,.48-.28,6,6,0,0,1,1.29-.27c.52-.05,1.05-.08,1.6-.08a5.76,5.76,0,0,1,3,.65,2.23,2.23,0,0,1,1,2,1.84,1.84,0,0,1-.39,1.18,2.36,2.36,0,0,1-1.07.73,2.63,2.63,0,0,1,1.27.77,2,2,0,0,1,.51,1.42A2.45,2.45,0,0,1,201,28.28,5.86,5.86,0,0,1,197.77,29Zm-1-5.87h1.11a1.54,1.54,0,0,0,1-.24.92.92,0,0,0,.29-.72.78.78,0,0,0-.34-.66,1.8,1.8,0,0,0-1-.24l-.52,0a4.13,4.13,0,0,0-.47,0Zm0,3.72a2.48,2.48,0,0,0,.55.08c.22,0,.44,0,.64,0a1.85,1.85,0,0,0,1-.25.85.85,0,0,0,.41-.78.79.79,0,0,0-.34-.72,1.94,1.94,0,0,0-1-.21h-1.25Z"/><path class="cls-2" d="M202.56,24.13a5.5,5.5,0,0,1,.37-2.1,4.37,4.37,0,0,1,1-1.53,4.14,4.14,0,0,1,1.53-.94,5.28,5.28,0,0,1,1.89-.32,5.34,5.34,0,0,1,1.9.32,4.31,4.31,0,0,1,1.53.94,4.26,4.26,0,0,1,1,1.53,5.5,5.5,0,0,1,.37,2.1,5.76,5.76,0,0,1-.36,2.11,4.19,4.19,0,0,1-1,1.54,4.42,4.42,0,0,1-1.53.94,5.69,5.69,0,0,1-1.92.32,5.45,5.45,0,0,1-1.92-.33,4.4,4.4,0,0,1-1.52-.95,4.48,4.48,0,0,1-1-1.54A5.69,5.69,0,0,1,202.56,24.13Zm2.74,0a3.24,3.24,0,0,0,.56,2.07,1.86,1.86,0,0,0,1.51.69,1.88,1.88,0,0,0,1.53-.69,3.24,3.24,0,0,0,.56-2.07,3.18,3.18,0,0,0-.56-2.06,2,2,0,0,0-3,0A3.15,3.15,0,0,0,205.3,24.13Z"/><path class="cls-2" d="M221.48,28.44a1.31,1.31,0,0,1-.61.33,3.68,3.68,0,0,1-2-.05,1.47,1.47,0,0,1-.82-.81l-1.51-3.08c-.15-.31-.29-.61-.41-.89s-.25-.6-.4-1l-.09,0c0,.55.07,1.1.07,1.67s0,1.13,0,1.68V28.7a4.17,4.17,0,0,1-.51.09,5.31,5.31,0,0,1-.68.05,3.42,3.42,0,0,1-.59-.05.89.89,0,0,1-.43-.18.92.92,0,0,1-.26-.37,1.81,1.81,0,0,1-.09-.62V20a1.28,1.28,0,0,1,.65-.46,3,3,0,0,1,.95-.15,3.21,3.21,0,0,1,1.07.18,1.45,1.45,0,0,1,.82.8l1.52,3.07c.15.32.29.62.41.9s.26.6.4,1H219c0-.55-.07-1.1-.08-1.65s0-1.09,0-1.64V19.53l.51-.09a5.31,5.31,0,0,1,.68-.05,1.79,1.79,0,0,1,1,.24c.24.15.35.48.35,1Z"/><path class="cls-2" d="M222.4,24.13a5.5,5.5,0,0,1,.37-2.1,4.37,4.37,0,0,1,1-1.53,4.22,4.22,0,0,1,1.53-.94,5.77,5.77,0,0,1,3.79,0,4.14,4.14,0,0,1,1.53.94,4.26,4.26,0,0,1,1,1.53,5.5,5.5,0,0,1,.38,2.1,5.76,5.76,0,0,1-.37,2.11,4.17,4.17,0,0,1-1,1.54,4.61,4.61,0,0,1-1.53.94,5.7,5.7,0,0,1-1.93.32,5.45,5.45,0,0,1-1.92-.33,4.24,4.24,0,0,1-2.53-2.49A5.69,5.69,0,0,1,222.4,24.13Zm2.74,0a3.18,3.18,0,0,0,.57,2.07,1.82,1.82,0,0,0,1.5.69,1.87,1.87,0,0,0,1.53-.69,3.24,3.24,0,0,0,.56-2.07,3.25,3.25,0,0,0-.55-2.06,2,2,0,0,0-3,0A3.15,3.15,0,0,0,225.14,24.13Z"/><path class="cls-2" d="M177.83,41.77a1.5,1.5,0,0,1-.7.37,3.88,3.88,0,0,1-1.09.13,3.7,3.7,0,0,1-1.21-.19,1.66,1.66,0,0,1-.92-.91l-1.71-3.48c-.17-.35-.33-.69-.46-1s-.29-.68-.45-1.1l-.1,0c0,.62.07,1.25.07,1.89s0,1.28,0,1.9v2.66a4.32,4.32,0,0,1-.58.11,6.47,6.47,0,0,1-.76,0,4.36,4.36,0,0,1-.67,0,1.06,1.06,0,0,1-.48-.21,1,1,0,0,1-.3-.42,2,2,0,0,1-.1-.7v-8.6a1.42,1.42,0,0,1,.74-.52,3.12,3.12,0,0,1,1.07-.17,3.74,3.74,0,0,1,1.21.19,1.67,1.67,0,0,1,.92.91L174,36.13c.17.35.33.69.47,1s.28.68.45,1.1l.08,0c0-.62-.07-1.24-.08-1.86s0-1.24,0-1.86V31.7a4.84,4.84,0,0,1,.57-.1,5.06,5.06,0,0,1,.77-.05,2.1,2.1,0,0,1,1.15.26,1.25,1.25,0,0,1,.4,1.11Z"/><path class="cls-2" d="M179,33.3a1.49,1.49,0,0,1,1.61-1.6h5.68a2,2,0,0,1,.21.5,2.38,2.38,0,0,1,.1.65,1.25,1.25,0,0,1-.29.93,1,1,0,0,1-.75.28H182v1.6h3.87a2,2,0,0,1,.22.49,2.27,2.27,0,0,1,.09.65,1.32,1.32,0,0,1-.27.93,1,1,0,0,1-.74.27H182v1.81h4.42a2,2,0,0,1,.22.5,2.32,2.32,0,0,1,.09.65,1.29,1.29,0,0,1-.28.94,1,1,0,0,1-.75.28h-5a1.49,1.49,0,0,1-1.61-1.6Z"/><path class="cls-2" d="M196.68,38.28a4.39,4.39,0,0,1-.32,1.69,3.58,3.58,0,0,1-.92,1.31,4.27,4.27,0,0,1-1.46.84,6.24,6.24,0,0,1-1.95.29,6.13,6.13,0,0,1-1.94-.29,4.22,4.22,0,0,1-1.47-.84A3.58,3.58,0,0,1,187.7,40a4.39,4.39,0,0,1-.32-1.69V31.7l.61-.09a5.35,5.35,0,0,1,.79-.06,3.54,3.54,0,0,1,.69.06,1.31,1.31,0,0,1,.51.21,1,1,0,0,1,.31.43,2.12,2.12,0,0,1,.11.73v5.25a1.78,1.78,0,0,0,.45,1.29,1.76,1.76,0,0,0,2.37,0,1.78,1.78,0,0,0,.45-1.29V31.7l.6-.09a5.46,5.46,0,0,1,.79-.06,3.65,3.65,0,0,1,.7.06,1.31,1.31,0,0,1,.51.21,1,1,0,0,1,.3.43,2.12,2.12,0,0,1,.11.73Z"/><path class="cls-2" d="M197.35,34.11a1.89,1.89,0,0,1-.22-.51,2.26,2.26,0,0,1-.11-.69,1.33,1.33,0,0,1,.3-1,1.11,1.11,0,0,1,.79-.29h7.5a2.35,2.35,0,0,1,.23.52,2.48,2.48,0,0,1,.1.68,1.33,1.33,0,0,1-.3,1,1.1,1.1,0,0,1-.79.29h-1.91v8a4.22,4.22,0,0,1-.59.11,7.31,7.31,0,0,1-.8,0,3.58,3.58,0,0,1-.7-.06,1.18,1.18,0,0,1-.51-.22.94.94,0,0,1-.31-.43,2.3,2.3,0,0,1-.1-.72V34.11Z"/><path class="cls-2" d="M209.36,38.76v3.3a4.22,4.22,0,0,1-.59.11,7.31,7.31,0,0,1-.8,0,3.65,3.65,0,0,1-.7-.06,1.14,1.14,0,0,1-.5-.22.93.93,0,0,1-.3-.43,2,2,0,0,1-.1-.72V32.68a.74.74,0,0,1,.2-.56,1.4,1.4,0,0,1,.54-.31,6.67,6.67,0,0,1,1.36-.31,14.41,14.41,0,0,1,1.65-.09,5.46,5.46,0,0,1,3.58,1,3.29,3.29,0,0,1,1.21,2.7,3,3,0,0,1-.55,1.82,4.06,4.06,0,0,1-1.31,1.18c.41.56.82,1.09,1.22,1.58a10.33,10.33,0,0,1,.95,1.34,1.67,1.67,0,0,1-.63.92,1.79,1.79,0,0,1-1,.32,2.08,2.08,0,0,1-.65-.09,1.35,1.35,0,0,1-.48-.24,1.71,1.71,0,0,1-.38-.38,3.66,3.66,0,0,1-.33-.48l-1.44-2.32Zm1.09-2.29a1.47,1.47,0,0,0,1-.34,1.25,1.25,0,0,0,.38-1,1.21,1.21,0,0,0-.42-1,2.18,2.18,0,0,0-1.34-.33l-.41,0-.34,0v2.58Z"/><path class="cls-2" d="M218.18,32a4.11,4.11,0,0,1,.88-.33,4.93,4.93,0,0,1,1.2-.15,4.21,4.21,0,0,1,1.52.25,1.35,1.35,0,0,1,.86.78c.2.6.43,1.29.67,2.09s.48,1.61.72,2.45.48,1.67.71,2.49.43,1.55.6,2.18a1.5,1.5,0,0,1-.62.39,2.88,2.88,0,0,1-1,.15,3.36,3.36,0,0,1-.7-.07,1.31,1.31,0,0,1-.46-.21,1,1,0,0,1-.3-.36,3.78,3.78,0,0,1-.2-.52L221.77,40h-3.11c-.09.35-.18.7-.28,1.07s-.18.72-.27,1.07a3.8,3.8,0,0,1-.51.14,2.41,2.41,0,0,1-.64.07,2.24,2.24,0,0,1-1.3-.31,1,1,0,0,1-.43-.83,2,2,0,0,1,.07-.48c0-.16.1-.35.16-.57s.19-.7.33-1.15.3-1,.48-1.49.35-1.08.55-1.65.38-1.09.55-1.59.33-.94.47-1.33S218.1,32.22,218.18,32Zm2.06,2.22-.54,1.61q-.3.88-.54,1.8h2.13c-.16-.62-.32-1.22-.49-1.82s-.32-1.12-.45-1.59Z"/><path class="cls-2" d="M227.32,42.18a1.48,1.48,0,0,1-1.6-1.6v-8.9l.6-.09a5.46,5.46,0,0,1,.79-.06,3.65,3.65,0,0,1,.7.06,1.18,1.18,0,0,1,.51.22.94.94,0,0,1,.31.43,2.3,2.3,0,0,1,.1.72v6.8h3.94a1.76,1.76,0,0,1,.22.51,2.08,2.08,0,0,1,.11.66,1.34,1.34,0,0,1-.29,1,1.08,1.08,0,0,1-.78.28Z"/><path class="cls-2" d="M254.31,56.36H0V0H254.31ZM.41,56h253.5V.41H.41Z"/><rect class="cls-2" x="111.11" y="0.2" width="0.41" height="55.95"/><path class="cls-2" d="M22.57,33.69H19.94v4.2H18.22v-12h3.87a8.35,8.35,0,0,1,1.62.14,4.12,4.12,0,0,1,1.3.52,2.39,2.39,0,0,1,1,1.15,5,5,0,0,1,.33,2,5.22,5.22,0,0,1-.24,1.63,3.39,3.39,0,0,1-.61,1.17,3.68,3.68,0,0,1-1.87,1.17A4.29,4.29,0,0,1,22.57,33.69Zm-.8-6.37H19.94v4.89h2.31c1.55,0,2.33-.84,2.33-2.54A2.27,2.27,0,0,0,24,27.85,3.47,3.47,0,0,0,21.77,27.32Z"/><path class="cls-2" d="M36.74,37.89H34.88l-2.56-4.73H29.79v4.73H28.07v-12H32a5.08,5.08,0,0,1,3.09.81,3.21,3.21,0,0,1,1.08,2.75,3.54,3.54,0,0,1-.58,2A3.69,3.69,0,0,1,34,32.75ZM32,27.22H29.79v4.39h2.6a2,2,0,0,0,2-2.21,2.06,2.06,0,0,0-.63-1.61A2.68,2.68,0,0,0,32,27.22Z"/><path class="cls-2" d="M48,36.42a6.21,6.21,0,0,1-8.56,0,6.29,6.29,0,0,1-1.66-4.55,6.31,6.31,0,0,1,1.66-4.56,6.21,6.21,0,0,1,8.56,0,6.27,6.27,0,0,1,1.66,4.56A6.25,6.25,0,0,1,48,36.42Zm-1.21-8a4.19,4.19,0,0,0-6.14,0,5.35,5.35,0,0,0-1.08,3.45,5.32,5.32,0,0,0,1.08,3.44,4.19,4.19,0,0,0,6.14,0,5.32,5.32,0,0,0,1.08-3.44A5.35,5.35,0,0,0,46.75,28.42Z"/><path class="cls-2" d="M57,38.13a5.83,5.83,0,0,1-4.35-1.72A6.2,6.2,0,0,1,51,31.87a6.25,6.25,0,0,1,1.69-4.55A5.83,5.83,0,0,1,57,25.6a7.68,7.68,0,0,1,3.34.71l-.17,1.51-.47-.16-.52-.18a3.81,3.81,0,0,0-.47-.15l-.56-.14-.54-.07a4.35,4.35,0,0,0-.61,0,3.83,3.83,0,0,0-3.13,1.35,5.24,5.24,0,0,0-1.11,3.44,5.22,5.22,0,0,0,1.12,3.43A3.87,3.87,0,0,0,57,36.65h.5l.5-.07.43-.09a3.14,3.14,0,0,0,.47-.14l.39-.12.45-.15.4-.14.17,1.51A8,8,0,0,1,57,38.13Z"/><path class="cls-2" d="M69.78,37.89H62.27v-12h7.35v1.48H63.91v3.53h4.54v1.48H63.91v4.08h5.87Z"/><path class="cls-2" d="M75.25,38.13a8.48,8.48,0,0,1-3.94-.77l.22-1.91a6.18,6.18,0,0,0,3.76,1.2,4.2,4.2,0,0,0,2-.45,1.51,1.51,0,0,0,.82-1.41,1.64,1.64,0,0,0-.22-.86,2,2,0,0,0-.71-.66,5.42,5.42,0,0,0-1-.45L75,32.38,73.84,32a9.85,9.85,0,0,1-1-.43,3.65,3.65,0,0,1-.93-.59,3.22,3.22,0,0,1-.53-.78,2.38,2.38,0,0,1-.24-1.08,3.21,3.21,0,0,1,.22-1.18,4,4,0,0,1,.7-1.11,3.32,3.32,0,0,1,1.36-.86,5.9,5.9,0,0,1,2.06-.33,9.13,9.13,0,0,1,2.14.25,6.49,6.49,0,0,1,1.64.58l-.17,1.74a8.29,8.29,0,0,0-3.46-1.09,3.82,3.82,0,0,0-1.88.45,1.44,1.44,0,0,0-.82,1.33,1.34,1.34,0,0,0,.64,1.19,8.49,8.49,0,0,0,2,.84l.72.23.68.23c.36.12.6.21.72.26l.59.31a2.22,2.22,0,0,1,.6.38l.43.44a1.8,1.8,0,0,1,.41.57q.1.28.21.66a3.47,3.47,0,0,1,.09.81,3.8,3.8,0,0,1-.09.84,2.89,2.89,0,0,1-1.15,1.7,4.08,4.08,0,0,1-1.38.58A8.06,8.06,0,0,1,75.25,38.13Z"/><path class="cls-2" d="M91.37,36.42a6.2,6.2,0,0,1-8.55,0,6.25,6.25,0,0,1-1.66-4.55,6.27,6.27,0,0,1,1.66-4.56,6.2,6.2,0,0,1,8.55,0A6.27,6.27,0,0,1,93,31.87,6.25,6.25,0,0,1,91.37,36.42Zm-1.2-8a4.2,4.2,0,0,0-6.15,0A5.35,5.35,0,0,0,83,31.87,5.32,5.32,0,0,0,84,35.31a4.2,4.2,0,0,0,6.15,0,5.37,5.37,0,0,0,1.07-3.44A5.4,5.4,0,0,0,90.17,28.42Z"/><path class="cls-2" d="M22.49,22.53H18.22V15.69H22.4v.84H19.15v2h2.59v.84H19.15v2.32h3.34Z"/><path class="cls-2" d="M29,22.53h-.79l-3.6-5.41v5.41h-.93V15.69h1.05L28,20.76V15.69H29Z"/></g></g></svg>