<svg xmlns="http://www.w3.org/2000/svg" viewBox="0 0 87.99 41.11"><defs><style>.cls-1,.cls-2{fill:#fff;}.cls-2{fill-rule:evenodd;}</style></defs><g id="Capa_2" data-name="Capa 2"><g id="Capa_1-2" data-name="Capa 1"><path class="cls-1" d="M32.45,11.55a.55.55,0,0,0-.5-.32l-.13,0a.56.56,0,0,0-.41.66.76.76,0,0,0,.06.16c-.37.12-.68.11-.76,0s.17-.5.6-.78c0-.09.06-.22.2-.29s.3-.08.35,0c.47-.18.86-.21,1,0s-.08.39-.37.62"/><path class="cls-1" d="M32.45,11.55a.55.55,0,0,0-.5-.32l-.13,0a.56.56,0,0,0-.41.66.76.76,0,0,0,.06.16c-.37.12-.68.11-.76,0s.17-.5.6-.78c0-.09.06-.22.2-.29s.3-.08.35,0c.47-.18.86-.21,1,0s-.08.39-.37.62"/><path class="cls-1" d="M32.06,12.28a.51.51,0,0,1-.54-.22.77.77,0,0,1-.07-.16.51.51,0,0,1,1-.32l0,.09a.51.51,0,0,1-.38.61"/><path class="cls-1" d="M32.06,12.28a.51.51,0,0,1-.54-.22.77.77,0,0,1-.07-.16.51.51,0,0,1,1-.32l0,.09a.51.51,0,0,1-.38.61"/><path class="cls-1" d="M32.12,16.27l-.07,0a.28.28,0,0,1-.06-.18v-.19h0l.07,0,0,.06a1.06,1.06,0,0,1,0,.26"/><path class="cls-1" d="M32.12,16.27l-.07,0a.28.28,0,0,1-.06-.18v-.19h0l.07,0,0,.06a1.06,1.06,0,0,1,0,.26"/><path class="cls-1" d="M33.12,13.71a2.19,2.19,0,0,1,0,.36.18.18,0,0,1-.13.15h-.08a.18.18,0,0,1-.14-.21,1.62,1.62,0,0,0,0-.3,1.24,1.24,0,0,0-.22-.73v1.77a.67.67,0,0,1-.29-.08c0-.05-.22-.18-.24-.2h0v-.17h-.11v.07l0,0c0-.08-.14-.12-.16-.13a.15.15,0,0,0-.09,0s-.07,0-.09.09l-.05,0a.23.23,0,0,0,0,.18.23.23,0,0,0,0,.14.24.24,0,0,0,0,.12.09.09,0,0,0,0,.08.18.18,0,0,0,.1.09.24.24,0,0,0,.09.18.78.78,0,0,0,.1.64.43.43,0,0,0,.15.17v.24a.28.28,0,0,1-.56,0V12.86h0a.87.87,0,0,0-.22.68,3.06,3.06,0,0,0,.11.75.18.18,0,0,1-.13.22h0a.18.18,0,0,1-.18-.14,3.19,3.19,0,0,1-.12-.84,1.27,1.27,0,0,1,.32-.94.7.7,0,0,1,.37-.2h.94l.07,0h0a1.41,1.41,0,0,1,.33.3,1.47,1.47,0,0,1,.32,1"/><path class="cls-1" d="M33.12,13.71a2.19,2.19,0,0,1,0,.36.18.18,0,0,1-.13.15h-.08a.18.18,0,0,1-.14-.21,1.62,1.62,0,0,0,0-.3,1.24,1.24,0,0,0-.22-.73v1.77a.67.67,0,0,1-.29-.08c0-.05-.22-.18-.24-.2h0v-.17h-.11v.07l0,0c0-.08-.14-.12-.16-.13a.15.15,0,0,0-.09,0s-.07,0-.09.09l-.05,0a.23.23,0,0,0,0,.18.23.23,0,0,0,0,.14.24.24,0,0,0,0,.12.09.09,0,0,0,0,.08.18.18,0,0,0,.1.09.24.24,0,0,0,.09.18.78.78,0,0,0,.1.64.43.43,0,0,0,.15.17v.24a.28.28,0,0,1-.56,0V12.86h0a.87.87,0,0,0-.22.68,3.06,3.06,0,0,0,.11.75.18.18,0,0,1-.13.22h0a.18.18,0,0,1-.18-.14,3.19,3.19,0,0,1-.12-.84,1.27,1.27,0,0,1,.32-.94.7.7,0,0,1,.37-.2h.94l.07,0h0a1.41,1.41,0,0,1,.33.3,1.47,1.47,0,0,1,.32,1"/><path class="cls-1" d="M32.54,16.06v.06a.3.3,0,0,1,0,.16h0s0,0,0,0l-.17,0a.39.39,0,0,1,0-.22h0a.13.13,0,0,0,.13-.08h0l0,.06"/><path class="cls-1" d="M32.54,16.06v.06a.3.3,0,0,1,0,.16h0s0,0,0,0l-.17,0a.39.39,0,0,1,0-.22h0a.13.13,0,0,0,.13-.08h0l0,.06"/><path class="cls-1" d="M33.52,14.33s0,0-.08,0h0s0,0,0,0l0,0a.1.1,0,0,1,0,.07.19.19,0,0,1-.09,0h0a.66.66,0,0,0,0,.4.59.59,0,0,1-.25.73.72.72,0,0,1-.38.15h0l-.1.17h0a.87.87,0,0,0,.15.25h.09l.08,0,0,0h0v0h0c.11,0,.15,0,.16,0h0l0,.06h0a.09.09,0,0,1-.07,0h0l-.17,0h-.05v0s0,0,0,0h-.05a.3.3,0,0,1-.1-.09h0a.15.15,0,0,1-.08,0h-.05s.05,0,.11,0h0a.42.42,0,0,0-.12-.27l-.07,0h0a.12.12,0,0,1-.11.07h-.07a.48.48,0,0,0,0,.26h0a.69.69,0,0,1,.28.09h0a.9.9,0,0,1-.24-.05v0s.06.05,0,.09l0,0s0-.06,0-.06h0s-.08-.05-.08-.07v0l0,0s-.13,0-.15,0h0s0,0,.13-.08h0a.9.9,0,0,0,0-.28h0l0-.06h0l-.07,0a.35.35,0,0,1-.26-.2.77.77,0,0,1-.09-.63h0s-.11-.09-.09-.17h0a.15.15,0,0,1-.09-.08.08.08,0,0,1,0-.06h0a.44.44,0,0,1,0-.09h0a.21.21,0,0,1,0-.14h0a.25.25,0,0,1,0-.17l0,0h0c0-.07,0-.07.06-.07a.1.1,0,0,1,.08,0h0a.3.3,0,0,1,.15.12h0a.47.47,0,0,0,.18.16,1.92,1.92,0,0,1,.23.19h0a.65.65,0,0,0,.32.09.38.38,0,0,0,.26-.08.39.39,0,0,0,.12-.25.38.38,0,0,1,.17-.23h0v0h0v0h0s0,0,0,0h0l0,0,0,0h0s0,0,0,0h0a.09.09,0,0,1,0,.07v0h0s.07.05.07.06"/><path class="cls-1" d="M33.52,14.33s0,0-.08,0h0s0,0,0,0l0,0a.1.1,0,0,1,0,.07.19.19,0,0,1-.09,0h0a.66.66,0,0,0,0,.4.59.59,0,0,1-.25.73.72.72,0,0,1-.38.15h0l-.1.17h0a.87.87,0,0,0,.15.25h.09l.08,0,0,0h0v0h0c.11,0,.15,0,.16,0h0l0,.06h0a.09.09,0,0,1-.07,0h0l-.17,0h-.05v0s0,0,0,0h-.05a.3.3,0,0,1-.1-.09h0a.15.15,0,0,1-.08,0h-.05s.05,0,.11,0h0a.42.42,0,0,0-.12-.27l-.07,0h0a.12.12,0,0,1-.11.07h-.07a.48.48,0,0,0,0,.26h0a.69.69,0,0,1,.28.09h0a.9.9,0,0,1-.24-.05v0s.06.05,0,.09l0,0s0-.06,0-.06h0s-.08-.05-.08-.07v0l0,0s-.13,0-.15,0h0s0,0,.13-.08h0a.9.9,0,0,0,0-.28h0l0-.06h0l-.07,0a.35.35,0,0,1-.26-.2.77.77,0,0,1-.09-.63h0s-.11-.09-.09-.17h0a.15.15,0,0,1-.09-.08.08.08,0,0,1,0-.06h0a.44.44,0,0,1,0-.09h0a.21.21,0,0,1,0-.14h0a.25.25,0,0,1,0-.17l0,0h0c0-.07,0-.07.06-.07a.1.1,0,0,1,.08,0h0a.3.3,0,0,1,.15.12h0a.47.47,0,0,0,.18.16,1.92,1.92,0,0,1,.23.19h0a.65.65,0,0,0,.32.09.38.38,0,0,0,.26-.08.39.39,0,0,0,.12-.25.38.38,0,0,1,.17-.23h0v0h0v0h0s0,0,0,0h0l0,0,0,0h0s0,0,0,0h0a.09.09,0,0,1,0,.07v0h0s.07.05.07.06"/><path class="cls-1" d="M56.57,17.62a.28.28,0,0,1-.26.29.28.28,0,0,1-.28-.27L56,15.85h-.1l.06,1.79a.27.27,0,0,1-.54,0l0-1.22a.42.42,0,0,0,.11-.13.85.85,0,0,0,.1-.18.41.41,0,0,1,.23-.28l.08,0,.06,0,0,0,0,0,0,0,0,0-.07,0a1.46,1.46,0,0,0-.39,0l-.15,0h0l0-.38s0,0,0,0v-.11h0l.51.27.11.06.53.28h0Z"/><path class="cls-1" d="M56.57,17.62a.28.28,0,0,1-.26.29.28.28,0,0,1-.28-.27L56,15.85h-.1l.06,1.79a.27.27,0,0,1-.54,0l0-1.22a.42.42,0,0,0,.11-.13.85.85,0,0,0,.1-.18.41.41,0,0,1,.23-.28l.08,0,.06,0,0,0,0,0,0,0,0,0-.07,0a1.46,1.46,0,0,0-.39,0l-.15,0h0l0-.38s0,0,0,0v-.11h0l.51.27.11.06.53.28h0Z"/><path class="cls-1" d="M54.68,14.81a1.33,1.33,0,0,1-.63-.22.21.21,0,0,1-.09-.15Z"/><path class="cls-1" d="M54.68,14.81a1.33,1.33,0,0,1-.63-.22.21.21,0,0,1-.09-.15Z"/><path class="cls-1" d="M56.78,13c0,.15-.16.28-.43.36a.5.5,0,0,0-.09-.23.54.54,0,0,0-.34-.23H55.8a.52.52,0,0,0-.5.44.17.17,0,0,0,0,.07c-.28-.06-.46-.18-.46-.32s.29-.36.71-.42c0-.1.11-.18.24-.19s.26.07.27.17c.41,0,.73.18.73.36"/><path class="cls-1" d="M56.78,13c0,.15-.16.28-.43.36a.5.5,0,0,0-.09-.23.54.54,0,0,0-.34-.23H55.8a.52.52,0,0,0-.5.44.17.17,0,0,0,0,.07c-.28-.06-.46-.18-.46-.32s.29-.36.71-.42c0-.1.11-.18.24-.19s.26.07.27.17c.41,0,.73.18.73.36"/><path class="cls-1" d="M56.31,13.48a.49.49,0,0,1-.58.39.48.48,0,0,1-.4-.51v-.07a.49.49,0,0,1,.58-.39.49.49,0,0,1,.4.43.38.38,0,0,1,0,.15"/><path class="cls-1" d="M56.31,13.48a.49.49,0,0,1-.58.39.48.48,0,0,1-.4-.51v-.07a.49.49,0,0,1,.58-.39.49.49,0,0,1,.4.43.38.38,0,0,1,0,.15"/><path class="cls-1" d="M55.92,15.75l-.05,0-.16.09c-.2.14-.15.25-.28.43l-.08.1c-.2.17-.6.35-.72.11a1.83,1.83,0,0,0-.14.28l-.06.22a2.62,2.62,0,0,0-.06.43.8.8,0,0,1,.7.45L53.6,18s.29-.47.66-.51a2.32,2.32,0,0,1,.14-.65,1.69,1.69,0,0,0-.16-.48c-.16.28-.67-.06-.79-.26s0-.35-.45-.59c.24-.09,1.28,0,1.29.62a.59.59,0,0,1,0,.14,1.55,1.55,0,0,1,.19.43,1.38,1.38,0,0,1,.14-.24.65.65,0,0,1,0-.14c0-.36.38-.52.72-.56h0a1.53,1.53,0,0,1,.54,0l.05,0"/><path class="cls-1" d="M55.92,15.75l-.05,0-.16.09c-.2.14-.15.25-.28.43l-.08.1c-.2.17-.6.35-.72.11a1.83,1.83,0,0,0-.14.28l-.06.22a2.62,2.62,0,0,0-.06.43.8.8,0,0,1,.7.45L53.6,18s.29-.47.66-.51a2.32,2.32,0,0,1,.14-.65,1.69,1.69,0,0,0-.16-.48c-.16.28-.67-.06-.79-.26s0-.35-.45-.59c.24-.09,1.28,0,1.29.62a.59.59,0,0,1,0,.14,1.55,1.55,0,0,1,.19.43,1.38,1.38,0,0,1,.14-.24.65.65,0,0,1,0-.14c0-.36.38-.52.72-.56h0a1.53,1.53,0,0,1,.54,0l.05,0"/><path class="cls-1" d="M56.62,15.61l0,.17-.09,0h0L56,15.44l-.1,0-.49-.26-.06,0-.55-.29L54,14.4l-.66-.35-.61,1-.05,0,.55-1-.06,0,.13-.24.06,0,0-.05.12.07,0,.05,1.07.6.55.32.22.12.29.16.22.13.15.08.54.31Z"/><path class="cls-1" d="M56.62,15.61l0,.17-.09,0h0L56,15.44l-.1,0-.49-.26-.06,0-.55-.29L54,14.4l-.66-.35-.61,1-.05,0,.55-1-.06,0,.13-.24.06,0,0-.05.12.07,0,.05,1.07.6.55.32.22.12.29.16.22.13.15.08.54.31Z"/><path class="cls-1" d="M57.23,16l-.07.13L57,16a.07.07,0,0,0,0-.05l0-.11Z"/><path class="cls-1" d="M57.23,16l-.07.13L57,16a.07.07,0,0,0,0-.05l0-.11Z"/><path class="cls-1" d="M57,15.29a4.19,4.19,0,0,1,0,.47v.05l0,.12a0,0,0,0,1,0,0,.05.05,0,0,1,0,0,.17.17,0,0,1-.13.07h0a.19.19,0,0,1-.13-.21V15.8l0-.17s0,0,0-.05l0-.27v-.2a.87.87,0,0,0-.24-.65h0l0,.81v.22l-.54-.3-.67-.37v-.19a.51.51,0,0,1-.16.09l-.47-.26h.09a.63.63,0,0,0,.4-.16l.1-.12,0,0h0a.16.16,0,0,1,.09-.07l.07,0,.85,0h.06a.66.66,0,0,1,.37.19,1.2,1.2,0,0,1,.35.9v.19"/><path class="cls-1" d="M57,15.29a4.19,4.19,0,0,1,0,.47v.05l0,.12a0,0,0,0,1,0,0,.05.05,0,0,1,0,0,.17.17,0,0,1-.13.07h0a.19.19,0,0,1-.13-.21V15.8l0-.17s0,0,0-.05l0-.27v-.2a.87.87,0,0,0-.24-.65h0l0,.81v.22l-.54-.3-.67-.37v-.19a.51.51,0,0,1-.16.09l-.47-.26h.09a.63.63,0,0,0,.4-.16l.1-.12,0,0h0a.16.16,0,0,1,.09-.07l.07,0,.85,0h.06a.66.66,0,0,1,.37.19,1.2,1.2,0,0,1,.35.9v.19"/><path class="cls-1" d="M53.2,4.49c0,.12-.15.22-.37.28a.48.48,0,0,0-.07-.2.4.4,0,0,0-.27-.19l-.1,0a.45.45,0,0,0-.43.35.13.13,0,0,0,0,.06c-.22-.06-.37-.16-.37-.28s.26-.28.6-.32c0-.08.1-.15.21-.15a.2.2,0,0,1,.21.15c.34,0,.6.17.6.32"/><path class="cls-1" d="M53.2,4.49c0,.12-.15.22-.37.28a.48.48,0,0,0-.07-.2.4.4,0,0,0-.27-.19l-.1,0a.45.45,0,0,0-.43.35.13.13,0,0,0,0,.06c-.22-.06-.37-.16-.37-.28s.26-.28.6-.32c0-.08.1-.15.21-.15a.2.2,0,0,1,.21.15c.34,0,.6.17.6.32"/><path class="cls-1" d="M52.78,4.9A.4.4,0,0,1,52,4.78V4.72a.42.42,0,0,1,.49-.31.39.39,0,0,1,.31.37.25.25,0,0,1,0,.12"/><path class="cls-1" d="M52.78,4.9A.4.4,0,0,1,52,4.78V4.72a.42.42,0,0,1,.49-.31.39.39,0,0,1,.31.37.25.25,0,0,1,0,.12"/><path class="cls-1" d="M53.42,6.82l0,0a.09.09,0,0,1-.13,0h0c0-.07.06-.13.08-.19l.06.05a.09.09,0,0,1,0,.13"/><path class="cls-1" d="M53.42,6.82l0,0a.09.09,0,0,1-.13,0h0c0-.07.06-.13.08-.19l.06.05a.09.09,0,0,1,0,.13"/><path class="cls-1" d="M53.39,6.21a1,1,0,0,1-.06.37v0a1.67,1.67,0,0,1-.08.2h0l0,0a.15.15,0,0,1-.11,0h-.06a.16.16,0,0,1-.07-.2l0,0v0a1.11,1.11,0,0,0,.07-.22v0a.77.77,0,0,0,0-.15A.66.66,0,0,0,53.05,6a.72.72,0,0,0-.14-.19l0,0V6h-.05a.09.09,0,0,0-.08,0,.1.1,0,0,0,0,.11l-.63-.54-.2-.17,0,0,.07,0h.88a1.07,1.07,0,0,1,.29.2,1,1,0,0,1,.25.4,1.09,1.09,0,0,1,0,.26"/><path class="cls-1" d="M53.39,6.21a1,1,0,0,1-.06.37v0a1.67,1.67,0,0,1-.08.2h0l0,0a.15.15,0,0,1-.11,0h-.06a.16.16,0,0,1-.07-.2l0,0v0a1.11,1.11,0,0,0,.07-.22v0a.77.77,0,0,0,0-.15A.66.66,0,0,0,53.05,6a.72.72,0,0,0-.14-.19l0,0V6h-.05a.09.09,0,0,0-.08,0,.1.1,0,0,0,0,.11l-.63-.54-.2-.17,0,0,.07,0h.88a1.07,1.07,0,0,1,.29.2,1,1,0,0,1,.25.4,1.09,1.09,0,0,1,0,.26"/><path class="cls-1" d="M51.39,6.65a2.8,2.8,0,0,1-.19,1.43s-.09.26-.22.14a1,1,0,0,1-.29-.54A4.62,4.62,0,0,1,50.6,7c0-.15,0-.3,0-.3l0,.09s0-.21,0-.31,0-.39,0-.45.09.13.1.06.22-.54.24-.63-.1-.27-.21-.49-.17-.31-.13-.33.3.29.38.33.25-.19.31-.24.1,0,.1,0-.27.57-.3.66.14.4.19.71a.56.56,0,0,0,0,.19s.07-.09.11-.09a2.41,2.41,0,0,1-.06.46"/><path class="cls-1" d="M50.94,5.46a.45.45,0,0,1,0,.08l-.07,0,0,0h0s0,0-.06-.05,0,0,0,0a.13.13,0,0,1,0-.06s0,0,0,0h0l0,0a.11.11,0,0,1,.08,0,.5.5,0,0,1,.09.25"/><path class="cls-1" d="M52.88,6.54v1.8a.22.22,0,0,1-.23.22.22.22,0,0,1-.22-.22V6.86h-.09V8.34a.22.22,0,0,1-.44,0V5.67a1.41,1.41,0,0,1-.33,0h-.13l-.2,0-.06,0a.34.34,0,0,1,0-.25l0-.06.12,0,.08,0a.5.5,0,0,0,.21,0h.11l.22.19.06.06.59.52.31.27a.15.15,0,0,0,0,.09"/><path class="cls-1" d="M50.58,4.57a4.86,4.86,0,0,0-.35,1.77,3.36,3.36,0,0,0,.69,2.1h0s0,0,0,0h0a.08.08,0,0,0,.08-.08s0,0,0,0a.1.1,0,0,1-.08.11.09.09,0,0,1-.09,0h0s0,0,0,0h0a3.42,3.42,0,0,1-.7-2.12,4.85,4.85,0,0,1,.42-1.93h0l0,0,.56.48,0,0-.51-.45-.06.14"/><path class="cls-1" d="M53.05,6.38a.86.86,0,0,1-.07.21l-.06,0a.11.11,0,0,1,0-.1l0,0-.29-.26L52,5.64l-.1-.08-.17-.16L51.3,5l0-.06.49.42.08.07.18.16.65.55.08.06h0c-.06-.06-.08-.13,0-.17a.11.11,0,0,1,.1,0l.09.06c.07.06.1.15.07.18s-.1,0-.16,0h0l0,0h0l0,0,.09.08a.08.08,0,0,1,.08,0"/><path class="cls-2" d="M55.06,21.71c-.06,0-.12,0-.18,0-.23-.19-.69-.05-1,0a.35.35,0,0,1-.28-.05.71.71,0,0,1-.14-.1h0a2.23,2.23,0,0,1-.24-.19,3.78,3.78,0,0,1-.41-.39c-.05-.05-.31-.3-.24-.4s.24,0,.31,0a.25.25,0,0,1,.22.12l.2.17-.11,0c-.22.09,0,.3.1.31l.45,0,.25,0,.09,0a.11.11,0,0,0,.08,0c.07,0,.07,0,0-.06h0a1.4,1.4,0,0,0-.41,0h-.1a1,1,0,0,1-.43,0c-.11,0-.1-.14,0-.18l.09,0h.7l.18,0,0,0,.19,0a.57.57,0,0,1,.18,0,.62.62,0,0,1,.22.1,2.62,2.62,0,0,0,.48.34c.1,0-.27.38-.29.4"/><path class="cls-2" d="M55.7,20.78s-.21.49-.28.41a3.14,3.14,0,0,0-.48-.33.69.69,0,0,1-.17-.17.56.56,0,0,1-.09-.17.53.53,0,0,1,0-.18v-.05a1,1,0,0,0,0-.17c0-.05,0-.09,0-.13l-.09-.24,0-.08v-.05l0,0s0-.08,0-.12a.14.14,0,0,1,0-.09c0-.12.08-.16.17-.08a1.07,1.07,0,0,1,.18.39.42.42,0,0,0,0,.1,1.24,1.24,0,0,0,.19.36h0c0,.05.08,0,.06,0s0-.05,0-.08L54.92,20l-.11-.23-.18-.41c-.05-.13-.31-.23-.32,0a.35.35,0,0,0,0,.12l-.24-.13c-.08,0-.16-.07-.18-.17s-.2-.19-.14-.29.4.07.46.1a3,3,0,0,1,.51.25,2.26,2.26,0,0,1,.26.16h0a.71.71,0,0,1,.14.1.33.33,0,0,1,.14.24c0,.27.06.75.32.9.07,0,.12.08.1.15"/><path class="cls-2" d="M54.41,20.79a.55.55,0,0,0-.18,0h0a.66.66,0,0,0-.08-.45.32.32,0,0,0-.1-.1l0,0a.53.53,0,0,1,.09.46s-.48-.22-.5-.37a.14.14,0,0,1,0-.09.24.24,0,0,0,0,.14c0,.13.27.31.44.43h-.52a.72.72,0,0,1-.14-.55.34.34,0,0,1-.15-.18H53l.16-.1-.22-.15h.3a.37.37,0,0,1,.33-.21.35.35,0,0,1,.35.35v0a1,1,0,0,1,.44.2.4.4,0,0,1,.09.54"/><path class="cls-1" d="M54.37,22.91s0,0,0,.06-.11.19-.73.33a11.23,11.23,0,0,1-2.17,0,8.05,8.05,0,0,1-1,.09c-.1,0,.27-.21.16-.23A5.13,5.13,0,0,1,49.8,23c-.25-.09-.41-.21-.68-.15a4.38,4.38,0,0,0-.41.26l-.61.35a1,1,0,0,1-.18.06s0-.05,0-.12a1.46,1.46,0,0,0,.52-.76c0-.37-.36-.8-.25-.79s.49.4.73.56.32.25.54.18.36-.16.61-.23.42-.09.53-.13-.1-.22,0-.22.64.09.7.12.21,0,.56-.05c.13,0,.06-.12.1-.14a.44.44,0,0,1,.22.05,2.69,2.69,0,0,0,.45.11,6,6,0,0,1,.81.14,2.07,2.07,0,0,1,1,.62c0,.09-.05.06-.09.09"/><path class="cls-1" d="M52.56,19.64l-.33-1.5a0,0,0,0,1,0,0h0a1,1,0,0,0,.52-.12,0,0,0,0,1,0,0,0,0,0,0,1,0,0l.33,1.5s0,0,0,0,0,0,0,0l-.32-.24-.17.34s0,0,0,0h0l0,0"/><path class="cls-1" d="M51.73,17.93A.8.8,0,0,0,52,18l0,0v0l-.82,1.29s0,0,0,0,0,0,0,0l0-.38-.37.11a0,0,0,0,1,0,0h0a0,0,0,0,1,0,0l.82-1.28,0,0h0a.86.86,0,0,0,.2.18"/><path class="cls-1" d="M51.6,16.58a.84.84,0,1,0,1.16-.25.84.84,0,0,0-1.16.25m-.12-.07a1,1,0,1,1,.3,1.35,1,1,0,0,1-.3-1.35"/><path class="cls-1" d="M52.65,16.5a.64.64,0,1,0,.19.88.62.62,0,0,0-.19-.88m0,.6L52.51,17a.31.31,0,0,0,0-.1.14.14,0,0,0-.05-.08.13.13,0,0,0-.07,0,.11.11,0,0,0-.08,0l-.07,0-.07.06,0,.06a.24.24,0,0,0,0,.08.12.12,0,0,0,0,.08s0,0,0,.06a.19.19,0,0,0,.1.05.12.12,0,0,0,.09,0l-.11-.1.1-.1.27.24-.06.05a.12.12,0,0,1-.05,0l-.06,0-.07,0a.32.32,0,0,1-.17,0,.42.42,0,0,1-.14-.09.34.34,0,0,1-.09-.12.23.23,0,0,1,0-.14.59.59,0,0,1,0-.13.38.38,0,0,1,.09-.13.28.28,0,0,1,.12-.1l.14,0a.35.35,0,0,1,.14,0,.38.38,0,0,1,.13.09.29.29,0,0,1,.11.16.31.31,0,0,1,0,.19"/><path class="cls-2" d="M36.42,11.57c-.06,0-.13,0-.19-.05-.24-.23-.76-.1-1.06,0a.36.36,0,0,1-.3-.07,4.87,4.87,0,0,1-.42-.35,4.67,4.67,0,0,1-.44-.45c0-.06-.33-.36-.24-.46s.26,0,.34,0a.3.3,0,0,1,.25.14,2,2,0,0,0,.21.2l-.13,0c-.25.09-.06.33.1.35a6.59,6.59,0,0,1,.76.1c.07,0,.12.05.19.05s.09-.05,0-.08a1.84,1.84,0,0,0-.57-.09,1.17,1.17,0,0,1-.46-.07c-.12-.06-.11-.16,0-.21h.72a1.33,1.33,0,0,0,.4,0,.81.81,0,0,1,.65.16,2.76,2.76,0,0,0,.51.39c.1.06-.32.41-.35.43"/><path class="cls-1" d="M35.45,10.08a.32.32,0,1,1-.64,0,2.78,2.78,0,0,1,.35-.68,2.62,2.62,0,0,1,.29.71"/><path class="cls-1" d="M36.39,5.1c-.07.13-.34.14-.68,0A.35.35,0,0,0,35.77,5a.5.5,0,0,0-.37-.6h-.12a.49.49,0,0,0-.44.28c-.27-.21-.41-.43-.34-.56s.44-.14.86,0c0-.07.19-.08.32,0a.27.27,0,0,1,.18.26c.39.25.62.55.53.71"/><path class="cls-1" d="M35.83,8.33v.49a.25.25,0,1,1-.5,0V8l.11.07v.19h0a.13.13,0,0,0,.12.11h.28Z"/><path class="cls-1" d="M35.23,7.9v.92a.26.26,0,0,1-.25.26.26.26,0,0,1-.25-.26V7.58Z"/><path class="cls-1" d="M35.73,5a.35.35,0,0,1-.06.14.45.45,0,0,1-.49.2.46.46,0,0,1-.34-.55l0-.08a.45.45,0,0,1,.52-.26.47.47,0,0,1,.34.55"/><path class="cls-1" d="M36.83,7.3a.46.46,0,0,0-.26-.07h-.08s0-.05-.05-.05h-.12a.24.24,0,0,0-.07-.12l0,0V7a.22.22,0,0,1-.05.08h0l0,0h-.37l0,0,0,0,0-.06h0a0,0,0,0,1,0,0,.12.12,0,0,0,0,.05.21.21,0,0,0-.06.1v0h-.11s-.07,0-.07.12v.23l-.18,0-.1,0-.5-.14h0s0-.07-.1-.09l-.15-.11h0a.06.06,0,0,0,0-.08h0a.06.06,0,0,0-.08,0l-.13.34a.06.06,0,0,0,0,.08h0a.07.07,0,0,0,.09,0h0l.18,0c.06,0,.12,0,.13,0l.09.06.5.32.1.06.16.1v.21a.07.07,0,0,0,.07.07h1a.08.08,0,0,0,.08-.08V8.14a.89.89,0,0,0,.32-.28A.41.41,0,0,0,37,7.62a.39.39,0,0,0-.14-.32m0,.47a.71.71,0,0,1-.12.13l-.1.07-.05-.59h.06a.24.24,0,0,1,.17,0s.08.08.09.21a.3.3,0,0,1,0,.14"/><path class="cls-1" d="M36.33,6.28a1.8,1.8,0,0,1,0,.22,2.42,2.42,0,0,1-.12.46V7a.15.15,0,0,1-.05.06l0,0h-.15l0,0a.14.14,0,0,1,0-.1,0,0,0,0,1,0,0,.06.06,0,0,1,0,0A2.83,2.83,0,0,0,36,6.5a.9.9,0,0,0,0-.22A.63.63,0,0,0,36,6a.34.34,0,0,0-.12-.14v1h0a.19.19,0,0,0,0,.07.46.46,0,0,0-.07.07.41.41,0,0,0-.07.11h-.09l0,0,0,0a.25.25,0,0,0,0,.1v.18l-.14,0V7.17h-.1v.25l-.49-.14s0,0,0,0V6.63a.08.08,0,0,1,0,0V6.08a1.5,1.5,0,0,1-.92.34h0a.16.16,0,0,1-.13-.06c.08-.08.14-.19.1-.26h0a1.19,1.19,0,0,0,.74-.28,1,1,0,0,0,.15-.18l0,0h0l0,0a.14.14,0,0,1,.12-.06h.84l.1,0a.75.75,0,0,1,.2.1.62.62,0,0,1,.21.26,1,1,0,0,1,.09.42"/><path class="cls-1" d="M33.39,6.61a.15.15,0,0,1-.15.15.15.15,0,0,1-.16-.15.16.16,0,0,1,.16-.15.15.15,0,0,1,.15.15"/><path class="cls-1" d="M33.34,6.14c0,.14-.05.24-.1.24s-.11-.1-.11-.24,0-.24.11-.24.1.11.1.24"/><path class="cls-1" d="M33.34,7.08c0,.13-.05.24-.1.24s-.11-.11-.11-.24,0-.24.11-.24.1.11.1.24"/><path class="cls-1" d="M33.66,6.33l0,0c-.1.1-.2.14-.24.1s0-.15.09-.24.21-.14.25-.1h0s0,.13-.08.22"/><path class="cls-1" d="M33,7c-.1.09-.21.13-.24.09s0-.14.09-.24.21-.14.25-.1,0,.15-.1.25"/><path class="cls-1" d="M33.94,6.61c0,.06-.1.1-.24.1s-.24,0-.24-.1.11-.1.24-.1.24,0,.24.1"/><path class="cls-1" d="M33,6.61c0,.06-.11.1-.24.1s-.24,0-.24-.1.11-.1.24-.1.24,0,.24.1"/><path class="cls-1" d="M33.74,7.11s-.15,0-.25-.09-.13-.21-.09-.25.14,0,.24.1.14.2.1.24"/><path class="cls-1" d="M33.08,6.45s-.15,0-.25-.1-.13-.2-.09-.24.14,0,.24.1.13.2.1.24"/><path class="cls-1" d="M33.54,7.83s-.08.08-.26,0-.42-.19-.4-.25.28,0,.46.05.22.12.2.18"/><path class="cls-1" d="M34,7.61c-.07.17-.13.2-.18.18s-.08-.08,0-.26.2-.39.26-.37,0,.27-.06.45"/><path class="cls-1" d="M34.12,8.2a.09.09,0,0,1-.08.08L33.9,9h-.53l-.15-.73a.08.08,0,0,1-.07-.08.08.08,0,0,1,.08-.09h.38v0a2.06,2.06,0,0,0-.09-.63c0-.08-.05-.14-.06-.18l0,0v0a.07.07,0,0,1,0-.07.05.05,0,0,1,.07,0,1.92,1.92,0,0,1,.1.26,2.28,2.28,0,0,1,.09.66v0H34a.09.09,0,0,1,.09.09"/><path class="cls-1" d="M37.07,18.4v2a.3.3,0,1,1-.59,0V19.08a.93.93,0,0,0,.18-.16.67.67,0,0,0,.13-.3l.28-.22"/><path class="cls-1" d="M36.37,19.15v1.27a.3.3,0,1,1-.59,0v-.85a.92.92,0,0,0,.36-.32.89.89,0,0,0,.23-.1"/><path class="cls-1" d="M34.79,17.63l-.11.06a.24.24,0,0,1-.12-.17v0l.22.14"/><path class="cls-1" d="M35,17.28a.5.5,0,0,0,0,.12l-.16-.09.18,0"/><path class="cls-1" d="M37.49,15.3c0,.15-.2.29-.49.37a.5.5,0,0,0-.08-.26.6.6,0,0,0-.36-.26l-.13,0a.59.59,0,0,0-.57.46s0,.05,0,.08c-.29-.08-.48-.22-.48-.37s.33-.38.78-.43a.26.26,0,0,1,.28-.19c.14,0,.27.09.27.19.45.05.79.22.79.43"/><path class="cls-1" d="M36.94,15.85a.52.52,0,0,1-.63.4.53.53,0,0,1-.41-.57.25.25,0,0,1,0-.08.52.52,0,0,1,.64-.4.53.53,0,0,1,.41.48.5.5,0,0,1,0,.17"/><path class="cls-1" d="M36.65,18.67h0a.24.24,0,0,1-.12,0s0,.06,0,.09l0,.1a.49.49,0,0,1-.11.18.31.31,0,0,1-.22.09s-.22.07-.23.12a.83.83,0,0,1-.14.22.11.11,0,0,1-.08,0,.9.9,0,0,1-.32-.09A2,2,0,0,1,34.9,19a1.18,1.18,0,0,1-.4-.59.69.69,0,0,1,.08-.42c.1-.17.18-.26.38-.24,0,0,0,0,0,0a.93.93,0,0,1,.14.14s.18-.06.16-.08l-.07-.08c.1,0,.19-.19.26-.28l0-.06h0a1.66,1.66,0,0,1,.21.06l.08,0,.1.07a1.24,1.24,0,0,1,.4.48h0a1.45,1.45,0,0,1,.1.25v0h0l.09-.07a.39.39,0,0,0,.1-.08,1.4,1.4,0,0,0-.15-.3l0-.06a1,1,0,0,0-.7-.48h-.11a.68.68,0,0,0,.11-.19h0a1.63,1.63,0,0,1,.16-.5s0,0,0-.05l-.08,0h0a.59.59,0,0,0-.67.34,2.13,2.13,0,0,0-.16.45.78.78,0,0,0,0,.26,1.09,1.09,0,0,0-.33-.19.53.53,0,0,0-.5.06c-.08.06,0,0,.08,0h0c.08-.06.19,0,.3,0a2,2,0,0,1,.28.18s0,0,0,.05l0,0,0,0,0,0h0l-.07,0,0,0-.07,0a.88.88,0,0,0-.47.46c-.16.42.1.73.39,1s.5.46.79.43a1.15,1.15,0,0,0,.28-.09.92.92,0,0,0,.32-.3,1,1,0,0,0,.27-.11l.11-.08a.53.53,0,0,0,.13-.13.68.68,0,0,0,.12-.22h-.08m-1.44-1.5v0a.83.83,0,0,1,.29-.56,1.06,1.06,0,0,1,.26,0h0l0,.08c0,.11-.06.23-.09.34a.78.78,0,0,1-.14.29l-.08.09-.06.05-.09.1s0,0,0,.05,0,.05-.05,0l0,0v0a.5.5,0,0,1,0-.12c0-.1,0-.19,0-.27"/><path class="cls-1" d="M35.53,17.7a.52.52,0,0,1-.57.37c-.11,0,0-.14.08-.13s.27-.07.33-.23.19-.1.16,0"/><path class="cls-1" d="M37.66,17.33a1,1,0,0,1-.21.6l-.13.16c-.07.08-.16.16-.25.25l0,0-.11.09-.12.1-.06,0h0l-.08,0h0a.18.18,0,0,1-.12-.05l0,0h0a.26.26,0,0,1,0-.08.28.28,0,0,1,0-.13h0l.05,0,.08-.06.1-.08,0,0a2.41,2.41,0,0,0,.32-.3h0a.86.86,0,0,1,.07-.1l0,0a.6.6,0,0,0,.12-.34.46.46,0,0,0-.05-.21.69.69,0,0,0-.16-.18v.8a3.2,3.2,0,0,1-.32.31,1.59,1.59,0,0,0-.15-.29l-.07-.1a1.14,1.14,0,0,0-.73-.47h0l.06-.12a1.36,1.36,0,0,1,0-.17.67.67,0,0,1,.1-.31.11.11,0,0,0,0-.09.1.1,0,0,0,0,0h1l.11.06.22.14a1.25,1.25,0,0,1,.23.27.76.76,0,0,1,.11.41"/><path class="cls-1" d="M48.18,15a1.44,1.44,0,0,1,0,.37c-.07-.09,0-.2,0-.29s-.06-.15-.13-.16a.84.84,0,0,1-.27-.08.93.93,0,0,1-.42-.38c-.12-.19-.23-.38-.51-.39a2.16,2.16,0,0,1,.68,0,1,1,0,0,1,.45.23.9.9,0,0,1,.27.67"/><path class="cls-1" d="M50.14,14.45a1.39,1.39,0,0,1-.93.44c-.34,0-.65-.16-.79.18-.05.1-.05.19-.1.29a.2.2,0,0,1-.18.11A1.25,1.25,0,0,0,48,14.16a5,5,0,0,1-.55-.67,1.27,1.27,0,0,1-.16-.81.88.88,0,0,0,.41.57,1.21,1.21,0,0,1,.47.36.43.43,0,0,1,.07.31c0,.09,0,.16-.07.26a.19.19,0,0,0,.08.2,1.22,1.22,0,0,1,0-.25c0-.06.05-.12.08-.17a.16.16,0,0,1,.06.12,1,1,0,0,1,0,.25.57.57,0,0,0,0,.26,1.18,1.18,0,0,1,0,.25c.07,0,.12-.1.16-.17a.77.77,0,0,1,.17-.27c.2-.16.53-.06.74,0s.48.17.63,0"/><path class="cls-1" d="M50,14.17c-.06,0-.13.08-.29.08a.47.47,0,0,1-.4-.17.58.58,0,0,0-.54-.16c-.07,0-.1.07-.17.12a.4.4,0,0,1-.15.07.26.26,0,0,0-.08-.22c0-.13,0-.19,0-.28-.1-.28-.3-.31-.47-.52a.89.89,0,0,1-.19-.48.57.57,0,0,0,.3,0,.27.27,0,0,1,.34.16.74.74,0,0,1,.07.39c.14-.23.49-.12.68-.13,0,.21.18.33.05.65a.58.58,0,0,1,.48,0,.32.32,0,0,1,.21.2c0,.09.06.25.15.3"/><path class="cls-1" d="M49.2,13a.86.86,0,0,1-.35-.16,2.41,2.41,0,0,1-.33.19c-.07-.21-.06-.37,0-.47s.18-.08.32-.21c.22.18.5.27.31.65"/><path class="cls-1" d="M50.09,13c-.11.18,0,.49-.29.62a.64.64,0,0,0-.42-.06c0-.1,0-.23.1-.34-.06,0-.2-.1-.24-.24a.33.33,0,0,1,.36-.1c.21,0,.29.17.49.12"/><path class="cls-2" d="M46.59,15.1c-.05,0-.11,0-.16,0-.21-.18-.63-.05-.86,0a.34.34,0,0,1-.26,0L45.18,15h0L45,14.77a4,4,0,0,1-.37-.35s-.29-.27-.22-.36.21,0,.28,0a.26.26,0,0,1,.21.11l.18.16-.1,0c-.2.09,0,.28.09.28l.29,0h.12l.22,0,.08,0h.08c.06,0,.07,0,0-.06h0a1.08,1.08,0,0,0-.36-.05h-.17a.8.8,0,0,1-.31,0c-.1-.05-.09-.13,0-.17l.08,0h.63l.16,0h0a.86.86,0,0,1,.17,0l.17,0,.19.09h0a2.55,2.55,0,0,0,.43.3c.09,0-.24.35-.26.37"/><path class="cls-2" d="M46.54,13.06a.81.81,0,0,1-.37.25.39.39,0,0,1-.3-.05.83.83,0,0,1,.41-.2,1.71,1.71,0,0,0-.39.06l0,0a.48.48,0,0,1,.22-.23c.17-.07.48.15.48.15"/><path class="cls-2" d="M46.86,12.67c0,.11-.2.09-.25.13a.24.24,0,0,1-.23,0l-.24,0a.3.3,0,0,0,.07-.08c.13-.18-.11-.25-.22-.19l-.36.2-.2.1-.09,0-.06,0q-.08.08,0,.06h0a1.17,1.17,0,0,0,.34-.16l.08,0a1.2,1.2,0,0,1,.34-.17c.11,0,.15.06.09.14a.17.17,0,0,1-.06.06l-.1.07,0,0,0,0-.07,0h0l0,0a.35.35,0,0,0-.09.42h-.1a.58.58,0,0,1-.05-.34l-.09.06-.12.11,0,0a.45.45,0,0,1-.13.11.41.41,0,0,1-.15.07.78.78,0,0,1-.22,0,3.14,3.14,0,0,0-.53,0c-.1,0,0-.42,0-.45s.08-.06.15-.05c.27,0,.56-.3.73-.47a.33.33,0,0,1,.23-.1h.17a1.33,1.33,0,0,1,.28,0,4,4,0,0,1,.5.09c.06,0,.39.08.38.19"/><path class="cls-2" d="M46.56,13.93a1.1,1.1,0,0,1-.11.35l0,.09a.46.46,0,0,0-.19-.09l-.17,0a.51.51,0,0,0-.17,0h0l-.16,0h-.55l0-.05a1.08,1.08,0,0,1-.1-.35.43.43,0,0,1,.14-.35.53.53,0,0,1,.29-.14,3.07,3.07,0,0,0,.7,0,.53.53,0,0,1,.29.14.47.47,0,0,1,.14.35"/><path class="cls-1" d="M35.5,23.32l0,0-.45.17a.64.64,0,0,1-.62-.25.57.57,0,0,0,.3.2.42.42,0,0,0,.25,0,.53.53,0,0,0,.21-.11,2.89,2.89,0,0,0,.27-.26.57.57,0,0,0,.08.23"/><path class="cls-1" d="M38.73,21.35l0,0a1.51,1.51,0,0,1-.22.11l-.24.12-.25.11a.57.57,0,0,1-.24.08c.29.37-.85.77-1.08.85l0,0-.06-.07-.07-.09-.08-.12s0,0,0-.06a.24.24,0,0,1,0-.15l.11-.07c.18-.12.26-.24.45-.35s.43-.35.66-.08a1.41,1.41,0,0,0,.36-.37l.19-.2c.06-.07.19-.19.19-.19l0,0a3,3,0,0,0-.24.26l-.22.24a1.87,1.87,0,0,0,.47-.46l.06.05a2.85,2.85,0,0,0-.26.23,1.75,1.75,0,0,0-.24.23,1.13,1.13,0,0,0,.31-.21c.08-.08.2-.17.27-.25l0,0c0,.05-.08.08-.11.13a.71.71,0,0,0,.17-.11l.05,0a1.2,1.2,0,0,1-.21.13c.07,0,.29-.11.33,0a1.18,1.18,0,0,0-.53.17l-.25.16c-.06.05-.2.11-.22.18a4.57,4.57,0,0,0,.91-.37"/><path class="cls-1" d="M36.77,23c-.08.3-.19.46-.33.52a.68.68,0,0,1-.43,0l-.15,0-.2,0a.54.54,0,0,1-.15-.15.9.9,0,0,1-.08-.23,1.34,1.34,0,0,1,0-.19.87.87,0,0,1,.07-.37,1.47,1.47,0,0,1,.1-.13.3.3,0,0,0,.12-.2,1.07,1.07,0,0,0,0-.18c0-.13,0-.28,0-.34l.07,0,.11,0h0v0a.29.29,0,0,1,0-.15.24.24,0,0,0-.06-.18l-.09-.06a.29.29,0,0,1-.16-.18c.11,0,.27,0,.28.15h0s0,0,0-.08a.77.77,0,0,1,.12-.29h0a1.17,1.17,0,0,0-.07.8h0a.37.37,0,0,1,.36,0,.25.25,0,0,1,.07.24s0,.06,0,.09a.8.8,0,0,0,0,.15.24.24,0,0,0,0,.15l0,.06.08.12.07.09.05.06a.36.36,0,0,1,.1.37"/><path class="cls-1" d="M44.67,24.76s.24,0,.13-.14a1.17,1.17,0,0,0-.83,0s-.36.16-.72.91c-.11,0-.16-.12-.16-.12s-.06-.28-.14-.54a.77.77,0,0,0-.34-.41.08.08,0,0,1,0-.05s.13-.07,0-.16-.07,0-.07,0,0-.13-.09-.06c-.05-.11-.12,0-.12,0s-.06-.14-.08,0c-.08,0-.08,0-.08,0s-.06.06,0,.11,0,.13,0,.13c-.14.23,0,.14,0,.14h.08a.11.11,0,0,1,0,.11.22.22,0,0,0,0,.2S42,25,42,25.1a.9.9,0,0,0-.2.71s0,.18.35.51.31.25.31.25a.11.11,0,0,0,.06.09.15.15,0,0,1,.12.08s0,.09.25.07c0,.05,0,.09,0,.09l-.23.23s-.38,0-.37.1.09,0,.09,0,0,0,0,.05a.86.86,0,0,1,.27,0h.23s0,.11.07.08.25-.05.25-.05h0s-.08-.09-.07-.15.19-.19.19-.19a.85.85,0,0,0,.1-.15c.07-.05,0-.24,0-.24s.16,0,.1-.16a2.59,2.59,0,0,1,0-.28.3.3,0,0,0,.22.12.55.55,0,0,0-.1-.44c.07,0,.19.21.19.21s0,.19.13.21,0-.29,0-.29,0,0,.13,0c.28,0,.18-.2.18-.2a.12.12,0,0,0,0-.13c.23,0,.13-.21.13-.21s.25,0,.07-.14a.19.19,0,0,0,.08-.19s.07.15.16.11-.11-.36-.11-.36m-1.59,2.31s-.1,0-.1.08-.1,0-.1,0A.27.27,0,0,1,43,27a1.21,1.21,0,0,1,.13-.13s.06-.19.1,0-.15.21-.15.21"/><path class="cls-1" d="M54.48,12.51l-1.25-.06,0-.1-.22,0a.08.08,0,0,0-.07-.05.07.07,0,0,0-.07.07.08.08,0,0,0,.07.08.07.07,0,0,0,.06,0l.19,0,0,.08h0l.19.55h0l.13.38h.79a0,0,0,0,0,0,0,0,0,0,0,0,0,0h-.75l-.1-.3h.93Zm-.29.05h.22l0,.12h-.21Zm-.36.27h-.28l0-.15h.29Zm0-.29v.12h-.3l0-.13Zm-.56,0h.22l0,.13h-.2Zm.11.32-.06-.16h.2l0,.15Zm.06.17-.05-.14h.16l0,.14Zm.16,0,0-.14h.27V13Zm.26-.46.32,0,0,.12-.29,0Zm.26.46h-.23v-.14h.26Zm-.24-.17v-.14l.29,0,0,.12Zm.47.17h-.2l0-.14h.2Zm-.18-.17,0-.12h.21l0,.11Z"/><path class="cls-1" d="M53.6,13.46a.13.13,0,0,0-.13.13.13.13,0,0,0,.26,0,.13.13,0,0,0-.13-.13m0,.19a.07.07,0,0,1-.07-.06.07.07,0,0,1,.14,0,.07.07,0,0,1-.07.06"/><path class="cls-1" d="M54.17,13.46a.13.13,0,0,0-.13.13.12.12,0,0,0,.13.12.12.12,0,0,0,.13-.12.13.13,0,0,0-.13-.13m0,.19s-.08,0-.08-.06a.08.08,0,0,1,.08-.07.07.07,0,0,1,.07.07.07.07,0,0,1-.07.06"/><path class="cls-1" d="M38.72,5.89l-1.6-.08,0-.13-.29,0a.1.1,0,0,0-.09-.06.09.09,0,0,0-.09.09.09.09,0,0,0,.09.1.08.08,0,0,0,.08,0l.24,0,0,.11h0l.24.71h0l.17.49h1a0,0,0,0,0,0-.08h-1l-.13-.39h1.2ZM38.35,6h.28l0,.16-.27,0Zm-.46.35h-.35l0-.2.38,0Zm0-.38v.16l-.38,0,0-.15Zm-.72,0h.28l0,.16H37.2Zm.14.41-.07-.21h.24l0,.2Zm.07.22-.06-.19h.21l0,.19Zm.22,0,0-.19h.35v.19Zm.33-.59.4,0,0,.15-.37,0Zm.33.59h-.3V6.33h.33Zm-.31-.22V6.12l.37,0,0,.16Zm.6.22h-.25l0-.19h.26Zm-.22-.22,0-.16h.26l0,.14Z"/><path class="cls-1" d="M37.6,7.1a.18.18,0,0,0-.17.17.17.17,0,0,0,.34,0,.18.18,0,0,0-.17-.17m0,.25a.08.08,0,0,1-.09-.08.09.09,0,0,1,.18,0,.08.08,0,0,1-.09.08"/><path class="cls-1" d="M38.32,7.1a.17.17,0,0,0-.16.17.16.16,0,0,0,.16.16.17.17,0,0,0,.17-.16.18.18,0,0,0-.17-.17m0,.25a.08.08,0,0,1-.09-.08.09.09,0,0,1,.18,0,.08.08,0,0,1-.09.08"/><path class="cls-1" d="M55.8,7.1l-.55-.55h0a.52.52,0,0,0-.08-.61.51.51,0,1,0-.11.8h0l.55.55a.13.13,0,0,0,.18,0,.12.12,0,0,0,0-.19m-.74-.56a.35.35,0,1,1,0-.5.35.35,0,0,1,0,.5"/><path class="cls-1" d="M55,6.06A.33.33,0,0,0,54.81,6a.32.32,0,0,0-.23.09.35.35,0,0,0-.09.23.31.31,0,0,0,.32.32A.33.33,0,0,0,55,6.52a.32.32,0,0,0,.09-.23A.35.35,0,0,0,55,6.06m0,.25a0,0,0,0,1,0,0s0,0,0,0l0,0a.13.13,0,0,1-.07.06l-.08,0-.08,0-.07,0,0-.06a.32.32,0,0,1,0-.16.43.43,0,0,1,0-.07l.07,0h.08a.17.17,0,0,1,.1,0,.16.16,0,0,1,.07.07l-.09,0,0,0,0,0h0l0,0s0,0,0,0a.08.08,0,0,0,0,.08.05.05,0,0,0,0,0s0,0,0,0h0l0,0s0,0,0,0h-.08V6.27H55v0"/><path class="cls-1" d="M55.27,5.85a.42.42,0,0,0-.54-.27l-.09,0c.09-.19.18-.22.43-.26h0c-.27,0-.44,0-.55.15l0-.12h-.11v.11c-.12-.15-.3-.15-.56-.1.26,0,.35.05.45.23l-.06,0c-.51-.15-.73.48-.5.87a.86.86,0,0,0,.87.46,1.12,1.12,0,0,0,.31-.1h-.09a.52.52,0,0,1-.38-.15.55.55,0,0,1,.38-.93.55.55,0,0,1,.38.16.49.49,0,0,1,.15.27.78.78,0,0,0-.07-.33m-1.37.43H54a.2.2,0,0,0,0,.13.21.21,0,0,1-.13-.13M54,6.21h-.15a.68.68,0,0,1,0-.4l.23.08a2,2,0,0,0-.12.32"/><path class="cls-1" d="M40.66,22.4a.9.9,0,0,0-.46,0,1.36,1.36,0,0,1-.45.06h-.31v-.15h0a.65.65,0,0,0-.1.15H39a.83.83,0,0,1,.2-.35.69.69,0,0,1,.18-.12l.1,0h.77a1.34,1.34,0,0,1,.26.23.86.86,0,0,1,.11.19"/><path class="cls-1" d="M40.28,21.33a.41.41,0,0,0-.38-.24h-.09a.42.42,0,0,0-.31.5.37.37,0,0,0,0,.11c-.28.09-.51.09-.57,0s.12-.38.44-.59a.26.26,0,0,1,.15-.22c.11-.06.23-.06.27,0,.35-.14.65-.15.71,0s0,.29-.27.47"/><path class="cls-1" d="M40,21.86a.37.37,0,0,1-.39-.17.22.22,0,0,1-.05-.11.36.36,0,0,1,.27-.43.36.36,0,0,1,.41.2l0,.07a.38.38,0,0,1-.27.44"/><path class="cls-2" d="M41.17,23.51c-.07.06-.15,0-.22,0-.28-.25-.87-.07-1.2,0h-.09a.43.43,0,0,1-.26-.07l-.12-.08c-.13-.09-.25-.19-.37-.29s-.35-.32-.51-.49-.4-.38-.31-.51.3.05.39,0,.21.07.29.15l.25.22-.14,0c-.28.12-.05.38.13.39s.58,0,.87.07c.07,0,.14.06.21,0s.1,0,0-.08a1.79,1.79,0,0,0-.65-.08,1.54,1.54,0,0,1-.53,0c-.14-.06-.13-.18,0-.24l.11,0h.71a1.69,1.69,0,0,0,.45-.07.9.9,0,0,1,.46,0,1,1,0,0,1,.28.14,3.59,3.59,0,0,0,.6.42c.12,0-.34.48-.37.5"/><path class="cls-1" d="M48.06,15.82s0,0,0,0l-.06,0,0,0a.4.4,0,0,1,0,.11s0,0,0,0,0,0,0,0a.07.07,0,0,1-.08,0s-.08,0-.08,0-.15-.11-.15-.11a.09.09,0,0,1-.08,0,.29.29,0,0,0,0,.21s0,.09,0,.1a.34.34,0,0,1-.11,0v0s-.07,0-.08,0,0-.13,0-.13,0-.18,0-.2a1.22,1.22,0,0,0-.54-.08.44.44,0,0,1-.05.18l0,.18s0,.05,0,.07-.1,0-.1,0,0,0,0-.11a.23.23,0,0,0-.08-.13l0-.07-.07.09v.16s0,.07,0,.08a.12.12,0,0,1-.14,0,1.09,1.09,0,0,1,0-.24s-.06-.05,0-.11,0-.08,0-.08a.29.29,0,0,1,0-.23.26.26,0,0,1,.07-.09s-.17,0-.17.13h0s-.06-.11.23-.17a1.12,1.12,0,0,1,1.26.09c.13.08.13.12.13.12s0,.08.06.08a0,0,0,0,1,0,0,.23.23,0,0,0,.07.06s0,.07,0,.07"/><path class="cls-1" d="M39.16,2.71s0,.06,0,0l-.09,0L39,2.78s0,.13,0,.15S39,3,39,3s0,0,0,.06a.1.1,0,0,1-.12,0s-.11,0-.11-.06-.21-.17-.21-.17a.14.14,0,0,1-.13,0,.47.47,0,0,0,0,.3s.08.13.06.14-.15,0-.15,0l0,0s-.1,0-.12,0,0-.18,0-.18,0-.27,0-.29a2.17,2.17,0,0,0-.78-.12.6.6,0,0,1-.08.27l.05.25s.06.07,0,.1-.14,0-.14,0,0,0,0-.17-.1-.17-.1-.17l0-.1-.1.13,0,.22s.08.11,0,.12a.18.18,0,0,1-.2,0s0-.34,0-.35-.08-.07,0-.17,0-.11,0-.11a.34.34,0,0,1,0-.32.3.3,0,0,1,.1-.14s-.25,0-.25.2h0s-.09-.16.32-.24a1.65,1.65,0,0,1,1.82.12c.17.12.18.19.18.19s0,.1.08.11,0,0,0,0a.23.23,0,0,0,.1.07c.05,0,0,.1,0,.1"/><path class="cls-1" d="M56.2,19a.45.45,0,0,1-.42.33c-.09,0,0-.19,0-.27a1.69,1.69,0,0,0,.1-.34c0-.1.08-.22.08-.27s0-.11.08-.09.2.41.13.64"/><path class="cls-1" d="M56,18.45a2.3,2.3,0,0,0-.08.27,1.57,1.57,0,0,0-.11.35c0,.09,0,.26-.13.23a.5.5,0,0,1-.16-.53c.08-.23.31-.49.46-.44s.07,0,0,.12"/><rect class="cls-1" x="32.49" y="10.27" width="0.41" height="0.09" transform="translate(-0.64 18.32) rotate(-31.01)"/><path class="cls-1" d="M32.82,10.16l-.31.19s0-.1-.09-.12l-.37-.07a.25.25,0,0,1-.13-.05l-.31-.19-.25-.28a.06.06,0,0,1,0-.1.08.08,0,0,1,.07,0l.13.1s-.07,0-.07.06a.08.08,0,0,0,0,.07l.23.15L32,10v0l-.21-.09-.21-.14s-.06-.06,0-.08a.09.09,0,0,1,.1,0l.16.09.18.06.41,0a.29.29,0,0,1,.19.07h0c0-.09-.24-.09-.24-.09h-.29a0,0,0,0,1,0-.05.08.08,0,0,1,.12-.06l.16.09h0a.6.6,0,0,1,.21,0,.24.24,0,0,1,.16.21Z"/><path class="cls-1" d="M32.21,9.27v0h0v0h0"/><path class="cls-1" d="M32.21,9.33v0h0v0h0"/><path class="cls-1" d="M32.21,9.41v0h0v0h0"/><path class="cls-1" d="M32.21,9.49v0h0v0h0"/><path class="cls-1" d="M32.21,9.57v0h0v0h0"/><path class="cls-1" d="M32.08,9.27v0h0v0h0"/><path class="cls-1" d="M32.05,9.33l0,0h0l0,0h0"/><path class="cls-1" d="M32,9.41l0,0h0l0,0h0"/><path class="cls-1" d="M32,9.48l0,0h0l0,0h0"/><path class="cls-1" d="M32.35,9.28h0v0h0Z"/><path class="cls-1" d="M32.39,9.35h0l0,0h0Z"/><path class="cls-1" d="M32.43,9.43h0l0,0h0Z"/><path class="cls-1" d="M32.47,9.5h0l0,0h0Z"/><path class="cls-1" d="M33,8.57v.32h-.47l-.1.07a.23.23,0,0,0-.07.1.14.14,0,0,0,0,.06V9.2a.35.35,0,0,1-.16,0,.38.38,0,0,1-.16,0v0h0v-.1a.56.56,0,0,1,0-.12.66.66,0,0,1,.15-.22.61.61,0,0,1,.22-.13l.13,0H33Z"/><rect class="cls-1" x="33.05" y="8.53" width="0.09" height="0.4"/><rect class="cls-1" x="49.41" y="7.96" width="0.45" height="0.1" transform="translate(2.96 26.71) rotate(-31)"/><path class="cls-1" d="M49.77,7.85l-.34.2s0-.11-.1-.13l-.4-.07a.43.43,0,0,1-.14-.06l-.34-.21-.27-.3a.07.07,0,0,1,0-.11.07.07,0,0,1,.07,0l.15.11a.07.07,0,0,0-.07.06s0,.07,0,.08l.24.17.23.09v0l-.23-.1-.23-.15s-.07-.07,0-.09a.11.11,0,0,1,.11,0l.17.1.19.07h.45s.15,0,.2.09h0c0-.1-.26-.1-.26-.1h-.32s0,0,0-.05A.09.09,0,0,1,49,7.36l.19.1h0a.51.51,0,0,1,.22,0c.1,0,.16.12.17.22Z"/><path class="cls-1" d="M49.11,6.87v0h0v0h0"/><path class="cls-1" d="M49.11,6.94V7h0v0h0"/><path class="cls-1" d="M49.11,7v0h0V7h0"/><path class="cls-1" d="M49.11,7.12v0h0v0h0"/><path class="cls-1" d="M49.11,7.21v0h0v0h0"/><path class="cls-1" d="M49,6.88v0h0v0h0"/><path class="cls-1" d="M48.93,6.94l0,0h0l0,0h0"/><path class="cls-1" d="M48.89,7l0,0h0l0,0h0"/><path class="cls-1" d="M48.85,7.11l0,0h0l0,0h0"/><path class="cls-1" d="M49.26,6.89h0v0h0Z"/><path class="cls-1" d="M49.3,7h0l0,0h0Z"/><path class="cls-1" d="M49.34,7.05h0l0,0h0Z"/><path class="cls-1" d="M49.38,7.13h0l0,0h0Z"/><path class="cls-1" d="M50,6.12v.34h-.43l-.07,0a.37.37,0,0,0-.12.07.26.26,0,0,0-.07.11.14.14,0,0,0,0,.07V6.8a.73.73,0,0,1-.34,0v0h0v0a.2.2,0,0,1,0-.07.33.33,0,0,1,0-.13.53.53,0,0,1,.16-.23.61.61,0,0,1,.24-.15l.14,0H50Z"/><rect class="cls-1" x="50.02" y="6.08" width="0.1" height="0.43"/><path class="cls-1" d="M38.23,9.25l0,.06a1.38,1.38,0,0,0-.06.16c0,.23,0,.47,0,.71a1.2,1.2,0,0,1-.1.35.47.47,0,0,1-.3.25h-.07a.08.08,0,0,1,0,0v.06a1.5,1.5,0,0,1-.07.27v0a.14.14,0,0,0,0,.09,1,1,0,0,0,0,.17s0,.06-.06,0a.79.79,0,0,1,0-.13.45.45,0,0,0-.07-.14l-.1-.17-.09-.13s0,0,0,0a.43.43,0,0,1-.42,0,1.78,1.78,0,0,1-.27-.22.92.92,0,0,0-.39-.31l-.16,0h0a1.35,1.35,0,0,1,.38-.19.69.69,0,0,1,.49,0,.77.77,0,0,1,.29.22.93.93,0,0,1,.15.3.4.4,0,0,1,0,.15v0l0,.05v0l.15.24c0,.05.05.07,0,0s0-.05,0-.08a5.4,5.4,0,0,0-.19-.84L37.19,10s0,0,0,0a1,1,0,0,1-.36-.15.52.52,0,0,1-.16-.14,1.73,1.73,0,0,1-.25-.44.89.89,0,0,1-.09-.22h.07l.16.05.26.12a.86.86,0,0,1,.36.37.6.6,0,0,1,.07.38h0l0,0,0,0s0,0,0,0,0-.15,0-.24v0a0,0,0,0,0,0,0,.38.38,0,0,1-.08-.23,3,3,0,0,1,0-.52.91.91,0,0,0,0-.17c0-.07,0-.09,0,0a1.65,1.65,0,0,1,.19.54.93.93,0,0,1,0,.27.22.22,0,0,1-.09.13,0,0,0,0,0,0,0v.07c0,.05,0,.1,0,.16s0,.09,0,.14,0,.07,0,.11.09.33.12.5a1.65,1.65,0,0,1,.06.32s0,0,0,0,0-.13.07-.25v-.06s0,0,0,0a.1.1,0,0,1-.05,0,.31.31,0,0,1,0-.1.88.88,0,0,1,0-.71,1.53,1.53,0,0,1,.38-.46,2.11,2.11,0,0,1,.27-.18h0"/><path class="cls-1" d="M38.92,23.85l0,.06a1.07,1.07,0,0,0-.06.17,4,4,0,0,0,0,.7,1.2,1.2,0,0,1-.1.35.47.47,0,0,1-.3.25h-.06s0,0,0,0,0,0,0,0v.06c0,.1,0,.2-.07.27s0,0,0,0a.15.15,0,0,0,0,.09c0,.06,0,.12.05.17s-.05.06-.06,0a.35.35,0,0,1,0-.12.31.31,0,0,0-.07-.14c0-.06-.07-.12-.11-.17a.64.64,0,0,0-.08-.14s0,0,0,0a.45.45,0,0,1-.43,0,1.23,1.23,0,0,1-.26-.22,1,1,0,0,0-.39-.31l-.16,0s0,0,0,0a1.43,1.43,0,0,1,.37-.19.72.72,0,0,1,.5,0,.84.84,0,0,1,.44.52.29.29,0,0,1,0,.16h0a.09.09,0,0,1,0,.05s0,0,0,0,.11.16.16.24,0,.07,0,0l0-.08a6.88,6.88,0,0,0-.19-.84,1.17,1.17,0,0,1,0-.11h0a.91.91,0,0,1-.37-.15.64.64,0,0,1-.15-.14,1.73,1.73,0,0,1-.25-.44.89.89,0,0,1-.09-.22H37l.17.06a1.36,1.36,0,0,1,.25.11.74.74,0,0,1,.36.38.52.52,0,0,1,.08.37s0,0,0,0l0,0,0,0s0,0,0,0l0-.23v0h0a.38.38,0,0,1-.08-.23,3,3,0,0,1,0-.52.91.91,0,0,0,0-.17c0-.07,0-.09,0,0a1.45,1.45,0,0,1,.19.54.94.94,0,0,1,0,.28.23.23,0,0,1-.09.12h0a.15.15,0,0,1,0,.07c0,.05,0,.11,0,.16a.66.66,0,0,0,0,.14s0,.07,0,.11l.12.5a1.65,1.65,0,0,1,.06.32s0,0,0,0l.07-.26v-.06s0,0,0,0l0,0a.33.33,0,0,1-.06-.1.92.92,0,0,1,0-.71,1.73,1.73,0,0,1,.39-.46,2.11,2.11,0,0,1,.27-.18h0"/><path class="cls-1" d="M45.17,23.31s0,0-.06,0a.56.56,0,0,0-.15.1c-.19.14-.28.37-.46.55a1.17,1.17,0,0,1-.29.22.51.51,0,0,1-.4,0l0,0h0l0,0,0,0a1.59,1.59,0,0,1-.22.18l0,0a.09.09,0,0,0-.06.06c0,.05,0,.11-.08.16s-.07,0-.05,0a.73.73,0,0,1,.05-.12.38.38,0,0,0,0-.16,1.36,1.36,0,0,1,0-.2.92.92,0,0,0,0-.16s0,0,0,0-.25-.14-.32-.3a1,1,0,0,1-.07-.34,1.22,1.22,0,0,0-.12-.49l-.11-.13,0,0a1.25,1.25,0,0,1,.42.08.73.73,0,0,1,.39.33.79.79,0,0,1,.09.35.9.9,0,0,1-.06.34.29.29,0,0,1-.08.14h0l0,0s0,0,0,0a2.83,2.83,0,0,1,0,.29c0,.06,0,.08,0,0a.43.43,0,0,0,0-.07,7,7,0,0,0,.37-.79s0-.08,0-.12,0,0,0,0a1.22,1.22,0,0,1-.2-.35,1.12,1.12,0,0,1,0-.21,2.24,2.24,0,0,1,.07-.51,1.54,1.54,0,0,1,.07-.24l0,.06a.56.56,0,0,1,.1.14,2,2,0,0,1,.14.25.86.86,0,0,1,0,.53.51.51,0,0,1-.17.34h0v.08s0,0,0,0l.17-.17,0,0h0a.48.48,0,0,1,.08-.24,2.66,2.66,0,0,1,.34-.4l.1-.15c0-.05,0-.07,0,0a1.6,1.6,0,0,1-.18.56.94.94,0,0,1-.2.2.17.17,0,0,1-.14.05h0a.12.12,0,0,1-.05.05l-.1.12a.94.94,0,0,0-.09.12s0,.07-.05.1l-.21.48a2.69,2.69,0,0,1-.16.29s0,0,0,0a2.27,2.27,0,0,0,.22-.17l.05,0a.06.06,0,0,0,0,0,.15.15,0,0,1,0-.07.23.23,0,0,1,0-.11.89.89,0,0,1,.48-.54,1.53,1.53,0,0,1,.59-.13l.34,0,0,0"/><path class="cls-1" d="M45.78,4.51h0v0h0s0,0,0,0h0s0,0,0,0h-.07l-.07,0h0s0,0,0,.05h0l0,0h0a0,0,0,0,0,0,0v0s0,0,0,0v.07h0v.06a0,0,0,0,1,0,0V5h0a.08.08,0,0,0,0,0h0s0,0,0,0h0l0,.1h0a.63.63,0,0,1,0,.14.89.89,0,0,1-.06.15l0,.08h0s0,0,0,0,0,0-.07,0,0-.06,0-.13l0-.17a.32.32,0,0,0,0-.13.32.32,0,0,1,0-.09h0l-.08,0s-.07,0-.13,0a.21.21,0,0,0-.09,0,.3.3,0,0,1,0,.1.41.41,0,0,0,0,.16.69.69,0,0,1-.05.13.72.72,0,0,0,0,.15s0,0,0,0,0,0-.07,0,0,0,0,0a.75.75,0,0,0,0-.15s0,0,0-.11a.34.34,0,0,1,0-.19.28.28,0,0,0,0-.14l-.07,0-.07,0s0,.1,0,.15v.12s0,0,0,.09a.33.33,0,0,0,0,.1.31.31,0,0,0,0,.1s0,0-.07,0,0,0,0,0V5.54a.18.18,0,0,0,0-.12.07.07,0,0,1,0-.08.31.31,0,0,0,0-.12A1,1,0,0,0,44.33,5a.67.67,0,0,1,0-.19c0-.06-.07-.09-.08-.14a.15.15,0,0,1,0-.13.54.54,0,0,0,0-.12l.05-.11a.77.77,0,0,1,0-.1.31.31,0,0,0,0-.1,0,0,0,0,1,0,0h0a0,0,0,0,1,0,0h-.05S44.05,4,44,4s0-.06.09-.06a.11.11,0,0,1,.11.07.11.11,0,0,0,0,0s0,0,0,0h0s0,0,0,0a.15.15,0,0,1,.17,0,.34.34,0,0,0,.06.06l.06,0h0s0,0,0,0,0,0,.07,0,.11,0,.14,0-.06.09-.06.09h.06l.11,0a1,1,0,0,0,.17,0,.5.5,0,0,0,.13,0s0,0,.09,0,.08,0,.11,0a.19.19,0,0,0,.11,0,.12.12,0,0,1,.12.11v0a.23.23,0,0,1,0,.1l0,.07"/><path class="cls-1" d="M45.68,5.23V5.4h0s0,0,0,.07v0h0v0h0l0,0s-.06,0-.07,0,0-.05,0-.1V5.35a.47.47,0,0,0,0-.16h0s0,0,0,0h0v0a0,0,0,0,1,0,0h0s0,0,0,0h0s0,0,0,0h0v0h0"/><path class="cls-1" d="M46.34,4.87h0v0h0v0h0a0,0,0,0,1,0,0h0l0,0h0l0,0h0l0,0h0l0,0h0a0,0,0,0,0,0,0h0v0h0v0h0a.08.08,0,0,1,.05,0s0,0,.06,0,0,0,0,0h-.08l0,0h0s0,0-.07,0-.11,0-.13,0h0l0,0h0l0,0a.1.1,0,0,0,0,0H46v0h0l0,0h-.17s0,0,0,0h-.11s0,0,0,0h-.05s-.06,0-.06,0h0a.08.08,0,0,0,0,0h0a0,0,0,0,1,0,0l0,0h0v.06a.09.09,0,0,0,0,0h0v.08a0,0,0,0,1,0,0V5h0V5a0,0,0,0,0,0,0s0,0,0,0h0v0h0v0h0s0,0,0,0h0a0,0,0,0,1,0,0h0a0,0,0,0,1,0,0v.1s0,0,0,0,0,.06,0,.08v0a.37.37,0,0,0,0,.08v0h0s0,0,0,0V5.53a.27.27,0,0,1,0-.09s0-.05,0-.07h0v0h0v0s0,0,0,0v0h0v0h0v0h0v0l0,0h0s0,0,0,0h0v0h0l0,0h0v0h0l0,0,0,0h0v0s0,0,0,0v0h0V5.4s0,0,0,.07h0a.11.11,0,0,0,0,0h0v0h0s0,0,0,0h0v0a.43.43,0,0,1,0,0V5.28s0,0,0,0h.1a0,0,0,0,1,0,0h0s0,0,0,0l0,0h0s0,0,0,0,0,0,0,0h0v0s0,0,0,0,0,0,0,0v0a.11.11,0,0,1,0,0v0a0,0,0,0,0,0,0h0a0,0,0,0,1,0,0h.09V5.57a.43.43,0,0,0,0-.05s0-.06,0-.08h0a.08.08,0,0,0,0,0V5.3h0v0h0l0,0h0v0l0,0h0v0a0,0,0,0,1,0,0h0v0h0V5h0V5h0V5h0l0-.06h0l0,0h0m-.27.34h0v0h0v.09h0l0,0v0h0v0h0v0h.06a0,0,0,0,1,0,0h0Z"/><path class="cls-1" d="M42.24,3.84a1.23,1.23,0,0,0,0-.2,1.49,1.49,0,0,0,0-.21l.36.21Z"/><path class="cls-1" d="M42.37,2.78l-.21.36A1.31,1.31,0,0,0,42,2.78Z"/><path class="cls-1" d="M41.74,2.15v.42a1.31,1.31,0,0,0-.36-.21Z"/><path class="cls-1" d="M41.09,2.28h-.41l.2-.36Z"/><path class="cls-1" d="M39.81,2.78a1.31,1.31,0,0,0-.21.36l-.2-.36Z"/><path class="cls-1" d="M39.81,4.5H39.4l.2-.36a1.62,1.62,0,0,0,.21.36"/><path class="cls-1" d="M41.74,5.12l-.36-.2a1.31,1.31,0,0,0,.36-.21Z"/><path class="cls-1" d="M40.38,2.36a1.13,1.13,0,0,0-.35.21V2.15Z"/><path class="cls-1" d="M39.51,3.64a1.27,1.27,0,0,0,0,.2l-.35-.2.35-.21a1.48,1.48,0,0,0,0,.21"/><path class="cls-1" d="M40.38,4.92l-.36.2V4.71a1.13,1.13,0,0,0,.35.21"/><path class="cls-1" d="M41.09,5l-.21.35L40.68,5h.41"/><path class="cls-1" d="M42.37,4.5H42a1.31,1.31,0,0,0,.21-.36Z"/><path class="cls-1" d="M42.15,3.64a1.33,1.33,0,0,1,0,.28l0,.1a1.29,1.29,0,0,1-.28.48.46.46,0,0,1-.07.07,1.44,1.44,0,0,1-.48.28l-.1,0a1.27,1.27,0,0,1-.28,0,1.24,1.24,0,0,1-.27,0l-.11,0A1.31,1.31,0,0,1,40,4.57L40,4.5A1.44,1.44,0,0,1,39.67,4s0-.07,0-.1a1.33,1.33,0,0,1,0-.28,1.27,1.27,0,0,1,0-.28s0-.07,0-.1A1.44,1.44,0,0,1,40,2.78L40,2.71a1.18,1.18,0,0,1,.47-.28l.11,0a1.18,1.18,0,0,1,.27,0,1.27,1.27,0,0,1,.28,0l.1,0a1.29,1.29,0,0,1,.48.28.46.46,0,0,1,.07.07,1.29,1.29,0,0,1,.28.48l0,.1a1.27,1.27,0,0,1,0,.28"/><path class="cls-1" d="M46.15,16.53a.85.85,0,0,0,0-.26l.23.13Z"/><path class="cls-1" d="M46.23,15.86l-.13.23a.65.65,0,0,0-.13-.23Z"/><path class="cls-1" d="M45.84,15.47v.26a.71.71,0,0,0-.22-.13Z"/><path class="cls-1" d="M45.43,15.55h-.26l.13-.23Z"/><path class="cls-1" d="M44.63,15.86a.65.65,0,0,0-.13.23l-.13-.23Z"/><path class="cls-1" d="M44.63,16.94h-.26l.13-.23a.65.65,0,0,0,.13.23"/><path class="cls-1" d="M45.84,17.33l-.22-.13a.71.71,0,0,0,.22-.13Z"/><path class="cls-1" d="M45,15.6a.65.65,0,0,0-.23.13v-.26Z"/><path class="cls-1" d="M44.44,16.4a.57.57,0,0,0,0,.13l-.23-.13.23-.13a.57.57,0,0,0,0,.13"/><path class="cls-1" d="M45,17.2l-.23.13v-.26a.65.65,0,0,0,.23.13"/><path class="cls-1" d="M45.43,17.25l-.13.23-.13-.23h.26"/><path class="cls-1" d="M46.23,16.94H46a.65.65,0,0,0,.13-.23Z"/><path class="cls-1" d="M46.1,16.4a.88.88,0,0,1,0,.17.64.64,0,0,1,0,.07,1.11,1.11,0,0,1-.17.3l0,0a.92.92,0,0,1-.3.18l-.07,0-.17,0-.17,0-.07,0a.92.92,0,0,1-.3-.18l0,0a.92.92,0,0,1-.18-.3.64.64,0,0,1,0-.07,1.45,1.45,0,0,1,0-.34.64.64,0,0,1,0-.07.92.92,0,0,1,.18-.3l0,0a.92.92,0,0,1,.3-.18l.07,0,.17,0,.17,0,.07,0a.92.92,0,0,1,.3.18l0,0a1.11,1.11,0,0,1,.17.3.64.64,0,0,1,0,.07.88.88,0,0,1,0,.17"/><path class="cls-1" d="M51.1,25l-.28.58a2,2,0,0,0-.36-.53Z"/><path class="cls-1" d="M50.06,24.13l0,.65a2,2,0,0,0-.58-.29Z"/><path class="cls-1" d="M49.06,24.4h-.33l-.32,0,.29-.57Z"/><path class="cls-1" d="M47.12,25.32a2,2,0,0,0-.28.58l-.36-.54Z"/><path class="cls-1" d="M48,24.6a2.36,2.36,0,0,0-.53.36l0-.64Z"/><path class="cls-1" d="M46.74,26.69c0,.1,0,.21,0,.31l-.58-.28.53-.36c0,.11,0,.22,0,.33"/><path class="cls-1" d="M50.78,26c-.18.09-.35.18-.53.25a14,14,0,0,1-3.23,1l0-.1a1.93,1.93,0,0,1-.08-.43,2.07,2.07,0,0,1,0-.43l0-.16a2,2,0,0,1,.38-.78l.11-.12a1.83,1.83,0,0,1,.71-.48l.16-.06a1.94,1.94,0,0,1,.42-.07,2.14,2.14,0,0,1,.44,0l.16,0a1.9,1.9,0,0,1,.78.38l.12.1a2,2,0,0,1,.48.72.88.88,0,0,1,.05.15h0"/><path class="cls-1" d="M42.94,4.85v.57a.1.1,0,0,1-.09.08h-.66a.09.09,0,0,1-.08-.08v0h.45a0,0,0,1,0,0-.1h-.45V5.18h.45a0,0,0,0,0,0,0,0,0,0,0,0,0,0h-.45V5h.45a0,0,0,0,0,0,0,0,0,0,0,0,0,0h-.45v0a.09.09,0,0,1,.08-.08h.66a.09.09,0,0,1,.09.08"/><rect class="cls-1" x="42.98" y="5.06" width="0.26" height="0.16"/><path class="cls-1" d="M43.79,5h-.51v.26h.51a.11.11,0,0,0,.11-.11v0A.11.11,0,0,0,43.79,5m0,.2a.07.07,0,1,1,0-.14.07.07,0,0,1,0,.14"/><path class="cls-2" d="M36.45,12.17a.23.23,0,0,0-.16.06.24.24,0,0,0-.09.15h.5a.25.25,0,0,0-.25-.21m-.25.27v.09l.24.15v.22h-.11v.39h.37v-.85ZM37,12a.27.27,0,0,0-.2-.07.31.31,0,0,0-.28.18.28.28,0,0,1,.15.08h.43A.32.32,0,0,0,37,12m-.27.25a.56.56,0,0,1,0,.12v.92h.34v-1Zm-.57.33-.43-.27-.42.27-.22.13v.14h.12v.44h.3V13h.19v.31h0V13H36v.31h.32v-.44h.11v-.14Z"/><path class="cls-1" d="M32.8,18.87a.52.52,0,0,1-.22.37.22.22,0,0,1-.27,0l.12-.05a.5.5,0,0,0,.18-.15,1.06,1.06,0,0,1-.19.12l-.12.06h0v.64s0,0-.07,0-.07,0-.07,0v-.37l-.11-.05-.2-.12a.86.86,0,0,0,.19.14l.11,0a.21.21,0,0,1-.27,0,.52.52,0,0,1-.21-.37,2.24,2.24,0,0,1,.38.06.27.27,0,0,1,.11.13v-1c-.63-.06-.84-.74-.72-1.52l.36.63.44-.63.46.63L33,16.8c.12.8-.08,1.49-.74,1.52v.77a.22.22,0,0,1,.12-.16,1.15,1.15,0,0,1,.38-.06"/><path class="cls-2" d="M45.37,2.59h0a1,1,0,0,1-.19.43c.37.08.52-.14.62-.49a.51.51,0,0,0-.42,0m.19-.3a.25.25,0,0,0-.24,0,.5.5,0,0,1,0,.21l.12,0a.23.23,0,0,0,.07-.22M45.14,3.4a1.55,1.55,0,0,0,0,.43h.1a1,1,0,0,0,.27-.66.54.54,0,0,0-.35.23m0-1.16c-.28.21-.44.44-.19.75a1.82,1.82,0,0,0-.09.51A.65.65,0,0,0,44.47,3a1.11,1.11,0,0,0,.22.8h.37a1.6,1.6,0,0,1,.11-.92.63.63,0,0,0,.13-.3.4.4,0,0,0-.12-.37"/><path class="cls-1" d="M39.14,7.76c-.11.62-.48,1.18-1.1.92-.07,0-.13-.1-.2-.12s-.33.18-.43,0c.07-.09.23-.05.34-.06a2.4,2.4,0,0,0,.94-.33l0,0a2.18,2.18,0,0,1-.9.23.62.62,0,0,1,.35-.55c.3-.14.69,0,1-.07"/><path class="cls-1" d="M46.47,25.17c-.6.19-1.26.12-1.33-.54a.91.91,0,0,0,0-.23c0-.13-.3-.21-.2-.38.12,0,.16.17.22.26a2.37,2.37,0,0,0,.73.68h0a2.22,2.22,0,0,1-.63-.69.63.63,0,0,1,.65,0c.27.2.29.62.52.84"/><path class="cls-1" d="M42.65,22c-.44.45-1,.7-1.43.15,0-.06,0-.16-.1-.21s-.37,0-.36-.24c.12,0,.23.08.32.13a2.36,2.36,0,0,0,1,.25h0a2.27,2.27,0,0,1-.88-.31.62.62,0,0,1,.59-.27c.33.05.55.42.86.5"/><path class="cls-1" d="M42.25,27c-.61.17-1.27.08-1.31-.58,0-.08,0-.17,0-.23s-.3-.22-.19-.39c.12,0,.16.18.21.27a2.37,2.37,0,0,0,.71.7h0a2.06,2.06,0,0,1-.6-.7.63.63,0,0,1,.64.06c.26.21.27.64.5.86"/><path class="cls-1" d="M33.75,17.89c.4.49.58,1.13,0,1.44a2,2,0,0,0-.22.08c-.1.08-.07.36-.27.33,0-.12.1-.22.16-.31a2.35,2.35,0,0,0,.36-.93s0,0,0,0a2,2,0,0,1-.4.84.66.66,0,0,1-.2-.62c.09-.32.48-.5.59-.8"/><path class="cls-1" d="M54.73,7.09c-.12.62-.49,1.17-1.1.92-.07,0-.14-.1-.2-.12s-.33.17-.43,0c.07-.09.23-.06.34-.07a2.46,2.46,0,0,0,.94-.33l0,0a2,2,0,0,1-.9.23.65.65,0,0,1,.34-.55c.31-.13.69,0,1-.06"/><path class="cls-1" d="M50.87,9.35c-.58.25-1.24.26-1.38-.4a.9.9,0,0,0,0-.23c0-.12-.32-.17-.23-.35.11,0,.17.16.24.24a2.45,2.45,0,0,0,.8.59h0a2.15,2.15,0,0,1-.7-.62.61.61,0,0,1,.65,0c.29.17.36.59.61.78"/><path class="cls-1" d="M51.81,8.41c0,.39-.22.76-.62.65,0,0-.09-.06-.13-.06s-.19.13-.27,0S50.93,9,51,9a1.46,1.46,0,0,0,.56-.27h0a1.17,1.17,0,0,1-.54.2.39.39,0,0,1,.18-.36c.17-.11.43,0,.6-.11"/><path class="cls-1" d="M50.37,15.08c.11,1-.19,2-1.26,1.93a1.58,1.58,0,0,0-.36-.09c-.21,0-.42.42-.66.2.07-.17.33-.19.49-.26a3.89,3.89,0,0,0,1.29-.95s0,0,0,0a3.4,3.4,0,0,1-1.27.78,1,1,0,0,1,.27-1c.39-.36,1.07-.27,1.48-.57"/><path class="cls-1" d="M38.25,18.05c.73.71,1.13,1.69.25,2.28-.1.07-.25.09-.33.17s-.06.59-.39.57c-.06-.18.13-.36.22-.51A3.82,3.82,0,0,0,38.39,19s0,0,0,0a3.32,3.32,0,0,1-.49,1.4,1,1,0,0,1-.43-.94c.09-.53.67-.89.79-1.38"/><path class="cls-1" d="M51.17,20.07c-.09,1-.58,1.94-1.61,1.64-.11,0-.22-.14-.34-.15s-.49.33-.68.07c.1-.16.36-.13.53-.16a3.94,3.94,0,0,0,1.45-.68s0,0,0,0a3.47,3.47,0,0,1-1.39.52,1,1,0,0,1,.46-.93c.46-.28,1.1-.06,1.56-.27"/><path class="cls-1" d="M53.26,23.51c0,.45-.17.89-.64.8a1,1,0,0,0-.16,0c-.1,0-.2.16-.3.06s.15-.08.23-.1a1.79,1.79,0,0,0,.61-.36s0,0,0,0a1.46,1.46,0,0,1-.6.29.46.46,0,0,1,.17-.44c.19-.14.49-.07.68-.18"/><path class="cls-1" d="M49.1,24.22c-.14-.43-.1-.91.37-1,.06,0,.12,0,.17,0s.14-.22.27-.15-.12.11-.19.16a1.7,1.7,0,0,0-.47.53v0a1.76,1.76,0,0,1,.48-.46.45.45,0,0,1,0,.47c-.14.19-.44.22-.6.39"/><path class="cls-1" d="M57.39,13.18c0,.29-.11.56-.41.51,0,0-.06,0-.09,0s-.13.11-.19,0,.09,0,.14-.06a.93.93,0,0,0,.38-.23h0a.91.91,0,0,1-.37.18.26.26,0,0,1,.1-.27c.12-.09.31,0,.43-.12"/><path class="cls-1" d="M41.91,5.55c0,.29-.11.56-.41.51,0,0-.06,0-.09,0s-.13.11-.19,0,.09,0,.14-.06a.93.93,0,0,0,.38-.23h0a.91.91,0,0,1-.37.18.26.26,0,0,1,.1-.27c.12-.09.31,0,.43-.12"/><path class="cls-1" d="M33.49,16c0,.28-.11.56-.4.5l-.1,0c-.06,0-.13.1-.19,0s.1-.05.14-.06a1.38,1.38,0,0,0,.39-.23s0,0,0,0a1.11,1.11,0,0,1-.38.18.3.3,0,0,1,.1-.27c.12-.09.31,0,.43-.12"/><path class="cls-1" d="M56.19,19.6c0,.28-.11.55-.41.5,0,0-.06,0-.09,0s-.13.11-.19,0,.09,0,.14-.06a.93.93,0,0,0,.38-.23h0a.8.8,0,0,1-.37.18.26.26,0,0,1,.1-.27c.12-.09.31,0,.43-.11"/><path class="cls-1" d="M48.78,6.12c0,.28-.11.56-.4.5l-.1,0c-.06,0-.13.1-.19,0s.1,0,.15,0a1.33,1.33,0,0,0,.38-.23h0a1.11,1.11,0,0,1-.38.18.3.3,0,0,1,.1-.27c.12-.09.31,0,.43-.12"/><path class="cls-1" d="M38.56,1.59c.25-.13.54-.15.63.14,0,0,0,.07,0,.1s.15.06.12.15-.08-.07-.12-.1a1,1,0,0,0-.37-.24h0a.88.88,0,0,1,.33.25.27.27,0,0,1-.28,0c-.14-.07-.18-.25-.3-.33"/><path class="cls-1" d="M43.79,3.15c-.06-.28,0-.57.29-.57,0,0,.07,0,.11,0s.1-.13.17-.08-.08.07-.13.09a1.34,1.34,0,0,0-.33.3h0a1.06,1.06,0,0,1,.33-.25.3.3,0,0,1,0,.29c-.1.11-.3.1-.4.2"/><path class="cls-1" d="M39.06,5.63c-.06-.28,0-.57.29-.58,0,0,.07,0,.1,0s.11-.13.18-.07-.08.06-.13.09a1.14,1.14,0,0,0-.32.3h0a.93.93,0,0,1,.33-.25.29.29,0,0,1,0,.28c-.1.12-.29.11-.4.21"/><path class="cls-1" d="M38.11,22.53c0,.28-.11.56-.4.5l-.1,0c-.06,0-.13.1-.19,0s.1,0,.14-.06a1.07,1.07,0,0,0,.39-.22s0,0,0,0a1,1,0,0,1-.38.19.32.32,0,0,1,.1-.28c.12-.08.31,0,.43-.11"/><path class="cls-1" d="M39.4,24.49c-.1-.27-.09-.56.2-.61,0,0,.08,0,.11,0s.08-.14.16-.09-.07.07-.11.1a1,1,0,0,0-.28.35h0a1.18,1.18,0,0,1,.29-.3.27.27,0,0,1,0,.29c-.08.12-.27.15-.36.26"/><path class="cls-1" d="M52.29,24.74c-.48.35-1.08.49-1.34-.08,0-.07,0-.16-.06-.21s-.33-.09-.29-.28c.11,0,.19.11.27.17a2.27,2.27,0,0,0,.85.39s0,0,0,0A2,2,0,0,1,51,24.3a.61.61,0,0,1,.59-.15c.29.1.44.47.71.59"/><path class="cls-2" d="M48.33,2.23A1.1,1.1,0,0,0,48.1,2a1.58,1.58,0,0,0-.79-.26c-.23,0-.69,0-.92,0l.24-.88h-.07V.76a.11.11,0,0,1,.1-.11h1.88a.11.11,0,0,1,.11.11v.1h0l.12.94.66.05v.2a0,0,0,0,0,0,0V1.77h0V1.39h.12s0,0,0,0h-.08V1.17s0-.17.16-.17h.09v.17H49.6v.22h0v.38h0v.11l.33.05a.68.68,0,0,1,.51.34l-.34,0c-.07,0,0,.16.07.16l.3,0a.88.88,0,0,1,0,.17v.18A.84.84,0,0,0,50,2.56a.86.86,0,0,0-.76.48.84.84,0,0,0-.07.35.76.76,0,0,0,0,.15h-.87a.9.9,0,0,0,.09-.4h.23v0a1.57,1.57,0,0,0-.32-.87M47,.87v.59a.11.11,0,0,0,.11.12,1.79,1.79,0,0,1,1.35.63s0,.06.07.06h.1s0,0,0,0V2L48.46.87Zm-.61,1.18V1.92h-.16V1.79a5.6,5.6,0,0,1,1.61.13,1.24,1.24,0,0,1,.5.34,1.41,1.41,0,0,1,.3.84h-.18A1.13,1.13,0,0,0,47.29,2a1.15,1.15,0,0,0-.79.32Zm.94,0a1,1,0,0,1,0,2.08,1,1,0,1,1,0-2.08m0,.61a.43.43,0,0,1,.42.43.43.43,0,1,1-.85,0,.43.43,0,0,1,.43-.43m2.73,0a.74.74,0,1,1-.74.73A.74.74,0,0,1,50,2.66m0,.43a.31.31,0,1,1-.3.3.3.3,0,0,1,.3-.3m-3.73-.43H46.1v.15H46v0h-.24V3H46V3h.1V3h.1a1.18,1.18,0,0,1,.09-.38"/><path class="cls-1" d="M35.91,13.83c0,.52-.31,1-.83.84a1.42,1.42,0,0,0-.18-.08c-.11,0-.25.17-.35,0,.05-.08.18-.06.27-.08a2,2,0,0,0,.75-.34l0,0a1.93,1.93,0,0,1-.73.26A.53.53,0,0,1,35.1,14c.24-.14.58,0,.81-.13"/><path class="cls-1" d="M52.23,3.17c.42-.12.87-.07.9.38,0,.05,0,.12,0,.16s.2.15.13.26-.11-.12-.15-.18a1.69,1.69,0,0,0-.49-.47h0a1.52,1.52,0,0,1,.42.48.41.41,0,0,1-.44,0c-.18-.14-.19-.43-.35-.58"/><path class="cls-1" d="M47.86,17c-.38.36-.9.55-1.18.08,0-.05,0-.13-.08-.17s-.3-.05-.29-.21.18.07.26.12a1.85,1.85,0,0,0,.79.23h0a1.7,1.7,0,0,1-.71-.28.51.51,0,0,1,.5-.2c.27,0,.44.36.69.43"/><path class="cls-1" d="M50.89,19.71c-.47.23-1,.26-1.15-.28,0-.06,0-.14,0-.19s-.28-.13-.21-.29c.1,0,.15.13.21.2a2,2,0,0,0,.68.46s0,0,0,0a1.67,1.67,0,0,1-.59-.48.49.49,0,0,1,.53,0c.24.13.32.47.53.62"/><path class="cls-1" d="M34.6,9.14c-.06.32-.26.6-.57.46,0,0-.07,0-.11-.06s-.16.09-.22,0,.12,0,.18,0a1.23,1.23,0,0,0,.49-.16h0a1.2,1.2,0,0,1-.47.11.35.35,0,0,1,.18-.28c.16-.07.36,0,.51,0"/><path class="cls-1" d="M31.92,8.45c-.11-.31-.09-.65.25-.7h.12c.07,0,.1-.16.19-.11s-.08.09-.13.12a1.23,1.23,0,0,0-.33.39v0a1,1,0,0,1,.34-.34.29.29,0,0,1,0,.33c-.1.14-.32.17-.42.29"/><path class="cls-1" d="M33,10c-.11-.3-.09-.64.25-.69h.12c.07,0,.1-.16.19-.11s-.09.08-.13.12a1.17,1.17,0,0,0-.34.39h0a1.07,1.07,0,0,1,.34-.33.3.3,0,0,1,0,.33c-.1.14-.32.16-.42.28"/><path class="cls-1" d="M34.48,5c-.07.32-.26.6-.58.46l-.1-.06c-.07,0-.17.09-.22,0s.12,0,.17,0a1.19,1.19,0,0,0,.49-.17h0a1,1,0,0,1-.46.12A.29.29,0,0,1,34,5c.15-.07.35,0,.51,0"/><path class="cls-1" d="M45.83.22c0,.52-.31,1-.84.84-.06,0-.12-.08-.18-.08s-.25.16-.35,0,.19-.06.28-.08a2.12,2.12,0,0,0,.75-.34s0,0,0,0a1.82,1.82,0,0,1-.72.26A.5.5,0,0,1,45,.35c.24-.14.57,0,.81-.13"/><path class="cls-1" d="M33.29,11.26c.73-.06,1.46.19,1.36,1,0,.09-.07.18-.06.26s.29.32.12.48c-.13-.05-.13-.24-.17-.36a2.85,2.85,0,0,0-.66-.95s0,0,0,0a2.4,2.4,0,0,1,.53.94.74.74,0,0,1-.72-.22c-.25-.3-.16-.79-.37-1.09"/><path class="cls-1" d="M33.58,13c0,.52.26,1,.8.88.06,0,.12-.07.18-.07s.24.17.35,0c0-.08-.18-.07-.27-.09a1.89,1.89,0,0,1-.73-.38l0,0a1.67,1.67,0,0,0,.71.29.5.5,0,0,0-.22-.48c-.23-.15-.57-.05-.8-.17"/><path class="cls-1" d="M51.1,1.61c-.42.73-.53,1.61.32,1.9.09,0,.22,0,.3.06s.18.45.44.37c0-.16-.19-.26-.29-.36a3.36,3.36,0,0,1-.66-1.16s0,0,0,0a3,3,0,0,0,.71,1,.84.84,0,0,0,.14-.86c-.19-.4-.74-.56-.95-.93"/><path class="cls-1" d="M52,18.93c-.44.29-.74.74-.35,1.13,0,.05.11.07.15.12s0,.3.13.33,0-.2,0-.28a2.07,2.07,0,0,1-.05-.82,0,0,0,0,0,0,0,1.85,1.85,0,0,0,.11.76.51.51,0,0,0,.31-.43c0-.28-.24-.52-.26-.78"/><path class="cls-1" d="M48.63,21c-.48-.19-1-.18-1.12.37a1.21,1.21,0,0,1,0,.19c0,.1-.27.15-.19.3.1,0,.14-.14.2-.21a2,2,0,0,1,.64-.51h0a1.66,1.66,0,0,0-.56.53.52.52,0,0,0,.53,0c.23-.15.28-.5.48-.66"/><path class="cls-1" d="M41,6c-.78-.31-1.67-.29-1.82.59,0,.1,0,.23,0,.31s-.43.25-.3.49c.15,0,.22-.22.31-.34a3.47,3.47,0,0,1,1-.83h0a2.94,2.94,0,0,0-.9.86.86.86,0,0,0,.87,0c.37-.24.44-.81.77-1.07"/><path class="cls-1" d="M51,21.64c.47.19,1,.17,1.09-.36a1.15,1.15,0,0,1,0-.19c0-.1.25-.15.17-.29s-.13.13-.18.2a2.17,2.17,0,0,1-.62.51h0A1.67,1.67,0,0,0,52,21a.48.48,0,0,0-.52,0c-.22.14-.27.48-.46.64"/><path class="cls-1" d="M35.28,23.79c0,.52.26,1,.79.88.06,0,.12-.07.18-.07s.25.18.35,0c-.05-.09-.18-.08-.27-.1a2,2,0,0,1-.73-.37s0,0,0,0a1.68,1.68,0,0,0,.71.3.52.52,0,0,0-.22-.49c-.23-.15-.57-.05-.8-.17"/><path class="cls-1" d="M38.94,25.63c0,.52.26,1,.8.88.06,0,.12-.07.18-.07s.24.18.35,0c-.05-.08-.19-.07-.27-.09a2,2,0,0,1-.74-.38s0,0,0,0a1.82,1.82,0,0,0,.71.3.52.52,0,0,0-.22-.49c-.23-.15-.57-.05-.8-.17"/><path class="cls-1" d="M32.89,19.72c-.45.27-.78.71-.4,1.12,0,0,.11.07.14.12s0,.3.13.33,0-.19,0-.28a1.89,1.89,0,0,1,0-.82s0,0,0,0a1.88,1.88,0,0,0,.08.77.55.55,0,0,0,.33-.42c0-.28-.23-.53-.23-.79"/><path class="cls-2" d="M33.9,20.2a1.45,1.45,0,0,0,.1.18,1.63,1.63,0,0,1,.11.17s0,0,.06,0l.15-.23a.56.56,0,0,0,.11-.4,1,1,0,0,0-.17-.33l-.12-.15h0s0,0,0,0h0c-.16.28-.35.38-.19.75m.17,1a.88.88,0,0,0-.12-.7.63.63,0,0,0-.28-.2.49.49,0,0,1-.26-.19s0,0,0,0a.89.89,0,0,0,0,.56.57.57,0,0,0,.31.32,1.21,1.21,0,0,1,.36.21h0m0,.78A.9.9,0,0,0,34,21.3a.61.61,0,0,0-.28-.19.55.55,0,0,1-.26-.19s0,0,0,0a.89.89,0,0,0,0,.56.6.6,0,0,0,.31.32,1,1,0,0,1,.36.21h0m0,.77a.88.88,0,0,0-.12-.7.54.54,0,0,0-.28-.19.55.55,0,0,1-.26-.19s0,0,0,0a.89.89,0,0,0,0,.56.64.64,0,0,0,.31.32.89.89,0,0,1,.36.21h0m.14-1.55a.88.88,0,0,1,.12-.7.63.63,0,0,1,.28-.2.49.49,0,0,0,.26-.19s0,0,0,0a.89.89,0,0,1,0,.56.57.57,0,0,1-.31.32,1.21,1.21,0,0,0-.36.21h0m0,.78a.9.9,0,0,1,.12-.71.61.61,0,0,1,.28-.19.55.55,0,0,0,.26-.19s0,0,0,0a.89.89,0,0,1,0,.56.6.6,0,0,1-.31.32,1,1,0,0,0-.36.21h0m0,.77a.88.88,0,0,1,.12-.7.54.54,0,0,1,.28-.19.55.55,0,0,0,.26-.19s0,0,0,0a.89.89,0,0,1,0,.56.64.64,0,0,1-.31.32.89.89,0,0,0-.36.21h0"/><path class="cls-2" d="M50.2,17.43a.26.26,0,0,0,0,.09.35.35,0,0,0,0,.08s0,0,0,0l.07-.1a.38.38,0,0,0,.05-.19.63.63,0,0,0-.08-.15l-.06-.08h0s0,0,0,0h0c-.08.13-.17.18-.09.35m.08.49a.42.42,0,0,0-.06-.33.32.32,0,0,0-.13-.1s-.1,0-.12-.08,0,0,0,0a.46.46,0,0,0,0,.26.26.26,0,0,0,.14.15.42.42,0,0,1,.17.1h0m0,.36a.44.44,0,0,0-.06-.33.3.3,0,0,0-.13-.09s-.1,0-.12-.09h0A.5.5,0,0,0,50,18a.29.29,0,0,0,.14.15.56.56,0,0,1,.17.09h0m0,.37a.43.43,0,0,0-.06-.33.24.24,0,0,0-.13-.09.27.27,0,0,1-.12-.09s0,0,0,0a.46.46,0,0,0,0,.26.26.26,0,0,0,.14.15.42.42,0,0,1,.17.1s0,0,0,0m.06-.73a.47.47,0,0,1,.06-.33.32.32,0,0,1,.13-.1.35.35,0,0,0,.13-.08h0a.34.34,0,0,1,0,.26.26.26,0,0,1-.14.15.42.42,0,0,0-.17.1h0m0,.36A.49.49,0,0,1,50.4,18a.3.3,0,0,1,.13-.09.28.28,0,0,0,.13-.09h0a.36.36,0,0,1,0,.27.29.29,0,0,1-.14.15.56.56,0,0,0-.17.09h0m0,.37a.48.48,0,0,1,.06-.33.24.24,0,0,1,.13-.09.38.38,0,0,0,.13-.09h0a.34.34,0,0,1,0,.26.26.26,0,0,1-.14.15.42.42,0,0,0-.17.1s0,0,0,0"/><path class="cls-1" d="M47.8,5.08a.27.27,0,0,0-.21.12,1.16,1.16,0,0,1,.15.58.78.78,0,0,1-.13.48.41.41,0,0,0,.19,0c.24,0,.42-.15.42-.53s-.22-.69-.42-.69m.3.62a0,0,0,0,1,0,0,.7.7,0,0,0-.14-.42s0,0,0,0a0,0,0,0,1,0,0,.85.85,0,0,1,.15.44s0,0,0,0"/><path class="cls-1" d="M47.55,5.25A.44.44,0,0,0,47.21,5c-.22,0-.47.35-.47.78s.21.61.47.61a.43.43,0,0,0,.35-.16.71.71,0,0,0,.13-.45,1.07,1.07,0,0,0-.14-.53m0,.45h0a0,0,0,0,1,0,0,.87.87,0,0,0,0-.28.56.56,0,0,0-.11-.2,0,0,0,0,1,0-.05h0a.77.77,0,0,1,.1.18,1,1,0,0,1,.07.32s0,0,0,0"/><path class="cls-2" d="M52.5,13.33v.86h-.4v-.71h-.82v.71h-.42v-.86l.08-.27.08-.27.33-.12.33-.12.33.12.32.12.09.27Zm-1.83-.05.11,0,.19-.6.71-.24.71.24.19.6.12,0-.2-.62v0h0l-.78-.27-.78.27h0v0Zm.85-.18h.29v-.29h-.29Zm.52.51-.12.22.12.22Zm0,.55-.15-.27-.14.27Zm-.32-.09.14-.24-.14-.25Zm0-.53.12.23.13-.23Zm-.1.05-.13.24.13.23Zm0,.57-.15-.27-.14.27Zm-.31-.1.13-.23-.13-.23Zm0-.52.12.23.13-.23Z"/><path class="cls-1" d="M51.75,15.47a.37.37,0,0,0,0,.08s0,.12,0,.12l0,0s0,0,0-.08l0-.09m-.9-.52s0,0,0,.1a2.27,2.27,0,0,1,0,.24.37.37,0,0,1,0,.12.08.08,0,0,0,0,.08s0,0,0,0a.1.1,0,0,0,0,0v0a.18.18,0,0,1,0-.06.36.36,0,0,0,0-.11c0-.05,0-.09,0-.13s0-.11,0-.18a.71.71,0,0,1,0-.12v0a.54.54,0,0,0,0,.15c0,.05,0,.09,0,.11a.12.12,0,0,0,0,0,.29.29,0,0,0,0,.08l0,.06s0,0,0,.06a.21.21,0,0,1,0,.08s0,.06,0,.09,0,0,0,0h0s0,0,0,0l.05,0s.06,0,0,0l0,0,0,0a.12.12,0,0,1,0-.07.31.31,0,0,1,0-.1.36.36,0,0,0,0-.07l0,0h0s0,0,0,0,0,0,0,0l0,.08s0,.09,0,.11,0,0,0,0,0,0,0,0,0,0,0,0h.06s0,0,0,0l0,0,0,0a.19.19,0,0,1,0-.1l0-.07v0h0v0h0v0s0,0,0,0l0,0,0,0,0,0h0s0,0,.07,0l.11,0,.11,0h.07a.26.26,0,0,0,0,.09s0,.1,0,.12a.44.44,0,0,0,0,.1h0s0,0,0,0,0,0,0,0h.06a0,0,0,0,0,0,0h.06l0,0s0,0,0-.05,0-.06,0-.09a.1.1,0,0,0,0,0,.12.12,0,0,0,0,0s0,0,0-.06a.14.14,0,0,0,0,0,.08.08,0,0,0,0,0,.47.47,0,0,0,.06-.09s0-.07,0-.09l.08-.12.05-.08h0a.05.05,0,0,0,0,0h.18s0-.05,0-.06l0,0-.06-.07a.2.2,0,0,0,0-.05h.05a0,0,0,0,0,0,0h0a.14.14,0,0,0-.06,0H52.1v0h0l-.08,0-.13.05h0a.46.46,0,0,0-.15,0l-.22,0h-.55s0,0,0,.05Z"/><path class="cls-2" d="M47.2,22.22a.12.12,0,0,1,.17.05.14.14,0,0,1-.06.18,1.33,1.33,0,0,1-.8.22,0,0,0,0,0,0,.06,1.84,1.84,0,0,0,.87-.2.13.13,0,0,1,.17.08.13.13,0,0,1-.08.17,2.06,2.06,0,0,1-.92.21,0,0,0,0,0,0,.05,1.79,1.79,0,0,0,.75-.12.12.12,0,0,1,.16.08.14.14,0,0,1-.09.17,1.9,1.9,0,0,1-.85.13s0,0,0,0a1.84,1.84,0,0,0,.66,0,.13.13,0,0,1,.16.1.15.15,0,0,1-.11.16,6.45,6.45,0,0,1-1.17.08c-.42,0-.74-.06-.74-.6v-.15a.77.77,0,0,1,.49-.64,1.11,1.11,0,0,1,.21-.08c.12-.06.13-.1.22-.19a.56.56,0,0,1,.2-.14.11.11,0,0,1,.11,0,.27.27,0,0,1,0,.28l-.21.21s0,0,0,0a1.25,1.25,0,0,0,.87-.17m-1.28,1a.08.08,0,0,0,0,.07.16.16,0,0,0,.13.05.14.14,0,0,0,.15-.09.38.38,0,0,0,.06-.13s0,0,0,0-.16,0-.23,0a.24.24,0,0,0-.1.12m.36,1.06a.08.08,0,0,0,0,.05.19.19,0,0,0,.12-.06.14.14,0,0,0,0-.17.39.39,0,0,0-.06-.13h0c-.07.06-.14.09-.17.16a.23.23,0,0,0,0,.16m-.2-.23a.06.06,0,0,0,.06,0,.16.16,0,0,0,0-.14.15.15,0,0,0-.13-.13h-.15c0,.09,0,.16,0,.22a.19.19,0,0,0,.15.06"/><path class="cls-2" d="M38.89,3.78a.12.12,0,0,1,.16.05A.12.12,0,0,1,39,4a1.16,1.16,0,0,1-.7.2s0,.05,0,.05a1.75,1.75,0,0,0,.76-.17.11.11,0,0,1,.15.07.1.1,0,0,1-.07.14,1.8,1.8,0,0,1-.8.19,0,0,0,1,0,0,0A1.49,1.49,0,0,0,39,4.39a.12.12,0,0,1,.15.08.13.13,0,0,1-.08.15,1.76,1.76,0,0,1-.75.11,0,0,0,1,0,0,0,1.89,1.89,0,0,0,.58,0,.13.13,0,0,1,.14.09.13.13,0,0,1-.1.14,5.7,5.7,0,0,1-1,.07c-.37,0-.65,0-.65-.53V4.37a.71.71,0,0,1,.42-.57.84.84,0,0,0,.19-.07c.11,0,.11-.08.19-.16a.71.71,0,0,1,.18-.12.09.09,0,0,1,.09,0,.23.23,0,0,1,0,.25,1.53,1.53,0,0,1-.18.18s0,0,0,0a1,1,0,0,0,.76-.15m-1.11.9a.07.07,0,0,0,0,.06.14.14,0,0,0,.11,0c.08,0,.11,0,.14-.07a.61.61,0,0,0,0-.12h0c-.08,0-.14,0-.2,0a.18.18,0,0,0-.08.11m.31.92a.07.07,0,0,0,0,.05s.07,0,.11-.05a.12.12,0,0,0,0-.15.43.43,0,0,0-.05-.12h0c-.06,0-.13.08-.15.13a.22.22,0,0,0,0,.14m-.18-.19H38a.16.16,0,0,0,0-.12c0-.07,0-.1-.11-.12h-.12s0,0,0,0,0,.14,0,.19a.2.2,0,0,0,.13.06"/><rect class="cls-1" x="40.6" y="24.1" width="1.41" height="0.18" transform="translate(-5.01 36.29) rotate(-45)"/><path class="cls-1" d="M40.92,24.87l-.08-.08-.13-.13-.08-.08a.38.38,0,0,0-.53,0l-.56.56.8.8.56-.56a.38.38,0,0,0,0-.53"/><path class="cls-1" d="M41.93,23l-.19.19,0,.37.06.07.13.13.06.06.37,0,.2-.2Zm.33.63-.24,0-.14-.15v-.24l0,0,.37.36Z"/><rect class="cls-1" x="40.48" y="1.23" width="0.98" height="0.13"/><path class="cls-1" d="M40.45,1.44V1.15a.26.26,0,0,0-.27-.24h-.55v.78h.55a.26.26,0,0,0,.27-.25"/><path class="cls-1" d="M41.88,1h-.19l-.2.17v.25l.2.17h.19Zm-.15.48-.12-.11V1.22l.12-.1h0v.36Z"/><path class="cls-1" d="M36.69,4.26h0m-.18.12h0m.19-.55h0s0,0,0,0h0s0,0-.07,0,0,0,0,0l-.07.06h0s0,0,0,.05,0,0,0,.06,0,0,0,0h0s0,0,0,0l.08,0s0,0,0,0L36.66,4s.05,0,0,0,0,0,0,0,0,0,0,0h0v0h0s0,0,0,0,0,0,0,0h0m-.14.59h0m-.06-.25,0,0,0,0h0l0,0h0s0,0,0,0,0,0,0,0v0h0s0,0,0,0h0l0,0s0,0,0,0v0s0,0,0,0,0,0,0,0,0,0,0,0h0l0,0h0l0,0s0,0,0,0,0,0,0,0l.05-.06s0,0,0,0v0h0l0,0s0,0,0,0h0s0,0,0,0v0h0l0,0h0s0,0,0,0h0V4s0,0-.05,0,0,.06-.07.07-.06,0-.09,0-.06,0-.05,0,0,0,0,0,0,0,0,0,0-.07-.06-.07,0,0,0,.08l.17.13s.07,0,.06.06a.14.14,0,0,0,0,.06s0,0,.05,0,.07.08.09.12l0,0s0,0,0,0,.09.09.09,0,0,0-.05,0v0h0l0,0h0s0,0,0,0h0s0,0,0,0,0,0,0,0h0s0,0,0,0,0,0,0,0,0,0,0,0l-.06,0,.07,0h0s0,0,0,0,0,0,0,0h0v0h0s0,0,0,0h0s0,0,0,0v0h0s0,0,0,0,0,0-.06,0l0,0h0s-.05,0-.06,0l0,0,0,0s0,0,0,0h0l0,0h0s0,0,0,0h0l0,0s0,0,0,0,0,0,0,0,0,0,0,0h0s0,0,0,0h0s0,0,0,0l0,0h0l0,0h0s0,0,0,0h0v0h0s0,0,0,0l0,0s0,0,0,0l0,0,0,0,0,0s0,0,0,0h0l0,0h0m0,.21h0m.18-.11h0s0,0,0,0h0m-.15.05s0,0,0,0,0,0,0,0h0m.14-.23s0,0,0,0h0v.06s0-.11,0-.11,0,0,0,0a0,0,0,0,0,0,0s0,0,0,0h0v0s0,0,0,0v0h0s0,0,0,0a0,0,0,0,0,0,0h0s0,0,0,0,0,0,0,0h0s0,0,0,0v0s0,0,0,0l0,0,0,0s0,0,0,0h0v0h0v0s0,0,0,0a.1.1,0,0,0,0,0s0,.06,0,.06h0s0,0,0,0,0,0,0,0,0,0,0,0h0a.7.7,0,0,1,.08-.1h0l.1-.09h0s0,0,0,0,0,0,0,0h0s0-.11,0,0-.11,0-.15,0h0s0,0,0,0,0,0,0,0V4h0s-.06,0-.06,0h0v0h0v0h0s0,0,0,0h0m.38-.19,0,0h0s0,0,.06,0,0-.07,0-.08,0,0,0,0,0,0,0,0l0,0s-.08.05-.08.06,0,0,0,0,0,0,0,.05,0,0,0,0A.19.19,0,0,0,37,4s0,0,0,0,0-.05,0,0h0l0,0s0,0,0,0l0,0s0,0,0,0h0m-.53.42h0s0,0,0,0,0,0,0,0h0m.16-.12s0,0,0,0,0,0,0,0h0m0-.1h0v0s0,0,0,0h0m-.24.06s0,0,0,0l0,0,0,0,0,0h0m.25,0h0v0s0,0,0,0h0m0-.17s0,0,0,0,0,0,0,0h0m-.12.28h0s0,0,0,0h0m-.07-.11h0s0,0,0,0h0s0,0,0,0l.05,0h0m-.12-.76c0-.06-.09,0-.07.08s.06.07.08.12,0,0,0,0,0,0,0,0a.09.09,0,0,1,0,0s0,0,0,0a.13.13,0,0,0,0-.12h0m.28-.08c-.07-.07-.08.08-.07.12l0,0a.13.13,0,0,0,0,.09s0,0,0,0,0,0,0-.06,0-.11,0-.14h0m-.5.3c0-.06-.1,0-.06.08a.12.12,0,0,0,.07,0s0,0,0,0,.09.08.07,0l0,0,0,0h0v0s0-.08,0-.09h0m.49.09s0,.07,0,0,0,0,0-.06,0-.1,0-.09h0s0,0,0,0,0,0,0,0h0m-.18.09s0-.09,0-.11,0,0-.06,0,0,.08.05.1h0m-.12.1s0-.08-.07,0,.12.08.07,0h0m.06.1a.11.11,0,0,0,0,0s0,0,0,0a0,0,0,0,1,0,0h0m0-.36h0s0,0,0,0h0m.25.7h0s0,0,0,0h0s0,0,0,0h0m-.2-.25s0,0,0,0,0,0,0,0h0m.21.23s0,0,0,0h0m0,0v0s0,0,0,0h0m-.2.11h0s0,0,0,0h0m.19-.21v0s0,0,0,0h0m0-.07s0,0,0,0,0,0,0,0h0m-.17.12h0m0-.1s0,0,0,0h0m0,.25s0,0,0,0h0m.17-.2h0s0,0,0,0h0m-.06.14h0m.08-.19h0s0,0,0,0h0m-.22.07h0m.23,0h0s0,0,0,0h0m0,.1v0s0,0,0,0h0m0,0s0,0,0,0h0m0-.18h0m-.17.11h0m.17-.06h0s0,0,0,0h0m0,0a0,0,0,0,0,0,0v0h0m0,.08s0,0,0,0h0m-.24-.12h0m0-.13h0m.21.27a0,0,0,0,0,0,0h0m0,0h0m.17-.09h0m-.12.09h0m0-.28s0,0,0,0h0m.11.25s0,0,0,0h0M36.42,4h0m.18.32h0m-.09-.18s0,0,0,0h0m.21.18s0,0,0,0h0m-.15-.06s0,0,0,0h0m-.06,0h0m.08,0s0,0,0,0h0m-.08-.14h0m.18,0h0m0,.2h0m-.2-.18h0m0-.11h0m0,.13h0m.15.13h0m0,0s0,0,0,0h0m-.16,0s0,0,0,0h0m.2-.13h0m.31-.23h0m-.35.33h0m0,.09h0m0-.11h0m-.11.13h0m.21,0h0m-.13,0h0m-.19-.18s0,0,0,0h0m0,0s0,0,0,0h0m0,.09h0m.16,0h0m0,0s0,0,0,0h0m.06.08h0m-.11-.09s0,0,0,0h0M37,4s0,0,0,0h0m-.46.33s0,0,0,0h0m-.07-.18s0,0,0,0h0m.22.11h0m-.15.08s0,0,0,0h0m-.06-.17s0,0,0,0h0m0,.19h0m.14,0h0m-.17,0s0,0,0,0h0m.2-.44h0m0-.07h0m0,.33h0M37,3.94s0,0,0,0h0m-.38.33s0,0,0,0h0m0,0h0m0,0s0,0,0,0h0M36.6,4h0m-.08.12h0m.15.15h0m-.11.11s0,0,0,0h0m.14,0h0m-.13-.05h0m0,0h0m0,0h0m.2-.13h0m-.23-.15h0m0,.05h0m0,.18h0m0,0h0m0,.08h0m.15-.56h0m-.11.42s0,0,0,0h0m.09-.06h0m.09.15h0m-.09,0h0m0-.05h0m-.1,0h0m-.13-.22h0m.09.17h0m0,.17h0m.15-.15h0M37,3.93s0,0,0,0h0m-.32.38h0m.34-.39h0m-.49.35h0m.13.09h0m-.15-.05h0M36.72,4s0,0,0,0h0m-.18.35h0m0-.15h0m-.07,0s0,0,0,0h0m.29.1h0m-.25-.2h0m0,0h0m0,0h0m.22-.24h0m.25.33h0m-.36.14h0m.13-.13s0,0,0,0h0m-.19.17h0m.06,0h0m-.1-.06h0m.08,0h0m0,.08h0m.2-.42h0m-.18.3h0m0,0h0m.1,0h0m-.14-.17h0m0,0h0m.24-.24h0m-.14.36h0m-.09-.19h0"/><path class="cls-2" d="M36.44,4.21s0,0,0,0,0,0,0,0h0v0s0,0,0,0h0a0,0,0,0,1,0,0h0l0,0h0l0,0,0,0h0s0,0,0,0l0,0,0,0,0,0s0,0,0,0l0,0h0s0,0,0,0,0,0,0,0v0h0s0,0,0,0h0l0,0h0l0,0h0s0,0,0,0,.05,0,0,0,0,0,0,0,0,0,0,0l0,0s-.06,0-.06,0,0,0,0,0l0,0,0,0,0,0s0,0,.06,0h0l0,0,.06,0s0,0,0,0,0,0,0,0h0s0,0,0,0h0s0,0,0,0,0,0,0,0h0v0h0s0,0,0,0,0,0,0,0l-.07,0,.06,0s0,0,0,0l0,0h0l0,0h0s0,0,0,0h0l0,0h0s0,0,0,0,.05,0,.05,0-.15,0-.09,0h0s0,0,0,0a.39.39,0,0,1-.08-.1.36.36,0,0,1-.07-.1s0,0,0,0l0,0s0,0-.07-.05A.34.34,0,0,1,36.07,4s-.08-.09,0-.09.09,0,.07.07,0,0,0,0,0,0,0,0,0,0,.05,0,0,.07.09,0,0-.07.07-.07,0,0,.05,0v0h0s0,0,0,0h0l0,0h0s0,0,0,0v0h0s0,0,0,0l0,0s0,.05,0,0h0l0,0a0,0,0,0,0,0,0s-.05,0-.05.06h0l0,0,0,0,0,0h0s0,0,0,0,0-.05,0,0,0,0,0,0v0s0,0,0,0h0m0,0h0s0,0,0,0l0,0,0,0,0,0s0,0,0,0h0s0,0,0,0h0m.06.06h0s0,0,0,0h0v0s0,0,0,0h0s0,0,0,0l0,0m-.1-.07h0s0,0,0,0h0s0,0,0,0h0m0,0h0s0,0,0,0h0m0,0h0s0,0,0,0h0m0,0v0h0m0,0s0,0,0,0h0m0-.12h0m.07.18h0s0,0,0,0h0m0-.11s0,0,0,0a0,0,0,0,0,0,0h0m0,0,0,0,0,0s0,0,0,0m.1.09h0s0,0,0,0h0m0,0s0,0,0,0h0m-.08,0h0m.06,0s0,0,0,0v0h0m0,0h0m-.07,0v0m0-.08h0m0,0h0m.08.13h0m-.06-.14h0m0,0c-.06,0,0,0,0,0h0m0,.07h0m0-.06h0m0,.07h0m0,0h0m0,.09h0m0,0h0m0,0s0,0,0,0h0m-.07-.07s0,0,0,0h0m.07.06h0m0,0h0m0,0h0m-.05,0h0m.11.06s0,0,0,0h0m-.09-.08h0m0-.15h0m0,.16h0m0-.09h0m0,.1h0m0-.09h0m0,0h0m0,0h0m.08.23h0m0-.09h0m-.09,0h0m0,0h0m.09.09h0m0,0h0"/><path class="cls-2" d="M36.77,4l0,0s0,0,0,0h0s0,0,.05,0,0,0,0,0H37S37,4,37,4s0,0,0,0l0,0h0l0,0h-.06l-.1.09h0a.7.7,0,0,0-.08.1h0s0,0,0,0,0,0,0,0h0s0,0,0,0,0,0,0,0h0s0-.06,0-.06,0,0,0,0,0,0,0,0h0l0,0h0s0,0,0,0v0h0v0h0a0,0,0,0,1,0,0s0,0,0,0,0,0,0,0,0,0,0,0v0h0s0,0,0,0h0v0h0l0,0h0s0,0,0,0,0,0,0,0,0,0,0,0v0s0,0,0,0h0s0,0,0,0h0V4h0V4h0s0-.08.06,0h0V4h0m0,.08h0m0,.06s0,0,0,0h0m0,0h0m0,.14h0s0,0,0,0,0,0,0,0h0m0,0v0h0m0-.13s0,0,0,0h0m0,0h0m-.08,0h0m0,.23h0m0,0h0m0-.17h0m-.07,0h0m0,.15h0M37,4.08h0"/><path class="cls-2" d="M36.68,3.8s0,0,0,0h0s0,0,0,0h0s.06,0,0,0h0s0,0,0,0h0s-.09.1-.11.11,0,0,0,0L36.5,4s0,0,0,0h0s0,0,0,0,0-.09,0-.06,0,0,0-.05h0a.73.73,0,0,1,.09-.08h0M36.51,4h0m.2-.12s0,0,0,0h0M36.52,4h0"/><path class="cls-2" d="M36.37,3.4a.15.15,0,0,1,0,.11s0,.05,0,.08,0,0,0,.05,0,0,0,0a1.25,1.25,0,0,0-.08-.12s0-.17.06-.1h0"/><path class="cls-2" d="M37,3.93V4s0,0,0,0,0,0,0,0V4a.19.19,0,0,1,0-.09s0,0,0,0l0,0a.17.17,0,0,1,0-.07s.07-.08.08-.06,0,0,0,0,0,0,0,0a.43.43,0,0,1,0,.05s0,.06,0,.08,0,0-.06.06h0s0,0,0,0h0s0,0,0,0l0,0"/><path class="cls-2" d="M36.65,3.32s0,.11,0,.14,0,0,0,.06,0,0,0,0a.13.13,0,0,1,0-.09l0,0s0-.19.07-.12h0"/><path class="cls-2" d="M36.15,3.62s.05.07,0,.09v0h0l0,0,0,0s0,0,0,0-.05,0-.05,0l-.09-.07c-.06,0,0-.15,0-.09h0"/><path class="cls-2" d="M36.64,3.71s0-.1,0-.09,0,0,0,0,0,.05,0,.05,0,0,0,.06,0,0,0,0h0"/><path class="cls-2" d="M36.46,3.8s-.05,0-.05-.09l0,0s0,0,0,0,0,.13,0,.12h0"/><path class="cls-2" d="M36.34,3.9s0,0,0,0l-.05,0a0,0,0,0,1,0,0s0,0,0,0l0,0h0"/><path class="cls-2" d="M36.4,4h0V4s0-.06,0,0,0,0,0,0h0"/><path class="cls-2" d="M36.73,4.11s0-.06,0,0h0v0s0,0,0,0h0"/><path class="cls-2" d="M36.47,4.16h0l-.05,0,0,0"/><path class="cls-2" d="M36.44,3.64s0,0,0,0h0"/><path class="cls-2" d="M36.56,4.27h0s-.08,0,0,0h0"/><path class="cls-2" d="M36.68,4l0,0s0,0,0,0"/><path class="cls-2" d="M36.7,4.1s0,.05,0,.05V4.1h0"/><path class="cls-2" d="M36.69,4.34s0,0,0,0h0s0,0,0,0h0"/><path class="cls-2" d="M36.72,4.2h0l0,0h0s0,0,0,0h0"/><path class="cls-2" d="M36.72,4.18h0s0,0,0,0,0,0,0,0h0"/><path class="cls-2" d="M36.49,4.09v0s0,0,0,0h0"/><path class="cls-2" d="M36.46,4.11h0s0,0,0,0,0,0,0,0m0,0h0"/><path class="cls-2" d="M36.51,4.23l0,0s0,0,0,0h0s0,0,0,0h0"/><path class="cls-2" d="M36.7,4.15s0,0,0,0v0"/><path class="cls-2" d="M36.46,4.25h0s0,0,0,0"/><path class="cls-2" d="M36.53,4.27h0"/><path class="cls-2" d="M36.7,4.32h0s0,0,0,0h0"/><path class="cls-2" d="M36.45,4.16l0,0s0,0,0,0"/><path class="cls-2" d="M36.72,4.3h0s0,0,0,0v0h0"/><path class="cls-2" d="M36.71,4.23s0,0,0,0v0"/><path class="cls-2" d="M36.52,4.41s0,0,0,0h0"/><path class="cls-2" d="M36.46,4.21h0"/><path class="cls-2" d="M36.71,4.2s0,0,0,0v0h0"/><path class="cls-2" d="M36.51,4.25h0"/><path class="cls-2" d="M36.48,4.37s0,0,0,0h0s0,0,0,0"/><path class="cls-2" d="M36.73,4.15s0,0,0,0h0"/><path class="cls-2" d="M36.7,4.13s0,0,0,0,0,0,0,0h0"/><path class="cls-2" d="M36.71,4.15s0,0,0,0,0,0,0,0"/><path class="cls-2" d="M36.69,4.1s0,0,0,0v0"/><path class="cls-2" d="M36.53,4.25h0"/><path class="cls-2" d="M36.51,4.15h0s0,0,0,0h0"/><path class="cls-2" d="M36.51,4.23h0"/><path class="cls-2" d="M36.45,4.1v0s0,0,0,0h0"/><path class="cls-2" d="M36.51,4.2h0"/><path class="cls-2" d="M36.53,4.4h0s0,0,0,0h0"/><path class="cls-2" d="M36.7,4.2s0,0,0,0h0"/><path class="cls-2" d="M36.45,4.16l0,0s0,0,0,0"/><path class="cls-2" d="M36.64,4.34h0"/><polyline class="cls-2" points="36.72 4.26 36.72 4.27 36.71 4.25 36.72 4.26 36.72 4.26"/><path class="cls-2" d="M36.72,4.15s0,0,0,0h0"/><path class="cls-2" d="M36.52,4.38h0"/><path class="cls-2" d="M36.5,4.22h0"/><path class="cls-2" d="M36.7,4.2s0,0,0,0v0"/><path class="cls-2" d="M36.73,4.17s0,0,0,0h0"/><path class="cls-2" d="M36.49,4.16h0"/><path class="cls-2" d="M36.71,4.27s0,0,0,0v0h0"/><path class="cls-2" d="M36.54,4.32s0,0,0,0h0"/><path class="cls-2" d="M36.49,4.24h0"/><path class="cls-2" d="M36.67,4.31h0s0,0,0,0h0"/><path class="cls-2" d="M36.7,4.13h0"/><path class="cls-2" d="M36.71,4.24h0"/><path class="cls-2" d="M36.53,4.24h0"/><path class="cls-2" d="M36.7,4.18s0,0,0,0h0"/><path class="cls-2" d="M36.7,4.21v0a0,0,0,0,1,0,0h0"/><path class="cls-2" d="M36.72,4.29h0s0,0,0,0h0"/><path class="cls-2" d="M36.48,4.17h0"/><path class="cls-2" d="M36.47,4.16s0,0,0,0,0,0,0,0"/><path class="cls-2" d="M36.46,4h0"/><path class="cls-2" d="M37.07,3.9h0"/><path class="cls-2" d="M36.69,4.09s0,0,0,0h0"/><path class="cls-2" d="M36.67,4.31h0a0,0,0,0,1,0,0h0"/><path class="cls-2" d="M36.41,4.19s0,0,0,0v0h0"/><path class="cls-2" d="M36.42,4.2h0"/><path class="cls-2" d="M36.66,4.3h0"/><path class="cls-2" d="M36.83,4.21h0"/><path class="cls-2" d="M36.71,4.3h0"/><path class="cls-2" d="M36.67,4s0,0,0,0h0"/><path class="cls-2" d="M36.78,4.27s0,0,0,0h0"/><path class="cls-2" d="M36.42,4h0"/><path class="cls-2" d="M36.6,4.33h0"/><path class="cls-2" d="M36.51,4.15h0"/><path class="cls-2" d="M36.72,4.33s0,0,0,0h0"/><path class="cls-2" d="M36.57,4.27h0s0,0,0,0h0"/><path class="cls-2" d="M36.51,4.24h0"/><path class="cls-2" d="M36.7,4.16h0"/><path class="cls-2" d="M36.59,4.28s0,0,0,0h0"/><path class="cls-2" d="M36.51,4.14s0,0,0,0h0"/><path class="cls-2" d="M36.69,4.12h0"/><path class="cls-2" d="M36.55,4.32h0s0,0,0,0"/><path class="cls-2" d="M36.72,4.32h0"/><path class="cls-2" d="M36.52,4.14h0"/><path class="cls-2" d="M36.69,4.1h0"/><path class="cls-2" d="M36.5,4h0"/><path class="cls-2" d="M36.7,4.27h0"/><polyline class="cls-2" points="36.51 4.16 36.51 4.16 36.51 4.16"/><path class="cls-2" d="M36.71,4.23s0,0,0,0h0"/><path class="cls-2" d="M36.66,4.29s0,0,0,0h0"/><path class="cls-2" d="M37,3.93h0"/><path class="cls-2" d="M36.51,4.19h0"/><path class="cls-2" d="M36.7,4.26s0,0,0,0h0"/><path class="cls-2" d="M36.54,4.29s0,0,0,0h0"/><path class="cls-2" d="M36.74,4.16h0"/><path class="cls-2" d="M36.52,4.38s0,0,0,0h0"/><path class="cls-2" d="M37.05,3.93h0"/><path class="cls-2" d="M36.7,4.26s0,0,0,0h0"/><path class="cls-2" d="M36.46,4.25s0,0,0,0h0"/><path class="cls-2" d="M36.71,4.2s0,0,0,0h0"/><path class="cls-2" d="M36.54,4.32h0s0,0,0,0"/><path class="cls-2" d="M36.69,4.35s0,0,0,0h0"/><path class="cls-2" d="M36.71,4.27h0"/><path class="cls-2" d="M37.07,3.9h0"/><path class="cls-2" d="M36.7,4.24s0,0,0,0h0"/><path class="cls-2" d="M36.5,4.18h0"/><path class="cls-2" d="M36.59,4.37h0"/><path class="cls-2" d="M36.8,4.37s0,0,0,0h0"/><path class="cls-2" d="M36.67,4.36s0,0,0,0h0"/><path class="cls-2" d="M36.48,4.17h0"/><path class="cls-2" d="M36.5,4.16h0"/><path class="cls-2" d="M36.53,4.23h0"/><path class="cls-2" d="M36.52,4.38s0,0,0,0h0"/><path class="cls-2" d="M36.55,4.25h0"/><path class="cls-2" d="M36.69,4.09h0"/><path class="cls-2" d="M36.55,4.32s0,0,0,0h0"/><path class="cls-2" d="M36.7,4.27h0"/><path class="cls-2" d="M36.71,4.3h0"/><path class="cls-2" d="M36.72,4.21h0"/><path class="cls-2" d="M36.75,4.29h0"/><path class="cls-2" d="M36.5,4.39h0"/><path class="cls-2" d="M36.81,4.37h0"/><path class="cls-2" d="M36.7,4.28s0,0,0,0h0"/><path class="cls-2" d="M37,4h0"/><path class="cls-2" d="M36.55,4.32h0"/><path class="cls-2" d="M36.48,4.14s0,0,0,0h0"/><path class="cls-2" d="M36.52,4.33h0"/><path class="cls-2" d="M36.7,4.2h0"/><path class="cls-2" d="M36.68,4.07h0"/><path class="cls-2" d="M36.54,4.39s0,0,0,0h0"/><path class="cls-2" d="M36.48,4.24h0"/><path class="cls-2" d="M36.7,4.25h0"/><path class="cls-2" d="M36.55,4.33h0"/><path class="cls-2" d="M36.49,4.16h0"/><path class="cls-2" d="M36.53,4.35h0"/><path class="cls-2" d="M36.56,4.27h0"/><path class="cls-2" d="M36.67,4.33s0,0,0,0h0"/><path class="cls-2" d="M36.5,4.37h0"/><path class="cls-2" d="M36.7,3.93h0"/><path class="cls-2" d="M36.71,3.86s0,0,0,0h0"/><path class="cls-2" d="M36.56,4.42h0"/><path class="cls-2" d="M36.7,3.83s0,0,0,0h0"/><path class="cls-2" d="M36.68,3.8s0,0,0,0h0"/><path class="cls-2" d="M36.71,4.19h0"/><path class="cls-2" d="M36.7,3.83h0"/><path class="cls-2" d="M37,3.94h0"/><path class="cls-2" d="M36.66,4.27s0,0,0,0h0"/><path class="cls-2" d="M36.7,4.24h0"/><path class="cls-2" d="M36.69,4.25h0"/><path class="cls-2" d="M36.6,4h0"/><path class="cls-2" d="M36.52,4.15h0"/><path class="cls-2" d="M36.67,4.3s0,0,0,0h0"/><path class="cls-2" d="M36.56,4.41h0"/><path class="cls-2" d="M36.7,4.36h0"/><path class="cls-2" d="M36.51,4.38h0"/><path class="cls-2" d="M36.57,4.31h0"/><polyline class="cls-2" points="36.54 4.34 36.54 4.33 36.54 4.34"/><path class="cls-2" d="M36.5,4.38h0"/><path class="cls-2" d="M36.69,4.26h0"/><path class="cls-2" d="M36.7,4.25h0"/><path class="cls-2" d="M36.47,4.1h0"/><path class="cls-2" d="M36.5,4.15h0"/><path class="cls-2" d="M36.54,4.33h0"/><path class="cls-2" d="M36.53,4.34s0,0,0,0h0"/><path class="cls-2" d="M36.56,4.42h0"/><path class="cls-2" d="M36.56,4.42s0,0,0,0h0"/><polyline class="cls-2" points="36.7 4.15 36.7 4.15 36.7 4.15"/><path class="cls-2" d="M36.71,3.86h0"/><path class="cls-2" d="M36.6,4.28h0"/><path class="cls-2" d="M36.53,4.32h0"/><path class="cls-2" d="M36.47,4.24h0"/><path class="cls-2" d="M36.69,4.22h0"/><path class="cls-2" d="M36.78,4.37h0"/><path class="cls-2" d="M36.69,4.32h0"/><path class="cls-2" d="M36.69,4.27h0"/><path class="cls-2" d="M36.59,4.31h0"/><path class="cls-2" d="M36.46,4.09h0"/><path class="cls-2" d="M36.55,4.26h0"/><path class="cls-2" d="M36.56,4.43h0"/><path class="cls-2" d="M36.49,4.38h0"/><path class="cls-2" d="M36.71,4.28h0"/><path class="cls-2" d="M37,3.93s0,0,0,0h0"/><path class="cls-2" d="M36.72,4.31s0,0,0,0h0"/><path class="cls-2" d="M36.52,4.32s0,0,0,0h0"/><path class="cls-2" d="M37.06,3.92h0"/><path class="cls-2" d="M36.57,4.27s0,0,0,0h0"/><path class="cls-2" d="M36.7,4.36h0"/><path class="cls-2" d="M36.55,4.31h0"/><path class="cls-2" d="M36.72,4h0"/><path class="cls-2" d="M36.68,4h0"/><path class="cls-2" d="M36.54,4.31h0"/><path class="cls-2" d="M36.5,4.17h0"/><path class="cls-2" d="M36.74,4.18h0"/><path class="cls-2" d="M36.71,3.87h0"/><path class="cls-2" d="M36.51,4.38h0"/><path class="cls-2" d="M36.49,4.16h0"/><path class="cls-2" d="M36.42,4.19h0"/><path class="cls-2" d="M36.71,4.29h0"/><path class="cls-2" d="M36.46,4.09h0"/><polyline class="cls-2" points="36.47 4.09 36.47 4.09 36.47 4.09"/><polyline class="cls-2" points="36.49 4.07 36.49 4.07 36.49 4.07"/><path class="cls-2" d="M36.71,3.83h0"/><path class="cls-2" d="M36.77,4.27h0"/><polyline class="cls-2" points="36.77 4.27 36.77 4.27 36.77 4.27"/><polyline class="cls-2" points="36.96 4.16 36.96 4.16 36.96 4.16"/><polyline class="cls-2" points="36.6 4.3 36.6 4.3 36.6 4.3"/><path class="cls-2" d="M36.73,4.17h0"/><path class="cls-2" d="M36.54,4.34h0"/><path class="cls-2" d="M36.6,4.31h0"/><polyline class="cls-2" points="36.5 4.25 36.5 4.25 36.5 4.25"/><polyline class="cls-2" points="36.58 4.3 36.58 4.3 36.58 4.3"/><path class="cls-2" d="M36.54,4.38h0"/><polyline class="cls-2" points="36.74 3.96 36.74 3.96 36.74 3.96"/><path class="cls-2" d="M36.56,4.26h0"/><path class="cls-2" d="M36.54,4.28s0,0,0,0h0"/><path class="cls-2" d="M36.69,4.26h0"/><polyline class="cls-2" points="36.64 4.32 36.64 4.32 36.64 4.32"/><path class="cls-2" d="M36.5,4.15h0"/><path class="cls-2" d="M36.46,4.18h0"/><path class="cls-2" d="M36.7,3.94h0"/><path class="cls-2" d="M36.56,4.3h0"/><polyline class="cls-2" points="36.47 4.11 36.47 4.11 36.47 4.11"/><path class="cls-2" d="M36.52,4.3h0s0,0,0,0,0,0,0,0h0s0,0,0,0v0h0s0,0,0,0,0,0,0,0h0m0,0h0"/><path class="cls-2" d="M36.44,4.25h0s0,0,0,0h0s0,0,0,0l0,0h0"/><path class="cls-2" d="M36.42,4.23s0,0,0,0h0s0,0,0,0h0m0,0h0"/><path class="cls-2" d="M36.44,4.24h0s0,0,0,0h0"/><path class="cls-2" d="M36.46,4.11s0,0,0,0h0a0,0,0,0,1,0,0h0"/><path class="cls-2" d="M36.49,4.25l0,0,0,0"/><path class="cls-2" d="M36.46,4.25h0"/><path class="cls-2" d="M36.5,4.2s0,0,0,0h0l0,0s0,0,0,0h0"/><path class="cls-2" d="M36.44,4.25h0s0,0,0,0h0m0,0h0"/><path class="cls-2" d="M36.48,4.29h0v0h0"/><path class="cls-2" d="M36.45,4.27h0s0,0,0,0h0"/><path class="cls-2" d="M36.42,4.15h0"/><path class="cls-2" d="M36.49,4.33s0,0,0,0h0"/><path class="cls-2" d="M36.45,4.22a0,0,0,0,1,0,0s0,0,0,0h0"/><path class="cls-2" d="M36.43,4.22l0,0,0,0s0,0,0,0"/><path class="cls-2" d="M36.49,4.38s0,0,0,0h0"/><path class="cls-2" d="M36.53,4.31h0"/><path class="cls-2" d="M36.5,4.28h0s0,0,0,0h0"/><path class="cls-2" d="M36.42,4.25h0"/><path class="cls-2" d="M36.46,4.13a0,0,0,0,1,0,0l0,0"/><path class="cls-2" d="M36.48,4.3v0s0,0,0,0h0"/><path class="cls-2" d="M36.49,4.3h0"/><path class="cls-2" d="M36.42,4.25v0"/><path class="cls-2" d="M36.41,4.17h0"/><path class="cls-2" d="M36.42,4.17v0s0,0,0,0h0"/><path class="cls-2" d="M36.42,4.16h0"/><path class="cls-2" d="M36.5,4.29h0"/><path class="cls-2" d="M36.45,4.2s0,0,0,0h0"/><path class="cls-2" d="M36.45,4.08h0"/><path class="cls-2" d="M36.46,4.24h0"/><path class="cls-2" d="M36.44,4.25v0"/><path class="cls-2" d="M36.44,4.15h0"/><path class="cls-2" d="M36.41,4.16h0s0,0,0,0h0"/><path class="cls-2" d="M36.39,4.23h0"/><path class="cls-2" d="M36.42,4.17h0"/><path class="cls-2" d="M36.44,4.24h0"/><path class="cls-2" d="M36.42,4.22h0"/><path class="cls-2" d="M36.47,4.31h0"/><path class="cls-2" d="M36.54,4.27h0"/><path class="cls-2" d="M36.5,4.27h0"/><path class="cls-2" d="M36.47,4.31h0"/><polyline class="cls-2" points="36.52 4.27 36.52 4.27 36.52 4.27"/><polyline class="cls-2" points="36.51 4.25 36.52 4.25 36.51 4.25 36.51 4.25"/><path class="cls-2" d="M36.4,4.24h0"/><polyline class="cls-2" points="36.47 4.3 36.46 4.31 36.47 4.3"/><polyline class="cls-2" points="36.49 4.26 36.49 4.27 36.49 4.26"/><polyline class="cls-2" points="36.51 4.2 36.5 4.2 36.51 4.2"/><path class="cls-2" d="M36.46,4.22h0"/><path class="cls-2" d="M36.5,4.33h0"/><polyline class="cls-2" points="36.54 4.29 36.53 4.28 36.54 4.29"/><polyline class="cls-2" points="36.53 4.28 36.53 4.28 36.53 4.28"/><path class="cls-2" d="M36.51,4.32h0"/><polyline class="cls-2" points="36.41 4.24 36.42 4.24 36.41 4.24"/><path class="cls-2" d="M36.44,4.21h0"/><path class="cls-2" d="M36.52,4.3h0"/><polyline class="cls-2" points="36.43 4.22 36.43 4.22 36.43 4.22"/><path class="cls-2" d="M36.44,4.07h0"/><path class="cls-2" d="M36.46,4.23s0,0,0,0h0"/><polyline class="cls-2" points="36.43 4.14 36.43 4.14 36.43 4.14"/><path class="cls-2" d="M36.52,4.3h0"/><polyline class="cls-2" points="36.44 4.24 36.43 4.25 36.44 4.24"/><path class="cls-2" d="M36.55,4.41h0"/><path class="cls-2" d="M36.42,4.15s0,0,0,0h0"/><polyline class="cls-2" points="36.4 4.15 36.4 4.15 36.4 4.15"/><path class="cls-2" d="M36.41,4.13h0"/><path class="cls-2" d="M36.49,4.36h0"/><path class="cls-2" d="M36.53,4.27h0"/><path class="cls-2" d="M36.44,4.25h0"/><path class="cls-2" d="M36.41,4.25h0"/><path class="cls-2" d="M36.44,4.21h0"/><path class="cls-2" d="M36.44,4.21h0"/><path class="cls-2" d="M36.5,4.34h0"/><path class="cls-2" d="M36.51,4.34h0"/><path class="cls-2" d="M36.73,4.11s0-.05,0-.06v0a0,0,0,0,1,0,0,0,0,0,0,0,0,0l0,0h0"/><path class="cls-2" d="M36.75,4.26h0s0,0,0,0a0,0,0,0,0,0,0h0l0,0s0,0,0,0"/><path class="cls-2" d="M36.72,4.09a0,0,0,0,1,0,0s0,0,0,0"/><path class="cls-2" d="M36.72,4.25v0h0"/><path class="cls-2" d="M36.72,4.28h0s0,0,0,0h0"/><path class="cls-2" d="M36.74,4.1h0"/><path class="cls-2" d="M36.72,4.13h0"/><path class="cls-2" d="M36.72,4.21h0s0,0,0,0h0"/><path class="cls-2" d="M36.74,4.15s0,0,0,0h0"/><path class="cls-2" d="M36.7,4.09h0"/><path class="cls-2" d="M36.73,4.12h0s0,0,0,0h0"/><path class="cls-2" d="M36.76,4.13h0"/><path class="cls-2" d="M36.77,4.09h0"/><path class="cls-2" d="M36.77,4.27h0"/><path class="cls-2" d="M36.73,4.22h0"/><path class="cls-2" d="M36.73,4.14h0"/><path class="cls-2" d="M36.73,4.22h0"/><path class="cls-2" d="M36.75,4.26h0"/><path class="cls-2" d="M36.75,4.08h0"/><path class="cls-2" d="M36.77,4h0"/><path class="cls-2" d="M36.69,4s0,0,0,0h0"/><path class="cls-2" d="M36.73,4.14h0"/><path class="cls-2" d="M36.73,4.27h0"/><path class="cls-2" d="M36.72,4.25h0"/><path class="cls-2" d="M36.76,4.08h0"/><path class="cls-2" d="M36.69,4.05h0"/><path class="cls-2" d="M36.75,4.08h0"/><path class="cls-2" d="M36.73,4.13h0"/><path class="cls-2" d="M36.73,4.2s0,0,0,0h0"/><path class="cls-2" d="M36.76,4.29h0"/><path class="cls-2" d="M37,4.08h0"/><polyline class="cls-2" points="36.76 4.13 36.76 4.13 36.76 4.13"/><path class="cls-2" d="M36.51,4s0,0,0,0h0"/><path class="cls-2" d="M36.71,3.89h0"/><path class="cls-2" d="M36.69,3.92h0"/><path class="cls-2" d="M36.52,4h0"/><path class="cls-2" d="M36.69,3.82s0,0,0,0h0"/><path class="cls-2" d="M36.71,3.87h0"/><path class="cls-2" d="M37.06,3.91h0"/><path class="cls-2" d="M37,4h0"/><path class="cls-2" d="M36.72,4.1h0s0,0,0,0"/><polyline class="cls-2" points="36.73 4.1 36.72 4.1 36.73 4.1"/><path class="cls-2" d="M36.72,4.08h0"/><polyline class="cls-2" points="36.46 4.12 36.45 4.12 36.46 4.12"/><path class="cls-2" d="M36.52,4.3h0"/><path class="cls-2" d="M36.52,4.3h0"/><path class="cls-2" d="M36.5,4.3s0,0,0,0h0"/><path class="cls-2" d="M36.42,4.23h0"/><path class="cls-2" d="M36.43,4.25h0"/><path class="cls-2" d="M36.73,4.1h0s0,0,0,0v0h0"/><path class="cls-2" d="M36.73,4.11h0"/><path class="cls-2" d="M36.76,4.27s0,0,0,0h0"/><path class="cls-1" d="M48.57,4.7s-.28,0-.22,0l.23-.05s0,0,0,0,.06,0,.08,0v0l.07,0s0,0,0,0l.06,0s0,0,0,0l0,0,.45,0a.16.16,0,0,0,0,.09s.22.25-.09.29-.22-.15-.82-.17l.43,0a4,4,0,0,1-.58,0Z"/><path class="cls-1" d="M48.79,4.86a.79.79,0,0,1-.69.08c-.32-.13-.25-.65.25-.72a9.79,9.79,0,0,1,1.93.17,13.93,13.93,0,0,0-1.92-.16c-.43,0-.59.51-.26.67a.75.75,0,0,0,.67-.06Z"/><path class="cls-1" d="M48,4.34c-.29.15-.3.5,0,.6l.11,0h.11l-.11,0-.12,0c-.25-.12-.2-.4,0-.54Z"/><path class="cls-1" d="M48.24,4.27a9.94,9.94,0,0,1,1.87.17,13.34,13.34,0,0,0-1.85-.15l-.12,0,.1,0"/><path class="cls-1" d="M48.57,4.92a.24.24,0,0,0,.1,0l0,0a.86.86,0,0,1-.25.09.42.42,0,0,0,.17,0"/><path class="cls-1" d="M49.29,4.63a.08.08,0,0,0,0,.08.6.6,0,0,1,.09.13.18.18,0,0,1-.07.16h.23s.1,0,.09-.11a1.8,1.8,0,0,0,0-.26Z"/><path class="cls-1" d="M49.55,5a.86.86,0,0,0,.18,0c.06,0,.08-.33.08-.33l-.21,0s.08.3,0,.32a.84.84,0,0,1-.1.1"/><path class="cls-1" d="M49.64,5s0,.06,0,.07a.55.55,0,0,0,.12,0s.09-.17.19-.18a.24.24,0,0,0-.06-.12l-.11-.1s0,.27-.06.33-.11,0-.11,0"/><path class="cls-1" d="M49.69,5.14s0,.06,0,.07.15,0,.21,0,.11,0,.11,0,0-.27,0-.27a.28.28,0,0,0-.13.14.21.21,0,0,1-.16.11"/><path class="cls-1" d="M49.63,5.35s.22,0,.27,0L50,5.16l-.11,0-.23.06s-.05,0,0,.11"/><path class="cls-1" d="M49.62,5.36s.26-.06.28,0-.17.28-.24.29a.05.05,0,0,0-.07,0s0-.09,0-.08a.34.34,0,0,1,.07-.19"/><path class="cls-1" d="M49.55,5.55s-.34.1-.4.25.23-.16.32-.15Z"/><path class="cls-1" d="M49.17,5.84s.16-.18.29-.18.09-.1.11-.1a.25.25,0,0,1,0,.07s.06,0,0,.06-.31.21-.41.19a.49.49,0,0,1,.1-.08l-.12.07s-.07,0,0,0"/><path class="cls-1" d="M48.69,4.72s0,0,0,0,0,0,0,0a0,0,0,0,1,.08,0"/><polygon class="cls-1" points="48.93 4.98 48.8 5.06 48.81 5.08 48.95 5 48.93 4.98"/><polygon class="cls-1" points="48.81 5.08 48.78 5.06 48.62 5.22 48.65 5.24 48.81 5.08"/><polygon class="cls-1" points="48.65 5.36 48.65 5.24 48.62 5.23 48.65 5.36"/><polygon class="cls-1" points="48.94 5.08 48.88 5.23 48.91 5.24 48.96 5.09 48.94 5.08"/><polygon class="cls-1" points="48.88 5.24 48.85 5.46 48.88 5.46 48.91 5.24 48.88 5.24"/><polygon class="cls-1" points="48.86 5.47 48.88 5.46 48.96 5.55 48.86 5.47"/><polygon class="cls-1" points="48.96 5.09 49.06 5.03 49.02 5.01 48.95 5.06 48.96 5.09"/><polygon class="cls-1" points="49.02 5.29 49.05 5.3 49.07 5.11 49.05 5.11 49.02 5.29"/><polygon class="cls-1" points="49.01 5.31 49.03 5.57 49.06 5.57 49.05 5.3 49.01 5.31"/><polygon class="cls-1" points="49.04 5.58 49.06 5.57 49.16 5.66 49.04 5.58"/><polygon class="cls-1" points="49.07 5.11 49.15 5.02 49.11 5.01 49.05 5.08 49.07 5.11"/><polygon class="cls-1" points="48.77 4.96 48.78 4.98 48.88 4.96 48.88 4.94 48.77 4.96"/><polygon class="cls-1" points="48.78 4.98 48.76 4.96 48.63 5.02 48.64 5.04 48.78 4.98"/><polygon class="cls-1" points="48.62 5.12 48.64 5.04 48.63 5.03 48.62 5.12"/><path class="cls-1" d="M49.44,5a.4.4,0,0,0-.09.14c0,.08,0,.09,0,0s.09-.15.06-.18"/><path class="cls-1" d="M49.53,5.05a.38.38,0,0,0-.09.15c0,.08,0,.08,0,0s.09-.16.06-.19"/><path class="cls-1" d="M49.6,5.09a.3.3,0,0,0-.08.15c0,.08,0,.09,0,0s.08-.15.05-.19"/><path class="cls-1" d="M43.78.55a.45.45,0,1,1-.87-.2A.44.44,0,0,1,43.18,0a.48.48,0,0,1,.27,0h0a.44.44,0,0,1,.31.53"/><path class="cls-1" d="M43.09,1.08a.47.47,0,0,0-.18.26,2,2,0,0,0-.14.64V2.1c0,.11,0,.22,0,.35a.42.42,0,0,0,.22.32V4.31a.25.25,0,0,0,.25.25.25.25,0,0,0,.25-.25V2.51a1.62,1.62,0,0,1,0-.44l0,0a.57.57,0,0,1-.24-.19.7.7,0,0,1-.14-.44.47.47,0,0,1,0-.16.2.2,0,0,1,.12-.15h.11a.21.21,0,0,1,.16.21v0h0v.08a.38.38,0,0,0,0,.16.13.13,0,0,0,.06.07l0-.17c.06-.2,0-.44-.19-.48a.37.37,0,0,0-.18,0,.51.51,0,0,0-.15.07"/><path class="cls-1" d="M45.09,1.57h0l-.73-.2h0a0,0,0,0,0,0,0l-.08.29a.19.19,0,0,1,.09,0l.46.13v0l-.4-.11,0,.06h0v.08l.34.09v0L44.37,2a.18.18,0,0,1-.09.1l.41.11v0l-.47-.13h-.1l0,.15v0l0,0,.56.15c0-.05,0-.1,0-.12s.05,0,.11,0h.09s0,0-.08,0-.05,0-.07,0,0,.12,0,.13l.19-.15h0l.19-.71v0m-.69,0v0h.06l0,0h0l0,0s0,0,0,0a0,0,0,0,1,0,0s0,0,0,0a0,0,0,0,1,0,0s0,0,0,0h.06v0H44.4m.16,0h-.05v0h0l0-.12h.08v0s0,0,0,0a0,0,0,0,1,0,0m.12,0h-.06v0h.06l0,0a0,0,0,0,1,0,0h0s0,0,0,0,0,0,0,0v0l0,0a0,0,0,0,1,0,0s0,0,0,0h.06v0a0,0,0,0,1,0,0m.09.12h-.05s0,0,0,0a0,0,0,0,0,0,0v0l0,0a0,0,0,0,1,0,0h.09v0a0,0,0,0,1,0,0h-.06v0h.05Zm.11.47h0s0,0,0,0h0l-.06,0,0,0h0V2.17h0s0,0,0,0,0,0,0,0h0l.06,0h0m0-.16h0l-.07,0,0,0h0v0s0,0,0,0V2a0,0,0,0,1,0,0h0s0,0,0,0h0V2h0l.06,0h0m0-.16h0l-.06,0,0,0h0v0a0,0,0,0,1,0,0s0,0,0,0v0h0v0h0l.06,0h0"/><path class="cls-1" d="M44.54,1.56h0v0h0"/><path class="cls-1" d="M44.23,2h-.06l-.11,0h-.22A.88.88,0,0,1,43.51,2h0a.62.62,0,0,1-.23-.18.7.7,0,0,1-.13-.42,1,1,0,0,1,0-.15.18.18,0,0,1,.15-.13h0a.17.17,0,0,1,.13.17v0h0v.07a.57.57,0,0,0,0,.18.28.28,0,0,0,.09.1l0,0a.61.61,0,0,0,.22,0,1.39,1.39,0,0,0,.32,0,.18.18,0,0,1,.14,0,.19.19,0,0,1,.05.09h0a.17.17,0,0,1-.12.19"/><path class="cls-1" d="M45.09,27v.17h.42V27h-.13v.08a0,0,0,0,1,0,0h-.1a0,0,0,0,1,0,0V27Z"/><path class="cls-1" d="M46,26.73a.15.15,0,0,1-.15.15H44.74a.15.15,0,0,1-.15-.15v-.79a.15.15,0,0,1,.15-.15h1.12a.15.15,0,0,1,.15.15Zm-.15-1H44.74a.24.24,0,0,0-.24.24v.79a.24.24,0,0,0,.24.24h1.12a.25.25,0,0,0,.25-.24v-.79a.25.25,0,0,0-.25-.24"/><path class="cls-1" d="M45.86,27H44.74a.25.25,0,0,1-.25-.24v-.79a.25.25,0,0,1,.25-.25h1.12a.25.25,0,0,1,.25.25v.79a.25.25,0,0,1-.25.24m-1.12-1.18a.15.15,0,0,0-.15.15v.79a.15.15,0,0,0,.15.14h1.12a.15.15,0,0,0,.15-.14v-.79a.15.15,0,0,0-.15-.15Z"/><path class="cls-1" d="M45.86,25.82H44.74a.12.12,0,0,0-.13.12v.79a.12.12,0,0,0,.13.12h1.12a.12.12,0,0,0,.13-.12v-.79a.12.12,0,0,0-.13-.12m-.73.48v0a0,0,0,0,1,0,0l0,0a.1.1,0,0,1-.05,0l-.06,0-.06,0a.05.05,0,0,1,0,0l0,0a.13.13,0,0,1,0-.06.15.15,0,0,1,0-.07l0,0a.05.05,0,0,1,0,0h.14l0,.06-.07,0,0,0h0s0,0,0,0l0,0s0,0,0,0v0s0,0,0,0,0,0,0,0l0,0h0l0,0s0,0,0,0H45v-.06h.14v0m.32,0a0,0,0,0,1,0,0s0,0,0,0a0,0,0,0,1,0,0,.1.1,0,0,1-.05,0l-.07,0-.06,0s0,0-.05,0l0,0s0,0,0-.06,0-.05,0-.07l0,0s0,0,.05,0h.14l0,.06-.07,0,0,0h-.07a0,0,0,0,0,0,0l0,0v.06l0,0,0,0h0a.05.05,0,0,0,0,0s0,0,0,0H45.3v-.06h.15v0m.31.13h-.07l-.13-.18h0v.18h-.08v-.29h.08l.13.18h0v-.18h.07Z"/><path class="cls-1" d="M45.77,27.27s0,0,0,0h-.85a.05.05,0,0,0-.05,0l0,.07s0,0,0,0h1s0,0,0,0Z"/><path class="cls-1" d="M35.22,16.23,34.9,15a.13.13,0,0,0-.16-.09l-1,.24a.13.13,0,0,0-.1.16v0l.18-.05a.11.11,0,0,1,.13.08l0,.07a.12.12,0,0,1-.08.13l-.18,0,0,.19.19,0a.12.12,0,0,1,.13.08v.07A.11.11,0,0,1,34,16l-.19.05,0,.18.18,0a.1.1,0,0,1,.13.07l0,.07a.11.11,0,0,1-.08.13l-.18.05v0a.13.13,0,0,0,.16.1l1-.25a.13.13,0,0,0,.1-.16m-.7-1.13h.07l0,0v0s0,0,0,0,0,0,0,0,0,0,0,0l.09.07-.07,0-.07-.07h0l0,.08,0,0-.06-.21Zm-.21.27h0l0,0a.43.43,0,0,1,0-.05.06.06,0,0,1,0,0s0,0,0-.05l0,0,0,0h.06a.1.1,0,0,1,0,0l0,0s0,0,0,0h-.05l0,0v.07l0,0h.07s0,0,0,0l-.05,0v0l.11,0v.08l0,0,0,0h0m.49.78a.13.13,0,0,1,0,.06l0,0-.06,0h-.06l-.05,0a.08.08,0,0,1,0,0l0-.07h.06s0,.05,0,.06a.06.06,0,0,0,.07,0,.05.05,0,0,0,0,0,.15.15,0,0,0,0-.07l0,0,0,0h-.17l0,0a.09.09,0,0,1,0-.06.14.14,0,0,1,0-.09s0-.06,0-.07l-.07,0a.15.15,0,0,1,0-.07.13.13,0,0,1,0-.06s0,0,0-.06l0,0,.06,0h.06a.09.09,0,0,1,.06,0,.09.09,0,0,1,0,0l0,.05-.07,0s0-.06,0-.07,0,0-.06,0a.05.05,0,0,0-.05,0,.08.08,0,0,0,0,.07l0,0,0,0h.13l0,0,0,0,0,.06a.14.14,0,0,1,0,.09.18.18,0,0,1,0,.07.14.14,0,0,1,.1.11.06.06,0,0,1,0,.06"/><path class="cls-1" d="M34.26,16.75l0,0a.05.05,0,0,1,0,0l1-.24a.13.13,0,0,0,.1-.16L35,15l0,0s0,0,0,0l.34,1.34a.18.18,0,0,1-.14.22Z"/><path class="cls-1" d="M33.85,15.26h0l0-.16h-.06a.13.13,0,0,0-.1.16v0Z"/><polygon class="cls-1" points="33.97 15.72 33.97 15.72 33.92 15.54 33.92 15.54 33.74 15.58 33.78 15.77 33.97 15.72"/><polyline class="cls-1" points="34.03 16 33.85 16.05 33.9 16.23 34.08 16.19 34.09 16.19 34.04 16 34.03 16"/><path class="cls-1" d="M34.15,16.46l-.18.05v0a.13.13,0,0,0,.16.1l.06,0,0-.16h0"/><path class="cls-1" d="M33.59,15.51a.06.06,0,0,0,.07,0l.25-.06a.06.06,0,0,0,0-.07v-.07a.06.06,0,0,0-.08,0l-.24.06s-.06,0,0,.07Z"/><path class="cls-1" d="M33.7,16a.09.09,0,0,0,.08,0L34,16a.05.05,0,0,0,0-.07l0-.07a.06.06,0,0,0-.07,0l-.25.06a.06.06,0,0,0,0,.07Z"/><path class="cls-1" d="M33.82,16.44a.06.06,0,0,0,.07,0l.25-.06a.06.06,0,0,0,0-.08v-.06a.06.06,0,0,0-.08-.05l-.24.06a.06.06,0,0,0-.05.08Z"/><path class="cls-1" d="M34.69,15.87l0,0,0,0h0a0,0,0,0,1,0,0h0l0,0,0,0v-.07l0,0,0,0h0l0,0,0,0s0,0,0,0a0,0,0,0,1,0,0"/><path class="cls-1" d="M34.55,15.17v0h0v-.06h0"/><path class="cls-1" d="M5.21,37.13V35h5.41a1.48,1.48,0,0,1,0,.22,3.66,3.66,0,0,1,0,.37,5.58,5.58,0,0,1-1.38,4,5.11,5.11,0,0,1-3.87,1.43,6,6,0,0,1-2.18-.37,4.84,4.84,0,0,1-1.7-1.12A5.09,5.09,0,0,1,.4,37.87a5.65,5.65,0,0,1,0-4.15A4.93,4.93,0,0,1,1.54,32,5,5,0,0,1,3.28,30.9a5.86,5.86,0,0,1,2.11-.38A5.72,5.72,0,0,1,8,31.11a5.18,5.18,0,0,1,1.91,1.74L7.55,34a3.11,3.11,0,0,0-1-.89,2.47,2.47,0,0,0-1.19-.29,2.42,2.42,0,0,0-1.94.82,3.3,3.3,0,0,0-.71,2.25,3.31,3.31,0,0,0,.71,2.26A2.39,2.39,0,0,0,5.39,39a2.9,2.9,0,0,0,1.75-.51A2,2,0,0,0,8,37.13Z"/><polygon class="cls-1" points="11.75 40.84 11.75 30.76 14.49 30.76 14.49 38.48 17.91 38.48 17.91 40.84 11.75 40.84"/><path class="cls-1" d="M28.79,35.82a5.11,5.11,0,0,1-.4,2,5.19,5.19,0,0,1-1.16,1.71,5.54,5.54,0,0,1-1.77,1.14,5.43,5.43,0,0,1-4.14,0,5.2,5.2,0,0,1-1.74-1.14,5.1,5.1,0,0,1-1.18-1.71,5.18,5.18,0,0,1-.4-2,5.1,5.1,0,0,1,1.58-3.75,5.2,5.2,0,0,1,1.74-1.14,5.43,5.43,0,0,1,2.08-.41,5.5,5.5,0,0,1,2.07.41,5.26,5.26,0,0,1,2.92,2.84,5.2,5.2,0,0,1,.4,2m-5.38,3A2.43,2.43,0,0,0,25.3,38a3.11,3.11,0,0,0,.75-2.13,3.07,3.07,0,0,0-.76-2.13,2.53,2.53,0,0,0-3.78,0,3.42,3.42,0,0,0,0,4.26,2.42,2.42,0,0,0,1.91.84"/><path class="cls-1" d="M29.65,40.84V30.76h2.77a17.92,17.92,0,0,1,2.39.11,3.43,3.43,0,0,1,1.17.38,2.09,2.09,0,0,1,.86.83,2.42,2.42,0,0,1,.29,1.2,2,2,0,0,1-.44,1.36,2.71,2.71,0,0,1-1.4.77,2.41,2.41,0,0,1,1.68.76A2.59,2.59,0,0,1,37.58,38a3,3,0,0,1-.34,1.42,2.36,2.36,0,0,1-1,.95,3.86,3.86,0,0,1-1.28.4,18.2,18.2,0,0,1-2.48.11Zm2.55-6.05h.56a3.07,3.07,0,0,0,1.41-.23.81.81,0,0,0,.38-.77.87.87,0,0,0-.36-.8,2.88,2.88,0,0,0-1.39-.23h-.6Zm0,4h1a2.74,2.74,0,0,0,1.38-.25.87.87,0,0,0,.41-.82,1,1,0,0,0-.37-.89,2.64,2.64,0,0,0-1.38-.25h-1Z"/><path class="cls-1" d="M37.47,40.84,41,30.76h3.44l3.48,10.08H45.14l-.51-1.79h-3.9l-.53,1.79Zm3.85-3.76h2.73l-1-3.33a3.49,3.49,0,0,1-.13-.49c-.06-.22-.13-.51-.22-.87-.06.25-.12.49-.17.71s-.12.44-.18.65Z"/><polygon class="cls-1" points="48.43 40.84 48.43 30.76 51.17 30.76 51.17 38.48 54.59 38.48 54.59 40.84 48.43 40.84"/><path class="cls-1" d="M60.77,35.63h4.17V36a5.14,5.14,0,0,1-1.35,3.76,4.92,4.92,0,0,1-3.68,1.38A6,6,0,0,1,58.55,41a5.33,5.33,0,0,1-1.18-.44,4.85,4.85,0,0,1-1.92-1.89,5.47,5.47,0,0,1-.67-2.73,6.13,6.13,0,0,1,.4-2.28,5,5,0,0,1,1.21-1.79,4.66,4.66,0,0,1,1.59-1,5.73,5.73,0,0,1,2-.33,5.64,5.64,0,0,1,2.52.53,4.54,4.54,0,0,1,1.77,1.58l-1,.82a3.69,3.69,0,0,0-1.35-1.39A3.86,3.86,0,0,0,60,31.6a3.71,3.71,0,0,0-2.85,1.19,4.4,4.4,0,0,0-1.09,3.11,4.14,4.14,0,0,0,1.11,3A3.75,3.75,0,0,0,60,40a3.6,3.6,0,0,0,2.52-.92,3.49,3.49,0,0,0,1.12-2.4H60.77Z"/><path class="cls-1" d="M73.07,30.36l4.58,10.48h-1.3l-1.3-3.1H71.11l-1.31,3.1H68.49Zm0,2.65-1.6,3.7h3.21Z"/><path class="cls-1" d="M83.49,36.32v4.52H82.31V30.76h2.12a8,8,0,0,1,1.63.12,2.4,2.4,0,0,1,.91.38,2.34,2.34,0,0,1,.75.94A3.23,3.23,0,0,1,88,33.53a3.19,3.19,0,0,1-.27,1.33,2.31,2.31,0,0,1-.75,1,2.62,2.62,0,0,1-.9.39,8,8,0,0,1-1.64.12h-.94Zm0-1.08h.61a4,4,0,0,0,2.07-.37,1.4,1.4,0,0,0,.53-1.26,1.55,1.55,0,0,0-.54-1.35,3.82,3.82,0,0,0-2.06-.39h-.61Z"/><path class="cls-1" d="M86.78,40.35a.57.57,0,0,1,.17-.42.53.53,0,0,1,.41-.17.58.58,0,0,1,.6.59.57.57,0,0,1-.17.41.6.6,0,0,1-.43.16.56.56,0,0,1-.41-.16.53.53,0,0,1-.17-.41"/><path class="cls-1" d="M79.4,40.35a.57.57,0,0,1,.17-.42.53.53,0,0,1,.41-.17.54.54,0,0,1,.42.17.54.54,0,0,1,.18.42.57.57,0,0,1-.17.41.6.6,0,0,1-.43.16.56.56,0,0,1-.41-.16.53.53,0,0,1-.17-.41"/><path class="cls-1" d="M65.57,40.35a.61.61,0,0,1,.17-.42.6.6,0,0,1,.84,0,.54.54,0,0,1,.18.42.54.54,0,0,1-.18.41.59.59,0,0,1-1-.41"/></g></g></svg>