<svg xmlns="http://www.w3.org/2000/svg" viewBox="0 0 88.97 81.88"><defs><style>.cls-1{fill:#1c5531;}</style></defs><g id="Capa_2" data-name="Capa 2"><g id="Capa_1-2" data-name="Capa 1"><path class="cls-1" d="M88.71,80.36,77.33,69a8.17,8.17,0,0,0-4.26-2.26l-.72-.14V41.94l1,.08c.34,0,.69,0,1,0a12.53,12.53,0,0,0,12.19-15.3.91.91,0,0,0-.68-.67,12.47,12.47,0,0,0-11.62,3.36l-.36.37-1.53,1.65v-12l.35-.26a10.15,10.15,0,0,0-.76-16.63.9.9,0,0,0-1,0,10.15,10.15,0,0,0-.76,16.63l.34.26v4.88l-1.5-1.49A11,11,0,0,0,58.83,20a.91.91,0,0,0-.67.67,11.07,11.07,0,0,0,11.48,13.5l.93,0V44.51L69,42.72c-.22-.26-.45-.51-.67-.73a13.63,13.63,0,0,0-12.57-3.7l-.93.19-.13-.93A4.82,4.82,0,0,0,50,33.44H38.14l-5.58-7.66a9.11,9.11,0,0,0-2.49-2.34l-1.43-.91,1.56-.65a7.67,7.67,0,0,0,4.73-7.09V9.67h3.61a.89.89,0,1,0,0-1.78H35.42V4.17A4.18,4.18,0,0,0,31.24,0H22.87a4.18,4.18,0,0,0-4.18,4.17V7.89H15.57a.89.89,0,0,0,0,1.78h4v5.12a7.63,7.63,0,0,0,3,6.09l1.34,1-1.61.51a9.19,9.19,0,0,0-6.43,8.79V50.5a10.38,10.38,0,0,0,5.18,9l.44.25V72.48H4.7a4.7,4.7,0,1,0,0,9.4H7A.89.89,0,0,0,7,80.1H4.7a2.92,2.92,0,0,1,0-5.84H22.39a.89.89,0,0,0,.89-.89V60.46l1,.19a10,10,0,0,0,1.88.18H30.6V73.17a6.94,6.94,0,0,1-6.93,6.93H21.16a.89.89,0,0,0,0,1.78h2.51a8.72,8.72,0,0,0,8.71-8.71V60.83h8.25V77.18a4.7,4.7,0,0,0,9.4,0V58a8.72,8.72,0,0,0-8.71-8.71H31.9V42.61l1.15.37a.84.84,0,0,0,.27,0H50a4.8,4.8,0,0,0,3.19-1.21l1.41-1.26.06,1.89A13.68,13.68,0,0,0,68.29,55.71q.64,0,1.32-.06l1-.1v11l-.71.14A8.22,8.22,0,0,0,65.63,69L54.3,80.31a.89.89,0,0,0,.63,1.52h0a.88.88,0,0,0,.63-.26L66.89,70.24a6.49,6.49,0,0,1,9.18,0L87.45,81.62a.91.91,0,0,0,1.26,0,.89.89,0,0,0,0-1.26ZM74.89,11.2a8.33,8.33,0,0,1-2.84,6.28l-.59.51-.58-.51a8.37,8.37,0,0,1,0-12.57l.58-.51.59.51A8.35,8.35,0,0,1,74.89,11.2Zm9.33,16.42.71.08.08.7A10.75,10.75,0,0,1,74.34,40.28a11.07,11.07,0,0,1-1.15-.06l-.7-.08-.08-.71c0-.3,0-.62-.06-1V38.1A10.76,10.76,0,0,1,84.22,27.62ZM59.7,22.31l.06-.74.74-.06a9.3,9.3,0,0,1,10,10l-.06.74-.74.06c-.26,0-.52,0-.79,0A9.31,9.31,0,0,1,59.7,22.31Zm10.87,29.5a10.14,10.14,0,0,1-.08,1.26l-.08.69-.69.09a13.55,13.55,0,0,1-1.43.08,11.91,11.91,0,0,1-11.8-13.32l.08-.69.69-.08A11.89,11.89,0,0,1,70.57,51.56ZM20.47,4.17a2.4,2.4,0,0,1,2.4-2.39h8.37a2.4,2.4,0,0,1,2.4,2.39V7.89H20.47ZM50,41.25H33.72L30,37.08a.89.89,0,0,0-1.55.54.93.93,0,0,0,.22.64l1.44,1.61v9.37H17.66v-18a7.45,7.45,0,0,1,13.47-4.38l5.83,8a.9.9,0,0,0,.72.37H50a3,3,0,1,1,0,6ZM21.36,9.67H33.15v5.12a5.9,5.9,0,1,1-11.79,0Zm24,70.43a2.93,2.93,0,0,1-2.93-2.92V59.94a.88.88,0,0,0-.88-.89H26.21a8.54,8.54,0,0,1-8.4-7l-.2-1H41.32A6.94,6.94,0,0,1,48.25,58V77.18A2.92,2.92,0,0,1,45.33,80.1Z"/></g></g></svg>