<svg xmlns="http://www.w3.org/2000/svg" viewBox="0 0 238.75 182.51"><defs><style>.cls-1{fill:#fff;}</style></defs><g id="Capa_2" data-name="Capa 2"><g id="Capa_1-2" data-name="Capa 1"><g id="vyMwpZ"><path class="cls-1" d="M0,124.85a5,5,0,0,1,4.61-3c.53,0,1.34-1.08,1.52-1.79q6.09-24,12.05-48.07c1.86-7.44,3.7-14.89,5.64-22.67-3.81,0-7.42,0-11,0a12.34,12.34,0,0,1-12-9.8A12.18,12.18,0,0,1,7.4,25.74a17.85,17.85,0,0,1,6.53-1.35c4.8-.19,9.63,0,14.44-.11a4,4,0,0,0,2.5-1.16,5.63,5.63,0,0,1,8.46,0A4.28,4.28,0,0,0,42,24.28c11.58.08,23.15.18,34.73,0,2.93,0,5.85-1.21,9-1.92,0-2.63,0-5.32,0-8,0-6.6,3-11.39,8.43-13.43s10.5-.5,15,4.41a3.39,3.39,0,0,0,.54.32,13.67,13.67,0,0,1,10-2.52c3.67.53,6.44,2.52,8.86,5.47a13.26,13.26,0,0,1,19.15,3c4.79-3.18,9.74-3.76,14.72-.82s6.66,7.71,6.34,13.56h2.72c8.24,0,16.47,0,24.71,0a3.89,3.89,0,0,0,3.4-1.41,5.14,5.14,0,0,1,7.82,0,3.87,3.87,0,0,0,3.38,1.44c4-.06,8.1.19,12.12-.06,7.8-.48,13.21,2.48,15.73,10.1v4.66c-2.26,7.53-7.3,10.87-15.49,10.32-2.69-.18-5.41,0-8.23,0,.12.65.18,1.1.29,1.54q3.08,12.42,6.16,24.82,5.51,22.11,11.06,44.2c.19.76.84,1.93,1.39,2,2.51.31,3.82,1.85,4.82,3.89v15.39c-.46,1.7-.87,3.43-1.39,5.11a29.6,29.6,0,0,1-27.84,21c-6.34,0-12.86.29-19-1-13.38-2.79-22.53-14.84-22.71-28.52,0-3,0-6.06,0-9.09,0-4.92,1.26-6.31,6.48-6.85l18-72.28H167.24v7.15c0,3.35,0,6.69,0,10-.07,2.37-1.51,3.86-3.5,3.86s-3.4-1.49-3.44-3.88c-.05-3.8,0-7.61,0-11.42V52.51c-6.13,1.44-11.13,0-14.95-4.82-5.12,2.82-7,3.83-14.73,1.5a11.78,11.78,0,0,1-3.92,9.5c1.3,1.59,2.52,3.07,3.73,4.57A21.39,21.39,0,0,1,135.24,77c0,4.51,0,9,0,13.53,0,2.6-1.26,4.09-3.38,4.14s-3.57-1.5-3.59-4.2c0-4.12-.11-8.24,0-12.36a15.83,15.83,0,0,0-4.16-11.51c-1.24-1.38-2.38-2.85-3.63-4.34-5.14,2.32-10.46,3.72-15.9,2.32-4.08-1-8-3-11.89-4.54A41.37,41.37,0,0,1,88.53,58c-2.11-1.13-2.81-3-1.9-4.82s2.82-2.46,5-1.45c2.66,1.27,5.31,2.57,7.92,4,8,4.22,15.33,2.41,22.36-2.24,2.42-1.6,2.19-4.77-.37-6.39-1.63-1-3.39-1.88-5.1-2.8q-12-6.44-24-12.87c-6.9-3.7-13.27-1.67-16.68,5.33-2.21,4.53-4.47,9-6.56,13.63-4.71,10.37-3.43,20,4.08,28.58q12.34,14.15,24.85,28.13a7.2,7.2,0,0,1,2,5.24c-.1,4.74,0,9.48-.06,14.22-.05,3-2.28,4.72-4.71,3.78a3.53,3.53,0,0,1-2.24-3.71c0-4.2.1-8.4-.07-12.59a6,6,0,0,0-1.33-3.48c-7.75-8.92-15.59-17.75-23.4-26.61-8.66-9.81-11-20.91-6.81-33.35.09-.29.11-.6.2-1.07H46.53c.39,1.75.74,3.45,1.16,5.14q8.1,32.52,16.17,65.05c.43,1.73,1.06,2.42,2.92,2.34,2.26-.09,4.08,1.33,4,3.35-.14,6.5.31,13.17-1,19.45-2.77,13.2-15,22.44-28.46,22.45-5.89,0-11.9.3-17.65-.71-11.85-2.06-21.11-12-23.24-23.88A12,12,0,0,0,0,141.17ZM174.83,129c0,3.35-.06,6.3,0,9.25.26,9.91,6.94,19,16.65,21,5.83,1.23,12,1,18,1a22.56,22.56,0,0,0,20.88-15.18c1.88-5.19,1.23-10.53,1.31-15.77-.32-.15-.45-.27-.58-.27-4,0-8.08,0-12.12-.08-2.7,0-4.34-1.38-4.36-3.5S216.23,122,219,122c2.21,0,4.41,0,6.78,0-.16-.77-.23-1.14-.32-1.5Q217.26,87.74,209.11,55c-1.43-5.71-1.45-5.65-7.44-5.71-1.6,0-2.25.43-2.64,2q-7.11,28.92-14.37,57.79c-1,4.19-2.07,8.37-3.17,12.84h2.87c6.21,0,12.43,0,18.64,0,2.3,0,3.63,1.31,3.67,3.34s-1.26,3.37-3.48,3.6c-.61.06-1.24,0-1.86,0h-26.5ZM13,121.82H57.24c-6.05-24.27-12-48.33-18.06-72.48a51.86,51.86,0,0,1-5.31,0c-2.14-.23-3,.45-3.59,2.68-3.09,13-6.39,25.91-9.61,38.86C18.12,101.07,15.59,111.31,13,121.82ZM7,129.05c0,3.48-.15,6.74,0,10,.52,9.43,7.3,18.19,16.52,20.23,5.07,1.12,10.46.91,15.72,1a24.64,24.64,0,0,0,7.81-.85c14.37-4.48,18.36-16.36,16.49-30.39ZM205.93,42.24c-.94-3.73-1.83-7.3-2.7-10.73H168.9V42.24Zm-44.08-11.3h0V22.56c0-.15,0-.31,0-.46-.12-3.51-2.39-6-5.66-6.21a5.8,5.8,0,0,0-6.22,5.6c-.2,6.35-.2,12.72,0,19.07A5.69,5.69,0,0,0,156.27,46a5.91,5.91,0,0,0,5.57-6C161.91,37,161.85,34,161.85,30.94ZM130.9,28v9.31c.17,3.63,2.59,6.16,5.93,6.18a5.9,5.9,0,0,0,6-6.11q.13-9.31,0-18.62a5.82,5.82,0,0,0-6-6c-3.38,0-5.78,2.52-5.87,6.2C130.84,22,130.9,25,130.9,28Zm-7.34,12.15c.14-1.71.32-2.93.33-4.15,0-6.13,0-12.26,0-18.39a16.11,16.11,0,0,0-.2-2.78,5.94,5.94,0,0,0-11.78.78c-.1,5.66-.06,11.33,0,17a2.23,2.23,0,0,0,.81,1.69C116.15,36.25,119.64,38.07,123.56,40.17ZM37.44,42.31C36.59,39,35.74,36,35.12,33c-.29-1.42-1-1.65-2.26-1.64-5.34,0-10.69,0-16,0a35.87,35.87,0,0,0-4.87.18,5.32,5.32,0,0,0-4.48,5.41c0,2.73,2.09,5.3,4.82,5.34C20.57,42.4,28.86,42.31,37.44,42.31ZM42,31.47c.83,3.38,1.55,6.62,2.48,9.79.15.51,1.22,1.05,1.88,1.06,5.82.09,11.64.08,17.46,0a2.45,2.45,0,0,0,1.85-.9c1.66-3.2,3.17-6.48,4.85-10Zm62.91-1.37c0-6,.09-11.59,0-17.16a6,6,0,0,0-6-5.92,6.06,6.06,0,0,0-6,6.13c-.09,3.1-.06,6.2,0,9.3a2.26,2.26,0,0,0,.79,1.68C97.21,26.12,100.85,28,104.87,30.1ZM213.19,42.37c4.33,0,8.5,0,12.68,0,3.42,0,5.77-2.23,5.87-5.32s-2.26-5.58-5.75-5.67c-4-.1-7.91,0-11.86,0h-3.68C211.42,35.26,212.29,38.76,213.19,42.37Z"/><path class="cls-1" d="M152.64,145.74c0-10.48-.08-21,.06-31.45a10.63,10.63,0,0,1,1.48-5.71,33.54,33.54,0,0,0,6.09-23.34,21.42,21.42,0,0,1,0-3.49,3.12,3.12,0,0,1,3.11-3.16c2-.15,3.56.84,3.63,2.8.27,8.27,1.48,16.86-3.35,24.25-3.43,5.24-4.24,10.63-4.16,16.68.23,18,.08,36,.08,54,0,.63,0,1.25,0,1.87-.06,2.72-1.38,4.32-3.52,4.28s-3.45-1.65-3.45-4.39C152.62,167.33,152.64,156.54,152.64,145.74Z"/><path class="cls-1" d="M93.09,159.11c0-5.58-.1-11.17.09-16.75A4.84,4.84,0,0,1,95.06,139a3.71,3.71,0,0,1,3.37.22,4.32,4.32,0,0,1,1.56,3.11c.11,11.32.1,22.65.05,34,0,2.36-1.5,3.87-3.47,3.88s-3.45-1.54-3.47-4.08C93.06,170.44,93.09,164.78,93.09,159.11Z"/></g></g></g></svg>