<svg xmlns="http://www.w3.org/2000/svg" viewBox="0 0 92.96 92.97"><defs><style>.cls-1{fill:#1c5531;}</style></defs><g id="Capa_2" data-name="Capa 2"><g id="Capa_1-2" data-name="Capa 1"><g id="_26w3ec.tif" data-name="26w3ec.tif"><path class="cls-1" d="M87.79,56.78c.82-3.79,1.62-7.65,2.39-11.39.38-1.85.76-3.69,1.15-5.54s.75-3.5,1.13-5.25l.5-2.29v-.89a1.33,1.33,0,0,0-1.59-.48Q83.84,33.19,76.3,35.4l-7.58,2.24c-.64.19-1,.48-1.14.83s.13.8.62,1.29c.82.83,1.65,1.65,2.44,2.42L72,43.48,50.58,64.89l-.33-.44-.14-.21a3.19,3.19,0,0,0-.35-.47L47,61c-2.88-2.89-5.86-5.89-8.82-8.8a7.07,7.07,0,0,0-5.12-2.11,6.88,6.88,0,0,0-4.91,2.28Q17.22,64.19,6.29,76L.56,82.18a2.52,2.52,0,0,0-.4.48.88.88,0,0,0,.15,1.19A.89.89,0,0,0,1.56,84a3.06,3.06,0,0,0,.49-.47l.09-.09L25.81,57.89l3.52-3.79a5.39,5.39,0,0,1,3.85-2h.08A5.55,5.55,0,0,1,37.16,54l12,12,.68.68c.91.9,1.28.9,2.2,0L73.85,44.76c.46-.46.67-.81.67-1.08s-.23-.64-.71-1.11-1.24-1.22-1.91-1.87l-1.53-1.47,20.28-6L86.15,55l-1.5-1.56c-.57-.59-1.07-1.12-1.59-1.63s-1-.86-1.24-.86h0c-.27,0-.64.25-1.26.87l-7.78,7.78q-9.07,9.08-18.16,18.15a4.89,4.89,0,0,1-7.45,0C45.58,76.2,44,74.61,42.42,73L38.69,69.3q-2.23-2.25-4.49-4.48a1.48,1.48,0,0,0-1-.51.86.86,0,0,0-.53.2,5.15,5.15,0,0,0-.64.67l-.18.2L9.41,90.91,9.33,91a3.78,3.78,0,0,0-.38.48.88.88,0,0,0,.18,1.18.87.87,0,0,0,1.24.09,3,3,0,0,0,.51-.5l.11-.14L32.56,67.62l.35-.33.48-.43.52.5a4.19,4.19,0,0,1,.37.35l3,3q4.14,4.13,8.27,8.28a7.55,7.55,0,0,0,5.31,2.48h0A7.63,7.63,0,0,0,56.21,79l22-22,2.19-2.22,1.38-1.4.34.34q.54.54,1,1.08c.88.91,1.71,1.77,2.6,2.58a1.75,1.75,0,0,0,1.21.48A1.62,1.62,0,0,0,87.79,56.78Z"/><path class="cls-1" d="M86.49,0H68.1a1.78,1.78,0,0,0-.62,1.56q0,12.18,0,24.36v7a2,2,0,0,0,0,.42,1,1,0,0,0,1,.94h0a1,1,0,0,0,1-1c0-.2,0-.41,0-.62V2H85.1V26.29c0,.11,0,.23,0,.35a6,6,0,0,0,0,.86.91.91,0,0,0,1,.88h0a.93.93,0,0,0,1-.87,2.79,2.79,0,0,0,0-.51V20.65q0-9.49,0-19A1.88,1.88,0,0,0,86.49,0Z"/><path class="cls-1" d="M54.3,55.36a1,1,0,0,0,2,0,3.1,3.1,0,0,0,0-.45V30.78c0-1.17-.27-1.43-1.47-1.44H38.13c-1.17,0-1.44.27-1.44,1.45,0,3.18,0,6.35,0,9.53v3.24c0,1,0,1.93,0,2.89a1,1,0,0,0,1,1h0a1,1,0,0,0,1-1c0-.16,0-.32,0-.48V31.38H54.29V54.56C54.28,54.84,54.28,55.1,54.3,55.36Z"/><path class="cls-1" d="M25.48,49.05v-.58c0-1.26-.26-1.52-1.48-1.52H7.4c-1.28,0-1.52.25-1.52,1.57q0,8.74,0,17.49v3.67a2.31,2.31,0,0,0,0,.38.93.93,0,0,0,.93.87.91.91,0,0,0,1-.82,2.68,2.68,0,0,0,0-.65V49H23.48V50c0,.3,0,.58,0,.86a1,1,0,1,0,2,0C25.49,50.24,25.48,49.64,25.48,49.05Z"/><path class="cls-1" d="M87.08,62.71a1,1,0,0,0-1-1.08h0c-.58,0-1,.42-1,1.1,0,.14,0,.29,0,.43V89.85c0,.69,0,1.4,0,2.09a1,1,0,0,0,1,1h0a1,1,0,0,0,1-1,1.4,1.4,0,0,0,0-.29V67.87C87.1,66.15,87.1,64.43,87.08,62.71Z"/><path class="cls-1" d="M69.49,78.82v-7c0-.91-.33-1.38-1-1.4h0a.9.9,0,0,0-.62.22,1.64,1.64,0,0,0-.36,1.19q0,9.85,0,19.71c0,1.37.73,1.39,1,1.4a.9.9,0,0,0,.66-.22,1.69,1.69,0,0,0,.37-1.19V81.26h0Z"/><path class="cls-1" d="M38.67,76.1c0-.38-.1-1.27-1-1.27h0a.89.89,0,0,0-.71.3,1.51,1.51,0,0,0-.28,1q0,7.74,0,15.49c0,.62.17,1.36,1,1.36h0c.82,0,1-.74,1-1.36,0-1.79,0-3.59,0-5.39V81.7C38.68,79.83,38.68,78,38.67,76.1Z"/><path class="cls-1" d="M23.48,91.67c0,.48.14,1.27,1,1.28a.87.87,0,0,0,.66-.25,1.38,1.38,0,0,0,.34-1q0-4.12,0-8.25c0-.38-.1-1.26-1-1.27h0c-.88,0-1,.88-1,1.26v8.24Z"/><path class="cls-1" d="M56.29,87.3c0-.83,0-1.66,0-2.48s-.38-1.18-1-1.18h0c-.62,0-1,.43-1,1.17,0,2.31,0,4.65,0,7,0,.73.38,1.18,1,1.18h0c.61,0,1-.44,1-1.18s0-1.57,0-2.36v-1.5h0Z"/></g></g></g></svg>