<svg xmlns="http://www.w3.org/2000/svg" viewBox="0 0 96.9 89.18"><defs><style>.cls-1{fill:#1c5531;}</style></defs><g id="Capa_2" data-name="Capa 2"><g id="Capa_1-2" data-name="Capa 1"><path class="cls-1" d="M96.62,87.53l-12.4-12.4a9,9,0,0,0-4.64-2.47l-.77-.15V45.68l1,.08c.37,0,.75.05,1.13.05A13.64,13.64,0,0,0,94.25,29.15a1,1,0,0,0-.73-.73,13.57,13.57,0,0,0-12.66,3.66l-.39.4-1.66,1.8v-13l.37-.29a11,11,0,0,0-.83-18.11,1,1,0,0,0-1,0A11,11,0,0,0,76.49,21l.38.29v5.31l-1.64-1.62a12,12,0,0,0-11.15-3.19,1,1,0,0,0-.73.73,12,12,0,0,0,3.23,11.2,12.14,12.14,0,0,0,9.27,3.51l1-.07V48.48l-1.69-1.95c-.25-.29-.49-.55-.74-.8a14.87,14.87,0,0,0-13.69-4l-1,.21-.14-1a5.25,5.25,0,0,0-5.17-4.48H41.54l-6.07-8.34a10,10,0,0,0-2.72-2.55l-1.55-1,1.69-.71A8.35,8.35,0,0,0,38,16.11V10.54H42A1,1,0,0,0,42,8.6H38.57V4.54A4.54,4.54,0,0,0,34,0H24.9a4.55,4.55,0,0,0-4.54,4.54V8.6H17a1,1,0,0,0,0,1.94h4.37v5.57a8.31,8.31,0,0,0,3.27,6.63l1.46,1.12-1.75.56a10,10,0,0,0-7,9.57V55a11.29,11.29,0,0,0,5.64,9.74l.48.28V78.94H5.12a5.12,5.12,0,0,0,0,10.24H7.6a1,1,0,1,0,0-1.94H5.12a3.18,3.18,0,0,1,0-6.36H24.39a1,1,0,0,0,1-1V65.85l1.14.21a10.91,10.91,0,0,0,2,.19h4.79V79.7a7.55,7.55,0,0,1-7.55,7.54H23.05a1,1,0,0,0,0,1.94h2.73a9.5,9.5,0,0,0,9.49-9.48V66.25h9V84.06a5.12,5.12,0,0,0,10.24,0V63.12A9.5,9.5,0,0,0,45,53.64H34.74V46.41l1.26.4a.71.71,0,0,0,.29,0H54.43a5.23,5.23,0,0,0,3.47-1.32l1.54-1.37.06,2.06A14.92,14.92,0,0,0,74.38,60.68c.46,0,1,0,1.43-.07l1.06-.1v12l-.78.15a9,9,0,0,0-4.61,2.46L59.14,87.47a1,1,0,0,0,.69,1.65h0a1,1,0,0,0,.68-.28L72.85,76.5a7.07,7.07,0,0,1,10,0l12.4,12.4a1,1,0,0,0,1.37,0,1,1,0,0,0,.28-.69A1,1,0,0,0,96.62,87.53ZM81.57,12.2A9.09,9.09,0,0,1,78.47,19l-.63.56L77.2,19a9.11,9.11,0,0,1,0-13.69l.64-.56.63.56A9.09,9.09,0,0,1,81.57,12.2ZM91.73,30.08l.78.09.08.77A11.72,11.72,0,0,1,81,43.87a10.36,10.36,0,0,1-1.25-.07L79,43.72,78.87,43a8.78,8.78,0,0,1-.06-1.06V41.5A11.7,11.7,0,0,1,91.73,30.08ZM65,24.3l.07-.81.81-.06A10.12,10.12,0,0,1,76.83,34.36l-.07.81-.8.07c-.28,0-.57,0-.86,0A10.12,10.12,0,0,1,65,24.3ZM76.87,56.43c0,.48,0,.94-.09,1.37l-.09.76-.75.09a13.6,13.6,0,0,1-1.56.09A13,13,0,0,1,61.52,44.23l.09-.75.75-.09A13,13,0,0,1,76.87,56.15ZM22.3,4.54a2.61,2.61,0,0,1,2.6-2.6H34a2.61,2.61,0,0,1,2.61,2.6V8.6H22.3ZM54.43,44.92H36.73l-4-4.53a1,1,0,0,0-1.37-.08A.93.93,0,0,0,31,41a.94.94,0,0,0,.24.7l1.56,1.76V53.64H19.24V34A8.1,8.1,0,0,1,33.9,29.22L40.26,38a1,1,0,0,0,.78.4H54.43a3.28,3.28,0,0,1,0,6.56ZM23.26,10.54H36.11v5.57a6.43,6.43,0,0,1-12.85,0Zm26.11,76.7a3.18,3.18,0,0,1-3.18-3.18V65.28a1,1,0,0,0-1-1H28.54a9.3,9.3,0,0,1-9.15-7.6l-.21-1.14H45a7.56,7.56,0,0,1,7.55,7.55V84.06A3.18,3.18,0,0,1,49.37,87.24Z"/></g></g></svg>