<svg xmlns="http://www.w3.org/2000/svg" viewBox="0 0 92.71 92.7"><defs><style>.cls-1{fill:#1c5531;}</style></defs><g id="Capa_2" data-name="Capa 2"><g id="Capa_1-2" data-name="Capa 1"><path class="cls-1" d="M80.39,91.62a18.38,18.38,0,1,0-17.45-31.8l-1.21.91-2-2c-2.47-2.48-4.93-4.95-7.38-7.44a1.5,1.5,0,0,1-.25-1.58,6.79,6.79,0,0,0,.08-6.5L52,42.74l10.3-10.29.49.37a18.24,18.24,0,0,0,16.09,3.42,17.87,17.87,0,0,0,10.76-7.66A18.4,18.4,0,0,0,61.39,5.27c-7.1,6.92-7.4,18-.7,25.64l.44.51-10.23,10-.48-.32A6.78,6.78,0,0,0,43,40.64a1.44,1.44,0,0,1-1.52-.26c-2.49-2.46-5-4.92-7.36-7.31L32.2,31.2l.26-.47c.34-.62.7-1.23,1.06-1.83a30.2,30.2,0,0,0,2-3.71A18,18,0,0,0,34.37,9.28,18.16,18.16,0,0,0,21.15.2a18.31,18.31,0,0,0-21,15.38A1.82,1.82,0,0,1,0,16v4.72c.08.34.16.67.23,1,.18.78.34,1.51.57,2.23A18.2,18.2,0,0,0,12.87,36a18.22,18.22,0,0,0,16.78-3l.51-.38.78-.58,1.79,1.79q3.81,3.82,7.59,7.66a1.52,1.52,0,0,1,.24,1.58A6.67,6.67,0,0,0,41,50.33l.32.48L31.16,60.94l-.75-.59-.76-.6a18.33,18.33,0,0,0-17.9-2.65A18.31,18.31,0,0,0,.16,71a2.27,2.27,0,0,1-.15.48v5.87c.06.22.12.44.17.66.14.54.28,1.06.44,1.57C3,86.68,7.66,90.92,15,92.52l.49.15.06,0h5.49l.7-.18c.56-.13,1.11-.27,1.66-.43a18.48,18.48,0,0,0,9.76-28.72l-.33-.47-.53-.73,1.72-1.72c2.64-2.63,5.26-5.25,7.9-7.85a1.45,1.45,0,0,1,1.48-.24,6.77,6.77,0,0,0,6.19-.2,1.6,1.6,0,0,1,1.65.27c2.48,2.44,5,5,7.43,7.38l2,2-.53.71-.33.45A18.39,18.39,0,0,0,70.35,92.27c.49.11,1,.21,1.49.3l.65.13H76l1.37-.31A26.83,26.83,0,0,0,80.39,91.62Zm2.87-58.88a18,18,0,0,1-9.47,2.57h-.1a17.33,17.33,0,0,1-8.56-2.65A2.2,2.2,0,0,1,64,30.13a10.39,10.39,0,0,1,20.31-.7l0,.2a2.46,2.46,0,0,0,.07.29A2.23,2.23,0,0,1,83.26,32.74ZM70.47,18.45a5.35,5.35,0,0,1-1.63-3.8,5.45,5.45,0,0,1,5.41-5.48h0a5.43,5.43,0,0,1,5.4,5.36,5.32,5.32,0,0,1-1.53,3.83A5.42,5.42,0,0,1,74.27,20h-.06A5.3,5.3,0,0,1,70.47,18.45ZM57.65,15.56a16.84,16.84,0,1,1,29.4,13.77l-.85.94-.36-1.22A12.23,12.23,0,0,0,79,21l-.9-.44.71-.7a7,7,0,0,0,2.21-6.71A6.62,6.62,0,0,0,78.5,9.09a6.94,6.94,0,0,0-9.07.51c-2.81,2.72-2.72,6.21.26,10.37l.49.69-.76.36a12.2,12.2,0,0,0-6.69,7.89l-.3,1-.83-.67C58.91,27.09,56.63,20.93,57.65,15.56ZM26.48,33.24a16.78,16.78,0,0,1-8,2.08,17.58,17.58,0,0,1-9.23-2.67,2.2,2.2,0,0,1-1.11-2.52,10.4,10.4,0,0,1,20.1-1.46C29.13,31.37,28.93,31.89,26.48,33.24ZM14.59,18.43A5.38,5.38,0,0,1,13,14.64,5.45,5.45,0,0,1,18.4,9.18h.05a5.48,5.48,0,0,1,5.37,5.37,5.4,5.4,0,0,1-1.57,3.84A5.46,5.46,0,0,1,18.4,20h0A5.37,5.37,0,0,1,14.59,18.43ZM30.32,30.14,30,29a12.26,12.26,0,0,0-6.79-8l-.9-.43.71-.71a7,7,0,0,0,2.18-6.78A6.64,6.64,0,0,0,22.51,9a7,7,0,0,0-9,.72c-3.43,3.49-1.79,7.37.2,10l.4.53-.51.43c-.45.38-.92.74-1.38,1.1a18.39,18.39,0,0,0-2.8,2.49,18.45,18.45,0,0,0-2,3.15c-.27.51-.54,1-.83,1.49l-.46.78-.65-.64C1.3,24.94-.95,14.79,5.83,7.19A16.91,16.91,0,0,1,18.14,1.55h.25A16.9,16.9,0,0,1,30.62,6.81a16.71,16.71,0,0,1,4.65,12.1,15.89,15.89,0,0,1-4.11,10.36ZM27.73,88.37a17.31,17.31,0,0,1-9.46,2.8,17.78,17.78,0,0,1-8.91-2.6,2.28,2.28,0,0,1-1.18-2.68,10.51,10.51,0,0,1,8.92-8.41A10.09,10.09,0,0,1,28.43,85.4c.07.28.14.56.22.83A1.81,1.81,0,0,1,27.73,88.37ZM14.56,74.25A5.31,5.31,0,0,1,13,70.45a5.45,5.45,0,0,1,1.63-3.86A5.35,5.35,0,0,1,18.4,65h0a5.43,5.43,0,0,1,5.38,5.4,5.43,5.43,0,0,1-5.44,5.43h0A5.36,5.36,0,0,1,14.56,74.25ZM31.2,85.16l-.85,1L30,84.89a12.21,12.21,0,0,0-6.82-8l-.9-.43.71-.71a7.06,7.06,0,0,0,2.23-6.63A6.68,6.68,0,0,0,22.7,65a6.93,6.93,0,0,0-9.07.4c-2.87,2.72-2.8,6.23.2,10.43l.49.69-.76.36a12.14,12.14,0,0,0-6.72,8L6.5,86l-.85-.88c-4.87-5-6.2-14.88.13-22.06A16.84,16.84,0,0,1,30,62,16.7,16.7,0,0,1,31.2,85.16ZM49.92,50a5.11,5.11,0,0,1-3.62,1.49h0a5.12,5.12,0,1,1,5.18-5.09A5,5,0,0,1,49.92,50ZM62.38,84.81l-.49.83-.64-.72A16.84,16.84,0,0,1,87,63.16c6.24,7.18,4.89,17,.07,22l-.85.87-.34-1.17a12.13,12.13,0,0,0-6.73-8l-.77-.36.5-.69c2.15-3,3.89-7.22,0-10.66a7,7,0,0,0-9.27.21c-2.9,2.74-2.9,6.45,0,10.2l.42.54-.53.43c-.44.38-.91.74-1.37,1.09a17.82,17.82,0,0,0-2.8,2.48,18.41,18.41,0,0,0-2,3.17C63,83.79,62.68,84.31,62.38,84.81ZM78.06,74.29a5.44,5.44,0,0,1-3.82,1.57h0a5.43,5.43,0,0,1-3.81-1.65,5.29,5.29,0,0,1-1.55-3.79,5.44,5.44,0,0,1,1.67-3.87A5.33,5.33,0,0,1,74.24,65h.09a5.41,5.41,0,0,1,3.73,9.27ZM74.19,91.17h0a17.76,17.76,0,0,1-9.07-2.69A2.18,2.18,0,0,1,64,85.93a10.47,10.47,0,0,1,9.78-8.5,10.31,10.31,0,0,1,10.53,7.9c.5,2.08.35,2.41-1.53,3.5A17.09,17.09,0,0,1,74.19,91.17Z"/></g></g></svg>