<svg xmlns="http://www.w3.org/2000/svg" viewBox="0 0 97.56 92.65"><defs><style>.cls-1{fill:#1c5531;}</style></defs><g id="Capa_2" data-name="Capa 2"><g id="Capa_1-2" data-name="Capa 1"><path class="cls-1" d="M54.88,91.09A22.51,22.51,0,0,0,68.69,92l23.18-5.89A7.54,7.54,0,0,0,88.34,71.4L76.84,74v-5.8l.29-.27a40,40,0,0,0,5.65-6.69,39.2,39.2,0,0,0,5.54-13.06,40.05,40.05,0,0,0,.08-17,1,1,0,0,0-.44-.64,1,1,0,0,0-.77-.14,1,1,0,0,0-.64.44,1,1,0,0,0-.14.77,38.09,38.09,0,0,1-.07,16.12,37.17,37.17,0,0,1-5.26,12.38,34.33,34.33,0,0,1-2.61,3.44l-1.63,1.91v-24a1,1,0,0,0-1-1H59.54V18.81a1,1,0,0,0-1-1l-17.3-.06a1,1,0,0,0-.72.3,1,1,0,0,0-.3.72V30.46H23.92a1,1,0,0,0-1,1V51.63H16.73V48.06a1,1,0,0,0-1-1H13l-.14-.76a36.67,36.67,0,0,1-.59-5.8,37.32,37.32,0,0,1,2.22-13.72c.37-1,.79-2.05,1.25-3a1,1,0,1,0-1.84-.85c-.49,1-.93,2.12-1.32,3.19a39.46,39.46,0,0,0-2.35,14.47A39.9,39.9,0,0,0,10.7,46l.17,1.08H1a1,1,0,0,0-1,1V82.19a1,1,0,0,0,1,1H15.71a1,1,0,0,0,1-1V79.42h8.4ZM14.7,81.18H2V49.08H14.7Zm43.33-8,1.09-1a4.93,4.93,0,0,0,1.1-1.43,8.06,8.06,0,0,0,.56-5.89A7.79,7.79,0,0,0,60,63c-.08-.13-.16-.26-.25-.38l-.17-.24V42.5H74.81v32L68.9,75.85c-.56.13-1.16.24-1.77.33a20.84,20.84,0,0,1-6.82-.2L58,75.33l-2.16-.9.19-.07A5.93,5.93,0,0,0,58,73.14ZM42.24,19.77l15.27.05V60.39L42.24,54.07ZM24.94,32.49H40.21V53.23L36.52,51.7a1,1,0,0,0-.39-.07H24.94ZM16.73,53.66h19.2l19.61,8.12a5.75,5.75,0,0,1,3.1,7.49,6.9,6.9,0,0,1-.91,1.59,5.93,5.93,0,0,1-6,2.08l-.46-.13L38,67.71a1,1,0,0,0-1.32.59,1,1,0,0,0,0,.77,1,1,0,0,0,.57.54l13,5,.3.11,4.35,1.67a35.13,35.13,0,0,0,3.86,1.31,22.19,22.19,0,0,0,6.79.67,23.38,23.38,0,0,0,3.83-.53l19.43-4.45a5.51,5.51,0,0,1,6.62,4.24,5.5,5.5,0,0,1-4,6.46L68.18,90a20.31,20.31,0,0,1-5.07.64,20.66,20.66,0,0,1-7.49-1.42L25.7,77.46a1,1,0,0,0-.37-.07h-8.6Z"/><path class="cls-1" d="M64.39,3.89a1,1,0,0,0,0-.78,1,1,0,0,0-.57-.53A39.24,39.24,0,0,0,52.36.08C51.5,0,50.63,0,49.77,0A39.46,39.46,0,0,0,23.22,10.19a1,1,0,0,0-.07,1.43,1,1,0,0,0,1.43.08A37.46,37.46,0,0,1,52.22,2.11,37.36,37.36,0,0,1,63.08,4.48a1,1,0,0,0,.77,0A1.07,1.07,0,0,0,64.39,3.89Z"/><path class="cls-1" d="M86.24,6.82a1,1,0,0,0-1.78-.6l-16,18.39a1,1,0,0,0-.25.74,1,1,0,0,0,.35.69,1,1,0,0,0,.66.25,1,1,0,0,0,.77-.35L86,7.55A1,1,0,0,0,86.24,6.82Z"/><path class="cls-1" d="M82.29,19.36a4,4,0,1,0,3.95,3.95A4,4,0,0,0,82.29,19.36Zm0,5.87a1.92,1.92,0,1,1,1.92-1.92A1.92,1.92,0,0,1,82.29,25.23Z"/><path class="cls-1" d="M71.51,5.29a4,4,0,1,0,3.95,4A4,4,0,0,0,71.51,5.29Zm0,5.87a1.92,1.92,0,1,1,1.92-1.92A1.92,1.92,0,0,1,71.51,11.16Z"/><path class="cls-1" d="M18.84,17.72a1,1,0,1,0-1-.63A1,1,0,0,0,18.84,17.72Z"/></g></g></svg>