<svg xmlns="http://www.w3.org/2000/svg" viewBox="0 0 104.31 104.19"><defs><style>.cls-1{fill:#1c5531;}</style></defs><g id="Capa_2" data-name="Capa 2"><g id="Capa_1-2" data-name="Capa 1"><g id="I2TkKH.tif"><path class="cls-1" d="M71.88,78.3A37.74,37.74,0,0,0,96.37,63c7.94-10.9,9.93-22.74,5.94-35.21C97.89,14,88.41,5.05,74.13,1.23A43.34,43.34,0,0,0,69.44.34L67.28,0H62.09L60.17.29c-1.49.23-2.89.43-4.28.75a39.47,39.47,0,0,0-30.27,32.9,39.21,39.21,0,0,0,2.75,21,40,40,0,0,0,6.18,10l1.16,1.41-7,7L24.4,69.1,0,93.5l.44.44c1.35,1.31,2.69,2.62,4,4,1.79,1.78,3.56,3.57,5.34,5.37l.91.93L35.3,79.76l-4.46-4.41L37.7,68.5l1.62,1.25.62.48C49.46,77.71,60.21,80.42,71.88,78.3ZM31.55,79.65,10.8,100.4l-7-7L24.56,72.65Zm-4-40.14A37.27,37.27,0,0,1,64.65,2.38h.07a37.09,37.09,0,0,1,26,63.52A36.65,36.65,0,0,1,64.81,76.64H64.6A37.27,37.27,0,0,1,27.56,39.51Z"/><path class="cls-1" d="M51.86,29.38l.53,1.06a21.27,21.27,0,0,1,1.8,4.35c.6,2.35,1,4.75,1.48,7.06.18,1,.37,2,.57,3l1,4.73.13.66h7.15l13.79,0Q80.39,45,82.52,39.64l3.08-7.71H81.5q-11.73,0-23.46,0h0a3.24,3.24,0,0,1-3.19-2c-.34-.74-.71-1.47-1.1-2.23s-.73-1.45-1.08-2.19c-2.41,0-4.84,0-7.2,0H41.22v2.38h.2c2.57,0,5.11,0,7.65,0A3,3,0,0,1,51.86,29.38Zm29.79,5-.76,2.73a5.54,5.54,0,0,1-.23.75l-.55,1.37c-.86,2.18-1.75,4.44-2.68,6.64a3.24,3.24,0,0,1-2.72,2c-2.46,0-4.94,0-7.39,0h-6a2.69,2.69,0,0,1-.75-.12l-1.27-.29L59,46.2,56.58,34.39Z"/><path class="cls-1" d="M58.73,52.48a4.68,4.68,0,1,0,4.68,4.68A4.68,4.68,0,0,0,58.73,52.48Zm0,6.94A2.27,2.27,0,1,1,61,57.16,2.26,2.26,0,0,1,58.73,59.42Z"/><path class="cls-1" d="M76,52.48a4.68,4.68,0,1,0,4.67,4.68A4.69,4.69,0,0,0,76,52.48Zm0,6.94a2.27,2.27,0,1,1,2.27-2.26A2.27,2.27,0,0,1,76,59.42Z"/></g></g></g></svg>