<svg xmlns="http://www.w3.org/2000/svg" viewBox="0 0 106.59 70.31"><defs><style>.cls-1{fill:#1c5531;}</style></defs><g id="Capa_2" data-name="Capa 2"><g id="Capa_1-2" data-name="Capa 1"><path class="cls-1" d="M106.59,5.67a1.12,1.12,0,0,0-.49-.93,1.16,1.16,0,0,0-1-.14L86.57,11.33a7.93,7.93,0,0,0-4.5,4.14,9.6,9.6,0,0,0-.38,1.11l-.31,1.07-1.08-.29a86.21,86.21,0,0,1-15.15-5.89c-7.26-3.75-13.5-3.13-20.23,2l-.29.22h-.37c-2.81,0-6.6.37-10.9.75-2.53.22-5,.43-6.93.55l-1.14.07-.05-1.15A8,8,0,0,0,20,6.79L1.53.07A1.13,1.13,0,0,0,.49.2,1.15,1.15,0,0,0,0,1.14V46.49a1.14,1.14,0,0,0,1.14,1.14H7.76a8.05,8.05,0,0,0,6.25-3l.69-.87.88.67,3.08,2.32.47.35C21.67,49,24.31,51,25.53,52c8.4,7,18.5,14.63,20.51,16a15.36,15.36,0,0,0,7.25,2.38c1,0,3.15,0,4.63-1.25l.51-.43.63.24a6.09,6.09,0,0,0,4.81-.11,7.35,7.35,0,0,0,3.64-3.65l.38-.81.87.18a7.72,7.72,0,0,0,4.92-.73,6.59,6.59,0,0,0,3.16-3.16l.33-.74.8.08a6.09,6.09,0,0,0,4.17-1.36,6.25,6.25,0,0,0,2.53-5.7l-.09-.75,7.28-4,.59.79a8,8,0,0,0,6.37,3.28h6.63A1.15,1.15,0,0,0,106.59,51Zm-93.52,36a5.71,5.71,0,0,1-5.31,3.67H2.28V2.77l17,6.16a5.68,5.68,0,0,1,3.36,7.31ZM80.75,56.76c-1,.8-2.62,1.29-3.65.48a.9.9,0,0,1-.21-.16,1.1,1.1,0,0,1-.15-.16c-1.89-1.54-9.58-9.44-13.38-13.4a1.12,1.12,0,0,0-.8-.36,1.15,1.15,0,0,0-.85,1.93c1,1,9.47,9.86,12.85,12.94l.5.45-.17.66a4.26,4.26,0,0,1-2.23,2.57c-1.68.84-3.65.84-4.69,0a1.11,1.11,0,0,1-.16-.11l-.13-.14C64.92,59.24,58.11,52,56.57,50.33a1.14,1.14,0,0,0-1.68,1.55C55,52,61.6,59.12,65.33,62.44l.56.5-.24.71a5.11,5.11,0,0,1-2.7,3,4.07,4.07,0,0,1-4.22-.59c-3.38-2.86-9.95-9.85-11.23-11.23a1.15,1.15,0,0,0-.8-.36,1.12,1.12,0,0,0-.81.31,1.14,1.14,0,0,0-.06,1.61c1.32,1.41,5.9,6.28,9.4,9.59L57,67.66,54.59,68a11.48,11.48,0,0,1-1.3.08,13.7,13.7,0,0,1-6-2C45.67,65,35.61,57.46,27,50.23c-1.31-1.1-4.41-3.43-6.91-5.3-1.59-1.2-2.89-2.17-3.85-2.91l-.66-.51,9-24.13.75,0c2.11-.09,5-.33,8.2-.62,2.15-.19,3.76-.33,5.21-.44l3-.23L39.67,18.2c-2.3,2.36-6.07,6.91-5.61,11a5.43,5.43,0,0,0,2.69,4.06c3.21,2,9.34.31,12.39-3.44l.28-.34.43-.07a14.8,14.8,0,0,0,4.81-1.52l.7-.35.57.54c2.63,2.46,6.15,5.37,9.88,8.44C72.41,41.91,79.9,48.08,82,51.67A3.78,3.78,0,0,1,80.75,56.76ZM83.64,50l-.58-.79c-3-4-9.47-9.32-15.77-14.51C63,31.22,59,27.89,56.37,25.28a1.15,1.15,0,0,0-1.35-.2,14.2,14.2,0,0,1-6.37,2.14,1.08,1.08,0,0,0-.85.52C46,30.55,40.54,32.89,38,31.28a3.07,3.07,0,0,1-1.64-2.38c-.26-2.29,1.77-5.91,5.3-9.44,8.45-8.45,14.54-10.07,22.49-6a88.33,88.33,0,0,0,16.7,6.38l.65.17.22.93a4.68,4.68,0,0,0,.17.61L91,46Zm20.67-.15H98.82a5.7,5.7,0,0,1-5.3-3.68L84,20.78a5.66,5.66,0,0,1,3.37-7.31l17-6.17Z"/></g></g></svg>