<svg xmlns="http://www.w3.org/2000/svg" viewBox="0 0 102 67.28"><defs><style>.cls-1{fill:#78af20;}</style></defs><g id="Capa_2" data-name="Capa 2"><g id="Capa_1-2" data-name="Capa 1"><path class="cls-1" d="M102,5.43a1.09,1.09,0,0,0-1.46-1L82.85,10.84a7.56,7.56,0,0,0-4.31,4,7.45,7.45,0,0,0-.36,1.07l-.3,1-1-.28A81.27,81.27,0,0,1,62.35,11C55.4,7.39,49.43,8,43,12.9l-.28.21h-.35c-2.7.05-6.32.36-10.44.72-2.42.21-4.74.41-6.62.53l-1.1.06-.05-1.1a7.59,7.59,0,0,0-5-6.83L1.46.07A1,1,0,0,0,.47.2,1.07,1.07,0,0,0,0,1.09v43.4a1.09,1.09,0,0,0,1.09,1.09H7.43a7.7,7.7,0,0,0,6-2.91l.65-.83.85.64,2.95,2.22.45.34c2.43,1.83,5,3.73,6.12,4.7,8,6.74,17.7,14,19.63,15.27A14.69,14.69,0,0,0,51,67.28a7,7,0,0,0,4.42-1.19l.5-.42.6.24a5.88,5.88,0,0,0,4.6-.1,7,7,0,0,0,3.48-3.5l.36-.77.84.17a7.41,7.41,0,0,0,4.71-.7,6.28,6.28,0,0,0,3-3l.32-.71.77.07a5.76,5.76,0,0,0,4-1.3A6,6,0,0,0,81,50.6L81,49.88l7-3.85.56.76a7.65,7.65,0,0,0,6.1,3.13h6.34A1.09,1.09,0,0,0,102,48.83ZM12.5,39.88A5.42,5.42,0,0,1,7.43,43.4H2.18V2.65l16.23,5.9a5.41,5.41,0,0,1,3.22,7ZM77.28,54.32c-1,.77-2.52,1.24-3.49.46a1.19,1.19,0,0,1-.21-.15,1,1,0,0,1-.14-.16c-1.81-1.47-9.17-9-12.81-12.83a1,1,0,0,0-.76-.33,1.09,1.09,0,0,0-1.11,1.06,1.08,1.08,0,0,0,.3.78c.92,1,9.06,9.44,12.29,12.38l.48.44-.16.62a4.09,4.09,0,0,1-2.14,2.47c-1.6.8-3.48.8-4.49,0L64.89,59l-.12-.13c-2.64-2.12-9.16-9-10.63-10.65a1.09,1.09,0,0,0-1.61,1.47c.06.07,6.42,6.93,10,10.12l.54.48-.24.68a4.87,4.87,0,0,1-2.58,2.89,3.89,3.89,0,0,1-4-.56C53,60.51,46.68,53.82,45.45,52.5a1.08,1.08,0,0,0-.76-.34A1.09,1.09,0,0,0,43.86,54c1.26,1.35,5.65,6,9,9.18l1.67,1.58L52.25,65A10.76,10.76,0,0,1,51,65.1a13.12,13.12,0,0,1-5.75-1.91c-1.54-1-11.17-8.21-19.42-15.12-1.26-1-4.23-3.28-6.61-5.07-1.53-1.15-2.77-2.08-3.69-2.79l-.63-.49,8.65-23.08.71,0c2-.08,4.76-.32,7.85-.59l5-.42L40,15.37l-2,2.05C35.77,19.67,32.15,24,32.59,27.9a5.18,5.18,0,0,0,2.57,3.88c3.08,1.93,9,.29,11.87-3.29l.26-.33.42-.06a14.23,14.23,0,0,0,4.6-1.46l.67-.33.55.51C56,29.18,59.41,32,63,34.9,69.3,40.11,76.46,46,78.43,49.45A3.61,3.61,0,0,1,77.28,54.32Zm2.77-6.44-.57-.75c-2.83-3.79-9.06-8.92-15.08-13.89-4.09-3.37-8-6.55-10.46-9A1.09,1.09,0,0,0,52.66,24a13.62,13.62,0,0,1-6.11,2.05,1.06,1.06,0,0,0-.81.5c-1.69,2.68-6.94,4.93-9.42,3.39a3,3,0,0,1-1.56-2.29c-.25-2.19,1.69-5.65,5.07-9C47.91,10.54,53.75,9,61.35,12.91a83.07,83.07,0,0,0,16,6.1l.61.17.22.89a4.7,4.7,0,0,0,.16.58L87.08,44Zm19.77-.14H94.57a5.44,5.44,0,0,1-5.07-3.52L80.37,19.89a5.41,5.41,0,0,1,3.22-7L99.82,7Z"/></g></g></svg>