<svg xmlns="http://www.w3.org/2000/svg" viewBox="0 0 235.68 180.49"><defs><style>.cls-1{fill:#f4f4f4;}</style></defs><g id="Capa_2" data-name="Capa 2"><g id="Capa_1-2" data-name="Capa 1"><path class="cls-1" d="M235.68,150.08c-.44,1.76-.85,3.54-1.34,5.29a34.29,34.29,0,0,1-32.67,25.06q-83.77.1-167.54,0a34.3,34.3,0,0,1-34.07-34q-.15-65,0-130A16,16,0,0,1,16.37,0Q90.25,0,164.12,0a16,16,0,0,1,16.32,16.35c.05,13.88,0,27.77,0,41.66v2.74h37.38c9.51,0,14.73,3.88,17.56,13,0,.13.19.22.29.33Zm-62.44,16.58a4.36,4.36,0,0,0-.3-.88c-4.66-6.65-6.35-14.08-6.34-22.14q.14-63,0-125.9c0-3.39-.51-3.92-3.79-3.92H17.64c-3.31,0-3.81.52-3.81,3.9V144.78c0,13.1,8.82,21.87,22,21.87H173.24Zm7.42-92.07a5,5,0,0,0-.19.87c0,23.86-.14,47.72.08,71.58.1,10.88,9.71,19.64,20.7,19.61s20.48-9,20.56-20c.16-23,.05-46,.07-69,0-2-.83-3-2.87-3Z"/><path class="cls-1" d="M93.26,41.9q26.33,0,52.66,0c5.37,0,8.84,4.88,6.8,9.54A6.81,6.81,0,0,1,146,55.71H41.11a13.37,13.37,0,0,1-3-.19,6.88,6.88,0,0,1,1.77-13.6Q66.58,41.88,93.26,41.9Z"/><path class="cls-1" d="M92.74,138.57q-26.34,0-52.66,0c-5.48,0-8.94-5.06-6.71-9.75a6.81,6.81,0,0,1,6.65-4H144.88a14,14,0,0,1,3,.18,6.89,6.89,0,0,1-1.77,13.61q-24.95,0-49.9,0Z"/><path class="cls-1" d="M53.18,111c-4.37,0-8.73,0-13.1,0s-7.35-2.87-7.37-7.32q0-13.44,0-26.89A6.86,6.86,0,0,1,40,69.53q13.45,0,26.89,0a6.86,6.86,0,0,1,7.25,7.2q.08,13.45,0,26.9c0,4.45-2.9,7.28-7.37,7.31S57.7,111,53.18,111Zm7-13.9V83.46H46.66V97.05Z"/><path class="cls-1" d="M120.87,69.52h24.59c4.67,0,7.81,2.77,7.82,6.87s-3.12,6.93-7.76,6.94q-24.93,0-49.87,0c-4.61,0-7.76-2.89-7.71-7s3.17-6.81,7.65-6.81Q108.23,69.5,120.87,69.52Z"/><path class="cls-1" d="M120.86,97.14q12.3,0,24.59,0c4.68,0,7.81,2.77,7.83,6.87s-3.11,6.94-7.75,6.94H95.66c-4.61,0-7.76-2.88-7.72-7s3.17-6.82,7.64-6.82Q108.23,97.12,120.86,97.14Z"/></g></g></svg>