<svg xmlns="http://www.w3.org/2000/svg" viewBox="0 0 303.09 231.7"><defs><style>.cls-1{fill:#1a5632;}</style></defs><g id="Capa_2" data-name="Capa 2"><g id="Capa_1-2" data-name="Capa 1"><g id="vyMwpZ"><path class="cls-1" d="M0,158.5c1.28-2.29,3-3.75,5.86-3.78.66,0,1.69-1.37,1.92-2.28q7.72-30.49,15.3-61c2.36-9.44,4.7-18.89,7.16-28.77-4.84,0-9.42,0-14,0A15.66,15.66,0,0,1,1,50.18,15.44,15.44,0,0,1,9.4,32.68,22.57,22.57,0,0,1,17.68,31c6.1-.25,12.23,0,18.34-.15a5.09,5.09,0,0,0,3.17-1.47c3.22-3.25,7.52-3.26,10.73,0a5.46,5.46,0,0,0,3.45,1.51c14.7.1,29.4.23,44.09,0,3.73-.07,7.43-1.54,11.5-2.45,0-3.33,0-6.75,0-10.17,0-8.38,3.83-14.46,10.71-17.06s13.32-.63,19,5.6a3.88,3.88,0,0,0,.7.4,17.31,17.31,0,0,1,12.68-3.19c4.66.68,8.17,3.2,11.25,7a17.05,17.05,0,0,1,13.08-3.35c4.74.74,8.31,3.36,11.23,7.2,6.08-4,12.36-4.77,18.68-1s8.46,9.78,8,17.21h3.46c10.46,0,20.91,0,31.36,0a4.89,4.89,0,0,0,4.32-1.79,6.53,6.53,0,0,1,9.92,0,5,5,0,0,0,4.3,1.84c5.13-.08,10.28.23,15.39-.09,9.9-.61,16.77,3.16,20,12.82v5.92c-2.87,9.56-9.26,13.8-19.65,13.11-3.43-.23-6.88,0-10.46,0,.16.82.24,1.4.37,2q3.91,15.75,7.83,31.5,7,28.07,14,56.12c.25,1,1.07,2.44,1.77,2.52,3.18.39,4.85,2.35,6.11,4.94v19.54c-.58,2.16-1.09,4.35-1.76,6.49A37.6,37.6,0,0,1,266,212.34c-8.05,0-16.32.37-24.12-1.26-17-3.54-28.59-18.83-28.81-36.2-.05-3.85,0-7.7,0-11.55,0-6.24,1.6-8,8.22-8.7Q232.63,109,244.13,62.88H212.31V72c0,4.24.07,8.49,0,12.73-.08,3-1.92,4.9-4.44,4.9s-4.31-1.89-4.36-4.92c-.07-4.83,0-9.67,0-14.5V66.66c-7.78,1.83-14.12,0-19-6.11-6.5,3.57-8.93,4.86-18.7,1.9a15,15,0,0,1-5,12.06c1.64,2,3.2,3.9,4.73,5.8a27.18,27.18,0,0,1,6.17,17.49c0,5.72,0,11.44,0,17.16,0,3.31-1.6,5.2-4.3,5.27s-4.53-1.91-4.55-5.34c0-5.23-.14-10.46,0-15.68a20.05,20.05,0,0,0-5.28-14.62c-1.57-1.75-3-3.61-4.6-5.51-6.53,3-13.28,4.73-20.19,2.94-5.18-1.33-10.09-3.74-15.09-5.76a55.38,55.38,0,0,1-5.3-2.61c-2.68-1.44-3.57-3.8-2.41-6.12s3.58-3.12,6.29-1.84c3.39,1.6,6.75,3.26,10,5,10.12,5.36,19.47,3.06,28.4-2.84,3.07-2,2.78-6.05-.47-8.12-2.07-1.32-4.31-2.38-6.48-3.54Q132.53,48,117.29,39.86c-8.76-4.69-16.85-2.11-21.18,6.77-2.81,5.75-5.67,11.48-8.32,17.31-6,13.16-4.35,25.35,5.18,36.28q15.66,18,31.54,35.71a9.11,9.11,0,0,1,2.57,6.65c-.13,6,0,12-.07,18-.07,3.8-2.9,6-6,4.81-2.12-.82-2.86-2.55-2.85-4.72,0-5.33.12-10.66-.08-16a7.7,7.7,0,0,0-1.7-4.42c-9.83-11.32-19.79-22.53-29.71-33.78C75.7,94.08,72.7,80,78.05,64.2a11.79,11.79,0,0,0,.25-1.36H59.07c.5,2.22.94,4.38,1.47,6.52Q70.83,110.66,81.08,152c.54,2.19,1.33,3.07,3.7,3,2.86-.12,5.17,1.69,5.12,4.25-.17,8.25.4,16.72-1.27,24.7-3.52,16.75-19,28.49-36.13,28.5-7.48,0-15.11.37-22.41-.9C15,208.85,3.29,196.2.59,181.14A17,17,0,0,0,0,179.22Zm222,5.22c0,4.25-.08,8,0,11.74.33,12.57,8.82,24.12,21.14,26.73,7.4,1.56,15.26,1.29,22.91,1.25,12-.06,22.4-7.95,26.5-19.27,2.38-6.6,1.56-13.37,1.66-20-.4-.2-.57-.35-.74-.35-5.12,0-10.25,0-15.38-.09-3.42-.05-5.51-1.76-5.54-4.45s2-4.38,5.47-4.41c2.79,0,5.59,0,8.61,0-.21-1-.3-1.44-.42-1.91q-10.35-41.55-20.7-83.1c-1.81-7.25-1.84-7.16-9.44-7.24-2,0-2.86.54-3.36,2.59q-9,36.71-18.25,73.37c-1.32,5.31-2.62,10.62-4,16.29h3.65c7.89,0,15.77,0,23.66,0,2.92,0,4.61,1.67,4.67,4.23s-1.62,4.29-4.43,4.58a23.18,23.18,0,0,1-2.36,0H222ZM16.48,154.65H72.67l-22.93-92a65.35,65.35,0,0,1-6.74,0c-2.72-.29-3.88.57-4.55,3.4-3.94,16.47-8.12,32.89-12.21,49.33C23,128.32,19.79,141.31,16.48,154.65Zm-7.54,9.18c0,4.42-.19,8.56,0,12.67.66,12,9.27,23.09,21,25.68,6.44,1.42,13.28,1.16,20,1.31a31.38,31.38,0,0,0,9.92-1.08c18.25-5.68,23.31-20.77,20.94-38.58ZM261.43,53.63,258,40H214.42V53.63Zm-56-14.35h0V28.06c-.16-4.46-3-7.62-7.2-7.88a7.35,7.35,0,0,0-7.89,7.1c-.25,8.07-.26,16.15,0,24.21a7.24,7.24,0,0,0,8,7,7.51,7.51,0,0,0,7.06-7.65C205.54,47,205.47,43.12,205.47,39.28Zm-39.3-3.71V46.79c0,.2,0,.4,0,.6.21,4.61,3.29,7.82,7.53,7.85a7.5,7.5,0,0,0,7.59-7.76q.18-11.82,0-23.64c-.08-4.62-3.34-7.72-7.64-7.66s-7.35,3.19-7.46,7.86C166.1,27.88,166.18,31.72,166.17,35.57ZM156.86,51c.18-2.17.41-3.72.42-5.27,0-7.79,0-15.57,0-23.35a20.74,20.74,0,0,0-.25-3.53,7.4,7.4,0,0,0-7.77-6.23,7.33,7.33,0,0,0-7.18,7.22c-.14,7.19-.09,14.38,0,21.57a2.87,2.87,0,0,0,1,2.15C147.45,46,151.88,48.34,156.86,51ZM47.52,53.72c-1.07-4.27-2.14-8-2.93-11.88-.37-1.81-1.29-2.11-2.87-2.09-6.79,0-13.58,0-20.37,0a43.88,43.88,0,0,0-6.18.23,6.73,6.73,0,0,0-5.69,6.86c0,3.47,2.65,6.73,6.13,6.78C26.12,53.83,36.63,53.72,47.52,53.72ZM53.27,40c1,4.3,2,8.4,3.14,12.43.19.65,1.56,1.34,2.39,1.35,7.39.11,14.78.1,22.17,0a3.1,3.1,0,0,0,2.35-1.14c2.11-4.06,4-8.23,6.15-12.65Zm79.86-1.74c0-7.62.12-14.71,0-21.79a7.61,7.61,0,0,0-7.59-7.51,7.7,7.7,0,0,0-7.64,7.78c-.11,3.93-.08,7.88,0,11.81a2.86,2.86,0,0,0,1,2.14C123.41,33.16,128,35.53,133.13,38.21ZM270.64,53.78c5.5,0,10.8.06,16.1,0,4.34-.06,7.33-2.84,7.46-6.76s-2.87-7.09-7.31-7.2c-5-.13-10,0-15.05,0h-4.68C268.4,44.77,269.51,49.2,270.64,53.78Z"/><path class="cls-1" d="M193.77,185c0-13.31-.09-26.62.09-39.93a13.5,13.5,0,0,1,1.87-7.24,42.67,42.67,0,0,0,7.74-29.63,25.22,25.22,0,0,1,.05-4.43,4,4,0,0,1,3.94-4c2.53-.2,4.53,1,4.61,3.54.34,10.5,1.87,21.41-4.25,30.79-4.35,6.66-5.38,13.5-5.29,21.17.3,22.87.11,45.75.11,68.62,0,.79,0,1.57,0,2.36-.08,3.46-1.75,5.49-4.46,5.44s-4.38-2.1-4.39-5.57C193.76,212.43,193.78,198.72,193.77,185Z"/><path class="cls-1" d="M118.18,202c0-7.09-.13-14.19.11-21.27a6.19,6.19,0,0,1,2.39-4.27,4.69,4.69,0,0,1,4.28.28,5.48,5.48,0,0,1,2,3.95c.14,14.37.12,28.75.06,43.13,0,3-1.9,4.91-4.4,4.93s-4.38-2-4.4-5.19C118.14,216.37,118.18,209.19,118.18,202Z"/></g></g></g></svg>