<svg xmlns="http://www.w3.org/2000/svg" xmlns:xlink="http://www.w3.org/1999/xlink" viewBox="0 0 184.25 150.89"><defs><style>.cls-1{fill:none;}.cls-2{fill:url(#Degradado_sin_nombre_83);}.cls-3{fill:url(#Degradado_sin_nombre_2);}.cls-4{fill:url(#Degradado_sin_nombre_2-2);}.cls-5{fill:url(#Degradado_sin_nombre_2-3);}.cls-6{fill:#76bc21;}</style><linearGradient id="Degradado_sin_nombre_83" x1="-1975.17" y1="6713.48" x2="-1974.41" y2="6713.48" gradientTransform="matrix(-107.42, 134.98, 134.98, 107.42, -1118246.02, -454540.2)" gradientUnits="userSpaceOnUse"><stop offset="0" stop-color="#f0cb00"/><stop offset="0.82" stop-color="#76ab2a"/><stop offset="1" stop-color="#76ab2a"/></linearGradient><linearGradient id="Degradado_sin_nombre_2" x1="-1989.84" y1="6775.72" x2="-1989.08" y2="6775.72" gradientTransform="matrix(50.91, 81.72, 81.72, -50.91, -452350.46, 507564.04)" gradientUnits="userSpaceOnUse"><stop offset="0" stop-color="#9ea020"/><stop offset="0.82" stop-color="#1b5733"/><stop offset="1" stop-color="#1b5733"/></linearGradient><linearGradient id="Degradado_sin_nombre_2-2" x1="-1850.01" y1="6734.35" x2="-1849.25" y2="6734.35" gradientTransform="matrix(17.46, -66.68, -66.68, -17.46, 481459.61, -5698.39)" xlink:href="#Degradado_sin_nombre_2"/><linearGradient id="Degradado_sin_nombre_2-3" x1="-1971.84" y1="6668.41" x2="-1971.08" y2="6668.41" gradientTransform="matrix(-90.5, 22.23, 22.23, 90.5, -326544.21, -559613.79)" xlink:href="#Degradado_sin_nombre_2"/></defs><g id="Capa_2" data-name="Capa 2"><g id="Capa_1-2" data-name="Capa 1"><path class="cls-1" d="M109,37.67l-.62-1.06c2-2.24,3.88-4.61,5.7-7q-3.64,2.36-7.41,4.32A64.12,64.12,0,0,0,89.27,16.77l-.14.2A63.43,63.43,0,0,0,79.8,29c-.22.36-.42.72-.62,1.08-2.94-.66-5.93-1.12-8.91-1.51,2.56,1.34,5,2.77,7.41,4.31A64.37,64.37,0,0,0,71.3,56.68a64,64,0,0,0,15,2.37l1.24,0c.84,2.9,1.88,5.73,3,8.54,0-2.9,0-5.75.22-8.58a64.33,64.33,0,0,0,24.14-5.94l.26-.12h0l-.21-.87A63,63,0,0,0,109,37.67Z"/><path class="cls-2" d="M117.52,75c.68-.52,1.33-1.06,2-1.63L120,73l.18-.17.61-.57c.24-.23.48-.46.72-.71l.67-.67c.27-.29.55-.59.81-.89s.36-.39.53-.59l.07-.08.63-.74.63-.79c.35-.45.7-.9,1-1.36l.8-1.15.31-.47.35-.55c.17-.27.34-.53.49-.8s.27-.45.4-.68l.5-.88c.32-.6.63-1.2.92-1.81.15-.31.3-.61.43-.92s.28-.62.41-.94l.39-.94q.19-.48.36-1c.3-.82.58-1.66.83-2.51.07-.21.13-.43.19-.65a2.13,2.13,0,0,0,.07-.27c.09-.32.17-.65.25-1a.27.27,0,0,0,0-.12c.1-.37.18-.74.26-1.12a.06.06,0,0,1,0,0l.15-.75c0-.18.07-.37.1-.55.07-.37.13-.75.19-1.12s.1-.76.16-1.14l0-.38c0-.24.06-.48.08-.73s.05-.5.07-.75c0,0,0-.09,0-.13,0-.34,0-.67.06-1s0-.65,0-1,0-.79,0-1.19c0-.16,0-.33,0-.49a41.93,41.93,0,0,0-25.27-38l-.53-.22c-.24-.1-.49-.21-.74-.3l-.91-.35c-.36-.14-.72-.26-1.09-.38l-.9-.29c-1.08-.34-2.18-.63-3.3-.88l-.72-.16C99.63.72,99,.6,98.34.51L97.27.35c-.35,0-.71-.09-1.08-.12a3.13,3.13,0,0,0-.44,0C95.18.13,94.6.08,94,.06h-.31c-.63,0-1.26,0-1.89,0H90.57c-.66,0-1.32.05-2,.1l-1,.09-.7.08-.63.08c-.48.06-1,.14-1.43.21L84.16.7c-1.15.21-2.27.46-3.38.77l-1.29.38-.13,0-1.18.38c-.39.13-.78.27-1.16.42a1,1,0,0,0-.21.08l-1,.39q-.8.31-1.56.69l-.9.42-.29.15-.86.44c-.46.24-.92.5-1.37.76a41.88,41.88,0,0,0-20.94,36.3c0,1.44.07,2.87.21,4.28h0c0,.4.09.8.15,1.21,0,.07,0,.14,0,.21.05.34.1.68.16,1a.76.76,0,0,0,0,.16c.05.33.1.66.17,1l.06.31c.07.36.15.73.23,1.09.18.82.39,1.62.63,2.42.09.34.2.68.3,1,0,.13.08.26.13.39s.17.51.26.76a2,2,0,0,0,.12.34c.1.3.21.59.33.88s.33.86.52,1.28.32.76.5,1.13.34.73.52,1.1c0,0,0,0,0,0,.14.28.28.56.43.84s.16.32.25.47c.17.32.34.63.52.94.38.67.78,1.31,1.2,2,.16.25.33.49.5.74s.25.37.37.55l.3.41c.13.18.25.35.39.52q.6.83,1.26,1.62c.18.22.37.45.56.66l.13.15c.16.18.31.36.47.53s.18.2.27.3.3.33.46.49a39.27,39.27,0,0,0,3.09,3c.18.16.38.32.57.47l.26.23.57.45.22.17c.22.18.44.35.67.51.6.46,1.22.89,1.84,1.31.32.21.64.42,1,.62s.61.38.91.56l.13.08h0A41.94,41.94,0,0,0,117,75.43ZM115.17,53l-.26.12A64.33,64.33,0,0,1,90.77,59c-.21,2.83-.27,5.68-.22,8.58-1.08-2.81-2.12-5.64-3-8.54l-1.24,0a64,64,0,0,1-15-2.37,64.37,64.37,0,0,1,6.38-23.77c-2.37-1.54-4.85-3-7.41-4.31,3,.39,6,.85,8.91,1.51.2-.36.4-.72.62-1.08A63.43,63.43,0,0,1,89.13,17l.14-.2a64.12,64.12,0,0,1,17.37,17.15q3.77-2,7.41-4.32c-1.82,2.4-3.68,4.77-5.7,7l.62,1.06a63,63,0,0,1,6,14.42l.21.87Z"/><path class="cls-3" d="M106.64,33.92q3.77-2,7.41-4.32c-1.82,2.4-3.68,4.77-5.7,7l.62,1.06a63,63,0,0,1,6,14.42l.21.87h0l.83-.39c.75-.35,1.5-.71,2.24-1.08.33-.16.64-.33,1-.5l1.23-.65,1.1-.6c.72-.4,1.45-.81,2.17-1.24a91.28,91.28,0,0,1-7.48,8.24l0,.57a63.44,63.44,0,0,1,.87,17.82l0,.29h0l.52-.4c.68-.52,1.33-1.06,2-1.63L120,73l.18-.17.61-.57c.24-.23.48-.46.72-.71l.67-.67c.28-.29.55-.59.81-.89s.36-.39.53-.59l.07-.08.63-.74.63-.79c.35-.45.7-.9,1-1.36s.55-.77.81-1.15l.31-.47.35-.55.49-.8c.14-.22.27-.45.4-.68l.5-.88c.32-.6.63-1.2.92-1.81.15-.31.3-.61.43-.92s.28-.62.41-.94l.39-.94q.19-.48.36-1c.3-.82.58-1.66.83-2.51.07-.21.13-.43.19-.65a2.68,2.68,0,0,0,.07-.27c.09-.32.17-.65.25-1a.27.27,0,0,0,0-.12c.1-.37.18-.74.26-1.12a.06.06,0,0,1,0,0l.15-.75c0-.18.07-.37.11-.55l.18-1.12c0-.38.1-.76.16-1.14l0-.38c0-.24.06-.48.08-.73s.05-.5.07-.75c0,0,0-.09,0-.13,0-.34,0-.67.06-1s0-.65,0-1,0-.79,0-1.19v-.49h0c-10.92-13.11-24.6-23-41.11-27.61l-.68-.19-.62-.17a94.86,94.86,0,0,0-10.94-2h0a92,92,0,0,1,8.51,5.09l.38.26A64.12,64.12,0,0,1,106.64,33.92Z"/><path class="cls-4" d="M108.46,3.43l-.53-.22c-.24-.1-.49-.21-.74-.3l-.91-.35c-.36-.14-.72-.26-1.09-.38l-.9-.29c-1.08-.34-2.18-.63-3.3-.88l-.72-.16C99.63.72,99,.6,98.34.51L97.27.35c-.35,0-.71-.09-1.08-.12a3.13,3.13,0,0,0-.44,0C95.18.13,94.6.08,94,.06h-.31c-.63,0-1.26,0-1.89,0H90.57c-.66,0-1.32.05-2,.1l-1,.09-.7.08-.63.08c-.48.06-1,.14-1.43.21L84.16.7c-1.15.21-2.27.46-3.38.77l-1.29.38-.13,0c-.4.12-.79.24-1.18.38s-.78.27-1.16.42l-.21.08-1,.39q-.8.31-1.56.69l-.9.42-.29.15-.86.44c-.46.24-.92.5-1.37.76v0C64.76,21.82,63,38.83,67.27,55.7c0,.21.11.42.16.63a94.6,94.6,0,0,0,3.62,10.52,93.05,93.05,0,0,1,.23-9.91,2.46,2.46,0,0,0,0-.26,64.37,64.37,0,0,1,6.38-23.77c-2.37-1.54-4.85-3-7.41-4.31,3,.39,6,.85,8.9,1.51.21-.36.41-.72.63-1.08A63.43,63.43,0,0,1,89.13,17l.14-.2-.38-.26a92,92,0,0,0-8.51-5.09,94.86,94.86,0,0,1,10.94,2l.62.17.68.19,0-.17A63.87,63.87,0,0,1,108.41,3.53Z"/><path class="cls-5" d="M54.94,61.84c.17.32.34.63.52.94.38.67.78,1.32,1.2,2,.16.25.33.49.5.74s.25.37.37.55.19.28.3.41.25.35.39.52q.6.83,1.26,1.62c.18.22.37.45.56.66l.13.15c.16.18.31.36.47.53s.18.2.27.3.3.33.46.49a41.18,41.18,0,0,0,3.09,3l.57.48.26.22.57.45.22.17c.22.18.44.35.67.51.6.46,1.22.89,1.84,1.31.32.21.64.42,1,.62s.61.38.91.56l.13.08h0a90.53,90.53,0,0,0,24.2-6.94,76.54,76.54,0,0,0,21-13.94l.47-.44a91.28,91.28,0,0,0,7.48-8.24c-.72.43-1.45.84-2.17,1.24l-1.1.6-1.23.65c-.33.17-.64.34-1,.5-.74.37-1.49.73-2.24,1.08l-.83.38h0l-.26.12A64.33,64.33,0,0,1,90.77,59c-.21,2.83-.27,5.68-.22,8.58-1.08-2.81-2.11-5.64-3-8.54-.41,0-.83,0-1.24,0a63.47,63.47,0,0,1-15-2.36,2.46,2.46,0,0,1,0,.26,93.05,93.05,0,0,0-.23,9.91,94.6,94.6,0,0,1-3.62-10.52c-.05-.21-.11-.42-.16-.63s0-.18-.07-.28l-.52-.24a64,64,0,0,1-16.45-8.94l-.11,0h0c0,.4.09.8.15,1.21,0,.07,0,.14,0,.21.05.34.1.68.16,1a.76.76,0,0,0,0,.16c.05.33.1.66.17,1l.06.31c.07.36.15.73.23,1.09.18.82.39,1.62.63,2.42.09.34.2.68.3,1,0,.13.08.26.13.39s.17.51.26.76a2,2,0,0,0,.12.34c.1.3.21.59.33.88s.33.86.52,1.28.32.76.5,1.13.34.73.52,1.1c0,0,0,0,0,0,.13.28.28.56.43.84S54.85,61.69,54.94,61.84Z"/><path class="cls-6" d="M58.84,102.49a11.27,11.27,0,0,1,.42-3.26,6.39,6.39,0,0,1,1.17-2.3,4.77,4.77,0,0,1,1.85-1.35,6.44,6.44,0,0,1,2.42-.44,10.63,10.63,0,0,1,2.56.3,9.75,9.75,0,0,1,2.23.86L69,97.42a9.3,9.3,0,0,0-2.07-.68,10.29,10.29,0,0,0-2.11-.22,4.29,4.29,0,0,0-1.82.37A3.51,3.51,0,0,0,61.59,98a5.24,5.24,0,0,0-.87,1.84,9.42,9.42,0,0,0-.31,2.57,10.81,10.81,0,0,0,.3,2.72,4.86,4.86,0,0,0,.87,1.86,3.44,3.44,0,0,0,1.47,1.08,5.89,5.89,0,0,0,2.06.34,7.74,7.74,0,0,0,1.39-.12c.44-.08.9-.19,1.38-.32v-4.38h-3.1v-1.42h4.66v6.74a7.76,7.76,0,0,1-.94.35,11.27,11.27,0,0,1-1.11.27,11.55,11.55,0,0,1-1.2.19c-.4,0-.8.07-1.18.07a5.72,5.72,0,0,1-4.6-1.83A8.21,8.21,0,0,1,58.84,102.49Z"/><path class="cls-6" d="M81.84,110a21,21,0,0,1-2.4-2.86,19.92,19.92,0,0,1-1.71-2.93H74.67v5.42H73V95.3h4.43a5.51,5.51,0,0,1,1.84.31,4.34,4.34,0,0,1,1.46.86,3.91,3.91,0,0,1,1,1.33,4.24,4.24,0,0,1,.35,1.73,4.11,4.11,0,0,1-.24,1.42,4.33,4.33,0,0,1-.64,1.18,4.87,4.87,0,0,1-.92,1,5.29,5.29,0,0,1-1.11.67c.21.41.44.84.7,1.29s.55.91.87,1.37.68.92,1.06,1.38a13.78,13.78,0,0,0,1.25,1.29Zm-7.17-7.14h2.84a2.76,2.76,0,0,0,1.19-.25,2.71,2.71,0,0,0,1-.68,2.93,2.93,0,0,0,.63-1,3.37,3.37,0,0,0,.24-1.29,3,3,0,0,0-.29-1.37,2.56,2.56,0,0,0-.74-.91,3.06,3.06,0,0,0-1-.51,4.16,4.16,0,0,0-1.16-.16H74.67Z"/><path class="cls-6" d="M90.55,109.79a5.41,5.41,0,0,1-4-1.36,5.53,5.53,0,0,1-1.37-4.09v-9h1.61v8.9a7.53,7.53,0,0,0,.2,1.9,3.18,3.18,0,0,0,.66,1.31,2.65,2.65,0,0,0,1.17.76,5.54,5.54,0,0,0,1.74.24,4.54,4.54,0,0,0,1.7-.29,2.77,2.77,0,0,0,1.14-.83A3.49,3.49,0,0,0,94,106a7,7,0,0,0,.2-1.72v-9h1.59v9Q95.83,109.79,90.55,109.79Z"/><path class="cls-6" d="M99.24,109.62V95.3h4.34a6,6,0,0,1,2,.3,4,4,0,0,1,1.48.87,3.72,3.72,0,0,1,.94,1.38,5,5,0,0,1,.33,1.88,5.31,5.31,0,0,1-.39,2.12,4.07,4.07,0,0,1-1.07,1.49,4.52,4.52,0,0,1-1.62.88,6.9,6.9,0,0,1-2,.28h-2.33v5.12Zm1.62-6.45h2.39a4.78,4.78,0,0,0,1.32-.18,2.91,2.91,0,0,0,1.11-.56,2.75,2.75,0,0,0,.75-1,3.65,3.65,0,0,0,.28-1.52,3.73,3.73,0,0,0-.32-1.7,2.62,2.62,0,0,0-.84-1,2.84,2.84,0,0,0-1.14-.45,6.78,6.78,0,0,0-1.25-.12h-2.3Z"/><path class="cls-6" d="M122.4,102.47a9.47,9.47,0,0,1-.52,3.35,6.27,6.27,0,0,1-1.38,2.28,5.26,5.26,0,0,1-2,1.29,7.21,7.21,0,0,1-2.41.4,7.32,7.32,0,0,1-2.49-.43,5.4,5.4,0,0,1-2-1.32,6.31,6.31,0,0,1-1.38-2.27,10.8,10.8,0,0,1,0-6.56,6.4,6.4,0,0,1,1.38-2.29,5.43,5.43,0,0,1,2-1.33,7.34,7.34,0,0,1,2.5-.45,6.83,6.83,0,0,1,2.45.44,5.49,5.49,0,0,1,2,1.35,6.54,6.54,0,0,1,1.36,2.29A9.61,9.61,0,0,1,122.4,102.47Zm-6.31-6a4.55,4.55,0,0,0-2.15.47,4.32,4.32,0,0,0-1.51,1.27,5.67,5.67,0,0,0-.9,1.9,9.39,9.39,0,0,0,0,4.55,5.63,5.63,0,0,0,.86,1.89,4.32,4.32,0,0,0,1.52,1.32,4.71,4.71,0,0,0,2.21.49,4.77,4.77,0,0,0,2-.42,4,4,0,0,0,1.49-1.18,5.53,5.53,0,0,0,.91-1.87,9.29,9.29,0,0,0,.3-2.45,9.05,9.05,0,0,0-.29-2.39,5.52,5.52,0,0,0-.9-1.89A4.16,4.16,0,0,0,118.15,97,4.66,4.66,0,0,0,116.09,96.52Z"/><path class="cls-6" d="M5.6,144.69H18.21v5H0v-28H18.21v5H5.6v6.2H17.41v4.8H5.6Z"/><path class="cls-6" d="M31.42,145.77c2.4,0,3.77-1.4,3.77-3.4,0-3.2-2.89-4.17-6.09-5.49-2.72-1.12-7.12-3.32-7.12-8.4,0-4.65,4-8,9.32-8a9.52,9.52,0,0,1,9.21,6.25l-4.12,3.2c-1.2-2.32-2.65-4.4-5.45-4.4-2,0-3.2,1.16-3.2,2.8,0,2.64,2.8,3.12,6,4.44,2.89,1.16,7.57,3.84,7.57,8.93,0,6.28-3.68,9.2-10,9.2-5.4,0-9.28-3.32-11-7.92l4.33-3.12C26.22,143.69,28.34,145.77,31.42,145.77Z"/><path class="cls-6" d="M49.92,149.69H44.31v-28H60.92v5h-11v6.2h10.6v4.8H49.92Z"/><path class="cls-6" d="M69.93,121.67v18.82c0,3,1.52,5.4,5.12,5.4s5.13-2.36,5.13-5.4V121.67h5.6v18.82c0,7.16-4.92,10.4-10.73,10.4s-10.72-3.24-10.72-10.4V121.67Z"/><path class="cls-6" d="M95.59,144.69H108.2v5H90v-28H108.2v5H95.59v6.2H107.4v4.8H95.59Z"/><path class="cls-6" d="M122.21,121.67c6.2,0,10.12,3.45,10.12,9a8.31,8.31,0,0,1-6,8.41l7.29,10.6H127l-6.84-10H118v10h-5.6v-28Zm-4.21,13h4.21c2.76,0,4.52-1.36,4.52-4s-1.76-4-4.52-4H118Z"/><path class="cls-6" d="M134.62,121.67h21l-14.21,23.42h12.41v4.6h-21l14-23H134.62Z"/><path class="cls-6" d="M168.64,120.47c8.57,0,15.61,6.25,15.61,15.21s-6.84,15.21-15.61,15.21S153,144.65,153,135.68,160.27,120.47,168.64,120.47Zm0,25.3c5.52,0,9.89-4,9.89-10.09s-4.17-10.08-9.89-10.08a9.62,9.62,0,0,0-9.89,10.08C158.75,141.81,163.12,145.77,168.64,145.77Z"/></g></g></svg>