<svg xmlns="http://www.w3.org/2000/svg" xmlns:xlink="http://www.w3.org/1999/xlink" viewBox="0 0 299.94 83.83"><defs><style>.cls-1{fill:#76bc21;}.cls-2{fill:none;}.cls-3{fill:url(#Degradado_sin_nombre_82);}.cls-4{fill:url(#Degradado_sin_nombre_63);}.cls-5{fill:url(#Degradado_sin_nombre_63-2);}.cls-6{fill:url(#Degradado_sin_nombre_57);}</style><linearGradient id="Degradado_sin_nombre_82" x1="4884.99" y1="1410.43" x2="4885.75" y2="1410.43" gradientTransform="matrix(-107.42, 134.98, 134.98, 107.42, 334432.35, -810916.89)" gradientUnits="userSpaceOnUse"><stop offset="0" stop-color="#fcd700"/><stop offset="0.82" stop-color="#76b72a"/><stop offset="1" stop-color="#76b72a"/></linearGradient><linearGradient id="Degradado_sin_nombre_63" x1="4830.52" y1="1395.16" x2="4831.28" y2="1395.16" gradientTransform="matrix(50.91, 81.72, 81.72, -50.91, -359904.03, -323746.57)" gradientUnits="userSpaceOnUse"><stop offset="0" stop-color="#aaac20"/><stop offset="1" stop-color="#00744b"/></linearGradient><linearGradient id="Degradado_sin_nombre_63-2" x1="4861.92" y1="1520.17" x2="4862.68" y2="1520.17" gradientTransform="matrix(17.46, -66.68, -66.68, -17.46, 16485.24, 350814.17)" xlink:href="#Degradado_sin_nombre_63"/><linearGradient id="Degradado_sin_nombre_57" x1="4924.6" y1="1414.97" x2="4925.36" y2="1414.97" gradientTransform="matrix(-90.5, 22.23, 22.23, 90.5, 414304.16, -237473.06)" gradientUnits="userSpaceOnUse"><stop offset="0" stop-color="#aaac20"/><stop offset="1" stop-color="#00724a"/></linearGradient></defs><g id="Capa_2" data-name="Capa 2"><g id="Capa_1-2" data-name="Capa 1"><path class="cls-1" d="M114.67,31.41a11.65,11.65,0,0,1,.41-3.26,6.48,6.48,0,0,1,1.18-2.3,4.77,4.77,0,0,1,1.85-1.35,6.44,6.44,0,0,1,2.42-.44,10.69,10.69,0,0,1,2.56.3,9.93,9.93,0,0,1,2.23.86l-.52,1.12a9.47,9.47,0,0,0-2.07-.68,10.37,10.37,0,0,0-2.11-.22,4.29,4.29,0,0,0-1.82.37,3.69,3.69,0,0,0-1.38,1.11,5.43,5.43,0,0,0-.88,1.84,9.91,9.91,0,0,0-.3,2.57,11.33,11.33,0,0,0,.29,2.72,5,5,0,0,0,.88,1.86A3.44,3.44,0,0,0,118.88,37a5.67,5.67,0,0,0,2.06.34,7.62,7.62,0,0,0,1.38-.12,13.7,13.7,0,0,0,1.39-.32V32.51h-3.1V31.09h4.65v6.74a7,7,0,0,1-.93.35,11.27,11.27,0,0,1-1.11.27,11.55,11.55,0,0,1-1.2.19c-.41,0-.8.07-1.19.07a5.73,5.73,0,0,1-4.6-1.83A8.24,8.24,0,0,1,114.67,31.41Z"/><path class="cls-1" d="M137.67,38.91a21.91,21.91,0,0,1-2.41-2.86,20.77,20.77,0,0,1-1.7-2.93H130.5v5.42h-1.63V24.23h4.43a5.5,5.5,0,0,1,1.84.3,4.34,4.34,0,0,1,1.46.86,4,4,0,0,1,1,1.33,4.24,4.24,0,0,1,.35,1.73,4.11,4.11,0,0,1-.24,1.42,4.54,4.54,0,0,1-.64,1.19,5.45,5.45,0,0,1-.92.94,5.29,5.29,0,0,1-1.11.67c.2.41.44.84.7,1.29s.55.91.87,1.37.67.92,1.06,1.38A13.78,13.78,0,0,0,138.89,38Zm-7.17-7.14h2.84a2.9,2.9,0,0,0,2.14-.93,2.93,2.93,0,0,0,.63-1,3.37,3.37,0,0,0,.23-1.29,3,3,0,0,0-.28-1.37,2.56,2.56,0,0,0-.74-.91,3.06,3.06,0,0,0-1-.51,4.57,4.57,0,0,0-1.16-.16H130.5Z"/><path class="cls-1" d="M146.37,38.71a5.44,5.44,0,0,1-4-1.35,5.58,5.58,0,0,1-1.37-4.1v-9h1.6v8.89a7.5,7.5,0,0,0,.21,1.9,3.06,3.06,0,0,0,.66,1.31,2.57,2.57,0,0,0,1.17.76,5.52,5.52,0,0,0,1.73.24,4.56,4.56,0,0,0,1.71-.29,2.83,2.83,0,0,0,1.14-.83,3.33,3.33,0,0,0,.63-1.31,6.5,6.5,0,0,0,.2-1.72V24.23h1.6v9Q151.66,38.71,146.37,38.71Z"/><path class="cls-1" d="M155.07,38.54V24.23h4.34a6.31,6.31,0,0,1,2,.29,4.11,4.11,0,0,1,1.48.87,3.82,3.82,0,0,1,.93,1.38,5.06,5.06,0,0,1,.33,1.89,5.48,5.48,0,0,1-.38,2.11,4.19,4.19,0,0,1-1.07,1.49,4.7,4.7,0,0,1-1.62.88,6.9,6.9,0,0,1-2,.28h-2.33v5.12Zm1.62-6.45h2.39a4.78,4.78,0,0,0,1.32-.18,2.8,2.8,0,0,0,1.1-.56,2.66,2.66,0,0,0,.76-1,3.65,3.65,0,0,0,.28-1.52,3.87,3.87,0,0,0-.32-1.7,2.62,2.62,0,0,0-.84-1,2.83,2.83,0,0,0-1.15-.45,6.62,6.62,0,0,0-1.25-.12h-2.29Z"/><path class="cls-1" d="M178.22,31.39a9.72,9.72,0,0,1-.51,3.35A6.27,6.27,0,0,1,176.33,37a5.22,5.22,0,0,1-2,1.29,7.13,7.13,0,0,1-2.41.4,7.3,7.3,0,0,1-2.48-.43,5.42,5.42,0,0,1-2-1.31A6.35,6.35,0,0,1,166,34.69a9.52,9.52,0,0,1-.51-3.29,9.44,9.44,0,0,1,.51-3.27,6.4,6.4,0,0,1,1.38-2.29,5.43,5.43,0,0,1,2-1.33,7.33,7.33,0,0,1,2.49-.45,6.92,6.92,0,0,1,2.46.44,5.49,5.49,0,0,1,2,1.35,6.7,6.7,0,0,1,1.36,2.29A9.62,9.62,0,0,1,178.22,31.39Zm-6.31-5.95a4.53,4.53,0,0,0-2.14.47,4.32,4.32,0,0,0-1.51,1.27,5.67,5.67,0,0,0-.9,1.9,9.24,9.24,0,0,0-.05,4.55,5.65,5.65,0,0,0,.87,1.89,4.38,4.38,0,0,0,1.51,1.32,4.65,4.65,0,0,0,2.21.49,4.71,4.71,0,0,0,2-.42,3.91,3.91,0,0,0,1.49-1.18,5.18,5.18,0,0,0,.91-1.87,8.88,8.88,0,0,0,.31-2.45,9,9,0,0,0-.3-2.39,5.33,5.33,0,0,0-.89-1.89A4.07,4.07,0,0,0,174,25.89,4.47,4.47,0,0,0,171.91,25.44Z"/><path class="cls-1" d="M121.29,73.61H133.9v5H115.68v-28H133.9v5H121.29v6.2H133.1v4.81H121.29Z"/><path class="cls-1" d="M147.11,74.69c2.4,0,3.76-1.4,3.76-3.4,0-3.2-2.88-4.16-6.08-5.49-2.73-1.12-7.13-3.32-7.13-8.4,0-4.65,4-8,9.33-8a9.52,9.52,0,0,1,9.2,6.25l-4.12,3.2c-1.2-2.32-2.64-4.4-5.44-4.4-2,0-3.21,1.16-3.21,2.8,0,2.64,2.81,3.12,6,4.44,2.88,1.16,7.56,3.84,7.56,8.93,0,6.28-3.68,9.21-10,9.21-5.41,0-9.29-3.33-11-7.93l4.32-3.12C141.9,72.61,144,74.69,147.11,74.69Z"/><path class="cls-1" d="M165.6,78.61H160v-28h16.61v5h-11v6.2h10.61v4.81H165.6Z"/><path class="cls-1" d="M185.61,50.59V69.41c0,3,1.52,5.4,5.13,5.4s5.12-2.36,5.12-5.4V50.59h5.61V69.41c0,7.16-4.93,10.41-10.73,10.41S180,76.57,180,69.41V50.59Z"/><path class="cls-1" d="M211.27,73.61h12.61v5H205.67v-28h18.21v5H211.27v6.2h11.81v4.81H211.27Z"/><path class="cls-1" d="M237.89,50.59c6.2,0,10.13,3.45,10.13,9A8.31,8.31,0,0,1,242,68l7.29,10.6h-6.61l-6.84-10h-2.16v10h-5.61v-28Zm-4.2,13h4.2c2.76,0,4.52-1.36,4.52-4s-1.76-4-4.52-4h-4.2Z"/><path class="cls-1" d="M250.3,50.59h21L257.1,74h12.41v4.6h-21l14-23H250.3Z"/><path class="cls-1" d="M284.32,49.39c8.57,0,15.62,6.25,15.62,15.21s-6.85,15.22-15.62,15.22-15.61-6.25-15.61-15.22S276,49.39,284.32,49.39Zm0,25.3c5.53,0,9.89-4,9.89-10.09s-4.16-10.08-9.89-10.08c-5.52,0-9.88,4-9.88,10.08S278.8,74.69,284.32,74.69Z"/><path class="cls-2" d="M59.06,37.67l-.62-1.06c2-2.24,3.88-4.61,5.7-7Q60.5,32,56.73,33.92A64.12,64.12,0,0,0,39.36,16.77l-.13.2A63.49,63.49,0,0,0,29.89,29c-.21.36-.42.72-.62,1.08-2.94-.66-5.92-1.12-8.9-1.51,2.55,1.34,5,2.77,7.4,4.31a64.56,64.56,0,0,0-6.38,23.77,64.07,64.07,0,0,0,15,2.37l1.25,0c.84,2.9,1.87,5.73,3,8.54-.06-2.9,0-5.75.21-8.58A64.33,64.33,0,0,0,65,53.09l.27-.12h0l-.21-.87A63.42,63.42,0,0,0,59.06,37.67Z"/><path class="cls-3" d="M67.61,75c.68-.52,1.33-1.06,2-1.63L70,73l.19-.17.6-.57c.25-.23.49-.46.72-.71s.45-.44.67-.67.55-.59.81-.89l.54-.59.06-.08.63-.74.63-.79c.35-.45.7-.9,1-1.36s.54-.77.8-1.15l.31-.47c.13-.19.24-.37.35-.55s.34-.53.5-.8l.39-.68c.18-.29.34-.59.5-.88.32-.6.64-1.2.92-1.81.15-.31.3-.61.44-.92s.28-.62.41-.94.26-.63.38-.94.25-.64.37-1c.3-.82.57-1.66.82-2.51.07-.21.14-.43.19-.65s0-.17.08-.27c.09-.32.17-.65.25-1a.5.5,0,0,0,0-.12c.1-.37.18-.74.26-1.12a.06.06,0,0,0,0,0l.15-.75c0-.18.07-.37.11-.55.07-.37.12-.75.18-1.12s.11-.76.16-1.14c0-.12,0-.25,0-.38s0-.48.08-.73l.06-.75a.57.57,0,0,0,0-.13c0-.34.05-.67.06-1s0-.65,0-1,0-.79,0-1.19c0-.16,0-.33,0-.49a41.89,41.89,0,0,0-25.27-38L58,3.21c-.24-.1-.48-.21-.74-.3l-.91-.35c-.36-.14-.72-.26-1.08-.38l-.91-.29c-1.08-.34-2.17-.63-3.29-.88L50.36.85C49.72.72,49.08.6,48.43.51L47.36.35c-.35,0-.71-.09-1.07-.12a3.42,3.42,0,0,0-.45,0C45.27.13,44.7.08,44.12.06H43.8c-.63,0-1.26,0-1.89,0H40.66c-.66,0-1.32.05-2,.1l-1,.09L37,.29l-.63.08c-.49.06-1,.14-1.44.21L34.25.7c-1.14.21-2.27.46-3.38.77l-1.29.38-.13,0-1.18.38c-.39.13-.77.27-1.16.42a1.31,1.31,0,0,0-.21.08l-1,.39c-.53.21-1,.44-1.56.69-.3.13-.6.27-.89.42l-.3.15-.86.44c-.46.24-.92.5-1.37.76A41.88,41.88,0,0,0,0,41.92,40.48,40.48,0,0,0,.22,46.2h0c0,.4.09.8.14,1.21l0,.21q.06.51.15,1l0,.16c.05.33.11.66.17,1l.06.31c.08.36.15.73.23,1.09.19.82.4,1.62.63,2.42.1.34.2.68.31,1A3,3,0,0,0,2.1,55c.08.26.16.51.25.76l.12.34c.1.3.22.59.33.88s.34.86.52,1.28.33.76.5,1.13.34.73.52,1.1c0,0,0,0,0,0l.43.84c.08.16.16.32.25.47.17.32.34.63.53.94.38.67.77,1.31,1.19,2,.16.25.33.49.5.74s.25.37.37.55l.3.41c.13.18.25.35.39.52q.6.83,1.26,1.62c.18.22.37.45.56.66l.13.15c.16.18.31.36.48.53a3.73,3.73,0,0,0,.26.3c.16.17.3.33.46.49a41.1,41.1,0,0,0,3.09,3l.57.47.26.23.57.45.22.17c.22.18.44.35.67.51.6.46,1.22.89,1.84,1.31l1,.62.91.56.14.08h0a41.94,41.94,0,0,0,46.39-2.64ZM65.27,53l-.27.12A64.33,64.33,0,0,1,40.86,59c-.2,2.83-.27,5.68-.21,8.58-1.09-2.81-2.12-5.64-3-8.54l-1.25,0a64.07,64.07,0,0,1-15-2.37,64.56,64.56,0,0,1,6.38-23.77c-2.37-1.54-4.85-3-7.4-4.31,3,.39,6,.85,8.9,1.51.2-.36.41-.72.62-1.08A63.49,63.49,0,0,1,39.23,17l.13-.2A64.12,64.12,0,0,1,56.73,33.92q3.77-2,7.41-4.32c-1.82,2.4-3.68,4.77-5.7,7l.62,1.06a63.42,63.42,0,0,1,6,14.42l.21.87Z"/><path class="cls-4" d="M56.73,33.92q3.77-2,7.41-4.32c-1.82,2.4-3.68,4.77-5.7,7l.62,1.06a63.42,63.42,0,0,1,6,14.42l.21.87h0l.83-.39c.75-.35,1.49-.71,2.23-1.08.33-.16.64-.33,1-.5l1.23-.65,1.1-.6c.73-.4,1.45-.81,2.17-1.24a89.81,89.81,0,0,1-7.48,8.24l0,.57a63.43,63.43,0,0,1,.86,17.82l0,.29h0l.52-.4c.68-.52,1.33-1.06,2-1.63L70,73l.19-.17.6-.57c.25-.23.49-.46.73-.71l.66-.67c.28-.29.55-.59.81-.89l.54-.59.06-.08.63-.74.63-.79c.35-.45.7-.9,1-1.36s.54-.77.8-1.15l.31-.47c.13-.19.24-.37.35-.55s.34-.53.5-.8l.39-.68c.18-.29.34-.59.5-.88.32-.6.64-1.2.92-1.81.15-.31.3-.61.44-.92s.28-.62.41-.94.26-.63.38-.94.25-.64.37-1c.3-.82.57-1.66.82-2.51.07-.21.14-.43.19-.65s0-.18.08-.27c.09-.32.17-.65.25-1a.5.5,0,0,0,0-.12c.1-.37.18-.74.26-1.12a.06.06,0,0,0,0,0l.15-.75c0-.18.07-.37.11-.55.07-.37.12-.75.18-1.12s.11-.76.16-1.14c0-.12,0-.25,0-.38s0-.48.08-.73l.06-.75a.57.57,0,0,0,0-.13c0-.34.05-.67.06-1s0-.65,0-1,0-.79,0-1.19v-.49h0c-10.92-13.11-24.6-23-41.11-27.61L42,13.63l-.62-.17a94.07,94.07,0,0,0-10.94-2h0A92.15,92.15,0,0,1,39,16.51l.37.26A64.12,64.12,0,0,1,56.73,33.92Z"/><path class="cls-5" d="M58.55,3.43,58,3.21c-.24-.1-.48-.21-.74-.3l-.91-.35c-.36-.14-.72-.26-1.09-.38l-.9-.29c-1.08-.34-2.17-.63-3.29-.88L50.36.85C49.72.72,49.08.6,48.43.51L47.36.35c-.35,0-.71-.09-1.07-.12a3.42,3.42,0,0,0-.45,0C45.27.13,44.7.08,44.12.06H43.8c-.63,0-1.26,0-1.89,0H40.66c-.66,0-1.32.05-2,.1l-1,.09L37,.29l-.63.08c-.49.06-1,.14-1.44.21L34.25.7c-1.14.21-2.27.46-3.38.77l-1.29.38-.13,0c-.39.12-.79.24-1.18.38s-.78.27-1.16.42l-.21.08-1,.39c-.53.21-1,.44-1.56.69-.3.13-.6.27-.89.42l-.3.15-.86.44c-.46.24-.92.5-1.37.76l0,0C14.85,21.82,13,38.83,17.37,55.7l.15.63a94.6,94.6,0,0,0,3.62,10.52,93.05,93.05,0,0,1,.23-9.91,2.46,2.46,0,0,0,0-.26,64.56,64.56,0,0,1,6.38-23.77c-2.37-1.54-4.85-3-7.4-4.31,3,.39,6,.85,8.9,1.51.2-.36.41-.72.62-1.08A63.49,63.49,0,0,1,39.23,17l.13-.2L39,16.51a92.15,92.15,0,0,0-8.52-5.09,94.07,94.07,0,0,1,10.94,2l.62.17.68.19,0-.17A63.92,63.92,0,0,1,58.51,3.53Z"/><path class="cls-6" d="M5,61.84c.17.32.34.63.53.94.38.67.77,1.32,1.19,2,.16.25.33.49.5.74s.25.37.37.55l.3.41c.13.18.25.35.39.52q.6.83,1.26,1.62c.18.22.37.45.56.66l.13.15c.16.18.31.36.48.53a3.73,3.73,0,0,0,.26.3l.46.49a41.18,41.18,0,0,0,3.09,3l.57.48.26.22.57.45.22.17c.22.18.44.35.67.51.6.46,1.22.89,1.84,1.31l1,.62.91.56.14.08h0a90.42,90.42,0,0,0,24.2-6.94A76.54,76.54,0,0,0,65.85,57.19l.47-.44a89.81,89.81,0,0,0,7.48-8.24c-.72.43-1.44.84-2.17,1.24l-1.1.6L69.3,51c-.33.17-.64.34-1,.5-.74.37-1.48.73-2.23,1.08l-.83.38h0l-.27.12A64.33,64.33,0,0,1,40.86,59c-.2,2.83-.27,5.68-.21,8.58-1.09-2.81-2.12-5.64-3-8.54-.42,0-.83,0-1.25,0a63.55,63.55,0,0,1-15-2.36,2.46,2.46,0,0,1,0,.26,93.05,93.05,0,0,0-.23,9.91,94.6,94.6,0,0,1-3.62-10.52l-.15-.63c0-.09-.05-.18-.08-.28l-.52-.24A64,64,0,0,1,.32,46.24l-.1,0h0c0,.4.09.8.14,1.21l0,.21q.06.51.15,1l0,.16c.05.33.11.66.17,1l.06.31c.07.36.15.73.23,1.09.19.82.4,1.62.63,2.42.1.34.2.68.31,1A3,3,0,0,0,2.1,55c.08.26.16.51.25.76l.12.34c.1.3.22.59.33.88s.34.86.52,1.28.33.76.5,1.13.34.73.52,1.1c0,0,0,0,0,0l.43.84C4.86,61.53,4.94,61.69,5,61.84Z"/></g></g></svg>