<svg xmlns="http://www.w3.org/2000/svg" viewBox="0 0 57.69 98.13"><defs><style>.cls-1{fill:#79b529;}</style></defs><g id="Capa_2" data-name="Capa 2"><g id="Capa_3" data-name="Capa 3"><g id="gQXbi8"><path class="cls-1" d="M55.31,0a2.49,2.49,0,0,1,1.48,2.62q0,15.13,0,30.26a3.23,3.23,0,0,1-1.2,2.65c-3.36,2.91-6.67,5.86-10,8.8l-.84.76c.46.33.84.59,1.21.88,8.27,6.44,12.39,14.87,11.65,25.38A28.7,28.7,0,0,1,33.89,97.67c-1,.19-2.08.31-3.12.46H26.94A50.27,50.27,0,0,1,21.05,97C9.34,93.29,2.13,85.4.35,73.24-1.32,61.8,3,52.58,12.23,45.64c.2-.16.41-.3.91-.68a6.13,6.13,0,0,1-.94-.58c-3.38-3-6.74-6-10.14-8.92A3,3,0,0,1,.93,33Q1,17.76.93,2.52A2.4,2.4,0,0,1,2.41,0ZM28.83,94.32A25.11,25.11,0,1,0,3.75,69.17,25.16,25.16,0,0,0,28.83,94.32ZM21.9,3.86V30.39a5.83,5.83,0,0,1-.11,1.33,1.83,1.83,0,0,1-2,1.42,1.87,1.87,0,0,1-1.66-1.71c0-.35,0-.7,0-1.05V3.89H4.8a2.57,2.57,0,0,0-.07.34q0,14,0,28a1.58,1.58,0,0,0,.54,1c3.53,3.15,7.09,6.26,10.62,9.41a1.08,1.08,0,0,0,1.34.18,28.45,28.45,0,0,1,23.23,0,1.11,1.11,0,0,0,1.42-.23q5.2-4.65,10.49-9.25A1.76,1.76,0,0,0,53,31.83q0-13.45,0-26.92v-1H39.6v27c0,1.45-.68,2.28-1.86,2.29s-1.89-.85-1.92-2.26c0-.25,0-.51,0-.76V3.86Z"/><path class="cls-1" d="M28.56,80.32A1.92,1.92,0,0,1,27,78.9c-.63-1.61-1.23-3.22-1.92-4.8A2.27,2.27,0,0,0,24,73c-1.57-.7-3.19-1.3-4.8-1.92a2,2,0,0,1,0-3.79c1.63-.64,3.27-1.26,4.88-1.95a1.84,1.84,0,0,0,.88-.88c.69-1.61,1.32-3.25,1.95-4.89a2,2,0,0,1,3.79,0c.62,1.57,1.26,3.13,1.85,4.72a1.73,1.73,0,0,0,1.13,1.15c1.59.58,3.15,1.23,4.72,1.85a2,2,0,0,1,0,3.83c-1.61.61-3.22,1.23-4.8,1.92a2,2,0,0,0-.94.94c-.69,1.61-1.3,3.26-1.95,4.88A2,2,0,0,1,28.56,80.32Zm.31-7.3a4.63,4.63,0,0,1,3.82-3.79,4.74,4.74,0,0,1-3.83-3.79A4.77,4.77,0,0,1,25,69.24,4.68,4.68,0,0,1,28.87,73Z"/></g></g></g></svg>