<svg xmlns="http://www.w3.org/2000/svg" viewBox="0 0 124.49 124.49"><defs><style>.cls-1{fill:#fff;}.cls-2{fill:#e58f14;}</style></defs><g id="Capa_2" data-name="Capa 2"><g id="Capa_1-2" data-name="Capa 1"><path class="cls-1" d="M48.89,91.23a7.38,7.38,0,0,1-.6-.46c-.68-.6-1.35-1.21-2-1.82-.38-.36-.31-.62.2-.76l10.74-3,.28-.07c.41-.1.6,0,.55.47-.08.75-.21,1.5-.33,2.24-.49,3-1,6-1.49,9a.77.77,0,0,1-.3.55c-.1,0-.38-.12-.53-.25-.7-.61-1.4-1.23-2.07-1.87a.46.46,0,0,0-.72,0,16.76,16.76,0,0,1-6.56,3c-6.72,1.34-12.71,0-17.63-5a16.06,16.06,0,0,1-4.65-9.5,25.74,25.74,0,0,1,.63-10.66C26.2,66.92,30.32,63,36.55,61.28a18.32,18.32,0,0,1,4.54-.67,19.08,19.08,0,0,1,13.83,5.18A36.94,36.94,0,0,1,61.8,74.6c1.31,2.26,2.49,4.6,3.75,6.9a27,27,0,0,0,5.7,7.5,18.17,18.17,0,0,0,9.11,4.47,11.33,11.33,0,0,0,13.58-9.33,19.8,19.8,0,0,0-.38-9.76c-1.32-4.24-4.32-6.72-8.53-7.83a13.3,13.3,0,0,0-5-.46,14.4,14.4,0,0,0-5.21,1.67,20.81,20.81,0,0,0-6.23,5.51c-.38.48-.74,1-1.11,1.45s-.58.41-.83,0c-.8-1.38-1.6-2.76-2.37-4.15a.76.76,0,0,1,0-.66c3-3.78,6.54-6.92,11.29-8.39a17.23,17.23,0,0,1,5.87-.94A19.56,19.56,0,0,1,93.75,65a16.4,16.4,0,0,1,5.11,8,23.59,23.59,0,0,1,.93,6.14,23.2,23.2,0,0,1-1.25,8.75,16.17,16.17,0,0,1-12.8,10.94,19.42,19.42,0,0,1-11.62-1.6c-5.72-2.51-9.74-6.81-12.79-12.11C60.15,83.1,59.12,81,58,78.9A41.17,41.17,0,0,0,52.4,71,15,15,0,0,0,43,66.09a13.25,13.25,0,0,0-5.47.62,11.11,11.11,0,0,0-6.58,4.92,13.72,13.72,0,0,0-1.79,5.42,21.55,21.55,0,0,0-.08,5.2,11.58,11.58,0,0,0,7.71,10.16,13.11,13.11,0,0,0,10.35-.23C47.68,91.94,48.21,91.6,48.89,91.23Z"/><path class="cls-1" d="M23.55,31.65c.25,0,.42,0,.59,0,1.93,0,3.86,0,5.78,0,.42,0,.55.12.53.53,0,.81,0,1.62,0,2.43,0,.29-.1.4-.4.4H19.12c-.31,0-.4-.12-.39-.41,0-.71,0-1.43,0-2.14a1.93,1.93,0,0,1,.27-.94c2.13-3.32,4.29-6.63,6.43-10a7.06,7.06,0,0,0,1.34-3.47,6.3,6.3,0,0,0-.15-1.68,1.44,1.44,0,0,0-1.34-1.16,1.67,1.67,0,0,0-1.9.91,11.57,11.57,0,0,0-.5,2.11,5.66,5.66,0,0,0,0,1.09c0,.23-.06.35-.32.35-1.17,0-2.34,0-3.52,0-.1,0-.3-.17-.3-.26a9.56,9.56,0,0,1,.93-5.1,5.15,5.15,0,0,1,4.23-2.67,8.7,8.7,0,0,1,3.33.23,4.87,4.87,0,0,1,3.67,4,8.82,8.82,0,0,1-1.48,6.78c-1.84,2.8-3.7,5.57-5.55,8.36C23.78,31.26,23.69,31.42,23.55,31.65Z"/><path class="cls-1" d="M11.77,16.44,8.5,17.61a2.9,2.9,0,0,1,0-.38c0-.76,0-1.53,0-2.3a.58.58,0,0,1,.4-.64,15.26,15.26,0,0,0,3.76-2.2A.65.65,0,0,1,13,12h2.71c.28,0,.41.09.39.37a1.92,1.92,0,0,0,0,.24V34.42c0,.62,0,.62-.62.62H12.41c-.58,0-.58,0-.58-.58V19.72c0-.9,0-1.81,0-2.71A4.4,4.4,0,0,0,11.77,16.44Z"/><path class="cls-2" d="M124.49,0H0V124.49H124.49ZM16.11,12.31a1.92,1.92,0,0,0,0,.24V34.42c0,.62,0,.62-.62.62H12.41c-.58,0-.58,0-.58-.58V19.72c0-.9,0-1.81,0-2.71a4.4,4.4,0,0,0-.05-.57L8.5,17.61a2.9,2.9,0,0,1,0-.38c0-.76,0-1.53,0-2.3a.58.58,0,0,1,.4-.64,15.26,15.26,0,0,0,3.76-2.2A.65.65,0,0,1,13,12h2.71C16,11.93,16.13,12,16.11,12.31Zm2.62,22.32c0-.71,0-1.43,0-2.14a1.93,1.93,0,0,1,.27-.94c2.13-3.32,4.29-6.63,6.43-10a7.06,7.06,0,0,0,1.34-3.47,6.3,6.3,0,0,0-.15-1.68,1.44,1.44,0,0,0-1.34-1.16,1.67,1.67,0,0,0-1.9.91,11.57,11.57,0,0,0-.5,2.11,5.66,5.66,0,0,0,0,1.09c0,.23-.06.35-.32.35-1.17,0-2.34,0-3.52,0-.1,0-.3-.17-.3-.26a9.56,9.56,0,0,1,.93-5.1,5.15,5.15,0,0,1,4.23-2.67,8.7,8.7,0,0,1,3.33.23,4.87,4.87,0,0,1,3.67,4,8.82,8.82,0,0,1-1.48,6.78c-1.84,2.8-3.7,5.57-5.55,8.36-.1.15-.19.31-.33.54.25,0,.42,0,.59,0,1.93,0,3.86,0,5.78,0,.42,0,.55.12.53.53,0,.81,0,1.62,0,2.43,0,.29-.1.4-.4.4H19.12C18.81,35,18.72,34.92,18.73,34.63ZM98.54,87.92a16.17,16.17,0,0,1-12.8,10.94,19.34,19.34,0,0,1-11.62-1.6c-5.72-2.51-9.74-6.81-12.79-12.11C60.15,83.1,59.12,81,58,78.9A41.17,41.17,0,0,0,52.4,71,15,15,0,0,0,43,66.09a13.25,13.25,0,0,0-5.47.62,11.11,11.11,0,0,0-6.58,4.92,13.72,13.72,0,0,0-1.79,5.42,21.55,21.55,0,0,0-.08,5.2,11.58,11.58,0,0,0,7.71,10.16,13.11,13.11,0,0,0,10.35-.23c.56-.24,1.09-.58,1.77-1a7.38,7.38,0,0,1-.6-.46c-.68-.6-1.35-1.21-2-1.82-.38-.36-.31-.62.2-.76l10.74-3,.28-.07c.41-.1.6,0,.55.47-.08.75-.21,1.5-.33,2.24-.49,3-1,6-1.49,9a.77.77,0,0,1-.3.55c-.1,0-.38-.12-.53-.25-.7-.61-1.4-1.23-2.07-1.87a.46.46,0,0,0-.72,0,16.76,16.76,0,0,1-6.56,3c-6.72,1.34-12.71,0-17.63-5a16.06,16.06,0,0,1-4.65-9.5,25.74,25.74,0,0,1,.63-10.66C26.2,66.92,30.32,63,36.55,61.28a18.32,18.32,0,0,1,4.54-.67,19.08,19.08,0,0,1,13.83,5.18A36.94,36.94,0,0,1,61.8,74.6c1.31,2.26,2.49,4.6,3.75,6.9a27,27,0,0,0,5.7,7.5,18.17,18.17,0,0,0,9.11,4.47,11.33,11.33,0,0,0,13.58-9.33,19.8,19.8,0,0,0-.38-9.76c-1.32-4.24-4.32-6.72-8.53-7.83a13.3,13.3,0,0,0-5-.46,14.4,14.4,0,0,0-5.21,1.67,20.81,20.81,0,0,0-6.23,5.51c-.38.48-.74,1-1.11,1.45s-.58.41-.83,0c-.8-1.38-1.6-2.76-2.37-4.15a.76.76,0,0,1,0-.66c3-3.78,6.54-6.92,11.29-8.39a17.23,17.23,0,0,1,5.87-.94A19.56,19.56,0,0,1,93.75,65a16.4,16.4,0,0,1,5.11,8,23.59,23.59,0,0,1,.93,6.14A23.2,23.2,0,0,1,98.54,87.92Z"/><path class="cls-1" d="M42.69,14v1.22c0,1.5-.73,2.32-2.2,2.32h-.7V21.1H38.31V11.71h2.18C42,11.71,42.69,12.52,42.69,14Zm-2.9-1v3.18h.7c.47,0,.72-.22.72-.89V13.93c0-.67-.25-.88-.72-.88Z"/><path class="cls-1" d="M46.53,21.1A2.84,2.84,0,0,1,46.39,20V18.47c0-.87-.29-1.19-1-1.19h-.51V21.1H43.44V11.71h2.23c1.53,0,2.19.71,2.19,2.16v.73a1.88,1.88,0,0,1-1,1.91c.74.31,1,1,1,2V20A2.72,2.72,0,0,0,48,21.1Zm-1.61-8v2.88h.57c.55,0,.89-.24.89-1V14c0-.67-.23-1-.75-1Z"/><path class="cls-1" d="M48.71,14a2.25,2.25,0,1,1,4.49,0v4.89a2.25,2.25,0,1,1-4.49,0Zm1.48,5c0,.67.3.93.77.93s.76-.26.76-.93V13.87c0-.67-.29-.93-.76-.93s-.77.26-.77.93Z"/><path class="cls-1" d="M54.15,11.71h2.34c1.47,0,2.2.81,2.2,2.32v4.75c0,1.5-.73,2.32-2.2,2.32H54.15Zm1.48,1.34v6.71h.83c.47,0,.75-.24.75-.91V14c0-.67-.28-.91-.75-.91Z"/><path class="cls-1" d="M61,11.71V19c0,.68.29.92.76.92s.77-.24.77-.92V11.71H64v7.15c0,1.5-.75,2.36-2.2,2.36s-2.2-.86-2.2-2.36V11.71Z"/><path class="cls-1" d="M69.25,17.6v1.25c0,1.5-.75,2.36-2.2,2.36s-2.2-.86-2.2-2.36V14c0-1.5.75-2.36,2.2-2.36s2.2.86,2.2,2.36v.91H67.86v-1c0-.67-.3-.93-.77-.93s-.76.26-.76.93v5.07c0,.67.29.91.76.91s.77-.24.77-.91V17.6Z"/><path class="cls-1" d="M74.43,17.6v1.25c0,1.5-.75,2.36-2.2,2.36S70,20.35,70,18.85V14c0-1.5.75-2.36,2.2-2.36s2.2.86,2.2,2.36v.91H73v-1c0-.67-.3-.93-.77-.93s-.76.26-.76.93v5.07c0,.67.29.91.76.91s.77-.24.77-.91V17.6Z"/><path class="cls-1" d="M75.33,11.71h1.48V21.1H75.33Z"/><path class="cls-1" d="M77.76,14a2.25,2.25,0,1,1,4.49,0v4.89a2.25,2.25,0,1,1-4.49,0Zm3.83-4.24-1.37,1.49h-1l.91-1.49Zm-2.35,9.22c0,.67.3.93.77.93s.76-.26.76-.93V13.87c0-.67-.29-.93-.76-.93s-.77.26-.77.93Z"/><path class="cls-1" d="M84.52,14.3v6.8H83.19V11.71H85l1.52,5.62V11.71h1.31V21.1H86.36Z"/><path class="cls-1" d="M39.69,32.41l-1.86-6.28h1.54l1.13,4.28,1.13-4.28H43l-1.87,6.28v3.11H39.69Z"/><path class="cls-1" d="M50,32v1.25c0,1.5-.75,2.36-2.2,2.36s-2.2-.86-2.2-2.36V28.38c0-1.5.75-2.36,2.2-2.36s2.2.86,2.2,2.36v.92h-1.4v-1c0-.67-.29-.93-.76-.93s-.77.26-.77.93v5.07c0,.67.3.92.77.92s.76-.25.76-.92V32Z"/><path class="cls-1" d="M50.77,28.38a2.24,2.24,0,1,1,4.48,0v4.89a2.24,2.24,0,1,1-4.48,0Zm1.47,5c0,.67.3.93.77.93s.77-.26.77-.93V28.29c0-.67-.3-.93-.77-.93s-.77.26-.77.93Z"/><path class="cls-1" d="M57.52,28.72v6.8H56.19V26.13H58l1.52,5.62V26.13h1.32v9.39H59.36Z"/><path class="cls-1" d="M63.92,26c1.44,0,2.18.86,2.18,2.36v.3H64.7v-.39c0-.67-.27-.93-.74-.93s-.73.26-.73.93c0,1.93,2.88,2.29,2.88,5,0,1.5-.75,2.36-2.2,2.36s-2.2-.86-2.2-2.36v-.58h1.4v.67c0,.67.29.92.76.92s.77-.25.77-.92c0-1.93-2.89-2.29-2.89-5C61.75,26.88,62.49,26,63.92,26Z"/><path class="cls-1" d="M68.37,26.13v7.25c0,.67.29.91.76.91s.77-.24.77-.91V26.13h1.39v7.15c0,1.51-.75,2.36-2.2,2.36s-2.2-.85-2.2-2.36V26.13Z"/><path class="cls-1" d="M75.43,32.8l1-6.67h2v9.39h-1.4V28.78l-1,6.74H74.68l-1.1-6.64v6.64H72.29V26.13h2Z"/><path class="cls-1" d="M79.44,28.38a2.25,2.25,0,1,1,4.49,0v4.89a2.25,2.25,0,1,1-4.49,0Zm1.48,5c0,.67.29.93.76.93s.77-.26.77-.93V28.29c0-.67-.3-.93-.77-.93s-.76.26-.76.93Z"/><path class="cls-1" d="M41.4,50a2.9,2.9,0,0,1-.14-1.16V47.31c0-.87-.29-1.19-1-1.19h-.51V50H38.31v-9.4h2.23c1.53,0,2.19.71,2.19,2.16v.74a1.86,1.86,0,0,1-1,1.9c.74.31,1,1,1,2V48.8A2.77,2.77,0,0,0,42.9,50Zm-1.61-8.06v2.89h.57c.56,0,.89-.24.89-1v-.92c0-.67-.23-1-.75-1Z"/><path class="cls-1" d="M45.18,44.51h2v1.34h-2V48.6h2.55V50h-4v-9.4h4v1.34H45.18Z"/><path class="cls-1" d="M50.63,40.44c1.44,0,2.18.86,2.18,2.36v.3h-1.4v-.39c0-.67-.27-.93-.74-.93s-.73.26-.73.93c0,1.93,2.88,2.3,2.88,5,0,1.5-.75,2.36-2.2,2.36s-2.2-.86-2.2-2.36v-.58h1.4v.67c0,.68.29.92.76.92s.77-.24.77-.92c0-1.93-2.89-2.29-2.89-5C48.46,41.3,49.2,40.44,50.63,40.44Z"/><path class="cls-1" d="M58,42.87v1.22c0,1.51-.72,2.33-2.2,2.33h-.7V50H53.67v-9.4h2.17C57.32,40.55,58,41.37,58,42.87Zm-2.9-1v3.18h.7c.47,0,.73-.21.73-.88V42.78c0-.67-.26-.89-.73-.89Z"/><path class="cls-1" d="M58.68,42.8a2.24,2.24,0,1,1,4.48,0v4.89a2.24,2.24,0,1,1-4.48,0Zm1.47,5c0,.68.3.93.77.93s.76-.25.76-.93V42.71c0-.67-.29-.93-.76-.93s-.77.26-.77.93Z"/><path class="cls-1" d="M65.43,43.14V50H64.1v-9.4H66l1.52,5.62V40.55h1.31V50H67.27Z"/><path class="cls-1" d="M71.83,40.44c1.44,0,2.18.86,2.18,2.36v.3h-1.4v-.39c0-.67-.27-.93-.74-.93s-.74.26-.74.93c0,1.93,2.89,2.3,2.89,5,0,1.5-.75,2.36-2.2,2.36s-2.2-.86-2.2-2.36v-.58H71v.67c0,.68.3.92.77.92s.76-.24.76-.92c0-1.93-2.88-2.29-2.88-5C69.66,41.3,70.39,40.44,71.83,40.44Z"/><path class="cls-1" d="M79.64,50H78.15l-.25-1.71H76.09L75.83,50H74.47L76,40.55h2.16Zm-3.37-3H77.7L77,42.21Z"/><path class="cls-1" d="M84.74,42.71v.34a1.84,1.84,0,0,1-.95,1.89,1.9,1.9,0,0,1,1.1,2v.77A2,2,0,0,1,82.65,50H80.33v-9.4h2.23C84.09,40.55,84.74,41.26,84.74,42.71Zm-2.94-.82v2.48h.58c.55,0,.89-.24.89-1v-.52c0-.67-.23-1-.75-1Zm0,3.83V48.6h.85c.5,0,.77-.23.77-.92v-.82c0-.87-.29-1.14-1-1.14Z"/><path class="cls-1" d="M85.78,40.55h1.47V48.6h2.43V50h-3.9Z"/><path class="cls-1" d="M91.81,44.51h2v1.34h-2V48.6h2.55V50h-4v-9.4h4v1.34H91.81Z"/><path class="cls-1" d="M97.26,40.44c1.43,0,2.17.86,2.17,2.36v.3H98v-.39c0-.67-.26-.93-.73-.93s-.74.26-.74.93c0,1.93,2.88,2.3,2.88,5,0,1.5-.75,2.36-2.2,2.36S95,49.19,95,47.69v-.58h1.4v.67c0,.68.29.92.76.92s.77-.24.77-.92c0-1.93-2.89-2.29-2.89-5C95.08,41.3,95.82,40.44,97.26,40.44Z"/></g></g></svg>