<svg xmlns="http://www.w3.org/2000/svg" viewBox="0 0 123.76 123.76"><defs><style>.cls-1{fill:#ffa002;}.cls-2{fill:#fff;}.cls-3{fill:#f99d26;}</style></defs><g id="Capa_2" data-name="Capa 2"><g id="Capa_1-2" data-name="Capa 1"><path class="cls-1" d="M0,123.75Q0,62.07,0,.37C0,.07.07,0,.37,0h123c.3,0,.37.07.37.37q0,61.52,0,123c0,.3-.07.37-.37.37Z"/><path class="cls-2" d="M61.72,57.5l.22.26c.12.14.06.31.06.46v51.65a1.08,1.08,0,0,1,0,.44.64.64,0,0,1-.64.31q-7.47,0-14.94,0c-.41,0-.53-.13-.53-.53,0-3.34,0-6.69,0-10q0-21,0-42c0-.24,0-.49.31-.55a.88.88,0,0,1,.32,0H61.36A.74.74,0,0,1,61.72,57.5Z"/><path class="cls-2" d="M80.08,110.47a.74.74,0,0,1-.61.23H64.68c-.23,0-.49.06-.63-.22a1.35,1.35,0,0,1,0-.4v-23a1.07,1.07,0,0,1,0-.4,18.48,18.48,0,0,1,1.22-1.58l4.21-5.36c1.08-1.37,2.17-2.74,3.25-4.12l1.86-2.37c1.21-1.54,2.43-3.07,3.65-4.61.33-.41.67-.83,1-1.26s.55-.38.84,0c.11.12.06.26.06.39v42.3C80.14,110.21,80.2,110.35,80.08,110.47Z"/><path class="cls-2" d="M82.13,110.72c-.18,0-.22-.16-.22-.36V94.69c0-.21,0-.4.22-.51a1.08,1.08,0,0,1,.4,0H97.74c.14,0,.29-.07.42.06l.18.22a1.35,1.35,0,0,1,0,.4v15.28c0,.14,0,.3,0,.43l-.15.15c-.11.09-.23,0-.35,0H82.45A.69.69,0,0,1,82.13,110.72Z"/><path class="cls-2" d="M43.41,97.43l.27.25a1.45,1.45,0,0,1,0,.36v12c0,.13,0,.27-.06.39l-.15.15c-.06.07-.14,0-.22,0h-5a.33.33,0,0,1-.19,0v-7.4c0-.55-.16-.72-.71-.72h-4.2c-.22,0-.44,0-.52.25a1,1,0,0,0,0,.44q0,3.52,0,7c0,.32-.06.44-.41.43-1.51,0-3,0-4.54,0a.88.88,0,0,1-.36,0c-.14,0-.23-.11-.22-.28s0-.27,0-.41q0-6,0-11.94c0-.24,0-.46.31-.51a.88.88,0,0,1,.36,0q7.67,0,15.31,0A.73.73,0,0,1,43.41,97.43Z"/><path class="cls-2" d="M11.76,34.88c0-.13,0-.27,0-.4V17c0-.55,0-.54-.53-.34l-2.52.91c-.2.08-.29.07-.28-.18,0-.92,0-1.83,0-2.75,0-.21.08-.29.27-.38a22.15,22.15,0,0,0,3.07-1.66c.15-.11.35-.18.45-.32.32-.46.77-.45,1.25-.44H16.2c.08.12,0,.26,0,.4V34.51c0,.44,0,.44-.43.44H12.13C12,35,11.86,35,11.76,34.88Z"/><path class="cls-2" d="M18.15,14.34a19.07,19.07,0,0,0,3.52-1.92s.06,0,.07,0c.43-.68,1.11-.58,1.77-.57h2.34a.91.91,0,0,1,0,.4V34.49c0,.46,0,.46-.45.46H21.87c-.44,0-.44,0-.44-.44V17a.91.91,0,0,0,0-.4c0-.07-.11-.06-.17,0l-3.05,1.13c-.1-.05-.07-.14-.07-.21V14.54A.34.34,0,0,1,18.15,14.34Z"/><path class="cls-2" d="M35.35,96c-2.58,0-5.16,0-7.73,0-.17,0-.35,0-.42-.16a.56.56,0,0,1,.05-.57c.72-1,1.45-1.89,2.18-2.84l2.49-3.27,2.91-3.84c.42-.54.65-.54,1.06,0,1.6,2.08,3.18,4.16,4.79,6.22.94,1.22,1.92,2.42,2.83,3.66.12.17.31.33.18.57s-.34.24-.57.24Z"/><path class="cls-2" d="M98.24,89.21a1.18,1.18,0,0,1,.09.46c0,.91,0,1.83,0,2.74a.61.61,0,0,1-.17.47c-.1.1-.23.06-.35.06H82.4a.56.56,0,0,1-.36,0L82,92.82a4.21,4.21,0,0,1,0-1.12c0-.81-.05-1.63,0-2.44l.09-.09a1.07,1.07,0,0,1,.4,0H97.82C98,89.14,98.12,89.06,98.24,89.21Z"/><path class="cls-2" d="M62,110.31c0-.19,0-.38,0-.57V58.32c0-.19,0-.38,0-.56.18.13.1.32.1.48V109.8C62,110,62.1,110.16,62,110.31Z"/><path class="cls-2" d="M80.08,110.47c0-.16,0-.33,0-.49V67.88c0-.16,0-.33,0-.49.18.13.1.33.1.49V110C80.18,110.14,80.27,110.34,80.08,110.47Z"/><path class="cls-2" d="M64.06,86.67q0,11.89,0,23.8c-.11-.13-.06-.28-.06-.43v-23C64,87,63.94,86.79,64.06,86.67Z"/><path class="cls-2" d="M98.24,89.21a1.14,1.14,0,0,0-.48-.06H82.49l-.44,0c.12-.13.28-.08.42-.08H97.8C98,89.1,98.13,89,98.24,89.21Z"/><path class="cls-2" d="M98.31,110.55c0-.17,0-.35,0-.52V94.44c.11.13.06.29.06.43q0,7.62,0,15.23C98.4,110.25,98.47,110.43,98.31,110.55Z"/><path class="cls-2" d="M82,92.89H97.68l.48,0c-.11.16-.27.1-.41.1H82.46C82.32,93,82.16,93,82,92.89Z"/><path class="cls-2" d="M82.13,110.72H97.6l.56,0c-.11.16-.27.09-.41.09H82.51C82.38,110.79,82.24,110.84,82.13,110.72Z"/><path class="cls-2" d="M43.41,97.43h-16c.13-.12.29-.07.43-.07H43C43.13,97.35,43.29,97.3,43.41,97.43Z"/><path class="cls-2" d="M98.16,94.22c-.19,0-.38,0-.57,0H82.13c.12-.12.28-.07.42-.07H97.72C97.86,94.12,98.05,94,98.16,94.22Z"/><path class="cls-2" d="M61.72,57.5H46.17c.13-.11.29-.06.43-.06H61.3C61.44,57.43,61.6,57.38,61.72,57.5Z"/><path class="cls-2" d="M27.3,110.56c1.65,0,3.29,0,4.94,0,.31,0,.34-.13.34-.38q0-3.53,0-7c0-.15,0-.32.06-.47q0,3.79,0,7.57c0,.22,0,.39-.31.39H27.52A.26.26,0,0,1,27.3,110.56Z"/><path class="cls-2" d="M43.64,110.39a2.85,2.85,0,0,0,0-.4V97.68c.11.13.06.29.06.43v11.83C43.74,110.09,43.81,110.27,43.64,110.39Z"/><path class="cls-2" d="M38.07,110.55c1.81,0,3.62,0,5.42,0-.06.12-.18.09-.28.09H38.33C38.23,110.63,38.14,110.64,38.07,110.55Z"/><path class="cls-2" d="M82,89.26c0,1.18,0,2.37,0,3.56a.27.27,0,0,1-.09-.25v-3.1A.24.24,0,0,1,82,89.26Z"/><path class="cls-2" d="M18.15,14.34a23,23,0,0,0,0,3.32c-.11,0-.11-.14-.11-.23V14.56A.25.25,0,0,1,18.15,14.34Z"/><path class="cls-3" d="M59.35,93.74c0,.58,0,1.15,0,1.73,0,.3-.11.41-.41.41H55.83c-.29,0-.41-.11-.41-.4,0-1.18,0-2.35,0-3.52,0-.29.12-.41.41-.41,1,0,2.05,0,3.07,0,.36,0,.47.15.46.49C59.33,92.6,59.35,93.17,59.35,93.74Z"/><path class="cls-3" d="M59.35,102.66c0,.59,0,1.18,0,1.78,0,.29-.11.42-.4.41H55.84c-.31,0-.42-.13-.42-.44q0-1.74,0-3.48c0-.28.1-.41.41-.41,1,0,2.07,0,3.11,0,.32,0,.42.14.41.44C59.34,101.53,59.35,102.09,59.35,102.66Z"/><path class="cls-3" d="M59.35,66.79c0,.57,0,1.15,0,1.73,0,.28-.07.42-.39.42q-1.58,0-3.15,0c-.28,0-.39-.11-.39-.38,0-1.19,0-2.37,0-3.56,0-.27.12-.37.39-.37,1,0,2.11,0,3.16,0,.28,0,.39.1.38.38C59.34,65.6,59.35,66.19,59.35,66.79Z"/><path class="cls-3" d="M55.42,84.76c0-.59,0-1.19,0-1.78,0-.26.1-.39.38-.38,1.07,0,2.13,0,3.19,0,.27,0,.36.11.36.36v3.55c0,.29-.13.38-.4.38q-1.58,0-3.15,0c-.28,0-.38-.12-.38-.39C55.43,85.92,55.42,85.34,55.42,84.76Z"/><path class="cls-3" d="M59.35,75.73c0,.59,0,1.19,0,1.78,0,.3-.11.41-.4.4H55.83c-.3,0-.41-.11-.41-.4q0-1.74,0-3.48c0-.32.12-.43.43-.42,1,0,2,0,3.08,0,.32,0,.43.11.42.42C59.34,74.6,59.35,75.16,59.35,75.73Z"/><path class="cls-3" d="M52.47,93.71c0,.59,0,1.18,0,1.78,0,.27-.1.39-.38.39H48.93c-.25,0-.37-.09-.36-.36v-3.6c0-.26.09-.37.35-.37,1.06,0,2.13,0,3.19,0,.26,0,.36.12.36.38C52.46,92.52,52.47,93.11,52.47,93.71Z"/><path class="cls-3" d="M48.57,102.69c0-.6,0-1.19,0-1.78,0-.28.09-.39.37-.39,1.06,0,2.11,0,3.16,0,.26,0,.37.1.37.36q0,1.8,0,3.6c0,.27-.12.37-.36.37H49c-.3,0-.39-.13-.39-.42C48.58,103.85,48.57,103.27,48.57,102.69Z"/><path class="cls-3" d="M48.57,66.77c0-.59,0-1.18,0-1.78,0-.25.08-.36.35-.36,1.06,0,2.13,0,3.19,0,.28,0,.36.12.36.37,0,1.18,0,2.37,0,3.56,0,.27-.1.38-.38.38-1.05,0-2.11,0-3.16,0-.29,0-.37-.12-.36-.39C48.58,68,48.57,67.37,48.57,66.77Z"/><path class="cls-3" d="M48.57,75.74c0-.58,0-1.16,0-1.74,0-.3.11-.4.41-.39,1,0,2.07,0,3.11,0,.27,0,.39.08.39.37,0,1.18,0,2.37,0,3.55,0,.28-.11.39-.39.38H48.93c-.26,0-.37-.09-.36-.35C48.58,77,48.57,76.34,48.57,75.74Z"/><path class="cls-3" d="M48.57,84.72c0-.58,0-1.16,0-1.74,0-.27.07-.39.36-.38,1.06,0,2.11,0,3.16,0,.28,0,.38.1.38.38,0,1.17,0,2.34,0,3.52,0,.3-.13.39-.42.39-1,0-2,0-3.07,0-.33,0-.42-.12-.42-.43C48.58,85.88,48.57,85.3,48.57,84.72Z"/><path class="cls-3" d="M71.36,85.48c0,1,0,2,0,3,0,.38-.16.53-.53.52H66.58c-.36,0-.49-.15-.52-.5a2,2,0,0,1,.5-1.48c1.33-1.63,2.64-3.28,4-4.92.16-.19.33-.34.59-.23s.26.31.26.54C71.35,83.46,71.36,84.47,71.36,85.48Z"/><path class="cls-3" d="M75.66,99.6h-2.1c-.43,0-.56-.14-.56-.56,0-.83,0-1.67,0-2.5,0-.38.16-.54.53-.54h4.29c.37,0,.52.17.51.55,0,.82,0,1.64,0,2.46,0,.47-.12.58-.61.59Z"/><path class="cls-3" d="M68.68,99.6H66.62c-.45,0-.57-.13-.58-.58V96.56c0-.45.11-.56.55-.56,1.41,0,2.81,0,4.21,0,.44,0,.55.11.55.55V99c0,.46-.12.58-.57.59Z"/><path class="cls-3" d="M75.65,89c-.7,0-1.4,0-2.1,0-.38,0-.55-.15-.55-.52V86c0-.37.17-.53.55-.53,1.41,0,2.83,0,4.24,0,.38,0,.54.14.54.53,0,.85,0,1.69,0,2.54,0,.39-.17.53-.54.53C77.08,89,76.36,89,75.65,89Z"/><path class="cls-3" d="M75.69,83.75c-.73,0-1.46,0-2.18,0-.35,0-.51-.16-.51-.48,0-.88,0-1.76,0-2.63,0-.33.16-.48.51-.48q2.16,0,4.32,0c.34,0,.5.14.5.48,0,.88,0,1.75,0,2.63,0,.34-.16.48-.5.48C77.12,83.74,76.4,83.75,75.69,83.75Z"/><path class="cls-3" d="M75.67,90.72h2.1c.45,0,.55.1.56.53,0,.85,0,1.7,0,2.55,0,.37-.16.51-.51.51q-2.14,0-4.29,0c-.36,0-.53-.15-.53-.5V91.22c0-.34.16-.51.52-.51C74.24,90.73,75,90.72,75.67,90.72Z"/><path class="cls-3" d="M75.64,104.88h-2.1a.47.47,0,0,1-.54-.54V101.8c0-.34.15-.51.52-.51h4.32c.34,0,.49.15.49.49,0,.86,0,1.72,0,2.59,0,.39-.18.52-.55.52Z"/><path class="cls-3" d="M68.7,94.3c-.7,0-1.4,0-2.1,0-.38,0-.56-.14-.56-.51V91.21c0-.32.15-.5.5-.5h4.32c.35,0,.49.16.49.49v2.63a.41.41,0,0,1-.47.47Z"/><path class="cls-3" d="M68.73,101.29h2.06c.46,0,.56.1.56.54v2.51c0,.43-.12.54-.56.54h-4.2c-.38,0-.55-.17-.55-.53v-2.55c0-.37.17-.53.55-.52Z"/><path class="cls-3" d="M78.32,75.64v2.23c0,.43-.15.59-.58.59-1.17,0-2.35,0-3.52,0a.5.5,0,0,1-.53-.28c-.1-.23,0-.39.15-.55l3.64-4.53c.14-.18.3-.33.55-.24s.3.32.29.56Z"/><path class="cls-3" d="M86.71,101.31h2.18c.36,0,.52.16.52.51,0,.85,0,1.7,0,2.55a.45.45,0,0,1-.51.52c-1.49,0-3,0-4.45,0-.32,0-.49-.16-.49-.46q0-1.34,0-2.67c0-.31.17-.46.49-.45Z"/><path class="cls-3" d="M86.68,96.05h2.14c.48,0,.58.1.58.56,0,.82,0,1.64,0,2.47,0,.37-.16.54-.53.54H84.47c-.36,0-.53-.16-.53-.51,0-.85,0-1.7,0-2.55,0-.37.16-.52.54-.51C85.22,96.07,86,96.05,86.68,96.05Z"/><path class="cls-3" d="M93.83,101.31H96c.35,0,.51.15.51.5v2.55c0,.35-.15.53-.51.53q-2.2,0-4.41,0c-.35,0-.51-.16-.51-.52q0-1.28,0-2.55c0-.39.17-.52.55-.52C92.37,101.32,93.1,101.31,93.83,101.31Z"/><path class="cls-3" d="M93.85,96.05H96c.48,0,.58.09.58.56,0,.82,0,1.64,0,2.46,0,.37-.14.55-.52.55H91.64c-.37,0-.54-.15-.54-.53,0-.83,0-1.67,0-2.51,0-.45.08-.53.55-.53Z"/><path class="cls-2" d="M39.24,17.48v1.25c0,1.51-.75,2.36-2.2,2.36s-2.2-.85-2.2-2.36V13.84c0-1.5.75-2.36,2.2-2.36s2.2.86,2.2,2.36v.92h-1.4v-1c0-.67-.29-.93-.76-.93s-.77.26-.77.93v5.08c0,.67.3.91.77.91s.76-.24.76-.91V17.48Z"/><path class="cls-2" d="M40.14,11.59h1.48V21H40.14Z"/><path class="cls-2" d="M44.1,11.59v7.25c0,.67.29.91.76.91s.77-.24.77-.91V11.59H47v7.15a2.07,2.07,0,0,1-2.21,2.37c-1.45,0-2.2-.86-2.2-2.37V11.59Z"/><path class="cls-2" d="M48,11.59h2.34c1.47,0,2.2.82,2.2,2.32v4.75c0,1.51-.73,2.33-2.2,2.33H48Zm1.48,1.34v6.71h.83c.47,0,.75-.24.75-.91V13.84c0-.67-.28-.91-.75-.91Z"/><path class="cls-2" d="M58.27,21H56.78l-.25-1.71H54.72L54.46,21H53.11l1.5-9.4h2.16ZM54.9,18h1.43l-.71-4.76Z"/><path class="cls-2" d="M59,11.59h2.33a2,2,0,0,1,2.21,2.32v4.75c0,1.51-.73,2.33-2.21,2.33H59Zm1.48,1.34v6.71h.83c.47,0,.75-.24.75-.91V13.84c0-.67-.28-.91-.75-.91Z"/><path class="cls-2" d="M65.91,15.55h2v1.34h-2v2.75h2.55V21h-4v-9.4h4v1.34H65.91Z"/><path class="cls-2" d="M71.36,11.48c1.44,0,2.18.86,2.18,2.36v.3h-1.4v-.39c0-.67-.27-.93-.74-.93s-.74.26-.74.93c0,1.93,2.89,2.3,2.89,5,0,1.51-.75,2.36-2.2,2.36s-2.2-.85-2.2-2.36v-.58h1.39v.68c0,.67.3.91.77.91s.76-.24.76-.91c0-1.94-2.88-2.3-2.88-5C69.19,12.34,69.93,11.48,71.36,11.48Z"/><path class="cls-2" d="M77.86,17.87,76,11.59h1.55l1.13,4.28,1.12-4.28H81.2l-1.86,6.28V21H77.86Z"/><path class="cls-2" d="M39.24,31.9v1.25c0,1.51-.75,2.37-2.2,2.37s-2.2-.86-2.2-2.37V28.27c0-1.51.75-2.37,2.2-2.37s2.2.86,2.2,2.37v.91h-1.4v-1c0-.67-.29-.92-.76-.92s-.77.25-.77.92v5.08c0,.67.3.91.77.91s.76-.24.76-.91V31.9Z"/><path class="cls-2" d="M40,28.27a2.24,2.24,0,1,1,4.48,0v4.88a2.24,2.24,0,1,1-4.48,0Zm1.47,5c0,.67.3.92.77.92s.76-.25.76-.92V28.17c0-.67-.29-.92-.76-.92s-.77.25-.77.92Z"/><path class="cls-2" d="M48.58,32.68l1-6.67h2v9.4H50.25V28.67l-1,6.74h-1.4l-1.1-6.65v6.65H45.44V26H47.5Z"/><path class="cls-2" d="M54.13,26v7.25c0,.67.29.91.76.91s.77-.24.77-.91V26h1.39v7.16c0,1.5-.75,2.36-2.2,2.36s-2.2-.86-2.2-2.36V26Z"/><path class="cls-2" d="M59.38,28.6v6.81H58.05V26H59.9l1.52,5.63V26h1.31v9.4H61.21Z"/><path class="cls-2" d="M63.79,26h1.48v9.4H63.79Z"/><path class="cls-2" d="M66.34,26h2.34c1.47,0,2.2.82,2.2,2.32v4.76c0,1.5-.73,2.32-2.2,2.32H66.34Zm1.48,1.34v6.72h.83c.47,0,.75-.25.75-.92V28.27c0-.67-.28-.92-.75-.92Z"/><path class="cls-2" d="M76.58,35.41H75.09l-.25-1.71H73l-.26,1.71H71.42l1.5-9.4h2.16Zm-3.36-3h1.42l-.71-4.75Z"/><path class="cls-2" d="M77.27,26H79.6a2,2,0,0,1,2.21,2.32v4.76a2,2,0,0,1-2.21,2.32H77.27Zm1.48,1.34v6.72h.83c.47,0,.75-.25.75-.92V28.27c0-.67-.28-.92-.75-.92Z"/><path class="cls-2" d="M84.22,30h2v1.34h-2v2.76h2.55v1.34h-4V26h4v1.34H84.22Z"/><path class="cls-2" d="M89.67,25.9c1.44,0,2.18.86,2.18,2.37v.29h-1.4v-.39c0-.67-.27-.92-.74-.92s-.74.25-.74.92c0,1.94,2.89,2.3,2.89,5,0,1.51-.75,2.37-2.2,2.37s-2.2-.86-2.2-2.37v-.57h1.39v.67c0,.67.3.91.77.91s.76-.24.76-.91c0-1.94-2.88-2.3-2.88-5C87.5,26.76,88.24,25.9,89.67,25.9Z"/><path class="cls-2" d="M36.94,40.33c1.44,0,2.18.85,2.18,2.36V43h-1.4v-.39c0-.67-.27-.92-.74-.92s-.73.25-.73.92c0,1.94,2.88,2.3,2.88,5,0,1.51-.75,2.37-2.2,2.37s-2.2-.86-2.2-2.37V47h1.39v.67c0,.67.3.91.77.91s.77-.24.77-.91c0-1.93-2.89-2.3-2.89-5C34.77,41.18,35.51,40.33,36.94,40.33Z"/><path class="cls-2" d="M39.86,42.69a2.24,2.24,0,1,1,4.48,0v4.88a2.24,2.24,0,1,1-4.48,0Zm1.47,5c0,.67.3.92.77.92s.76-.25.76-.92V42.59c0-.67-.29-.92-.76-.92s-.77.25-.77.92Z"/><path class="cls-2" d="M47.28,40.33c1.44,0,2.18.85,2.18,2.36V43h-1.4v-.39c0-.67-.27-.92-.74-.92s-.74.25-.74.92c0,1.94,2.89,2.3,2.89,5,0,1.51-.75,2.37-2.2,2.37s-2.2-.86-2.2-2.37V47h1.39v.67c0,.67.3.91.77.91s.76-.24.76-.91c0-1.93-2.88-2.3-2.88-5C45.11,41.18,45.84,40.33,47.28,40.33Z"/><path class="cls-2" d="M49.88,40.43h4.57v1.35H52.9v8H51.43v-8H49.88Z"/><path class="cls-2" d="M56.57,44.39h2v1.35h-2v2.75h2.55v1.34h-4v-9.4h4v1.35H56.57Z"/><path class="cls-2" d="M61.35,43v6.81H60v-9.4h1.85l1.52,5.63V40.43H64.7v9.4H63.19Z"/><path class="cls-2" d="M65.76,40.43h1.48v9.4H65.76Z"/><path class="cls-2" d="M72.73,42.59v.34a1.83,1.83,0,0,1-1,1.89,1.91,1.91,0,0,1,1.1,2v.76a2,2,0,0,1-2.24,2.23H68.32v-9.4h2.22C72.07,40.43,72.73,41.14,72.73,42.59Zm-2.94-.81v2.48h.58c.55,0,.89-.24.89-1v-.53c0-.67-.23-1-.76-1Zm0,3.82v2.89h.85c.49,0,.76-.23.76-.93v-.82c0-.87-.28-1.14-1-1.14Z"/><path class="cls-2" d="M73.77,40.43h1.47v8.06h2.43v1.34h-3.9Z"/><path class="cls-2" d="M79.79,44.39h2v1.35h-2v2.75h2.55v1.34h-4v-9.4h4v1.35H79.79Z"/><path class="cls-2" d="M85.24,40.33c1.44,0,2.18.85,2.18,2.36V43H86v-.39c0-.67-.27-.92-.74-.92s-.74.25-.74.92c0,1.94,2.89,2.3,2.89,5,0,1.51-.75,2.37-2.2,2.37S83,49.08,83,47.57V47h1.39v.67c0,.67.3.91.77.91s.76-.24.76-.91c0-1.93-2.88-2.3-2.88-5C83.07,41.18,83.81,40.33,85.24,40.33Z"/></g></g></svg>