<svg xmlns="http://www.w3.org/2000/svg" viewBox="0 0 124.49 124.49"><defs><style>.cls-1{fill:#00336a;}.cls-2{fill:#fff;}</style></defs><g id="Capa_2" data-name="Capa 2"><g id="Capa_1-2" data-name="Capa 1"><path class="cls-1" d="M124.49,124.49H0V0H124.49Z"/><path class="cls-2" d="M88,81.29a13,13,0,0,1-4.73,9.81.61.61,0,0,0-.22.72,13.13,13.13,0,0,1-10.81,16.12,12.82,12.82,0,0,1-8.87-1.86.53.53,0,0,0-.68,0,13.12,13.12,0,0,1-20-8.74A12.85,12.85,0,0,1,43,91.73a.46.46,0,0,0-.17-.55A12.91,12.91,0,0,1,38,80,13.11,13.11,0,0,1,48.45,68.21,12.47,12.47,0,0,1,50.17,68a.6.6,0,0,0,.61-.45,13,13,0,0,1,6.12-6.85,13.11,13.11,0,0,1,18.2,6.63A.93.93,0,0,0,76,68a13.14,13.14,0,0,1,11.41,9.28A14.34,14.34,0,0,1,88,81.29ZM63,75.47a13.29,13.29,0,0,1,9.57-7.35c-.94-3.33-5.4-6.3-9.49-6.32a10.37,10.37,0,0,0-9.66,6.32A13.33,13.33,0,0,1,63,75.47ZM50,70.66c-3.57-.14-7.85,3.5-9,7.57A10.29,10.29,0,0,0,44.1,88.77a13.3,13.3,0,0,1,10-6.78A13.19,13.19,0,0,1,50,70.66Zm10.93,33.42a13.21,13.21,0,0,1-3.47-11.51,13.27,13.27,0,0,1-12,.33,10.43,10.43,0,0,0,15.49,11.18Zm21-15.31a10.44,10.44,0,0,0-2.09-17A9.79,9.79,0,0,0,76,70.63a13.3,13.3,0,0,1-.69,6.15,13.5,13.5,0,0,1-3.39,5.14A13.29,13.29,0,0,1,81.92,88.77Zm-1.36,4.11a12.92,12.92,0,0,1-6,1.29,13.25,13.25,0,0,1-6-1.63,13.24,13.24,0,0,1-3.34,11.51,10.32,10.32,0,0,0,11.66-.87C79.93,100.73,81.79,95.61,80.56,92.88Zm-15-7.2a10.34,10.34,0,0,0,14.16,4.65A10.34,10.34,0,0,0,65.53,85.68ZM63,87.56a10.33,10.33,0,0,0,.11,14.87A10.4,10.4,0,0,0,63,87.56Zm-2.52-1.81a10.33,10.33,0,0,0-14.1,4.61A10.38,10.38,0,0,0,60.43,85.75Zm4.13-3.12c6.08-.8,9.82-6.9,8.74-11.9A10.36,10.36,0,0,0,64.56,82.63Zm-3.09,0a10.53,10.53,0,0,0-8.81-11.94A10.37,10.37,0,0,0,61.47,82.62Z"/><path class="cls-2" d="M19.08,11.89h.43c3.23,0,6.46,0,9.68,0,.41,0,.45.15.49.51a19.34,19.34,0,0,1-.95,6.28c-1.28,5.34-2.58,10.67-3.85,16-.08.34-.21.43-.54.42-1.14,0-2.27,0-3.4,0l-.45,0c.82-3.31,1.63-6.59,2.43-9.87s1.61-6.57,2.44-9.92H19.08Z"/><path class="cls-2" d="M12,16.5,8.61,17.7V16.4c0-.55,0-1.1,0-1.66a.4.4,0,0,1,.27-.42,15.14,15.14,0,0,0,4-2.32.59.59,0,0,1,.37-.1H16c.3,0,.39.09.39.39,0,1.17,0,2.35,0,3.52V34.54c0,.54,0,.54-.55.54-1.13,0-2.27,0-3.4,0-.38,0-.47-.11-.47-.48q0-8.73,0-17.48Z"/><path class="cls-2" d="M41.24,21.22H39.75l-.25-1.7H37.68l-.25,1.7H36.07l1.51-9.39h2.16Zm-3.37-3h1.42l-.71-4.75Z"/><path class="cls-2" d="M41.93,11.83H43.4v8h2.43v1.34h-3.9Z"/><path class="cls-2" d="M46.48,11.83H48v9.39H46.48Z"/><path class="cls-2" d="M53.81,21.22H52.32l-.26-1.7H50.25L50,21.22H48.64l1.5-9.39H52.3Zm-3.37-3h1.42l-.71-4.75Z"/><path class="cls-2" d="M55.81,14.42v6.8H54.48V11.83h1.85l1.52,5.62V11.83h1.31v9.39H57.65Z"/><path class="cls-2" d="M64.32,11.83v1.31l-2.81,6.74h2.81v1.34H60V19.91l2.81-6.74H60.13V11.83Z"/><path class="cls-2" d="M70,21.22H68.48l-.26-1.7H66.41l-.25,1.7H64.8l1.5-9.39h2.16Zm-3.37-3H68l-.71-4.75Z"/><path class="cls-2" d="M72.64,11.72c1.44,0,2.17.86,2.17,2.36v.3H73.42V14c0-.67-.27-.93-.74-.93s-.74.26-.74.93c0,1.93,2.89,2.29,2.89,5,0,1.5-.75,2.36-2.2,2.36A2.06,2.06,0,0,1,70.42,19v-.58h1.4v.67c0,.67.3.91.77.91s.76-.24.76-.91c0-1.93-2.89-2.29-2.89-5C70.46,12.58,71.2,11.72,72.64,11.72Z"/><path class="cls-2" d="M82.13,14.15v1.22c0,1.5-.72,2.32-2.2,2.32h-.7v3.53H77.75V11.83h2.18C81.41,11.83,82.13,12.64,82.13,14.15Zm-2.9-1v3.18h.7c.47,0,.72-.21.72-.89V14.05c0-.67-.25-.88-.72-.88Z"/><path class="cls-2" d="M87.49,21.22H86l-.26-1.7H83.93l-.26,1.7H82.32l1.5-9.39H86Zm-3.37-3h1.42l-.71-4.75Z"/><path class="cls-2" d="M91.26,21.22a2.84,2.84,0,0,1-.14-1.15V18.59c0-.87-.29-1.19-1-1.19h-.51v3.82H88.17V11.83H90.4c1.53,0,2.19.71,2.19,2.16v.74a1.87,1.87,0,0,1-1,1.9c.74.31,1,1,1,2v1.45a2.72,2.72,0,0,0,.16,1.14Zm-1.61-8v2.88h.58c.55,0,.88-.24.88-1v-.93c0-.67-.23-1-.75-1Z"/><path class="cls-2" d="M98.35,21.22H96.86l-.26-1.7H94.79l-.26,1.7H93.18l1.5-9.39h2.16Zm-3.37-3H96.4l-.71-4.75Z"/><path class="cls-2" d="M36.46,26.25h1.48v8h2.43v1.34H36.46Z"/><path class="cls-2" d="M40.89,28.5a2.25,2.25,0,1,1,4.49,0v4.89a2.25,2.25,0,1,1-4.49,0Zm1.48,5c0,.67.29.93.76.93s.77-.26.77-.93V28.41c0-.67-.3-.93-.77-.93s-.76.26-.76.93Z"/><path class="cls-2" d="M48.54,30.41h2.07v3c0,1.5-.75,2.36-2.2,2.36s-2.2-.86-2.2-2.36V28.5c0-1.5.75-2.36,2.2-2.36s2.2.86,2.2,2.36v.92H49.22v-1c0-.67-.3-.93-.77-.93s-.77.26-.77.93v5.07c0,.67.3.92.77.92s.77-.25.77-.92V31.75h-.68Z"/><path class="cls-2" d="M54.65,35.64a2.88,2.88,0,0,1-.13-1.15V33c0-.87-.3-1.19-1-1.19H53v3.82H51.56V26.25h2.23c1.53,0,2.19.71,2.19,2.16v.74a1.87,1.87,0,0,1-1,1.9c.74.31,1,1,1,2V34.5a2.69,2.69,0,0,0,.17,1.14Zm-1.61-8v2.89h.58c.55,0,.88-.25.88-1v-.92c0-.67-.22-1-.75-1Z"/><path class="cls-2" d="M61.74,35.64H60.25L60,33.94H58.18l-.25,1.7H56.57l1.5-9.39h2.17Zm-3.37-3h1.42l-.71-4.75Z"/><path class="cls-2" d="M65.51,35.64a2.88,2.88,0,0,1-.13-1.15V33c0-.87-.3-1.19-1-1.19H63.9v3.82H62.42V26.25h2.23c1.53,0,2.19.71,2.19,2.16v.74a1.87,1.87,0,0,1-1,1.9c.74.31,1,1,1,2V34.5A2.69,2.69,0,0,0,67,35.64Zm-1.61-8v2.89h.58c.55,0,.88-.25.88-1v-.92c0-.67-.22-1-.75-1Z"/><path class="cls-2" d="M36.46,40.67h1.48v8h2.43v1.35H36.46Z"/><path class="cls-2" d="M40.89,42.92a2.25,2.25,0,1,1,4.49,0v4.89a2.25,2.25,0,1,1-4.49,0Zm1.48,5c0,.67.29.92.76.92s.77-.25.77-.92V42.83c0-.67-.3-.93-.77-.93s-.76.26-.76.93Z"/><path class="cls-2" d="M48.32,40.56c1.43,0,2.17.86,2.17,2.36v.3h-1.4v-.39c0-.67-.26-.93-.73-.93s-.74.26-.74.93c0,1.93,2.88,2.3,2.88,5,0,1.5-.75,2.36-2.2,2.36s-2.2-.86-2.2-2.36v-.58h1.4v.68c0,.67.29.91.76.91s.77-.24.77-.91c0-1.94-2.89-2.3-2.89-5C46.14,41.42,46.88,40.56,48.32,40.56Z"/><path class="cls-2" d="M53.31,42.92a2.24,2.24,0,1,1,4.48,0v4.89a2.24,2.24,0,1,1-4.48,0Zm1.48,5c0,.67.29.92.76.92s.77-.25.77-.92V42.83c0-.67-.3-.93-.77-.93s-.76.26-.76.93Z"/><path class="cls-2" d="M63.16,42.83v.34a1.84,1.84,0,0,1-.95,1.89,1.9,1.9,0,0,1,1.1,2v.77a2,2,0,0,1-2.24,2.23H58.75v-9.4H61C62.5,40.67,63.16,41.38,63.16,42.83ZM60.22,42V44.5h.58c.55,0,.89-.25.89-1V43c0-.67-.23-1-.76-1Zm0,3.83v2.88h.85c.5,0,.76-.22.76-.92V47c0-.87-.28-1.14-.95-1.14Z"/><path class="cls-2" d="M63.79,48.72a4.35,4.35,0,0,0,.51,0c.47,0,.85-.18.85-.9V40.67h1.48v7.06c0,1.88-1,2.36-2.13,2.36-.26,0-.47,0-.71,0Z"/><path class="cls-2" d="M69.11,44.63h2V46h-2v2.75h2.55v1.35h-4v-9.4h4V42H69.11Z"/><path class="cls-2" d="M72.14,40.67h4.57V42H75.16v8.06H73.69V42H72.14Z"/><path class="cls-2" d="M77.35,40.67h1.48v9.4H77.35Z"/><path class="cls-2" d="M82.13,48.33l1.13-7.66h1.35l-1.45,9.4H81l-1.45-9.4H81Z"/><path class="cls-2" d="M85.16,42.92a2.25,2.25,0,1,1,4.49,0v4.89a2.25,2.25,0,1,1-4.49,0Zm1.48,5c0,.67.3.92.77.92s.76-.25.76-.92V42.83c0-.67-.29-.93-.76-.93s-.77.26-.77.93Z"/><path class="cls-2" d="M92.59,40.56c1.43,0,2.17.86,2.17,2.36v.3H93.37v-.39c0-.67-.27-.93-.74-.93s-.74.26-.74.93c0,1.93,2.89,2.3,2.89,5a2.06,2.06,0,0,1-2.21,2.36c-1.45,0-2.2-.86-2.2-2.36v-.58h1.4v.68c0,.67.29.91.76.91s.77-.24.77-.91c0-1.94-2.89-2.3-2.89-5C90.41,41.42,91.15,40.56,92.59,40.56Z"/></g></g></svg>