<svg xmlns="http://www.w3.org/2000/svg" viewBox="0 0 378.08 212.67"><defs><style>.cls-1{fill:#ffb200;}.cls-2{fill:#fefefe;}.cls-3{fill:#fcb613;}.cls-4{fill:#fff;}</style></defs><g id="Capa_2" data-name="Capa 2"><g id="Capa_1-2" data-name="Capa 1"><rect class="cls-1" width="378.08" height="212.67"/><path class="cls-2" d="M189.11,112.14a15.67,15.67,0,1,1-15.65,15.66A15.68,15.68,0,0,1,189.11,112.14Z"/><path class="cls-2" d="M142.36,54.78c1.69,0,3.38,0,5.06,0,.33,0,.41.1.4.41,0,.78,0,1.56,0,2.35a7.46,7.46,0,0,1-.35,1.74q-.79,3.36-1.61,6.72c-1,4.1-2,8.19-3,12.3a.32.32,0,0,1-.37.3q-1.91,0-3.81,0c-.28,0-.29-.09-.23-.33q.84-3.37,1.66-6.75l3-12.13c.07-.27.13-.53.21-.78s0-.35-.28-.35c-1.87,0-3.75,0-5.62,0-.4,0-.51-.1-.49-.49q0-1.28,0-2.55c0-.39.12-.46.47-.46C139,54.79,140.7,54.78,142.36,54.78Z"/><path class="cls-2" d="M203.35,150.08a1.39,1.39,0,0,1-.89,1.33,1.29,1.29,0,0,1-1.53-.6c-1.1-1.91-2.21-3.83-3.3-5.75a1.34,1.34,0,0,1,.42-1.81,1.32,1.32,0,0,1,1.82.52c1.13,1.95,2.24,3.9,3.36,5.86A.8.8,0,0,1,203.35,150.08Z"/><path class="cls-2" d="M211.75,129h-3.32a1.32,1.32,0,0,1-1.35-1.31,1.29,1.29,0,0,1,1.34-1.27H215a1.31,1.31,0,0,1,1.35,1.26A1.33,1.33,0,0,1,215,129Z"/><path class="cls-2" d="M166.52,129h-3.31a1.33,1.33,0,0,1-1.34-1.29,1.3,1.3,0,0,1,1.32-1.29c2.23,0,4.45,0,6.67,0a1.26,1.26,0,0,1,1.29,1.28,1.29,1.29,0,0,1-1.31,1.3Z"/><path class="cls-2" d="M176.3,151.49a1.3,1.3,0,0,1-1.22-1.85c.45-.86.95-1.7,1.43-2.54.64-1.12,1.28-2.25,1.94-3.36a1.31,1.31,0,0,1,1.79-.46,1.33,1.33,0,0,1,.43,1.75c-1.1,1.94-2.22,3.88-3.33,5.82A1.18,1.18,0,0,1,176.3,151.49Z"/><path class="cls-2" d="M179.51,112.27a1.3,1.3,0,0,1-1.1-.63c-1.1-1.93-2.22-3.85-3.32-5.78a1.29,1.29,0,1,1,2.24-1.27c1.11,1.91,2.2,3.83,3.31,5.74a1.3,1.3,0,0,1-.06,1.38A1.22,1.22,0,0,1,179.51,112.27Z"/><path class="cls-2" d="M165.34,140.52a1.23,1.23,0,0,1,.65-1l5.72-3.28a1.3,1.3,0,1,1,1.27,2.25c-1.92,1.11-3.83,2.21-5.75,3.3A1.3,1.3,0,0,1,165.34,140.52Z"/><path class="cls-2" d="M190.41,105v3.32a1.28,1.28,0,0,1-1.27,1.34,1.27,1.27,0,0,1-1.31-1.3q0-3.33,0-6.64a1.28,1.28,0,0,1,1.28-1.33,1.31,1.31,0,0,1,1.29,1.37Z"/><path class="cls-2" d="M166.65,113.5a1.25,1.25,0,0,1,.69.22l5.71,3.28a1.28,1.28,0,0,1-1.24,2.25c-2-1.12-3.93-2.24-5.89-3.38a1.24,1.24,0,0,1-.56-1.47A1.32,1.32,0,0,1,166.65,113.5Z"/><path class="cls-2" d="M190.41,150.32v3.24a1.28,1.28,0,0,1-1.25,1.35,1.26,1.26,0,0,1-1.33-1.32V147a1.29,1.29,0,1,1,2.58,0Z"/><path class="cls-2" d="M198.66,112.23a1.27,1.27,0,0,1-1.12-1.87c1.11-2,2.24-3.93,3.37-5.89a1.29,1.29,0,0,1,2.24,1.27l-3.34,5.87A1.2,1.2,0,0,1,198.66,112.23Z"/><path class="cls-2" d="M212.92,140.59a1.26,1.26,0,0,1-1.87,1.11q-2.91-1.63-5.8-3.3a1.31,1.31,0,0,1-.53-1.84,1.33,1.33,0,0,1,1.81-.4c1.93,1.09,3.84,2.19,5.76,3.29A1.2,1.2,0,0,1,212.92,140.59Z"/><path class="cls-2" d="M212.9,114.72a1.23,1.23,0,0,1-.65,1.14c-1.93,1.11-3.87,2.23-5.81,3.33a1.28,1.28,0,0,1-1.3-2.21c1.36-.8,2.73-1.58,4.09-2.36.58-.34,1.16-.69,1.75-1A1.29,1.29,0,0,1,212.9,114.72Z"/><path class="cls-3" d="M191.52,119.94a6.55,6.55,0,0,1,2.34,1.14,8,8,0,0,1,3.39,6.78,8.13,8.13,0,1,1-11.88-7.38,7.8,7.8,0,0,1,1.06-.48c.17,0,.25,0,.25.17,0,.86,0,1.73,0,2.59,0,.22-.15.27-.28.35a5.33,5.33,0,1,0,7.56,2.35,4.84,4.84,0,0,0-2.07-2.31.64.64,0,0,1-.37-.67C191.54,121.65,191.52,120.81,191.52,119.94Z"/><path class="cls-3" d="M190.26,121c0,.84,0,1.69,0,2.54a1.14,1.14,0,0,1-1.15,1.23,1.18,1.18,0,0,1-1.15-1.25v-5a1.18,1.18,0,0,1,1.17-1.28,1.16,1.16,0,0,1,1.13,1.26C190.27,119.35,190.26,120.18,190.26,121Z"/><path class="cls-4" d="M159.43,59h2v1.34h-2v2.75H162v1.35h-4V55h4v1.34h-2.55Z"/><path class="cls-4" d="M164.21,57.61v6.81h-1.33V55h1.85l1.52,5.62V55h1.32v9.4h-1.52Z"/><path class="cls-4" d="M170.1,59h2v1.34h-2v2.75h2.55v1.35h-4V55h4v1.34H170.1Z"/><path class="cls-4" d="M176.65,64.42a3,3,0,0,1-.13-1.16V61.79c0-.88-.3-1.2-1-1.2H175v3.83h-1.47V55h2.22c1.53,0,2.19.71,2.19,2.16v.74a1.89,1.89,0,0,1-1,1.91c.73.3,1,1,1,2v1.45a2.74,2.74,0,0,0,.16,1.14ZM175,56.36v2.89h.58c.55,0,.89-.24.89-1v-.92c0-.67-.23-1-.76-1Z"/><path class="cls-4" d="M181.18,59.18h2.06v3c0,1.5-.75,2.36-2.2,2.36s-2.2-.86-2.2-2.36V57.27c0-1.5.75-2.36,2.2-2.36s2.2.86,2.2,2.36v.92h-1.39v-1c0-.67-.3-.93-.77-.93s-.76.26-.76.93v5.08c0,.67.29.91.76.91s.77-.24.77-.91V60.52h-.67Z"/><path class="cls-4" d="M186.52,53l-1.37,1.49h-1l.91-1.49Zm-2.32,2h1.47v9.4H184.2Z"/><path class="cls-4" d="M191.53,64.42H190l-.26-1.71H188l-.26,1.71h-1.35l1.5-9.4H190Zm-3.37-3h1.42l-.71-4.76Z"/><path class="cls-4" d="M199.07,64.42h-1.49l-.25-1.71h-1.82l-.25,1.71H193.9l1.51-9.4h2.16Zm-3.37-3h1.42l-.71-4.76Z"/><path class="cls-4" d="M201.74,54.91c1.44,0,2.18.86,2.18,2.36v.3h-1.4v-.39c0-.67-.27-.93-.74-.93s-.74.26-.74.93c0,1.93,2.89,2.3,2.89,5,0,1.5-.75,2.36-2.2,2.36s-2.2-.86-2.2-2.36v-.58h1.39v.68c0,.67.3.91.77.91s.76-.24.76-.91c0-1.94-2.88-2.3-2.88-5C199.57,55.77,200.31,54.91,201.74,54.91Z"/><path class="cls-4" d="M206.25,59h2v1.34h-2v2.75h2.55v1.35h-4V55h4v1.34h-2.55Z"/><path class="cls-4" d="M209.6,57.27a2.24,2.24,0,1,1,4.48,0v4.89a2.77,2.77,0,0,1-.28,1.32c.06.17.17.2.41.2h.14V65h-.2a1.3,1.3,0,0,1-1.28-.64,2.92,2.92,0,0,1-1,.17,2.08,2.08,0,0,1-2.24-2.36Zm1.47,5c0,.67.3.92.77.92s.76-.25.76-.92V57.18c0-.67-.29-.93-.76-.93s-.77.26-.77.93Z"/><path class="cls-4" d="M216.44,55v7.25c0,.67.3.91.77.91s.76-.24.76-.91V55h1.4v7.15c0,1.51-.75,2.37-2.2,2.37A2.07,2.07,0,0,1,215,62.17V55Z"/><path class="cls-4" d="M220.37,55h1.48v9.4h-1.48Z"/><path class="cls-4" d="M227.34,57.18v.34a1.84,1.84,0,0,1-1,1.89,1.9,1.9,0,0,1,1.1,2v.77a2,2,0,0,1-2.24,2.23h-2.32V55h2.22C226.68,55,227.34,55.73,227.34,57.18Zm-2.94-.82v2.49H225c.55,0,.88-.25.88-1v-.52c0-.67-.22-1-.75-1Zm0,3.83v2.88h.85c.49,0,.76-.22.76-.92v-.82c0-.87-.28-1.14-.95-1.14Z"/><path class="cls-4" d="M228.38,55h1.47v8h2.43v1.35h-3.9Z"/><path class="cls-4" d="M234.4,59h2v1.34h-2v2.75H237v1.35h-4V55h4v1.34H234.4Z"/><path class="cls-4" d="M159.34,75.72l-1.87-6.28H159l1.13,4.28,1.13-4.28h1.41l-1.87,6.28v3.12h-1.47Z"/><path class="cls-4" d="M166.67,72v6.81h-1.33v-9.4h1.85l1.52,5.63V69.44H170v9.4H168.5Z"/><path class="cls-4" d="M171,71.7a2.24,2.24,0,1,1,4.48,0v4.88a2.24,2.24,0,1,1-4.48,0Zm1.48,5c0,.67.29.92.76.92s.77-.25.77-.92V71.6c0-.67-.3-.92-.77-.92s-.76.25-.76.92Z"/><path class="cls-4" d="M182.76,75.33v1.25c0,1.51-.75,2.37-2.2,2.37s-2.2-.86-2.2-2.37V71.7c0-1.51.75-2.37,2.2-2.37s2.2.86,2.2,2.37v.91h-1.4v-1c0-.67-.29-.92-.76-.92s-.77.25-.77.92v5.08c0,.67.3.91.77.91s.76-.24.76-.91V75.33Z"/><path class="cls-4" d="M183.54,71.7a2.24,2.24,0,1,1,4.48,0v4.88a2.24,2.24,0,1,1-4.48,0Zm1.48,5c0,.67.29.92.76.92s.77-.25.77-.92V71.6c0-.67-.3-.92-.77-.92s-.76.25-.76.92Z"/><path class="cls-4" d="M190.29,72v6.81H189v-9.4h1.86l1.51,5.63V69.44h1.32v9.4h-1.52Z"/><path class="cls-4" d="M194.28,69.44h4.56v1.34H197.3v8.06h-1.48V70.78h-1.54Z"/><path class="cls-4" d="M203.76,78.84h-1.49L202,77.13H200.2l-.26,1.71h-1.35l1.5-9.4h2.16Zm-3.37-3h1.42l-.71-4.75Z"/><path class="cls-4" d="M207.57,76.11l1-6.67h2.06v9.4h-1.4V72.1l-1,6.74h-1.39l-1.1-6.65v6.65h-1.29v-9.4h2Z"/><path class="cls-4" d="M211.7,69.44h1.48v9.4H211.7Z"/><path class="cls-4" d="M215.57,72v6.81h-1.33v-9.4h1.85l1.52,5.63V69.44h1.31v9.4h-1.51Z"/><path class="cls-4" d="M224.76,78.84h-1.49L223,77.13h-1.81L221,78.84H219.6l1.5-9.4h2.16Zm-3.37-3h1.43l-.71-4.75Z"/><path class="cls-4" d="M226.76,72v6.81h-1.33v-9.4h1.86l1.51,5.63V69.44h1.32v9.4H228.6Z"/><path class="cls-4" d="M230.75,69.44h4.57v1.34h-1.55v8.06h-1.48V70.78h-1.54Z"/><path class="cls-4" d="M237.44,73.4h2v1.34h-2V77.5H240v1.34h-4v-9.4h4v1.34h-2.55Z"/></g></g></svg>