<svg xmlns="http://www.w3.org/2000/svg" viewBox="0 0 378.08 212.67"><defs><style>.cls-1{fill:#00b33e;}.cls-2{fill:#fff;}</style></defs><g id="Capa_2" data-name="Capa 2"><g id="Capa_1-2" data-name="Capa 1"><rect class="cls-1" width="378.08" height="212.67"/><path class="cls-2" d="M184.83,110.7l.46.16a8.18,8.18,0,0,1,6.13,7.14,8.36,8.36,0,0,1-6.75,9.34,10,10,0,0,1-1.73.16q-3.19,0-6.39,0c-1.83,0-3.65,0-5.47-.09a6,6,0,0,1-4.09-9.77c.07-.09.14-.17.2-.26s0,0,0,0a17.11,17.11,0,0,1-1.6-1.58,5.56,5.56,0,0,1,3.53-8.89,5.17,5.17,0,0,1,1-.07c.25,0,.36-.08.39-.34a7.57,7.57,0,0,1,15-.35,7.39,7.39,0,0,1-.45,4C185,110.35,184.91,110.5,184.83,110.7Z"/><path class="cls-2" d="M188.86,147.66h25.59c.66,0,.66,0,.66.65v2.39c0,.47-.07.53-.54.54H163.31c-.7,0-.7,0-.7-.73v-2.3c0-.55,0-.55.54-.55h25.71Z"/><path class="cls-2" d="M188.87,141.34h25.59c.65,0,.65,0,.65.66s0,1.59,0,2.38c0,.35-.1.52-.46.49H163.39c-.78,0-.78,0-.78-.76s0-1.52,0-2.27c0-.39.13-.51.51-.51h25.76Z"/><path class="cls-2" d="M150.17,63.67a4.82,4.82,0,0,1,2.32-1c2.32-.4,4.17.31,5.14,2.6a9.13,9.13,0,0,1,.44,1.34,14.56,14.56,0,0,1,.28,4.7,24.14,24.14,0,0,1-.44,3.07,4.89,4.89,0,0,1-4.63,3.84,10.82,10.82,0,0,1-3-.14,4.41,4.41,0,0,1-3.68-3.9c-.15-.83-.18-1.69-.26-2.53,0-.26.07-.37.34-.36h3.48c.41,0,.37.28.4.52a18,18,0,0,0,.19,1.8A1.62,1.62,0,0,0,152.86,75a1.26,1.26,0,0,0,1-.8,5.71,5.71,0,0,0,.4-1.55,21.49,21.49,0,0,0-.06-4.81,6.11,6.11,0,0,0-.17-.74,1.61,1.61,0,0,0-1.58-1.37,1.81,1.81,0,0,0-1.79,1,1.88,1.88,0,0,0-.24.59c-.07.38-.26.49-.64.48-.92,0-1.84,0-2.75,0-.32,0-.46-.07-.45-.43.06-2.71.11-5.42.17-8.13,0-1.36.1-2.72.13-4.08,0-.33.11-.44.45-.44H157c.32,0,.42.1.41.42,0,.94,0,1.89,0,2.83,0,.35-.11.44-.44.44h-6c-.58,0-.56,0-.59.59-.07,1.26-.15,2.53-.22,3.79C150.16,63.05,150.17,63.3,150.17,63.67Z"/><path class="cls-2" d="M139.32,59.25,136,60.44a3.66,3.66,0,0,1,0-.37c0-.81,0-1.62,0-2.43a.45.45,0,0,1,.31-.49,15.52,15.52,0,0,0,3.89-2.28.64.64,0,0,1,.41-.12c.9,0,1.81,0,2.71,0,.31,0,.39.11.39.4V77.45c0,.33-.11.41-.42.41-1.08,0-2.16,0-3.24,0-.66,0-.66,0-.66-.65V59.88C139.35,59.69,139.33,59.51,139.32,59.25Z"/><path class="cls-2" d="M196.23,121.4a.64.64,0,0,1,.14-.32,5.82,5.82,0,0,1,4.18-1.75,6.9,6.9,0,0,1,3.95,1.38.68.68,0,0,0,1,0,6.85,6.85,0,0,1,3.91-1.38,5.64,5.64,0,0,1,3.7,1.3,5.57,5.57,0,0,1,.58.51.56.56,0,0,1,0,.77c-.2.26-.44.16-.68,0a4.41,4.41,0,0,0-2.78-.47,8.13,8.13,0,0,0-4.79,2.23c-.36.33-.59.31-1,0a8.08,8.08,0,0,0-4.08-2.09,4.9,4.9,0,0,0-3.56.43C196.46,122.21,196.22,122,196.23,121.4Z"/><path class="cls-2" d="M180.36,133.8c0,1.2,0,2.4,0,3.6,0,.35-.12.48-.47.48-.87,0-1.73,0-2.6,0-.32,0-.45-.1-.45-.44,0-2.44,0-4.89,0-7.33,0-.34.13-.44.46-.44.86,0,1.72,0,2.59,0,.35,0,.47.14.47.48C180.35,131.37,180.36,132.58,180.36,133.8Z"/><path class="cls-2" d="M194.59,106.23a6,6,0,0,1,3.06.94.56.56,0,0,0,.77-.06,5.59,5.59,0,0,1,3.69-1.32,5,5,0,0,1,3,1.24.53.53,0,0,1,.14.75c-.19.29-.43.19-.7.06a4,4,0,0,0-2.54-.14,6.47,6.47,0,0,0-3.3,1.84c-.51.5-.61.51-1.15.08a6.54,6.54,0,0,0-3.79-1.45,3.84,3.84,0,0,0-2.33.52.58.58,0,0,1-.56,0,.52.52,0,0,1,0-.76,4.9,4.9,0,0,1,2.6-1.54C193.89,106.29,194.24,106.27,194.59,106.23Z"/><path class="cls-2" d="M203.7,99.78a3.89,3.89,0,0,1,3,1.42,1,1,0,0,0,1.23.35,3.87,3.87,0,0,1,4.49,1.71,1,1,0,0,1,.16.56.39.39,0,0,1-.67.29c-1.38-1.21-2.9-1.08-4.48-.54l-.3.12c-.52.24-.66.2-.95-.28a4.66,4.66,0,0,0-2.77-2.17,3.86,3.86,0,0,0-1.27-.1c-.27,0-.5,0-.6-.23a.48.48,0,0,1,.29-.66c.6-.22,1.22-.39,1.83-.58Z"/><path class="cls-2" d="M202.11,105.79a5,5,0,0,1,3,1.24.53.53,0,0,1,.14.75c-.19.29-.43.19-.7.06a4,4,0,0,0-2.54-.14,6.47,6.47,0,0,0-3.3,1.84c-.51.5-.61.51-1.15.08a6.54,6.54,0,0,0-3.79-1.45,3.84,3.84,0,0,0-2.33.52.58.58,0,0,1-.56,0,.52.52,0,0,1,0-.76,4.9,4.9,0,0,1,2.6-1.54c.34-.07.69-.09,1-.13a6,6,0,0,1,3.06.94.56.56,0,0,0,.77-.06A5.59,5.59,0,0,1,202.11,105.79Zm-.27-5.54c.6-.22,1.22-.39,1.83-.58l0,.11a3.89,3.89,0,0,1,3,1.42,1,1,0,0,0,1.23.35,3.87,3.87,0,0,1,4.49,1.71,1,1,0,0,1,.16.56.39.39,0,0,1-.67.29c-1.38-1.21-2.9-1.08-4.48-.54l-.3.12c-.52.24-.66.2-.95-.28a4.66,4.66,0,0,0-2.77-2.17,3.86,3.86,0,0,0-1.27-.1c-.27,0-.5,0-.6-.23A.48.48,0,0,1,201.84,100.25Zm-5.47,20.83a5.82,5.82,0,0,1,4.18-1.75,6.9,6.9,0,0,1,3.95,1.38.68.68,0,0,0,1,0,6.85,6.85,0,0,1,3.91-1.38,5.64,5.64,0,0,1,3.7,1.3,5.57,5.57,0,0,1,.58.51.56.56,0,0,1,0,.77c-.2.26-.44.16-.68,0a4.41,4.41,0,0,0-2.78-.47,8.13,8.13,0,0,0-4.79,2.23c-.36.33-.59.31-1,0a8.08,8.08,0,0,0-4.08-2.09,4.9,4.9,0,0,0-3.56.43c-.37.22-.61,0-.6-.59A.64.64,0,0,1,196.37,121.08Zm-27.25-14.17a5.17,5.17,0,0,1,1-.07c.25,0,.36-.08.39-.34a7.57,7.57,0,0,1,15-.35,7.39,7.39,0,0,1-.45,4c-.07.15-.12.3-.2.5l.46.16a8.18,8.18,0,0,1,6.13,7.14,8.36,8.36,0,0,1-6.75,9.34,10,10,0,0,1-1.73.16q-3.19,0-6.39,0c-1.83,0-3.65,0-5.47-.09a6,6,0,0,1-4.09-9.77c.07-.09.14-.17.2-.26s0,0,0,0a17.11,17.11,0,0,1-1.6-1.58A5.56,5.56,0,0,1,169.12,106.91Zm7.73,23.2c0-.34.13-.44.46-.44.86,0,1.72,0,2.59,0,.35,0,.47.14.47.48,0,1.22,0,2.43,0,3.65s0,2.4,0,3.6c0,.35-.12.48-.47.48-.87,0-1.73,0-2.6,0-.32,0-.45-.1-.45-.44C176.86,135,176.86,132.55,176.85,130.11Zm-33.6-52.25c-1.08,0-2.16,0-3.24,0-.66,0-.66,0-.66-.65V59.88c0-.19,0-.37,0-.63L136,60.44a3.66,3.66,0,0,1,0-.37c0-.81,0-1.62,0-2.43a.45.45,0,0,1,.31-.49,15.52,15.52,0,0,0,3.89-2.28.64.64,0,0,1,.41-.12c.9,0,1.81,0,2.71,0,.31,0,.39.11.39.4V77.45C143.67,77.78,143.56,77.86,143.25,77.86Zm15.1-6.58a24.14,24.14,0,0,1-.44,3.07,4.89,4.89,0,0,1-4.63,3.84,10.82,10.82,0,0,1-3-.14,4.41,4.41,0,0,1-3.68-3.9c-.15-.83-.18-1.69-.26-2.53,0-.26.07-.37.34-.36h3.48c.41,0,.37.28.4.52a18,18,0,0,0,.19,1.8A1.62,1.62,0,0,0,152.86,75a1.26,1.26,0,0,0,1-.8,5.71,5.71,0,0,0,.4-1.55,21.49,21.49,0,0,0-.06-4.81,6.11,6.11,0,0,0-.17-.74,1.61,1.61,0,0,0-1.58-1.37,1.81,1.81,0,0,0-1.79,1,1.88,1.88,0,0,0-.24.59c-.07.38-.26.49-.64.48-.92,0-1.84,0-2.75,0-.32,0-.46-.07-.45-.43.06-2.71.11-5.42.17-8.13,0-1.36.1-2.72.13-4.08,0-.33.11-.44.45-.44H157c.32,0,.42.1.41.42,0,.94,0,1.89,0,2.83,0,.35-.11.44-.44.44h-6c-.58,0-.56,0-.59.59-.07,1.26-.15,2.53-.22,3.79,0,.25,0,.5,0,.87a4.82,4.82,0,0,1,2.32-1c2.32-.4,4.17.31,5.14,2.6a9.13,9.13,0,0,1,.44,1.34A14.56,14.56,0,0,1,158.35,71.28Zm56.76,79.42c0,.47-.07.53-.54.54H163.31c-.7,0-.7,0-.7-.73v-2.3c0-.55,0-.55.54-.55h51.3c.66,0,.66,0,.66.65Zm-.46-5.83H163.39c-.78,0-.78,0-.78-.76s0-1.52,0-2.27c0-.39.13-.51.51-.51h51.35c.65,0,.65,0,.65.66s0,1.59,0,2.38C215.12,144.73,215,144.9,214.65,144.87Z"/><path class="cls-2" d="M169,61.94l1.13-7.67h1.36L170,63.67h-2.2l-1.45-9.4h1.49Z"/><path class="cls-2" d="M172.16,54.27h1.48v9.4h-1.48Z"/><path class="cls-2" d="M174.71,54.27h2.34c1.47,0,2.2.82,2.2,2.32v4.75c0,1.51-.73,2.33-2.2,2.33h-2.34Zm1.48,1.34v6.71H177c.47,0,.75-.24.75-.91V56.53c0-.68-.28-.92-.75-.92Z"/><path class="cls-2" d="M185,63.67h-1.5L183.21,62H181.4l-.26,1.71h-1.35l1.5-9.4h2.16Zm-3.37-3H183l-.71-4.76Z"/><path class="cls-2" d="M166.77,68.69h2.33c1.48,0,2.2.82,2.2,2.32v4.76c0,1.5-.72,2.32-2.2,2.32h-2.33ZM168.24,70v6.72h.83c.47,0,.76-.25.76-.92V71c0-.67-.29-.92-.76-.92Z"/><path class="cls-2" d="M173.72,72.65h2V74h-2v2.76h2.55v1.34h-4v-9.4h4V70h-2.55Z"/><path class="cls-2" d="M180.74,72.65h2V74h-2v2.76h2.55v1.34h-4v-9.4h4V70h-2.55Z"/><path class="cls-2" d="M188.49,74.58v1.25a2.07,2.07,0,0,1-2.21,2.37c-1.45,0-2.2-.86-2.2-2.37V71c0-1.51.75-2.37,2.2-2.37A2.07,2.07,0,0,1,188.49,71v.91h-1.4v-1c0-.67-.3-.92-.77-.92s-.76.25-.76.92v5.08c0,.67.29.91.76.91s.77-.24.77-.91V74.58Z"/><path class="cls-2" d="M189.26,71a2.25,2.25,0,1,1,4.49,0v4.88a2.25,2.25,0,1,1-4.49,0Zm1.48,5c0,.67.3.92.77.92s.76-.25.76-.92V70.85c0-.67-.29-.92-.76-.92s-.77.25-.77.92Z"/><path class="cls-2" d="M196.69,68.58c1.43,0,2.17.86,2.17,2.37v.29h-1.39v-.39c0-.67-.27-.92-.74-.92s-.74.25-.74.92c0,1.94,2.89,2.3,2.89,5a2.07,2.07,0,0,1-2.21,2.37c-1.45,0-2.2-.86-2.2-2.37v-.57h1.4v.67c0,.67.29.91.76.91s.77-.24.77-.91c0-1.94-2.89-2.3-2.89-5C194.51,69.44,195.25,68.58,196.69,68.58Z"/><path class="cls-2" d="M199.72,68.69h1.48v9.4h-1.48Z"/><path class="cls-2" d="M204.26,68.58c1.43,0,2.17.86,2.17,2.37v.29H205v-.39c0-.67-.27-.92-.74-.92s-.74.25-.74.92c0,1.94,2.89,2.3,2.89,5a2.07,2.07,0,0,1-2.21,2.37c-1.45,0-2.2-.86-2.2-2.37v-.57h1.4v.67c0,.67.29.91.76.91s.77-.24.77-.91c0-1.94-2.89-2.3-2.89-5C202.08,69.44,202.82,68.58,204.26,68.58Z"/><path class="cls-2" d="M206.86,68.69h4.57V70h-1.55v8.06h-1.47V70h-1.55Z"/><path class="cls-2" d="M213.55,72.65h2V74h-2v2.76h2.55v1.34h-4v-9.4h4V70h-2.55Z"/><path class="cls-2" d="M220.14,75.36l1-6.67h2v9.4h-1.4V71.35l-1,6.74h-1.39l-1.1-6.65v6.65H217v-9.4h2.05Z"/><path class="cls-2" d="M229.05,78.09h-1.49l-.25-1.71h-1.82l-.25,1.71h-1.36l1.51-9.4h2.16Zm-3.37-3h1.43l-.72-4.75Z"/><path class="cls-1" d="M231.72,68.58c1.44,0,2.18.86,2.18,2.37v.29h-1.4v-.39c0-.67-.27-.92-.74-.92s-.73.25-.73.92c0,1.94,2.88,2.3,2.88,5,0,1.51-.75,2.37-2.2,2.37s-2.2-.86-2.2-2.37v-.57h1.39v.67c0,.67.3.91.77.91s.76-.24.76-.91c0-1.94-2.88-2.3-2.88-5C229.55,69.44,230.29,68.58,231.72,68.58Z"/><path class="cls-2" d="M166.34,83.11h4.56v1.35h-1.54v8.05h-1.48V84.46h-1.54Z"/><path class="cls-2" d="M173,87.07h2v1.35h-2v2.75h2.55v1.34h-4v-9.4h4v1.35H173Z"/><path class="cls-2" d="M179.57,92.51a2.92,2.92,0,0,1-.13-1.15V89.88c0-.87-.3-1.2-1-1.2H178v3.83h-1.48v-9.4h2.23c1.53,0,2.19.71,2.19,2.16V86a1.88,1.88,0,0,1-1,1.91c.74.31,1,1,1,2v1.45a2.71,2.71,0,0,0,.17,1.14ZM178,84.46v2.88h.58c.55,0,.88-.24.88-1v-.93c0-.67-.22-1-.75-1Z"/><path class="cls-2" d="M185,92.51a2.84,2.84,0,0,1-.14-1.15V89.88c0-.87-.29-1.2-1-1.2h-.51v3.83h-1.48v-9.4h2.23c1.53,0,2.19.71,2.19,2.16V86a1.88,1.88,0,0,1-1,1.91c.74.31,1,1,1,2v1.45a2.72,2.72,0,0,0,.16,1.14Zm-1.61-8.05v2.88h.57c.56,0,.89-.24.89-1v-.93c0-.67-.23-1-.75-1Z"/><path class="cls-2" d="M188.75,87.07h2v1.35h-2v2.75h2.55v1.34h-4v-9.4h4v1.35h-2.55Z"/><path class="cls-2" d="M194.2,83c1.44,0,2.18.85,2.18,2.36v.29H195v-.39c0-.67-.27-.92-.74-.92s-.73.25-.73.92c0,1.94,2.88,2.3,2.88,5,0,1.51-.75,2.37-2.2,2.37s-2.2-.86-2.2-2.37v-.57h1.39v.67c0,.67.3.91.77.91s.77-.24.77-.91c0-1.93-2.89-2.3-2.89-5C192,83.86,192.77,83,194.2,83Z"/><path class="cls-2" d="M196.81,83.11h4.56v1.35h-1.54v8.05h-1.48V84.46h-1.54Z"/><path class="cls-2" d="M205.1,92.51a2.92,2.92,0,0,1-.13-1.15V89.88c0-.87-.3-1.2-1-1.2h-.51v3.83H202v-9.4h2.22c1.54,0,2.19.71,2.19,2.16V86a1.89,1.89,0,0,1-1,1.91c.73.31,1,1,1,2v1.45a2.72,2.72,0,0,0,.16,1.14Zm-1.61-8.05v2.88h.58c.55,0,.89-.24.89-1v-.93c0-.67-.23-1-.76-1Z"/><path class="cls-2" d="M208.89,87.07h2v1.35h-2v2.75h2.55v1.34h-4v-9.4h4v1.35h-2.55Z"/><path class="cls-2" d="M214.34,83c1.44,0,2.17.85,2.17,2.36v.29h-1.39v-.39c0-.67-.27-.92-.74-.92s-.74.25-.74.92c0,1.94,2.89,2.3,2.89,5,0,1.51-.75,2.37-2.2,2.37a2.07,2.07,0,0,1-2.21-2.37v-.57h1.4v.67c0,.67.3.91.77.91s.76-.24.76-.91c0-1.93-2.89-2.3-2.89-5C212.16,83.86,212.9,83,214.34,83Z"/></g></g></svg>