<svg xmlns="http://www.w3.org/2000/svg" viewBox="0 0 123.19 123.19"><defs><style>.cls-1{fill:#f0e1e5;}.cls-2{fill:#aa526a;}.cls-3{fill:#a61236;}.cls-4{fill:#fefefe;}.cls-5{fill:#8e1838;}.cls-6{fill:#fff;}</style></defs><g id="Capa_2" data-name="Capa 2"><g id="Capa_1-2" data-name="Capa 1"><path class="cls-1" d="M123.1,0s.09,0,.09,0,0,.22,0,.32q0,61.22,0,122.42c0,.33-.06.39-.39.39H.37c-.12,0-.27.09-.36-.08L.14,123a2.41,2.41,0,0,1,.8-.07H122.05c1,0,.89.09.89-.89q0-60.48,0-121A2.59,2.59,0,0,1,123,.15Z"/><path class="cls-2" d="M123.1,0V.09a.69.69,0,0,1-.49.16H1.19c-1,0-.94-.11-.94.93V122.1c0,.33.09.68-.15,1H0Q0,61.74,0,.39C0,.07.07,0,.39,0Z"/><path class="cls-3" d="M.1,123.08c0-.18,0-.35,0-.53V.73a2.62,2.62,0,0,0,0-.28C.05.16.18.05.46.09A1.92,1.92,0,0,0,.7.09H123.1c0,.17,0,.33,0,.49v122c0,.53,0,.53-.54.53H.1Z"/><path class="cls-4" d="M82.21,88.33v19.43c0,.77-.15.92-.92.92H70.93c-.69,0-.86-.17-.86-.85q0-13.93,0-27.86a2.32,2.32,0,0,1,.78-1.82c2-1.86,4-3.74,5.93-5.62l4.34-4.13.12-.11c.2-.17.39-.43.69-.3s.29.46.29.74Z"/><path class="cls-4" d="M67.09,95.68v12.1c0,.75-.16.9-.9.9H55.79c-.68,0-.86-.18-.86-.86V84c0-.29-.06-.65.26-.8s.55.14.75.34l4.45,4.53c.38.38.4.38.77,0,1.62-1.63,3.23-3.26,4.85-4.88.22-.23.43-.54.81-.38s.26.52.26.82Q67.1,89.68,67.09,95.68Z"/><path class="cls-4" d="M85.72,55.73c.32,0,.39.22.33.51-.33,1.49-.65,3-1,4.47-.26,1.21-.51,2.42-.77,3.63,0,.16,0,.33-.24.38s-.3,0-.42-.17C83.1,64,82.54,63.44,82,62.88c-.14-.14-.22-.15-.36,0q-2.37,2.4-4.77,4.79L71.4,73.12l-5.34,5.36c-1.65,1.65-3.31,3.3-5,5-.26.27-.44.2-.67,0-1.77-1.79-3.54-3.56-5.31-5.34l-2.8-2.81c-.14-.15-.23-.15-.38,0q-4,4-8,8c-1.69,1.69-3.39,3.37-5.07,5.06-.26.26-.43.27-.69,0-.65-.67-1.31-1.33-2-2-.24-.24-.26-.42,0-.67L42.3,79.6l5.86-5.88L51.86,70c.21-.21.37-.2.58,0l5.29,5.29c1,.94,1.9,1.88,2.83,2.84.21.22.32.16.5,0q4.23-4.25,8.47-8.47,4.66-4.67,9.33-9.32c.27-.26.24-.39,0-.62-.53-.51-1.06-1-1.57-1.57-.27-.28-.2-.51.15-.59l8-1.79Z"/><path class="cls-4" d="M51.71,94.85v12.92c0,.77-.15.91-.92.91H40.47c-.76,0-.91-.15-.91-.89q0-7.35,0-14.69a2.3,2.3,0,0,1,.78-1.82c2.8-2.63,5.58-5.29,8.37-7.93l2-1.94c.2-.19.41-.44.73-.3s.27.44.27.71Z"/><path class="cls-4" d="M19.41,21.75a5.14,5.14,0,0,1,2.53,3.77,10.5,10.5,0,0,1-.14,4.73A5.16,5.16,0,0,1,17,34.41a9.57,9.57,0,0,1-3-.13A4.94,4.94,0,0,1,10.1,31a10,10,0,0,1-.31-5.89,4.87,4.87,0,0,1,2.43-3.33l-.66-.66a5.92,5.92,0,0,1-1.65-3.77,8.69,8.69,0,0,1,.25-3.21,5.12,5.12,0,0,1,4.91-3.81,7.45,7.45,0,0,1,3,.3,4.59,4.59,0,0,1,3.18,3.07,8.29,8.29,0,0,1-.22,6A5.69,5.69,0,0,1,19.41,21.75Z"/><path class="cls-5" d="M13.91,27.44A8,8,0,0,1,14.22,25a1.58,1.58,0,0,1,1.87-1.23A1.49,1.49,0,0,1,17.42,25,8.48,8.48,0,0,1,17.35,30a1.41,1.41,0,0,1-1.59,1.09A1.49,1.49,0,0,1,14.25,30,7.36,7.36,0,0,1,13.91,27.44Z"/><path class="cls-5" d="M14.1,16.75a4.7,4.7,0,0,1,.38-2.22,1.44,1.44,0,0,1,1.39-.86,1.36,1.36,0,0,1,1.29.94,5.94,5.94,0,0,1,.23,3.18,4.25,4.25,0,0,1-.36,1.4,1.29,1.29,0,0,1-1.21.86,1.32,1.32,0,0,1-1.23-.84A5.68,5.68,0,0,1,14.1,16.75Z"/><path class="cls-6" d="M30.56,10.93h4.57v1.34H33.58v8.06H32.11V12.27H30.56Z"/><path class="cls-6" d="M38.86,20.33a2.9,2.9,0,0,1-.14-1.16V17.69c0-.87-.29-1.19-1-1.19h-.51v3.83H35.77v-9.4H38c1.53,0,2.19.71,2.19,2.16v.74a1.86,1.86,0,0,1-1,1.9c.74.31,1,1,1,2v1.45a2.77,2.77,0,0,0,.16,1.15Zm-1.61-8.06v2.89h.57c.55,0,.89-.24.89-1v-.92c0-.67-.23-1-.75-1Z"/><path class="cls-6" d="M46,20.33H44.46l-.26-1.71H42.39l-.26,1.71H40.78l1.5-9.4h2.16Zm-3.37-3H44l-.71-4.76Z"/><path class="cls-6" d="M51.05,13.09v.34a1.85,1.85,0,0,1-1,1.89,1.89,1.89,0,0,1,1.1,2v.77A2,2,0,0,1,49,20.33H46.63v-9.4h2.23C50.39,10.93,51.05,11.64,51.05,13.09Zm-2.94-.82v2.48h.57c.55,0,.89-.24.89-1v-.52c0-.67-.23-1-.75-1Zm0,3.83V19H49c.5,0,.77-.23.77-.92v-.82c0-.87-.28-1.14-1-1.14Z"/><path class="cls-6" d="M56.86,20.33H55.37l-.26-1.71H53.3l-.25,1.71H51.69l1.5-9.4h2.17Zm-3.37-3h1.42l-.71-4.76Z"/><path class="cls-6" d="M57.14,19a4.35,4.35,0,0,0,.51,0c.47,0,.85-.18.85-.9V10.93H60V18c0,1.88-1,2.36-2.12,2.36-.27,0-.47,0-.71,0Z"/><path class="cls-6" d="M60.86,13.18a2.24,2.24,0,1,1,4.48,0v4.89a2.24,2.24,0,1,1-4.48,0Zm1.48,5c0,.68.29.93.76.93s.77-.25.77-.93V13.09c0-.67-.3-.93-.77-.93s-.76.26-.76.93Z"/><path class="cls-6" d="M68.38,10.93h2.33c1.48,0,2.2.82,2.2,2.32V18c0,1.51-.72,2.33-2.2,2.33H68.38Zm1.47,1.34V19h.84c.47,0,.75-.24.75-.91V13.18c0-.67-.28-.91-.75-.91Z"/><path class="cls-6" d="M75.33,14.89h2v1.34h-2V19h2.55v1.35h-4v-9.4h4v1.34H75.33Z"/><path class="cls-6" d="M83.08,16.82v1.25a2.21,2.21,0,1,1-4.41,0V13.18a2.21,2.21,0,1,1,4.41,0v.92h-1.4v-1c0-.67-.29-.93-.76-.93s-.77.26-.77.93v5.07c0,.68.3.92.77.92s.76-.24.76-.92V16.82Z"/><path class="cls-6" d="M85.45,14.89h2v1.34h-2V19H88v1.35H84v-9.4h4v1.34H85.45Z"/><path class="cls-6" d="M90.23,13.52v6.81H88.9v-9.4h1.85l1.52,5.62V10.93h1.32v9.4H92.07Z"/><path class="cls-6" d="M94.22,10.93h4.56v1.34H97.24v8.06H95.76V12.27H94.22Z"/><path class="cls-6" d="M100.9,14.89h2v1.34h-2V19h2.55v1.35h-4v-9.4h4v1.34H100.9Z"/><path class="cls-6" d="M32.37,31.63l-1.86-6.28h1.54l1.13,4.28,1.13-4.28h1.41l-1.87,6.28v3.12H32.37Z"/><path class="cls-6" d="M42.67,31.24v1.25c0,1.51-.75,2.36-2.2,2.36s-2.2-.85-2.2-2.36V27.61c0-1.51.75-2.37,2.2-2.37s2.2.86,2.2,2.37v.91h-1.4v-1c0-.67-.29-.93-.76-.93s-.77.26-.77.93v5.08c0,.67.3.91.77.91s.76-.24.76-.91V31.24Z"/><path class="cls-6" d="M46.66,34.75a2.87,2.87,0,0,1-.14-1.16V32.12c0-.88-.29-1.2-1-1.2h-.51v3.83H43.57v-9.4H45.8c1.53,0,2.19.71,2.19,2.16v.74a1.88,1.88,0,0,1-1,1.91c.74.3,1,1,1,2v1.45a2.74,2.74,0,0,0,.16,1.14Zm-1.61-8.06v2.89h.57c.55,0,.89-.24.89-1v-.93c0-.67-.23-1-.75-1Z"/><path class="cls-6" d="M50.44,29.31h2v1.34h-2V33.4H53v1.35H49v-9.4h4v1.34H50.44Z"/><path class="cls-6" d="M58.19,31.24v1.25c0,1.51-.75,2.36-2.2,2.36s-2.2-.85-2.2-2.36V27.61c0-1.51.75-2.37,2.2-2.37s2.2.86,2.2,2.37v.91h-1.4v-1c0-.67-.29-.93-.76-.93s-.77.26-.77.93v5.08c0,.67.3.91.77.91s.76-.24.76-.91V31.24Z"/><path class="cls-6" d="M59.09,25.35h1.47v9.4H59.09Z"/><path class="cls-6" d="M64.77,32l1-6.67h2.06v9.4h-1.4V28l-1,6.74H64l-1.1-6.65v6.65H61.62v-9.4h2.06Z"/><path class="cls-6" d="M68.9,25.35h1.48v9.4H68.9Z"/><path class="cls-6" d="M72.93,29.31h2v1.34h-2V33.4h2.55v1.35h-4v-9.4h4v1.34H72.93Z"/><path class="cls-6" d="M77.71,27.94v6.81H76.38v-9.4h1.85L79.75,31V25.35h1.31v9.4H79.55Z"/><path class="cls-6" d="M81.69,25.35h4.57v1.34H84.71v8.06H83.24V26.69H81.69Z"/><path class="cls-6" d="M86.78,27.61a2.24,2.24,0,1,1,4.48,0v4.88a2.24,2.24,0,1,1-4.48,0Zm1.48,5c0,.67.29.92.76.92s.77-.25.77-.92V27.51c0-.67-.3-.93-.77-.93s-.76.26-.76.93Z"/><path class="cls-6" d="M32.47,43.73h2v1.34h-2v2.76H35v1.34H31v-9.4h4v1.34H32.47Z"/><path class="cls-6" d="M40.21,45.66v1.25c0,1.51-.75,2.37-2.2,2.37s-2.2-.86-2.2-2.37V42c0-1.51.75-2.37,2.2-2.37s2.2.86,2.2,2.37v.91H38.82v-1c0-.67-.3-.92-.77-.92s-.76.25-.76.92V47c0,.67.29.91.76.91s.77-.24.77-.91V45.66Z"/><path class="cls-6" d="M41,42a2.25,2.25,0,1,1,4.49,0v4.88a2.25,2.25,0,1,1-4.49,0Zm1.48,5c0,.67.29.92.76.92S44,47.68,44,47V41.93c0-.67-.3-.92-.77-.92s-.76.25-.76.92Z"/><path class="cls-6" d="M47.74,42.36v6.81H46.42v-9.4h1.85l1.52,5.63V39.77H51.1v9.4H49.58Z"/><path class="cls-6" d="M52,42a2.24,2.24,0,1,1,4.48,0v4.88a2.24,2.24,0,1,1-4.48,0Zm3.83-4.25L54.5,39.27h-1l.92-1.49ZM53.52,47c0,.67.29.92.76.92s.77-.25.77-.92V41.93c0-.67-.3-.92-.77-.92s-.76.25-.76.92Z"/><path class="cls-6" d="M60.6,46.44l1-6.67h2.06v9.4h-1.4V42.43l-1,6.74h-1.4l-1.1-6.65v6.65H57.46v-9.4h2.06Z"/><path class="cls-6" d="M64.74,39.77h1.48v9.4H64.74Z"/><path class="cls-6" d="M71.57,45.66v1.25c0,1.51-.75,2.37-2.2,2.37s-2.2-.86-2.2-2.37V42c0-1.51.75-2.37,2.2-2.37s2.2.86,2.2,2.37v.91H70.18v-1c0-.67-.3-.92-.77-.92s-.76.25-.76.92V47c0,.67.29.91.76.91s.77-.24.77-.91V45.66Z"/><path class="cls-6" d="M72.35,42a2.24,2.24,0,1,1,4.48,0v4.88a2.24,2.24,0,1,1-4.48,0Zm1.48,5c0,.67.29.92.76.92s.77-.25.77-.92V41.93c0-.67-.3-.92-.77-.92s-.76.25-.76.92Z"/></g></g></svg>