<svg xmlns="http://www.w3.org/2000/svg" viewBox="0 0 124.49 124.49"><defs><style>.cls-1{fill:#fdc84e;}.cls-2{fill:#feecc3;}.cls-3{fill:#fdda88;}.cls-4{fill:#feb800;}.cls-5{fill:#fefefe;}.cls-6{fill:#fcb613;}.cls-7{fill:#fff;}</style></defs><g id="Capa_2" data-name="Capa 2"><g id="Capa_1-2" data-name="Capa 1"><path class="cls-1" d="M.1,0h124c.33,0,.39.07.39.39q0,62,0,124a.17.17,0,0,1-.15,0,.68.68,0,0,1-.11-.42c0-.27,0-.54,0-.81V1.39c0-1.2.07-1.12-1.12-1.12H1.2A2,2,0,0,1,.14.16.12.12,0,0,1,.1,0Z"/><path class="cls-2" d="M.1,0V.1A.55.55,0,0,1,.28.54V123.36a2.43,2.43,0,0,1-.08,1,1.13,1.13,0,0,1-.1.13s-.08,0-.08,0v-.33Q0,62.25,0,.37C0,.25-.07.1.1,0Z"/><path class="cls-3" d="M.1,124.49v-.1a.54.54,0,0,1,.4-.16H123.35c.35,0,.73-.12,1,.16l.09,0s0,.08,0,.08H.1Z"/><path class="cls-4" d="M124.39,124.39H.11c0-.17,0-.35,0-.52V.62C.1.45.11.27.11.1h123.6a2.62,2.62,0,0,0,.28,0c.32,0,.45.09.41.41,0,.1,0,.21,0,.32v123C124.4,124,124.39,124.19,124.39,124.39Z"/><path class="cls-5" d="M62.32,68.05A15.66,15.66,0,1,1,46.66,83.71,15.68,15.68,0,0,1,62.32,68.05Z"/><path class="cls-5" d="M15.57,10.69h5.06c.32,0,.4.1.4.41,0,.78,0,1.56,0,2.35a8.66,8.66,0,0,1-.35,1.74L19.05,21.9c-1,4.1-2,8.19-3,12.29-.06.23-.14.31-.38.31H11.9c-.29,0-.3-.09-.24-.33q.84-3.37,1.66-6.75,1.48-6.08,3-12.14a6.73,6.73,0,0,1,.21-.77c.09-.29,0-.35-.28-.35-1.88,0-3.76,0-5.63,0-.4,0-.5-.1-.49-.49,0-.85,0-1.71,0-2.55,0-.39.12-.47.48-.46C12.25,10.7,13.91,10.69,15.57,10.69Z"/><path class="cls-5" d="M76.55,106a1.36,1.36,0,0,1-.88,1.32,1.27,1.27,0,0,1-1.53-.59q-1.67-2.86-3.31-5.75a1.33,1.33,0,0,1,.43-1.81,1.31,1.31,0,0,1,1.81.52c1.13,1.95,2.24,3.9,3.36,5.85A.86.86,0,0,1,76.55,106Z"/><path class="cls-5" d="M85,84.88c-1.11,0-2.21,0-3.32,0a1.32,1.32,0,0,1-1.35-1.31,1.3,1.3,0,0,1,1.35-1.27h6.59a1.31,1.31,0,0,1,1.35,1.26,1.33,1.33,0,0,1-1.35,1.32C87.13,84.89,86,84.88,85,84.88Z"/><path class="cls-5" d="M39.73,84.88c-1.11,0-2.21,0-3.32,0a1.31,1.31,0,0,1-1.33-1.29A1.29,1.29,0,0,1,36.4,82.3h6.67a1.26,1.26,0,0,1,1.28,1.28A1.29,1.29,0,0,1,43,84.88C41.94,84.89,40.83,84.88,39.73,84.88Z"/><path class="cls-5" d="M49.5,107.4a1.3,1.3,0,0,1-1.22-1.86c.45-.86.95-1.69,1.43-2.53.64-1.12,1.28-2.25,1.94-3.36a1.31,1.31,0,0,1,1.79-.46,1.33,1.33,0,0,1,.43,1.75c-1.1,1.94-2.22,3.88-3.33,5.82A1.2,1.2,0,0,1,49.5,107.4Z"/><path class="cls-5" d="M52.72,68.18a1.3,1.3,0,0,1-1.11-.63c-1.1-1.93-2.22-3.85-3.32-5.78A1.31,1.31,0,0,1,48.77,60a1.28,1.28,0,0,1,1.77.55l3.3,5.74a1.28,1.28,0,0,1-.06,1.38A1.22,1.22,0,0,1,52.72,68.18Z"/><path class="cls-5" d="M38.54,96.43a1.24,1.24,0,0,1,.66-1l5.71-3.28a1.3,1.3,0,1,1,1.27,2.25q-2.86,1.67-5.75,3.3A1.3,1.3,0,0,1,38.54,96.43Z"/><path class="cls-5" d="M63.61,61c0,1.11,0,2.21,0,3.32a1.28,1.28,0,0,1-1.27,1.34,1.26,1.26,0,0,1-1.3-1.3q0-3.33,0-6.64a1.28,1.28,0,0,1,1.29-1.33,1.3,1.3,0,0,1,1.28,1.37C63.62,58.79,63.61,59.87,63.61,61Z"/><path class="cls-5" d="M39.85,69.41a1.22,1.22,0,0,1,.69.22l5.71,3.28a1.3,1.3,0,0,1,.49,1.75,1.32,1.32,0,0,1-1.73.5c-2-1.12-3.93-2.24-5.89-3.38a1.25,1.25,0,0,1-.56-1.47A1.33,1.33,0,0,1,39.85,69.41Z"/><path class="cls-5" d="M63.61,106.23c0,1.08,0,2.16,0,3.24a1.28,1.28,0,0,1-1.25,1.35A1.25,1.25,0,0,1,61,109.5q0-3.3,0-6.6a1.26,1.26,0,0,1,1.31-1.34,1.28,1.28,0,0,1,1.26,1.35C63.62,104,63.61,105.12,63.61,106.23Z"/><path class="cls-5" d="M71.87,68.14a1.27,1.27,0,0,1-1.12-1.87c1.1-2,2.23-3.93,3.37-5.89a1.26,1.26,0,0,1,1.69-.46,1.27,1.27,0,0,1,.54,1.73c-1.1,2-2.22,3.91-3.34,5.86A1.2,1.2,0,0,1,71.87,68.14Z"/><path class="cls-5" d="M86.12,96.5a1.26,1.26,0,0,1-1.87,1.11q-2.91-1.64-5.79-3.3a1.29,1.29,0,1,1,1.28-2.24l5.75,3.29A1.18,1.18,0,0,1,86.12,96.5Z"/><path class="cls-5" d="M86.1,70.63a1.22,1.22,0,0,1-.64,1.13c-1.94,1.12-3.88,2.24-5.82,3.34a1.28,1.28,0,0,1-1.3-2.21c1.36-.8,2.73-1.58,4.09-2.36.59-.34,1.16-.69,1.76-1A1.29,1.29,0,0,1,86.1,70.63Z"/><path class="cls-6" d="M64.73,75.85A6.5,6.5,0,0,1,67.06,77a8,8,0,0,1,3.4,6.78,8.14,8.14,0,1,1-11.89-7.38,8.53,8.53,0,0,1,1.07-.48c.16-.06.25,0,.25.17,0,.86,0,1.73,0,2.59,0,.22-.15.26-.29.35a5.33,5.33,0,1,0,7.56,2.35,4.75,4.75,0,0,0-2.07-2.31.64.64,0,0,1-.37-.67C64.74,77.56,64.73,76.72,64.73,75.85Z"/><path class="cls-6" d="M63.47,76.92v2.55a1.15,1.15,0,0,1-1.16,1.23,1.17,1.17,0,0,1-1.14-1.25q0-2.51,0-5a1.16,1.16,0,1,1,2.3,0Z"/><path class="cls-7" d="M32.63,14.89h2v1.34h-2V19h2.55v1.35h-4v-9.4h4v1.34H32.63Z"/><path class="cls-7" d="M37.41,13.52v6.81H36.08v-9.4h1.86l1.51,5.62V10.93h1.32v9.4H39.25Z"/><path class="cls-7" d="M43.3,14.89h2v1.34h-2V19h2.56v1.35h-4v-9.4h4v1.34H43.3Z"/><path class="cls-7" d="M49.86,20.33a2.9,2.9,0,0,1-.14-1.16V17.69c0-.87-.29-1.19-1-1.19h-.52v3.83H46.77v-9.4H49c1.53,0,2.19.71,2.19,2.16v.74a1.86,1.86,0,0,1-1,1.9c.74.31,1,1,1,2v1.45a2.77,2.77,0,0,0,.16,1.15Zm-1.62-8.06v2.89h.58c.55,0,.89-.24.89-1v-.92c0-.67-.23-1-.75-1Z"/><path class="cls-7" d="M54.38,15.09h2.07v3c0,1.5-.75,2.36-2.2,2.36A2.06,2.06,0,0,1,52,18.07V13.18a2.06,2.06,0,0,1,2.21-2.36c1.45,0,2.2.86,2.2,2.36v.92h-1.4v-1c0-.67-.29-.93-.76-.93s-.77.26-.77.93v5.07c0,.68.3.92.77.92s.76-.24.76-.92V16.43h-.67Z"/><path class="cls-7" d="M59.72,8.94l-1.37,1.49h-1l.91-1.49Zm-2.32,2h1.48v9.4H57.4Z"/><path class="cls-7" d="M64.73,20.33H63.24L63,18.62H61.17l-.25,1.71H59.56l1.5-9.4h2.17Zm-3.37-3h1.42l-.71-4.76Z"/><path class="cls-7" d="M72.27,20.33H70.78l-.25-1.71H68.72l-.26,1.71H67.11l1.5-9.4h2.16Zm-3.37-3h1.43l-.71-4.76Z"/><path class="cls-7" d="M75,10.82c1.43,0,2.17.86,2.17,2.36v.3h-1.4v-.39c0-.67-.26-.93-.73-.93s-.74.26-.74.93c0,1.93,2.88,2.3,2.88,5,0,1.5-.75,2.36-2.2,2.36s-2.2-.86-2.2-2.36v-.58h1.4v.67c0,.68.29.92.76.92s.77-.24.77-.92c0-1.93-2.89-2.29-2.89-5C72.77,11.68,73.51,10.82,75,10.82Z"/><path class="cls-7" d="M79.46,14.89h2v1.34h-2V19H82v1.35H78v-9.4h4v1.34H79.46Z"/><path class="cls-7" d="M82.8,13.18a2.24,2.24,0,1,1,4.48,0v4.89A2.77,2.77,0,0,1,87,19.39c.07.17.17.2.42.2h.13V20.9h-.2a1.31,1.31,0,0,1-1.28-.64,2.92,2.92,0,0,1-1,.17,2.08,2.08,0,0,1-2.24-2.36Zm1.47,5c0,.68.3.93.77.93s.77-.25.77-.93V13.09c0-.67-.3-.93-.77-.93s-.77.26-.77.93Z"/><path class="cls-7" d="M89.64,10.93v7.25c0,.67.3.91.77.91s.76-.24.76-.91V10.93h1.4v7.15c0,1.51-.75,2.37-2.2,2.37s-2.2-.86-2.2-2.37V10.93Z"/><path class="cls-7" d="M93.58,10.93h1.47v9.4H93.58Z"/><path class="cls-7" d="M100.54,13.09v.34a1.84,1.84,0,0,1-1,1.89,1.9,1.9,0,0,1,1.1,2v.77a2,2,0,0,1-2.24,2.23H96.13v-9.4h2.23C99.89,10.93,100.54,11.64,100.54,13.09Zm-2.94-.82v2.48h.58c.55,0,.89-.24.89-1v-.52c0-.67-.23-1-.75-1Zm0,3.83V19h.85c.5,0,.77-.23.77-.92v-.82c0-.87-.29-1.14-1-1.14Z"/><path class="cls-7" d="M101.58,10.93h1.47V19h2.43v1.35h-3.9Z"/><path class="cls-7" d="M107.61,14.89h2v1.34h-2V19h2.55v1.35h-4v-9.4h4v1.34h-2.55Z"/><path class="cls-7" d="M32.54,31.63l-1.87-6.28h1.55l1.12,4.28,1.13-4.28h1.41L34,31.63v3.12H32.54Z"/><path class="cls-7" d="M39.87,27.94v6.81H38.54v-9.4h1.85L41.91,31V25.35h1.31v9.4H41.71Z"/><path class="cls-7" d="M44.16,27.61a2.25,2.25,0,1,1,4.49,0v4.88a2.25,2.25,0,1,1-4.49,0Zm1.48,5c0,.67.3.92.77.92s.76-.25.76-.92V27.51c0-.67-.29-.93-.76-.93s-.77.26-.77.93Z"/><path class="cls-7" d="M56,31.24v1.25c0,1.51-.75,2.36-2.2,2.36s-2.2-.85-2.2-2.36V27.61c0-1.51.75-2.37,2.2-2.37s2.2.86,2.2,2.37v.91H54.57v-1c0-.67-.3-.93-.77-.93s-.76.26-.76.93v5.08c0,.67.29.91.76.91s.77-.24.77-.91V31.24Z"/><path class="cls-7" d="M56.74,27.61a2.25,2.25,0,1,1,4.49,0v4.88a2.25,2.25,0,1,1-4.49,0Zm1.48,5c0,.67.29.92.76.92s.77-.25.77-.92V27.51c0-.67-.3-.93-.77-.93s-.76.26-.76.93Z"/><path class="cls-7" d="M63.49,27.94v6.81H62.17v-9.4H64L65.54,31V25.35h1.31v9.4H65.33Z"/><path class="cls-7" d="M67.48,25.35h4.57v1.34H70.5v8.06H69V26.69H67.48Z"/><path class="cls-7" d="M77,34.75H75.47L75.21,33H73.4l-.25,1.71H71.79l1.5-9.4h2.17Zm-3.37-3H75L74.3,27Z"/><path class="cls-7" d="M80.77,32l1-6.67h2v9.4H82.44V28l-1,6.74H80l-1.1-6.65v6.65H77.63v-9.4h2.05Z"/><path class="cls-7" d="M84.91,25.35h1.47v9.4H84.91Z"/><path class="cls-7" d="M88.77,27.94v6.81H87.44v-9.4H89.3L90.81,31V25.35h1.32v9.4H90.61Z"/><path class="cls-7" d="M98,34.75H96.48L96.22,33H94.41l-.26,1.71H92.8l1.5-9.4h2.16Zm-3.37-3H96L95.31,27Z"/><path class="cls-7" d="M100,27.94v6.81H98.64v-9.4h1.85L102,31V25.35h1.31v9.4h-1.51Z"/><path class="cls-7" d="M104,25.35h4.57v1.34H107v8.06H105.5V26.69H104Z"/><path class="cls-7" d="M110.64,29.31h2v1.34h-2V33.4h2.55v1.35h-4v-9.4h4v1.34h-2.55Z"/></g></g></svg>