<svg xmlns="http://www.w3.org/2000/svg" viewBox="0 0 378.08 212.67"><defs><style>.cls-1{fill:#00336a;}.cls-2{fill:#fff;}</style></defs><g id="Capa_2" data-name="Capa 2"><g id="Capa_1-2" data-name="Capa 1"><rect class="cls-1" width="378.08" height="212.67"/><path class="cls-2" d="M214.48,125.38a13,13,0,0,1-4.73,9.81.61.61,0,0,0-.22.72A13.12,13.12,0,0,1,198.72,152a12.82,12.82,0,0,1-8.87-1.86.53.53,0,0,0-.68,0,13.12,13.12,0,0,1-20-8.74,12.85,12.85,0,0,1,.23-5.62.43.43,0,0,0-.17-.54,12.89,12.89,0,0,1-4.76-11.17,13.11,13.11,0,0,1,10.43-11.81,12.67,12.67,0,0,1,1.72-.23.59.59,0,0,0,.61-.45,12.89,12.89,0,0,1,6.12-6.84,13.1,13.1,0,0,1,18.2,6.62.93.93,0,0,0,.94.68,13.12,13.12,0,0,1,11.41,9.29A14.22,14.22,0,0,1,214.48,125.38Zm-25-5.82a13.32,13.32,0,0,1,9.57-7.35c-.94-3.33-5.4-6.3-9.49-6.32a10.37,10.37,0,0,0-9.66,6.32A13.33,13.33,0,0,1,189.45,119.56Zm-13-4.81c-3.57-.13-7.85,3.5-9,7.57a10.27,10.27,0,0,0,3.12,10.54,13.28,13.28,0,0,1,10-6.77A13.25,13.25,0,0,1,176.42,114.75Zm10.93,33.42a13.21,13.21,0,0,1-3.47-11.51,13.24,13.24,0,0,1-12,.33,10.43,10.43,0,0,0,15.49,11.18Zm21-15.31a10.44,10.44,0,0,0-2.09-17,9.79,9.79,0,0,0-3.82-1.17,13.17,13.17,0,0,1-.69,6.15,13.5,13.5,0,0,1-3.39,5.14A13.29,13.29,0,0,1,208.38,132.86ZM207,137a13.15,13.15,0,0,1-12-.35,13.24,13.24,0,0,1-3.34,11.51,10.32,10.32,0,0,0,11.66-.87C206.39,144.82,208.25,139.7,207,137Zm-15-7.21a10.34,10.34,0,0,0,14.16,4.65A10.34,10.34,0,0,0,192,129.77Zm-2.58,1.89a10.31,10.31,0,0,0,.11,14.86A10.39,10.39,0,0,0,189.41,131.66Zm-2.52-1.82a10.34,10.34,0,0,0-14.1,4.61A10.37,10.37,0,0,0,186.89,129.84Zm4.13-3.11c6.08-.81,9.82-6.91,8.74-11.91A10.36,10.36,0,0,0,191,126.73Zm-3.09,0a10.26,10.26,0,0,0-2.24-8.17,10.38,10.38,0,0,0-6.57-3.77A10.37,10.37,0,0,0,187.93,126.71Z"/><path class="cls-2" d="M145.54,56H146c3.22,0,6.45,0,9.67,0,.41,0,.46.15.49.51a19.07,19.07,0,0,1-.95,6.28c-1.28,5.34-2.58,10.67-3.85,16-.08.33-.21.42-.54.41-1.13,0-2.27,0-3.4,0H147c.82-3.32,1.63-6.6,2.43-9.88s1.61-6.57,2.44-9.92h-6.28Z"/><path class="cls-2" d="M138.43,60.59l-3.36,1.2v-1.3c0-.55,0-1.1,0-1.65a.4.4,0,0,1,.27-.43,15.36,15.36,0,0,0,4-2.32.56.56,0,0,1,.37-.1c.93,0,1.86,0,2.79,0,.3,0,.39.09.39.39,0,1.17,0,2.35,0,3.52V78.63c0,.54,0,.55-.55.55-1.13,0-2.27,0-3.4,0-.38,0-.47-.11-.47-.47q0-8.74,0-17.49Z"/><path class="cls-2" d="M167.7,65.31h-1.49l-.25-1.7h-1.82l-.25,1.7h-1.36L164,55.92h2.16Zm-3.37-3h1.43L165,57.58Z"/><path class="cls-2" d="M168.39,55.92h1.47v8h2.43v1.34h-3.9Z"/><path class="cls-2" d="M172.94,55.92h1.47v9.39h-1.47Z"/><path class="cls-2" d="M180.27,65.31h-1.49l-.26-1.7h-1.81l-.26,1.7H175.1l1.5-9.39h2.16Zm-3.37-3h1.42l-.71-4.75Z"/><path class="cls-2" d="M182.27,58.51v6.8h-1.33V55.92h1.85l1.52,5.62V55.92h1.31v9.39h-1.51Z"/><path class="cls-2" d="M190.78,55.92v1.31L188,64h2.81v1.34h-4.32V64l2.8-6.74h-2.67V55.92Z"/><path class="cls-2" d="M196.43,65.31h-1.49l-.26-1.7h-1.81l-.25,1.7h-1.36l1.5-9.39h2.17Zm-3.37-3h1.42l-.71-4.75Z"/><path class="cls-2" d="M199.1,55.81c1.44,0,2.18.86,2.18,2.36v.3h-1.4v-.39c0-.67-.27-.93-.74-.93s-.74.26-.74.93c0,1.93,2.89,2.29,2.89,5,0,1.5-.75,2.36-2.2,2.36s-2.2-.86-2.2-2.36v-.58h1.39v.67c0,.67.3.92.77.92s.76-.25.76-.92c0-1.93-2.88-2.29-2.88-5C196.93,56.67,197.66,55.81,199.1,55.81Z"/><path class="cls-2" d="M208.59,58.24v1.22c0,1.5-.72,2.32-2.2,2.32h-.7v3.53h-1.47V55.92h2.17C207.87,55.92,208.59,56.74,208.59,58.24Zm-2.9-1v3.18h.7c.47,0,.73-.21.73-.88V58.15c0-.68-.26-.89-.73-.89Z"/><path class="cls-2" d="M214,65.31h-1.49l-.26-1.7h-1.81l-.25,1.7h-1.36l1.5-9.39h2.16Zm-3.37-3H212l-.71-4.75Z"/><path class="cls-2" d="M217.72,65.31a2.92,2.92,0,0,1-.13-1.15V62.68c0-.87-.3-1.19-1-1.19h-.51v3.82h-1.48V55.92h2.23c1.53,0,2.19.71,2.19,2.16v.74a1.87,1.87,0,0,1-1,1.9c.74.31,1,1,1,2v1.45a2.86,2.86,0,0,0,.16,1.14Zm-1.61-8.05v2.89h.58c.55,0,.88-.25.88-1v-.92c0-.68-.23-1-.75-1Z"/><path class="cls-2" d="M224.81,65.31h-1.49l-.26-1.7h-1.81l-.25,1.7h-1.36l1.5-9.39h2.16Zm-3.37-3h1.42l-.71-4.75Z"/><path class="cls-2" d="M162.92,70.34h1.48v8h2.43v1.35h-3.91Z"/><path class="cls-2" d="M167.35,72.59a2.25,2.25,0,1,1,4.49,0v4.89a2.25,2.25,0,1,1-4.49,0Zm1.48,5c0,.68.3.93.77.93s.76-.25.76-.93V72.5c0-.67-.3-.93-.76-.93s-.77.26-.77.93Z"/><path class="cls-2" d="M175,74.5h2.07v3c0,1.5-.75,2.36-2.2,2.36s-2.2-.86-2.2-2.36V72.59c0-1.5.75-2.36,2.2-2.36s2.2.86,2.2,2.36v.92h-1.39v-1c0-.67-.3-.93-.77-.93s-.76.26-.76.93v5.07c0,.68.29.92.76.92s.77-.24.77-.92V75.84H175Z"/><path class="cls-2" d="M181.11,79.74a3,3,0,0,1-.13-1.16V77.1c0-.87-.3-1.19-1-1.19h-.51v3.83H178v-9.4h2.22c1.53,0,2.19.71,2.19,2.16v.74a1.87,1.87,0,0,1-1,1.9c.73.31,1,1,1,2v1.44a2.77,2.77,0,0,0,.16,1.15Zm-1.61-8.06v2.89h.58c.55,0,.89-.24.89-1v-.92c0-.67-.23-1-.76-1Z"/><path class="cls-2" d="M188.2,79.74h-1.49L186.46,78h-1.82l-.25,1.71H183l1.51-9.4h2.16Zm-3.37-3h1.42L185.54,72Z"/><path class="cls-2" d="M192,79.74a3,3,0,0,1-.13-1.16V77.1c0-.87-.3-1.19-1-1.19h-.51v3.83h-1.47v-9.4h2.22c1.53,0,2.19.71,2.19,2.16v.74a1.87,1.87,0,0,1-1,1.9c.73.31,1,1,1,2v1.44a2.77,2.77,0,0,0,.16,1.15Zm-1.61-8.06v2.89h.58c.55,0,.89-.24.89-1v-.92c0-.67-.23-1-.76-1Z"/><path class="cls-2" d="M162.92,84.76h1.48v8.06h2.43v1.34h-3.91Z"/><path class="cls-2" d="M167.35,87a2.25,2.25,0,1,1,4.49,0V91.9a2.25,2.25,0,1,1-4.49,0Zm1.48,5c0,.67.3.92.77.92s.76-.25.76-.92V86.92c0-.67-.3-.92-.76-.92s-.77.25-.77.92Z"/><path class="cls-2" d="M174.78,84.65c1.43,0,2.17.86,2.17,2.37v.29h-1.39v-.39c0-.67-.27-.92-.74-.92s-.74.25-.74.92c0,1.93,2.89,2.3,2.89,5a2.06,2.06,0,0,1-2.21,2.36c-1.45,0-2.2-.85-2.2-2.36v-.58H174V92c0,.67.29.91.76.91s.77-.24.77-.91c0-1.94-2.89-2.3-2.89-5C172.6,85.51,173.34,84.65,174.78,84.65Z"/><path class="cls-2" d="M179.77,87a2.24,2.24,0,1,1,4.48,0V91.9a2.24,2.24,0,1,1-4.48,0Zm1.48,5c0,.67.29.92.76.92s.77-.25.77-.92V86.92c0-.67-.3-.92-.77-.92s-.76.25-.76.92Z"/><path class="cls-2" d="M189.62,86.92v.34a1.84,1.84,0,0,1-1,1.89,1.9,1.9,0,0,1,1.1,2v.77a2,2,0,0,1-2.24,2.23h-2.32v-9.4h2.23C189,84.76,189.62,85.47,189.62,86.92Zm-2.94-.82v2.49h.58c.55,0,.89-.25.89-1v-.52c0-.67-.23-1-.75-1Zm0,3.83v2.89h.85c.5,0,.76-.23.76-.93v-.82c0-.87-.28-1.14-.95-1.14Z"/><path class="cls-2" d="M190.25,92.82h.51c.47,0,.85-.18.85-.9V84.76h1.48v7.06c0,1.88-1,2.36-2.12,2.36-.27,0-.47,0-.72,0Z"/><path class="cls-2" d="M195.57,88.72h2v1.34h-2v2.76h2.55v1.34h-4v-9.4h4V86.1h-2.55Z"/><path class="cls-2" d="M198.6,84.76h4.57V86.1h-1.55v8.06h-1.47V86.1H198.6Z"/><path class="cls-2" d="M203.81,84.76h1.48v9.4h-1.48Z"/><path class="cls-2" d="M208.59,92.43l1.13-7.67h1.35l-1.44,9.4h-2.21L206,84.76h1.49Z"/><path class="cls-2" d="M211.63,87a2.24,2.24,0,1,1,4.48,0V91.9a2.24,2.24,0,1,1-4.48,0Zm1.47,5c0,.67.3.92.77.92s.76-.25.76-.92V86.92c0-.67-.29-.92-.76-.92s-.77.25-.77.92Z"/><path class="cls-2" d="M219.05,84.65c1.44,0,2.17.86,2.17,2.37v.29h-1.39v-.39c0-.67-.27-.92-.74-.92s-.74.25-.74.92c0,1.93,2.89,2.3,2.89,5,0,1.51-.75,2.36-2.2,2.36a2.06,2.06,0,0,1-2.21-2.36v-.58h1.4V92c0,.67.3.91.77.91s.76-.24.76-.91c0-1.94-2.89-2.3-2.89-5C216.87,85.51,217.61,84.65,219.05,84.65Z"/></g></g></svg>