<svg xmlns="http://www.w3.org/2000/svg" viewBox="0 0 378.08 212.67"><defs><style>.cls-1{fill:#9b1135;}.cls-2{fill:#fefefe;}.cls-3{fill:#8e1838;}.cls-4{fill:#fff;}</style></defs><g id="Capa_2" data-name="Capa 2"><g id="Capa_1-2" data-name="Capa 1"><rect class="cls-1" width="378.08" height="212.67"/><path class="cls-2" d="M214.78,138.93v19.44c0,.77-.15.92-.91.92H203.5c-.69,0-.86-.17-.86-.86q0-13.92,0-27.85a2.33,2.33,0,0,1,.79-1.82l5.93-5.62,4.34-4.13.11-.11c.21-.17.4-.43.7-.3s.28.46.28.74Z"/><path class="cls-2" d="M199.66,146.29v12.1c0,.74-.16.9-.9.9h-10.4c-.68,0-.86-.18-.86-.87v-23.8c0-.29-.06-.65.26-.79s.55.14.76.34L193,138.7c.37.38.39.38.76,0,1.62-1.62,3.23-3.25,4.85-4.88.22-.22.44-.54.81-.38s.27.53.27.83Z"/><path class="cls-2" d="M218.29,106.34c.33,0,.4.22.33.51l-1,4.46c-.26,1.21-.52,2.43-.77,3.64,0,.16,0,.33-.25.38a.43.43,0,0,1-.42-.17l-1.65-1.67c-.13-.14-.21-.15-.35,0l-4.77,4.79c-1.82,1.82-3.65,3.63-5.47,5.46l-5.35,5.35-4.95,5c-.26.26-.44.2-.67,0l-5.3-5.34c-.94-.93-1.87-1.86-2.8-2.8-.15-.15-.23-.16-.38,0l-8,8c-1.69,1.69-3.4,3.36-5.08,5.05-.26.27-.43.28-.69,0-.64-.67-1.3-1.33-2-2-.25-.24-.26-.42,0-.67,2-2,4.07-4.06,6.1-6.09l5.85-5.87c1.23-1.23,2.47-2.45,3.7-3.69.21-.21.37-.19.58,0l5.29,5.29c.95,1,1.9,1.89,2.83,2.85.22.22.32.15.51,0,2.81-2.83,5.64-5.65,8.46-8.47,3.11-3.11,6.22-6.23,9.34-9.32.26-.27.23-.4,0-.62-.54-.52-1.06-1-1.58-1.58-.26-.27-.2-.5.15-.58l8.05-1.8Z"/><path class="cls-2" d="M184.28,145.46v12.91c0,.77-.14.92-.92.92H173c-.75,0-.91-.16-.91-.89,0-4.9,0-9.8,0-14.7a2.37,2.37,0,0,1,.78-1.82c2.81-2.63,5.59-5.28,8.37-7.93l2-1.93c.2-.19.41-.45.73-.31s.26.45.26.71Z"/><path class="cls-2" d="M152,72.36a5.1,5.1,0,0,1,2.53,3.77,10.23,10.23,0,0,1-.14,4.73A5.15,5.15,0,0,1,149.52,85a9.57,9.57,0,0,1-3-.13,4.93,4.93,0,0,1-3.83-3.29,10,10,0,0,1-.31-5.89,4.88,4.88,0,0,1,2.43-3.33l-.65-.66a5.92,5.92,0,0,1-1.66-3.77,8.91,8.91,0,0,1,.25-3.21,5.13,5.13,0,0,1,4.92-3.82,7.78,7.78,0,0,1,3,.3,4.65,4.65,0,0,1,3.19,3.08,8.29,8.29,0,0,1-.23,6A5.77,5.77,0,0,1,152,72.36Z"/><path class="cls-3" d="M146.49,78a7.61,7.61,0,0,1,.3-2.47,1.58,1.58,0,0,1,1.87-1.23A1.47,1.47,0,0,1,150,75.57a8.37,8.37,0,0,1-.07,5.05,1.4,1.4,0,0,1-1.58,1.1,1.5,1.5,0,0,1-1.52-1.16A7.17,7.17,0,0,1,146.49,78Z"/><path class="cls-3" d="M146.68,67.35a4.42,4.42,0,0,1,.38-2.21,1.42,1.42,0,0,1,1.39-.86,1.31,1.31,0,0,1,1.28.93A6.08,6.08,0,0,1,150,68.4a4.53,4.53,0,0,1-.37,1.4,1.31,1.31,0,0,1-1.21.86,1.34,1.34,0,0,1-1.23-.84A5.68,5.68,0,0,1,146.68,67.35Z"/><path class="cls-4" d="M163.14,61.53h4.56v1.35h-1.54v8.05h-1.48V62.88h-1.54Z"/><path class="cls-4" d="M171.43,70.93a2.92,2.92,0,0,1-.13-1.15V68.3c0-.87-.3-1.19-1-1.19h-.51v3.82h-1.48v-9.4h2.23c1.53,0,2.19.72,2.19,2.17v.73a1.88,1.88,0,0,1-1,1.91c.74.31,1,1,1,2v1.45a2.71,2.71,0,0,0,.17,1.14Zm-1.61-8.05v2.88h.58c.55,0,.88-.24.88-1v-.93c0-.67-.22-1-.75-1Z"/><path class="cls-4" d="M178.52,70.93H177l-.26-1.7H175l-.25,1.7h-1.36l1.5-9.4H177Zm-3.37-3h1.42l-.71-4.75Z"/><path class="cls-4" d="M183.62,63.7V64a1.83,1.83,0,0,1-1,1.89,1.91,1.91,0,0,1,1.1,2v.76a2,2,0,0,1-2.24,2.23H179.2v-9.4h2.23C183,61.53,183.62,62.25,183.62,63.7Zm-2.94-.82v2.48h.58c.55,0,.88-.24.88-1v-.53c0-.67-.22-1-.75-1Zm0,3.82v2.89h.85c.49,0,.76-.23.76-.93v-.82c0-.87-.28-1.14-.95-1.14Z"/><path class="cls-4" d="M189.43,70.93h-1.49l-.25-1.7h-1.81l-.26,1.7h-1.35l1.5-9.4h2.16Zm-3.37-3h1.43l-.71-4.75Z"/><path class="cls-4" d="M189.72,69.59h.51c.47,0,.84-.17.84-.9V61.53h1.48V68.6c0,1.87-1,2.36-2.12,2.36a5.39,5.39,0,0,1-.71,0Z"/><path class="cls-4" d="M193.43,63.79a2.25,2.25,0,1,1,4.49,0v4.89a2.25,2.25,0,1,1-4.49,0Zm1.48,5c0,.67.3.93.77.93s.76-.26.76-.93V63.7c0-.68-.29-.93-.76-.93s-.77.25-.77.93Z"/><path class="cls-4" d="M201,61.53h2.34c1.47,0,2.2.82,2.2,2.33v4.75c0,1.5-.73,2.32-2.2,2.32H201Zm1.48,1.35v6.71h.83c.47,0,.75-.24.75-.91V63.79c0-.67-.28-.91-.75-.91Z"/><path class="cls-4" d="M207.9,65.49h2v1.35h-2v2.75h2.56v1.34h-4v-9.4h4v1.35H207.9Z"/><path class="cls-4" d="M215.65,67.43v1.25c0,1.5-.75,2.36-2.2,2.36s-2.2-.86-2.2-2.36V63.79c0-1.5.75-2.36,2.2-2.36s2.2.86,2.2,2.36v.91h-1.4v-1c0-.68-.29-.93-.76-.93s-.77.25-.77.93v5.07c0,.67.3.91.77.91s.76-.24.76-.91V67.43Z"/><path class="cls-4" d="M218,65.49h2v1.35h-2v2.75h2.55v1.34h-4v-9.4h4v1.35H218Z"/><path class="cls-4" d="M222.81,64.12v6.81h-1.33v-9.4h1.85l1.52,5.63V61.53h1.31v9.4h-1.52Z"/><path class="cls-4" d="M226.79,61.53h4.57v1.35h-1.55v8.05h-1.47V62.88h-1.55Z"/><path class="cls-4" d="M233.48,65.49h2v1.35h-2v2.75H236v1.34h-4v-9.4h4v1.35h-2.55Z"/><path class="cls-4" d="M165,82.24,163.08,76h1.55l1.12,4.28L166.88,76h1.41l-1.87,6.28v3.11H165Z"/><path class="cls-4" d="M175.24,81.85V83.1c0,1.5-.75,2.36-2.2,2.36s-2.2-.86-2.2-2.36V78.21c0-1.5.75-2.36,2.2-2.36s2.2.86,2.2,2.36v.91h-1.39v-1c0-.67-.3-.93-.77-.93s-.76.26-.76.93v5.07c0,.67.29.91.76.91s.77-.24.77-.91V81.85Z"/><path class="cls-4" d="M179.23,85.35a2.92,2.92,0,0,1-.13-1.15V82.72c0-.87-.3-1.19-1-1.19h-.51v3.82h-1.48V76h2.23c1.53,0,2.19.71,2.19,2.16v.74a1.87,1.87,0,0,1-1,1.9c.74.31,1,1,1,2v1.45a2.89,2.89,0,0,0,.16,1.14Zm-1.61-8v2.88h.58c.55,0,.88-.24.88-1v-.93c0-.67-.22-1-.75-1Z"/><path class="cls-4" d="M183,79.92h2v1.34h-2V84h2.55v1.34h-4V76h4V77.3H183Z"/><path class="cls-4" d="M190.76,81.85V83.1c0,1.5-.75,2.36-2.2,2.36s-2.2-.86-2.2-2.36V78.21c0-1.5.75-2.36,2.2-2.36s2.2.86,2.2,2.36v.91h-1.39v-1c0-.67-.3-.93-.77-.93s-.76.26-.76.93v5.07c0,.67.29.91.76.91s.77-.24.77-.91V81.85Z"/><path class="cls-4" d="M191.66,76h1.48v9.39h-1.48Z"/><path class="cls-4" d="M197.34,82.63l1-6.67h2.05v9.39H199V78.61l-1,6.74h-1.39l-1.1-6.64v6.64H194.2V76h2.05Z"/><path class="cls-4" d="M201.47,76H203v9.39h-1.48Z"/><path class="cls-4" d="M205.5,79.92h2v1.34h-2V84h2.55v1.34h-4V76h4V77.3H205.5Z"/><path class="cls-4" d="M210.28,78.55v6.8H209V76h1.85l1.52,5.62V76h1.32v9.39h-1.52Z"/><path class="cls-4" d="M214.27,76h4.56V77.3h-1.54v8h-1.48v-8h-1.54Z"/><path class="cls-4" d="M219.35,78.21a2.25,2.25,0,1,1,4.49,0V83.1a2.25,2.25,0,1,1-4.49,0Zm1.48,5c0,.67.3.93.77.93s.76-.26.76-.93V78.12c0-.67-.29-.93-.76-.93s-.77.26-.77.93Z"/><path class="cls-4" d="M165,94.34h2v1.34h-2v2.75h2.55v1.34h-4V90.38h4v1.34H165Z"/><path class="cls-4" d="M172.79,96.27v1.25c0,1.5-.75,2.36-2.2,2.36a2.06,2.06,0,0,1-2.21-2.36V92.63a2.06,2.06,0,0,1,2.21-2.36c1.45,0,2.2.86,2.2,2.36v.92h-1.4v-1c0-.67-.29-.93-.76-.93s-.77.26-.77.93v5.07c0,.67.3.92.77.92s.76-.25.76-.92V96.27Z"/><path class="cls-4" d="M173.57,92.63a2.24,2.24,0,1,1,4.48,0v4.89a2.24,2.24,0,1,1-4.48,0Zm1.47,5c0,.67.3.93.77.93s.76-.26.76-.93V92.54c0-.67-.29-.93-.76-.93s-.77.26-.77.93Z"/><path class="cls-4" d="M180.32,93v6.8H179V90.38h1.85L182.36,96V90.38h1.31v9.39h-1.51Z"/><path class="cls-4" d="M184.61,92.63a2.25,2.25,0,1,1,4.49,0v4.89a2.25,2.25,0,1,1-4.49,0Zm3.83-4.24-1.37,1.49h-1l.91-1.49Zm-2.35,9.22c0,.67.3.93.77.93s.76-.26.76-.93V92.54c0-.67-.29-.93-.76-.93s-.77.26-.77.93Z"/><path class="cls-4" d="M193.18,97.05l1-6.67h2.05v9.39h-1.4V93l-1,6.73h-1.39l-1.1-6.64v6.64H190V90.38h2.05Z"/><path class="cls-4" d="M197.31,90.38h1.48v9.39h-1.48Z"/><path class="cls-4" d="M204.15,96.27v1.25a2.06,2.06,0,0,1-2.21,2.36c-1.45,0-2.2-.86-2.2-2.36V92.63c0-1.5.75-2.36,2.2-2.36a2.06,2.06,0,0,1,2.21,2.36v.92h-1.4v-1c0-.67-.3-.93-.77-.93s-.76.26-.76.93v5.07c0,.67.29.92.76.92s.77-.25.77-.92V96.27Z"/><path class="cls-4" d="M204.92,92.63a2.25,2.25,0,1,1,4.49,0v4.89a2.25,2.25,0,1,1-4.49,0Zm1.48,5c0,.67.3.93.77.93s.76-.26.76-.93V92.54c0-.67-.29-.93-.76-.93s-.77.26-.77.93Z"/></g></g></svg>