<svg xmlns="http://www.w3.org/2000/svg" viewBox="0 0 378.08 212.67"><defs><style>.cls-1{fill:#e58f14;}.cls-2{fill:#fff;}</style></defs><g id="Capa_2" data-name="Capa 2"><g id="Capa_1-2" data-name="Capa 1"><rect class="cls-1" width="378.08" height="212.67"/><path class="cls-2" d="M174.73,136c-.27-.21-.44-.33-.6-.47-.68-.6-1.35-1.21-2-1.82-.38-.36-.31-.62.2-.76l10.74-3,.28-.07c.41-.1.6,0,.55.47-.08.75-.21,1.5-.33,2.24-.49,3-1,6-1.49,9.06a.77.77,0,0,1-.3.54c-.1.05-.38-.12-.53-.25-.7-.61-1.39-1.23-2.07-1.87-.26-.25-.44-.23-.72,0a16.76,16.76,0,0,1-6.56,3c-6.72,1.34-12.71-.05-17.63-5a16.18,16.18,0,0,1-4.65-9.51,25.74,25.74,0,0,1,.63-10.66c1.81-6.24,5.94-10.15,12.16-11.88a18.4,18.4,0,0,1,4.55-.67,19.05,19.05,0,0,1,13.82,5.18,36.94,36.94,0,0,1,6.88,8.81c1.32,2.26,2.49,4.6,3.75,6.9a27.14,27.14,0,0,0,5.7,7.5,18.17,18.17,0,0,0,9.11,4.47,11.44,11.44,0,0,0,10.49-3.16,11.57,11.57,0,0,0,3.09-6.17,19.68,19.68,0,0,0-.38-9.76c-1.32-4.24-4.32-6.71-8.53-7.83a13.28,13.28,0,0,0-5-.46,14.47,14.47,0,0,0-5.21,1.67,20.81,20.81,0,0,0-6.23,5.51c-.38.48-.74,1-1.11,1.45s-.58.41-.83,0c-.8-1.38-1.6-2.75-2.36-4.15a.73.73,0,0,1,0-.66c3-3.78,6.54-6.92,11.29-8.39a17.33,17.33,0,0,1,5.88-.94,19.56,19.56,0,0,1,12.27,4.43,16.49,16.49,0,0,1,5.12,8,23.58,23.58,0,0,1,.92,6.14,23,23,0,0,1-1.25,8.75,16.17,16.17,0,0,1-12.8,10.94A19.34,19.34,0,0,1,200,142c-5.72-2.51-9.74-6.81-12.79-12.11-1.18-2-2.2-4.18-3.35-6.24a40.08,40.08,0,0,0-5.58-7.93,15,15,0,0,0-9.42-4.89,13.25,13.25,0,0,0-5.47.62,11.14,11.14,0,0,0-6.58,4.92,13.89,13.89,0,0,0-1.79,5.42,21.55,21.55,0,0,0-.08,5.2,11.57,11.57,0,0,0,7.72,10.16,13.13,13.13,0,0,0,10.34-.22C173.53,136.68,174.05,136.35,174.73,136Z"/><path class="cls-2" d="M149.39,76.39c.25,0,.42,0,.59,0,1.93,0,3.86,0,5.79,0,.41,0,.54.12.52.53,0,.81,0,1.62,0,2.43,0,.3-.1.4-.4.4-3.64,0-7.29,0-10.93,0-.31,0-.39-.12-.39-.4,0-.72,0-1.44,0-2.15a2,2,0,0,1,.27-.93c2.13-3.33,4.3-6.64,6.43-10a7,7,0,0,0,1.34-3.47,6.3,6.3,0,0,0-.15-1.68A1.43,1.43,0,0,0,151.14,60a1.67,1.67,0,0,0-1.9.91,10.78,10.78,0,0,0-.49,2.11,5,5,0,0,0,0,1.09c0,.23-.06.35-.31.35-1.18,0-2.35,0-3.53,0a.44.44,0,0,1-.3-.26,9.47,9.47,0,0,1,.94-5.1,5.12,5.12,0,0,1,4.23-2.67,8.65,8.65,0,0,1,3.32.23,4.88,4.88,0,0,1,3.67,4,8.82,8.82,0,0,1-1.48,6.78c-1.83,2.8-3.7,5.57-5.55,8.36C149.62,76,149.53,76.16,149.39,76.39Z"/><path class="cls-2" d="M137.62,61.18l-3.28,1.17a2.94,2.94,0,0,1,0-.37c0-.77,0-1.54,0-2.31a.58.58,0,0,1,.41-.64,15.38,15.38,0,0,0,3.75-2.2.65.65,0,0,1,.4-.14h2.72c.27,0,.4.09.38.37a1.92,1.92,0,0,0,0,.24V79.16c0,.62,0,.62-.62.62h-3.08c-.58,0-.58,0-.58-.58V61.75C137.67,61.58,137.64,61.41,137.62,61.18Z"/><path class="cls-2" d="M142,57.05a1.92,1.92,0,0,0,0,.24V79.16c0,.62,0,.62-.62.62h-3.08c-.58,0-.58,0-.58-.58V61.75c0-.17,0-.34,0-.57l-3.28,1.17a2.94,2.94,0,0,1,0-.37c0-.77,0-1.54,0-2.31a.58.58,0,0,1,.41-.64,15.38,15.38,0,0,0,3.75-2.2.65.65,0,0,1,.4-.14h2.72C141.84,56.67,142,56.77,142,57.05Zm2.62,22.33c0-.72,0-1.44,0-2.15a2,2,0,0,1,.27-.93c2.13-3.33,4.3-6.64,6.43-10a7,7,0,0,0,1.34-3.47,6.3,6.3,0,0,0-.15-1.68A1.43,1.43,0,0,0,151.14,60a1.67,1.67,0,0,0-1.9.91,10.78,10.78,0,0,0-.49,2.11,5,5,0,0,0,0,1.09c0,.23-.06.35-.31.35-1.18,0-2.35,0-3.53,0a.44.44,0,0,1-.3-.26,9.47,9.47,0,0,1,.94-5.1,5.12,5.12,0,0,1,4.23-2.67,8.65,8.65,0,0,1,3.32.23,4.88,4.88,0,0,1,3.67,4,8.82,8.82,0,0,1-1.48,6.78c-1.83,2.8-3.7,5.57-5.55,8.36-.1.15-.19.31-.33.54.25,0,.42,0,.59,0,1.93,0,3.86,0,5.79,0,.41,0,.54.12.52.53,0,.81,0,1.62,0,2.43,0,.3-.1.4-.4.4-3.64,0-7.29,0-10.93,0C144.65,79.78,144.57,79.66,144.57,79.38Zm79.81,53.28a16.17,16.17,0,0,1-12.8,10.94A19.34,19.34,0,0,1,200,142c-5.72-2.51-9.74-6.81-12.79-12.11-1.18-2-2.2-4.18-3.35-6.24a40.08,40.08,0,0,0-5.58-7.93,15,15,0,0,0-9.42-4.89,13.25,13.25,0,0,0-5.47.62,11.14,11.14,0,0,0-6.58,4.92,13.89,13.89,0,0,0-1.79,5.42,21.55,21.55,0,0,0-.08,5.2,11.57,11.57,0,0,0,7.72,10.16,13.13,13.13,0,0,0,10.34-.22c.57-.25,1.09-.58,1.77-1-.27-.21-.44-.33-.6-.47-.68-.6-1.35-1.21-2-1.82-.38-.36-.31-.62.2-.76l10.74-3,.28-.07c.41-.1.6,0,.55.47-.08.75-.21,1.5-.33,2.24-.49,3-1,6-1.49,9.06a.77.77,0,0,1-.3.54c-.1.05-.38-.12-.53-.25-.7-.61-1.39-1.23-2.07-1.87-.26-.25-.44-.23-.72,0a16.76,16.76,0,0,1-6.56,3c-6.72,1.34-12.71-.05-17.63-5a16.18,16.18,0,0,1-4.65-9.51,25.74,25.74,0,0,1,.63-10.66c1.81-6.24,5.94-10.15,12.16-11.88a18.4,18.4,0,0,1,4.55-.67,19.05,19.05,0,0,1,13.82,5.18,36.94,36.94,0,0,1,6.88,8.81c1.32,2.26,2.49,4.6,3.75,6.9a27.14,27.14,0,0,0,5.7,7.5,18.17,18.17,0,0,0,9.11,4.47,11.44,11.44,0,0,0,10.49-3.16,11.57,11.57,0,0,0,3.09-6.17,19.68,19.68,0,0,0-.38-9.76c-1.32-4.24-4.32-6.71-8.53-7.83a13.28,13.28,0,0,0-5-.46,14.47,14.47,0,0,0-5.21,1.67,20.81,20.81,0,0,0-6.23,5.51c-.38.48-.74,1-1.11,1.45s-.58.41-.83,0c-.8-1.38-1.6-2.75-2.36-4.15a.73.73,0,0,1,0-.66c3-3.78,6.54-6.92,11.29-8.39a17.33,17.33,0,0,1,5.88-.94,19.56,19.56,0,0,1,12.27,4.43,16.49,16.49,0,0,1,5.12,8,23.58,23.58,0,0,1,.92,6.14A23,23,0,0,1,224.38,132.66Z"/><path class="cls-2" d="M168.53,58.77V60c0,1.5-.73,2.32-2.2,2.32h-.7v3.53h-1.48V56.45h2.18C167.8,56.45,168.53,57.26,168.53,58.77Zm-2.9-1V61h.7c.47,0,.72-.21.72-.89V58.67c0-.67-.25-.88-.72-.88Z"/><path class="cls-2" d="M172.37,65.84a2.84,2.84,0,0,1-.14-1.15V63.21c0-.87-.29-1.19-1-1.19h-.51v3.82h-1.48V56.45h2.23c1.53,0,2.19.71,2.19,2.16v.74a1.87,1.87,0,0,1-1,1.9c.74.31,1,1,1,2V64.7a2.72,2.72,0,0,0,.16,1.14Zm-1.61-8.05v2.88h.57c.55,0,.89-.24.89-1v-.93c0-.67-.23-1-.75-1Z"/><path class="cls-2" d="M174.56,58.7a2.24,2.24,0,1,1,4.48,0v4.89a2.24,2.24,0,1,1-4.48,0Zm1.47,5c0,.67.3.93.77.93s.76-.26.76-.93V58.61c0-.67-.29-.93-.76-.93s-.77.26-.77.93Z"/><path class="cls-2" d="M180,56.45h2.34c1.48,0,2.2.81,2.2,2.32v4.75c0,1.5-.72,2.32-2.2,2.32H180Zm1.48,1.34V64.5h.83c.47,0,.75-.24.75-.91V58.7c0-.67-.28-.91-.75-.91Z"/><path class="cls-2" d="M186.88,56.45V63.7c0,.67.29.91.76.91s.77-.24.77-.91V56.45h1.4V63.6A2.06,2.06,0,0,1,187.6,66c-1.45,0-2.2-.86-2.2-2.36V56.45Z"/><path class="cls-2" d="M195.09,62.34v1.25c0,1.5-.75,2.36-2.2,2.36s-2.2-.86-2.2-2.36V58.7c0-1.5.75-2.36,2.2-2.36s2.2.86,2.2,2.36v.91H193.7v-1c0-.67-.3-.93-.77-.93s-.76.26-.76.93v5.07c0,.67.29.91.76.91s.77-.24.77-.91V62.34Z"/><path class="cls-2" d="M200.28,62.34v1.25A2.06,2.06,0,0,1,198.07,66c-1.45,0-2.2-.86-2.2-2.36V58.7c0-1.5.75-2.36,2.2-2.36a2.06,2.06,0,0,1,2.21,2.36v.91h-1.4v-1c0-.67-.3-.93-.76-.93s-.77.26-.77.93v5.07c0,.67.3.91.77.91s.76-.24.76-.91V62.34Z"/><path class="cls-2" d="M201.18,56.45h1.47v9.39h-1.47Z"/><path class="cls-2" d="M203.61,58.7a2.24,2.24,0,1,1,4.48,0v4.89a2.24,2.24,0,1,1-4.48,0Zm3.82-4.24L206.06,56h-1l.91-1.49Zm-2.35,9.22c0,.67.3.93.77.93s.76-.26.76-.93V58.61c0-.67-.29-.93-.76-.93s-.77.26-.77.93Z"/><path class="cls-2" d="M210.36,59v6.8H209V56.45h1.85l1.52,5.62V56.45h1.31v9.39H212.2Z"/><path class="cls-2" d="M165.54,77.15l-1.87-6.28h1.54l1.13,4.28,1.13-4.28h1.41L167,77.15v3.11h-1.47Z"/><path class="cls-2" d="M175.83,76.76V78c0,1.5-.75,2.36-2.2,2.36s-2.2-.86-2.2-2.36V73.12c0-1.5.75-2.36,2.2-2.36s2.2.86,2.2,2.36V74h-1.39V73c0-.67-.3-.93-.77-.93s-.77.26-.77.93V78.1c0,.67.3.92.77.92s.77-.25.77-.92V76.76Z"/><path class="cls-2" d="M176.61,73.12a2.24,2.24,0,1,1,4.48,0V78a2.24,2.24,0,1,1-4.48,0Zm1.48,5c0,.67.29.93.76.93s.77-.26.77-.93V73c0-.67-.3-.93-.77-.93s-.76.26-.76.93Z"/><path class="cls-2" d="M183.36,73.46v6.8H182V70.87h1.86l1.51,5.62V70.87h1.32v9.39H185.2Z"/><path class="cls-2" d="M189.77,70.76c1.43,0,2.17.86,2.17,2.36v.3h-1.4V73c0-.67-.26-.93-.73-.93s-.74.26-.74.93c0,1.93,2.88,2.29,2.88,5,0,1.5-.75,2.36-2.2,2.36s-2.2-.86-2.2-2.36v-.58H189v.67c0,.67.29.92.76.92s.77-.25.77-.92c0-1.93-2.89-2.29-2.89-5C187.59,71.62,188.33,70.76,189.77,70.76Z"/><path class="cls-2" d="M194.21,70.87v7.25c0,.67.29.91.76.91s.77-.24.77-.91V70.87h1.4V78a2.07,2.07,0,0,1-2.21,2.37c-1.45,0-2.2-.86-2.2-2.37V70.87Z"/><path class="cls-2" d="M201.27,77.54l1-6.67h2.05v9.39h-1.4V73.53l-1,6.73h-1.39l-1.1-6.64v6.64h-1.29V70.87h2.05Z"/><path class="cls-2" d="M205.28,73.12a2.25,2.25,0,1,1,4.49,0V78a2.25,2.25,0,1,1-4.49,0Zm1.48,5c0,.67.3.93.77.93s.76-.26.76-.93V73c0-.67-.29-.93-.76-.93s-.77.26-.77.93Z"/><path class="cls-2" d="M167.24,94.69a3,3,0,0,1-.13-1.16V92.06c0-.88-.3-1.2-1-1.2h-.51v3.83h-1.48v-9.4h2.23c1.53,0,2.19.71,2.19,2.16v.74a1.88,1.88,0,0,1-1,1.91c.74.3,1,1,1,2v1.45a2.92,2.92,0,0,0,.16,1.14Zm-1.61-8.06v2.89h.58c.55,0,.88-.24.88-1V87.6c0-.67-.23-1-.75-1Z"/><path class="cls-2" d="M171,89.25h2v1.34h-2v2.75h2.55v1.35h-4v-9.4h4v1.34H171Z"/><path class="cls-2" d="M176.48,85.18c1.43,0,2.17.86,2.17,2.36v.3h-1.4v-.39c0-.67-.26-.93-.73-.93s-.74.26-.74.93c0,1.93,2.88,2.3,2.88,5,0,1.5-.75,2.36-2.2,2.36s-2.2-.86-2.2-2.36v-.58h1.4v.68c0,.67.29.91.76.91s.77-.24.77-.91c0-1.94-2.89-2.3-2.89-5C174.3,86,175,85.18,176.48,85.18Z"/><path class="cls-2" d="M183.89,87.61v1.22c0,1.51-.73,2.33-2.21,2.33H181v3.53h-1.48v-9.4h2.17A2,2,0,0,1,183.89,87.61Zm-2.9-1v3.18h.69c.47,0,.73-.21.73-.88V87.52c0-.67-.26-.89-.73-.89Z"/><path class="cls-2" d="M184.52,87.54a2.24,2.24,0,1,1,4.48,0v4.89a2.24,2.24,0,1,1-4.48,0Zm1.47,5c0,.67.3.92.77.92s.76-.25.76-.92V87.45c0-.67-.29-.93-.76-.93s-.77.26-.77.93Z"/><path class="cls-2" d="M191.27,87.88v6.81h-1.33v-9.4h1.85l1.52,5.62V85.29h1.32v9.4h-1.52Z"/><path class="cls-2" d="M197.67,85.18c1.44,0,2.18.86,2.18,2.36v.3h-1.4v-.39c0-.67-.27-.93-.74-.93s-.74.26-.74.93c0,1.93,2.89,2.3,2.89,5,0,1.5-.75,2.36-2.2,2.36s-2.2-.86-2.2-2.36v-.58h1.39v.68c0,.67.3.91.77.91s.76-.24.76-.91c0-1.94-2.88-2.3-2.88-5C195.5,86,196.24,85.18,197.67,85.18Z"/><path class="cls-2" d="M205.49,94.69H204L203.74,93h-1.81l-.26,1.71h-1.35l1.5-9.4H204Zm-3.37-3h1.42L202.83,87Z"/><path class="cls-2" d="M210.59,87.45v.34a1.85,1.85,0,0,1-1,1.89,1.9,1.9,0,0,1,1.1,2v.77a2,2,0,0,1-2.24,2.23h-2.32v-9.4h2.23C209.93,85.29,210.59,86,210.59,87.45Zm-2.94-.82v2.48h.57c.55,0,.89-.24.89-1V87.6c0-.67-.23-1-.75-1Zm0,3.83v2.88h.84c.5,0,.77-.22.77-.92V91.6c0-.87-.28-1.14-1-1.14Z"/><path class="cls-2" d="M211.62,85.29h1.48v8h2.43v1.35h-3.91Z"/><path class="cls-2" d="M217.65,89.25h2v1.34h-2v2.75h2.55v1.35h-4v-9.4h4v1.34h-2.55Z"/><path class="cls-2" d="M223.1,85.18c1.43,0,2.17.86,2.17,2.36v.3h-1.39v-.39c0-.67-.27-.93-.74-.93s-.74.26-.74.93c0,1.93,2.89,2.3,2.89,5a2.06,2.06,0,0,1-2.21,2.36c-1.45,0-2.2-.86-2.2-2.36v-.58h1.4v.68c0,.67.29.91.76.91s.77-.24.77-.91c0-1.94-2.89-2.3-2.89-5C220.92,86,221.66,85.18,223.1,85.18Z"/></g></g></svg>