<svg xmlns="http://www.w3.org/2000/svg" viewBox="0 0 378.08 212.67"><defs><style>.cls-1{fill:#e3152b;}.cls-2{fill:#fefefe;}.cls-3{fill:#c21f33;}.cls-4{fill:#fff;}</style></defs><g id="Capa_2" data-name="Capa 2"><g id="Capa_1-2" data-name="Capa 1"><rect class="cls-1" width="378.08" height="212.67"/><path class="cls-2" d="M207,98v.56q0,20.28,0,40.57a.66.66,0,0,1-.58.76c-2.34.68-4.67,1.39-7,2.09l-11.8,3.54c-.94.29-1.88.56-2.82.86-.27.09-.32,0-.31-.24,0-.47,0-.94,0-1.42q0-16.63,0-33.27a.71.71,0,0,1,.42-.73c2.68-1.53,5.35-3.08,8-4.62l10.36-6,3.43-2A2.4,2.4,0,0,1,207,98Z"/><path class="cls-2" d="M159.66,97.93,163,99.85l6.08,3.52,10.09,5.82c.85.49,1.69,1,2.55,1.48a.51.51,0,0,1,.3.5q0,17.45,0,34.87c0,.35-.1.36-.39.27l-13.73-4.14c-2.55-.76-5.1-1.55-7.66-2.3a.7.7,0,0,1-.59-.8q0-20.26,0-40.53Z"/><path class="cls-2" d="M157.23,97.89a1,1,0,0,1,.06.54q0,21.51,0,43c0,.35.08.5.44.6,2.7.73,5.4,1.5,8.1,2.25l12.88,3.59a30.4,30.4,0,0,0,3.07.85,6.83,6.83,0,0,0,3.21-.07c3-.95,6.08-1.94,9.11-2.92L205,142.2c1.3-.42,2.61-.86,3.92-1.26.34-.11.41-.27.41-.6q0-20.31,0-40.62V97.85l1.25,1a4.33,4.33,0,0,0,.53.43,1.24,1.24,0,0,1,.64,1.29q0,20.79,0,41.58c0,.23,0,.42-.29.52-3.48,1-6.91,2.15-10.37,3.24l-9.9,3.13-6.2,2a4.2,4.2,0,0,1-.71.11c-2.17.24-4.18-.5-6.21-1.06l-11.38-3.14c-3.83-1.06-7.65-2.13-11.49-3.17-.3-.09-.31-.26-.31-.5,0-4,0-8,0-12q0-15.54,0-31.06a.81.81,0,0,1,.36-.74C155.92,98.94,156.56,98.41,157.23,97.89Z"/><path class="cls-2" d="M221.83,148.18c-.36-1.28-.68-2.44-1-3.61-.5-1.77-1-3.54-1.53-5.32a2,2,0,0,1-.09-.59q0-18.22,0-36.44c0-.37.1-.44.45-.44q2.21,0,4.41,0c.36,0,.44.09.44.45q0,14,0,28.1,0,4,0,8.09a4.8,4.8,0,0,1-.23,1.31L222,147.85C221.92,147.92,221.89,148,221.83,148.18Z"/><path class="cls-2" d="M147.74,62.42q0,3.47,0,6.93c0,.32.09.41.41.4.57,0,1.13,0,1.7,0,.2,0,.28.06.28.28,0,1,0,1.91,0,2.87,0,.24-.09.29-.31.29-.58,0-1.16,0-1.74,0-.27,0-.34.08-.34.34,0,1.61,0,3.21,0,4.82,0,.36-.1.45-.45.44q-1.62,0-3.24,0c-.32,0-.41-.07-.41-.4,0-1.56,0-3.13,0-4.69,0-.39-.06-.52-.49-.52-2.08,0-4.16,0-6.24,0-.33,0-.47-.08-.42-.42a2.26,2.26,0,0,0,0-.37c0-3,0-3,1.23-5.69,1.11-2.51,2.15-5.06,3.22-7.59.53-1.25,1.07-2.49,1.6-3.75a.36.36,0,0,1,.39-.25c1.48,0,3,0,4.45,0,.34,0,.32.17.32.4Z"/><path class="cls-2" d="M221.85,99.74h-2.34c-.25,0-.32-.07-.32-.31,0-.89,0-1.78,0-2.67a2.64,2.64,0,0,1,5.27-.07c0,.93,0,1.86,0,2.79,0,.23-.09.26-.29.26Z"/><path class="cls-3" d="M143.64,59.82c0,.22,0,.32,0,.42,0,3,0,6.07,0,9.11,0,.32-.09.41-.4.4-1,0-1.89,0-2.84,0-.27,0-.35,0-.25-.34q1.66-4.62,3.31-9.24A2.35,2.35,0,0,1,143.64,59.82Z"/><path class="cls-4" d="M161.58,58.68h2V60h-2v2.76h2.55v1.34h-4v-9.4h4v1.34h-2.55Z"/><path class="cls-4" d="M165,54.72h2.33A2,2,0,0,1,169.58,57V61.8a2,2,0,0,1-2.21,2.32H165Zm1.48,1.34v6.72h.83c.47,0,.75-.25.75-.92V57c0-.67-.28-.92-.75-.92Z"/><path class="cls-4" d="M171.93,54.72V62c0,.67.29.91.76.91s.77-.24.77-.91V54.72h1.39v7.16c0,1.5-.75,2.36-2.2,2.36s-2.2-.86-2.2-2.36V54.72Z"/><path class="cls-4" d="M180.14,60.62v1.24c0,1.51-.75,2.37-2.2,2.37s-2.2-.86-2.2-2.37V57c0-1.51.75-2.37,2.2-2.37s2.2.86,2.2,2.37v.91h-1.4v-1c0-.67-.29-.92-.76-.92s-.77.25-.77.92V62c0,.67.3.91.77.91s.76-.24.76-.91V60.62Z"/><path class="cls-4" d="M185.82,64.12h-1.49l-.26-1.71h-1.81L182,64.12h-1.36l1.5-9.4h2.17Zm-3.37-3h1.42l-.71-4.75Z"/><path class="cls-4" d="M190.79,60.62v1.24a2.07,2.07,0,0,1-2.21,2.37c-1.45,0-2.2-.86-2.2-2.37V57c0-1.51.75-2.37,2.2-2.37A2.07,2.07,0,0,1,190.79,57v.91h-1.4v-1c0-.67-.3-.92-.77-.92s-.76.25-.76.92V62c0,.67.29.91.76.91s.77-.24.77-.91V60.62Z"/><path class="cls-4" d="M191.68,54.72h1.48v9.4h-1.48Z"/><path class="cls-4" d="M194.11,57a2.25,2.25,0,1,1,4.49,0v4.88a2.25,2.25,0,1,1-4.49,0Zm3.83-4.25-1.37,1.49h-1l.91-1.49ZM195.59,62c0,.67.3.92.77.92s.76-.25.76-.92V56.88c0-.67-.29-.92-.76-.92s-.77.25-.77.92Z"/><path class="cls-4" d="M200.87,57.31v6.81h-1.33v-9.4h1.85l1.52,5.63V54.72h1.31v9.4h-1.51Z"/><path class="cls-4" d="M160.1,69.14h2.33c1.48,0,2.21.82,2.21,2.33v4.75a2,2,0,0,1-2.21,2.32H160.1Zm1.48,1.35V77.2h.83c.47,0,.75-.24.75-.91V71.4c0-.67-.28-.91-.75-.91Z"/><path class="cls-4" d="M167.05,73.1h2v1.35h-2V77.2h2.55v1.34h-4v-9.4h4v1.35h-2.55Z"/><path class="cls-4" d="M176.88,75v1.25c0,1.5-.75,2.36-2.2,2.36s-2.2-.86-2.2-2.36V71.4c0-1.51.75-2.36,2.2-2.36s2.2.85,2.2,2.36v.91h-1.4v-1c0-.67-.29-.92-.76-.92s-.77.25-.77.92v5.08c0,.67.3.91.77.91s.76-.24.76-.91V75Z"/><path class="cls-4" d="M182.56,78.54h-1.49l-.26-1.7H179l-.26,1.7h-1.35l1.5-9.4h2.16Zm-3.37-3h1.42l-.71-4.75Z"/><path class="cls-4" d="M183.24,69.14h1.48V77.2h2.43v1.34h-3.91Z"/><path class="cls-4" d="M187.79,69.14h1.48v9.4h-1.48Z"/><path class="cls-4" d="M190.34,69.14h2.34c1.48,0,2.2.82,2.2,2.33v4.75c0,1.5-.72,2.32-2.2,2.32h-2.34Zm1.48,1.35V77.2h.83c.47,0,.75-.24.75-.91V71.4c0-.67-.28-.91-.75-.91Z"/><path class="cls-4" d="M200.59,78.54H199.1l-.26-1.7H197l-.26,1.7h-1.35l1.5-9.4h2.16Zm-3.37-3h1.42l-.71-4.75Z"/><path class="cls-4" d="M201.27,69.14h2.34c1.47,0,2.2.82,2.2,2.33v4.75c0,1.5-.73,2.32-2.2,2.32h-2.34Zm1.48,1.35V77.2h.83c.47,0,.75-.24.75-.91V71.4c0-.67-.28-.91-.75-.91Z"/></g></g></svg>