<svg xmlns="http://www.w3.org/2000/svg" viewBox="0 0 96.81 85.35"><defs><style>.cls-1{fill:#1c5531;}</style></defs><g id="Capa_2" data-name="Capa 2"><g id="Capa_3" data-name="Capa 3"><g id="wz6QMn"><path class="cls-1" d="M96.81,5.41a52,52,0,0,1-1.36,5.86c-1,2.69-2.17,5.29-3.33,7.9a1.4,1.4,0,0,1-2,.87c-.79-.39-1-1.21-.49-2.19a37.84,37.84,0,0,0,4-11.14c0-.12,0-.23,0-.36C79.3,8,61.06,24.75,57.42,40.37l.31.31a3.61,3.61,0,0,1,.48-.89Q70,27.94,81.86,16.12a6.08,6.08,0,0,1,.85-.76,1.38,1.38,0,0,1,1.9,1.94,7.48,7.48,0,0,1-.76.83L60.18,41.79c-.24.24-.58.37-.75.68a32.44,32.44,0,0,0,10.16-4.08A55.49,55.49,0,0,0,86,23.59c.19-.25.36-.51.57-.75a1.47,1.47,0,0,1,2.08-.36,1.41,1.41,0,0,1,.18,2C87.7,26,86.63,27.4,85.44,28.74c-1.49,1.67-3.12,3.2-4.64,4.84a2.25,2.25,0,0,0-.6,1.36c0,7.75-.1,15.51,0,23.26.07,4.21.48,8.42.75,12.64A9.37,9.37,0,0,0,81.15,72H92.49c1.5,0,1.82.25,2.1,1.7a12.61,12.61,0,0,1-.32,6.81,6.83,6.83,0,0,1-6,4.7,19.14,19.14,0,0,1-2.73.15c-20,0-39.9,0-59.85,0a7.09,7.09,0,0,1-7-4.37,31,31,0,0,1-2.49-9.64c-.24-1.87-.41-3.76-.5-5.64A2.43,2.43,0,0,1,16.35,64c.82-.8,2.06-.16,2.2,1.11.2,1.91.33,3.82.56,5.73a29.24,29.24,0,0,0,2.1,8.68c1.08,2.37,2.44,3.18,4.82,2.83a4.4,4.4,0,0,0,4-4.21,17.52,17.52,0,0,0-.1-3.76c-.25-1.91.12-2.45,2-2.45H78.22c-1.33-11.78-.77-23.5-.9-35.39-1,.71-1.8,1.35-2.67,1.95-5.25,3.59-10.83,6.43-17.18,7.42a4.79,4.79,0,0,0-3,1.61c-.88,1-1.85,1.89-2.8,2.81-.77.75-1.55.82-2.17.23s-.6-1.43.19-2.24c1-1.06,2-2.16,3.16-3.12a3.4,3.4,0,0,0,1.17-3H25.76a9,9,0,0,1-1,0,1.39,1.39,0,0,1,0-2.78c.35,0,.7,0,1,0,9.3,0,18.59,0,27.89,0,.78,0,1.17-.19,1.38-1,.33-1.27.82-2.5,1.28-3.87H25.67a5.7,5.7,0,0,1-1.31-.11,1.25,1.25,0,0,1-1-1.41,1.27,1.27,0,0,1,1.17-1.27,8.54,8.54,0,0,1,1.13,0q15.51,0,31,0a1.46,1.46,0,0,0,1.52-.92c.67-1.31,1.43-2.57,2.24-4H25.57a4.47,4.47,0,0,1-1.21-.1,1.28,1.28,0,0,1-1-1.41A1.31,1.31,0,0,1,24.53,24a5.92,5.92,0,0,1,1,0q18,0,35.93,0a1.76,1.76,0,0,0,1.58-.75,57.14,57.14,0,0,1,12-11.7,1,1,0,0,0,.47-1.33c-.61-1.61-1.09-3.28-1.83-4.83a4.28,4.28,0,0,0-4.28-2.51c-6,0-12,0-18,0H13.84C14.49,4.3,15.19,5.62,15.67,7A40.1,40.1,0,0,1,17.73,18.8c.29,8.35.41,16.7.54,25,.07,4.92,0,9.83.06,14.75a7.34,7.34,0,0,1,0,.94,1.34,1.34,0,0,1-1.39,1.28,1.33,1.33,0,0,1-1.39-1.27,6,6,0,0,1,0-.95c-.06-10.65-.05-21.3-.22-31.95-.07-4.15-.6-8.29-.88-12.43-.05-.75-.35-.85-1-.85-3.59,0-7.18,0-10.77,0-1.79,0-2.1-.27-2.41-2-.06-.34-.15-.67-.22-1V7.11c.07-.26.17-.52.22-.79A7.1,7.1,0,0,1,6.2.21,15.35,15.35,0,0,1,8.74,0l61,0a6.64,6.64,0,0,1,6,3.19,23.4,23.4,0,0,1,1.65,3.28c.38.88.62,1.83.95,2.82l1.6-.93A39,39,0,0,1,94.61,3.24a2.17,2.17,0,0,1,2.2.85ZM31.35,82.48h54a23.41,23.41,0,0,0,2.36-.1,4.2,4.2,0,0,0,3.51-2.07,8,8,0,0,0,.64-5.45h-59C33.1,77.51,33,80.06,31.35,82.48ZM3,10.47H13.75c-.64-2.13-1.13-4.2-2.44-6A4.2,4.2,0,0,0,6.86,3,4.22,4.22,0,0,0,3.33,5.72,8.71,8.71,0,0,0,3,10.47Z"/><path class="cls-1" d="M34.4,18.27c-3.08,0-6.16,0-9.25,0a2.35,2.35,0,0,1-1.38-.42,1.34,1.34,0,0,1,.52-2.27,3.51,3.51,0,0,1,1.12-.12h18.5c1.16,0,1.85.57,1.83,1.45s-.68,1.38-1.8,1.38C40.76,18.28,37.58,18.27,34.4,18.27Z"/><path class="cls-1" d="M65.8,66c-1.66,0-3.33,0-5,0-1.11,0-1.75-.56-1.73-1.43s.64-1.38,1.7-1.39c3.3,0,6.61,0,9.91,0,1,0,1.68.58,1.69,1.41S71.72,66,70.62,66C69,66,67.41,66,65.8,66Z"/></g></g></g></svg>