<svg xmlns="http://www.w3.org/2000/svg" viewBox="0 0 1139.98 55.6"><defs><style>.cls-1{fill:none;stroke:#d8d8d8;stroke-linecap:round;stroke-miterlimit:8;stroke-width:1.41px;}.cls-2{fill:#80b727;}</style></defs><g id="Capa_2" data-name="Capa 2"><g id="Capa_3" data-name="Capa 3"><line class="cls-1" x1="0.71" y1="36.7" x2="95.58" y2="36.7"/><line class="cls-1" x1="95.76" y1="54.89" x2="95.76" y2="16.94"/><line class="cls-1" x1="95.76" y1="36.7" x2="285.51" y2="36.7"/><line class="cls-1" x1="285.86" y1="54.89" x2="285.86" y2="16.94"/><line class="cls-1" x1="285.86" y1="36.7" x2="475.61" y2="36.7"/><line class="cls-1" x1="475.97" y1="54.89" x2="475.97" y2="16.94"/><line class="cls-1" x1="475.03" y1="36.7" x2="664.78" y2="36.7"/><line class="cls-1" x1="665.13" y1="54.89" x2="665.13" y2="16.94"/><line class="cls-1" x1="665.13" y1="36.7" x2="854.88" y2="36.7"/><line class="cls-1" x1="855.24" y1="54.89" x2="855.24" y2="16.94"/><line class="cls-1" x1="854.3" y1="36.7" x2="1044.05" y2="36.7"/><line class="cls-1" x1="1045.34" y1="54.89" x2="1045.34" y2="16.94"/><line class="cls-1" x1="1044.4" y1="36.7" x2="1139.28" y2="36.7"/><ellipse class="cls-2" cx="96.23" cy="9.41" rx="8.94" ry="9.41"/><circle class="cls-2" cx="286.8" cy="9.41" r="9.41"/><circle class="cls-2" cx="475.97" cy="9.41" r="9.41"/><circle class="cls-2" cx="665.13" cy="9.41" r="9.41"/><circle class="cls-2" cx="854.3" cy="9.41" r="9.41"/><circle class="cls-2" cx="1043.46" cy="9.41" r="9.41"/></g></g></svg>