<svg xmlns="http://www.w3.org/2000/svg" viewBox="0 0 47.68 36.16"><defs><style>.cls-1{fill:#9f9f9f;}</style></defs><g id="Capa_2" data-name="Capa 2"><g id="Capa_1-2" data-name="Capa 1"><path class="cls-1" d="M47.58,12.67c0-.52-.08-1-.13-1.57-.09-1.22-.19-2.48-.35-3.72a8.21,8.21,0,0,0-1.49-3.86,7.47,7.47,0,0,0-5.81-3C36.39.27,32.87.06,29.31,0c-4.25,0-8.81,0-14.8.1-2.29.05-4.7.19-7.38.46A6.88,6.88,0,0,0,2.31,3.32,9.88,9.88,0,0,0,.39,8.66a107.67,107.67,0,0,0-.3,13.87l0,.72a28.19,28.19,0,0,0,.66,6.31,7.52,7.52,0,0,0,3.12,4.73,8.83,8.83,0,0,0,4.62,1.35l2.24.1c4.4.19,9,.38,13.42.42h.88c2.91,0,5.85-.11,8.71-.23l3.1-.11a28.61,28.61,0,0,0,3.93-.32c3.19-.54,5.26-2.55,6.14-6a22.39,22.39,0,0,0,.56-4.33l.19-2.83V13.81ZM44,25.15a14.92,14.92,0,0,1-.79,4.51,3.55,3.55,0,0,1-3.07,2.4c-1.72.2-3.49.28-5.27.37-6.68.31-13.9.31-22.08,0-1.7-.07-3.39-.21-4.82-.35a4.34,4.34,0,0,1-2.71-1.13,3.58,3.58,0,0,1-1-1.93,26.29,26.29,0,0,1-.54-3.69,122.43,122.43,0,0,1,0-14.47A15.06,15.06,0,0,1,4.4,6.72,3.87,3.87,0,0,1,8,4c1.72-.16,3.56-.26,6-.34,2.26-.08,4.53-.13,7.13-.19l3.76-.09,3.36.13,10.71.41a5.3,5.3,0,0,1,3.18,1,4.12,4.12,0,0,1,1.35,2.27A18,18,0,0,1,44,11.82l0,.82A124.06,124.06,0,0,1,44,25.15Z"/><path class="cls-1" d="M31.05,15.51,26.46,13l-5.4-2.95A2.41,2.41,0,0,0,18.64,10a2.45,2.45,0,0,0-1.12,2.19V22.94a2.49,2.49,0,0,0,1.11,2.22,2.17,2.17,0,0,0,1.09.29,2.88,2.88,0,0,0,1.35-.36l5.19-2.79L31,19.74a2.31,2.31,0,0,0,0-4.23Zm-3.45,2.1L21,21.14V14Z"/></g></g></svg>