<svg xmlns="http://www.w3.org/2000/svg" viewBox="0 0 190.8 42.28"><defs><style>.cls-1{fill:#b1cf44;}.cls-2{fill:#fff;}</style></defs><g id="Capa_2" data-name="Capa 2"><g id="Capa_1-2" data-name="Capa 1"><path class="cls-1" d="M115.57,26.81h-.93a.41.41,0,0,1-.43-.31,4.53,4.53,0,0,0-2.54-2.77,4.93,4.93,0,0,0-4.64.21,5.31,5.31,0,0,0-2.69,5.54,5,5,0,0,0,3.37,4.33A4.92,4.92,0,0,0,113,32.76a5.77,5.77,0,0,0,1.35-2,.38.38,0,0,1,.4-.3c.63,0,1.26,0,1.88,0,.35,0,.45.16.35.47A8.3,8.3,0,0,1,114.48,35a7.79,7.79,0,0,1-3.39,1.68,7,7,0,0,1-3.47-.06,7.45,7.45,0,0,1-3.3-1.78,8.23,8.23,0,0,1-2.43-4.05,7.55,7.55,0,0,1-.1-3.6,8.53,8.53,0,0,1,2.52-4.53,7.58,7.58,0,0,1,2.39-1.49,7.47,7.47,0,0,1,4.69-.31,7.38,7.38,0,0,1,4,2.57,8.31,8.31,0,0,1,1.43,2.81c.15.46,0,.59-.46.6Z"/><path class="cls-2" d="M104.34,15.64a30.45,30.45,0,0,0-.19-3.82,5.35,5.35,0,0,1,.21-2.66,1.39,1.39,0,0,1,1.72-.95,1.25,1.25,0,0,1,.91,1,24.88,24.88,0,0,1,.52,2.57,2.9,2.9,0,0,1-.22,1.33,5.75,5.75,0,0,0-.23,2.22c0,.93.11,1.86.17,2.79a.58.58,0,0,1-.28.6,2.84,2.84,0,0,0-.88.88,1.64,1.64,0,0,1-.85.61.67.67,0,0,1-1-.6,6.3,6.3,0,0,1,0-1.44C104.35,17.31,104.33,16.47,104.34,15.64Z"/><path class="cls-2" d="M112,9.83c-.09,1.07-.08,2.16-.08,3.24a2,2,0,0,0,.09.69,7,7,0,0,1,0,3.92,1.68,1.68,0,0,1-.89,1.2c-.54.29-1.67-.34-1.82-1a4.6,4.6,0,0,1-.07-1.43,10.28,10.28,0,0,0-.22-3.62,8.73,8.73,0,0,1,0-2.75,5.37,5.37,0,0,1,.32-1.77c.21-.51.49-1,1.09-1a1.42,1.42,0,0,1,1.3.87A3.27,3.27,0,0,1,112,9.83Z"/><path class="cls-2" d="M95.48,20a3.42,3.42,0,0,1,3.34,1.73c.59,1,1.11,2,1.63,3,.13.24.31.57.13.79s-.53,0-.78,0a7,7,0,0,0-2.17-.37,1.86,1.86,0,0,1-1.72-1c-.4-.67-1-1.18-1.38-1.86-.12-.21-.25-.42-.35-.64A1,1,0,0,1,95,20,3.27,3.27,0,0,1,95.48,20Z"/><path class="cls-2" d="M117.26,23.82a2.87,2.87,0,0,1,.52-1.32c.66-1.07,1.1-2.25,1.7-3.35a5,5,0,0,1,1.36-1.8,1.23,1.23,0,0,1,1.88.13.76.76,0,0,1,.19.75,7.47,7.47,0,0,1-1.09,2.36c-.51.8-1,1.6-1.44,2.44a3.69,3.69,0,0,1-2,1.71C117.75,25,117.24,24.57,117.26,23.82Z"/><path class="cls-2" d="M106.19,28.63a3.28,3.28,0,0,0,2.49,3.27c.27.07.38,0,.4-.27s.11-.39.44-.2l1.28.74c.23.13.29.26,0,.41l-1.37.79c-.21.12-.39.08-.33-.21s-.16-.45-.43-.5a3.89,3.89,0,0,1-2.36-1.44,4,4,0,0,1,1-5.94,4.19,4.19,0,0,1,5.87,1.52.64.64,0,0,0,.64.38c.85,0,1.69,0,2.54,0,.26,0,.55,0,.55.36s-.31.4-.56.37a19.56,19.56,0,0,0-2.76,0,.94.94,0,0,1-1-.59,3.28,3.28,0,0,0-3.16-1.9,3.18,3.18,0,0,0-3,1.91A2.66,2.66,0,0,0,106.19,28.63Z"/><path class="cls-2" d="M117.05,10.15a.83.83,0,0,1-.07.46,1.44,1.44,0,0,0-.18,1.16,1.69,1.69,0,0,1-.1.94,9.56,9.56,0,0,1-1.55,2.66c-.18.21-.28.17-.41,0a3.35,3.35,0,0,1-.48-2.36,11,11,0,0,0,0-1.91,3.12,3.12,0,0,1,.29-1.35,1,1,0,0,1,1.53-.61,2.62,2.62,0,0,1,.55.29A.83.83,0,0,1,117.05,10.15Z"/><path class="cls-2" d="M113.56,18.38a2.7,2.7,0,0,1,.89-2.09.45.45,0,0,1,.7.05c.29.32.59.63.89.94a.67.67,0,0,1,.09.87,3.94,3.94,0,0,1-.85,1c-.47.41-.9.1-1.33-.09A.63.63,0,0,1,113.56,18.38Z"/><path class="cls-2" d="M129.76,16.05a1.68,1.68,0,0,0-1.35.53,2.27,2.27,0,0,0-.47,1.52,2.16,2.16,0,0,0,.52,1.54,1.9,1.9,0,0,0,1.4.53,2.32,2.32,0,0,0,.8-.12,5.88,5.88,0,0,0,.62-.29,1.4,1.4,0,0,1,.31.38,1.24,1.24,0,0,1,.1.52.93.93,0,0,1-.52.8,3,3,0,0,1-1.58.33,4.82,4.82,0,0,1-1.44-.22A3.36,3.36,0,0,1,127,20.9a3.15,3.15,0,0,1-.79-1.14,4.21,4.21,0,0,1-.29-1.66,4,4,0,0,1,.28-1.57,3.19,3.19,0,0,1,1.9-1.86,4,4,0,0,1,1.39-.24,3.16,3.16,0,0,1,1.63.35,1,1,0,0,1,.58.88.88.88,0,0,1-.15.51,1.1,1.1,0,0,1-.34.34,3.51,3.51,0,0,0-.64-.33A2.06,2.06,0,0,0,129.76,16.05Z"/><path class="cls-2" d="M134,14.86a2.28,2.28,0,0,1,.58-.22,3.13,3.13,0,0,1,.8-.1,2.86,2.86,0,0,1,1,.16.93.93,0,0,1,.57.52c.13.4.28.86.44,1.39s.32,1.06.48,1.62.32,1.12.47,1.66.29,1,.4,1.45a1,1,0,0,1-.41.26,2.08,2.08,0,0,1-.65.09,2,2,0,0,1-.46,0,.81.81,0,0,1-.31-.14.68.68,0,0,1-.2-.24,2.2,2.2,0,0,1-.13-.34l-.2-.79h-2.07c-.06.23-.13.46-.19.71l-.18.71a3.37,3.37,0,0,1-.34.09,1.8,1.8,0,0,1-.43,0,1.46,1.46,0,0,1-.86-.2.62.62,0,0,1-.28-.55,1.19,1.19,0,0,1,0-.32l.1-.38c.05-.2.13-.46.22-.76s.2-.64.32-1,.23-.72.36-1.1.25-.72.37-1.05.22-.63.31-.89S133.89,15,134,14.86Zm1.37,1.47L135,17.4c-.14.39-.26.79-.36,1.19H136q-.17-.61-.33-1.2l-.3-1.06Z"/><path class="cls-2" d="M141.17,19.34v2.19a1.84,1.84,0,0,1-.39.07,4.91,4.91,0,0,1-.53,0,3.17,3.17,0,0,1-.47,0,.84.84,0,0,1-.33-.15.65.65,0,0,1-.2-.28,1.52,1.52,0,0,1-.07-.48V15.3a.54.54,0,0,1,.13-.37.9.9,0,0,1,.36-.21,4.24,4.24,0,0,1,.91-.2,9.48,9.48,0,0,1,1.1-.06,3.64,3.64,0,0,1,2.37.66,2.18,2.18,0,0,1,.8,1.79,2,2,0,0,1-.36,1.22,2.75,2.75,0,0,1-.87.77c.27.38.54.73.81,1.06a5.72,5.72,0,0,1,.63.89,1.13,1.13,0,0,1-.42.61,1.16,1.16,0,0,1-.68.21,1.35,1.35,0,0,1-.43-.06.88.88,0,0,1-.32-.16,1.18,1.18,0,0,1-.25-.25,2.57,2.57,0,0,1-.22-.32l-1-1.54Zm.72-1.52a1,1,0,0,0,.69-.23.8.8,0,0,0,.25-.65.79.79,0,0,0-.28-.66,1.42,1.42,0,0,0-.89-.22h-.27l-.23,0v1.72Z"/><path class="cls-2" d="M148.38,21.76h-.46l-.54,0-.56-.09a3.29,3.29,0,0,1-.5-.14.85.85,0,0,1-.63-.84V15.3a.49.49,0,0,1,.13-.37.9.9,0,0,1,.36-.21,4.33,4.33,0,0,1,1-.2,11.76,11.76,0,0,1,1.2-.06,4.29,4.29,0,0,1,2.26.49,1.67,1.67,0,0,1,.78,1.52,1.39,1.39,0,0,1-.29.88,1.77,1.77,0,0,1-.8.55,1.91,1.91,0,0,1,.95.58,1.5,1.5,0,0,1,.38,1.06,1.85,1.85,0,0,1-.84,1.68A4.46,4.46,0,0,1,148.38,21.76Zm-.75-4.4h.84a1.14,1.14,0,0,0,.71-.18.65.65,0,0,0,.22-.54.56.56,0,0,0-.25-.49,1.35,1.35,0,0,0-.77-.18H148a2.69,2.69,0,0,0-.35,0Zm0,2.79a2.11,2.11,0,0,0,.41.06l.48,0a1.36,1.36,0,0,0,.76-.19.63.63,0,0,0,.31-.59.58.58,0,0,0-.25-.53,1.45,1.45,0,0,0-.77-.16h-.94Z"/><path class="cls-2" d="M152,18.1a4,4,0,0,1,.28-1.57,3.21,3.21,0,0,1,.76-1.15,3.32,3.32,0,0,1,1.15-.71,4.32,4.32,0,0,1,2.84,0,3.32,3.32,0,0,1,1.15.71,3.11,3.11,0,0,1,.77,1.15,4,4,0,0,1,.28,1.57,4.34,4.34,0,0,1-.27,1.59,3.21,3.21,0,0,1-.76,1.15,3.29,3.29,0,0,1-1.15.7,4,4,0,0,1-1.44.25,4.19,4.19,0,0,1-1.44-.25,3.12,3.12,0,0,1-1.15-.72,3.19,3.19,0,0,1-.75-1.15A4.27,4.27,0,0,1,152,18.1Zm2.05,0a2.36,2.36,0,0,0,.43,1.56,1.52,1.52,0,0,0,2.27,0,2.42,2.42,0,0,0,.43-1.56,2.4,2.4,0,0,0-.42-1.54,1.4,1.4,0,0,0-1.14-.51,1.42,1.42,0,0,0-1.14.5A2.41,2.41,0,0,0,154,18.1Z"/><path class="cls-2" d="M166.17,21.34a1,1,0,0,1-.47.24,2.53,2.53,0,0,1-.72.09,2.36,2.36,0,0,1-.8-.13,1.09,1.09,0,0,1-.62-.6l-1.13-2.31c-.12-.24-.22-.46-.31-.67s-.19-.45-.3-.73l-.07,0c0,.41.05.83.05,1.25s0,.85,0,1.26v1.77a1.86,1.86,0,0,1-.38.07,4.38,4.38,0,0,1-.51,0,2.89,2.89,0,0,1-.45,0,.67.67,0,0,1-.32-.14.58.58,0,0,1-.19-.28,1.17,1.17,0,0,1-.07-.46V15a1,1,0,0,1,.49-.34,2.35,2.35,0,0,1,.71-.11,2.45,2.45,0,0,1,.81.13,1.14,1.14,0,0,1,.61.6l1.14,2.31c.12.24.22.46.31.67l.3.72h.05c0-.41-.05-.82-.05-1.23s0-.83,0-1.24V14.65a3,3,0,0,1,.38-.07l.51,0a1.43,1.43,0,0,1,.76.17.84.84,0,0,1,.27.74Z"/><path class="cls-2" d="M166.85,18.1a4.23,4.23,0,0,1,.28-1.57,3.23,3.23,0,0,1,.77-1.15,3.19,3.19,0,0,1,1.14-.71,4.35,4.35,0,0,1,2.85,0,3.32,3.32,0,0,1,1.15.71,3.23,3.23,0,0,1,.77,1.15,4,4,0,0,1,.28,1.57,4.34,4.34,0,0,1-.27,1.59,3.23,3.23,0,0,1-.77,1.15,3.16,3.16,0,0,1-1.14.7,4,4,0,0,1-1.44.25,4.29,4.29,0,0,1-1.45-.25,3.08,3.08,0,0,1-1.14-.72,3.19,3.19,0,0,1-.75-1.15A4.07,4.07,0,0,1,166.85,18.1Zm2.06,0a2.42,2.42,0,0,0,.42,1.56,1.53,1.53,0,0,0,2.28,0A2.42,2.42,0,0,0,172,18.1a2.4,2.4,0,0,0-.42-1.54,1.37,1.37,0,0,0-1.13-.51,1.39,1.39,0,0,0-1.14.5A2.35,2.35,0,0,0,168.91,18.1Z"/><path class="cls-2" d="M133.41,31.34a1.22,1.22,0,0,1-.52.28,3.26,3.26,0,0,1-.82.09,2.65,2.65,0,0,1-.9-.14,1.22,1.22,0,0,1-.7-.68l-1.28-2.61c-.13-.27-.24-.52-.35-.76s-.21-.51-.33-.82l-.08,0c0,.46,0,.93.06,1.42v3.42l-.43.08a5.44,5.44,0,0,1-.57,0,3.89,3.89,0,0,1-.51,0,.85.85,0,0,1-.36-.16.76.76,0,0,1-.22-.32,1.45,1.45,0,0,1-.08-.52V24.18a1.1,1.1,0,0,1,.56-.38,2.36,2.36,0,0,1,.8-.13,2.76,2.76,0,0,1,.91.15,1.22,1.22,0,0,1,.69.67l1.29,2.61c.13.27.25.52.35.76s.22.51.34.82h.06c0-.47,0-.93-.06-1.4s0-.93,0-1.39v-2.1a3.46,3.46,0,0,1,.43-.07,3.64,3.64,0,0,1,.57,0,1.51,1.51,0,0,1,.87.2c.2.13.29.41.29.83Z"/><path class="cls-2" d="M134.32,25a1.12,1.12,0,0,1,1.2-1.21h4.26a1.36,1.36,0,0,1,.16.38,1.57,1.57,0,0,1,.07.49,1,1,0,0,1-.21.7.8.8,0,0,1-.56.2h-2.73v1.2h2.91a1.86,1.86,0,0,1,.16.37,1.53,1.53,0,0,1,.07.49,1,1,0,0,1-.2.69.76.76,0,0,1-.56.21h-2.38v1.36h3.32a1.28,1.28,0,0,1,.16.37,1.61,1.61,0,0,1,.07.49,1,1,0,0,1-.21.71.76.76,0,0,1-.56.21h-3.77a1.11,1.11,0,0,1-1.2-1.2Z"/><path class="cls-2" d="M147.56,28.72a3.27,3.27,0,0,1-.24,1.27,2.73,2.73,0,0,1-.69,1,3.3,3.3,0,0,1-1.1.63,5,5,0,0,1-2.92,0,3.2,3.2,0,0,1-1.1-.63,2.73,2.73,0,0,1-.69-1,3.27,3.27,0,0,1-.24-1.27V23.78l.45-.07a4.22,4.22,0,0,1,.6,0,2.68,2.68,0,0,1,.52,0,1,1,0,0,1,.38.16.66.66,0,0,1,.23.33,1.37,1.37,0,0,1,.08.54v3.94a1.38,1.38,0,0,0,.34,1,1.21,1.21,0,0,0,.89.35,1.18,1.18,0,0,0,.89-.35,1.38,1.38,0,0,0,.34-1v-4.9l.45-.07a4,4,0,0,1,.59,0,2.68,2.68,0,0,1,.52,0,1.14,1.14,0,0,1,.39.16.73.73,0,0,1,.23.33,1.58,1.58,0,0,1,.08.54Z"/><path class="cls-2" d="M148.06,25.59a1.45,1.45,0,0,1-.17-.39,1.7,1.7,0,0,1-.08-.51A1,1,0,0,1,148,24a.84.84,0,0,1,.59-.21h5.63a2,2,0,0,1,.17.38,1.81,1.81,0,0,1,.07.52,1,1,0,0,1-.22.72.8.8,0,0,1-.59.22h-1.43v6l-.45.08q-.3,0-.6,0a2.68,2.68,0,0,1-.52,0,.88.88,0,0,1-.38-.16.75.75,0,0,1-.24-.33,1.57,1.57,0,0,1-.07-.54v-5Z"/><path class="cls-2" d="M157.07,29.08v2.48l-.44.08-.6,0a2.79,2.79,0,0,1-.53,0,.83.83,0,0,1-.37-.16.81.81,0,0,1-.23-.33,1.57,1.57,0,0,1-.07-.54V24.52a.61.61,0,0,1,.14-.42,1.09,1.09,0,0,1,.41-.24,4.55,4.55,0,0,1,1-.22,9.69,9.69,0,0,1,1.24-.08,4.15,4.15,0,0,1,2.69.75,2.51,2.51,0,0,1,.9,2,2.31,2.31,0,0,1-.41,1.37,3,3,0,0,1-1,.88c.31.42.61.82.91,1.19a7.62,7.62,0,0,1,.71,1,1.15,1.15,0,0,1-.47.69,1.3,1.3,0,0,1-.77.24,1.77,1.77,0,0,1-.49-.06,1.11,1.11,0,0,1-.36-.18,1.29,1.29,0,0,1-.28-.29,3.27,3.27,0,0,1-.25-.36l-1.08-1.74Zm.82-1.72a1.12,1.12,0,0,0,.77-.25,1,1,0,0,0,.29-.74.91.91,0,0,0-.32-.75,1.67,1.67,0,0,0-1-.25l-.31,0-.26,0v1.94Z"/><path class="cls-2" d="M163.68,24a2.71,2.71,0,0,1,.67-.25,3.48,3.48,0,0,1,.9-.12,3.32,3.32,0,0,1,1.14.19,1,1,0,0,1,.64.59c.15.45.32,1,.5,1.56l.55,1.84c.18.64.35,1.26.53,1.88l.45,1.63a1.08,1.08,0,0,1-.47.29,2.24,2.24,0,0,1-.73.11,2.58,2.58,0,0,1-.53,0,1,1,0,0,1-.35-.16.84.84,0,0,1-.22-.27,2.49,2.49,0,0,1-.14-.39l-.24-.89h-2.33l-.21.8c-.07.28-.14.55-.21.8a2.11,2.11,0,0,1-.38.11,2.14,2.14,0,0,1-.48,0,1.71,1.71,0,0,1-1-.23.72.72,0,0,1-.31-.62,1.12,1.12,0,0,1,.05-.36c0-.13.07-.27.11-.43s.15-.52.26-.87.22-.71.35-1.11l.41-1.24.42-1.19.35-1C163.54,24.4,163.62,24.17,163.68,24Zm1.55,1.66c-.12.36-.25.77-.4,1.21s-.29.89-.41,1.35H166c-.12-.47-.24-.92-.37-1.36s-.23-.84-.34-1.2Z"/><path class="cls-2" d="M170.54,31.65a1.11,1.11,0,0,1-1.2-1.2V23.77l.45-.07a4.28,4.28,0,0,1,.6-.05,2.7,2.7,0,0,1,.52.05.88.88,0,0,1,.38.16.75.75,0,0,1,.23.32,1.42,1.42,0,0,1,.08.55v5.1h3a2,2,0,0,1,.17.38,1.63,1.63,0,0,1,.07.5,1,1,0,0,1-.22.73.79.79,0,0,1-.58.21Z"/><path class="cls-2" d="M190.8,42.28H0V0H190.8ZM.31,42H190.49V.31H.31Z"/><rect class="cls-2" x="83.36" y="0.15" width="0.31" height="41.97"/><path class="cls-2" d="M16.93,25.28H15v3.15H13.67v-9h2.9a6.12,6.12,0,0,1,1.22.1,3.09,3.09,0,0,1,1,.39,1.74,1.74,0,0,1,.72.87,3.64,3.64,0,0,1,.25,1.46,3.91,3.91,0,0,1-.18,1.22,2.52,2.52,0,0,1-.46.88,2.73,2.73,0,0,1-.66.56,2.64,2.64,0,0,1-.74.32A3.22,3.22,0,0,1,16.93,25.28Zm-.6-4.78H15v3.67h1.73c1.17,0,1.75-.64,1.75-1.91A1.72,1.72,0,0,0,18,20.89,2.59,2.59,0,0,0,16.33,20.5Z"/><path class="cls-2" d="M27.57,28.43h-1.4l-1.92-3.55h-1.9v3.55H21.06v-9H24a3.84,3.84,0,0,1,2.32.6,2.42,2.42,0,0,1,.81,2.06,2.74,2.74,0,0,1-.43,1.5,2.86,2.86,0,0,1-1.22,1Zm-3.59-8H22.35v3.29H24.3a1.5,1.5,0,0,0,1.54-1.66,1.55,1.55,0,0,0-.47-1.2A2,2,0,0,0,24,20.42Z"/><path class="cls-2" d="M36,27.32a4.64,4.64,0,0,1-6.42,0,4.67,4.67,0,0,1-1.24-3.41,4.71,4.71,0,0,1,1.24-3.42,4.67,4.67,0,0,1,6.42,0,4.72,4.72,0,0,1,1.25,3.42A4.68,4.68,0,0,1,36,27.32Zm-.9-6a2.77,2.77,0,0,0-2.31-1,2.74,2.74,0,0,0-2.3,1,4,4,0,0,0-.81,2.58,4,4,0,0,0,.81,2.58,2.77,2.77,0,0,0,2.3,1,2.8,2.8,0,0,0,2.31-1,4,4,0,0,0,.8-2.58A4,4,0,0,0,35.08,21.33Z"/><path class="cls-2" d="M42.77,28.61a4.36,4.36,0,0,1-3.26-1.29,4.65,4.65,0,0,1-1.28-3.41A4.68,4.68,0,0,1,39.5,20.5a4.35,4.35,0,0,1,3.25-1.29,5.67,5.67,0,0,1,2.51.53l-.13,1.13-.35-.12-.39-.14L44,20.5l-.42-.1-.41-.06-.46,0a2.89,2.89,0,0,0-2.34,1,4,4,0,0,0-.83,2.58,3.88,3.88,0,0,0,.84,2.57,2.88,2.88,0,0,0,2.36,1h.37a2.5,2.5,0,0,0,.38-.06l.32-.06.35-.1.3-.09.33-.12a2.3,2.3,0,0,1,.3-.1l.13,1.13A5.94,5.94,0,0,1,42.77,28.61Z"/><path class="cls-2" d="M52.35,28.43H46.72v-9h5.51V20.5H48v2.65h3.41v1.11H48v3.06h4.4Z"/><path class="cls-2" d="M56.46,28.61a6.4,6.4,0,0,1-3-.58l.17-1.44a4.55,4.55,0,0,0,2.81.91A3.26,3.26,0,0,0,58,27.16a1.15,1.15,0,0,0,.61-1.06,1.22,1.22,0,0,0-.17-.64,1.43,1.43,0,0,0-.53-.5,3.52,3.52,0,0,0-.71-.34l-.93-.32L55.39,24c-.18-.07-.44-.17-.75-.32a2.35,2.35,0,0,1-.7-.45,2.19,2.19,0,0,1-.4-.58,1.79,1.79,0,0,1-.18-.81,2.46,2.46,0,0,1,.16-.89,2.91,2.91,0,0,1,.53-.83,2.43,2.43,0,0,1,1-.65,4.53,4.53,0,0,1,1.54-.24,7.29,7.29,0,0,1,1.61.18,4.75,4.75,0,0,1,1.23.44l-.13,1.3a6.3,6.3,0,0,0-2.59-.81,2.84,2.84,0,0,0-1.42.34,1.06,1.06,0,0,0-.61,1,1,1,0,0,0,.48.89,5.57,5.57,0,0,0,1.46.63l.54.18.51.17a3.23,3.23,0,0,1,.54.2l.44.23a1.78,1.78,0,0,1,.46.28l.32.33a1.4,1.4,0,0,1,.31.43c.05.14.1.31.15.5a2.35,2.35,0,0,1,.07.6,3.13,3.13,0,0,1-.06.63,2.3,2.3,0,0,1-.29.66,2,2,0,0,1-.58.62,3,3,0,0,1-1,.43A6.08,6.08,0,0,1,56.46,28.61Z"/><path class="cls-2" d="M68.55,27.32a4.64,4.64,0,0,1-6.42,0,4.67,4.67,0,0,1-1.24-3.41,4.71,4.71,0,0,1,1.24-3.42,4.67,4.67,0,0,1,6.42,0,4.72,4.72,0,0,1,1.25,3.42A4.68,4.68,0,0,1,68.55,27.32Zm-.9-6a2.77,2.77,0,0,0-2.31-1,2.74,2.74,0,0,0-2.3,1,4,4,0,0,0-.81,2.58A4,4,0,0,0,63,26.49a2.77,2.77,0,0,0,2.3,1,2.8,2.8,0,0,0,2.31-1,4,4,0,0,0,.8-2.58A4,4,0,0,0,67.65,21.33Z"/><path class="cls-2" d="M16.43,16.91h-3.2V11.77h3.13v.63H13.92v1.5h1.94v.64H13.92v1.74h2.51Z"/><path class="cls-2" d="M21.28,16.91h-.59L18,12.85v4.06h-.7V11.77h.78l2.51,3.8v-3.8h.7Z"/></g></g></svg>