<?xml version="1.0" encoding="utf-8"?>
<!-- Generator: Adobe Illustrator 25.0.1, SVG Export Plug-In . SVG Version: 6.00 Build 0)  -->
<svg version="1.1" id="Capa_1" xmlns="http://www.w3.org/2000/svg" xmlns:xlink="http://www.w3.org/1999/xlink" x="0px" y="0px"
	 viewBox="0 0 276 83" style="enable-background:new 0 0 276 83;" xml:space="preserve">
<style type="text/css">
	.st0{fill:#B0CE44;}
	.st1{fill:#FFFFFF;}
	.st2{fill:none;}
</style>
<g id="Capa_2_1_">
	<g id="Capa_1-2">
		<path class="st0" d="M158.2,47.2h-0.9c-0.2,0-0.4-0.1-0.4-0.3c-0.4-1.2-1.3-2.3-2.5-2.8c-1.5-0.7-3.2-0.6-4.6,0.2
			c-2,1.1-3.1,3.3-2.7,5.5c0.2,2,1.5,3.7,3.4,4.3c1.8,0.7,3.9,0.3,5.3-1c0.6-0.6,1-1.2,1.3-2c0-0.2,0.2-0.3,0.4-0.3
			c0.6,0,1.3,0,1.9,0c0.3,0,0.4,0.2,0.3,0.5c-0.4,1.6-1.3,3-2.5,4.1c-1,0.8-2.1,1.4-3.4,1.7c-1.1,0.3-2.3,0.3-3.5-0.1
			c-1.2-0.3-2.4-0.9-3.3-1.8c-1.2-1.1-2-2.5-2.4-4c-0.3-1.2-0.4-2.4-0.1-3.6c0.3-1.7,1.2-3.3,2.5-4.5c0.7-0.6,1.5-1.1,2.4-1.5
			c1.5-0.6,3.1-0.7,4.7-0.3c1.6,0.4,3,1.3,4,2.6c0.7,0.8,1.1,1.8,1.4,2.8c0.2,0.5,0,0.6-0.5,0.6L158.2,47.2z"/>
		<path class="st1" d="M146.9,36c0-1.3,0-2.6-0.2-3.8c-0.2-0.9-0.1-1.8,0.2-2.7c0.2-0.7,1-1.2,1.7-0.9c0.5,0.1,0.8,0.5,0.9,1
			c0.2,0.8,0.4,1.7,0.5,2.6c0,0.5,0,0.9-0.2,1.3c-0.2,0.7-0.3,1.5-0.2,2.2c0,0.9,0.1,1.9,0.2,2.8c0,0.2-0.1,0.5-0.3,0.6
			c-0.4,0.2-0.7,0.5-0.9,0.9c-0.2,0.3-0.5,0.5-0.8,0.6c-0.3,0.2-0.7,0.1-0.9-0.3c-0.1-0.1-0.1-0.2-0.1-0.3c-0.1-0.5-0.1-1,0-1.4
			C146.9,37.7,146.9,36.8,146.9,36z"/>
		<path class="st1" d="M154.6,30.2c-0.1,1.1-0.1,2.2-0.1,3.2c0,0.2,0,0.5,0.1,0.7c0.4,1.3,0.4,2.6,0,3.9c-0.1,0.5-0.4,1-0.9,1.2
			c-0.5,0.3-1.7-0.3-1.8-1c-0.1-0.5-0.1-1-0.1-1.4c0.1-1.2,0.1-2.4-0.2-3.6c-0.1-0.9-0.1-1.8,0-2.8c0-0.6,0.1-1.2,0.3-1.8
			c0.2-0.5,0.5-1,1.1-1c0.6,0,1.1,0.3,1.3,0.9C154.6,29.1,154.7,29.6,154.6,30.2z"/>
		<path class="st1" d="M138.1,40.4c1.4-0.1,2.7,0.5,3.3,1.7c0.6,1,1.1,2,1.6,3c0.1,0.2,0.3,0.6,0.1,0.8s-0.5,0-0.8,0
			c-0.7-0.2-1.4-0.4-2.2-0.4c-0.7,0-1.4-0.4-1.7-1c-0.4-0.7-1-1.2-1.4-1.9c-0.1-0.2-0.2-0.4-0.4-0.6c-0.4-0.4-0.3-1.1,0.1-1.4
			c0.2-0.2,0.5-0.3,0.7-0.2C137.8,40.3,137.9,40.3,138.1,40.4z"/>
		<path class="st1" d="M159.9,44.2c0.1-0.5,0.2-0.9,0.5-1.3c0.7-1.1,1.1-2.2,1.7-3.3c0.3-0.7,0.8-1.3,1.4-1.8c0.5-0.5,1.3-0.5,1.7,0
			c0.1,0,0.1,0.1,0.1,0.2c0.2,0.2,0.3,0.5,0.2,0.8c-0.2,0.8-0.6,1.6-1.1,2.4c-0.5,0.8-1,1.6-1.4,2.4c-0.4,0.8-1.1,1.4-2,1.7
			C160.4,45.4,159.8,44.9,159.9,44.2z"/>
		<path class="st1" d="M148.8,49c0,1.5,1,2.9,2.5,3.3c0.3,0.1,0.4,0,0.4-0.3c0-0.3,0.1-0.4,0.4-0.2l1.3,0.7c0.2,0.1,0.3,0.3,0,0.4
			l-1.4,0.8c-0.2,0.1-0.4,0.1-0.3-0.2s-0.2-0.5-0.4-0.5c-0.9-0.2-1.8-0.7-2.4-1.4c-1.4-1.7-1.1-4.2,0.6-5.6c0.1-0.1,0.3-0.2,0.4-0.3
			c2-1.2,4.5-0.6,5.8,1.3c0,0.1,0.1,0.1,0.1,0.2c0.1,0.3,0.4,0.4,0.6,0.4c0.8,0,1.7,0,2.5,0c0.3,0,0.6,0,0.6,0.4s-0.3,0.4-0.6,0.4
			c-0.9-0.1-1.8-0.1-2.8,0c-0.4,0.1-0.8-0.2-1-0.6c-0.6-1.2-1.8-2-3.2-1.9c-1.3,0-2.5,0.7-3,1.9C148.8,48.1,148.8,48.5,148.8,49z"/>
		<path class="st1" d="M159.6,30.5c0,0.2,0,0.3-0.1,0.5c-0.2,0.3-0.3,0.8-0.2,1.2c0.1,0.3,0,0.6-0.1,0.9c-0.4,1-0.9,1.9-1.6,2.7
			c-0.2,0.2-0.3,0.2-0.4,0c-0.4-0.7-0.6-1.5-0.5-2.4c0.1-0.6,0.1-1.3,0-1.9c0-0.5,0.1-0.9,0.3-1.4c0.1-0.5,0.7-0.9,1.2-0.8
			c0.1,0,0.2,0.1,0.3,0.1c0.2,0.1,0.4,0.2,0.6,0.3C159.5,29.9,159.6,30.2,159.6,30.5z"/>
		<path class="st1" d="M156.2,38.7c0-0.8,0.3-1.6,0.9-2.1c0.2-0.2,0.5-0.2,0.6,0c0,0,0,0,0.1,0.1c0.3,0.3,0.6,0.6,0.9,0.9
			c0.2,0.2,0.3,0.6,0.1,0.9c-0.2,0.4-0.5,0.7-0.8,1c-0.5,0.4-0.9,0.1-1.3-0.1C156.3,39.3,156.1,39,156.2,38.7z"/>
		<path class="st1" d="M172.4,36.4c-0.5,0-1,0.2-1.4,0.5c-0.3,0.4-0.5,1-0.5,1.5c0,0.6,0.2,1.1,0.5,1.5c0.4,0.4,0.9,0.6,1.4,0.5
			c0.3,0,0.5,0,0.8-0.1c0.2-0.1,0.4-0.2,0.6-0.3c0.1,0.1,0.2,0.2,0.3,0.4c0.1,0.2,0.1,0.3,0.1,0.5c0,0.3-0.2,0.6-0.5,0.8
			c-0.5,0.3-1,0.4-1.6,0.3c-0.5,0-1-0.1-1.4-0.2c-0.4-0.1-0.8-0.4-1.1-0.7c-0.3-0.3-0.6-0.7-0.8-1.1c-0.2-0.5-0.3-1.1-0.3-1.7
			c0-0.5,0.1-1.1,0.3-1.6c0.3-0.9,1-1.5,1.9-1.9c0.4-0.2,0.9-0.2,1.4-0.2c0.6,0,1.1,0.1,1.6,0.3c0.3,0.2,0.6,0.5,0.6,0.9
			c0,0.2,0,0.4-0.1,0.5c-0.1,0.1-0.2,0.3-0.3,0.3c-0.2-0.1-0.4-0.2-0.6-0.3C172.9,36.4,172.6,36.4,172.4,36.4z"/>
		<path class="st1" d="M176.6,35.2c0.2-0.1,0.4-0.2,0.6-0.2c0.3-0.1,0.5-0.1,0.8-0.1c0.3,0,0.7,0,1,0.2c0.3,0.1,0.5,0.3,0.6,0.5
			c0.1,0.4,0.3,0.9,0.4,1.4s0.3,1.1,0.5,1.6c0.2,0.6,0.3,1.1,0.5,1.7c0.1,0.5,0.3,1,0.4,1.5c-0.1,0.1-0.3,0.2-0.4,0.3
			c-0.2,0.1-0.4,0.1-0.6,0.1c-0.2,0-0.3,0-0.5,0c-0.1,0-0.2-0.1-0.3-0.1c-0.1-0.1-0.2-0.1-0.2-0.2c-0.1-0.1-0.1-0.2-0.1-0.3
			l-0.2-0.8h-2.1c-0.1,0.2-0.1,0.5-0.2,0.7l-0.2,0.7c-0.1,0-0.2,0.1-0.3,0.1c-0.1,0-0.3,0-0.4,0c-0.3,0-0.6,0-0.9-0.2
			c-0.2-0.1-0.3-0.3-0.3-0.5c0-0.1,0-0.2,0-0.3l0.1-0.4c0.1-0.2,0.1-0.5,0.2-0.8c0.1-0.3,0.2-0.6,0.3-1c0.1-0.4,0.2-0.7,0.4-1.1
			s0.2-0.7,0.4-1c0.1-0.3,0.2-0.6,0.3-0.9C176.4,35.5,176.5,35.4,176.6,35.2z M178,36.7l-0.4,1.1c-0.1,0.4-0.3,0.8-0.4,1.2h1.4
			c-0.1-0.4-0.2-0.8-0.3-1.2L178,36.7z"/>
		<path class="st1" d="M183.8,39.7v2.2c-0.1,0-0.3,0.1-0.4,0.1c-0.2,0-0.4,0-0.5,0c-0.2,0-0.3,0-0.5,0c-0.1,0-0.2-0.1-0.3-0.2
			c-0.1-0.1-0.2-0.2-0.2-0.3c0-0.2-0.1-0.3-0.1-0.5v-5.4c0-0.1,0-0.3,0.1-0.4c0.1-0.1,0.2-0.2,0.4-0.2c0.3-0.1,0.6-0.2,0.9-0.2
			c0.4,0,0.7-0.1,1.1-0.1c0.8-0.1,1.7,0.2,2.4,0.7c0.5,0.4,0.8,1.1,0.8,1.8c0,0.4-0.1,0.9-0.4,1.2c-0.2,0.3-0.5,0.6-0.9,0.8
			c0.3,0.4,0.5,0.7,0.8,1.1c0.2,0.3,0.4,0.6,0.6,0.9c-0.1,0.2-0.2,0.5-0.4,0.6c-0.2,0.1-0.4,0.2-0.7,0.2c-0.1,0-0.3,0-0.4-0.1
			c-0.1,0-0.2-0.1-0.3-0.2c-0.1-0.1-0.2-0.2-0.2-0.2c-0.1-0.1-0.2-0.2-0.2-0.3l-1-1.5H183.8z M184.5,38.2c0.3,0,0.5-0.1,0.7-0.2
			c0.2-0.2,0.3-0.4,0.2-0.6c0-0.3-0.1-0.5-0.3-0.7c-0.3-0.2-0.6-0.2-0.9-0.2H184h-0.2v1.7L184.5,38.2z"/>
		<path class="st1" d="M191,42.1h-0.5H190l-0.6-0.1c-0.2,0-0.3-0.1-0.5-0.1c-0.4-0.1-0.6-0.4-0.6-0.8v-5.4c0-0.1,0-0.3,0.1-0.4
			c0.1-0.1,0.2-0.2,0.4-0.2c0.3-0.1,0.7-0.2,1-0.2c0.4,0,0.8-0.1,1.2-0.1c0.8,0,1.6,0.1,2.3,0.5c0.5,0.3,0.8,0.9,0.8,1.5
			c0,0.3-0.1,0.6-0.3,0.9c-0.2,0.3-0.5,0.4-0.8,0.5c0.4,0.1,0.7,0.3,1,0.6c0.3,0.3,0.4,0.7,0.4,1.1c0,0.7-0.3,1.3-0.8,1.7
			C192.7,42,191.8,42.2,191,42.1z M190.2,37.7h0.8c0.3,0,0.5,0,0.7-0.2c0.2-0.1,0.2-0.3,0.2-0.5c0-0.2-0.1-0.4-0.2-0.5
			c-0.2-0.1-0.5-0.2-0.8-0.2h-0.4c-0.1,0-0.2,0-0.4,0L190.2,37.7z M190.2,40.5c0.1,0,0.3,0.1,0.4,0.1h0.5c0.3,0,0.5-0.1,0.8-0.2
			c0.2-0.1,0.3-0.4,0.3-0.6c0-0.2-0.1-0.4-0.2-0.5c-0.2-0.1-0.5-0.2-0.8-0.2h-0.9L190.2,40.5z"/>
		<path class="st1" d="M194.6,38.5c0-0.5,0.1-1.1,0.3-1.6c0.2-0.4,0.4-0.8,0.8-1.2c0.3-0.3,0.7-0.6,1.1-0.7c0.9-0.3,1.9-0.3,2.8,0
			c0.4,0.2,0.8,0.4,1.1,0.7c0.3,0.3,0.6,0.7,0.8,1.2c0.2,0.5,0.3,1,0.3,1.6c0,0.5-0.1,1.1-0.3,1.6c-0.2,0.4-0.4,0.8-0.8,1.1
			c-0.3,0.3-0.7,0.5-1.1,0.7c-0.5,0.2-0.9,0.3-1.4,0.2c-0.5,0-1-0.1-1.4-0.2c-0.4-0.2-0.8-0.4-1.1-0.7c-0.3-0.3-0.6-0.7-0.8-1.2
			C194.7,39.5,194.6,39,194.6,38.5z M196.6,38.5c0,0.6,0.1,1.1,0.4,1.6c0.6,0.6,1.5,0.7,2.1,0.1c0,0,0.1-0.1,0.1-0.1
			c0.3-0.5,0.5-1,0.4-1.6c0-0.5-0.1-1.1-0.4-1.5c-0.3-0.3-0.7-0.5-1.1-0.5c-0.4,0-0.9,0.2-1.1,0.5C196.7,37.4,196.6,37.9,196.6,38.5
			L196.6,38.5z"/>
		<path class="st1" d="M208.8,41.7c-0.1,0.1-0.3,0.2-0.5,0.2c-0.2,0.1-0.5,0.1-0.7,0.1c-0.3,0-0.5,0-0.8-0.1
			c-0.3-0.1-0.5-0.3-0.6-0.6L205,39c-0.1-0.2-0.2-0.5-0.3-0.7c-0.1-0.2-0.2-0.5-0.3-0.7h-0.1c0,0.4,0.1,0.8,0.1,1.2
			c0,0.4,0,0.8,0,1.3v1.8c-0.1,0-0.3,0.1-0.4,0.1c-0.2,0-0.3,0-0.5,0c-0.1,0-0.3,0-0.4,0c-0.1,0-0.2-0.1-0.3-0.1
			c-0.1-0.1-0.2-0.2-0.2-0.3c-0.1-0.1-0.1-0.3-0.1-0.5v-5.7c0.1-0.2,0.3-0.3,0.5-0.3c0.2-0.1,0.5-0.1,0.7-0.1c0.3,0,0.5,0,0.8,0.1
			c0.3,0.1,0.5,0.3,0.6,0.6l1.1,2.3c0.1,0.2,0.2,0.5,0.3,0.7l0.3,0.7h0.1c0-0.4-0.1-0.8-0.1-1.2s0-0.8,0-1.2V35
			c0.1,0,0.3-0.1,0.4-0.1h0.5c0.3,0,0.5,0,0.8,0.2c0.2,0.2,0.3,0.5,0.3,0.7V41.7z"/>
		<path class="st1" d="M209.5,38.5c0-0.5,0.1-1.1,0.3-1.6c0.2-0.4,0.4-0.8,0.8-1.2c0.3-0.3,0.7-0.6,1.1-0.7c0.9-0.3,1.9-0.3,2.9,0
			c0.4,0.2,0.8,0.4,1.1,0.7c0.3,0.3,0.6,0.7,0.8,1.2c0.2,0.5,0.3,1,0.3,1.6c0,0.5-0.1,1.1-0.3,1.6c-0.2,0.4-0.4,0.8-0.8,1.1
			c-0.3,0.3-0.7,0.6-1.1,0.7c-0.5,0.2-0.9,0.3-1.4,0.2c-0.5,0-1-0.1-1.5-0.2c-0.4-0.2-0.8-0.4-1.1-0.7c-0.3-0.3-0.6-0.7-0.8-1.2
			C209.5,39.5,209.4,39,209.5,38.5z M211.5,38.5c0,0.6,0.1,1.1,0.4,1.6c0.6,0.6,1.5,0.7,2.2,0.1c0,0,0.1-0.1,0.1-0.1
			c0.3-0.5,0.4-1,0.4-1.6c0-0.5-0.1-1.1-0.4-1.5c-0.3-0.3-0.7-0.5-1.1-0.5c-0.4,0-0.9,0.2-1.1,0.5C211.6,37.4,211.5,37.9,211.5,38.5
			z"/>
		<path class="st1" d="M176,51.7c-0.1,0.1-0.3,0.2-0.5,0.3c-0.3,0.1-0.5,0.1-0.8,0.1c-0.3,0-0.6,0-0.9-0.1c-0.3-0.1-0.6-0.4-0.7-0.7
			l-1.3-2.6c-0.1-0.3-0.2-0.5-0.4-0.8c-0.1-0.2-0.2-0.5-0.3-0.8H171c0,0.5,0,0.9,0.1,1.4v3.4l-0.4,0.1c-0.2,0-0.4,0-0.6,0
			c-0.2,0-0.3,0-0.5,0c-0.1,0-0.3-0.1-0.4-0.2c-0.1-0.1-0.2-0.2-0.2-0.3c-0.1-0.2-0.1-0.3-0.1-0.5v-6.4c0.1-0.2,0.3-0.3,0.6-0.4
			c0.3-0.1,0.5-0.1,0.8-0.1c0.3,0,0.6,0,0.9,0.2c0.3,0.1,0.6,0.4,0.7,0.7l1.3,2.6c0.1,0.3,0.2,0.5,0.4,0.8c0.1,0.2,0.2,0.5,0.3,0.8
			h0.1c0-0.5,0-0.9-0.1-1.4c-0.1-0.5,0-0.9,0-1.4v-2.1c0.1,0,0.3-0.1,0.4-0.1c0.2,0,0.4,0,0.6,0c0.3,0,0.6,0,0.9,0.2
			c0.2,0.1,0.3,0.4,0.3,0.8L176,51.7z"/>
		<path class="st1" d="M176.9,45.4c-0.1-0.6,0.4-1.2,1-1.2c0.1,0,0.1,0,0.2,0h4.3c0.1,0.1,0.1,0.2,0.2,0.4c0,0.2,0.1,0.3,0.1,0.5
			c0,0.3-0.1,0.5-0.2,0.7c-0.2,0.1-0.4,0.2-0.6,0.2h-2.7v1.2h2.9c0.1,0.1,0.1,0.2,0.2,0.4c0,0.2,0.1,0.3,0.1,0.5
			c0,0.2-0.1,0.5-0.2,0.7c-0.2,0.1-0.4,0.2-0.6,0.2h-2.4v1.4h3.3c0.1,0.1,0.1,0.2,0.2,0.4c0,0.2,0.1,0.3,0.1,0.5
			c0,0.3-0.1,0.5-0.2,0.7c-0.2,0.1-0.4,0.2-0.6,0.2h-3.8c-0.6,0.1-1.1-0.4-1.2-1c0-0.1,0-0.1,0-0.2L176.9,45.4z"/>
		<path class="st1" d="M190.2,49.1c0,0.4-0.1,0.9-0.2,1.3c-0.2,0.4-0.4,0.7-0.7,1c-0.3,0.3-0.7,0.5-1.1,0.6c-1,0.3-2,0.3-2.9,0
			c-0.4-0.1-0.8-0.3-1.1-0.6c-0.3-0.3-0.5-0.6-0.7-1c-0.2-0.4-0.2-0.8-0.2-1.3v-4.9l0.5-0.1c0.2,0,0.4,0,0.6,0c0.2,0,0.3,0,0.5,0
			c0.1,0,0.3,0.1,0.4,0.2c0.1,0.1,0.2,0.2,0.2,0.3c0.1,0.2,0.1,0.4,0.1,0.5V49c0,0.4,0.1,0.7,0.3,1c0.2,0.2,0.6,0.4,0.9,0.3
			c0.3,0,0.7-0.1,0.9-0.3c0.2-0.3,0.4-0.6,0.3-1v-4.9l0.5-0.1c0.2,0,0.4,0,0.6,0c0.2,0,0.3,0,0.5,0c0.1,0,0.3,0.1,0.4,0.2
			c0.1,0.1,0.2,0.2,0.2,0.3c0.1,0.2,0.1,0.4,0.1,0.5L190.2,49.1z"/>
		<path class="st1" d="M190.7,45.9c-0.1-0.1-0.1-0.3-0.2-0.4c-0.1-0.2-0.1-0.3-0.1-0.5c0-0.2,0-0.5,0.2-0.7c0.2-0.1,0.4-0.2,0.6-0.2
			h5.6c0.1,0.1,0.1,0.2,0.2,0.4c0,0.2,0.1,0.3,0.1,0.5c0,0.3-0.1,0.5-0.2,0.7c-0.2,0.2-0.4,0.2-0.6,0.2h-1.4v6l-0.4,0.1
			c-0.2,0-0.4,0-0.6,0c-0.2,0-0.3,0-0.5,0c-0.1,0-0.3-0.1-0.4-0.2c-0.1-0.1-0.2-0.2-0.2-0.3c-0.1-0.2-0.1-0.4-0.1-0.5v-5L190.7,45.9
			z"/>
		<path class="st1" d="M199.7,49.4v2.5l-0.4,0.1h-0.6c-0.2,0-0.4,0-0.5,0c-0.1,0-0.3-0.1-0.4-0.2c-0.1-0.1-0.2-0.2-0.2-0.3
			c-0.1-0.2-0.1-0.4-0.1-0.5v-6.1c0-0.2,0-0.3,0.1-0.4c0.1-0.1,0.3-0.2,0.4-0.2c0.3-0.1,0.7-0.2,1-0.2c0.4-0.1,0.8-0.1,1.2-0.1
			c1-0.1,1.9,0.2,2.7,0.8c0.6,0.5,0.9,1.2,0.9,2c0,0.5-0.1,1-0.4,1.4c-0.3,0.4-0.6,0.7-1,0.9c0.3,0.4,0.6,0.8,0.9,1.2
			c0.3,0.3,0.5,0.6,0.7,1c-0.1,0.3-0.2,0.5-0.5,0.7c-0.2,0.2-0.5,0.2-0.8,0.2c-0.2,0-0.3,0-0.5-0.1c-0.1,0-0.3-0.1-0.4-0.2
			c-0.1-0.1-0.2-0.2-0.3-0.3c-0.1-0.1-0.2-0.2-0.2-0.4l-1.1-1.7L199.7,49.4z M200.5,47.7c0.3,0,0.6-0.1,0.8-0.2
			c0.2-0.2,0.3-0.5,0.3-0.7c0-0.3-0.1-0.6-0.3-0.8c-0.3-0.2-0.6-0.3-1-0.2h-0.3h-0.3v1.9L200.5,47.7z"/>
		<path class="st1" d="M206.3,44.4c0.2-0.1,0.4-0.2,0.7-0.2c0.3-0.1,0.6-0.1,0.9-0.1c0.4,0,0.8,0.1,1.1,0.2c0.3,0.1,0.5,0.3,0.6,0.6
			c0.1,0.5,0.3,1,0.5,1.6l0.6,1.8c0.2,0.6,0.4,1.3,0.5,1.9l0.4,1.6c-0.1,0.1-0.3,0.2-0.5,0.3c-0.2,0.1-0.5,0.1-0.7,0.1
			c-0.2,0-0.4,0-0.5,0c-0.1,0-0.2-0.1-0.4-0.2c-0.1-0.1-0.2-0.2-0.2-0.3c-0.1-0.1-0.1-0.3-0.1-0.4l-0.2-0.9h-2.3l-0.2,0.8
			c-0.1,0.3-0.1,0.5-0.2,0.8c-0.1,0-0.3,0.1-0.4,0.1c-0.2,0-0.3,0-0.5,0c-0.3,0-0.7-0.1-1-0.2c-0.2-0.1-0.3-0.4-0.3-0.6
			c0-0.1,0-0.2,0-0.4c0-0.1,0.1-0.3,0.1-0.4c0-0.2,0.1-0.5,0.3-0.9c0.1-0.4,0.2-0.7,0.4-1.1l0.4-1.2l0.4-1.2l0.4-1
			C206.1,44.8,206.2,44.5,206.3,44.4z M207.8,46c-0.1,0.4-0.2,0.8-0.4,1.2s-0.3,0.9-0.4,1.4h1.6c-0.1-0.5-0.2-0.9-0.4-1.4
			C208.1,46.8,208,46.4,207.8,46L207.8,46z"/>
		<path class="st1" d="M213.1,52c-0.6,0.1-1.1-0.4-1.2-1c0-0.1,0-0.1,0-0.2v-6.7l0.4-0.1c0.2,0,0.4,0,0.6,0c0.2,0,0.3,0,0.5,0
			c0.1,0,0.3,0.1,0.4,0.2c0.1,0.1,0.2,0.2,0.2,0.3c0.1,0.2,0.1,0.4,0.1,0.5v5.1h3c0.1,0.1,0.1,0.2,0.2,0.4c0,0.2,0.1,0.3,0.1,0.5
			c0,0.3-0.1,0.5-0.2,0.7c-0.2,0.1-0.4,0.2-0.6,0.2L213.1,52z"/>
		<path class="st1" d="M233.4,62.6H42.6V20.4h190.8V62.6z M42.9,62.4h190.2V20.7H42.9V62.4z"/>
		<rect x="126" y="20.5" class="st1" width="0.3" height="42"/>
		<path class="st1" d="M57,39.5h-1.1v-5.8H57V39.5z"/>
		<path class="st1" d="M62.6,39.5h-1.4l-2-4.7c0.1,0.8,0.1,1.5,0.2,2.3v2.3h-1v-5.8h1.4l2,4.7c-0.1-0.7-0.1-1.3-0.2-2v-2.7h1
			L62.6,39.5z"/>
		<path class="st1" d="M62.3,44.5c0,2-1.4,2.9-3.4,2.9h-1v3h-1.7v-8.6h2.5C60.9,41.7,62.3,42.6,62.3,44.5z M60.6,44.5
			c0-1.1-0.7-1.5-1.8-1.5h-0.9v3.2h0.9C59.9,46.1,60.6,45.7,60.6,44.5z"/>
		<path class="st1" d="M66.3,46.9h-1.1v3.5h-1.7v-8.7h2.6c2.3,0,3.4,0.8,3.4,2.5c0,1.1-0.7,2.1-1.8,2.4l2.3,3.8h-1.9L66.3,46.9z
			 M65.3,45.7h1c1,0,1.6-0.4,1.6-1.5c0-1-0.5-1.3-1.8-1.3h-0.9L65.3,45.7z"/>
		<path class="st1" d="M78.2,46c0,2.9-1.5,4.5-3.8,4.5c-2.3,0-3.8-1.6-3.8-4.5s1.5-4.5,3.8-4.5S78.2,43.1,78.2,46z M72.4,46
			c0,2.3,0.8,3.2,2.1,3.2s2-0.9,2-3.3c0-2.3-0.7-3.2-2-3.2S72.4,43.7,72.4,46L72.4,46z"/>
		<path class="st1" d="M86,42.5l-0.9,0.9c-0.5-0.5-1.1-0.7-1.8-0.7c-1.2,0-2.3,0.9-2.3,3.2c0,2.3,0.7,3.3,2,3.3c0.5,0,1-0.1,1.4-0.3
			v-2.2h-1.3L83,45.5h3.1v4.2c-0.9,0.6-1.9,0.9-3,0.9c-2.5,0-3.8-1.6-3.8-4.5s1.8-4.5,4-4.5C84.3,41.5,85.3,41.8,86,42.5z"/>
		<path class="st1" d="M90.5,46.9h-1v3.5h-1.7v-8.7h2.6c2.3,0,3.4,0.8,3.4,2.5c0,1.1-0.7,2.1-1.8,2.4l2.3,3.8h-1.9L90.5,46.9z
			 M89.5,45.7h1c1,0,1.6-0.4,1.6-1.5c0-1-0.5-1.3-1.7-1.3h-0.9L89.5,45.7z"/>
		<path class="st1" d="M100.3,42.9h-3.2v2.4h2.8v1.2h-2.8v2.5h3.4v1.2h-5.1v-8.7h5L100.3,42.9z"/>
		<path class="st1" d="M107.3,42.6l-0.8,0.9c-0.5-0.5-1.2-0.7-1.9-0.7c-0.8,0-1.3,0.3-1.3,1c0,0.6,0.3,0.9,1.8,1.3s2.6,1.1,2.6,2.8
			s-1.2,2.7-3.3,2.7c-1.2,0.1-2.3-0.4-3.2-1.2l0.9-1c0.6,0.6,1.4,0.9,2.2,0.9c0.9,0,1.6-0.5,1.6-1.3c0-0.8-0.4-1-1.7-1.5
			c-1.8-0.6-2.6-1.3-2.6-2.6s1.2-2.4,2.9-2.4C105.5,41.4,106.5,41.8,107.3,42.6z"/>
		<path class="st1" d="M114.2,42.6l-0.8,0.9c-0.5-0.5-1.2-0.7-1.9-0.7c-0.8,0-1.3,0.3-1.3,1c0,0.6,0.3,0.9,1.8,1.3s2.6,1.1,2.6,2.7
			c0,1.6-1.2,2.7-3.3,2.7c-1.2,0-2.3-0.4-3.1-1.2l0.8-1c0.6,0.6,1.4,0.9,2.2,0.9c0.9,0,1.6-0.5,1.6-1.3c0-0.8-0.4-1-1.7-1.5
			c-1.8-0.6-2.6-1.3-2.6-2.6s1.2-2.4,3-2.4C112.4,41.4,113.4,41.8,114.2,42.6z"/>
	</g>
</g>
<rect y="0" class="st2" width="276" height="83"/>
</svg>
