<svg xmlns="http://www.w3.org/2000/svg" viewBox="0 0 123.59 123.64"><defs><style>.cls-1{fill:#e3152b;}.cls-2{fill:#fefefe;}.cls-3{fill:#c21f33;}.cls-4{fill:#fff;}</style></defs><g id="Capa_2" data-name="Capa 2"><g id="Capa_1-2" data-name="Capa 1"><path class="cls-1" d="M.05,0H123.54a.82.82,0,0,1,0,.44V123.16a1.33,1.33,0,0,1,0,.44.93.93,0,0,1-.44,0H.51c-.55,0-.5.07-.5-.48V.44A.83.83,0,0,1,.05,0Z"/><path class="cls-2" d="M79.72,53.44V54q0,20.28,0,40.56a.67.67,0,0,1-.58.77c-2.34.68-4.67,1.38-7,2.08L60.35,101c-1,.28-1.89.56-2.83.86-.27.08-.32,0-.31-.25,0-.47,0-.94,0-1.41q0-16.64,0-33.28a.71.71,0,0,1,.42-.72c2.68-1.53,5.35-3.08,8-4.62l10.36-6,3.43-2Z"/><path class="cls-2" d="M32.41,53.42l3.34,1.91,6.09,3.52,10.08,5.82,2.55,1.49a.51.51,0,0,1,.3.5q0,17.43,0,34.86c0,.35-.1.36-.38.28-4.58-1.39-9.16-2.76-13.74-4.14-2.55-.77-5.1-1.56-7.66-2.31a.69.69,0,0,1-.59-.8q0-20.26,0-40.53Z"/><path class="cls-2" d="M30,53.37a1,1,0,0,1,.06.55q0,21.49,0,43c0,.36.08.5.44.6,2.71.74,5.4,1.5,8.1,2.26l12.88,3.59c1,.28,2,.66,3.08.84a6.67,6.67,0,0,0,3.2-.07c3-1,6.08-1.94,9.12-2.92l10.91-3.53c1.31-.43,2.61-.87,3.92-1.27.34-.1.41-.27.41-.6q0-20.29,0-40.61V53.33l1.25,1a3.56,3.56,0,0,0,.53.43A1.26,1.26,0,0,1,84.52,56q0,20.79,0,41.59c0,.22,0,.42-.28.51-3.49,1-6.92,2.15-10.38,3.25l-9.9,3.13-6.2,2a2.84,2.84,0,0,1-.71.11c-2.17.25-4.17-.49-6.21-1.06l-11.37-3.13c-3.83-1.06-7.66-2.13-11.49-3.18-.31-.08-.32-.25-.32-.49q0-6,0-12,0-15.52,0-31.06a.79.79,0,0,1,.36-.73C28.67,54.43,29.31,53.9,30,53.37Z"/><path class="cls-2" d="M94.58,103.67c-.36-1.28-.68-2.45-1-3.61-.5-1.78-1-3.55-1.53-5.32a2,2,0,0,1-.08-.6q0-18.21,0-36.44c0-.37.1-.44.45-.43q2.2,0,4.41,0c.36,0,.44.09.44.44q0,14.06,0,28.1c0,2.7,0,5.4,0,8.1a4.39,4.39,0,0,1-.23,1.3l-2.31,8.12C94.68,103.41,94.65,103.48,94.58,103.67Z"/><path class="cls-2" d="M20.49,17.91c0,2.31,0,4.61,0,6.92,0,.32.09.42.41.41.57,0,1.14,0,1.7,0,.21,0,.29.05.28.27,0,1,0,1.92,0,2.87,0,.25-.09.3-.31.29-.58,0-1.16,0-1.74,0-.27,0-.34.09-.33.34,0,1.61,0,3.22,0,4.82,0,.36-.1.45-.45.45-1.08,0-2.16,0-3.24,0-.31,0-.41-.07-.41-.4,0-1.56,0-3.13,0-4.69,0-.39-.06-.52-.49-.51-2.08,0-4.16,0-6.23,0-.34,0-.48-.09-.43-.43a2.17,2.17,0,0,0,0-.36c0-3,0-3,1.23-5.7,1.11-2.51,2.15-5.05,3.22-7.58.53-1.25,1.08-2.5,1.6-3.75a.36.36,0,0,1,.39-.26c1.49,0,3,0,4.45,0,.34,0,.32.17.32.4Z"/><path class="cls-2" d="M94.6,55.22c-.78,0-1.56,0-2.34,0-.25,0-.32-.07-.32-.32,0-.89,0-1.78,0-2.67a2.64,2.64,0,0,1,5.27-.07c0,.93,0,1.86,0,2.79,0,.23-.09.27-.29.27Z"/><path class="cls-3" d="M16.39,15.3c0,.22,0,.32,0,.42q0,4.56,0,9.11c0,.32-.08.41-.4.41-.95,0-1.89,0-2.84,0-.27,0-.35,0-.24-.33l3.3-9.25Z"/><path class="cls-4" d="M32.47,12A2.17,2.17,0,0,1,34.81,9.5,2.18,2.18,0,0,1,37.15,12v5.1a2.87,2.87,0,0,1-.3,1.38c.07.18.18.21.44.21h.14V20h-.21a1.35,1.35,0,0,1-1.33-.67,3.26,3.26,0,0,1-1.08.18,2.18,2.18,0,0,1-2.34-2.47ZM34,17.16c0,.7.31,1,.8,1s.8-.27.8-1V11.87c0-.7-.31-1-.8-1s-.8.27-.8,1Z"/><path class="cls-4" d="M39.61,9.61v7.57c0,.7.31.95.8.95s.8-.25.8-.95V9.61h1.45v7.47c0,1.57-.78,2.46-2.3,2.46s-2.29-.89-2.29-2.46V9.61Z"/><path class="cls-4" d="M48.7,19.42H47.14l-.26-1.78H45l-.27,1.78H43.3l1.57-9.81h2.26Zm-3.52-3.11h1.49l-.75-5Z"/><path class="cls-4" d="M49.41,9.61H51V18h2.54v1.4H49.41Z"/><path class="cls-4" d="M54.16,9.61H55.7v9.81H54.16Z"/><path class="cls-4" d="M56.37,9.61h4.76V11H59.52v8.41H58V11H56.37Z"/><path class="cls-4" d="M63.24,16.17l-2-6.56h1.62l1.17,4.47,1.18-4.47h1.47l-2,6.56v3.25H63.24Z"/><path class="cls-4" d="M34.14,28.54h2.11v1.4H34.14v2.88H36.8v1.4H32.59V24.41H36.8v1.4H34.14Z"/><path class="cls-4" d="M37.75,24.41h2.43c1.54,0,2.3.86,2.3,2.43v4.95c0,1.57-.76,2.43-2.3,2.43H37.75Zm1.54,1.4v7h.87c.49,0,.78-.26.78-1v-5.1c0-.7-.29-1-.78-1Z"/><path class="cls-4" d="M44.93,24.41V32c0,.7.31.95.8.95s.8-.25.8-.95V24.41H48v7.47c0,1.57-.78,2.46-2.29,2.46s-2.3-.89-2.3-2.46V24.41Z"/><path class="cls-4" d="M53.5,30.56v1.3c0,1.57-.79,2.47-2.3,2.47s-2.29-.9-2.29-2.47v-5.1c0-1.56.78-2.46,2.29-2.46a2.15,2.15,0,0,1,2.3,2.46v1H52v-1c0-.7-.31-1-.8-1s-.79.27-.79,1V32c0,.7.3.95.79.95s.8-.25.8-.95v-1.4Z"/><path class="cls-4" d="M59.42,34.22H57.87l-.27-1.78H55.71l-.27,1.78H54l1.57-9.81h2.25Zm-3.51-3.11h1.48l-.74-5Z"/><path class="cls-4" d="M59.15,24.41h4.76v1.4H62.3v8.41H60.76V25.81H59.15Z"/><path class="cls-4" d="M64.58,24.41h1.54v9.81H64.58Z"/><path class="cls-4" d="M67.12,26.76a2.34,2.34,0,1,1,4.68,0v5.1a2.34,2.34,0,1,1-4.68,0ZM68.66,32c0,.7.31,1,.8,1s.8-.27.8-1V26.67c0-.7-.31-1-.8-1s-.8.27-.8,1Z"/><path class="cls-4" d="M74.16,27.12v7.1H72.77V24.41h1.94l1.58,5.87V24.41h1.37v9.81H76.08Z"/></g></g></svg>