<svg xmlns="http://www.w3.org/2000/svg" viewBox="0 0 124.49 124.49"><defs><style>.cls-1{fill:#fff;}.cls-2{fill:#e58f14;}</style></defs><g id="Capa_2" data-name="Capa 2"><g id="Capa_1-2" data-name="Capa 1"><path class="cls-1" d="M48.89,91.23a7.38,7.38,0,0,1-.6-.46c-.68-.6-1.35-1.21-2-1.82-.38-.36-.31-.62.2-.76l10.74-3,.28-.07c.41-.1.6,0,.55.47-.08.75-.21,1.5-.33,2.24-.49,3-1,6-1.49,9a.77.77,0,0,1-.3.55c-.1,0-.38-.12-.53-.25-.7-.61-1.4-1.23-2.07-1.87a.46.46,0,0,0-.72,0,16.76,16.76,0,0,1-6.56,3c-6.72,1.34-12.71,0-17.63-5a16.06,16.06,0,0,1-4.65-9.5,25.74,25.74,0,0,1,.63-10.66C26.2,66.92,30.32,63,36.55,61.28a18.32,18.32,0,0,1,4.54-.67,19.08,19.08,0,0,1,13.83,5.18A36.94,36.94,0,0,1,61.8,74.6c1.31,2.26,2.49,4.6,3.75,6.9a27,27,0,0,0,5.7,7.5,18.17,18.17,0,0,0,9.11,4.47,11.33,11.33,0,0,0,13.58-9.33,19.8,19.8,0,0,0-.38-9.76c-1.32-4.24-4.32-6.72-8.53-7.83a13.3,13.3,0,0,0-5-.46,14.4,14.4,0,0,0-5.21,1.67,20.81,20.81,0,0,0-6.23,5.51c-.38.48-.74,1-1.11,1.45s-.58.41-.83,0c-.8-1.38-1.6-2.76-2.37-4.15a.76.76,0,0,1,0-.66c3-3.78,6.54-6.92,11.29-8.39a17.23,17.23,0,0,1,5.87-.94A19.56,19.56,0,0,1,93.75,65a16.4,16.4,0,0,1,5.11,8,23.59,23.59,0,0,1,.93,6.14,23.2,23.2,0,0,1-1.25,8.75,16.17,16.17,0,0,1-12.8,10.94,19.42,19.42,0,0,1-11.62-1.6c-5.72-2.51-9.74-6.81-12.79-12.11C60.15,83.1,59.12,81,58,78.9A41.17,41.17,0,0,0,52.4,71,15,15,0,0,0,43,66.09a13.25,13.25,0,0,0-5.47.62,11.11,11.11,0,0,0-6.58,4.92,13.72,13.72,0,0,0-1.79,5.42,21.55,21.55,0,0,0-.08,5.2,11.58,11.58,0,0,0,7.71,10.16,13.11,13.11,0,0,0,10.35-.23C47.68,91.94,48.21,91.6,48.89,91.23Z"/><path class="cls-1" d="M23.55,31.65c.25,0,.42,0,.59,0,1.93,0,3.86,0,5.78,0,.42,0,.55.12.53.53,0,.81,0,1.62,0,2.43,0,.29-.1.4-.4.4H19.12c-.31,0-.4-.12-.39-.41,0-.71,0-1.43,0-2.14a1.93,1.93,0,0,1,.27-.94c2.13-3.32,4.29-6.63,6.43-10a7.06,7.06,0,0,0,1.34-3.47,6.3,6.3,0,0,0-.15-1.68,1.44,1.44,0,0,0-1.34-1.16,1.67,1.67,0,0,0-1.9.91,11.57,11.57,0,0,0-.5,2.11,5.66,5.66,0,0,0,0,1.09c0,.23-.06.35-.32.35-1.17,0-2.34,0-3.52,0-.1,0-.3-.17-.3-.26a9.56,9.56,0,0,1,.93-5.1,5.15,5.15,0,0,1,4.23-2.67,8.7,8.7,0,0,1,3.33.23,4.87,4.87,0,0,1,3.67,4,8.82,8.82,0,0,1-1.48,6.78c-1.84,2.8-3.7,5.57-5.55,8.36C23.78,31.26,23.69,31.42,23.55,31.65Z"/><path class="cls-1" d="M11.77,16.44,8.5,17.61a2.9,2.9,0,0,1,0-.38c0-.76,0-1.53,0-2.3a.58.58,0,0,1,.4-.64,15.26,15.26,0,0,0,3.76-2.2A.65.65,0,0,1,13,12h2.71c.28,0,.41.09.39.37a1.92,1.92,0,0,0,0,.24V34.42c0,.62,0,.62-.62.62H12.41c-.58,0-.58,0-.58-.58V19.72c0-.9,0-1.81,0-2.71A4.4,4.4,0,0,0,11.77,16.44Z"/><path class="cls-2" d="M124.49,0H0V124.49H124.49ZM16.11,12.31a1.92,1.92,0,0,0,0,.24V34.42c0,.62,0,.62-.62.62H12.41c-.58,0-.58,0-.58-.58V19.72c0-.9,0-1.81,0-2.71a4.4,4.4,0,0,0-.05-.57L8.5,17.61a2.9,2.9,0,0,1,0-.38c0-.76,0-1.53,0-2.3a.58.58,0,0,1,.4-.64,15.26,15.26,0,0,0,3.76-2.2A.65.65,0,0,1,13,12h2.71C16,11.93,16.13,12,16.11,12.31Zm2.62,22.32c0-.71,0-1.43,0-2.14a1.93,1.93,0,0,1,.27-.94c2.13-3.32,4.29-6.63,6.43-10a7.06,7.06,0,0,0,1.34-3.47,6.3,6.3,0,0,0-.15-1.68,1.44,1.44,0,0,0-1.34-1.16,1.67,1.67,0,0,0-1.9.91,11.57,11.57,0,0,0-.5,2.11,5.66,5.66,0,0,0,0,1.09c0,.23-.06.35-.32.35-1.17,0-2.34,0-3.52,0-.1,0-.3-.17-.3-.26a9.56,9.56,0,0,1,.93-5.1,5.15,5.15,0,0,1,4.23-2.67,8.7,8.7,0,0,1,3.33.23,4.87,4.87,0,0,1,3.67,4,8.82,8.82,0,0,1-1.48,6.78c-1.84,2.8-3.7,5.57-5.55,8.36-.1.15-.19.31-.33.54.25,0,.42,0,.59,0,1.93,0,3.86,0,5.78,0,.42,0,.55.12.53.53,0,.81,0,1.62,0,2.43,0,.29-.1.4-.4.4H19.12C18.81,35,18.72,34.92,18.73,34.63ZM98.54,87.92a16.17,16.17,0,0,1-12.8,10.94,19.34,19.34,0,0,1-11.62-1.6c-5.72-2.51-9.74-6.81-12.79-12.11C60.15,83.1,59.12,81,58,78.9A41.17,41.17,0,0,0,52.4,71,15,15,0,0,0,43,66.09a13.25,13.25,0,0,0-5.47.62,11.11,11.11,0,0,0-6.58,4.92,13.72,13.72,0,0,0-1.79,5.42,21.55,21.55,0,0,0-.08,5.2,11.58,11.58,0,0,0,7.71,10.16,13.11,13.11,0,0,0,10.35-.23c.56-.24,1.09-.58,1.77-1a7.38,7.38,0,0,1-.6-.46c-.68-.6-1.35-1.21-2-1.82-.38-.36-.31-.62.2-.76l10.74-3,.28-.07c.41-.1.6,0,.55.47-.08.75-.21,1.5-.33,2.24-.49,3-1,6-1.49,9a.77.77,0,0,1-.3.55c-.1,0-.38-.12-.53-.25-.7-.61-1.4-1.23-2.07-1.87a.46.46,0,0,0-.72,0,16.76,16.76,0,0,1-6.56,3c-6.72,1.34-12.71,0-17.63-5a16.06,16.06,0,0,1-4.65-9.5,25.74,25.74,0,0,1,.63-10.66C26.2,66.92,30.32,63,36.55,61.28a18.32,18.32,0,0,1,4.54-.67,19.08,19.08,0,0,1,13.83,5.18A36.94,36.94,0,0,1,61.8,74.6c1.31,2.26,2.49,4.6,3.75,6.9a27,27,0,0,0,5.7,7.5,18.17,18.17,0,0,0,9.11,4.47,11.33,11.33,0,0,0,13.58-9.33,19.8,19.8,0,0,0-.38-9.76c-1.32-4.24-4.32-6.72-8.53-7.83a13.3,13.3,0,0,0-5-.46,14.4,14.4,0,0,0-5.21,1.67,20.81,20.81,0,0,0-6.23,5.51c-.38.48-.74,1-1.11,1.45s-.58.41-.83,0c-.8-1.38-1.6-2.76-2.37-4.15a.76.76,0,0,1,0-.66c3-3.78,6.54-6.92,11.29-8.39a17.23,17.23,0,0,1,5.87-.94A19.56,19.56,0,0,1,93.75,65a16.4,16.4,0,0,1,5.11,8,23.59,23.59,0,0,1,.93,6.14A23.2,23.2,0,0,1,98.54,87.92Z"/><path class="cls-1" d="M40.91,18.72a2.76,2.76,0,0,1-.13-1.12V16.17c0-.84-.29-1.15-.94-1.15h-.49v3.7H37.92V9.62h2.16c1.48,0,2.12.69,2.12,2.09v.72a1.8,1.8,0,0,1-.94,1.84c.72.3,1,1,1,1.94v1.41a2.55,2.55,0,0,0,.16,1.1Zm-1.56-7.8v2.8h.56c.53,0,.86-.24.86-1v-.89c0-.65-.22-.94-.73-.94Z"/><path class="cls-1" d="M44.58,13.46h2v1.3h-2v2.66h2.47v1.3h-3.9V9.62h3.9v1.3H44.58Z"/><path class="cls-1" d="M49.85,9.52c1.39,0,2.11.83,2.11,2.29v.28H50.61v-.38c0-.65-.26-.89-.72-.89s-.71.24-.71.89c0,1.88,2.79,2.23,2.79,4.83a2.14,2.14,0,1,1-4.26,0V16h1.35v.65c0,.65.29.88.74.88s.74-.23.74-.88c0-1.87-2.79-2.23-2.79-4.82C47.75,10.35,48.46,9.52,49.85,9.52Z"/><path class="cls-1" d="M57,11.87v1.18c0,1.46-.7,2.25-2.13,2.25h-.68v3.42H52.79V9.62H54.9C56.33,9.62,57,10.41,57,11.87Zm-2.81-.95V14h.68c.45,0,.7-.21.7-.86V11.78c0-.65-.25-.86-.7-.86Z"/><path class="cls-1" d="M57.58,11.81a2.17,2.17,0,1,1,4.34,0v4.73a2.17,2.17,0,1,1-4.34,0ZM59,16.63c0,.65.28.89.74.89s.74-.24.74-.89V11.71c0-.65-.29-.89-.74-.89s-.74.24-.74.89Z"/><path class="cls-1" d="M64.11,12.13v6.59H62.83V9.62h1.79l1.47,5.45V9.62h1.27v9.1H65.9Z"/><path class="cls-1" d="M70.32,9.52c1.39,0,2.1.83,2.1,2.29v.28H71.07v-.38c0-.65-.26-.89-.72-.89s-.71.24-.71.89c0,1.88,2.8,2.23,2.8,4.83a2.14,2.14,0,1,1-4.27,0V16h1.35v.65c0,.65.29.88.74.88s.74-.23.74-.88c0-1.87-2.79-2.23-2.79-4.82C68.21,10.35,68.92,9.52,70.32,9.52Z"/><path class="cls-1" d="M73.25,9.62h1.43v9.1H73.25Z"/><path class="cls-1" d="M80,11.71V12a1.8,1.8,0,0,1-.92,1.83,1.83,1.83,0,0,1,1.06,2v.74A1.93,1.93,0,0,1,78,18.72H75.72V9.62h2.16C79.36,9.62,80,10.31,80,11.71Zm-2.85-.79v2.41h.56c.54,0,.86-.24.86-1v-.5c0-.65-.22-.94-.73-.94Zm0,3.71v2.79H78c.48,0,.74-.22.74-.9v-.79c0-.84-.27-1.1-.92-1.1Z"/><path class="cls-1" d="M81,9.62h1.43v7.8h2.35v1.3H81Z"/><path class="cls-1" d="M86.84,13.46h2v1.3h-2v2.66h2.47v1.3h-3.9V9.62h3.9v1.3H86.84Z"/><path class="cls-1" d="M42.16,26.67v1.18c0,1.46-.7,2.25-2.13,2.25h-.68v3.42H37.92v-9.1H40C41.46,24.42,42.16,25.21,42.16,26.67Zm-2.81-1V28.8H40c.45,0,.7-.2.7-.86V26.58c0-.65-.25-.86-.7-.86Z"/><path class="cls-1" d="M45.81,33.52a2.76,2.76,0,0,1-.13-1.12V31c0-.84-.28-1.15-.93-1.15h-.5v3.7H42.82v-9.1H45c1.48,0,2.12.69,2.12,2.09v.72a1.82,1.82,0,0,1-.94,1.85c.72.29,1,1,1,1.93v1.41a2.55,2.55,0,0,0,.16,1.1Zm-1.56-7.8v2.8h.56c.53,0,.86-.24.86-1v-.9c0-.65-.22-.94-.73-.94Z"/><path class="cls-1" d="M47.93,26.61a2.17,2.17,0,1,1,4.34,0v4.73a2.17,2.17,0,1,1-4.34,0Zm1.43,4.82c0,.65.29.9.74.9s.74-.25.74-.9V26.51c0-.65-.28-.89-.74-.89s-.74.24-.74.89Z"/><path class="cls-1" d="M53.19,24.42h2.27c1.43,0,2.13.79,2.13,2.25v4.6c0,1.46-.7,2.25-2.13,2.25H53.19Zm1.43,1.3v6.5h.81c.46,0,.73-.23.73-.88V26.61c0-.65-.27-.89-.73-.89Z"/><path class="cls-1" d="M59.86,24.42v7c0,.65.29.89.74.89s.75-.24.75-.89v-7H62.7v6.93c0,1.46-.73,2.29-2.14,2.29s-2.13-.83-2.13-2.29V24.42Z"/><path class="cls-1" d="M67.82,30.13v1.21a2,2,0,0,1-2.13,2.29c-1.41,0-2.13-.84-2.13-2.29V26.61c0-1.46.72-2.29,2.13-2.29s2.13.83,2.13,2.29v.88H66.47v-1c0-.65-.29-.89-.74-.89s-.75.24-.75.89v4.92c0,.65.29.88.75.88s.74-.23.74-.88v-1.3Z"/><path class="cls-1" d="M68.27,24.42h4.42v1.3H71.2v7.8H69.77v-7.8h-1.5Z"/><path class="cls-1" d="M73.32,24.42h1.43v9.1H73.32Z"/><path class="cls-1" d="M75.67,26.61a2.17,2.17,0,1,1,4.34,0v4.73a2.17,2.17,0,1,1-4.34,0Zm1.43,4.82c0,.65.29.9.74.9s.74-.25.74-.9V26.51c0-.65-.28-.89-.74-.89s-.74.24-.74.89Z"/><path class="cls-1" d="M82.21,26.93v6.59H80.92v-9.1h1.8l1.47,5.45V24.42h1.27v9.1H84Z"/><path class="cls-1" d="M93.13,33.52H91.69l-.25-1.65H89.68l-.24,1.65H88.12l1.46-9.1h2.09Zm-3.27-2.88h1.38L90.55,26Z"/><path class="cls-1" d="M95.06,26.93v6.59H93.78v-9.1h1.79L97,29.87V24.42h1.27v9.1H96.85Z"/><path class="cls-1" d="M99.34,24.42h2.26c1.43,0,2.14.79,2.14,2.25v4.6c0,1.46-.71,2.25-2.14,2.25H99.34Zm1.43,1.3v6.5h.81c.45,0,.73-.23.73-.88V26.61c0-.65-.28-.89-.73-.89Z"/><path class="cls-1" d="M42.07,44.93v1.21a2.14,2.14,0,1,1-4.27,0V41.41c0-1.46.73-2.29,2.14-2.29s2.13.83,2.13,2.29v.88H40.72v-1c0-.65-.29-.89-.75-.89s-.74.24-.74.89v4.92c0,.65.29.88.74.88s.75-.23.75-.88v-1.3Z"/><path class="cls-1" d="M42.82,41.41a2.17,2.17,0,1,1,4.34,0v4.73a2.17,2.17,0,1,1-4.34,0Zm1.43,4.82c0,.65.29.9.74.9s.74-.25.74-.9V41.31c0-.65-.28-.89-.74-.89s-.74.24-.74.89Z"/><path class="cls-1" d="M49.36,41.73v6.59H48.07v-9.1h1.8l1.47,5.45V39.22h1.27v9.1H51.14Z"/><path class="cls-1" d="M55.56,39.12c1.39,0,2.11.83,2.11,2.29v.28H56.31v-.38c0-.65-.26-.89-.71-.89s-.72.24-.72.89c0,1.88,2.8,2.23,2.8,4.83a2.14,2.14,0,1,1-4.27,0v-.56h1.36v.65c0,.65.28.88.74.88s.74-.23.74-.88c0-1.87-2.8-2.22-2.8-4.82C53.45,40,54.17,39.12,55.56,39.12Z"/><path class="cls-1" d="M59.86,39.22v7c0,.65.29.89.74.89s.75-.24.75-.89v-7H62.7v6.93c0,1.46-.73,2.29-2.14,2.29s-2.13-.83-2.13-2.29V39.22Z"/><path class="cls-1" d="M66.7,45.68l1-6.46h2v9.1H68.31V41.8l-1,6.52H66l-1.06-6.43v6.43H63.66v-9.1h2Z"/><path class="cls-1" d="M74.94,41.47v1.18c0,1.46-.7,2.25-2.13,2.25h-.67v3.42H70.71v-9.1h2.1C74.24,39.22,74.94,40,74.94,41.47Zm-2.8-.95V43.6h.67c.46,0,.7-.21.7-.86V41.38c0-.65-.24-.86-.7-.86Z"/><path class="cls-1" d="M75.19,39.22h4.42v1.3H78.12v7.8H76.69v-7.8h-1.5Z"/><path class="cls-1" d="M80.23,39.22h1.43v9.1H80.23Z"/><path class="cls-1" d="M82.59,41.41a2.17,2.17,0,1,1,4.34,0v4.73a2.17,2.17,0,1,1-4.34,0ZM84,46.23c0,.65.28.9.74.9s.74-.25.74-.9V41.31c0-.65-.29-.89-.74-.89s-.74.24-.74.89Z"/><path class="cls-1" d="M89.13,41.73v6.59H87.84v-9.1h1.79l1.47,5.45V39.22h1.28v9.1H90.91Z"/></g></g></svg>