<svg xmlns="http://www.w3.org/2000/svg" viewBox="0 0 124.49 124.49"><defs><style>.cls-1,.cls-3{fill:#fff;}.cls-2{fill:#e58f14;}.cls-3{font-size:13px;font-family:BebasNeueBold, Bebas Neue;}</style></defs><g id="Capa_2" data-name="Capa 2"><g id="Capa_1-2" data-name="Capa 1"><path class="cls-1" d="M48.89,91.23a7.38,7.38,0,0,1-.6-.46c-.68-.6-1.35-1.21-2-1.82-.38-.36-.31-.62.2-.76l10.74-3,.28-.07c.41-.1.6,0,.55.47-.08.75-.21,1.5-.33,2.24-.49,3-1,6-1.49,9a.77.77,0,0,1-.3.55c-.1,0-.38-.12-.53-.25-.7-.61-1.4-1.23-2.07-1.87a.46.46,0,0,0-.72,0,16.76,16.76,0,0,1-6.56,3c-6.72,1.34-12.71,0-17.63-5a16.06,16.06,0,0,1-4.65-9.5,25.74,25.74,0,0,1,.63-10.66C26.2,66.92,30.32,63,36.55,61.28a18.32,18.32,0,0,1,4.54-.67,19.08,19.08,0,0,1,13.83,5.18A36.94,36.94,0,0,1,61.8,74.6c1.31,2.26,2.49,4.6,3.75,6.9a27,27,0,0,0,5.7,7.5,18.17,18.17,0,0,0,9.11,4.47,11.33,11.33,0,0,0,13.58-9.33,19.8,19.8,0,0,0-.38-9.76c-1.32-4.24-4.32-6.72-8.53-7.83a13.3,13.3,0,0,0-5-.46,14.4,14.4,0,0,0-5.21,1.67,20.81,20.81,0,0,0-6.23,5.51c-.38.48-.74,1-1.11,1.45s-.58.41-.83,0c-.8-1.38-1.6-2.76-2.37-4.15a.76.76,0,0,1,0-.66c3-3.78,6.54-6.92,11.29-8.39a17.23,17.23,0,0,1,5.87-.94A19.56,19.56,0,0,1,93.75,65a16.4,16.4,0,0,1,5.11,8,23.59,23.59,0,0,1,.93,6.14,23.2,23.2,0,0,1-1.25,8.75,16.17,16.17,0,0,1-12.8,10.94,19.42,19.42,0,0,1-11.62-1.6c-5.72-2.51-9.74-6.81-12.79-12.11C60.15,83.1,59.12,81,58,78.9A41.17,41.17,0,0,0,52.4,71,15,15,0,0,0,43,66.09a13.25,13.25,0,0,0-5.47.62,11.11,11.11,0,0,0-6.58,4.92,13.72,13.72,0,0,0-1.79,5.42,21.55,21.55,0,0,0-.08,5.2,11.58,11.58,0,0,0,7.71,10.16,13.11,13.11,0,0,0,10.35-.23C47.68,91.94,48.21,91.6,48.89,91.23Z"/><path class="cls-1" d="M23.55,31.65c.25,0,.42,0,.59,0,1.93,0,3.86,0,5.78,0,.42,0,.55.12.53.53,0,.81,0,1.62,0,2.43,0,.29-.1.4-.4.4H19.12c-.31,0-.4-.12-.39-.41,0-.71,0-1.43,0-2.14a1.93,1.93,0,0,1,.27-.94c2.13-3.32,4.29-6.63,6.43-10a7.06,7.06,0,0,0,1.34-3.47,6.3,6.3,0,0,0-.15-1.68,1.44,1.44,0,0,0-1.34-1.16,1.67,1.67,0,0,0-1.9.91,11.57,11.57,0,0,0-.5,2.11,5.66,5.66,0,0,0,0,1.09c0,.23-.06.35-.32.35-1.17,0-2.34,0-3.52,0-.1,0-.3-.17-.3-.26a9.56,9.56,0,0,1,.93-5.1,5.15,5.15,0,0,1,4.23-2.67,8.7,8.7,0,0,1,3.33.23,4.87,4.87,0,0,1,3.67,4,8.82,8.82,0,0,1-1.48,6.78c-1.84,2.8-3.7,5.57-5.55,8.36C23.78,31.26,23.69,31.42,23.55,31.65Z"/><path class="cls-1" d="M11.77,16.44,8.5,17.61a2.9,2.9,0,0,1,0-.38c0-.76,0-1.53,0-2.3a.58.58,0,0,1,.4-.64,15.26,15.26,0,0,0,3.76-2.2A.65.65,0,0,1,13,12h2.71c.28,0,.41.09.39.37a1.92,1.92,0,0,0,0,.24V34.42c0,.62,0,.62-.62.62H12.41c-.58,0-.58,0-.58-.58V19.72c0-.9,0-1.81,0-2.71A4.4,4.4,0,0,0,11.77,16.44Z"/><path class="cls-2" d="M124.49,0H0V124.49H124.49ZM16.11,12.31a1.92,1.92,0,0,0,0,.24V34.42c0,.62,0,.62-.62.62H12.41c-.58,0-.58,0-.58-.58V19.72c0-.9,0-1.81,0-2.71a4.4,4.4,0,0,0-.05-.57L8.5,17.61a2.9,2.9,0,0,1,0-.38c0-.76,0-1.53,0-2.3a.58.58,0,0,1,.4-.64,15.26,15.26,0,0,0,3.76-2.2A.65.65,0,0,1,13,12h2.71C16,11.93,16.13,12,16.11,12.31Zm2.62,22.32c0-.71,0-1.43,0-2.14a1.93,1.93,0,0,1,.27-.94c2.13-3.32,4.29-6.63,6.43-10a7.06,7.06,0,0,0,1.34-3.47,6.3,6.3,0,0,0-.15-1.68,1.44,1.44,0,0,0-1.34-1.16,1.67,1.67,0,0,0-1.9.91,11.57,11.57,0,0,0-.5,2.11,5.66,5.66,0,0,0,0,1.09c0,.23-.06.35-.32.35-1.17,0-2.34,0-3.52,0-.1,0-.3-.17-.3-.26a9.56,9.56,0,0,1,.93-5.1,5.15,5.15,0,0,1,4.23-2.67,8.7,8.7,0,0,1,3.33.23,4.87,4.87,0,0,1,3.67,4,8.82,8.82,0,0,1-1.48,6.78c-1.84,2.8-3.7,5.57-5.55,8.36-.1.15-.19.31-.33.54.25,0,.42,0,.59,0,1.93,0,3.86,0,5.78,0,.42,0,.55.12.53.53,0,.81,0,1.62,0,2.43,0,.29-.1.4-.4.4H19.12C18.81,35,18.72,34.92,18.73,34.63ZM98.54,87.92a16.17,16.17,0,0,1-12.8,10.94,19.34,19.34,0,0,1-11.62-1.6c-5.72-2.51-9.74-6.81-12.79-12.11C60.15,83.1,59.12,81,58,78.9A41.17,41.17,0,0,0,52.4,71,15,15,0,0,0,43,66.09a13.25,13.25,0,0,0-5.47.62,11.11,11.11,0,0,0-6.58,4.92,13.72,13.72,0,0,0-1.79,5.42,21.55,21.55,0,0,0-.08,5.2,11.58,11.58,0,0,0,7.71,10.16,13.11,13.11,0,0,0,10.35-.23c.56-.24,1.09-.58,1.77-1a7.38,7.38,0,0,1-.6-.46c-.68-.6-1.35-1.21-2-1.82-.38-.36-.31-.62.2-.76l10.74-3,.28-.07c.41-.1.6,0,.55.47-.08.75-.21,1.5-.33,2.24-.49,3-1,6-1.49,9a.77.77,0,0,1-.3.55c-.1,0-.38-.12-.53-.25-.7-.61-1.4-1.23-2.07-1.87a.46.46,0,0,0-.72,0,16.76,16.76,0,0,1-6.56,3c-6.72,1.34-12.71,0-17.63-5a16.06,16.06,0,0,1-4.65-9.5,25.74,25.74,0,0,1,.63-10.66C26.2,66.92,30.32,63,36.55,61.28a18.32,18.32,0,0,1,4.54-.67,19.08,19.08,0,0,1,13.83,5.18A36.94,36.94,0,0,1,61.8,74.6c1.31,2.26,2.49,4.6,3.75,6.9a27,27,0,0,0,5.7,7.5,18.17,18.17,0,0,0,9.11,4.47,11.33,11.33,0,0,0,13.58-9.33,19.8,19.8,0,0,0-.38-9.76c-1.32-4.24-4.32-6.72-8.53-7.83a13.3,13.3,0,0,0-5-.46,14.4,14.4,0,0,0-5.21,1.67,20.81,20.81,0,0,0-6.23,5.51c-.38.48-.74,1-1.11,1.45s-.58.41-.83,0c-.8-1.38-1.6-2.76-2.37-4.15a.76.76,0,0,1,0-.66c3-3.78,6.54-6.92,11.29-8.39a17.23,17.23,0,0,1,5.87-.94A19.56,19.56,0,0,1,93.75,65a16.4,16.4,0,0,1,5.11,8,23.59,23.59,0,0,1,.93,6.14A23.2,23.2,0,0,1,98.54,87.92Z"/><text class="cls-3" transform="translate(37.4 18.72)">Responsible <tspan x="0" y="14.8">production and </tspan><tspan x="0" y="29.6">consumption</tspan></text></g></g></svg>