<svg xmlns="http://www.w3.org/2000/svg" viewBox="0 0 124.49 124.49"><defs><style>.cls-1{fill:#00336a;}.cls-2,.cls-3{fill:#fff;}.cls-3{font-size:14px;font-family:BebasNeueBold, Bebas Neue;}.cls-4{letter-spacing:0em;}</style></defs><g id="Capa_2" data-name="Capa 2"><g id="Capa_1-2" data-name="Capa 1"><path class="cls-1" d="M124.49,124.49H0V0H124.49Z"/><path class="cls-2" d="M88,81.29a13,13,0,0,1-4.73,9.81.61.61,0,0,0-.22.72,13.13,13.13,0,0,1-10.81,16.12,12.82,12.82,0,0,1-8.87-1.86.53.53,0,0,0-.68,0,13.12,13.12,0,0,1-20-8.74A12.85,12.85,0,0,1,43,91.73a.46.46,0,0,0-.17-.55A12.91,12.91,0,0,1,38,80,13.11,13.11,0,0,1,48.45,68.21,12.47,12.47,0,0,1,50.17,68a.6.6,0,0,0,.61-.45,13,13,0,0,1,6.12-6.85,13.11,13.11,0,0,1,18.2,6.63A.93.93,0,0,0,76,68a13.14,13.14,0,0,1,11.41,9.28A14.34,14.34,0,0,1,88,81.29ZM63,75.47a13.29,13.29,0,0,1,9.57-7.35c-.94-3.33-5.4-6.3-9.49-6.32a10.37,10.37,0,0,0-9.66,6.32A13.33,13.33,0,0,1,63,75.47ZM50,70.66c-3.57-.14-7.85,3.5-9,7.57A10.29,10.29,0,0,0,44.1,88.77a13.3,13.3,0,0,1,10-6.78A13.19,13.19,0,0,1,50,70.66Zm10.93,33.42a13.21,13.21,0,0,1-3.47-11.51,13.27,13.27,0,0,1-12,.33,10.43,10.43,0,0,0,15.49,11.18Zm21-15.31a10.44,10.44,0,0,0-2.09-17A9.79,9.79,0,0,0,76,70.63a13.3,13.3,0,0,1-.69,6.15,13.5,13.5,0,0,1-3.39,5.14A13.29,13.29,0,0,1,81.92,88.77Zm-1.36,4.11a12.92,12.92,0,0,1-6,1.29,13.25,13.25,0,0,1-6-1.63,13.24,13.24,0,0,1-3.34,11.51,10.32,10.32,0,0,0,11.66-.87C79.93,100.73,81.79,95.61,80.56,92.88Zm-15-7.2a10.34,10.34,0,0,0,14.16,4.65A10.34,10.34,0,0,0,65.53,85.68ZM63,87.56a10.33,10.33,0,0,0,.11,14.87A10.4,10.4,0,0,0,63,87.56Zm-2.52-1.81a10.33,10.33,0,0,0-14.1,4.61A10.38,10.38,0,0,0,60.43,85.75Zm4.13-3.12c6.08-.8,9.82-6.9,8.74-11.9A10.36,10.36,0,0,0,64.56,82.63Zm-3.09,0a10.53,10.53,0,0,0-8.81-11.94A10.37,10.37,0,0,0,61.47,82.62Z"/><path class="cls-2" d="M19.08,11.89h.43c3.23,0,6.46,0,9.68,0,.41,0,.45.15.49.51a19.34,19.34,0,0,1-.95,6.28c-1.28,5.34-2.58,10.67-3.85,16-.08.34-.21.43-.54.42-1.14,0-2.27,0-3.4,0l-.45,0c.82-3.31,1.63-6.59,2.43-9.87s1.61-6.57,2.44-9.92H19.08Z"/><path class="cls-2" d="M12,16.5,8.61,17.7V16.4c0-.55,0-1.1,0-1.66a.4.4,0,0,1,.27-.42,15.14,15.14,0,0,0,4-2.32.59.59,0,0,1,.37-.1H16c.3,0,.39.09.39.39,0,1.17,0,2.35,0,3.52V34.54c0,.54,0,.54-.55.54-1.13,0-2.27,0-3.4,0-.38,0-.47-.11-.47-.48q0-8.73,0-17.48Z"/><text class="cls-3" transform="translate(37.09 19.42)">Alliances to <tspan class="cls-4" x="0" y="14.8">a</tspan><tspan x="5.68" y="14.8">chieve </tspan><tspan x="0" y="29.6">objectives</tspan></text></g></g></svg>