<svg xmlns="http://www.w3.org/2000/svg" viewBox="0 0 378.08 212.67"><defs><style>.cls-1{fill:#e58f14;}.cls-2,.cls-3{fill:#fff;}.cls-3{font-size:13px;font-family:BebasNeueBold, Bebas Neue;}</style></defs><g id="Capa_2" data-name="Capa 2"><g id="Capa_1-2" data-name="Capa 1"><rect class="cls-1" width="378.08" height="212.67"/><path class="cls-2" d="M174.73,136c-.27-.21-.44-.33-.6-.47-.68-.6-1.35-1.21-2-1.82-.38-.36-.31-.62.2-.76l10.74-3,.28-.07c.41-.1.6,0,.55.47-.08.75-.21,1.5-.33,2.24-.49,3-1,6-1.49,9.06a.77.77,0,0,1-.3.54c-.1.05-.38-.12-.53-.25-.7-.61-1.39-1.23-2.07-1.87-.26-.25-.44-.23-.72,0a16.76,16.76,0,0,1-6.56,3c-6.72,1.34-12.71-.05-17.63-5a16.18,16.18,0,0,1-4.65-9.51,25.74,25.74,0,0,1,.63-10.66c1.81-6.24,5.94-10.15,12.16-11.88a18.4,18.4,0,0,1,4.55-.67,19.05,19.05,0,0,1,13.82,5.18,36.94,36.94,0,0,1,6.88,8.81c1.32,2.26,2.49,4.6,3.75,6.9a27.14,27.14,0,0,0,5.7,7.5,18.17,18.17,0,0,0,9.11,4.47,11.44,11.44,0,0,0,10.49-3.16,11.57,11.57,0,0,0,3.09-6.17,19.68,19.68,0,0,0-.38-9.76c-1.32-4.24-4.32-6.71-8.53-7.83a13.28,13.28,0,0,0-5-.46,14.47,14.47,0,0,0-5.21,1.67,20.81,20.81,0,0,0-6.23,5.51c-.38.48-.74,1-1.11,1.45s-.58.41-.83,0c-.8-1.38-1.6-2.75-2.36-4.15a.73.73,0,0,1,0-.66c3-3.78,6.54-6.92,11.29-8.39a17.33,17.33,0,0,1,5.88-.94,19.56,19.56,0,0,1,12.27,4.43,16.49,16.49,0,0,1,5.12,8,23.58,23.58,0,0,1,.92,6.14,23,23,0,0,1-1.25,8.75,16.17,16.17,0,0,1-12.8,10.94A19.34,19.34,0,0,1,200,142c-5.72-2.51-9.74-6.81-12.79-12.11-1.18-2-2.2-4.18-3.35-6.24a40.08,40.08,0,0,0-5.58-7.93,15,15,0,0,0-9.42-4.89,13.25,13.25,0,0,0-5.47.62,11.14,11.14,0,0,0-6.58,4.92,13.89,13.89,0,0,0-1.79,5.42,21.55,21.55,0,0,0-.08,5.2,11.57,11.57,0,0,0,7.72,10.16,13.13,13.13,0,0,0,10.34-.22C173.53,136.68,174.05,136.35,174.73,136Z"/><path class="cls-2" d="M149.39,76.39c.25,0,.42,0,.59,0,1.93,0,3.86,0,5.79,0,.41,0,.54.12.52.53,0,.81,0,1.62,0,2.43,0,.3-.1.4-.4.4-3.64,0-7.29,0-10.93,0-.31,0-.39-.12-.39-.4,0-.72,0-1.44,0-2.15a2,2,0,0,1,.27-.93c2.13-3.33,4.3-6.64,6.43-10a7,7,0,0,0,1.34-3.47,6.3,6.3,0,0,0-.15-1.68A1.43,1.43,0,0,0,151.14,60a1.67,1.67,0,0,0-1.9.91,10.78,10.78,0,0,0-.49,2.11,5,5,0,0,0,0,1.09c0,.23-.06.35-.31.35-1.18,0-2.35,0-3.53,0a.44.44,0,0,1-.3-.26,9.47,9.47,0,0,1,.94-5.1,5.12,5.12,0,0,1,4.23-2.67,8.65,8.65,0,0,1,3.32.23,4.88,4.88,0,0,1,3.67,4,8.82,8.82,0,0,1-1.48,6.78c-1.83,2.8-3.7,5.57-5.55,8.36C149.62,76,149.53,76.16,149.39,76.39Z"/><path class="cls-2" d="M137.62,61.18l-3.28,1.17a2.94,2.94,0,0,1,0-.37c0-.77,0-1.54,0-2.31a.58.58,0,0,1,.41-.64,15.38,15.38,0,0,0,3.75-2.2.65.65,0,0,1,.4-.14h2.72c.27,0,.4.09.38.37a1.92,1.92,0,0,0,0,.24V79.16c0,.62,0,.62-.62.62h-3.08c-.58,0-.58,0-.58-.58V61.75C137.67,61.58,137.64,61.41,137.62,61.18Z"/><path class="cls-2" d="M142,57.05a1.92,1.92,0,0,0,0,.24V79.16c0,.62,0,.62-.62.62h-3.08c-.58,0-.58,0-.58-.58V61.75c0-.17,0-.34,0-.57l-3.28,1.17a2.94,2.94,0,0,1,0-.37c0-.77,0-1.54,0-2.31a.58.58,0,0,1,.41-.64,15.38,15.38,0,0,0,3.75-2.2.65.65,0,0,1,.4-.14h2.72C141.84,56.67,142,56.77,142,57.05Zm2.62,22.33c0-.72,0-1.44,0-2.15a2,2,0,0,1,.27-.93c2.13-3.33,4.3-6.64,6.43-10a7,7,0,0,0,1.34-3.47,6.3,6.3,0,0,0-.15-1.68A1.43,1.43,0,0,0,151.14,60a1.67,1.67,0,0,0-1.9.91,10.78,10.78,0,0,0-.49,2.11,5,5,0,0,0,0,1.09c0,.23-.06.35-.31.35-1.18,0-2.35,0-3.53,0a.44.44,0,0,1-.3-.26,9.47,9.47,0,0,1,.94-5.1,5.12,5.12,0,0,1,4.23-2.67,8.65,8.65,0,0,1,3.32.23,4.88,4.88,0,0,1,3.67,4,8.82,8.82,0,0,1-1.48,6.78c-1.83,2.8-3.7,5.57-5.55,8.36-.1.15-.19.31-.33.54.25,0,.42,0,.59,0,1.93,0,3.86,0,5.79,0,.41,0,.54.12.52.53,0,.81,0,1.62,0,2.43,0,.3-.1.4-.4.4-3.64,0-7.29,0-10.93,0C144.65,79.78,144.57,79.66,144.57,79.38Zm79.81,53.28a16.17,16.17,0,0,1-12.8,10.94A19.34,19.34,0,0,1,200,142c-5.72-2.51-9.74-6.81-12.79-12.11-1.18-2-2.2-4.18-3.35-6.24a40.08,40.08,0,0,0-5.58-7.93,15,15,0,0,0-9.42-4.89,13.25,13.25,0,0,0-5.47.62,11.14,11.14,0,0,0-6.58,4.92,13.89,13.89,0,0,0-1.79,5.42,21.55,21.55,0,0,0-.08,5.2,11.57,11.57,0,0,0,7.72,10.16,13.13,13.13,0,0,0,10.34-.22c.57-.25,1.09-.58,1.77-1-.27-.21-.44-.33-.6-.47-.68-.6-1.35-1.21-2-1.82-.38-.36-.31-.62.2-.76l10.74-3,.28-.07c.41-.1.6,0,.55.47-.08.75-.21,1.5-.33,2.24-.49,3-1,6-1.49,9.06a.77.77,0,0,1-.3.54c-.1.05-.38-.12-.53-.25-.7-.61-1.39-1.23-2.07-1.87-.26-.25-.44-.23-.72,0a16.76,16.76,0,0,1-6.56,3c-6.72,1.34-12.71-.05-17.63-5a16.18,16.18,0,0,1-4.65-9.51,25.74,25.74,0,0,1,.63-10.66c1.81-6.24,5.94-10.15,12.16-11.88a18.4,18.4,0,0,1,4.55-.67,19.05,19.05,0,0,1,13.82,5.18,36.94,36.94,0,0,1,6.88,8.81c1.32,2.26,2.49,4.6,3.75,6.9a27.14,27.14,0,0,0,5.7,7.5,18.17,18.17,0,0,0,9.11,4.47,11.44,11.44,0,0,0,10.49-3.16,11.57,11.57,0,0,0,3.09-6.17,19.68,19.68,0,0,0-.38-9.76c-1.32-4.24-4.32-6.71-8.53-7.83a13.28,13.28,0,0,0-5-.46,14.47,14.47,0,0,0-5.21,1.67,20.81,20.81,0,0,0-6.23,5.51c-.38.48-.74,1-1.11,1.45s-.58.41-.83,0c-.8-1.38-1.6-2.75-2.36-4.15a.73.73,0,0,1,0-.66c3-3.78,6.54-6.92,11.29-8.39a17.33,17.33,0,0,1,5.88-.94,19.56,19.56,0,0,1,12.27,4.43,16.49,16.49,0,0,1,5.12,8,23.58,23.58,0,0,1,.92,6.14A23,23,0,0,1,224.38,132.66Z"/><text class="cls-3" transform="translate(165.37 65.78)">Responsible <tspan x="0" y="14.8">production and </tspan><tspan x="0" y="29.6">consumption</tspan></text></g></g></svg>