<svg xmlns="http://www.w3.org/2000/svg" viewBox="0 0 378.08 212.67"><defs><style>.cls-1{fill:#ff9400;}.cls-2,.cls-3{fill:#fff;}.cls-3{font-size:14px;font-family:BebasNeueBold, Bebas Neue;}.cls-4{letter-spacing:-0.04em;}</style></defs><g id="Capa_2" data-name="Capa 2"><g id="Capa_1-2" data-name="Capa 1"><rect class="cls-1" width="378.08" height="212.67"/><path class="cls-2" d="M187.59,103.07l.23.25c.12.14.05.31.05.46q0,25.83,0,51.65a.93.93,0,0,1,0,.44.63.63,0,0,1-.64.31q-7.47,0-14.93,0c-.41,0-.54-.12-.53-.53,0-3.34,0-6.69,0-10v-42c0-.25,0-.5.31-.55a.69.69,0,0,1,.32,0h14.87A.6.6,0,0,1,187.59,103.07Z"/><path class="cls-2" d="M206,156a.72.72,0,0,1-.61.23H190.56c-.23,0-.49.05-.63-.23a1.08,1.08,0,0,1,0-.4q0-11.5,0-23a1.07,1.07,0,0,1,0-.4c.36-.57.82-1,1.23-1.58l4.21-5.36,3.25-4.11c.62-.79,1.23-1.59,1.86-2.38l3.65-4.6,1-1.26c.29-.39.54-.39.84,0,.11.12.06.26.06.39v42.31C206,155.77,206.07,155.92,206,156Z"/><path class="cls-2" d="M208,156.28c-.18-.05-.23-.16-.23-.35q0-7.85,0-15.68c0-.21,0-.4.22-.5a.9.9,0,0,1,.4,0h15.2c.14,0,.3-.07.42.06l.19.22a1.36,1.36,0,0,1,0,.4v15.28c0,.15,0,.3-.05.43l-.15.15c-.11.1-.24.05-.35.05H208.32A.56.56,0,0,1,208,156.28Z"/><path class="cls-2" d="M169.29,143l.26.25a1.09,1.09,0,0,1,0,.36q0,6,0,12c0,.13.05.27,0,.39l-.15.15c-.06.07-.15.05-.23.05h-5a.31.31,0,0,1-.19,0v-7.4c0-.56-.16-.72-.71-.72H159c-.21,0-.43,0-.51.25a.9.9,0,0,0,0,.43c0,2.35,0,4.7,0,7,0,.32-.07.44-.42.43-1.51,0-3,0-4.53,0a.74.74,0,0,1-.36,0c-.14,0-.24-.11-.22-.28s0-.27,0-.4c0-4,0-8,0-11.95,0-.24,0-.46.31-.51a1.09,1.09,0,0,1,.36,0h15.31A.74.74,0,0,1,169.29,143Z"/><path class="cls-2" d="M137.63,80.44c0-.13,0-.27,0-.4V62.56c0-.56,0-.55-.53-.35l-2.52.92c-.2.07-.29.07-.29-.19,0-.91,0-1.83,0-2.75,0-.21.08-.29.26-.38a22.27,22.27,0,0,0,3.08-1.66c.15-.11.35-.18.45-.32.32-.46.77-.45,1.25-.44.9,0,1.81,0,2.71,0,.09.12.05.26.05.39V80.07c0,.44,0,.44-.43.44H138C137.88,80.51,137.74,80.58,137.63,80.44Z"/><path class="cls-2" d="M144,59.9A20,20,0,0,0,147.55,58s.06,0,.07,0c.43-.68,1.11-.57,1.77-.57h2.34a1.08,1.08,0,0,1,0,.4V80.05c0,.46,0,.46-.45.46h-3.57c-.43,0-.43,0-.43-.43q0-8.79,0-17.57a.74.74,0,0,0,0-.39c0-.08-.1-.07-.17,0l-3,1.13c-.1,0-.07-.13-.07-.21V60.1A.28.28,0,0,1,144,59.9Z"/><path class="cls-2" d="M161.23,141.59h-7.74c-.17,0-.34,0-.41-.15a.6.6,0,0,1,0-.58c.73-.94,1.46-1.89,2.18-2.84l2.5-3.27,2.91-3.84c.42-.54.65-.54,1.06,0,1.6,2.07,3.18,4.15,4.78,6.22.95,1.21,1.92,2.41,2.84,3.65.12.17.3.33.17.57a.56.56,0,0,1-.56.24Z"/><path class="cls-2" d="M224.11,134.77a.93.93,0,0,1,.09.46c0,.92,0,1.83,0,2.75a.64.64,0,0,1-.17.46c-.11.1-.24.06-.35.06H208.27a.54.54,0,0,1-.35-.05l-.07-.07a3.82,3.82,0,0,1,0-1.12c0-.81-.05-1.63,0-2.44l.08-.09a.91.91,0,0,1,.4,0H223.7C223.84,134.7,224,134.62,224.11,134.77Z"/><path class="cls-2" d="M187.84,155.87c0-.19,0-.38,0-.57V103.88c0-.19,0-.37,0-.56.18.13.1.32.1.48v51.57C187.92,155.53,188,155.72,187.84,155.87Z"/><path class="cls-2" d="M189.93,132.23V156c-.11-.13-.06-.28-.06-.43q0-11.47,0-22.95C189.87,132.51,189.82,132.35,189.93,132.23Z"/><path class="cls-2" d="M224.11,134.77a1.1,1.1,0,0,0-.48-.06H208.37l-.45,0c.13-.13.28-.07.43-.07h15.33C223.83,134.66,224,134.58,224.11,134.77Z"/><path class="cls-2" d="M224.19,156.11c0-.17,0-.35,0-.52q0-7.8,0-15.59c.11.13.06.29.06.43v15.23C224.28,155.81,224.35,156,224.19,156.11Z"/><path class="cls-2" d="M207.92,138.45l6.83,0h8.8l.49,0c-.11.16-.27.1-.41.1H208.34C208.2,138.54,208,138.59,207.92,138.45Z"/><path class="cls-2" d="M208,156.28l3.8,0h11.66c.19,0,.38,0,.57,0-.11.16-.27.1-.41.1H208.39C208.26,156.36,208.12,156.4,208,156.28Z"/><path class="cls-2" d="M169.29,143h-16c.13-.11.28-.06.43-.06h15.18C169,142.92,169.17,142.87,169.29,143Z"/><path class="cls-2" d="M224,139.78c-.18,0-.37,0-.56,0H208c.12-.12.28-.07.42-.07q7.59,0,15.16,0C223.74,139.68,223.92,139.6,224,139.78Z"/><path class="cls-2" d="M187.59,103.07H172.05c.13-.12.28-.07.43-.07h14.69C187.31,103,187.47,102.94,187.59,103.07Z"/><path class="cls-2" d="M153.18,156.12c1.65,0,3.29,0,4.94,0,.31,0,.34-.13.34-.38q0-3.52,0-7c0-.15-.06-.32.06-.46v7.56c0,.22,0,.39-.3.39H153.4A.27.27,0,0,1,153.18,156.12Z"/><path class="cls-2" d="M169.52,156c0-.13,0-.27,0-.4V143.24c.11.13.06.29.07.43,0,3.94,0,7.89,0,11.83C169.61,155.65,169.69,155.83,169.52,156Z"/><path class="cls-2" d="M164,156.12c1.81,0,3.61,0,5.42,0-.07.12-.18.1-.29.1H164.2A.29.29,0,0,1,164,156.12Z"/><path class="cls-2" d="M207.84,134.82c0,1.19,0,2.37,0,3.56a.27.27,0,0,1-.09-.25V135A.24.24,0,0,1,207.84,134.82Z"/><path class="cls-2" d="M144,59.9a21.64,21.64,0,0,0,0,3.32c-.11,0-.12-.14-.12-.23V60.12A.25.25,0,0,1,144,59.9Z"/><path class="cls-1" d="M185.23,139.3c0,.58,0,1.16,0,1.74,0,.29-.11.4-.41.4h-3.11c-.29,0-.41-.11-.41-.4,0-1.17,0-2.35,0-3.52,0-.29.12-.41.41-.41h3.07c.36,0,.47.15.45.49C185.21,138.17,185.23,138.73,185.23,139.3Z"/><path class="cls-1" d="M185.23,148.22c0,.59,0,1.19,0,1.78,0,.29-.11.42-.4.42h-3.11c-.31,0-.43-.13-.42-.44,0-1.16,0-2.32,0-3.48,0-.28.1-.41.4-.41h3.11c.33,0,.43.14.42.44C185.22,147.09,185.23,147.65,185.23,148.22Z"/><path class="cls-1" d="M185.23,112.35c0,.58,0,1.16,0,1.74,0,.27-.08.41-.39.41-1.05,0-2.1,0-3.15,0-.28,0-.39-.1-.39-.38v-3.55c0-.28.11-.38.39-.38q1.58,0,3.15,0c.28,0,.39.1.39.38C185.22,111.16,185.23,111.75,185.23,112.35Z"/><path class="cls-1" d="M181.3,130.32c0-.59,0-1.18,0-1.78,0-.26.09-.38.38-.38h3.19c.27,0,.36.11.36.36,0,1.19,0,2.37,0,3.56,0,.28-.13.37-.4.37h-3.15c-.28,0-.38-.12-.38-.39C181.31,131.48,181.3,130.9,181.3,130.32Z"/><path class="cls-1" d="M185.23,121.29c0,.6,0,1.19,0,1.78,0,.3-.11.41-.41.41q-1.56,0-3.12,0c-.3,0-.4-.12-.4-.41,0-1.16,0-2.32,0-3.48,0-.32.11-.43.43-.42,1,0,2.05,0,3.08,0,.32,0,.43.11.42.42C185.22,120.16,185.23,120.72,185.23,121.29Z"/><path class="cls-1" d="M178.34,139.27c0,.59,0,1.19,0,1.78,0,.27-.1.39-.38.39h-3.16c-.25,0-.37-.09-.37-.35,0-1.21,0-2.41,0-3.61,0-.26.1-.37.35-.37H178c.26,0,.36.11.36.37C178.34,138.08,178.34,138.68,178.34,139.27Z"/><path class="cls-1" d="M174.45,148.25c0-.6,0-1.19,0-1.78,0-.28.1-.39.38-.39H178c.25,0,.37.11.36.36,0,1.2,0,2.41,0,3.61,0,.26-.12.36-.37.36h-3.15c-.3,0-.4-.13-.39-.42C174.46,149.41,174.45,148.83,174.45,148.25Z"/><path class="cls-1" d="M174.45,112.33c0-.59,0-1.18,0-1.78,0-.25.09-.36.36-.36,1.06,0,2.13,0,3.19,0,.27,0,.35.12.35.37,0,1.19,0,2.37,0,3.56,0,.27-.1.38-.39.38q-1.58,0-3.15,0c-.29,0-.37-.12-.37-.39C174.45,113.52,174.45,112.93,174.45,112.33Z"/><path class="cls-1" d="M174.45,121.3c0-.58,0-1.16,0-1.74,0-.3.11-.4.4-.39q1.56,0,3.12,0c.27,0,.39.08.39.37,0,1.18,0,2.37,0,3.56,0,.27-.11.38-.39.38-1.05,0-2.1,0-3.16,0-.26,0-.36-.1-.36-.36C174.45,122.51,174.45,121.91,174.45,121.3Z"/><path class="cls-1" d="M174.45,130.28c0-.58,0-1.16,0-1.74,0-.27.08-.39.37-.38H178c.28,0,.38.1.38.38,0,1.17,0,2.34,0,3.52,0,.3-.13.39-.42.39h-3.08c-.32,0-.42-.12-.41-.43C174.46,131.44,174.45,130.86,174.45,130.28Z"/><path class="cls-1" d="M197.23,131c0,1,0,2,0,3,0,.38-.16.53-.54.53-1.41,0-2.83,0-4.24,0-.36,0-.49-.15-.52-.51a2,2,0,0,1,.49-1.48c1.33-1.63,2.64-3.27,4-4.91.15-.2.32-.34.58-.24s.27.31.27.54C197.23,129,197.23,130,197.23,131Z"/><path class="cls-1" d="M201.54,145.16h-2.1c-.43,0-.56-.13-.56-.56,0-.83,0-1.67,0-2.5,0-.38.17-.54.54-.54h4.28c.37,0,.53.17.52.55,0,.82,0,1.64,0,2.46,0,.48-.11.59-.6.59Z"/><path class="cls-1" d="M194.56,145.16H192.5c-.46,0-.58-.12-.58-.58,0-.82,0-1.64,0-2.46,0-.45.11-.56.55-.56h4.2c.45,0,.55.12.56.55v2.47c0,.45-.12.57-.57.58Z"/><path class="cls-1" d="M201.53,134.59c-.7,0-1.4,0-2.1,0-.38,0-.56-.15-.56-.52,0-.85,0-1.7,0-2.55,0-.36.17-.53.55-.52,1.41,0,2.82,0,4.24,0,.37,0,.54.14.54.52,0,.85,0,1.7,0,2.55,0,.38-.17.52-.54.52C203,134.58,202.24,134.59,201.53,134.59Z"/><path class="cls-1" d="M201.57,129.31h-2.19a.43.43,0,0,1-.5-.48c0-.88,0-1.75,0-2.63,0-.33.16-.48.5-.48,1.45,0,2.89,0,4.33,0,.34,0,.5.14.5.48,0,.88,0,1.75,0,2.63,0,.34-.15.49-.49.48Z"/><path class="cls-1" d="M201.54,136.28h2.1c.46,0,.56.1.56.54,0,.85,0,1.69,0,2.54,0,.37-.16.51-.52.51h-4.28c-.36,0-.53-.15-.53-.5q0-1.29,0-2.58a.45.45,0,0,1,.52-.51Z"/><path class="cls-1" d="M201.52,150.45h-2.1a.47.47,0,0,1-.55-.54c0-.85,0-1.7,0-2.55a.44.44,0,0,1,.51-.51c1.44,0,2.89,0,4.33,0a.43.43,0,0,1,.49.49c0,.86,0,1.73,0,2.59,0,.39-.19.52-.55.52Z"/><path class="cls-1" d="M194.57,139.87c-.7,0-1.4,0-2.1,0-.37,0-.55-.14-.55-.51v-2.59c0-.32.15-.49.5-.49h4.32a.43.43,0,0,1,.49.49c0,.88,0,1.76,0,2.63a.41.41,0,0,1-.47.47Z"/><path class="cls-1" d="M194.61,146.85h2.06c.46,0,.55.1.56.54v2.51c0,.43-.12.54-.56.54h-4.2c-.38,0-.55-.16-.55-.53v-2.55c0-.37.16-.53.54-.52C193.18,146.86,193.89,146.85,194.61,146.85Z"/><path class="cls-1" d="M204.2,121.21v2.22c0,.43-.15.59-.59.59q-1.76,0-3.51,0a.52.52,0,0,1-.54-.28.52.52,0,0,1,.16-.55l3.64-4.53c.14-.18.29-.33.55-.24s.29.32.29.56C204.19,119.72,204.2,120.47,204.2,121.21Z"/><path class="cls-1" d="M212.58,146.87h2.19c.36,0,.51.16.51.51v2.55a.45.45,0,0,1-.52.52h-4.45c-.32,0-.48-.15-.48-.46,0-.89,0-1.78,0-2.67,0-.31.18-.46.5-.45Z"/><path class="cls-1" d="M212.55,141.61h2.15c.48,0,.58.1.58.56v2.47c0,.37-.15.54-.53.54h-4.41a.44.44,0,0,1-.52-.5v-2.55c0-.37.17-.53.55-.52C211.1,141.63,211.83,141.61,212.55,141.61Z"/><path class="cls-1" d="M219.71,146.87h2.18c.36,0,.52.15.52.51,0,.85,0,1.7,0,2.54,0,.36-.15.53-.51.53h-4.41c-.36,0-.51-.16-.51-.52,0-.85,0-1.7,0-2.54,0-.39.17-.53.54-.52Z"/><path class="cls-1" d="M219.72,141.61h2.11c.48,0,.57.09.58.56,0,.82,0,1.64,0,2.47,0,.37-.15.54-.53.54h-4.37c-.37,0-.54-.14-.53-.53,0-.83,0-1.67,0-2.51,0-.45.09-.52.56-.53Z"/><text class="cls-3" transform="translate(163.13 67.18)">Sus<tspan class="cls-4" x="16.04" y="0">t</tspan><tspan x="20.5" y="0">ainable </tspan><tspan x="0" y="14.8">cities and </tspan><tspan x="0" y="29.6">communities</tspan></text></g></g></svg>