<svg xmlns="http://www.w3.org/2000/svg" viewBox="0 0 378.08 212.67"><defs><style>.cls-1{fill:#e58f14;}.cls-2{fill:#fff;}</style></defs><g id="Capa_2" data-name="Capa 2"><g id="Capa_1-2" data-name="Capa 1"><rect class="cls-1" width="378.08" height="212.67"/><path class="cls-2" d="M174.73,136c-.27-.21-.44-.33-.6-.47-.68-.6-1.35-1.21-2-1.82-.38-.36-.31-.62.2-.76l10.74-3,.28-.07c.41-.1.6,0,.55.47-.08.75-.21,1.5-.33,2.24-.49,3-1,6-1.49,9.06a.77.77,0,0,1-.3.54c-.1.05-.38-.12-.53-.25-.7-.61-1.39-1.23-2.07-1.87-.26-.25-.44-.23-.72,0a16.76,16.76,0,0,1-6.56,3c-6.72,1.34-12.71-.05-17.63-5a16.18,16.18,0,0,1-4.65-9.51,25.74,25.74,0,0,1,.63-10.66c1.81-6.24,5.94-10.15,12.16-11.88a18.4,18.4,0,0,1,4.55-.67,19.05,19.05,0,0,1,13.82,5.18,36.94,36.94,0,0,1,6.88,8.81c1.32,2.26,2.49,4.6,3.75,6.9a27.14,27.14,0,0,0,5.7,7.5,18.17,18.17,0,0,0,9.11,4.47,11.44,11.44,0,0,0,10.49-3.16,11.57,11.57,0,0,0,3.09-6.17,19.68,19.68,0,0,0-.38-9.76c-1.32-4.24-4.32-6.71-8.53-7.83a13.28,13.28,0,0,0-5-.46,14.47,14.47,0,0,0-5.21,1.67,20.81,20.81,0,0,0-6.23,5.51c-.38.48-.74,1-1.11,1.45s-.58.41-.83,0c-.8-1.38-1.6-2.75-2.36-4.15a.73.73,0,0,1,0-.66c3-3.78,6.54-6.92,11.29-8.39a17.33,17.33,0,0,1,5.88-.94,19.56,19.56,0,0,1,12.27,4.43,16.49,16.49,0,0,1,5.12,8,23.58,23.58,0,0,1,.92,6.14,23,23,0,0,1-1.25,8.75,16.17,16.17,0,0,1-12.8,10.94A19.34,19.34,0,0,1,200,142c-5.72-2.51-9.74-6.81-12.79-12.11-1.18-2-2.2-4.18-3.35-6.24a40.08,40.08,0,0,0-5.58-7.93,15,15,0,0,0-9.42-4.89,13.25,13.25,0,0,0-5.47.62,11.14,11.14,0,0,0-6.58,4.92,13.89,13.89,0,0,0-1.79,5.42,21.55,21.55,0,0,0-.08,5.2,11.57,11.57,0,0,0,7.72,10.16,13.13,13.13,0,0,0,10.34-.22C173.53,136.68,174.05,136.35,174.73,136Z"/><path class="cls-2" d="M149.39,76.39c.25,0,.42,0,.59,0,1.93,0,3.86,0,5.79,0,.41,0,.54.12.52.53,0,.81,0,1.62,0,2.43,0,.3-.1.4-.4.4-3.64,0-7.29,0-10.93,0-.31,0-.39-.12-.39-.4,0-.72,0-1.44,0-2.15a2,2,0,0,1,.27-.93c2.13-3.33,4.3-6.64,6.43-10a7,7,0,0,0,1.34-3.47,6.3,6.3,0,0,0-.15-1.68A1.43,1.43,0,0,0,151.14,60a1.67,1.67,0,0,0-1.9.91,10.78,10.78,0,0,0-.49,2.11,5,5,0,0,0,0,1.09c0,.23-.06.35-.31.35-1.18,0-2.35,0-3.53,0a.44.44,0,0,1-.3-.26,9.47,9.47,0,0,1,.94-5.1,5.12,5.12,0,0,1,4.23-2.67,8.65,8.65,0,0,1,3.32.23,4.88,4.88,0,0,1,3.67,4,8.82,8.82,0,0,1-1.48,6.78c-1.83,2.8-3.7,5.57-5.55,8.36C149.62,76,149.53,76.16,149.39,76.39Z"/><path class="cls-2" d="M137.62,61.18l-3.28,1.17a2.94,2.94,0,0,1,0-.37c0-.77,0-1.54,0-2.31a.58.58,0,0,1,.41-.64,15.38,15.38,0,0,0,3.75-2.2.65.65,0,0,1,.4-.14h2.72c.27,0,.4.09.38.37a1.92,1.92,0,0,0,0,.24V79.16c0,.62,0,.62-.62.62h-3.08c-.58,0-.58,0-.58-.58V61.75C137.67,61.58,137.64,61.41,137.62,61.18Z"/><path class="cls-2" d="M142,57.05a1.92,1.92,0,0,0,0,.24V79.16c0,.62,0,.62-.62.62h-3.08c-.58,0-.58,0-.58-.58V61.75c0-.17,0-.34,0-.57l-3.28,1.17a2.94,2.94,0,0,1,0-.37c0-.77,0-1.54,0-2.31a.58.58,0,0,1,.41-.64,15.38,15.38,0,0,0,3.75-2.2.65.65,0,0,1,.4-.14h2.72C141.84,56.67,142,56.77,142,57.05Zm2.62,22.33c0-.72,0-1.44,0-2.15a2,2,0,0,1,.27-.93c2.13-3.33,4.3-6.64,6.43-10a7,7,0,0,0,1.34-3.47,6.3,6.3,0,0,0-.15-1.68A1.43,1.43,0,0,0,151.14,60a1.67,1.67,0,0,0-1.9.91,10.78,10.78,0,0,0-.49,2.11,5,5,0,0,0,0,1.09c0,.23-.06.35-.31.35-1.18,0-2.35,0-3.53,0a.44.44,0,0,1-.3-.26,9.47,9.47,0,0,1,.94-5.1,5.12,5.12,0,0,1,4.23-2.67,8.65,8.65,0,0,1,3.32.23,4.88,4.88,0,0,1,3.67,4,8.82,8.82,0,0,1-1.48,6.78c-1.83,2.8-3.7,5.57-5.55,8.36-.1.15-.19.31-.33.54.25,0,.42,0,.59,0,1.93,0,3.86,0,5.79,0,.41,0,.54.12.52.53,0,.81,0,1.62,0,2.43,0,.3-.1.4-.4.4-3.64,0-7.29,0-10.93,0C144.65,79.78,144.57,79.66,144.57,79.38Zm79.81,53.28a16.17,16.17,0,0,1-12.8,10.94A19.34,19.34,0,0,1,200,142c-5.72-2.51-9.74-6.81-12.79-12.11-1.18-2-2.2-4.18-3.35-6.24a40.08,40.08,0,0,0-5.58-7.93,15,15,0,0,0-9.42-4.89,13.25,13.25,0,0,0-5.47.62,11.14,11.14,0,0,0-6.58,4.92,13.89,13.89,0,0,0-1.79,5.42,21.55,21.55,0,0,0-.08,5.2,11.57,11.57,0,0,0,7.72,10.16,13.13,13.13,0,0,0,10.34-.22c.57-.25,1.09-.58,1.77-1-.27-.21-.44-.33-.6-.47-.68-.6-1.35-1.21-2-1.82-.38-.36-.31-.62.2-.76l10.74-3,.28-.07c.41-.1.6,0,.55.47-.08.75-.21,1.5-.33,2.24-.49,3-1,6-1.49,9.06a.77.77,0,0,1-.3.54c-.1.05-.38-.12-.53-.25-.7-.61-1.39-1.23-2.07-1.87-.26-.25-.44-.23-.72,0a16.76,16.76,0,0,1-6.56,3c-6.72,1.34-12.71-.05-17.63-5a16.18,16.18,0,0,1-4.65-9.51,25.74,25.74,0,0,1,.63-10.66c1.81-6.24,5.94-10.15,12.16-11.88a18.4,18.4,0,0,1,4.55-.67,19.05,19.05,0,0,1,13.82,5.18,36.94,36.94,0,0,1,6.88,8.81c1.32,2.26,2.49,4.6,3.75,6.9a27.14,27.14,0,0,0,5.7,7.5,18.17,18.17,0,0,0,9.11,4.47,11.44,11.44,0,0,0,10.49-3.16,11.57,11.57,0,0,0,3.09-6.17,19.68,19.68,0,0,0-.38-9.76c-1.32-4.24-4.32-6.71-8.53-7.83a13.28,13.28,0,0,0-5-.46,14.47,14.47,0,0,0-5.21,1.67,20.81,20.81,0,0,0-6.23,5.51c-.38.48-.74,1-1.11,1.45s-.58.41-.83,0c-.8-1.38-1.6-2.75-2.36-4.15a.73.73,0,0,1,0-.66c3-3.78,6.54-6.92,11.29-8.39a17.33,17.33,0,0,1,5.88-.94,19.56,19.56,0,0,1,12.27,4.43,16.49,16.49,0,0,1,5.12,8,23.58,23.58,0,0,1,.92,6.14A23,23,0,0,1,224.38,132.66Z"/><path class="cls-2" d="M168.88,65.78a2.8,2.8,0,0,1-.13-1.12V63.23c0-.85-.29-1.16-.94-1.16h-.49v3.71h-1.43v-9.1h2.16c1.48,0,2.12.69,2.12,2.09v.71a1.82,1.82,0,0,1-.94,1.85c.72.3,1,1,1,1.94v1.4a2.6,2.6,0,0,0,.16,1.11ZM167.32,58v2.79h.56c.53,0,.86-.23.86-1v-.9c0-.65-.22-.93-.73-.93Z"/><path class="cls-2" d="M172.55,60.51h2v1.3h-2v2.67H175v1.3h-3.9v-9.1H175V58h-2.47Z"/><path class="cls-2" d="M177.82,56.57c1.39,0,2.11.83,2.11,2.29v.29h-1.35v-.38c0-.65-.26-.9-.72-.9s-.71.25-.71.9c0,1.87,2.79,2.22,2.79,4.82,0,1.46-.73,2.29-2.13,2.29s-2.13-.83-2.13-2.29V63H177v.65c0,.65.29.89.74.89s.74-.24.74-.89c0-1.87-2.79-2.22-2.79-4.82C175.72,57.4,176.43,56.57,177.82,56.57Z"/><path class="cls-2" d="M185,58.92v1.19c0,1.45-.7,2.25-2.13,2.25h-.68v3.42h-1.43v-9.1h2.11C184.3,56.68,185,57.47,185,58.92ZM182.19,58v3.08h.68c.45,0,.7-.21.7-.86V58.83c0-.65-.25-.85-.7-.85Z"/><path class="cls-2" d="M185.55,58.86a2.17,2.17,0,1,1,4.34,0v4.73a2.17,2.17,0,1,1-4.34,0ZM187,63.68c0,.65.28.9.74.9s.74-.25.74-.9V58.77c0-.65-.29-.9-.74-.9s-.74.25-.74.9Z"/><path class="cls-2" d="M192.09,59.19v6.59H190.8v-9.1h1.79l1.47,5.44V56.68h1.28v9.1h-1.47Z"/><path class="cls-2" d="M198.29,56.57c1.39,0,2.1.83,2.1,2.29v.29H199v-.38c0-.65-.26-.9-.71-.9s-.72.25-.72.9c0,1.87,2.8,2.22,2.8,4.82,0,1.46-.73,2.29-2.14,2.29s-2.13-.83-2.13-2.29V63h1.35v.65c0,.65.29.89.74.89s.74-.24.74-.89c0-1.87-2.79-2.22-2.79-4.82C196.18,57.4,196.89,56.57,198.29,56.57Z"/><path class="cls-2" d="M201.22,56.68h1.43v9.1h-1.43Z"/><path class="cls-2" d="M208,58.77v.32a1.8,1.8,0,0,1-.92,1.84,1.83,1.83,0,0,1,1.06,2v.74a1.94,1.94,0,0,1-2.17,2.16h-2.25v-9.1h2.16C207.33,56.68,208,57.37,208,58.77ZM205.12,58v2.4h.56c.54,0,.86-.23.86-1v-.51c0-.65-.22-.93-.73-.93Zm0,3.7v2.8h.82c.48,0,.74-.23.74-.9v-.79c0-.85-.27-1.11-.92-1.11Z"/><path class="cls-2" d="M209,56.68h1.43v7.8h2.36v1.3H209Z"/><path class="cls-2" d="M214.81,60.51h2v1.3h-2v2.67h2.47v1.3h-3.9v-9.1h3.9V58h-2.47Z"/><path class="cls-2" d="M170.13,73.73v1.18c0,1.46-.7,2.25-2.13,2.25h-.68v3.42h-1.43v-9.1H168C169.43,71.48,170.13,72.27,170.13,73.73Zm-2.81-1v3.08H168c.45,0,.7-.21.7-.86V73.63c0-.65-.25-.85-.7-.85Z"/><path class="cls-2" d="M173.78,80.58a2.8,2.8,0,0,1-.13-1.12V78c0-.85-.28-1.16-.93-1.16h-.5v3.71h-1.43v-9.1H173c1.48,0,2.12.69,2.12,2.09v.72a1.81,1.81,0,0,1-.94,1.84c.72.3,1,1,1,1.94v1.4a2.6,2.6,0,0,0,.16,1.11Zm-1.56-7.8v2.79h.56c.53,0,.86-.23.86-1v-.9c0-.65-.22-.93-.73-.93Z"/><path class="cls-2" d="M175.9,73.66a2.17,2.17,0,1,1,4.34,0v4.73a2.17,2.17,0,1,1-4.34,0Zm1.43,4.82c0,.65.29.9.74.9s.74-.25.74-.9V73.57c0-.65-.28-.9-.74-.9s-.74.25-.74.9Z"/><path class="cls-2" d="M181.16,71.48h2.27c1.43,0,2.13.79,2.13,2.25v4.6c0,1.45-.7,2.25-2.13,2.25h-2.27Zm1.43,1.3v6.5h.81c.46,0,.73-.24.73-.89V73.66c0-.65-.27-.88-.73-.88Z"/><path class="cls-2" d="M187.83,71.48v7c0,.65.29.88.74.88s.75-.23.75-.88v-7h1.35v6.93a2.14,2.14,0,1,1-4.27,0V71.48Z"/><path class="cls-2" d="M195.79,77.18v1.21c0,1.46-.73,2.29-2.13,2.29s-2.13-.83-2.13-2.29V73.66c0-1.45.72-2.29,2.13-2.29a2,2,0,0,1,2.13,2.29v.88h-1.35v-1c0-.65-.29-.9-.74-.9s-.74.25-.74.9v4.91c0,.65.28.89.74.89s.74-.24.74-.89v-1.3Z"/><path class="cls-2" d="M196.24,71.48h4.42v1.3h-1.49v7.8h-1.43v-7.8h-1.5Z"/><path class="cls-2" d="M201.29,71.48h1.43v9.1h-1.43Z"/><path class="cls-2" d="M203.64,73.66a2.17,2.17,0,1,1,4.34,0v4.73a2.17,2.17,0,1,1-4.34,0Zm1.43,4.82c0,.65.29.9.74.9s.74-.25.74-.9V73.57c0-.65-.28-.9-.74-.9s-.74.25-.74.9Z"/><path class="cls-2" d="M210.18,74v6.59h-1.29v-9.1h1.8l1.47,5.44V71.48h1.27v9.1H212Z"/><path class="cls-2" d="M221.1,80.58h-1.44l-.25-1.65h-1.76l-.24,1.65h-1.32l1.46-9.1h2.09Zm-3.26-2.89h1.37l-.69-4.6Z"/><path class="cls-2" d="M223,74v6.59h-1.29v-9.1h1.79L225,76.92V71.48h1.28v9.1h-1.47Z"/><path class="cls-2" d="M227.31,71.48h2.26c1.43,0,2.14.79,2.14,2.25v4.6a2,2,0,0,1-2.14,2.25h-2.26Zm1.43,1.3v6.5h.81c.45,0,.73-.24.73-.89V73.66c0-.65-.28-.88-.73-.88Z"/><path class="cls-2" d="M170,92v1.21c0,1.46-.73,2.29-2.13,2.29s-2.14-.83-2.14-2.29V88.46c0-1.46.73-2.29,2.14-2.29S170,87,170,88.46v.88h-1.35v-1c0-.65-.29-.9-.75-.9s-.74.25-.74.9v4.91c0,.65.29.89.74.89s.75-.24.75-.89V92Z"/><path class="cls-2" d="M170.79,88.46a2.17,2.17,0,1,1,4.34,0v4.73a2.17,2.17,0,1,1-4.34,0Zm1.43,4.82c0,.65.29.9.74.9s.74-.25.74-.9V88.37c0-.65-.28-.9-.74-.9s-.74.25-.74.9Z"/><path class="cls-2" d="M177.33,88.79v6.59H176v-9.1h1.8l1.47,5.44V86.28h1.27v9.1h-1.47Z"/><path class="cls-2" d="M183.53,86.17c1.39,0,2.11.83,2.11,2.29v.29h-1.36v-.38c0-.65-.26-.9-.71-.9s-.72.25-.72.9c0,1.87,2.8,2.22,2.8,4.82,0,1.46-.73,2.29-2.13,2.29s-2.14-.83-2.14-2.29v-.56h1.36v.65c0,.65.28.89.74.89s.74-.24.74-.89c0-1.87-2.8-2.22-2.8-4.82C181.42,87,182.14,86.17,183.53,86.17Z"/><path class="cls-2" d="M187.83,86.28v7c0,.65.29.88.74.88s.75-.23.75-.88v-7h1.35v6.93a2.14,2.14,0,1,1-4.27,0V86.28Z"/><path class="cls-2" d="M194.67,92.74l1-6.46h2v9.1h-1.36V88.85l-1,6.53h-1.36l-1.06-6.44v6.44h-1.25v-9.1h2Z"/><path class="cls-2" d="M202.91,88.53v1.18c0,1.45-.7,2.25-2.13,2.25h-.67v3.42h-1.43v-9.1h2.1C202.21,86.28,202.91,87.07,202.91,88.53Zm-2.8-1v3.08h.67c.46,0,.7-.21.7-.86V88.43c0-.64-.24-.85-.7-.85Z"/><path class="cls-2" d="M203.16,86.28h4.42v1.3h-1.49v7.8h-1.43v-7.8h-1.5Z"/><path class="cls-2" d="M208.21,86.28h1.42v9.1h-1.42Z"/><path class="cls-2" d="M210.56,88.46a2.17,2.17,0,1,1,4.34,0v4.73a2.17,2.17,0,1,1-4.34,0ZM212,93.28c0,.65.28.9.74.9s.74-.25.74-.9V88.37c0-.65-.29-.9-.74-.9s-.74.25-.74.9Z"/><path class="cls-2" d="M217.1,88.79v6.59h-1.29v-9.1h1.79l1.47,5.44V86.28h1.28v9.1h-1.47Z"/></g></g></svg>