<svg xmlns="http://www.w3.org/2000/svg" viewBox="0 0 123.19 123.19"><defs><style>.cls-1{fill:#f0e1e5;}.cls-2{fill:#aa526a;}.cls-3{fill:#a61236;}.cls-4{fill:#fefefe;}.cls-5{fill:#8e1838;}.cls-6{font-size:14px;fill:#fff;font-family:BebasNeueBold, Bebas Neue;}</style></defs><g id="Capa_2" data-name="Capa 2"><g id="Capa_1-2" data-name="Capa 1"><path class="cls-1" d="M123.1,0s.09,0,.09,0,0,.22,0,.32q0,61.22,0,122.42c0,.33-.06.39-.39.39H.37c-.12,0-.27.09-.36-.08L.14,123a2.41,2.41,0,0,1,.8-.07H122.05c1,0,.89.09.89-.89q0-60.48,0-121A2.59,2.59,0,0,1,123,.15Z"/><path class="cls-2" d="M123.1,0V.09a.69.69,0,0,1-.49.16H1.19c-1,0-.94-.11-.94.93V122.1c0,.33.09.68-.15,1H0Q0,61.74,0,.39C0,.07.07,0,.39,0Z"/><path class="cls-3" d="M.1,123.08c0-.18,0-.35,0-.53V.73a2.62,2.62,0,0,0,0-.28C.05.16.18.05.46.09A1.92,1.92,0,0,0,.7.09H123.1c0,.17,0,.33,0,.49v122c0,.53,0,.53-.54.53H.1Z"/><path class="cls-4" d="M82.21,88.33v19.43c0,.77-.15.92-.92.92H70.93c-.69,0-.86-.17-.86-.85q0-13.93,0-27.86a2.32,2.32,0,0,1,.78-1.82c2-1.86,4-3.74,5.93-5.62l4.34-4.13.12-.11c.2-.17.39-.43.69-.3s.29.46.29.74Z"/><path class="cls-4" d="M67.09,95.68v12.1c0,.75-.16.9-.9.9H55.79c-.68,0-.86-.18-.86-.86V84c0-.29-.06-.65.26-.8s.55.14.75.34l4.45,4.53c.38.38.4.38.77,0,1.62-1.63,3.23-3.26,4.85-4.88.22-.23.43-.54.81-.38s.26.52.26.82Q67.1,89.68,67.09,95.68Z"/><path class="cls-4" d="M85.72,55.73c.32,0,.39.22.33.51-.33,1.49-.65,3-1,4.47-.26,1.21-.51,2.42-.77,3.63,0,.16,0,.33-.24.38s-.3,0-.42-.17C83.1,64,82.54,63.44,82,62.88c-.14-.14-.22-.15-.36,0q-2.37,2.4-4.77,4.79L71.4,73.12l-5.34,5.36c-1.65,1.65-3.31,3.3-5,5-.26.27-.44.2-.67,0-1.77-1.79-3.54-3.56-5.31-5.34l-2.8-2.81c-.14-.15-.23-.15-.38,0q-4,4-8,8c-1.69,1.69-3.39,3.37-5.07,5.06-.26.26-.43.27-.69,0-.65-.67-1.31-1.33-2-2-.24-.24-.26-.42,0-.67L42.3,79.6l5.86-5.88L51.86,70c.21-.21.37-.2.58,0l5.29,5.29c1,.94,1.9,1.88,2.83,2.84.21.22.32.16.5,0q4.23-4.25,8.47-8.47,4.66-4.67,9.33-9.32c.27-.26.24-.39,0-.62-.53-.51-1.06-1-1.57-1.57-.27-.28-.2-.51.15-.59l8-1.79Z"/><path class="cls-4" d="M51.71,94.85v12.92c0,.77-.15.91-.92.91H40.47c-.76,0-.91-.15-.91-.89q0-7.35,0-14.69a2.3,2.3,0,0,1,.78-1.82c2.8-2.63,5.58-5.29,8.37-7.93l2-1.94c.2-.19.41-.44.73-.3s.27.44.27.71Z"/><path class="cls-4" d="M19.41,21.75a5.14,5.14,0,0,1,2.53,3.77,10.5,10.5,0,0,1-.14,4.73A5.16,5.16,0,0,1,17,34.41a9.57,9.57,0,0,1-3-.13A4.94,4.94,0,0,1,10.1,31a10,10,0,0,1-.31-5.89,4.87,4.87,0,0,1,2.43-3.33l-.66-.66a5.92,5.92,0,0,1-1.65-3.77,8.69,8.69,0,0,1,.25-3.21,5.12,5.12,0,0,1,4.91-3.81,7.45,7.45,0,0,1,3,.3,4.59,4.59,0,0,1,3.18,3.07,8.29,8.29,0,0,1-.22,6A5.69,5.69,0,0,1,19.41,21.75Z"/><path class="cls-5" d="M13.91,27.44A8,8,0,0,1,14.22,25a1.58,1.58,0,0,1,1.87-1.23A1.49,1.49,0,0,1,17.42,25,8.48,8.48,0,0,1,17.35,30a1.41,1.41,0,0,1-1.59,1.09A1.49,1.49,0,0,1,14.25,30,7.36,7.36,0,0,1,13.91,27.44Z"/><path class="cls-5" d="M14.1,16.75a4.7,4.7,0,0,1,.38-2.22,1.44,1.44,0,0,1,1.39-.86,1.36,1.36,0,0,1,1.29.94,5.94,5.94,0,0,1,.23,3.18,4.25,4.25,0,0,1-.36,1.4,1.29,1.29,0,0,1-1.21.86,1.32,1.32,0,0,1-1.23-.84A5.68,5.68,0,0,1,14.1,16.75Z"/><text class="cls-6" transform="translate(29.52 19.58)">Decent work <tspan x="0" y="14.8">and economic </tspan><tspan x="0" y="29.6">growth</tspan></text></g></g></svg>