<svg xmlns="http://www.w3.org/2000/svg" viewBox="0 0 123.19 123.19"><defs><style>.cls-1{fill:#f0e1e5;}.cls-2{fill:#aa526a;}.cls-3{fill:#a61236;}.cls-4{fill:#fefefe;}.cls-5{fill:#8e1838;}.cls-6{fill:#fff;}</style></defs><g id="Capa_2" data-name="Capa 2"><g id="Capa_1-2" data-name="Capa 1"><path class="cls-1" d="M123.1,0s.09,0,.09,0,0,.22,0,.32q0,61.22,0,122.42c0,.33-.06.39-.39.39H.37c-.12,0-.27.09-.36-.08L.14,123a2.41,2.41,0,0,1,.8-.07H122.05c1,0,.89.09.89-.89q0-60.48,0-121A2.59,2.59,0,0,1,123,.15Z"/><path class="cls-2" d="M123.1,0V.09a.69.69,0,0,1-.49.16H1.19c-1,0-.94-.11-.94.93V122.1c0,.33.09.68-.15,1H0Q0,61.74,0,.39C0,.07.07,0,.39,0Z"/><path class="cls-3" d="M.1,123.08c0-.18,0-.35,0-.53V.73a2.62,2.62,0,0,0,0-.28C.05.16.18.05.46.09A1.92,1.92,0,0,0,.7.09H123.1c0,.17,0,.33,0,.49v122c0,.53,0,.53-.54.53H.1Z"/><path class="cls-4" d="M82.21,88.33v19.43c0,.77-.15.92-.92.92H70.93c-.69,0-.86-.17-.86-.85q0-13.93,0-27.86a2.32,2.32,0,0,1,.78-1.82c2-1.86,4-3.74,5.93-5.62l4.34-4.13.12-.11c.2-.17.39-.43.69-.3s.29.46.29.74Z"/><path class="cls-4" d="M67.09,95.68v12.1c0,.75-.16.9-.9.9H55.79c-.68,0-.86-.18-.86-.86V84c0-.29-.06-.65.26-.8s.55.14.75.34l4.45,4.53c.38.38.4.38.77,0,1.62-1.63,3.23-3.26,4.85-4.88.22-.23.43-.54.81-.38s.26.52.26.82Q67.1,89.68,67.09,95.68Z"/><path class="cls-4" d="M85.72,55.73c.32,0,.39.22.33.51-.33,1.49-.65,3-1,4.47-.26,1.21-.51,2.42-.77,3.63,0,.16,0,.33-.24.38s-.3,0-.42-.17C83.1,64,82.54,63.44,82,62.88c-.14-.14-.22-.15-.36,0q-2.37,2.4-4.77,4.79L71.4,73.12l-5.34,5.36c-1.65,1.65-3.31,3.3-5,5-.26.27-.44.2-.67,0-1.77-1.79-3.54-3.56-5.31-5.34l-2.8-2.81c-.14-.15-.23-.15-.38,0q-4,4-8,8c-1.69,1.69-3.39,3.37-5.07,5.06-.26.26-.43.27-.69,0-.65-.67-1.31-1.33-2-2-.24-.24-.26-.42,0-.67L42.3,79.6l5.86-5.88L51.86,70c.21-.21.37-.2.58,0l5.29,5.29c1,.94,1.9,1.88,2.83,2.84.21.22.32.16.5,0q4.23-4.25,8.47-8.47,4.66-4.67,9.33-9.32c.27-.26.24-.39,0-.62-.53-.51-1.06-1-1.57-1.57-.27-.28-.2-.51.15-.59l8-1.79Z"/><path class="cls-4" d="M51.71,94.85v12.92c0,.77-.15.91-.92.91H40.47c-.76,0-.91-.15-.91-.89q0-7.35,0-14.69a2.3,2.3,0,0,1,.78-1.82c2.8-2.63,5.58-5.29,8.37-7.93l2-1.94c.2-.19.41-.44.73-.3s.27.44.27.71Z"/><path class="cls-4" d="M19.41,21.75a5.14,5.14,0,0,1,2.53,3.77,10.5,10.5,0,0,1-.14,4.73A5.16,5.16,0,0,1,17,34.41a9.57,9.57,0,0,1-3-.13A4.94,4.94,0,0,1,10.1,31a10,10,0,0,1-.31-5.89,4.87,4.87,0,0,1,2.43-3.33l-.66-.66a5.92,5.92,0,0,1-1.65-3.77,8.69,8.69,0,0,1,.25-3.21,5.12,5.12,0,0,1,4.91-3.81,7.45,7.45,0,0,1,3,.3,4.59,4.59,0,0,1,3.18,3.07,8.29,8.29,0,0,1-.22,6A5.69,5.69,0,0,1,19.41,21.75Z"/><path class="cls-5" d="M13.91,27.44A8,8,0,0,1,14.22,25a1.58,1.58,0,0,1,1.87-1.23A1.49,1.49,0,0,1,17.42,25,8.48,8.48,0,0,1,17.35,30a1.41,1.41,0,0,1-1.59,1.09A1.49,1.49,0,0,1,14.25,30,7.36,7.36,0,0,1,13.91,27.44Z"/><path class="cls-5" d="M14.1,16.75a4.7,4.7,0,0,1,.38-2.22,1.44,1.44,0,0,1,1.39-.86,1.36,1.36,0,0,1,1.29.94,5.94,5.94,0,0,1,.23,3.18,4.25,4.25,0,0,1-.36,1.4,1.29,1.29,0,0,1-1.21.86,1.32,1.32,0,0,1-1.23-.84A5.68,5.68,0,0,1,14.1,16.75Z"/><path class="cls-6" d="M30.08,9.78h2.44c1.54,0,2.29.85,2.29,2.42v5c0,1.57-.75,2.42-2.29,2.42H30.08Zm1.54,1.4v7h.87c.49,0,.78-.25.78-.95v-5.1c0-.7-.29-1-.78-1Z"/><path class="cls-6" d="M37.33,13.91h2.12v1.4H37.33v2.87H40v1.4h-4.2V9.78H40v1.4H37.33Z"/><path class="cls-6" d="M45.41,15.93v1.3c0,1.57-.78,2.47-2.29,2.47s-2.3-.9-2.3-2.47v-5.1c0-1.57.78-2.46,2.3-2.46s2.29.89,2.29,2.46v.95H44V12c0-.7-.31-1-.8-1s-.8.26-.8,1v5.3c0,.7.31,1,.8,1s.8-.25.8-1v-1.4Z"/><path class="cls-6" d="M47.89,13.91H50v1.4H47.89v2.87h2.66v1.4h-4.2V9.78h4.2v1.4H47.89Z"/><path class="cls-6" d="M52.87,12.48v7.1H51.49V9.78h1.93L55,15.65V9.78h1.37v9.8H54.79Z"/><path class="cls-6" d="M57,9.78h4.76v1.4H60.18v8.4H58.64v-8.4H57Z"/><path class="cls-6" d="M68.05,14.36l-.56,5.22H65.37l-1.09-9.8h1.5l.83,7.73.74-7.73h1.48l.77,7.79.8-7.79h1.35l-1.1,9.8h-2Z"/><path class="cls-6" d="M72.39,12.13a2.34,2.34,0,1,1,4.67,0v5.1a2.34,2.34,0,1,1-4.67,0Zm1.54,5.2c0,.7.31,1,.8,1s.79-.26.79-1V12c0-.7-.3-1-.79-1s-.8.26-.8,1Z"/><path class="cls-6" d="M81.28,19.58a2.86,2.86,0,0,1-.14-1.2V16.84c0-.91-.31-1.25-1-1.25H79.6v4H78.06V9.78h2.32c1.6,0,2.28.74,2.28,2.25v.77a2,2,0,0,1-1,2c.77.32,1,1.07,1,2.09v1.51a2.77,2.77,0,0,0,.17,1.19Zm-1.68-8.4v3h.6c.57,0,.92-.25.92-1v-1c0-.7-.23-1-.78-1Z"/><path class="cls-6" d="M85.7,15.67l-.47.9v3H83.68V9.78h1.55v4.27l2-4.27h1.54l-2.14,4.37,2.14,5.43H87.2Z"/><path class="cls-6" d="M35.07,34.38H33.51l-.26-1.78h-1.9l-.26,1.78H29.67l1.57-9.8H33.5Zm-3.52-3.11H33l-.75-5Z"/><path class="cls-6" d="M37.15,27.28v7.1H35.76v-9.8H37.7l1.58,5.87V24.58h1.37v9.8H39.07Z"/><path class="cls-6" d="M41.76,24.58h2.43c1.54,0,2.3.85,2.3,2.42v5c0,1.57-.76,2.42-2.3,2.42H41.76ZM43.3,26v7h.86c.5,0,.79-.25.79-.95v-5.1c0-.7-.29-.95-.79-.95Z"/><path class="cls-6" d="M51.18,28.71h2.11v1.4H51.18V33h2.66v1.4h-4.2v-9.8h4.2V26H51.18Z"/><path class="cls-6" d="M59.26,30.73V32c0,1.57-.79,2.47-2.3,2.47s-2.3-.9-2.3-2.47v-5.1a2.31,2.31,0,1,1,4.6,0v.95H57.8V26.83c0-.7-.31-1-.8-1s-.8.26-.8,1v5.3c0,.7.31.95.8.95s.8-.25.8-.95v-1.4Z"/><path class="cls-6" d="M60.07,26.93a2.34,2.34,0,1,1,4.68,0V32a2.34,2.34,0,1,1-4.68,0Zm1.54,5.2c0,.7.31,1,.8,1s.8-.26.8-1v-5.3c0-.7-.31-1-.8-1s-.8.26-.8,1Z"/><path class="cls-6" d="M67.11,27.28v7.1H65.72v-9.8h1.94l1.58,5.87V24.58h1.37v9.8H69Z"/><path class="cls-6" d="M71.59,26.93a2.34,2.34,0,1,1,4.68,0V32a2.34,2.34,0,1,1-4.68,0Zm1.54,5.2c0,.7.31,1,.8,1s.8-.26.8-1v-5.3c0-.7-.31-1-.8-1s-.8.26-.8,1Z"/><path class="cls-6" d="M80.52,31.54l1-7h2.15v9.8H82.26v-7l-1.07,7H79.74l-1.15-6.93v6.93H77.24v-9.8h2.15Z"/><path class="cls-6" d="M84.83,24.58h1.54v9.8H84.83Z"/><path class="cls-6" d="M92,30.73V32c0,1.57-.78,2.47-2.3,2.47s-2.29-.9-2.29-2.47v-5.1c0-1.57.78-2.46,2.29-2.46s2.3.89,2.3,2.46v.95H90.5V26.83c0-.7-.3-1-.79-1s-.8.26-.8,1v5.3c0,.7.31.95.8.95s.79-.25.79-.95v-1.4Z"/><path class="cls-6" d="M32.39,43.72h2.16v3.11c0,1.57-.79,2.47-2.3,2.47S30,48.4,30,46.83v-5.1a2.15,2.15,0,0,1,2.3-2.46,2.15,2.15,0,0,1,2.3,2.46v1H33.09v-1c0-.7-.31-1-.8-1s-.8.26-.8,1v5.3c0,.7.31,1,.8,1s.8-.25.8-1V45.12h-.7Z"/><path class="cls-6" d="M38.76,49.18a3.05,3.05,0,0,1-.14-1.2V46.44c0-.91-.31-1.25-1-1.25h-.53v4H35.54v-9.8h2.33c1.59,0,2.28.74,2.28,2.25v.77a2,2,0,0,1-1,2c.77.33,1,1.07,1,2.09V48a2.93,2.93,0,0,0,.17,1.19Zm-1.68-8.4v3h.6c.58,0,.93-.25.93-1v-1c0-.7-.24-1-.79-1Z"/><path class="cls-6" d="M41,41.73a2.34,2.34,0,1,1,4.68,0v5.1a2.34,2.34,0,1,1-4.68,0Zm1.54,5.2c0,.7.31,1,.8,1s.8-.26.8-1v-5.3c0-.7-.31-1-.8-1s-.8.26-.8,1Z"/><path class="cls-6" d="M50.13,44l-.56,5.22H47.45l-1.09-9.8h1.5l.83,7.73.74-7.73h1.48l.77,7.79.8-7.79h1.35l-1.09,9.8H50.69Z"/><path class="cls-6" d="M54.15,39.38h4.76v1.4H57.3v8.4H55.76v-8.4H54.15Z"/><path class="cls-6" d="M61.12,49.18H59.58v-9.8h1.54v4.2h1.75v-4.2h1.57v9.8H62.87V45H61.12Z"/></g></g></svg>