<svg xmlns="http://www.w3.org/2000/svg" viewBox="0 0 378.08 212.67"><defs><style>.cls-1{fill:#9b1135;}.cls-2{fill:#fefefe;}.cls-3{fill:#8e1838;}.cls-4{font-size:14px;fill:#fff;font-family:BebasNeueBold, Bebas Neue;}</style></defs><g id="Capa_2" data-name="Capa 2"><g id="Capa_1-2" data-name="Capa 1"><rect class="cls-1" width="378.08" height="212.67"/><path class="cls-2" d="M214.78,138.93v19.44c0,.77-.15.92-.91.92H203.5c-.69,0-.86-.17-.86-.86q0-13.92,0-27.85a2.33,2.33,0,0,1,.79-1.82l5.93-5.62,4.34-4.13.11-.11c.21-.17.4-.43.7-.3s.28.46.28.74Z"/><path class="cls-2" d="M199.66,146.29v12.1c0,.74-.16.9-.9.9h-10.4c-.68,0-.86-.18-.86-.87v-23.8c0-.29-.06-.65.26-.79s.55.14.76.34L193,138.7c.37.38.39.38.76,0,1.62-1.62,3.23-3.25,4.85-4.88.22-.22.44-.54.81-.38s.27.53.27.83Z"/><path class="cls-2" d="M218.29,106.34c.33,0,.4.22.33.51l-1,4.46c-.26,1.21-.52,2.43-.77,3.64,0,.16,0,.33-.25.38a.43.43,0,0,1-.42-.17l-1.65-1.67c-.13-.14-.21-.15-.35,0l-4.77,4.79c-1.82,1.82-3.65,3.63-5.47,5.46l-5.35,5.35-4.95,5c-.26.26-.44.2-.67,0l-5.3-5.34c-.94-.93-1.87-1.86-2.8-2.8-.15-.15-.23-.16-.38,0l-8,8c-1.69,1.69-3.4,3.36-5.08,5.05-.26.27-.43.28-.69,0-.64-.67-1.3-1.33-2-2-.25-.24-.26-.42,0-.67,2-2,4.07-4.06,6.1-6.09l5.85-5.87c1.23-1.23,2.47-2.45,3.7-3.69.21-.21.37-.19.58,0l5.29,5.29c.95,1,1.9,1.89,2.83,2.85.22.22.32.15.51,0,2.81-2.83,5.64-5.65,8.46-8.47,3.11-3.11,6.22-6.23,9.34-9.32.26-.27.23-.4,0-.62-.54-.52-1.06-1-1.58-1.58-.26-.27-.2-.5.15-.58l8.05-1.8Z"/><path class="cls-2" d="M184.28,145.46v12.91c0,.77-.14.92-.92.92H173c-.75,0-.91-.16-.91-.89,0-4.9,0-9.8,0-14.7a2.37,2.37,0,0,1,.78-1.82c2.81-2.63,5.59-5.28,8.37-7.93l2-1.93c.2-.19.41-.45.73-.31s.26.45.26.71Z"/><path class="cls-2" d="M152,72.36a5.1,5.1,0,0,1,2.53,3.77,10.23,10.23,0,0,1-.14,4.73A5.15,5.15,0,0,1,149.52,85a9.57,9.57,0,0,1-3-.13,4.93,4.93,0,0,1-3.83-3.29,10,10,0,0,1-.31-5.89,4.88,4.88,0,0,1,2.43-3.33l-.65-.66a5.92,5.92,0,0,1-1.66-3.77,8.91,8.91,0,0,1,.25-3.21,5.13,5.13,0,0,1,4.92-3.82,7.78,7.78,0,0,1,3,.3,4.65,4.65,0,0,1,3.19,3.08,8.29,8.29,0,0,1-.23,6A5.77,5.77,0,0,1,152,72.36Z"/><path class="cls-3" d="M146.49,78a7.61,7.61,0,0,1,.3-2.47,1.58,1.58,0,0,1,1.87-1.23A1.47,1.47,0,0,1,150,75.57a8.37,8.37,0,0,1-.07,5.05,1.4,1.4,0,0,1-1.58,1.1,1.5,1.5,0,0,1-1.52-1.16A7.17,7.17,0,0,1,146.49,78Z"/><path class="cls-3" d="M146.68,67.35a4.42,4.42,0,0,1,.38-2.21,1.42,1.42,0,0,1,1.39-.86,1.31,1.31,0,0,1,1.28.93A6.08,6.08,0,0,1,150,68.4a4.53,4.53,0,0,1-.37,1.4,1.31,1.31,0,0,1-1.21.86,1.34,1.34,0,0,1-1.23-.84A5.68,5.68,0,0,1,146.68,67.35Z"/><text class="cls-4" transform="translate(163.96 71.49)">Decent work <tspan x="0" y="14.8">and economic </tspan><tspan x="0" y="29.6">growth</tspan></text></g></g></svg>