<svg xmlns="http://www.w3.org/2000/svg" viewBox="0 0 378.08 212.67"><defs><style>.cls-1{fill:#ffb200;}.cls-2{fill:#fefefe;}.cls-3{fill:#fcb613;}.cls-4{font-size:14px;fill:#fff;font-family:BebasNeueBold, Bebas Neue;}.cls-5{letter-spacing:0em;}.cls-6{letter-spacing:-0.01em;}</style></defs><g id="Capa_2" data-name="Capa 2"><g id="Capa_1-2" data-name="Capa 1"><rect class="cls-1" width="378.08" height="212.67"/><path class="cls-2" d="M189.11,112.14a15.67,15.67,0,1,1-15.65,15.66A15.68,15.68,0,0,1,189.11,112.14Z"/><path class="cls-2" d="M142.36,54.78c1.69,0,3.38,0,5.06,0,.33,0,.41.1.4.41,0,.78,0,1.56,0,2.35a7.46,7.46,0,0,1-.35,1.74q-.79,3.36-1.61,6.72c-1,4.1-2,8.19-3,12.3a.32.32,0,0,1-.37.3q-1.91,0-3.81,0c-.28,0-.29-.09-.23-.33q.84-3.37,1.66-6.75l3-12.13c.07-.27.13-.53.21-.78s0-.35-.28-.35c-1.87,0-3.75,0-5.62,0-.4,0-.51-.1-.49-.49q0-1.28,0-2.55c0-.39.12-.46.47-.46C139,54.79,140.7,54.78,142.36,54.78Z"/><path class="cls-2" d="M203.35,150.08a1.39,1.39,0,0,1-.89,1.33,1.29,1.29,0,0,1-1.53-.6c-1.1-1.91-2.21-3.83-3.3-5.75a1.34,1.34,0,0,1,.42-1.81,1.32,1.32,0,0,1,1.82.52c1.13,1.95,2.24,3.9,3.36,5.86A.8.8,0,0,1,203.35,150.08Z"/><path class="cls-2" d="M211.75,129h-3.32a1.32,1.32,0,0,1-1.35-1.31,1.29,1.29,0,0,1,1.34-1.27H215a1.31,1.31,0,0,1,1.35,1.26A1.33,1.33,0,0,1,215,129Z"/><path class="cls-2" d="M166.52,129h-3.31a1.33,1.33,0,0,1-1.34-1.29,1.3,1.3,0,0,1,1.32-1.29c2.23,0,4.45,0,6.67,0a1.26,1.26,0,0,1,1.29,1.28,1.29,1.29,0,0,1-1.31,1.3Z"/><path class="cls-2" d="M176.3,151.49a1.3,1.3,0,0,1-1.22-1.85c.45-.86.95-1.7,1.43-2.54.64-1.12,1.28-2.25,1.94-3.36a1.31,1.31,0,0,1,1.79-.46,1.33,1.33,0,0,1,.43,1.75c-1.1,1.94-2.22,3.88-3.33,5.82A1.18,1.18,0,0,1,176.3,151.49Z"/><path class="cls-2" d="M179.51,112.27a1.3,1.3,0,0,1-1.1-.63c-1.1-1.93-2.22-3.85-3.32-5.78a1.29,1.29,0,1,1,2.24-1.27c1.11,1.91,2.2,3.83,3.31,5.74a1.3,1.3,0,0,1-.06,1.38A1.22,1.22,0,0,1,179.51,112.27Z"/><path class="cls-2" d="M165.34,140.52a1.23,1.23,0,0,1,.65-1l5.72-3.28a1.3,1.3,0,1,1,1.27,2.25c-1.92,1.11-3.83,2.21-5.75,3.3A1.3,1.3,0,0,1,165.34,140.52Z"/><path class="cls-2" d="M190.41,105v3.32a1.28,1.28,0,0,1-1.27,1.34,1.27,1.27,0,0,1-1.31-1.3q0-3.33,0-6.64a1.28,1.28,0,0,1,1.28-1.33,1.31,1.31,0,0,1,1.29,1.37Z"/><path class="cls-2" d="M166.65,113.5a1.25,1.25,0,0,1,.69.22l5.71,3.28a1.28,1.28,0,0,1-1.24,2.25c-2-1.12-3.93-2.24-5.89-3.38a1.24,1.24,0,0,1-.56-1.47A1.32,1.32,0,0,1,166.65,113.5Z"/><path class="cls-2" d="M190.41,150.32v3.24a1.28,1.28,0,0,1-1.25,1.35,1.26,1.26,0,0,1-1.33-1.32V147a1.29,1.29,0,1,1,2.58,0Z"/><path class="cls-2" d="M198.66,112.23a1.27,1.27,0,0,1-1.12-1.87c1.11-2,2.24-3.93,3.37-5.89a1.29,1.29,0,0,1,2.24,1.27l-3.34,5.87A1.2,1.2,0,0,1,198.66,112.23Z"/><path class="cls-2" d="M212.92,140.59a1.26,1.26,0,0,1-1.87,1.11q-2.91-1.63-5.8-3.3a1.31,1.31,0,0,1-.53-1.84,1.33,1.33,0,0,1,1.81-.4c1.93,1.09,3.84,2.19,5.76,3.29A1.2,1.2,0,0,1,212.92,140.59Z"/><path class="cls-2" d="M212.9,114.72a1.23,1.23,0,0,1-.65,1.14c-1.93,1.11-3.87,2.23-5.81,3.33a1.28,1.28,0,0,1-1.3-2.21c1.36-.8,2.73-1.58,4.09-2.36.58-.34,1.16-.69,1.75-1A1.29,1.29,0,0,1,212.9,114.72Z"/><path class="cls-3" d="M191.52,119.94a6.55,6.55,0,0,1,2.34,1.14,8,8,0,0,1,3.39,6.78,8.13,8.13,0,1,1-11.88-7.38,7.8,7.8,0,0,1,1.06-.48c.17,0,.25,0,.25.17,0,.86,0,1.73,0,2.59,0,.22-.15.27-.28.35a5.33,5.33,0,1,0,7.56,2.35,4.84,4.84,0,0,0-2.07-2.31.64.64,0,0,1-.37-.67C191.54,121.65,191.52,120.81,191.52,119.94Z"/><path class="cls-3" d="M190.26,121c0,.84,0,1.69,0,2.54a1.14,1.14,0,0,1-1.15,1.23,1.18,1.18,0,0,1-1.15-1.25v-5a1.18,1.18,0,0,1,1.17-1.28,1.16,1.16,0,0,1,1.13,1.26C190.27,119.35,190.26,120.18,190.26,121Z"/><text class="cls-4" transform="translate(158.86 64.43)">Affor<tspan class="cls-5" x="26.5" y="0">d</tspan><tspan x="32.2" y="0">able and </tspan><tspan x="0" y="14.8">clean ener</tspan><tspan class="cls-6" x="51.06" y="14.8">g</tspan><tspan x="56.31" y="14.8">y</tspan></text></g></g></svg>