<svg xmlns="http://www.w3.org/2000/svg" viewBox="0 0 378.08 212.67"><defs><style>.cls-1{fill:#00336a;}.cls-2{fill:#fff;}</style></defs><g id="Capa_2" data-name="Capa 2"><g id="Capa_1-2" data-name="Capa 1"><rect class="cls-1" width="378.08" height="212.67"/><path class="cls-2" d="M214.48,125.38a13,13,0,0,1-4.73,9.81.61.61,0,0,0-.22.72A13.12,13.12,0,0,1,198.72,152a12.82,12.82,0,0,1-8.87-1.86.53.53,0,0,0-.68,0,13.12,13.12,0,0,1-20-8.74,12.85,12.85,0,0,1,.23-5.62.43.43,0,0,0-.17-.54,12.89,12.89,0,0,1-4.76-11.17,13.11,13.11,0,0,1,10.43-11.81,12.67,12.67,0,0,1,1.72-.23.59.59,0,0,0,.61-.45,12.89,12.89,0,0,1,6.12-6.84,13.1,13.1,0,0,1,18.2,6.62.93.93,0,0,0,.94.68,13.12,13.12,0,0,1,11.41,9.29A14.22,14.22,0,0,1,214.48,125.38Zm-25-5.82a13.32,13.32,0,0,1,9.57-7.35c-.94-3.33-5.4-6.3-9.49-6.32a10.37,10.37,0,0,0-9.66,6.32A13.33,13.33,0,0,1,189.45,119.56Zm-13-4.81c-3.57-.13-7.85,3.5-9,7.57a10.27,10.27,0,0,0,3.12,10.54,13.28,13.28,0,0,1,10-6.77A13.25,13.25,0,0,1,176.42,114.75Zm10.93,33.42a13.21,13.21,0,0,1-3.47-11.51,13.24,13.24,0,0,1-12,.33,10.43,10.43,0,0,0,15.49,11.18Zm21-15.31a10.44,10.44,0,0,0-2.09-17,9.79,9.79,0,0,0-3.82-1.17,13.17,13.17,0,0,1-.69,6.15,13.5,13.5,0,0,1-3.39,5.14A13.29,13.29,0,0,1,208.38,132.86ZM207,137a13.15,13.15,0,0,1-12-.35,13.24,13.24,0,0,1-3.34,11.51,10.32,10.32,0,0,0,11.66-.87C206.39,144.82,208.25,139.7,207,137Zm-15-7.21a10.34,10.34,0,0,0,14.16,4.65A10.34,10.34,0,0,0,192,129.77Zm-2.58,1.89a10.31,10.31,0,0,0,.11,14.86A10.39,10.39,0,0,0,189.41,131.66Zm-2.52-1.82a10.34,10.34,0,0,0-14.1,4.61A10.37,10.37,0,0,0,186.89,129.84Zm4.13-3.11c6.08-.81,9.82-6.91,8.74-11.91A10.36,10.36,0,0,0,191,126.73Zm-3.09,0a10.26,10.26,0,0,0-2.24-8.17,10.38,10.38,0,0,0-6.57-3.77A10.37,10.37,0,0,0,187.93,126.71Z"/><path class="cls-2" d="M145.54,56H146c3.22,0,6.45,0,9.67,0,.41,0,.46.15.49.51a19.07,19.07,0,0,1-.95,6.28c-1.28,5.34-2.58,10.67-3.85,16-.08.33-.21.42-.54.41-1.13,0-2.27,0-3.4,0H147c.82-3.32,1.63-6.6,2.43-9.88s1.61-6.57,2.44-9.92h-6.28Z"/><path class="cls-2" d="M138.43,60.59l-3.36,1.2v-1.3c0-.55,0-1.1,0-1.65a.4.4,0,0,1,.27-.43,15.36,15.36,0,0,0,4-2.32.56.56,0,0,1,.37-.1c.93,0,1.86,0,2.79,0,.3,0,.39.09.39.39,0,1.17,0,2.35,0,3.52V78.63c0,.54,0,.55-.55.55-1.13,0-2.27,0-3.4,0-.38,0-.47-.11-.47-.47q0-8.74,0-17.49Z"/><path class="cls-2" d="M170.66,64.6h-1.55l-.27-1.78H167l-.27,1.78h-1.41l1.57-9.8h2.25Zm-3.51-3.11h1.48l-.74-5Z"/><path class="cls-2" d="M171.37,54.8h1.54v8.4h2.54v1.4h-4.08Z"/><path class="cls-2" d="M176.12,54.8h1.54v8.4h2.54v1.4h-4.08Z"/><path class="cls-2" d="M180.87,54.8h1.54v9.8h-1.54Z"/><path class="cls-2" d="M188.51,64.6H187l-.27-1.78H184.8l-.27,1.78h-1.41l1.57-9.8h2.25ZM185,61.49h1.48l-.74-5Z"/><path class="cls-2" d="M190.6,57.5v7.1h-1.39V54.8h1.93l1.59,5.86V54.8h1.37v9.8h-1.58Z"/><path class="cls-2" d="M199.67,61v1.3c0,1.57-.78,2.46-2.3,2.46s-2.29-.89-2.29-2.46v-5.1c0-1.57.78-2.47,2.29-2.47s2.3.9,2.3,2.47v1h-1.46V57.05c0-.7-.31-1-.8-1s-.79.27-.79,1v5.3c0,.7.3.95.79.95s.8-.25.8-.95V61Z"/><path class="cls-2" d="M202.15,58.93h2.11v1.4h-2.11V63.2h2.66v1.4H200.6V54.8h4.21v1.4h-2.66Z"/><path class="cls-2" d="M207.83,54.68c1.5,0,2.27.9,2.27,2.47v.31h-1.46v-.41c0-.7-.28-1-.77-1s-.77.27-.77,1c0,2,3,2.4,3,5.2,0,1.57-.78,2.46-2.29,2.46s-2.3-.89-2.3-2.46v-.6H207v.7c0,.7.3.95.79.95s.8-.25.8-.95c0-2-3-2.4-3-5.2C205.56,55.58,206.33,54.68,207.83,54.68Z"/><path class="cls-2" d="M212.72,54.8h4.76v1.4h-1.61v8.4h-1.54V56.2h-1.61Z"/><path class="cls-2" d="M218,57.15a2.34,2.34,0,1,1,4.68,0v5.1a2.34,2.34,0,1,1-4.68,0Zm1.54,5.2c0,.7.31,1,.8,1s.8-.26.8-1v-5.3c0-.7-.31-1-.8-1s-.8.27-.8,1Z"/><path class="cls-2" d="M170.66,79.4h-1.55l-.27-1.78H167l-.27,1.78h-1.41l1.57-9.8h2.25Zm-3.51-3.11h1.48l-.74-5Z"/><path class="cls-2" d="M175.83,75.74v1.31a2.31,2.31,0,1,1-4.6,0V72c0-1.57.79-2.47,2.3-2.47s2.3.9,2.3,2.47v1h-1.46V71.85c0-.7-.31-1-.8-1s-.8.27-.8,1v5.3c0,.7.31.95.8.95s.8-.25.8-.95V75.74Z"/><path class="cls-2" d="M178.3,79.4h-1.54V69.6h1.54v4.2h1.76V69.6h1.56v9.8h-1.56V75.2H178.3Z"/><path class="cls-2" d="M182.74,69.6h1.54v9.8h-1.54Z"/><path class="cls-2" d="M186.94,73.73h2.12v1.4h-2.12V78h2.66v1.4h-4.2V69.6h4.2V71h-2.66Z"/><path class="cls-2" d="M192.88,77.59l1.18-8h1.41L194,79.4h-2.3l-1.51-9.8h1.55Z"/><path class="cls-2" d="M197.72,73.73h2.12v1.4h-2.12V78h2.66v1.4h-4.2V69.6h4.2V71h-2.66Z"/><path class="cls-2" d="M165.55,86.75a2.34,2.34,0,1,1,4.68,0v5.1a2.34,2.34,0,1,1-4.68,0Zm1.54,5.2c0,.7.31,1,.8,1s.8-.26.8-1v-5.3c0-.7-.31-1-.8-1s-.8.26-.8,1Z"/><path class="cls-2" d="M175.83,86.65V87a1.93,1.93,0,0,1-1,2,2,2,0,0,1,1.15,2.1v.8a2.08,2.08,0,0,1-2.34,2.32h-2.42V84.4h2.32C175.14,84.4,175.83,85.14,175.83,86.65Zm-3.07-.85v2.59h.6c.58,0,.93-.25.93-1v-.54c0-.7-.24-1-.79-1Zm0,4v3h.88c.52,0,.8-.24.8-1V91c0-.91-.29-1.19-1-1.19Z"/><path class="cls-2" d="M176.48,92.8a4.87,4.87,0,0,0,.54,0c.49,0,.88-.19.88-.94V84.4h1.54v7.36c0,2-1.05,2.47-2.21,2.47a5.94,5.94,0,0,1-.75,0Z"/><path class="cls-2" d="M182,88.53h2.11v1.4H182V92.8h2.66v1.4h-4.2V84.4h4.2v1.4H182Z"/><path class="cls-2" d="M190.11,90.55v1.3a2.31,2.31,0,1,1-4.6,0v-5.1c0-1.57.79-2.47,2.3-2.47s2.3.9,2.3,2.47v1h-1.46v-1c0-.7-.31-1-.8-1s-.8.26-.8,1V92c0,.7.31,1,.8,1s.8-.25.8-1v-1.4Z"/><path class="cls-2" d="M190.59,84.4h4.77v1.4h-1.61v8.4H192.2V85.8h-1.61Z"/><path class="cls-2" d="M196,84.4h1.54v9.8H196Z"/><path class="cls-2" d="M201,92.4l1.18-8h1.41l-1.51,9.8h-2.3l-1.51-9.8h1.55Z"/><path class="cls-2" d="M205.85,88.53H208v1.4h-2.12V92.8h2.67v1.4h-4.21V84.4h4.21v1.4h-2.67Z"/><path class="cls-2" d="M211.54,84.28c1.5,0,2.27.9,2.27,2.47v.31h-1.46v-.41c0-.7-.28-1-.77-1s-.77.26-.77,1c0,2,3,2.4,3,5.2,0,1.57-.78,2.46-2.3,2.46s-2.29-.89-2.29-2.46v-.6h1.46V92c0,.7.3,1,.79,1s.8-.25.8-1c0-2-3-2.4-3-5.2C209.27,85.18,210,84.28,211.54,84.28Z"/></g></g></svg>